v 0.00249999994 -6.12323395e-19 0.00234999997
v 0.00248534488 0.000270297547 0.00234999997
v 0.00205488317 0.000223482013 0.00160002196
v 0.0024415513 0.000537426095 0.00234999997
v 0.00201867474 0.000444343896 0.00160002196
v 0.00236913282 0.000798253808 0.00234999997
v 0.00195879908 0.000659996236 0.00160002196
v 0.00226893858 0.00104972278 0.00234999997
v 0.00187595841 0.0008679108 0.00160002196
v 0.00214214297 0.00128888467 0.00234999997
v 0.00177112373 0.00106564979 0.00160002196
v 0.00199023262 0.0015129355 0.00234999997
v 0.0016455244 0.00125089509 0.00160002196
v 0.00181498867 0.0017192486 0.00234999997
v 0.00150063273 0.00142147474 0.00160002196
v 0.00161846576 0.0019054052 0.00234999997
v 0.00133814744 0.00157538895 0.00160002196
v 0.00140296761 0.00206922251 0.00234999997
v 0.00115997368 0.00171083317 0.00160002196
v 0.00117102114 0.00220878003 0.00234999997
v 0.000968200271 0.00182621938 0.00160002196
v 0.000925345405 0.0023224419 0.00234999997
v 0.000765075558 0.00192019483 0.00160002196
v 0.000668820867 0.00240887492 0.00234999997
v 0.000552981102 0.00199165777 0.00160002196
v 0.000404455001 0.00246706628 0.00234999997
v 0.00033440339 0.00203977036 0.00160002196
v 0.000135347276 0.00249633356 0.00234999997
v 0.000111905123 0.00206396845 0.00160002196
v -0.000135347276 0.00249633356 0.00234999997
v -0.000111905123 0.00206396845 0.00160002196
v -0.000404455001 0.00246706628 0.00234999997
v -0.00033440339 0.00203977036 0.00160002196
v -0.000668820867 0.00240887492 0.00234999997
v -0.000552981102 0.00199165777 0.00160002196
v -0.000925345405 0.0023224419 0.00234999997
v -0.000765075558 0.00192019483 0.00160002196
v -0.00117102114 0.00220878003 0.00234999997
v -0.000968200271 0.00182621938 0.00160002196
v -0.00140296761 0.00206922251 0.00234999997
v -0.00115997368 0.00171083317 0.00160002196
v -0.00161846576 0.0019054052 0.00234999997
v -0.00133814744 0.00157538895 0.00160002196
v -0.00181498867 0.0017192486 0.00234999997
v -0.00150063273 0.00142147474 0.00160002196
v -0.00199023262 0.0015129355 0.00234999997
v -0.0016455244 0.00125089509 0.00160002196
v -0.00214214297 0.00128888467 0.00234999997
v -0.00177112373 0.00106564979 0.00160002196
v -0.00226893858 0.00104972278 0.00234999997
v -0.00187595841 0.0008679108 0.00160002196
v -0.00236913282 0.000798253808 0.00234999997
v -0.00195879908 0.000659996236 0.00160002196
v -0.0024415513 0.000537426095 0.00234999997
v -0.00201867474 0.000444343896 0.00160002196
v -0.00248534488 0.000270297547 0.00234999997
v -0.00205488317 0.000223482013 0.00160002196
v -0.00249999994 -1.91428433e-18 0.00234999997
v -0.00206699991 -1.58273028e-18 0.00160002196
v -0.00248534488 -0.000270297547 0.00234999997
v -0.00205488317 -0.000223482013 0.00160002196
v -0.0024415513 -0.000537426095 0.00234999997
v -0.00201867474 -0.000444343896 0.00160002196
v -0.00236913282 -0.000798253808 0.00234999997
v -0.00195879908 -0.000659996236 0.00160002196
v -0.00226893858 -0.00104972278 0.00234999997
v -0.00187595841 -0.0008679108 0.00160002196
v -0.00214214297 -0.00128888467 0.00234999997
v -0.00177112373 -0.00106564979 0.00160002196
v -0.00199023262 -0.0015129355 0.00234999997
v -0.0016455244 -0.00125089509 0.00160002196
v -0.00181498867 -0.0017192486 0.00234999997
v -0.00150063273 -0.00142147474 0.00160002196
v -0.00161846576 -0.0019054052 0.00234999997
v -0.00133814744 -0.00157538895 0.00160002196
v -0.00140296761 -0.00206922251 0.00234999997
v -0.00115997368 -0.00171083317 0.00160002196
v -0.00117102114 -0.00220878003 0.00234999997
v -0.000968200271 -0.00182621938 0.00160002196
v -0.000925345405 -0.0023224419 0.00234999997
v -0.000765075558 -0.00192019483 0.00160002196
v -0.000668820867 -0.00240887492 0.00234999997
v -0.000552981102 -0.00199165777 0.00160002196
v -0.000404455001 -0.00246706628 0.00234999997
v -0.00033440339 -0.00203977036 0.00160002196
v -0.000135347276 -0.00249633356 0.00234999997
v -0.000111905123 -0.00206396845 0.00160002196
v 0.000135347276 -0.00249633356 0.00234999997
v 0.000111905123 -0.00206396845 0.00160002196
v 0.000404455001 -0.00246706628 0.00234999997
v 0.00033440339 -0.00203977036 0.00160002196
v 0.000668820867 -0.00240887492 0.00234999997
v 0.000552981102 -0.00199165777 0.00160002196
v 0.000925345405 -0.0023224419 0.00234999997
v 0.000765075558 -0.00192019483 0.00160002196
v 0.00117102114 -0.00220878003 0.00234999997
v 0.000968200271 -0.00182621938 0.00160002196
v 0.00140296761 -0.00206922251 0.00234999997
v 0.00115997368 -0.00171083317 0.00160002196
v 0.00161846576 -0.0019054052 0.00234999997
v 0.00133814744 -0.00157538895 0.00160002196
v 0.00181498867 -0.0017192486 0.00234999997
v 0.00150063273 -0.00142147474 0.00160002196
v 0.00199023262 -0.0015129355 0.00234999997
v 0.0016455244 -0.00125089509 0.00160002196
v 0.00214214297 -0.00128888467 0.00234999997
v 0.00177112373 -0.00106564979 0.00160002196
v 0.00226893858 -0.00104972278 0.00234999997
v 0.00187595841 -0.0008679108 0.00160002196
v 0.00236913282 -0.000798253808 0.00234999997
v 0.00195879908 -0.000659996236 0.00160002196
v 0.0024415513 -0.000537426095 0.00234999997
v 0.00201867474 -0.000444343896 0.00160002196
v 0.00248534488 -0.000270297547 0.00234999997
v 0.00205488317 -0.000223482013 0.00160002196
v 0.00206699991 0 0.00160002196
v -0.00205488317 -0.000223482013 -0.00160002196
v -0.00206699991 0 -0.00160002196
v -0.00206699991 -1.58273028e-18 0.00160002196
v -0.00201867474 -0.000444343896 -0.00160002196
v -0.00205488317 -0.000223482013 0.00160002196
v -0.00195879908 -0.000659996236 -0.00160002196
v -0.00201867474 -0.000444343896 0.00160002196
v -0.00187595841 -0.0008679108 -0.00160002196
v -0.00195879908 -0.000659996236 0.00160002196
v -0.00177112373 -0.00106564979 -0.00160002196
v -0.00187595841 -0.0008679108 0.00160002196
v -0.0016455244 -0.00125089509 -0.00160002196
v -0.00177112373 -0.00106564979 0.00160002196
v -0.00150063273 -0.00142147474 -0.00160002196
v -0.0016455244 -0.00125089509 0.00160002196
v -0.00133814744 -0.00157538895 -0.00160002196
v -0.00150063273 -0.00142147474 0.00160002196
v -0.00115997368 -0.00171083317 -0.00160002196
v -0.00133814744 -0.00157538895 0.00160002196
v -0.000968200271 -0.00182621938 -0.00160002196
v -0.00115997368 -0.00171083317 0.00160002196
v -0.000765075558 -0.00192019483 -0.00160002196
v -0.000968200271 -0.00182621938 0.00160002196
v -0.000552981102 -0.00199165777 -0.00160002196
v -0.000765075558 -0.00192019483 0.00160002196
v -0.00033440339 -0.00203977036 -0.00160002196
v -0.000552981102 -0.00199165777 0.00160002196
v -0.000111905123 -0.00206396845 -0.00160002196
v -0.00033440339 -0.00203977036 0.00160002196
v 0.000111905123 -0.00206396845 -0.00160002196
v -0.000111905123 -0.00206396845 0.00160002196
v 0.00033440339 -0.00203977036 -0.00160002196
v 0.000111905123 -0.00206396845 0.00160002196
v 0.000552981102 -0.00199165777 -0.00160002196
v 0.00033440339 -0.00203977036 0.00160002196
v 0.000765075558 -0.00192019483 -0.00160002196
v 0.000552981102 -0.00199165777 0.00160002196
v 0.000968200271 -0.00182621938 -0.00160002196
v 0.000765075558 -0.00192019483 0.00160002196
v 0.00115997368 -0.00171083317 -0.00160002196
v 0.000968200271 -0.00182621938 0.00160002196
v 0.00133814744 -0.00157538895 -0.00160002196
v 0.00115997368 -0.00171083317 0.00160002196
v 0.00150063273 -0.00142147474 -0.00160002196
v 0.00133814744 -0.00157538895 0.00160002196
v 0.0016455244 -0.00125089509 -0.00160002196
v 0.00150063273 -0.00142147474 0.00160002196
v 0.00177112373 -0.00106564979 -0.00160002196
v 0.0016455244 -0.00125089509 0.00160002196
v 0.00187595841 -0.0008679108 -0.00160002196
v 0.00177112373 -0.00106564979 0.00160002196
v 0.00195879908 -0.000659996236 -0.00160002196
v 0.00187595841 -0.0008679108 0.00160002196
v 0.00201867474 -0.000444343896 -0.00160002196
v 0.00195879908 -0.000659996236 0.00160002196
v 0.00205488317 -0.000223482013 -0.00160002196
v 0.00201867474 -0.000444343896 0.00160002196
v 0.00206699991 2.53134483e-19 -0.00160002196
v 0.00205488317 -0.000223482013 0.00160002196
v 0.00205488317 0.000223482013 -0.00160002196
v 0.00206699991 0 0.00160002196
v 0.00201867474 0.000444343896 -0.00160002196
v 0.00205488317 0.000223482013 0.00160002196
v 0.00195879908 0.000659996236 -0.00160002196
v 0.00201867474 0.000444343896 0.00160002196
v 0.00187595841 0.0008679108 -0.00160002196
v 0.00195879908 0.000659996236 0.00160002196
v 0.00177112373 0.00106564979 -0.00160002196
v 0.00187595841 0.0008679108 0.00160002196
v 0.0016455244 0.00125089509 -0.00160002196
v 0.00177112373 0.00106564979 0.00160002196
v 0.00150063273 0.00142147474 -0.00160002196
v 0.0016455244 0.00125089509 0.00160002196
v 0.00133814744 0.00157538895 -0.00160002196
v 0.00150063273 0.00142147474 0.00160002196
v 0.00115997368 0.00171083317 -0.00160002196
v 0.00133814744 0.00157538895 0.00160002196
v 0.000968200271 0.00182621938 -0.00160002196
v 0.00115997368 0.00171083317 0.00160002196
v 0.000765075558 0.00192019483 -0.00160002196
v 0.000968200271 0.00182621938 0.00160002196
v 0.000552981102 0.00199165777 -0.00160002196
v 0.000765075558 0.00192019483 0.00160002196
v 0.00033440339 0.00203977036 -0.00160002196
v 0.000552981102 0.00199165777 0.00160002196
v 0.000111905123 0.00206396845 -0.00160002196
v 0.00033440339 0.00203977036 0.00160002196
v -0.000111905123 0.00206396845 -0.00160002196
v 0.000111905123 0.00206396845 0.00160002196
v -0.00033440339 0.00203977036 -0.00160002196
v -0.000111905123 0.00206396845 0.00160002196
v -0.000552981102 0.00199165777 -0.00160002196
v -0.00033440339 0.00203977036 0.00160002196
v -0.000765075558 0.00192019483 -0.00160002196
v -0.000552981102 0.00199165777 0.00160002196
v -0.000968200271 0.00182621938 -0.00160002196
v -0.000765075558 0.00192019483 0.00160002196
v -0.00115997368 0.00171083317 -0.00160002196
v -0.000968200271 0.00182621938 0.00160002196
v -0.00133814744 0.00157538895 -0.00160002196
v -0.00115997368 0.00171083317 0.00160002196
v -0.00150063273 0.00142147474 -0.00160002196
v -0.00133814744 0.00157538895 0.00160002196
v -0.0016455244 0.00125089509 -0.00160002196
v -0.00150063273 0.00142147474 0.00160002196
v -0.00177112373 0.00106564979 -0.00160002196
v -0.0016455244 0.00125089509 0.00160002196
v -0.00187595841 0.0008679108 -0.00160002196
v -0.00177112373 0.00106564979 0.00160002196
v -0.00195879908 0.000659996236 -0.00160002196
v -0.00187595841 0.0008679108 0.00160002196
v -0.00201867474 0.000444343896 -0.00160002196
v -0.00195879908 0.000659996236 0.00160002196
v -0.00205488317 0.000223482013 -0.00160002196
v -0.00201867474 0.000444343896 0.00160002196
v -0.00205488317 0.000223482013 0.00160002196
v -0.00249999994 0 -0.00234999997
v -0.00248534488 0.000270297547 -0.00234999997
v -0.00205488317 0.000223482013 -0.00160002196
v -0.0024415513 0.000537426095 -0.00234999997
v -0.00201867474 0.000444343896 -0.00160002196
v -0.00236913282 0.000798253808 -0.00234999997
v -0.00195879908 0.000659996236 -0.00160002196
v -0.00226893858 0.00104972278 -0.00234999997
v -0.00187595841 0.0008679108 -0.00160002196
v -0.00214214297 0.00128888467 -0.00234999997
v -0.00177112373 0.00106564979 -0.00160002196
v -0.00199023262 0.0015129355 -0.00234999997
v -0.0016455244 0.00125089509 -0.00160002196
v -0.00181498867 0.0017192486 -0.00234999997
v -0.00150063273 0.00142147474 -0.00160002196
v -0.00161846576 0.0019054052 -0.00234999997
v -0.00133814744 0.00157538895 -0.00160002196
v -0.00140296761 0.00206922251 -0.00234999997
v -0.00115997368 0.00171083317 -0.00160002196
v -0.00117102114 0.00220878003 -0.00234999997
v -0.000968200271 0.00182621938 -0.00160002196
v -0.000925345405 0.0023224419 -0.00234999997
v -0.000765075558 0.00192019483 -0.00160002196
v -0.000668820867 0.00240887492 -0.00234999997
v -0.000552981102 0.00199165777 -0.00160002196
v -0.000404455001 0.00246706628 -0.00234999997
v -0.00033440339 0.00203977036 -0.00160002196
v -0.000135347276 0.00249633356 -0.00234999997
v -0.000111905123 0.00206396845 -0.00160002196
v 0.000135347276 0.00249633356 -0.00234999997
v 0.000111905123 0.00206396845 -0.00160002196
v 0.000404455001 0.00246706628 -0.00234999997
v 0.00033440339 0.00203977036 -0.00160002196
v 0.000668820867 0.00240887492 -0.00234999997
v 0.000552981102 0.00199165777 -0.00160002196
v 0.000925345405 0.0023224419 -0.00234999997
v 0.000765075558 0.00192019483 -0.00160002196
v 0.00117102114 0.00220878003 -0.00234999997
v 0.000968200271 0.00182621938 -0.00160002196
v 0.00140296761 0.00206922251 -0.00234999997
v 0.00115997368 0.00171083317 -0.00160002196
v 0.00161846576 0.0019054052 -0.00234999997
v 0.00133814744 0.00157538895 -0.00160002196
v 0.00181498867 0.0017192486 -0.00234999997
v 0.00150063273 0.00142147474 -0.00160002196
v 0.00199023262 0.0015129355 -0.00234999997
v 0.0016455244 0.00125089509 -0.00160002196
v 0.00214214297 0.00128888467 -0.00234999997
v 0.00177112373 0.00106564979 -0.00160002196
v 0.00226893858 0.00104972278 -0.00234999997
v 0.00187595841 0.0008679108 -0.00160002196
v 0.00236913282 0.000798253808 -0.00234999997
v 0.00195879908 0.000659996236 -0.00160002196
v 0.0024415513 0.000537426095 -0.00234999997
v 0.00201867474 0.000444343896 -0.00160002196
v 0.00248534488 0.000270297547 -0.00234999997
v 0.00205488317 0.000223482013 -0.00160002196
v 0.00249999994 9.18485119e-19 -0.00234999997
v 0.00206699991 2.53134483e-19 -0.00160002196
v 0.00248534488 -0.000270297547 -0.00234999997
v 0.00205488317 -0.000223482013 -0.00160002196
v 0.0024415513 -0.000537426095 -0.00234999997
v 0.00201867474 -0.000444343896 -0.00160002196
v 0.00236913282 -0.000798253808 -0.00234999997
v 0.00195879908 -0.000659996236 -0.00160002196
v 0.00226893858 -0.00104972278 -0.00234999997
v 0.00187595841 -0.0008679108 -0.00160002196
v 0.00214214297 -0.00128888467 -0.00234999997
v 0.00177112373 -0.00106564979 -0.00160002196
v 0.00199023262 -0.0015129355 -0.00234999997
v 0.0016455244 -0.00125089509 -0.00160002196
v 0.00181498867 -0.0017192486 -0.00234999997
v 0.00150063273 -0.00142147474 -0.00160002196
v 0.00161846576 -0.0019054052 -0.00234999997
v 0.00133814744 -0.00157538895 -0.00160002196
v 0.00140296761 -0.00206922251 -0.00234999997
v 0.00115997368 -0.00171083317 -0.00160002196
v 0.00117102114 -0.00220878003 -0.00234999997
v 0.000968200271 -0.00182621938 -0.00160002196
v 0.000925345405 -0.0023224419 -0.00234999997
v 0.000765075558 -0.00192019483 -0.00160002196
v 0.000668820867 -0.00240887492 -0.00234999997
v 0.000552981102 -0.00199165777 -0.00160002196
v 0.000404455001 -0.00246706628 -0.00234999997
v 0.00033440339 -0.00203977036 -0.00160002196
v 0.000135347276 -0.00249633356 -0.00234999997
v 0.000111905123 -0.00206396845 -0.00160002196
v -0.000135347276 -0.00249633356 -0.00234999997
v -0.000111905123 -0.00206396845 -0.00160002196
v -0.000404455001 -0.00246706628 -0.00234999997
v -0.00033440339 -0.00203977036 -0.00160002196
v -0.000668820867 -0.00240887492 -0.00234999997
v -0.000552981102 -0.00199165777 -0.00160002196
v -0.000925345405 -0.0023224419 -0.00234999997
v -0.000765075558 -0.00192019483 -0.00160002196
v -0.00117102114 -0.00220878003 -0.00234999997
v -0.000968200271 -0.00182621938 -0.00160002196
v -0.00140296761 -0.00206922251 -0.00234999997
v -0.00115997368 -0.00171083317 -0.00160002196
v -0.00161846576 -0.0019054052 -0.00234999997
v -0.00133814744 -0.00157538895 -0.00160002196
v -0.00181498867 -0.0017192486 -0.00234999997
v -0.00150063273 -0.00142147474 -0.00160002196
v -0.00199023262 -0.0015129355 -0.00234999997
v -0.0016455244 -0.00125089509 -0.00160002196
v -0.00214214297 -0.00128888467 -0.00234999997
v -0.00177112373 -0.00106564979 -0.00160002196
v -0.00226893858 -0.00104972278 -0.00234999997
v -0.00187595841 -0.0008679108 -0.00160002196
v -0.00236913282 -0.000798253808 -0.00234999997
v -0.00195879908 -0.000659996236 -0.00160002196
v -0.0024415513 -0.000537426095 -0.00234999997
v -0.00201867474 -0.000444343896 -0.00160002196
v -0.00248534488 -0.000270297547 -0.00234999997
v -0.00205488317 -0.000223482013 -0.00160002196
v -0.00206699991 0 -0.00160002196
v -0.00298264832 0.00266529713 -0.00234999997
v -0.00181498867 0.0017192486 -0.00234999997
v -0.00199023262 0.0015129355 -0.00234999997
v -0.00268398481 0.00296584307 -0.00234999997
v -0.00161846576 0.0019054052 -0.00234999997
v -0.000816890795 0.0039156978 -0.00234999997
v -0.000404455001 0.00246706628 -0.00234999997
v -0.000668820867 0.00240887492 -0.00234999997
v -0.000398112606 0.0039801388 -0.00234999997
v -0.000135347276 0.00249633356 -0.00234999997
v 0 0.00400000019 -0.00234999997
v 0.000398112606 0.0039801388 -0.00234999997
v 0.000135347276 0.00249633356 -0.00234999997
v -0.00235520583 0.003233111 -0.00234999997
v -0.00140296761 0.00206922251 -0.00234999997
v -0.00162235333 0.00365622342 -0.00234999997
v -0.000925345405 0.0023224419 -0.00234999997
v -0.00117102114 0.00220878003 -0.00234999997
v -0.00122650305 0.00380732073 -0.00234999997
v 0.00379953929 -0.00125040079 -0.00234999997
v 0.00236913282 -0.000798253808 -0.00234999997
v 0.0024415513 -0.000537426095 -0.00234999997
v 0.00364595768 -0.0016452939 -0.00234999997
v 0.00226893858 -0.00104972278 -0.00234999997
v -0.00397755904 0.000423112535 -0.00234999997
v -0.00248534488 0.000270297547 -0.00234999997
v -0.00249999994 0 -0.00234999997
v -0.00391048798 0.000841477537 -0.00234999997
v -0.0024415513 0.000537426095 -0.00234999997
v -0.00364595768 0.0016452939 -0.00234999997
v -0.00226893858 0.00104972278 -0.00234999997
v -0.00236913282 0.000798253808 -0.00234999997
v -0.00346410158 0.00200000009 -0.00234999997
v -0.00214214297 0.00128888467 -0.00234999997
v -0.00200000009 0.00346410158 -0.00234999997
v 0.00122650305 0.00380732073 -0.00234999997
v 0.00162235333 0.00365622342 -0.00234999997
v 0.000925345405 0.0023224419 -0.00234999997
v 0.00200000009 0.00346410158 -0.00234999997
v 0.00117102114 0.00220878003 -0.00234999997
v 0.00391048798 0.000841477537 -0.00234999997
v 0.00397755904 0.000423112535 -0.00234999997
v 0.00248534488 0.000270297547 -0.00234999997
v 0.00400000019 -9.79717474e-19 -0.00234999997
v 0.00249999994 9.18485119e-19 -0.00234999997
v 0.00391048798 -0.000841477537 -0.00234999997
v 0.00248534488 -0.000270297547 -0.00234999997
v 0.00235520583 -0.003233111 -0.00234999997
v 0.00140296761 -0.00206922251 -0.00234999997
v 0.00161846576 -0.0019054052 -0.00234999997
v 0.00200000009 -0.00346410158 -0.00234999997
v 0.00117102114 -0.00220878003 -0.00234999997
v -0.00379953929 0.00125040079 -0.00234999997
v -0.00324784522 0.00233484502 -0.00234999997
v 0.000816890795 0.0039156978 -0.00234999997
v 0.000404455001 0.00246706628 -0.00234999997
v 0.000668820867 0.00240887492 -0.00234999997
v 0.00235520583 0.003233111 -0.00234999997
v 0.00140296761 0.00206922251 -0.00234999997
v 0.00268398481 0.00296584307 -0.00234999997
v 0.00161846576 0.0019054052 -0.00234999997
v 0.00298264832 0.00266529713 -0.00234999997
v 0.00181498867 0.0017192486 -0.00234999997
v 0.00324784522 0.00233484502 -0.00234999997
v 0.00346410158 0.00200000009 -0.00234999997
v 0.00214214297 0.00128888467 -0.00234999997
v 0.00364595768 0.0016452939 -0.00234999997
v 0.00226893858 0.00104972278 -0.00234999997
v 0.00379953929 0.00125040079 -0.00234999997
v 0.00236913282 0.000798253808 -0.00234999997
v 0.0024415513 0.000537426095 -0.00234999997
v 0.00397755904 -0.000423112535 -0.00234999997
v 0.00346410158 -0.00200000009 -0.00234999997
v 0.00214214297 -0.00128888467 -0.00234999997
v 0.00324784522 -0.00233484502 -0.00234999997
v 0.00199023262 -0.0015129355 -0.00234999997
v 0.00298264832 -0.00266529713 -0.00234999997
v 0.00181498867 -0.0017192486 -0.00234999997
v 0.00268398481 -0.00296584307 -0.00234999997
v 0.000816890795 -0.0039156978 -0.00234999997
v 0.000404455001 -0.00246706628 -0.00234999997
v 0.000668820867 -0.00240887492 -0.00234999997
v 0.000398112606 -0.0039801388 -0.00234999997
v 0.000135347276 -0.00249633356 -0.00234999997
v 0 -0.00400000019 -0.00234999997
v -0.000135347276 -0.00249633356 -0.00234999997
v -0.00235520583 -0.003233111 -0.00234999997
v -0.00268398481 -0.00296584307 -0.00234999997
v -0.00161846576 -0.0019054052 -0.00234999997
v -0.00298264832 -0.00266529713 -0.00234999997
v -0.00181498867 -0.0017192486 -0.00234999997
v -0.00324784522 -0.00233484502 -0.00234999997
v -0.00199023262 -0.0015129355 -0.00234999997
v -0.00346410158 -0.00200000009 -0.00234999997
v -0.00214214297 -0.00128888467 -0.00234999997
v -0.00364595768 -0.0016452939 -0.00234999997
v -0.00379953929 -0.00125040079 -0.00234999997
v -0.00236913282 -0.000798253808 -0.00234999997
v -0.00391048798 -0.000841477537 -0.00234999997
v -0.0024415513 -0.000537426095 -0.00234999997
v 0.00199023262 0.0015129355 -0.00234999997
v 0.00162235333 -0.00365622342 -0.00234999997
v 0.000925345405 -0.0023224419 -0.00234999997
v 0.00122650305 -0.00380732073 -0.00234999997
v -0.000398112606 -0.0039801388 -0.00234999997
v -0.000816890795 -0.0039156978 -0.00234999997
v -0.000404455001 -0.00246706628 -0.00234999997
v -0.00162235333 -0.00365622342 -0.00234999997
v -0.00200000009 -0.00346410158 -0.00234999997
v -0.00117102114 -0.00220878003 -0.00234999997
v -0.00140296761 -0.00206922251 -0.00234999997
v -0.00226893858 -0.00104972278 -0.00234999997
v -0.00122650305 -0.00380732073 -0.00234999997
v -0.000668820867 -0.00240887492 -0.00234999997
v -0.000925345405 -0.0023224419 -0.00234999997
v -0.00397755904 -0.000423112535 -0.00234999997
v -0.00248534488 -0.000270297547 -0.00234999997
v -0.00400000019 4.89858737e-19 -0.00234999997
v -0.00200000009 -0.00346410158 -0.00234999997
v -0.00230940105 -0.00400000019 -0.00199273438
v -0.0025693893 -0.00354968733 -0.00211518235
v -0.00235520583 -0.003233111 -0.00234999997
v -0.00281981495 -0.00311593735 -0.00223312667
v -0.00268398481 -0.00296584307 -0.00234999997
v -0.00304686278 -0.00272267894 -0.00230028015
v -0.00298264832 -0.00266529713 -0.00234999997
v -0.00326405209 -0.0023464961 -0.00233847601
v -0.000816890795 -0.0039156978 -0.00234999997
v -0.000398112606 -0.0039801388 -0.00234999997
v -0.000400099205 -0.00400000019 -0.00233847601
v -0.00122650305 -0.00380732073 -0.00234999997
v -0.000834477833 -0.00400000019 -0.00230028015
v -0.00162235333 -0.00365622342 -0.00234999997
v -0.00128857337 -0.00400000019 -0.00223312667
v -0.0017894248 -0.00400000019 -0.00211518235
v 0 -0.00400000019 -0.00234999997
v -0.00346410158 -0.00200000009 -0.00234999997
v -0.00324784522 -0.00233484502 -0.00234999997
v 0.00298264832 -0.00266529713 -0.00234999997
v 0.00324784522 -0.00233484502 -0.00234999997
v 0.00326405209 -0.0023464961 -0.00233847601
v 0.00268398481 -0.00296584307 -0.00234999997
v 0.00304686278 -0.00272267894 -0.00230028015
v 0.00235520583 -0.003233111 -0.00234999997
v 0.00281981495 -0.00311593735 -0.00223312667
v 0.00200000009 -0.00346410158 -0.00234999997
v 0.0025693893 -0.00354968733 -0.00211518235
v 0.00230940105 -0.00400000019 -0.00199273438
v 0.0017894248 -0.00400000019 -0.00211518235
v 0.00162235333 -0.00365622342 -0.00234999997
v 0.00128857337 -0.00400000019 -0.00223312667
v 0.00122650305 -0.00380732073 -0.00234999997
v 0.000834477833 -0.00400000019 -0.00230028015
v 0.000816890795 -0.0039156978 -0.00234999997
v 0.000400099205 -0.00400000019 -0.00233847601
v 0 -0.00400000019 -0.00234999997
v 0.000398112606 -0.0039801388 -0.00234999997
v 0.00346410158 -0.00200000009 -0.00234999997
v 0.00379953929 0.00125040079 -0.00234999997
v 0.00364595768 0.0016452939 -0.00234999997
v 0.0036641513 0.00165350398 -0.00233847601
v 0.00391048798 0.000841477537 -0.00234999997
v 0.00388134061 0.00127732102 -0.00230028015
v 0.00397755904 0.000423112535 -0.00234999997
v 0.00410838844 0.000884062727 -0.00223312667
v 0.00400000019 -9.79717474e-19 -0.00234999997
v 0.0043588141 0.000450312684 -0.00211518235
v 0.00461880211 4.33680869e-18 -0.00199273438
v 0.0043588141 -0.000450312684 -0.00211518235
v 0.00397755904 -0.000423112535 -0.00234999997
v 0.00410838844 -0.000884062727 -0.00223312667
v 0.00391048798 -0.000841477537 -0.00234999997
v 0.00388134061 -0.00127732102 -0.00230028015
v 0.00379953929 -0.00125040079 -0.00234999997
v 0.0036641513 -0.00165350398 -0.00233847601
v 0.00346410158 -0.00200000009 -0.00234999997
v 0.00364595768 -0.0016452939 -0.00234999997
v 0.00346410158 0.00200000009 -0.00234999997
v 0.000816890795 0.0039156978 -0.00234999997
v 0.000398112606 0.0039801388 -0.00234999997
v 0.000400099205 0.00400000019 -0.00233847601
v 0.00122650305 0.00380732073 -0.00234999997
v 0.000834477833 0.00400000019 -0.00230028015
v 0.00162235333 0.00365622342 -0.00234999997
v 0.00128857337 0.00400000019 -0.00223312667
v 0.00200000009 0.00346410158 -0.00234999997
v 0.0017894248 0.00400000019 -0.00211518235
v 0.00230940105 0.00400000019 -0.00199273438
v 0.0025693893 0.00354968733 -0.00211518235
v 0.00235520583 0.003233111 -0.00234999997
v 0.00281981495 0.00311593735 -0.00223312667
v 0.00268398481 0.00296584307 -0.00234999997
v 0.00304686278 0.00272267894 -0.00230028015
v 0.00298264832 0.00266529713 -0.00234999997
v 0.00326405209 0.0023464961 -0.00233847601
v 0.00346410158 0.00200000009 -0.00234999997
v 0.00324784522 0.00233484502 -0.00234999997
v 0 0.00400000019 -0.00234999997
v -0.00298264832 0.00266529713 -0.00234999997
v -0.00324784522 0.00233484502 -0.00234999997
v -0.00326405209 0.0023464961 -0.00233847601
v -0.00268398481 0.00296584307 -0.00234999997
v -0.00304686278 0.00272267894 -0.00230028015
v -0.00235520583 0.003233111 -0.00234999997
v -0.00281981495 0.00311593735 -0.00223312667
v -0.00200000009 0.00346410158 -0.00234999997
v -0.0025693893 0.00354968733 -0.00211518235
v -0.00230940105 0.00400000019 -0.00199273438
v -0.0017894248 0.00400000019 -0.00211518235
v -0.00162235333 0.00365622342 -0.00234999997
v -0.00128857337 0.00400000019 -0.00223312667
v -0.00122650305 0.00380732073 -0.00234999997
v -0.000834477833 0.00400000019 -0.00230028015
v -0.000816890795 0.0039156978 -0.00234999997
v -0.000400099205 0.00400000019 -0.00233847601
v 0 0.00400000019 -0.00234999997
v -0.000398112606 0.0039801388 -0.00234999997
v -0.00346410158 0.00200000009 -0.00234999997
v -0.00379953929 -0.00125040079 -0.00234999997
v -0.00364595768 -0.0016452939 -0.00234999997
v -0.0036641513 -0.00165350398 -0.00233847601
v -0.00391048798 -0.000841477537 -0.00234999997
v -0.00388134061 -0.00127732102 -0.00230028015
v -0.00397755904 -0.000423112535 -0.00234999997
v -0.00410838844 -0.000884062727 -0.00223312667
v -0.00400000019 4.89858737e-19 -0.00234999997
v -0.0043588141 -0.000450312684 -0.00211518235
v -0.00461880211 -3.03576608e-18 -0.00199273438
v -0.0043588141 0.000450312684 -0.00211518235
v -0.00397755904 0.000423112535 -0.00234999997
v -0.00410838844 0.000884062727 -0.00223312667
v -0.00391048798 0.000841477537 -0.00234999997
v -0.00388134061 0.00127732102 -0.00230028015
v -0.00379953929 0.00125040079 -0.00234999997
v -0.0036641513 0.00165350398 -0.00233847601
v -0.00346410158 0.00200000009 -0.00234999997
v -0.00364595768 0.0016452939 -0.00234999997
v -0.00346410158 -0.00200000009 -0.00234999997
v -0.00281981495 -0.00311593735 0.00223312667
v -0.00326405209 -0.0023464961 -0.00233847601
v -0.00304686278 -0.00272267894 -0.00230028015
v -0.00410838844 -0.000884062727 0.00223312667
v -0.0043588141 -0.000450312684 0.00211518235
v -0.00388134061 -0.00127732102 -0.00230028015
v -0.0025693893 -0.00354968733 0.00211518235
v -0.0036641513 -0.00165350398 -0.00233847601
v -0.00388134061 -0.00127732102 0.00230028015
v -0.00304686278 -0.00272267894 0.00230028015
v -0.0036641513 -0.00165350398 0.00233847601
v -0.00326405209 -0.0023464961 0.00233847601
v -0.0043588141 -0.000450312684 -0.00211518235
v -0.00410838844 -0.000884062727 -0.00223312667
v -0.00461880211 -4.33680869e-18 0.00199273438
v -0.00461880211 -3.03576608e-18 -0.00199273438
v -0.00346410158 -0.00200000009 0.00234999997
v -0.00346410158 -0.00200000009 -0.00234999997
v -0.0025693893 -0.00354968733 -0.00211518235
v -0.00230940105 -0.00400000019 -0.00199273438
v -0.00281981495 -0.00311593735 -0.00223312667
v -0.00230940105 -0.00400000019 0.00199273438
v -0.00400000019 -9.79717474e-19 0.00234999997
v -0.00461880211 -4.33680869e-18 0.00199273438
v -0.0043588141 -0.000450312684 0.00211518235
v -0.00397755904 -0.000423112535 0.00234999997
v -0.00410838844 -0.000884062727 0.00223312667
v -0.00391048798 -0.000841477537 0.00234999997
v -0.00388134061 -0.00127732102 0.00230028015
v -0.00379953929 -0.00125040079 0.00234999997
v -0.0036641513 -0.00165350398 0.00233847601
v -0.00379953929 0.00125040079 0.00234999997
v -0.00364595768 0.0016452939 0.00234999997
v -0.0036641513 0.00165350398 0.00233847601
v -0.00391048798 0.000841477537 0.00234999997
v -0.00388134061 0.00127732102 0.00230028015
v -0.00397755904 0.000423112535 0.00234999997
v -0.00410838844 0.000884062727 0.00223312667
v -0.0043588141 0.000450312684 0.00211518235
v -0.00346410158 0.00200000009 0.00234999997
v -0.00346410158 -0.00200000009 0.00234999997
v -0.00364595768 -0.0016452939 0.00234999997
v -0.00298264832 -0.00266529713 0.00234999997
v -0.00324784522 -0.00233484502 0.00234999997
v -0.00326405209 -0.0023464961 0.00233847601
v -0.00268398481 -0.00296584307 0.00234999997
v -0.00304686278 -0.00272267894 0.00230028015
v -0.00235520583 -0.003233111 0.00234999997
v -0.00281981495 -0.00311593735 0.00223312667
v -0.00200000009 -0.00346410158 0.00234999997
v -0.0025693893 -0.00354968733 0.00211518235
v -0.00230940105 -0.00400000019 0.00199273438
v -0.0017894248 -0.00400000019 0.00211518235
v -0.00162235333 -0.00365622342 0.00234999997
v -0.00128857337 -0.00400000019 0.00223312667
v -0.00122650305 -0.00380732073 0.00234999997
v -0.000834477833 -0.00400000019 0.00230028015
v -0.000816890795 -0.0039156978 0.00234999997
v -0.000400099205 -0.00400000019 0.00233847601
v 0 -0.00400000019 0.00234999997
v -0.000398112606 -0.0039801388 0.00234999997
v -0.00346410158 -0.00200000009 0.00234999997
v -0.00281981495 0.00311593735 -0.00223312667
v -0.00326405209 0.0023464961 0.00233847601
v -0.00304686278 0.00272267894 0.00230028015
v -0.00410838844 0.000884062727 0.00223312667
v -0.0036641513 0.00165350398 -0.00233847601
v -0.00388134061 0.00127732102 -0.00230028015
v -0.0025693893 0.00354968733 -0.00211518235
v -0.0043588141 0.000450312684 0.00211518235
v -0.00304686278 0.00272267894 -0.00230028015
v -0.00388134061 0.00127732102 0.00230028015
v -0.00326405209 0.0023464961 -0.00233847601
v -0.0036641513 0.00165350398 0.00233847601
v -0.00346410158 0.00200000009 -0.00234999997
v -0.00346410158 0.00200000009 0.00234999997
v -0.0025693893 0.00354968733 0.00211518235
v -0.00230940105 0.00400000019 0.00199273438
v -0.00281981495 0.00311593735 0.00223312667
v -0.0043588141 0.000450312684 -0.00211518235
v -0.00461880211 -3.03576608e-18 -0.00199273438
v -0.00410838844 0.000884062727 -0.00223312667
v -0.00230940105 0.00400000019 -0.00199273438
v -0.00461880211 -4.33680869e-18 0.00199273438
v -0.00200000009 0.00346410158 0.00234999997
v -0.00230940105 0.00400000019 0.00199273438
v -0.0025693893 0.00354968733 0.00211518235
v -0.00235520583 0.003233111 0.00234999997
v -0.00281981495 0.00311593735 0.00223312667
v -0.00268398481 0.00296584307 0.00234999997
v -0.00304686278 0.00272267894 0.00230028015
v -0.00298264832 0.00266529713 0.00234999997
v -0.00326405209 0.0023464961 0.00233847601
v -0.000816890795 0.0039156978 0.00234999997
v -0.000398112606 0.0039801388 0.00234999997
v -0.000400099205 0.00400000019 0.00233847601
v -0.00122650305 0.00380732073 0.00234999997
v -0.000834477833 0.00400000019 0.00230028015
v -0.00162235333 0.00365622342 0.00234999997
v -0.00128857337 0.00400000019 0.00223312667
v -0.0017894248 0.00400000019 0.00211518235
v 0 0.00400000019 0.00234999997
v -0.00346410158 0.00200000009 0.00234999997
v -0.00324784522 0.00233484502 0.00234999997
v -0.00128857337 0.00400000019 0.00223312667
v -0.000400099205 0.00400000019 -0.00233847601
v -0.000834477833 0.00400000019 -0.00230028015
v 0.00128857337 0.00400000019 -0.00223312667
v 0.000400099205 0.00400000019 0.00233847601
v 0.000834477833 0.00400000019 0.00230028015
v -0.0017894248 0.00400000019 0.00211518235
v 0.0017894248 0.00400000019 -0.00211518235
v -0.000834477833 0.00400000019 0.00230028015
v 0.000834477833 0.00400000019 -0.00230028015
v -0.000400099205 0.00400000019 0.00233847601
v 0 0.00400000019 -0.00234999997
v 0.000400099205 0.00400000019 -0.00233847601
v 0 0.00400000019 0.00234999997
v -0.0017894248 0.00400000019 -0.00211518235
v -0.00230940105 0.00400000019 -0.00199273438
v -0.00128857337 0.00400000019 -0.00223312667
v 0.0017894248 0.00400000019 0.00211518235
v 0.00230940105 0.00400000019 0.00199273438
v 0.00128857337 0.00400000019 0.00223312667
v -0.00230940105 0.00400000019 0.00199273438
v 0.00230940105 0.00400000019 -0.00199273438
v 0.00200000009 0.00346410158 0.00234999997
v 0.00230940105 0.00400000019 0.00199273438
v 0.0017894248 0.00400000019 0.00211518235
v 0.00162235333 0.00365622342 0.00234999997
v 0.00128857337 0.00400000019 0.00223312667
v 0.00122650305 0.00380732073 0.00234999997
v 0.000834477833 0.00400000019 0.00230028015
v 0.000816890795 0.0039156978 0.00234999997
v 0.000400099205 0.00400000019 0.00233847601
v 0.00298264832 0.00266529713 0.00234999997
v 0.00324784522 0.00233484502 0.00234999997
v 0.00326405209 0.0023464961 0.00233847601
v 0.00268398481 0.00296584307 0.00234999997
v 0.00304686278 0.00272267894 0.00230028015
v 0.00235520583 0.003233111 0.00234999997
v 0.00281981495 0.00311593735 0.00223312667
v 0.0025693893 0.00354968733 0.00211518235
v 0.00346410158 0.00200000009 0.00234999997
v 0 0.00400000019 0.00234999997
v 0.000398112606 0.0039801388 0.00234999997
v 0.00410838844 0.000884062727 -0.00223312667
v 0.0036641513 0.00165350398 0.00233847601
v 0.00388134061 0.00127732102 0.00230028015
v 0.00281981495 0.00311593735 0.00223312667
v 0.00326405209 0.0023464961 -0.00233847601
v 0.00304686278 0.00272267894 -0.00230028015
v 0.0043588141 0.000450312684 -0.00211518235
v 0.0025693893 0.00354968733 0.00211518235
v 0.00388134061 0.00127732102 -0.00230028015
v 0.00304686278 0.00272267894 0.00230028015
v 0.0036641513 0.00165350398 -0.00233847601
v 0.00346410158 0.00200000009 0.00234999997
v 0.00326405209 0.0023464961 0.00233847601
v 0.00346410158 0.00200000009 -0.00234999997
v 0.0043588141 0.000450312684 0.00211518235
v 0.00461880211 -6.50521303e-18 0.00199273438
v 0.00410838844 0.000884062727 0.00223312667
v 0.0025693893 0.00354968733 -0.00211518235
v 0.00230940105 0.00400000019 -0.00199273438
v 0.00281981495 0.00311593735 -0.00223312667
v 0.00461880211 4.33680869e-18 -0.00199273438
v 0.00230940105 0.00400000019 0.00199273438
v 0.00379953929 -0.00125040079 0.00234999997
v 0.00364595768 -0.0016452939 0.00234999997
v 0.0036641513 -0.00165350398 0.00233847601
v 0.00391048798 -0.000841477537 0.00234999997
v 0.00388134061 -0.00127732102 0.00230028015
v 0.00397755904 -0.000423112535 0.00234999997
v 0.00410838844 -0.000884062727 0.00223312667
v 0.00400000019 2.26621556e-18 0.00234999997
v 0.0043588141 -0.000450312684 0.00211518235
v 0.00461880211 -6.50521303e-18 0.00199273438
v 0.0043588141 0.000450312684 0.00211518235
v 0.00397755904 0.000423112535 0.00234999997
v 0.00410838844 0.000884062727 0.00223312667
v 0.00391048798 0.000841477537 0.00234999997
v 0.00388134061 0.00127732102 0.00230028015
v 0.00379953929 0.00125040079 0.00234999997
v 0.0036641513 0.00165350398 0.00233847601
v 0.00346410158 0.00200000009 0.00234999997
v 0.00364595768 0.0016452939 0.00234999997
v 0.00346410158 -0.00200000009 0.00234999997
v -0.00397755904 0.000423112535 0.00234999997
v -0.00400000019 -9.79717474e-19 0.00234999997
v -0.00249999994 -1.91428433e-18 0.00234999997
v -0.00397755904 -0.000423112535 0.00234999997
v -0.00248534488 -0.000270297547 0.00234999997
v 0.00298264832 0.00266529713 0.00234999997
v 0.00181498867 0.0017192486 0.00234999997
v 0.00199023262 0.0015129355 0.00234999997
v 0.00268398481 0.00296584307 0.00234999997
v 0.00161846576 0.0019054052 0.00234999997
v 0.000816890795 0.0039156978 0.00234999997
v 0.000404455001 0.00246706628 0.00234999997
v 0.000668820867 0.00240887492 0.00234999997
v 0.000398112606 0.0039801388 0.00234999997
v 0.000135347276 0.00249633356 0.00234999997
v 0 0.00400000019 0.00234999997
v -0.000135347276 0.00249633356 0.00234999997
v -0.00391048798 0.000841477537 0.00234999997
v -0.00248534488 0.000270297547 0.00234999997
v 0.00235520583 0.003233111 0.00234999997
v 0.00140296761 0.00206922251 0.00234999997
v 0.00162235333 0.00365622342 0.00234999997
v 0.000925345405 0.0023224419 0.00234999997
v 0.00117102114 0.00220878003 0.00234999997
v 0.00122650305 0.00380732073 0.00234999997
v -0.00391048798 -0.000841477537 0.00234999997
v -0.0024415513 -0.000537426095 0.00234999997
v -0.00379953929 -0.00125040079 0.00234999997
v -0.00236913282 -0.000798253808 0.00234999997
v -0.00364595768 -0.0016452939 0.00234999997
v -0.00226893858 -0.00104972278 0.00234999997
v 0.00397755904 0.000423112535 0.00234999997
v 0.00248534488 0.000270297547 0.00234999997
v 0.00249999994 -6.12323395e-19 0.00234999997
v 0.00391048798 0.000841477537 0.00234999997
v 0.0024415513 0.000537426095 0.00234999997
v 0.00364595768 0.0016452939 0.00234999997
v 0.00226893858 0.00104972278 0.00234999997
v 0.00236913282 0.000798253808 0.00234999997
v 0.00346410158 0.00200000009 0.00234999997
v 0.00214214297 0.00128888467 0.00234999997
v 0.00200000009 0.00346410158 0.00234999997
v -0.000398112606 0.0039801388 0.00234999997
v -0.00122650305 0.00380732073 0.00234999997
v -0.00162235333 0.00365622342 0.00234999997
v -0.000925345405 0.0023224419 0.00234999997
v -0.00200000009 0.00346410158 0.00234999997
v -0.00117102114 0.00220878003 0.00234999997
v -0.00235520583 -0.003233111 0.00234999997
v -0.00140296761 -0.00206922251 0.00234999997
v -0.00161846576 -0.0019054052 0.00234999997
v -0.00200000009 -0.00346410158 0.00234999997
v -0.00117102114 -0.00220878003 0.00234999997
v 0.00379953929 0.00125040079 0.00234999997
v 0.00324784522 0.00233484502 0.00234999997
v -0.000816890795 0.0039156978 0.00234999997
v -0.000404455001 0.00246706628 0.00234999997
v -0.000668820867 0.00240887492 0.00234999997
v -0.00235520583 0.003233111 0.00234999997
v -0.00140296761 0.00206922251 0.00234999997
v -0.00268398481 0.00296584307 0.00234999997
v -0.00161846576 0.0019054052 0.00234999997
v -0.00298264832 0.00266529713 0.00234999997
v -0.00181498867 0.0017192486 0.00234999997
v -0.00324784522 0.00233484502 0.00234999997
v -0.00346410158 0.00200000009 0.00234999997
v -0.00214214297 0.00128888467 0.00234999997
v -0.00364595768 0.0016452939 0.00234999997
v -0.00226893858 0.00104972278 0.00234999997
v -0.00346410158 -0.00200000009 0.00234999997
v -0.00214214297 -0.00128888467 0.00234999997
v -0.00324784522 -0.00233484502 0.00234999997
v -0.00199023262 -0.0015129355 0.00234999997
v -0.00298264832 -0.00266529713 0.00234999997
v -0.00181498867 -0.0017192486 0.00234999997
v -0.00268398481 -0.00296584307 0.00234999997
v -0.000816890795 -0.0039156978 0.00234999997
v -0.000404455001 -0.00246706628 0.00234999997
v -0.000668820867 -0.00240887492 0.00234999997
v -0.000398112606 -0.0039801388 0.00234999997
v -0.000135347276 -0.00249633356 0.00234999997
v 0 -0.00400000019 0.00234999997
v 0.000135347276 -0.00249633356 0.00234999997
v 0.00235520583 -0.003233111 0.00234999997
v 0.00268398481 -0.00296584307 0.00234999997
v 0.00161846576 -0.0019054052 0.00234999997
v 0.00298264832 -0.00266529713 0.00234999997
v 0.00181498867 -0.0017192486 0.00234999997
v 0.00324784522 -0.00233484502 0.00234999997
v 0.00199023262 -0.0015129355 0.00234999997
v 0.00346410158 -0.00200000009 0.00234999997
v 0.00214214297 -0.00128888467 0.00234999997
v 0.00364595768 -0.0016452939 0.00234999997
v 0.00379953929 -0.00125040079 0.00234999997
v 0.00236913282 -0.000798253808 0.00234999997
v 0.00391048798 -0.000841477537 0.00234999997
v 0.0024415513 -0.000537426095 0.00234999997
v -0.00199023262 0.0015129355 0.00234999997
v -0.00379953929 0.00125040079 0.00234999997
v -0.00236913282 0.000798253808 0.00234999997
v -0.0024415513 0.000537426095 0.00234999997
v -0.00162235333 -0.00365622342 0.00234999997
v -0.000925345405 -0.0023224419 0.00234999997
v -0.00122650305 -0.00380732073 0.00234999997
v 0.000398112606 -0.0039801388 0.00234999997
v 0.000816890795 -0.0039156978 0.00234999997
v 0.000404455001 -0.00246706628 0.00234999997
v 0.00162235333 -0.00365622342 0.00234999997
v 0.00200000009 -0.00346410158 0.00234999997
v 0.00117102114 -0.00220878003 0.00234999997
v 0.00140296761 -0.00206922251 0.00234999997
v 0.00226893858 -0.00104972278 0.00234999997
v 0.00122650305 -0.00380732073 0.00234999997
v 0.000668820867 -0.00240887492 0.00234999997
v 0.000925345405 -0.0023224419 0.00234999997
v 0.00397755904 -0.000423112535 0.00234999997
v 0.00248534488 -0.000270297547 0.00234999997
v 0.00400000019 2.26621556e-18 0.00234999997
v 0.00281981495 -0.00311593735 -0.00223312667
v 0.00326405209 -0.0023464961 0.00233847601
v 0.00304686278 -0.00272267894 0.00230028015
v 0.00410838844 -0.000884062727 0.00223312667
v 0.0036641513 -0.00165350398 -0.00233847601
v 0.00388134061 -0.00127732102 -0.00230028015
v 0.0025693893 -0.00354968733 -0.00211518235
v 0.0043588141 -0.000450312684 0.00211518235
v 0.00304686278 -0.00272267894 -0.00230028015
v 0.00388134061 -0.00127732102 0.00230028015
v 0.00326405209 -0.0023464961 -0.00233847601
v 0.00346410158 -0.00200000009 0.00234999997
v 0.0036641513 -0.00165350398 0.00233847601
v 0.00346410158 -0.00200000009 -0.00234999997
v 0.0025693893 -0.00354968733 0.00211518235
v 0.00230940105 -0.00400000019 0.00199273438
v 0.00281981495 -0.00311593735 0.00223312667
v 0.0043588141 -0.000450312684 -0.00211518235
v 0.00461880211 4.33680869e-18 -0.00199273438
v 0.00410838844 -0.000884062727 -0.00223312667
v 0.00230940105 -0.00400000019 -0.00199273438
v 0.00461880211 -6.50521303e-18 0.00199273438
v 0.00128857337 -0.00400000019 0.00223312667
v 0.000400099205 -0.00400000019 -0.00233847601
v 0.000834477833 -0.00400000019 -0.00230028015
v -0.00128857337 -0.00400000019 -0.00223312667
v -0.000400099205 -0.00400000019 0.00233847601
v -0.000834477833 -0.00400000019 0.00230028015
v 0.0017894248 -0.00400000019 0.00211518235
v -0.0017894248 -0.00400000019 -0.00211518235
v 0.000834477833 -0.00400000019 0.00230028015
v -0.000834477833 -0.00400000019 -0.00230028015
v 0.000400099205 -0.00400000019 0.00233847601
v -0.000400099205 -0.00400000019 -0.00233847601
v 0 -0.00400000019 0.00234999997
v 0 -0.00400000019 -0.00234999997
v 0.0017894248 -0.00400000019 -0.00211518235
v 0.00230940105 -0.00400000019 -0.00199273438
v 0.00128857337 -0.00400000019 -0.00223312667
v -0.0017894248 -0.00400000019 0.00211518235
v -0.00230940105 -0.00400000019 0.00199273438
v -0.00128857337 -0.00400000019 0.00223312667
v 0.00230940105 -0.00400000019 0.00199273438
v -0.00230940105 -0.00400000019 -0.00199273438
v 0.000816890795 -0.0039156978 0.00234999997
v 0.000398112606 -0.0039801388 0.00234999997
v 0.000400099205 -0.00400000019 0.00233847601
v 0.00122650305 -0.00380732073 0.00234999997
v 0.000834477833 -0.00400000019 0.00230028015
v 0.00162235333 -0.00365622342 0.00234999997
v 0.00128857337 -0.00400000019 0.00223312667
v 0.00200000009 -0.00346410158 0.00234999997
v 0.0017894248 -0.00400000019 0.00211518235
v 0.00230940105 -0.00400000019 0.00199273438
v 0.0025693893 -0.00354968733 0.00211518235
v 0.00235520583 -0.003233111 0.00234999997
v 0.00281981495 -0.00311593735 0.00223312667
v 0.00268398481 -0.00296584307 0.00234999997
v 0.00304686278 -0.00272267894 0.00230028015
v 0.00298264832 -0.00266529713 0.00234999997
v 0.00326405209 -0.0023464961 0.00233847601
v 0.00346410158 -0.00200000009 0.00234999997
v 0.00324784522 -0.00233484502 0.00234999997
v 0 -0.00400000019 0.00234999997
f 1 2 3
f 2 4 5
f 4 6 7
f 6 8 9
f 8 10 11
f 10 12 13
f 12 14 15
f 14 16 17
f 16 18 19
f 18 20 21
f 20 22 23
f 22 24 25
f 24 26 27
f 26 28 29
f 28 30 31
f 30 32 33
f 32 34 35
f 34 36 37
f 36 38 39
f 38 40 41
f 40 42 43
f 42 44 45
f 44 46 47
f 46 48 49
f 48 50 51
f 50 52 53
f 52 54 55
f 54 56 57
f 56 58 59
f 58 60 61
f 60 62 63
f 62 64 65
f 64 66 67
f 66 68 69
f 68 70 71
f 70 72 73
f 72 74 75
f 74 76 77
f 76 78 79
f 78 80 81
f 80 82 83
f 82 84 85
f 84 86 87
f 86 88 89
f 88 90 91
f 90 92 93
f 92 94 95
f 94 96 97
f 96 98 99
f 98 100 101
f 100 102 103
f 102 104 105
f 104 106 107
f 106 108 109
f 108 110 111
f 110 112 113
f 112 114 115
f 114 1 116
f 116 115 114
f 115 113 112
f 113 111 110
f 111 109 108
f 109 107 106
f 107 105 104
f 105 103 102
f 103 101 100
f 101 99 98
f 99 97 96
f 97 95 94
f 95 93 92
f 93 91 90
f 91 89 88
f 89 87 86
f 87 85 84
f 85 83 82
f 83 81 80
f 81 79 78
f 79 77 76
f 77 75 74
f 75 73 72
f 73 71 70
f 71 69 68
f 69 67 66
f 67 65 64
f 65 63 62
f 63 61 60
f 61 59 58
f 59 57 56
f 57 55 54
f 55 53 52
f 53 51 50
f 51 49 48
f 49 47 46
f 47 45 44
f 45 43 42
f 43 41 40
f 41 39 38
f 39 37 36
f 37 35 34
f 35 33 32
f 33 31 30
f 31 29 28
f 29 27 26
f 27 25 24
f 25 23 22
f 23 21 20
f 21 19 18
f 19 17 16
f 17 15 14
f 15 13 12
f 13 11 10
f 11 9 8
f 9 7 6
f 7 5 4
f 5 3 2
f 3 116 1
f 117 118 119
f 120 117 121
f 122 120 123
f 124 122 125
f 126 124 127
f 128 126 129
f 130 128 131
f 132 130 133
f 134 132 135
f 136 134 137
f 138 136 139
f 140 138 141
f 142 140 143
f 144 142 145
f 146 144 147
f 148 146 149
f 150 148 151
f 152 150 153
f 154 152 155
f 156 154 157
f 158 156 159
f 160 158 161
f 162 160 163
f 164 162 165
f 166 164 167
f 168 166 169
f 170 168 171
f 172 170 173
f 174 172 175
f 176 174 177
f 178 176 179
f 180 178 181
f 182 180 183
f 184 182 185
f 186 184 187
f 188 186 189
f 190 188 191
f 192 190 193
f 194 192 195
f 196 194 197
f 198 196 199
f 200 198 201
f 202 200 203
f 204 202 205
f 206 204 207
f 208 206 209
f 210 208 211
f 212 210 213
f 214 212 215
f 216 214 217
f 218 216 219
f 220 218 221
f 222 220 223
f 224 222 225
f 226 224 227
f 228 226 229
f 230 228 231
f 118 230 232
f 232 119 118
f 231 232 230
f 229 231 228
f 227 229 226
f 225 227 224
f 223 225 222
f 221 223 220
f 219 221 218
f 217 219 216
f 215 217 214
f 213 215 212
f 211 213 210
f 209 211 208
f 207 209 206
f 205 207 204
f 203 205 202
f 201 203 200
f 199 201 198
f 197 199 196
f 195 197 194
f 193 195 192
f 191 193 190
f 189 191 188
f 187 189 186
f 185 187 184
f 183 185 182
f 181 183 180
f 179 181 178
f 177 179 176
f 175 177 174
f 173 175 172
f 171 173 170
f 169 171 168
f 167 169 166
f 165 167 164
f 163 165 162
f 161 163 160
f 159 161 158
f 157 159 156
f 155 157 154
f 153 155 152
f 151 153 150
f 149 151 148
f 147 149 146
f 145 147 144
f 143 145 142
f 141 143 140
f 139 141 138
f 137 139 136
f 135 137 134
f 133 135 132
f 131 133 130
f 129 131 128
f 127 129 126
f 125 127 124
f 123 125 122
f 121 123 120
f 119 121 117
f 233 234 235
f 234 236 237
f 236 238 239
f 238 240 241
f 240 242 243
f 242 244 245
f 244 246 247
f 246 248 249
f 248 250 251
f 250 252 253
f 252 254 255
f 254 256 257
f 256 258 259
f 258 260 261
f 260 262 263
f 262 264 265
f 264 266 267
f 266 268 269
f 268 270 271
f 270 272 273
f 272 274 275
f 274 276 277
f 276 278 279
f 278 280 281
f 280 282 283
f 282 284 285
f 284 286 287
f 286 288 289
f 288 290 291
f 290 292 293
f 292 294 295
f 294 296 297
f 296 298 299
f 298 300 301
f 300 302 303
f 302 304 305
f 304 306 307
f 306 308 309
f 308 310 311
f 310 312 313
f 312 314 315
f 314 316 317
f 316 318 319
f 318 320 321
f 320 322 323
f 322 324 325
f 324 326 327
f 326 328 329
f 328 330 331
f 330 332 333
f 332 334 335
f 334 336 337
f 336 338 339
f 338 340 341
f 340 342 343
f 342 344 345
f 344 346 347
f 346 233 348
f 348 347 346
f 347 345 344
f 345 343 342
f 343 341 340
f 341 339 338
f 339 337 336
f 337 335 334
f 335 333 332
f 333 331 330
f 331 329 328
f 329 327 326
f 327 325 324
f 325 323 322
f 323 321 320
f 321 319 318
f 319 317 316
f 317 315 314
f 315 313 312
f 313 311 310
f 311 309 308
f 309 307 306
f 307 305 304
f 305 303 302
f 303 301 300
f 301 299 298
f 299 297 296
f 297 295 294
f 295 293 292
f 293 291 290
f 291 289 288
f 289 287 286
f 287 285 284
f 285 283 282
f 283 281 280
f 281 279 278
f 279 277 276
f 277 275 274
f 275 273 272
f 273 271 270
f 271 269 268
f 269 267 266
f 267 265 264
f 265 263 262
f 263 261 260
f 261 259 258
f 259 257 256
f 257 255 254
f 255 253 252
f 253 251 250
f 251 249 248
f 249 247 246
f 247 245 244
f 245 243 242
f 243 241 240
f 241 239 238
f 239 237 236
f 237 235 234
f 235 348 233
f 349 350 351
f 352 353 350
f 354 355 356
f 357 358 355
f 359 360 361
f 350 349 352
f 362 363 353
f 364 365 366
f 367 356 365
f 355 354 357
f 358 357 359
f 368 369 370
f 371 372 369
f 373 374 375
f 376 377 374
f 378 379 380
f 381 382 379
f 353 352 362
f 383 366 363
f 365 364 367
f 361 358 359
f 384 385 386
f 385 387 388
f 389 390 391
f 390 392 393
f 394 370 395
f 369 368 371
f 396 397 398
f 399 400 397
f 374 373 376
f 401 380 377
f 379 378 381
f 402 351 382
f 363 362 383
f 356 367 354
f 360 403 404
f 403 384 405
f 388 386 385
f 387 406 407
f 406 408 409
f 408 410 411
f 412 413 414
f 413 415 416
f 415 417 418
f 417 389 419
f 393 391 390
f 420 395 393
f 370 394 368
f 421 422 372
f 423 424 422
f 425 426 424
f 427 398 426
f 397 396 399
f 428 429 430
f 431 432 429
f 433 434 432
f 435 436 437
f 436 438 439
f 438 440 441
f 440 442 443
f 444 445 446
f 445 447 448
f 377 376 401
f 382 381 402
f 366 383 364
f 405 404 403
f 407 388 387
f 411 409 408
f 410 412 449
f 416 414 413
f 419 418 417
f 393 392 420
f 372 371 421
f 424 423 425
f 398 427 396
f 450 451 400
f 452 430 451
f 429 428 431
f 432 431 433
f 453 454 455
f 456 457 458
f 457 435 459
f 439 437 436
f 443 441 440
f 442 444 460
f 448 446 445
f 380 401 378
f 404 361 360
f 409 407 406
f 414 449 412
f 391 419 389
f 422 421 423
f 400 399 450
f 430 452 428
f 455 434 453
f 454 461 462
f 461 456 463
f 459 458 457
f 441 439 438
f 446 460 444
f 351 402 349
f 449 411 410
f 395 420 394
f 451 450 452
f 462 455 454
f 458 463 456
f 460 443 442
f 447 464 465
f 386 405 384
f 426 425 427
f 463 462 461
f 465 448 447
f 418 416 415
f 437 459 435
f 433 453 434
f 464 466 375
f 375 465 464
f 375 466 373
f 467 468 469
f 470 469 471
f 472 471 473
f 474 473 475
f 476 477 478
f 479 476 480
f 481 479 482
f 467 481 483
f 483 468 467
f 482 483 481
f 480 482 479
f 478 480 476
f 478 477 484
f 485 486 475
f 475 486 474
f 473 474 472
f 471 472 470
f 469 470 467
f 487 488 489
f 490 487 491
f 492 490 493
f 494 492 495
f 494 496 497
f 498 497 499
f 500 499 501
f 502 501 503
f 504 505 503
f 503 505 502
f 501 502 500
f 499 500 498
f 497 498 494
f 495 496 494
f 493 495 492
f 491 493 490
f 489 491 487
f 489 488 506
f 507 508 509
f 510 507 511
f 512 510 513
f 514 512 515
f 514 516 517
f 518 517 519
f 520 519 521
f 522 521 523
f 524 525 523
f 523 525 522
f 521 522 520
f 519 520 518
f 517 518 514
f 515 516 514
f 513 515 512
f 511 513 510
f 509 511 507
f 509 508 526
f 527 528 529
f 530 527 531
f 532 530 533
f 534 532 535
f 534 536 537
f 538 537 539
f 540 539 541
f 542 541 543
f 544 545 543
f 543 545 542
f 541 542 540
f 539 540 538
f 537 538 534
f 535 536 534
f 533 535 532
f 531 533 530
f 529 531 527
f 529 528 546
f 547 548 549
f 550 547 551
f 552 550 553
f 554 552 555
f 554 556 557
f 558 557 559
f 560 559 561
f 562 561 563
f 564 565 563
f 563 565 562
f 561 562 560
f 559 560 558
f 557 558 554
f 555 556 554
f 553 555 552
f 551 553 550
f 549 551 547
f 549 548 566
f 567 568 569
f 570 567 571
f 572 570 573
f 574 572 575
f 574 576 577
f 578 577 579
f 580 579 581
f 582 581 583
f 584 585 583
f 583 585 582
f 581 582 580
f 579 580 578
f 577 578 574
f 575 576 574
f 573 575 572
f 571 573 570
f 569 571 567
f 569 568 586
f 587 588 589
f 590 591 592
f 589 593 587
f 594 595 590
f 587 596 588
f 594 597 595
f 596 598 588
f 592 594 590
f 591 599 600
f 591 601 602
f 603 604 588
f 604 603 597
f 602 599 591
f 594 604 597
f 593 605 606
f 593 589 607
f 598 603 588
f 607 605 593
f 606 608 593
f 600 592 591
f 609 610 611
f 612 611 613
f 614 613 615
f 616 615 617
f 618 619 620
f 621 618 622
f 623 621 624
f 609 623 625
f 625 610 609
f 624 625 623
f 622 624 621
f 620 622 618
f 620 619 626
f 627 628 617
f 617 628 616
f 615 616 614
f 613 614 612
f 611 612 609
f 629 630 631
f 632 629 633
f 634 632 635
f 636 634 637
f 636 638 639
f 640 639 641
f 642 641 643
f 644 643 645
f 646 647 645
f 645 647 644
f 643 644 642
f 641 642 640
f 639 640 636
f 637 638 636
f 635 637 634
f 633 635 632
f 631 633 629
f 631 630 648
f 649 650 651
f 652 653 654
f 651 655 649
f 654 656 652
f 649 657 650
f 652 658 653
f 657 659 650
f 658 660 653
f 661 662 650
f 662 661 653
f 655 663 664
f 655 651 665
f 660 662 653
f 665 663 655
f 656 666 667
f 656 654 668
f 664 669 655
f 668 666 656
f 667 670 656
f 659 661 650
f 671 672 673
f 674 673 675
f 676 675 677
f 678 677 679
f 680 681 682
f 683 680 684
f 685 683 686
f 671 685 687
f 687 672 671
f 686 687 685
f 684 686 683
f 682 684 680
f 682 681 688
f 689 690 679
f 679 690 678
f 677 678 676
f 675 676 674
f 673 674 671
f 691 692 693
f 694 695 696
f 693 697 691
f 696 698 694
f 691 699 692
f 694 700 695
f 701 702 692
f 700 703 695
f 699 701 692
f 702 704 695
f 697 705 706
f 697 693 707
f 703 702 695
f 707 705 697
f 698 708 709
f 698 696 710
f 706 711 697
f 710 708 698
f 709 712 698
f 701 704 702
f 713 714 715
f 716 715 717
f 718 717 719
f 720 719 721
f 722 723 724
f 725 722 726
f 727 725 728
f 713 727 729
f 729 714 713
f 728 729 727
f 726 728 725
f 724 726 722
f 724 723 730
f 731 732 721
f 721 732 720
f 719 720 718
f 717 718 716
f 715 716 713
f 733 734 735
f 736 737 738
f 735 739 733
f 738 740 736
f 733 741 734
f 736 742 737
f 743 744 734
f 742 745 737
f 741 743 734
f 744 746 737
f 739 747 748
f 739 735 749
f 745 744 737
f 749 747 739
f 740 750 751
f 740 738 752
f 748 753 739
f 752 750 740
f 751 754 740
f 743 746 744
f 755 756 757
f 758 755 759
f 760 758 761
f 762 760 763
f 762 764 765
f 766 765 767
f 768 767 769
f 770 769 771
f 772 773 771
f 771 773 770
f 769 770 768
f 767 768 766
f 765 766 762
f 763 764 762
f 761 763 760
f 759 761 758
f 757 759 755
f 757 756 774
f 775 776 777
f 778 779 777
f 780 781 782
f 783 784 781
f 785 786 787
f 788 789 786
f 790 791 789
f 792 775 793
f 777 776 778
f 781 780 783
f 794 795 784
f 796 797 798
f 799 787 797
f 786 785 788
f 789 788 790
f 777 793 775
f 800 801 779
f 802 803 801
f 804 805 803
f 806 807 808
f 809 810 807
f 811 812 813
f 814 815 812
f 784 783 794
f 816 798 795
f 797 796 799
f 790 817 791
f 818 819 820
f 819 821 822
f 779 778 800
f 803 802 804
f 823 824 825
f 826 827 824
f 807 806 809
f 828 813 810
f 812 811 814
f 829 782 815
f 795 794 816
f 787 799 785
f 817 830 831
f 830 818 832
f 822 820 819
f 821 833 834
f 833 835 836
f 835 837 838
f 839 840 841
f 840 842 843
f 801 800 802
f 844 845 805
f 846 847 845
f 848 849 847
f 850 825 849
f 824 823 826
f 851 852 853
f 854 855 852
f 856 857 855
f 858 859 860
f 859 861 862
f 861 863 864
f 863 865 866
f 867 868 869
f 868 870 871
f 810 809 828
f 815 814 829
f 798 816 796
f 832 831 830
f 834 822 821
f 838 836 835
f 837 839 872
f 843 841 840
f 842 873 874
f 873 792 875
f 805 804 844
f 847 846 848
f 825 850 823
f 876 877 827
f 878 853 877
f 852 851 854
f 855 854 856
f 879 880 881
f 882 883 884
f 883 858 885
f 862 860 859
f 866 864 863
f 865 867 886
f 871 869 868
f 813 828 811
f 831 791 817
f 836 834 833
f 841 872 839
f 875 874 873
f 845 844 846
f 827 826 876
f 853 878 851
f 881 857 879
f 880 887 888
f 887 882 889
f 885 884 883
f 864 862 861
f 869 886 867
f 782 829 780
f 872 838 837
f 793 875 792
f 877 876 878
f 888 881 880
f 884 889 882
f 886 866 865
f 870 890 891
f 820 832 818
f 849 848 850
f 889 888 887
f 891 871 870
f 874 843 842
f 860 885 858
f 856 879 857
f 890 892 808
f 808 891 890
f 808 892 806
f 893 894 895
f 896 897 898
f 895 899 893
f 898 900 896
f 893 901 894
f 896 902 897
f 903 904 894
f 902 905 897
f 901 903 894
f 904 906 897
f 899 907 908
f 899 895 909
f 905 904 897
f 909 907 899
f 900 910 911
f 900 898 912
f 908 913 899
f 912 910 900
f 911 914 900
f 903 906 904
f 915 916 917
f 918 919 920
f 917 921 915
f 920 922 918
f 915 923 916
f 918 924 919
f 923 925 916
f 924 926 919
f 927 928 916
f 928 927 919
f 921 929 930
f 921 917 931
f 926 928 919
f 931 929 921
f 922 932 933
f 922 920 934
f 930 935 921
f 934 932 922
f 933 936 922
f 925 927 916
f 937 938 939
f 940 937 941
f 942 940 943
f 944 942 945
f 944 946 947
f 948 947 949
f 950 949 951
f 952 951 953
f 954 955 953
f 953 955 952
f 951 952 950
f 949 950 948
f 947 948 944
f 945 946 944
f 943 945 942
f 941 943 940
f 939 941 937
f 939 938 956
