v -0.00091895985 0.00330979424 0.00499999989
v -0.00127142458 0.00319103501 0.00499999989
v -0.000901286432 0.0022620582 0.00499999989
v -0.00160898303 0.00303486385 0.00499999989
v -0.00114057458 0.00215135189 0.00499999989
v -0.00192767754 0.00284311175 0.00499999989
v -0.0013664905 0.0020154228 0.00499999989
v -0.002223772 0.00261802669 0.00499999989
v -0.00157638558 0.00185586466 0.00499999989
v 0.00160898303 0.00303486385 0.00499999989
v 0.00114057458 0.00215135189 0.00499999989
v 0.0013664905 0.0020154228 0.00499999989
v 0.00127142458 0.00319103501 0.00499999989
v 0.000901286432 0.0022620582 0.00499999989
v 0.00055572117 0.00338974921 0.00499999989
v 0.000185967147 0.00342996232 0.00499999989
v 0.000131828245 0.00243142876 0.00499999989
v -0.000185967147 0.00342996232 0.00499999989
v -0.000131828245 0.00243142876 0.00499999989
v -0.00055572117 0.00338974921 0.00499999989
v -0.000393939175 0.0024029226 0.00499999989
v -0.000651431503 0.00234624417 0.00499999989
v -0.00249379454 0.00236224756 0.00499999989
v -0.00176779903 0.00167454814 0.00499999989
v -0.00273457961 0.00207877345 0.00499999989
v -0.00193848659 0.00147359923 0.00499999989
v 0.002223772 -0.00261802669 0.00499999989
v 0.00157638558 -0.00185586466 0.00499999989
v 0.0013664905 -0.0020154228 0.00499999989
v 0.00249379454 -0.00236224756 0.00499999989
v 0.00176779903 -0.00167454814 0.00499999989
v 0.00294330437 0.00177092745 0.00499999989
v 0.00208644732 0.00125537359 0.00499999989
v 0.00220994605 0.00102243002 0.00499999989
v 0.00273457961 0.00207877345 0.00499999989
v 0.00193848659 0.00147359923 0.00499999989
v 0.00192767754 0.00284311175 0.00499999989
v 0.00157638558 0.00185586466 0.00499999989
v 0.00091895985 0.00330979424 0.00499999989
v 0.000651431503 0.00234624417 0.00499999989
v 0.000393939175 0.0024029226 0.00499999989
v -0.00294330437 0.00177092745 0.00499999989
v -0.00208644732 0.00125537359 0.00499999989
v -0.00311752153 0.00144231902 0.00499999989
v -0.00220994605 0.00102243002 0.00499999989
v -0.00294330437 -0.00177092745 0.00499999989
v -0.00273457961 -0.00207877345 0.00499999989
v -0.00193848659 -0.00147359923 0.00499999989
v -0.00249379454 -0.00236224756 0.00499999989
v -0.00176779903 -0.00167454814 0.00499999989
v -0.002223772 -0.00261802669 0.00499999989
v -0.00157638558 -0.00185586466 0.00499999989
v -0.00192767754 -0.00284311175 0.00499999989
v -0.0013664905 -0.0020154228 0.00499999989
v -0.00160898303 -0.00303486385 0.00499999989
v -0.00114057458 -0.00215135189 0.00499999989
v -0.00127142458 -0.00319103501 0.00499999989
v -0.000901286432 -0.0022620582 0.00499999989
v -0.00091895985 -0.00330979424 0.00499999989
v -0.000651431503 -0.00234624417 0.00499999989
v -0.00055572117 -0.00338974921 0.00499999989
v -0.000393939175 -0.0024029226 0.00499999989
v 0.000185967147 -0.00342996232 0.00499999989
v 0.00055572117 -0.00338974921 0.00499999989
v 0.000393939175 -0.0024029226 0.00499999989
v 0.00091895985 -0.00330979424 0.00499999989
v 0.000651431503 -0.00234624417 0.00499999989
v 0.00273457961 -0.00207877345 0.00499999989
v 0.00193848659 -0.00147359923 0.00499999989
v 0.0032551887 -0.00109680078 0.00499999989
v 0.00230753538 -0.000777499226 0.00499999989
v 0.00220994605 -0.00102243002 0.00499999989
v 0.00335469167 -0.000738423434 0.00499999989
v 0.00237807096 -0.000523452996 0.00499999989
v 0.00249379454 0.00236224756 0.00499999989
v 0.00176779903 0.00167454814 0.00499999989
v 0.002223772 0.00261802669 0.00499999989
v -0.00335469167 0.000738423434 0.00499999989
v -0.00341486395 0.000371388829 0.00499999989
v -0.002420726 0.000263269816 0.00499999989
v -0.00343500008 6.30999272e-19 0.00499999989
v -0.00243499991 1.49100753e-19 0.00499999989
v -0.00341486395 -0.000371388829 0.00499999989
v -0.002420726 -0.000263269816 0.00499999989
v -0.00335469167 -0.000738423434 0.00499999989
v -0.00237807096 -0.000523452996 0.00499999989
v -0.000185967147 -0.00342996232 0.00499999989
v -0.000131828245 -0.00243142876 0.00499999989
v 0.000131828245 -0.00243142876 0.00499999989
v 0.00127142458 -0.00319103501 0.00499999989
v 0.000901286432 -0.0022620582 0.00499999989
v 0.00294330437 -0.00177092745 0.00499999989
v 0.00208644732 -0.00125537359 0.00499999989
v 0.00311752153 -0.00144231902 0.00499999989
v -0.0032551887 0.00109680078 0.00499999989
v -0.00230753538 0.000777499226 0.00499999989
v -0.00237807096 0.000523452996 0.00499999989
v -0.0032551887 -0.00109680078 0.00499999989
v -0.00230753538 -0.000777499226 0.00499999989
v -0.00311752153 -0.00144231902 0.00499999989
v -0.00220994605 -0.00102243002 0.00499999989
v 0.00341486395 -0.000371388829 0.00499999989
v 0.002420726 -0.000263269816 0.00499999989
v 0.00343500008 2.10333082e-19 0.00499999989
v 0.00243499991 4.47302259e-19 0.00499999989
v 0.00341486395 0.000371388829 0.00499999989
v 0.002420726 0.000263269816 0.00499999989
v 0.00335469167 0.000738423434 0.00499999989
v 0.00237807096 0.000523452996 0.00499999989
v 0.0032551887 0.00109680078 0.00499999989
v 0.00230753538 0.000777499226 0.00499999989
v 0.00311752153 0.00144231902 0.00499999989
v -0.00208644732 -0.00125537359 0.00499999989
v 0.00160898303 -0.00303486385 0.00499999989
v 0.00114057458 -0.00215135189 0.00499999989
v 0.00192767754 -0.00284311175 0.00499999989
v -0.002420726 -0.000263269816 0
v -0.00243499991 1.49100753e-19 0
v -0.00243499991 1.49100753e-19 0.00499999989
v -0.00237807096 -0.000523452996 0
v -0.002420726 -0.000263269816 0.00499999989
v -0.00230753538 -0.000777499226 0
v -0.00237807096 -0.000523452996 0.00499999989
v -0.00220994605 -0.00102243002 0
v -0.00230753538 -0.000777499226 0.00499999989
v -0.00208644732 -0.00125537359 0
v -0.00220994605 -0.00102243002 0.00499999989
v -0.00193848659 -0.00147359923 0
v -0.00208644732 -0.00125537359 0.00499999989
v -0.00176779903 -0.00167454814 0
v -0.00193848659 -0.00147359923 0.00499999989
v -0.00157638558 -0.00185586466 0
v -0.00176779903 -0.00167454814 0.00499999989
v -0.0013664905 -0.0020154228 0
v -0.00157638558 -0.00185586466 0.00499999989
v -0.00114057458 -0.00215135189 0
v -0.0013664905 -0.0020154228 0.00499999989
v -0.000901286432 -0.0022620582 0
v -0.00114057458 -0.00215135189 0.00499999989
v -0.000651431503 -0.00234624417 0
v -0.000901286432 -0.0022620582 0.00499999989
v -0.000393939175 -0.0024029226 0
v -0.000651431503 -0.00234624417 0.00499999989
v -0.000131828245 -0.00243142876 0
v -0.000393939175 -0.0024029226 0.00499999989
v 0.000131828245 -0.00243142876 0
v -0.000131828245 -0.00243142876 0.00499999989
v 0.000393939175 -0.0024029226 0
v 0.000131828245 -0.00243142876 0.00499999989
v 0.000651431503 -0.00234624417 0
v 0.000393939175 -0.0024029226 0.00499999989
v 0.000901286432 -0.0022620582 0
v 0.000651431503 -0.00234624417 0.00499999989
v 0.00114057458 -0.00215135189 0
v 0.000901286432 -0.0022620582 0.00499999989
v 0.0013664905 -0.0020154228 0
v 0.00114057458 -0.00215135189 0.00499999989
v 0.00157638558 -0.00185586466 0
v 0.0013664905 -0.0020154228 0.00499999989
v 0.00176779903 -0.00167454814 0
v 0.00157638558 -0.00185586466 0.00499999989
v 0.00193848659 -0.00147359923 0
v 0.00176779903 -0.00167454814 0.00499999989
v 0.00208644732 -0.00125537359 0
v 0.00193848659 -0.00147359923 0.00499999989
v 0.00220994605 -0.00102243002 0
v 0.00208644732 -0.00125537359 0.00499999989
v 0.00230753538 -0.000777499226 0
v 0.00220994605 -0.00102243002 0.00499999989
v 0.00237807096 -0.000523452996 0
v 0.00230753538 -0.000777499226 0.00499999989
v 0.002420726 -0.000263269816 0
v 0.00237807096 -0.000523452996 0.00499999989
v 0.00243499991 1.04370527e-18 0
v 0.002420726 -0.000263269816 0.00499999989
v 0.002420726 0.000263269816 0
v 0.00243499991 4.47302259e-19 0.00499999989
v 0.00237807096 0.000523452996 0
v 0.002420726 0.000263269816 0.00499999989
v 0.00230753538 0.000777499226 0
v 0.00237807096 0.000523452996 0.00499999989
v 0.00220994605 0.00102243002 0
v 0.00230753538 0.000777499226 0.00499999989
v 0.00208644732 0.00125537359 0
v 0.00220994605 0.00102243002 0.00499999989
v 0.00193848659 0.00147359923 0
v 0.00208644732 0.00125537359 0.00499999989
v 0.00176779903 0.00167454814 0
v 0.00193848659 0.00147359923 0.00499999989
v 0.00157638558 0.00185586466 0
v 0.00176779903 0.00167454814 0.00499999989
v 0.0013664905 0.0020154228 0
v 0.00157638558 0.00185586466 0.00499999989
v 0.00114057458 0.00215135189 0
v 0.0013664905 0.0020154228 0.00499999989
v 0.000901286432 0.0022620582 0
v 0.00114057458 0.00215135189 0.00499999989
v 0.000651431503 0.00234624417 0
v 0.000901286432 0.0022620582 0.00499999989
v 0.000393939175 0.0024029226 0
v 0.000651431503 0.00234624417 0.00499999989
v 0.000131828245 0.00243142876 0
v 0.000393939175 0.0024029226 0.00499999989
v -0.000131828245 0.00243142876 0
v 0.000131828245 0.00243142876 0.00499999989
v -0.000393939175 0.0024029226 0
v -0.000131828245 0.00243142876 0.00499999989
v -0.000651431503 0.00234624417 0
v -0.000393939175 0.0024029226 0.00499999989
v -0.000901286432 0.0022620582 0
v -0.000651431503 0.00234624417 0.00499999989
v -0.00114057458 0.00215135189 0
v -0.000901286432 0.0022620582 0.00499999989
v -0.0013664905 0.0020154228 0
v -0.00114057458 0.00215135189 0.00499999989
v -0.00157638558 0.00185586466 0
v -0.0013664905 0.0020154228 0.00499999989
v -0.00176779903 0.00167454814 0
v -0.00157638558 0.00185586466 0.00499999989
v -0.00193848659 0.00147359923 0
v -0.00176779903 0.00167454814 0.00499999989
v -0.00208644732 0.00125537359 0
v -0.00193848659 0.00147359923 0.00499999989
v -0.00220994605 0.00102243002 0
v -0.00208644732 0.00125537359 0.00499999989
v -0.00230753538 0.000777499226 0
v -0.00220994605 0.00102243002 0.00499999989
v -0.00237807096 0.000523452996 0
v -0.00230753538 0.000777499226 0.00499999989
v -0.002420726 0.000263269816 0
v -0.00237807096 0.000523452996 0.00499999989
v -0.002420726 0.000263269816 0.00499999989
v 0.00341486395 0.000371388829 0
v 0.002420726 0.000263269816 0
v 0.00237807096 0.000523452996 0
v 0.00343500008 6.30999272e-19 0
v 0.00243499991 1.04370527e-18 0
v 0.002223772 -0.00261802669 0
v 0.00157638558 -0.00185586466 0
v 0.00176779903 -0.00167454814 0
v 0.00192767754 -0.00284311175 0
v 0.0013664905 -0.0020154228 0
v 0.00055572117 -0.00338974921 0
v 0.000393939175 -0.0024029226 0
v 0.000651431503 -0.00234624417 0
v 0.000185967147 -0.00342996232 0
v 0.000131828245 -0.00243142876 0
v -0.00192767754 0.00284311175 0
v -0.0013664905 0.0020154228 0
v -0.00157638558 0.00185586466 0
v -0.00160898303 0.00303486385 0
v -0.00114057458 0.00215135189 0
v -0.00055572117 0.00338974921 0
v -0.000393939175 0.0024029226 0
v -0.000651431503 0.00234624417 0
v -0.000185967147 0.00342996232 0
v -0.000131828245 0.00243142876 0
v 0.00341486395 -0.000371388829 0
v 0.002420726 -0.000263269816 0
v 0.0032551887 -0.00109680078 0
v 0.00230753538 -0.000777499226 0
v 0.00237807096 -0.000523452996 0
v 0.00311752153 -0.00144231902 0
v 0.00220994605 -0.00102243002 0
v 0.00249379454 -0.00236224756 0
v 0.00193848659 -0.00147359923 0
v 0.00091895985 -0.00330979424 0
v 0.000901286432 -0.0022620582 0
v -0.000185967147 -0.00342996232 0
v -0.000131828245 -0.00243142876 0
v -0.00055572117 -0.00338974921 0
v -0.000393939175 -0.0024029226 0
v -0.00091895985 -0.00330979424 0
v -0.000651431503 -0.00234624417 0
v -0.00127142458 -0.00319103501 0
v -0.000901286432 -0.0022620582 0
v -0.00160898303 -0.00303486385 0
v -0.00114057458 -0.00215135189 0
v -0.00192767754 -0.00284311175 0
v -0.0013664905 -0.0020154228 0
v -0.00294330437 0.00177092745 0
v -0.00208644732 0.00125537359 0
v -0.00220994605 0.00102243002 0
v -0.00273457961 0.00207877345 0
v -0.00193848659 0.00147359923 0
v -0.00249379454 0.00236224756 0
v -0.00176779903 0.00167454814 0
v -0.002223772 0.00261802669 0
v -0.00127142458 0.00319103501 0
v -0.000901286432 0.0022620582 0
v 0.000185967147 0.00342996232 0
v 0.000131828245 0.00243142876 0
v 0.0032551887 0.00109680078 0
v 0.00230753538 0.000777499226 0
v 0.00220994605 0.00102243002 0
v 0.00335469167 0.000738423434 0
v 0.00335469167 -0.000738423434 0
v 0.00294330437 -0.00177092745 0
v 0.00208644732 -0.00125537359 0
v 0.00273457961 -0.00207877345 0
v -0.002223772 -0.00261802669 0
v -0.00157638558 -0.00185586466 0
v -0.00249379454 -0.00236224756 0
v -0.00176779903 -0.00167454814 0
v -0.00273457961 -0.00207877345 0
v -0.00193848659 -0.00147359923 0
v -0.00294330437 -0.00177092745 0
v -0.00208644732 -0.00125537359 0
v -0.00091895985 0.00330979424 0
v 0.00055572117 0.00338974921 0
v 0.000393939175 0.0024029226 0
v 0.00091895985 0.00330979424 0
v 0.000651431503 0.00234624417 0
v 0.00127142458 0.00319103501 0
v 0.000901286432 0.0022620582 0
v 0.00160898303 0.00303486385 0
v 0.00114057458 0.00215135189 0
v 0.00192767754 0.00284311175 0
v 0.0013664905 0.0020154228 0
v -0.0032551887 -0.00109680078 0
v -0.00230753538 -0.000777499226 0
v -0.00220994605 -0.00102243002 0
v -0.00335469167 -0.000738423434 0
v -0.00237807096 -0.000523452996 0
v -0.00343500008 2.10333082e-19 0
v -0.00341486395 0.000371388829 0
v -0.002420726 0.000263269816 0
v -0.00335469167 0.000738423434 0
v -0.00237807096 0.000523452996 0
v -0.0032551887 0.00109680078 0
v -0.00230753538 0.000777499226 0
v -0.00311752153 0.00144231902 0
v 0.002223772 0.00261802669 0
v 0.00157638558 0.00185586466 0
v 0.00249379454 0.00236224756 0
v 0.00273457961 0.00207877345 0
v 0.00193848659 0.00147359923 0
v 0.00294330437 0.00177092745 0
v 0.00208644732 0.00125537359 0
v 0.00160898303 -0.00303486385 0
v 0.00114057458 -0.00215135189 0
v 0.00127142458 -0.00319103501 0
v -0.00311752153 -0.00144231902 0
v 0.00176779903 0.00167454814 0
v 0.00311752153 0.00144231902 0
v -0.00341486395 -0.000371388829 0
v -0.002420726 -0.000263269816 0
v -0.00243499991 1.49100753e-19 0
v -0.00343500008 2.10333082e-19 0
v -0.00343500008 2.10333082e-19 0.00100000005
v -0.00341486395 0.000371388829 0.00100000005
v -0.00341486395 0.000371388829 0
v -0.00335469167 0.000738423434 0.00100000005
v -0.00335469167 0.000738423434 0
v -0.0032551887 0.00109680078 0.00100000005
v -0.0032551887 0.00109680078 0
v -0.00311752153 0.00144231902 0.00100000005
v -0.00311752153 0.00144231902 0
v -0.00294330437 0.00177092745 0.00100000005
v -0.00294330437 0.00177092745 0
v -0.00273457961 0.00207877345 0.00100000005
v -0.00273457961 0.00207877345 0
v -0.00249379454 0.00236224756 0.00100000005
v -0.00249379454 0.00236224756 0
v -0.002223772 0.00261802669 0.00100000005
v -0.002223772 0.00261802669 0
v -0.00192767754 0.00284311175 0.00100000005
v -0.00192767754 0.00284311175 0
v -0.00160898303 0.00303486385 0.00100000005
v -0.00160898303 0.00303486385 0
v -0.00127142458 0.00319103501 0.00100000005
v -0.00127142458 0.00319103501 0
v -0.00091895985 0.00330979424 0.00100000005
v -0.00091895985 0.00330979424 0
v -0.00055572117 0.00338974921 0.00100000005
v -0.00055572117 0.00338974921 0
v -0.000185967147 0.00342996232 0.00100000005
v -0.000185967147 0.00342996232 0
v 0.000185967147 0.00342996232 0.00100000005
v 0.000185967147 0.00342996232 0
v 0.00055572117 0.00338974921 0.00100000005
v 0.00055572117 0.00338974921 0
v 0.00091895985 0.00330979424 0.00100000005
v 0.00091895985 0.00330979424 0
v 0.00127142458 0.00319103501 0.00100000005
v 0.00127142458 0.00319103501 0
v 0.00160898303 0.00303486385 0.00100000005
v 0.00160898303 0.00303486385 0
v 0.00192767754 0.00284311175 0.00100000005
v 0.00192767754 0.00284311175 0
v 0.002223772 0.00261802669 0.00100000005
v 0.002223772 0.00261802669 0
v 0.00249379454 0.00236224756 0.00100000005
v 0.00249379454 0.00236224756 0
v 0.00273457961 0.00207877345 0.00100000005
v 0.00273457961 0.00207877345 0
v 0.00294330437 0.00177092745 0.00100000005
v 0.00294330437 0.00177092745 0
v 0.00311752153 0.00144231902 0.00100000005
v 0.00311752153 0.00144231902 0
v 0.0032551887 0.00109680078 0.00100000005
v 0.0032551887 0.00109680078 0
v 0.00335469167 0.000738423434 0.00100000005
v 0.00335469167 0.000738423434 0
v 0.00341486395 0.000371388829 0.00100000005
v 0.00341486395 0.000371388829 0
v 0.00343500008 1.47233165e-18 0.00100000005
v 0.00343500008 6.30999272e-19 0
v 0.00341486395 -0.000371388829 0.00100000005
v 0.00341486395 -0.000371388829 0
v 0.00335469167 -0.000738423434 0.00100000005
v 0.00335469167 -0.000738423434 0
v 0.0032551887 -0.00109680078 0.00100000005
v 0.0032551887 -0.00109680078 0
v 0.00311752153 -0.00144231902 0.00100000005
v 0.00311752153 -0.00144231902 0
v 0.00294330437 -0.00177092745 0.00100000005
v 0.00294330437 -0.00177092745 0
v 0.00273457961 -0.00207877345 0.00100000005
v 0.00273457961 -0.00207877345 0
v 0.00249379454 -0.00236224756 0.00100000005
v 0.00249379454 -0.00236224756 0
v 0.002223772 -0.00261802669 0.00100000005
v 0.002223772 -0.00261802669 0
v 0.00192767754 -0.00284311175 0.00100000005
v 0.00192767754 -0.00284311175 0
v 0.00160898303 -0.00303486385 0.00100000005
v 0.00160898303 -0.00303486385 0
v 0.00127142458 -0.00319103501 0.00100000005
v 0.00127142458 -0.00319103501 0
v 0.00091895985 -0.00330979424 0.00100000005
v 0.00091895985 -0.00330979424 0
v 0.00055572117 -0.00338974921 0.00100000005
v 0.00055572117 -0.00338974921 0
v 0.000185967147 -0.00342996232 0.00100000005
v 0.000185967147 -0.00342996232 0
v -0.000185967147 -0.00342996232 0.00100000005
v -0.000185967147 -0.00342996232 0
v -0.00055572117 -0.00338974921 0.00100000005
v -0.00055572117 -0.00338974921 0
v -0.00091895985 -0.00330979424 0.00100000005
v -0.00091895985 -0.00330979424 0
v -0.00127142458 -0.00319103501 0.00100000005
v -0.00127142458 -0.00319103501 0
v -0.00160898303 -0.00303486385 0.00100000005
v -0.00160898303 -0.00303486385 0
v -0.00192767754 -0.00284311175 0.00100000005
v -0.00192767754 -0.00284311175 0
v -0.002223772 -0.00261802669 0.00100000005
v -0.002223772 -0.00261802669 0
v -0.00249379454 -0.00236224756 0.00100000005
v -0.00249379454 -0.00236224756 0
v -0.00273457961 -0.00207877345 0.00100000005
v -0.00273457961 -0.00207877345 0
v -0.00294330437 -0.00177092745 0.00100000005
v -0.00294330437 -0.00177092745 0
v -0.00311752153 -0.00144231902 0.00100000005
v -0.00311752153 -0.00144231902 0
v -0.0032551887 -0.00109680078 0.00100000005
v -0.0032551887 -0.00109680078 0
v -0.00335469167 -0.000738423434 0.00100000005
v -0.00335469167 -0.000738423434 0
v -0.00341486395 -0.000371388829 0.00100000005
v -0.00341486395 -0.000371388829 0
v 0.0012038775 -0.00433597481 0.00100000005
v 0.00091895985 -0.00330979424 0.00100000005
v 0.00127142458 -0.00319103501 0.00100000005
v 0.000728018989 -0.00444071926 0.00100000005
v 0.00055572117 -0.00338974921 0.00100000005
v 0.00447362103 0.000486535573 0.00100000005
v 0.00341486395 0.000371388829 0.00100000005
v 0.00335469167 0.000738423434 0.00100000005
v 0.00449999981 8.26636586e-19 0.00100000005
v 0.00343500008 1.47233165e-18 0.00100000005
v 0.000243625094 -0.00449340045 0.00100000005
v 0.000185967147 -0.00342996232 0.00100000005
v -0.000728018989 -0.00444071926 0.00100000005
v -0.00055572117 -0.00338974921 0.00100000005
v -0.000185967147 -0.00342996232 0.00100000005
v -0.0012038775 -0.00433597481 0.00100000005
v -0.00091895985 -0.00330979424 0.00100000005
v -0.00166562165 -0.00418039504 0.00100000005
v -0.00127142458 -0.00319103501 0.00100000005
v -0.00210783794 -0.00397580443 0.00100000005
v -0.00160898303 -0.00303486385 0.00100000005
v -0.0035824189 -0.00272328407 0.00100000005
v -0.0038558573 -0.00231999229 0.00100000005
v -0.00294330437 -0.00177092745 0.00100000005
v -0.00408408931 -0.001889501 0.00100000005
v -0.00311752153 -0.00144231902 0.00100000005
v -0.000728018989 0.00444071926 0.00100000005
v -0.00055572117 0.00338974921 0.00100000005
v -0.00091895985 0.00330979424 0.00100000005
v -0.000243625094 0.00449340045 0.00100000005
v -0.000185967147 0.00342996232 0.00100000005
v 0.00210783794 0.00397580443 0.00100000005
v 0.00160898303 0.00303486385 0.00100000005
v 0.00127142458 0.00319103501 0.00100000005
v 0.0025253417 0.00372460042 0.00100000005
v 0.00192767754 0.00284311175 0.00100000005
v 0.00291323825 0.00342972926 0.00100000005
v 0.002223772 0.00261802669 0.00100000005
v 0.00326697971 0.00309464755 0.00100000005
v 0.00249379454 0.00236224756 0.00100000005
v 0.0038558573 0.00231999229 0.00100000005
v 0.00294330437 0.00177092745 0.00100000005
v 0.00273457961 0.00207877345 0.00100000005
v 0.00408408931 0.001889501 0.00100000005
v 0.00311752153 0.00144231902 0.00100000005
v 0.00447362103 -0.000486535573 0.00100000005
v 0.00341486395 -0.000371388829 0.00100000005
v 0.00439479249 -0.00096736697 0.00100000005
v 0.00335469167 -0.000738423434 0.00100000005
v 0.00426443946 -0.00143685692 0.00100000005
v 0.0032551887 -0.00109680078 0.00100000005
v 0.00210783794 -0.00397580443 0.00100000005
v 0.00160898303 -0.00303486385 0.00100000005
v 0.00192767754 -0.00284311175 0.00100000005
v 0.00166562165 -0.00418039504 0.00100000005
v -0.000243625094 -0.00449340045 0.00100000005
v -0.00326697971 -0.00309464755 0.00100000005
v -0.00273457961 -0.00207877345 0.00100000005
v -0.00439479249 0.00096736697 0.00100000005
v -0.00335469167 0.000738423434 0.00100000005
v -0.00341486395 0.000371388829 0.00100000005
v -0.00426443946 0.00143685692 0.00100000005
v -0.0032551887 0.00109680078 0.00100000005
v -0.00408408931 0.001889501 0.00100000005
v -0.00311752153 0.00144231902 0.00100000005
v -0.0038558573 0.00231999229 0.00100000005
v -0.00294330437 0.00177092745 0.00100000005
v -0.0035824189 0.00272328407 0.00100000005
v -0.00273457961 0.00207877345 0.00100000005
v -0.00326697971 0.00309464755 0.00100000005
v -0.00249379454 0.00236224756 0.00100000005
v -0.0012038775 0.00433597481 0.00100000005
v -0.00127142458 0.00319103501 0.00100000005
v 0.0012038775 0.00433597481 0.00100000005
v 0.00091895985 0.00330979424 0.00100000005
v 0.00055572117 0.00338974921 0.00100000005
v 0.00166562165 0.00418039504 0.00100000005
v 0.0035824189 0.00272328407 0.00100000005
v 0.00426443946 0.00143685692 0.00100000005
v 0.0032551887 0.00109680078 0.00100000005
v 0.00439479249 0.00096736697 0.00100000005
v 0.00408408931 -0.001889501 0.00100000005
v 0.00311752153 -0.00144231902 0.00100000005
v 0.0038558573 -0.00231999229 0.00100000005
v 0.00294330437 -0.00177092745 0.00100000005
v 0.00326697971 -0.00309464755 0.00100000005
v 0.00249379454 -0.00236224756 0.00100000005
v 0.00273457961 -0.00207877345 0.00100000005
v 0.00291323825 -0.00342972926 0.00100000005
v 0.002223772 -0.00261802669 0.00100000005
v 0.0025253417 -0.00372460042 0.00100000005
v -0.00426443946 -0.00143685692 0.00100000005
v -0.0032551887 -0.00109680078 0.00100000005
v -0.00449999981 2.7554552e-19 0.00100000005
v -0.00447362103 0.000486535573 0.00100000005
v 0.000243625094 0.00449340045 0.00100000005
v 0.000185967147 0.00342996232 0.00100000005
v 0.000728018989 0.00444071926 0.00100000005
v 0.0035824189 -0.00272328407 0.00100000005
v -0.0025253417 -0.00372460042 0.00100000005
v -0.00192767754 -0.00284311175 0.00100000005
v -0.00291323825 -0.00342972926 0.00100000005
v -0.002223772 -0.00261802669 0.00100000005
v -0.00249379454 -0.00236224756 0.00100000005
v -0.00439479249 -0.00096736697 0.00100000005
v -0.00335469167 -0.000738423434 0.00100000005
v -0.00447362103 -0.000486535573 0.00100000005
v -0.00341486395 -0.000371388829 0.00100000005
v -0.00343500008 2.10333082e-19 0.00100000005
v -0.00291323825 0.00342972926 0.00100000005
v -0.002223772 0.00261802669 0.00100000005
v -0.0025253417 0.00372460042 0.00100000005
v -0.00192767754 0.00284311175 0.00100000005
v -0.00210783794 0.00397580443 0.00100000005
v -0.00160898303 0.00303486385 0.00100000005
v -0.00166562165 0.00418039504 0.00100000005
v -0.00447362103 -0.000486535573 0
v -0.00449999981 2.7554552e-19 0
v -0.00449999981 2.7554552e-19 0.00100000005
v -0.00439479249 -0.00096736697 0
v -0.00447362103 -0.000486535573 0.00100000005
v -0.00426443946 -0.00143685692 0
v -0.00439479249 -0.00096736697 0.00100000005
v -0.00408408931 -0.001889501 0
v -0.00426443946 -0.00143685692 0.00100000005
v -0.0038558573 -0.00231999229 0
v -0.00408408931 -0.001889501 0.00100000005
v -0.0035824189 -0.00272328407 0
v -0.0038558573 -0.00231999229 0.00100000005
v -0.00326697971 -0.00309464755 0
v -0.0035824189 -0.00272328407 0.00100000005
v -0.00291323825 -0.00342972926 0
v -0.00326697971 -0.00309464755 0.00100000005
v -0.0025253417 -0.00372460042 0
v -0.00291323825 -0.00342972926 0.00100000005
v -0.00210783794 -0.00397580443 0
v -0.0025253417 -0.00372460042 0.00100000005
v -0.00166562165 -0.00418039504 0
v -0.00210783794 -0.00397580443 0.00100000005
v -0.0012038775 -0.00433597481 0
v -0.00166562165 -0.00418039504 0.00100000005
v -0.000728018989 -0.00444071926 0
v -0.0012038775 -0.00433597481 0.00100000005
v -0.000243625094 -0.00449340045 0
v -0.000728018989 -0.00444071926 0.00100000005
v 0.000243625094 -0.00449340045 0
v -0.000243625094 -0.00449340045 0.00100000005
v 0.000728018989 -0.00444071926 0
v 0.000243625094 -0.00449340045 0.00100000005
v 0.0012038775 -0.00433597481 0
v 0.000728018989 -0.00444071926 0.00100000005
v 0.00166562165 -0.00418039504 0
v 0.0012038775 -0.00433597481 0.00100000005
v 0.00210783794 -0.00397580443 0
v 0.00166562165 -0.00418039504 0.00100000005
v 0.0025253417 -0.00372460042 0
v 0.00210783794 -0.00397580443 0.00100000005
v 0.00291323825 -0.00342972926 0
v 0.0025253417 -0.00372460042 0.00100000005
v 0.00326697971 -0.00309464755 0
v 0.00291323825 -0.00342972926 0.00100000005
v 0.0035824189 -0.00272328407 0
v 0.00326697971 -0.00309464755 0.00100000005
v 0.0038558573 -0.00231999229 0
v 0.0035824189 -0.00272328407 0.00100000005
v 0.00408408931 -0.001889501 0
v 0.0038558573 -0.00231999229 0.00100000005
v 0.00426443946 -0.00143685692 0
v 0.00408408931 -0.001889501 0.00100000005
v 0.00439479249 -0.00096736697 0
v 0.00426443946 -0.00143685692 0.00100000005
v 0.00447362103 -0.000486535573 0
v 0.00439479249 -0.00096736697 0.00100000005
v 0.00449999981 1.92881872e-18 0
v 0.00447362103 -0.000486535573 0.00100000005
v 0.00447362103 0.000486535573 0
v 0.00449999981 8.26636586e-19 0.00100000005
v 0.00439479249 0.00096736697 0
v 0.00447362103 0.000486535573 0.00100000005
v 0.00426443946 0.00143685692 0
v 0.00439479249 0.00096736697 0.00100000005
v 0.00408408931 0.001889501 0
v 0.00426443946 0.00143685692 0.00100000005
v 0.0038558573 0.00231999229 0
v 0.00408408931 0.001889501 0.00100000005
v 0.0035824189 0.00272328407 0
v 0.0038558573 0.00231999229 0.00100000005
v 0.00326697971 0.00309464755 0
v 0.0035824189 0.00272328407 0.00100000005
v 0.00291323825 0.00342972926 0
v 0.00326697971 0.00309464755 0.00100000005
v 0.0025253417 0.00372460042 0
v 0.00291323825 0.00342972926 0.00100000005
v 0.00210783794 0.00397580443 0
v 0.0025253417 0.00372460042 0.00100000005
v 0.00166562165 0.00418039504 0
v 0.00210783794 0.00397580443 0.00100000005
v 0.0012038775 0.00433597481 0
v 0.00166562165 0.00418039504 0.00100000005
v 0.000728018989 0.00444071926 0
v 0.0012038775 0.00433597481 0.00100000005
v 0.000243625094 0.00449340045 0
v 0.000728018989 0.00444071926 0.00100000005
v -0.000243625094 0.00449340045 0
v 0.000243625094 0.00449340045 0.00100000005
v -0.000728018989 0.00444071926 0
v -0.000243625094 0.00449340045 0.00100000005
v -0.0012038775 0.00433597481 0
v -0.000728018989 0.00444071926 0.00100000005
v -0.00166562165 0.00418039504 0
v -0.0012038775 0.00433597481 0.00100000005
v -0.00210783794 0.00397580443 0
v -0.00166562165 0.00418039504 0.00100000005
v -0.0025253417 0.00372460042 0
v -0.00210783794 0.00397580443 0.00100000005
v -0.00291323825 0.00342972926 0
v -0.0025253417 0.00372460042 0.00100000005
v -0.00326697971 0.00309464755 0
v -0.00291323825 0.00342972926 0.00100000005
v -0.0035824189 0.00272328407 0
v -0.00326697971 0.00309464755 0.00100000005
v -0.0038558573 0.00231999229 0
v -0.0035824189 0.00272328407 0.00100000005
v -0.00408408931 0.001889501 0
v -0.0038558573 0.00231999229 0.00100000005
v -0.00426443946 0.00143685692 0
v -0.00408408931 0.001889501 0.00100000005
v -0.00439479249 0.00096736697 0
v -0.00426443946 0.00143685692 0.00100000005
v -0.00447362103 0.000486535573 0
v -0.00439479249 0.00096736697 0.00100000005
v -0.00447362103 0.000486535573 0.00100000005
v -0.00537141319 0.00118233741 0
v -0.00439479249 0.00096736697 0
v -0.00447362103 0.000486535573 0
v -0.00521209231 0.00175615842 0
v -0.00426443946 0.00143685692 0
v -0.00471271435 0.00283554615 0
v -0.00437851204 0.00332845817 0
v -0.0035824189 0.00272328407 0
v -0.00399297522 0.00378234708 0
v -0.00326697971 0.00309464755 0
v -0.00499166502 0.00230939011 0
v -0.00408408931 0.001889501 0
v -0.0038558573 0.00231999229 0
v -0.00203575986 0.00510937208 0
v -0.00166562165 0.00418039504 0
v -0.00210783794 0.00397580443 0
v -0.00147140585 0.00529952487 0
v -0.0012038775 0.00433597481 0
v -0.000889800955 0.00542754587 0
v -0.000728018989 0.00444071926 0
v -0.000297763996 0.00549193379 0
v -0.000243625094 0.00449340045 0
v -0.00356062455 -0.00419189129 0
v -0.00291323825 -0.00342972926 0
v -0.0025253417 -0.00372460042 0
v -0.00399297522 -0.00378234708 0
v -0.00326697971 -0.00309464755 0
v -0.00546775898 0.000594654586 0
v -0.00449999981 2.7554552e-19 0
v -0.00356062455 0.00419189129 0
v -0.00291323825 0.00342972926 0
v -0.000889800955 -0.00542754587 0
v -0.000728018989 -0.00444071926 0
v -0.000243625094 -0.00449340045 0
v -0.00147140585 -0.00529952487 0
v -0.0012038775 -0.00433597481 0
v -0.00308652897 -0.00455228938 0
v -0.00210783794 -0.00397580443 0
v -0.00308652897 0.00455228938 0
v -0.0025253417 0.00372460042 0
v -0.00257624639 0.00485931616 0
v 0.000297763996 0.00549193379 0
v 0.000243625094 0.00449340045 0
v 0.00257624639 0.00485931616 0
v 0.00308652897 0.00455228938 0
v 0.0025253417 0.00372460042 0
v 0.00356062455 0.00419189129 0
v 0.00291323825 0.00342972926 0
v 0.00356062455 -0.00419189129 0
v 0.00291323825 -0.00342972926 0
v 0.00326697971 -0.00309464755 0
v 0.00308652897 -0.00455228938 0
v 0.0025253417 -0.00372460042 0
v 0.00147140585 -0.00529952487 0
v 0.0012038775 -0.00433597481 0
v 0.00166562165 -0.00418039504 0
v 0.000889800955 -0.00542754587 0
v 0.000728018989 -0.00444071926 0
v -0.00203575986 -0.00510937208 0
v -0.00166562165 -0.00418039504 0
v -0.00437851204 -0.00332845817 0
v -0.0035824189 -0.00272328407 0
v -0.00471271435 -0.00283554615 0
v -0.0038558573 -0.00231999229 0
v -0.00499166502 -0.00230939011 0
v -0.00408408931 -0.001889501 0
v 0.000889800955 0.00542754587 0
v 0.000728018989 0.00444071926 0
v 0.00399297522 0.00378234708 0
v 0.00326697971 0.00309464755 0
v 0.00437851204 0.00332845817 0
v 0.0035824189 0.00272328407 0
v 0.00471271435 0.00283554615 0
v 0.0038558573 0.00231999229 0
v 0.00537141319 -0.00118233741 0
v 0.00439479249 -0.00096736697 0
v 0.00447362103 -0.000486535573 0
v 0.00521209231 -0.00175615842 0
v 0.00426443946 -0.00143685692 0
v 0.00499166502 -0.00230939011 0
v 0.00408408931 -0.001889501 0
v 0.00471271435 -0.00283554615 0
v 0.0038558573 -0.00231999229 0
v 0.00437851204 -0.00332845817 0
v 0.0035824189 -0.00272328407 0
v 0.00399297522 -0.00378234708 0
v 0.00257624639 -0.00485931616 0
v 0.00210783794 -0.00397580443 0
v 0.000297763996 -0.00549193379 0
v 0.000243625094 -0.00449340045 0
v -0.00257624639 -0.00485931616 0
v 0.00147140585 0.00529952487 0
v 0.0012038775 0.00433597481 0
v 0.00203575986 0.00510937208 0
v 0.00166562165 0.00418039504 0
v 0.00210783794 0.00397580443 0
v 0.00499166502 0.00230939011 0
v 0.00408408931 0.001889501 0
v 0.00546775898 0.000594654586 0
v 0.00447362103 0.000486535573 0
v 0.00439479249 0.00096736697 0
v 0.00549999997 1.0103336e-18 0
v 0.00449999981 1.92881872e-18 0
v 0.00546775898 -0.000594654586 0
v 0.00203575986 -0.00510937208 0
v -0.000297763996 -0.00549193379 0
v -0.00521209231 -0.00175615842 0
v -0.00426443946 -0.00143685692 0
v -0.00537141319 -0.00118233741 0
v -0.00439479249 -0.00096736697 0
v -0.00546775898 -0.000594654586 0
v -0.00447362103 -0.000486535573 0
v -0.00549999997 3.36777875e-19 0
v 0.00521209231 0.00175615842 0
v 0.00426443946 0.00143685692 0
v 0.00537141319 0.00118233741 0
v -0.00549999997 3.36777875e-19 0
v -0.00549999997 3.36777875e-19 0.00499999989
v -0.00546775898 0.000594654586 0.00499999989
v -0.00546775898 0.000594654586 0
v -0.00537141319 0.00118233741 0.00499999989
v -0.00537141319 0.00118233741 0
v -0.00521209231 0.00175615842 0.00499999989
v -0.00521209231 0.00175615842 0
v -0.00499166502 0.00230939011 0.00499999989
v -0.00499166502 0.00230939011 0
v -0.00471271435 0.00283554615 0.00499999989
v -0.00471271435 0.00283554615 0
v -0.00437851204 0.00332845817 0.00499999989
v -0.00437851204 0.00332845817 0
v -0.00399297522 0.00378234708 0.00499999989
v -0.00399297522 0.00378234708 0
v -0.00356062455 0.00419189129 0.00499999989
v -0.00356062455 0.00419189129 0
v -0.00308652897 0.00455228938 0.00499999989
v -0.00308652897 0.00455228938 0
v -0.00257624639 0.00485931616 0.00499999989
v -0.00257624639 0.00485931616 0
v -0.00203575986 0.00510937208 0.00499999989
v -0.00203575986 0.00510937208 0
v -0.00147140585 0.00529952487 0.00499999989
v -0.00147140585 0.00529952487 0
v -0.000889800955 0.00542754587 0.00499999989
v -0.000889800955 0.00542754587 0
v -0.000297763996 0.00549193379 0.00499999989
v -0.000297763996 0.00549193379 0
v 0.000297763996 0.00549193379 0.00499999989
v 0.000297763996 0.00549193379 0
v 0.000889800955 0.00542754587 0.00499999989
v 0.000889800955 0.00542754587 0
v 0.00147140585 0.00529952487 0.00499999989
v 0.00147140585 0.00529952487 0
v 0.00203575986 0.00510937208 0.00499999989
v 0.00203575986 0.00510937208 0
v 0.00257624639 0.00485931616 0.00499999989
v 0.00257624639 0.00485931616 0
v 0.00308652897 0.00455228938 0.00499999989
v 0.00308652897 0.00455228938 0
v 0.00356062455 0.00419189129 0.00499999989
v 0.00356062455 0.00419189129 0
v 0.00399297522 0.00378234708 0.00499999989
v 0.00399297522 0.00378234708 0
v 0.00437851204 0.00332845817 0.00499999989
v 0.00437851204 0.00332845817 0
v 0.00471271435 0.00283554615 0.00499999989
v 0.00471271435 0.00283554615 0
v 0.00499166502 0.00230939011 0.00499999989
v 0.00499166502 0.00230939011 0
v 0.00521209231 0.00175615842 0.00499999989
v 0.00521209231 0.00175615842 0
v 0.00537141319 0.00118233741 0.00499999989
v 0.00537141319 0.00118233741 0
v 0.00546775898 0.000594654586 0.00499999989
v 0.00546775898 0.000594654586 0
v 0.00549999997 2.3574451e-18 0.00499999989
v 0.00549999997 1.0103336e-18 0
v 0.00546775898 -0.000594654586 0.00499999989
v 0.00546775898 -0.000594654586 0
v 0.00537141319 -0.00118233741 0.00499999989
v 0.00537141319 -0.00118233741 0
v 0.00521209231 -0.00175615842 0.00499999989
v 0.00521209231 -0.00175615842 0
v 0.00499166502 -0.00230939011 0.00499999989
v 0.00499166502 -0.00230939011 0
v 0.00471271435 -0.00283554615 0.00499999989
v 0.00471271435 -0.00283554615 0
v 0.00437851204 -0.00332845817 0.00499999989
v 0.00437851204 -0.00332845817 0
v 0.00399297522 -0.00378234708 0.00499999989
v 0.00399297522 -0.00378234708 0
v 0.00356062455 -0.00419189129 0.00499999989
v 0.00356062455 -0.00419189129 0
v 0.00308652897 -0.00455228938 0.00499999989
v 0.00308652897 -0.00455228938 0
v 0.00257624639 -0.00485931616 0.00499999989
v 0.00257624639 -0.00485931616 0
v 0.00203575986 -0.00510937208 0.00499999989
v 0.00203575986 -0.00510937208 0
v 0.00147140585 -0.00529952487 0.00499999989
v 0.00147140585 -0.00529952487 0
v 0.000889800955 -0.00542754587 0.00499999989
v 0.000889800955 -0.00542754587 0
v 0.000297763996 -0.00549193379 0.00499999989
v 0.000297763996 -0.00549193379 0
v -0.000297763996 -0.00549193379 0.00499999989
v -0.000297763996 -0.00549193379 0
v -0.000889800955 -0.00542754587 0.00499999989
v -0.000889800955 -0.00542754587 0
v -0.00147140585 -0.00529952487 0.00499999989
v -0.00147140585 -0.00529952487 0
v -0.00203575986 -0.00510937208 0.00499999989
v -0.00203575986 -0.00510937208 0
v -0.00257624639 -0.00485931616 0.00499999989
v -0.00257624639 -0.00485931616 0
v -0.00308652897 -0.00455228938 0.00499999989
v -0.00308652897 -0.00455228938 0
v -0.00356062455 -0.00419189129 0.00499999989
v -0.00356062455 -0.00419189129 0
v -0.00399297522 -0.00378234708 0.00499999989
v -0.00399297522 -0.00378234708 0
v -0.00437851204 -0.00332845817 0.00499999989
v -0.00437851204 -0.00332845817 0
v -0.00471271435 -0.00283554615 0.00499999989
v -0.00471271435 -0.00283554615 0
v -0.00499166502 -0.00230939011 0.00499999989
v -0.00499166502 -0.00230939011 0
v -0.00521209231 -0.00175615842 0.00499999989
v -0.00521209231 -0.00175615842 0
v -0.00537141319 -0.00118233741 0.00499999989
v -0.00537141319 -0.00118233741 0
v -0.00546775898 -0.000594654586 0.00499999989
v -0.00546775898 -0.000594654586 0
v 0.00537141319 0.00118233741 0.00499999989
v 0.00439479249 0.00096736697 0.00499999989
v 0.00447362103 0.000486535573 0.00499999989
v 0.00521209231 0.00175615842 0.00499999989
v 0.00426443946 0.00143685692 0.00499999989
v 0.00437851204 0.00332845817 0.00499999989
v 0.0035824189 0.00272328407 0.00499999989
v 0.0038558573 0.00231999229 0.00499999989
v 0.00399297522 0.00378234708 0.00499999989
v 0.00326697971 0.00309464755 0.00499999989
v 0.00499166502 0.00230939011 0.00499999989
v 0.00408408931 0.001889501 0.00499999989
v 0.00471271435 0.00283554615 0.00499999989
v 0.00203575986 0.00510937208 0.00499999989
v 0.00166562165 0.00418039504 0.00499999989
v 0.00210783794 0.00397580443 0.00499999989
v 0.00147140585 0.00529952487 0.00499999989
v 0.0012038775 0.00433597481 0.00499999989
v 0.000889800955 0.00542754587 0.00499999989
v 0.000728018989 0.00444071926 0.00499999989
v 0.000297763996 0.00549193379 0.00499999989
v 0.000243625094 0.00449340045 0.00499999989
v 0.00356062455 -0.00419189129 0.00499999989
v 0.00291323825 -0.00342972926 0.00499999989
v 0.0025253417 -0.00372460042 0.00499999989
v 0.00399297522 -0.00378234708 0.00499999989
v 0.00326697971 -0.00309464755 0.00499999989
v 0.00546775898 0.000594654586 0.00499999989
v 0.00449999981 -8.26636586e-19 0.00499999989
v 0.00356062455 0.00419189129 0.00499999989
v 0.00291323825 0.00342972926 0.00499999989
v 0.000889800955 -0.00542754587 0.00499999989
v 0.000728018989 -0.00444071926 0.00499999989
v 0.000243625094 -0.00449340045 0.00499999989
v 0.00147140585 -0.00529952487 0.00499999989
v 0.0012038775 -0.00433597481 0.00499999989
v 0.00257624639 -0.00485931616 0.00499999989
v 0.00308652897 -0.00455228938 0.00499999989
v 0.00308652897 0.00455228938 0.00499999989
v 0.0025253417 0.00372460042 0.00499999989
v 0.00257624639 0.00485931616 0.00499999989
v -0.000297763996 0.00549193379 0.00499999989
v -0.000243625094 0.00449340045 0.00499999989
v -0.00257624639 0.00485931616 0.00499999989
v -0.00308652897 0.00455228938 0.00499999989
v -0.0025253417 0.00372460042 0.00499999989
v -0.00356062455 0.00419189129 0.00499999989
v -0.00291323825 0.00342972926 0.00499999989
v -0.00356062455 -0.00419189129 0.00499999989
v -0.00291323825 -0.00342972926 0.00499999989
v -0.00326697971 -0.00309464755 0.00499999989
v -0.00308652897 -0.00455228938 0.00499999989
v -0.0025253417 -0.00372460042 0.00499999989
v -0.00147140585 -0.00529952487 0.00499999989
v -0.0012038775 -0.00433597481 0.00499999989
v -0.00166562165 -0.00418039504 0.00499999989
v -0.000889800955 -0.00542754587 0.00499999989
v -0.000728018989 -0.00444071926 0.00499999989
v 0.00203575986 -0.00510937208 0.00499999989
v 0.00166562165 -0.00418039504 0.00499999989
v 0.00437851204 -0.00332845817 0.00499999989
v 0.0035824189 -0.00272328407 0.00499999989
v 0.00471271435 -0.00283554615 0.00499999989
v 0.0038558573 -0.00231999229 0.00499999989
v 0.00499166502 -0.00230939011 0.00499999989
v 0.00408408931 -0.001889501 0.00499999989
v -0.000889800955 0.00542754587 0.00499999989
v -0.000728018989 0.00444071926 0.00499999989
v -0.00399297522 0.00378234708 0.00499999989
v -0.00326697971 0.00309464755 0.00499999989
v -0.00437851204 0.00332845817 0.00499999989
v -0.0035824189 0.00272328407 0.00499999989
v -0.00471271435 0.00283554615 0.00499999989
v -0.0038558573 0.00231999229 0.00499999989
v -0.00546775898 -0.000594654586 0.00499999989
v -0.00537141319 -0.00118233741 0.00499999989
v -0.00439479249 -0.00096736697 0.00499999989
v -0.00521209231 -0.00175615842 0.00499999989
v -0.00426443946 -0.00143685692 0.00499999989
v -0.00499166502 -0.00230939011 0.00499999989
v -0.00408408931 -0.001889501 0.00499999989
v -0.00471271435 -0.00283554615 0.00499999989
v -0.0038558573 -0.00231999229 0.00499999989
v -0.00437851204 -0.00332845817 0.00499999989
v -0.0035824189 -0.00272328407 0.00499999989
v -0.00399297522 -0.00378234708 0.00499999989
v -0.00257624639 -0.00485931616 0.00499999989
v -0.00210783794 -0.00397580443 0.00499999989
v -0.000297763996 -0.00549193379 0.00499999989
v -0.000243625094 -0.00449340045 0.00499999989
v 0.00210783794 -0.00397580443 0.00499999989
v -0.00147140585 0.00529952487 0.00499999989
v -0.0012038775 0.00433597481 0.00499999989
v -0.00203575986 0.00510937208 0.00499999989
v -0.00166562165 0.00418039504 0.00499999989
v -0.00210783794 0.00397580443 0.00499999989
v -0.00499166502 0.00230939011 0.00499999989
v -0.00408408931 0.001889501 0.00499999989
v -0.00546775898 0.000594654586 0.00499999989
v -0.00447362103 0.000486535573 0.00499999989
v -0.00439479249 0.00096736697 0.00499999989
v -0.00549999997 3.36777875e-19 0.00499999989
v -0.00449999981 8.26636586e-19 0.00499999989
v -0.00447362103 -0.000486535573 0.00499999989
v -0.00203575986 -0.00510937208 0.00499999989
v 0.000297763996 -0.00549193379 0.00499999989
v 0.00521209231 -0.00175615842 0.00499999989
v 0.00426443946 -0.00143685692 0.00499999989
v 0.00537141319 -0.00118233741 0.00499999989
v 0.00439479249 -0.00096736697 0.00499999989
v 0.00546775898 -0.000594654586 0.00499999989
v 0.00447362103 -0.000486535573 0.00499999989
v 0.00549999997 2.3574451e-18 0.00499999989
v -0.00521209231 0.00175615842 0.00499999989
v -0.00426443946 0.00143685692 0.00499999989
v -0.00537141319 0.00118233741 0.00499999989
v 0.00343500008 2.10333082e-19 0.00499999989
v 0.00343500008 -6.30999272e-19 0.00400000019
v 0.00341486395 0.000371388829 0.00400000019
v 0.00341486395 0.000371388829 0.00499999989
v 0.00335469167 0.000738423434 0.00400000019
v 0.00335469167 0.000738423434 0.00499999989
v 0.0032551887 0.00109680078 0.00400000019
v 0.0032551887 0.00109680078 0.00499999989
v 0.00311752153 0.00144231902 0.00400000019
v 0.00311752153 0.00144231902 0.00499999989
v 0.00294330437 0.00177092745 0.00400000019
v 0.00294330437 0.00177092745 0.00499999989
v 0.00273457961 0.00207877345 0.00400000019
v 0.00273457961 0.00207877345 0.00499999989
v 0.00249379454 0.00236224756 0.00400000019
v 0.00249379454 0.00236224756 0.00499999989
v 0.002223772 0.00261802669 0.00400000019
v 0.002223772 0.00261802669 0.00499999989
v 0.00192767754 0.00284311175 0.00400000019
v 0.00192767754 0.00284311175 0.00499999989
v 0.00160898303 0.00303486385 0.00400000019
v 0.00160898303 0.00303486385 0.00499999989
v 0.00127142458 0.00319103501 0.00400000019
v 0.00127142458 0.00319103501 0.00499999989
v 0.00091895985 0.00330979424 0.00400000019
v 0.00091895985 0.00330979424 0.00499999989
v 0.00055572117 0.00338974921 0.00400000019
v 0.00055572117 0.00338974921 0.00499999989
v 0.000185967147 0.00342996232 0.00400000019
v 0.000185967147 0.00342996232 0.00499999989
v -0.000185967147 0.00342996232 0.00400000019
v -0.000185967147 0.00342996232 0.00499999989
v -0.00055572117 0.00338974921 0.00400000019
v -0.00055572117 0.00338974921 0.00499999989
v -0.00091895985 0.00330979424 0.00400000019
v -0.00091895985 0.00330979424 0.00499999989
v -0.00127142458 0.00319103501 0.00400000019
v -0.00127142458 0.00319103501 0.00499999989
v -0.00160898303 0.00303486385 0.00400000019
v -0.00160898303 0.00303486385 0.00499999989
v -0.00192767754 0.00284311175 0.00400000019
v -0.00192767754 0.00284311175 0.00499999989
v -0.002223772 0.00261802669 0.00400000019
v -0.002223772 0.00261802669 0.00499999989
v -0.00249379454 0.00236224756 0.00400000019
v -0.00249379454 0.00236224756 0.00499999989
v -0.00273457961 0.00207877345 0.00400000019
v -0.00273457961 0.00207877345 0.00499999989
v -0.00294330437 0.00177092745 0.00400000019
v -0.00294330437 0.00177092745 0.00499999989
v -0.00311752153 0.00144231902 0.00400000019
v -0.00311752153 0.00144231902 0.00499999989
v -0.0032551887 0.00109680078 0.00400000019
v -0.0032551887 0.00109680078 0.00499999989
v -0.00335469167 0.000738423434 0.00400000019
v -0.00335469167 0.000738423434 0.00499999989
v -0.00341486395 0.000371388829 0.00400000019
v -0.00341486395 0.000371388829 0.00499999989
v -0.00343500008 6.30999272e-19 0.00400000019
v -0.00343500008 6.30999272e-19 0.00499999989
v -0.00341486395 -0.000371388829 0.00400000019
v -0.00341486395 -0.000371388829 0.00499999989
v -0.00335469167 -0.000738423434 0.00400000019
v -0.00335469167 -0.000738423434 0.00499999989
v -0.0032551887 -0.00109680078 0.00400000019
v -0.0032551887 -0.00109680078 0.00499999989
v -0.00311752153 -0.00144231902 0.00400000019
v -0.00311752153 -0.00144231902 0.00499999989
v -0.00294330437 -0.00177092745 0.00400000019
v -0.00294330437 -0.00177092745 0.00499999989
v -0.00273457961 -0.00207877345 0.00400000019
v -0.00273457961 -0.00207877345 0.00499999989
v -0.00249379454 -0.00236224756 0.00400000019
v -0.00249379454 -0.00236224756 0.00499999989
v -0.002223772 -0.00261802669 0.00400000019
v -0.002223772 -0.00261802669 0.00499999989
v -0.00192767754 -0.00284311175 0.00400000019
v -0.00192767754 -0.00284311175 0.00499999989
v -0.00160898303 -0.00303486385 0.00400000019
v -0.00160898303 -0.00303486385 0.00499999989
v -0.00127142458 -0.00319103501 0.00400000019
v -0.00127142458 -0.00319103501 0.00499999989
v -0.00091895985 -0.00330979424 0.00400000019
v -0.00091895985 -0.00330979424 0.00499999989
v -0.00055572117 -0.00338974921 0.00400000019
v -0.00055572117 -0.00338974921 0.00499999989
v -0.000185967147 -0.00342996232 0.00400000019
v -0.000185967147 -0.00342996232 0.00499999989
v 0.000185967147 -0.00342996232 0.00400000019
v 0.000185967147 -0.00342996232 0.00499999989
v 0.00055572117 -0.00338974921 0.00400000019
v 0.00055572117 -0.00338974921 0.00499999989
v 0.00091895985 -0.00330979424 0.00400000019
v 0.00091895985 -0.00330979424 0.00499999989
v 0.00127142458 -0.00319103501 0.00400000019
v 0.00127142458 -0.00319103501 0.00499999989
v 0.00160898303 -0.00303486385 0.00400000019
v 0.00160898303 -0.00303486385 0.00499999989
v 0.00192767754 -0.00284311175 0.00400000019
v 0.00192767754 -0.00284311175 0.00499999989
v 0.002223772 -0.00261802669 0.00400000019
v 0.002223772 -0.00261802669 0.00499999989
v 0.00249379454 -0.00236224756 0.00400000019
v 0.00249379454 -0.00236224756 0.00499999989
v 0.00273457961 -0.00207877345 0.00400000019
v 0.00273457961 -0.00207877345 0.00499999989
v 0.00294330437 -0.00177092745 0.00400000019
v 0.00294330437 -0.00177092745 0.00499999989
v 0.00311752153 -0.00144231902 0.00400000019
v 0.00311752153 -0.00144231902 0.00499999989
v 0.0032551887 -0.00109680078 0.00400000019
v 0.0032551887 -0.00109680078 0.00499999989
v 0.00335469167 -0.000738423434 0.00400000019
v 0.00335469167 -0.000738423434 0.00499999989
v 0.00341486395 -0.000371388829 0.00400000019
v 0.00341486395 -0.000371388829 0.00499999989
v 0.00447362103 -0.000486535573 0.00499999989
v 0.00449999981 -8.26636586e-19 0.00499999989
v 0.00449999981 2.7554552e-19 0.00400000019
v 0.00439479249 -0.00096736697 0.00499999989
v 0.00447362103 -0.000486535573 0.00400000019
v 0.00426443946 -0.00143685692 0.00499999989
v 0.00439479249 -0.00096736697 0.00400000019
v 0.00408408931 -0.001889501 0.00499999989
v 0.00426443946 -0.00143685692 0.00400000019
v 0.0038558573 -0.00231999229 0.00499999989
v 0.00408408931 -0.001889501 0.00400000019
v 0.0035824189 -0.00272328407 0.00499999989
v 0.0038558573 -0.00231999229 0.00400000019
v 0.00326697971 -0.00309464755 0.00499999989
v 0.0035824189 -0.00272328407 0.00400000019
v 0.00291323825 -0.00342972926 0.00499999989
v 0.00326697971 -0.00309464755 0.00400000019
v 0.0025253417 -0.00372460042 0.00499999989
v 0.00291323825 -0.00342972926 0.00400000019
v 0.00210783794 -0.00397580443 0.00499999989
v 0.0025253417 -0.00372460042 0.00400000019
v 0.00166562165 -0.00418039504 0.00499999989
v 0.00210783794 -0.00397580443 0.00400000019
v 0.0012038775 -0.00433597481 0.00499999989
v 0.00166562165 -0.00418039504 0.00400000019
v 0.000728018989 -0.00444071926 0.00499999989
v 0.0012038775 -0.00433597481 0.00400000019
v 0.000243625094 -0.00449340045 0.00499999989
v 0.000728018989 -0.00444071926 0.00400000019
v -0.000243625094 -0.00449340045 0.00499999989
v 0.000243625094 -0.00449340045 0.00400000019
v -0.000728018989 -0.00444071926 0.00499999989
v -0.000243625094 -0.00449340045 0.00400000019
v -0.0012038775 -0.00433597481 0.00499999989
v -0.000728018989 -0.00444071926 0.00400000019
v -0.00166562165 -0.00418039504 0.00499999989
v -0.0012038775 -0.00433597481 0.00400000019
v -0.00210783794 -0.00397580443 0.00499999989
v -0.00166562165 -0.00418039504 0.00400000019
v -0.0025253417 -0.00372460042 0.00499999989
v -0.00210783794 -0.00397580443 0.00400000019
v -0.00291323825 -0.00342972926 0.00499999989
v -0.0025253417 -0.00372460042 0.00400000019
v -0.00326697971 -0.00309464755 0.00499999989
v -0.00291323825 -0.00342972926 0.00400000019
v -0.0035824189 -0.00272328407 0.00499999989
v -0.00326697971 -0.00309464755 0.00400000019
v -0.0038558573 -0.00231999229 0.00499999989
v -0.0035824189 -0.00272328407 0.00400000019
v -0.00408408931 -0.001889501 0.00499999989
v -0.0038558573 -0.00231999229 0.00400000019
v -0.00426443946 -0.00143685692 0.00499999989
v -0.00408408931 -0.001889501 0.00400000019
v -0.00439479249 -0.00096736697 0.00499999989
v -0.00426443946 -0.00143685692 0.00400000019
v -0.00447362103 -0.000486535573 0.00499999989
v -0.00439479249 -0.00096736697 0.00400000019
v -0.00449999981 8.26636586e-19 0.00499999989
v -0.00447362103 -0.000486535573 0.00400000019
v -0.00447362103 0.000486535573 0.00499999989
v -0.00449999981 8.26636586e-19 0.00400000019
v -0.00439479249 0.00096736697 0.00499999989
v -0.00447362103 0.000486535573 0.00400000019
v -0.00426443946 0.00143685692 0.00499999989
v -0.00439479249 0.00096736697 0.00400000019
v -0.00408408931 0.001889501 0.00499999989
v -0.00426443946 0.00143685692 0.00400000019
v -0.0038558573 0.00231999229 0.00499999989
v -0.00408408931 0.001889501 0.00400000019
v -0.0035824189 0.00272328407 0.00499999989
v -0.0038558573 0.00231999229 0.00400000019
v -0.00326697971 0.00309464755 0.00499999989
v -0.0035824189 0.00272328407 0.00400000019
v -0.00291323825 0.00342972926 0.00499999989
v -0.00326697971 0.00309464755 0.00400000019
v -0.0025253417 0.00372460042 0.00499999989
v -0.00291323825 0.00342972926 0.00400000019
v -0.00210783794 0.00397580443 0.00499999989
v -0.0025253417 0.00372460042 0.00400000019
v -0.00166562165 0.00418039504 0.00499999989
v -0.00210783794 0.00397580443 0.00400000019
v -0.0012038775 0.00433597481 0.00499999989
v -0.00166562165 0.00418039504 0.00400000019
v -0.000728018989 0.00444071926 0.00499999989
v -0.0012038775 0.00433597481 0.00400000019
v -0.000243625094 0.00449340045 0.00499999989
v -0.000728018989 0.00444071926 0.00400000019
v 0.000243625094 0.00449340045 0.00499999989
v -0.000243625094 0.00449340045 0.00400000019
v 0.000728018989 0.00444071926 0.00499999989
v 0.000243625094 0.00449340045 0.00400000019
v 0.0012038775 0.00433597481 0.00499999989
v 0.000728018989 0.00444071926 0.00400000019
v 0.00166562165 0.00418039504 0.00499999989
v 0.0012038775 0.00433597481 0.00400000019
v 0.00210783794 0.00397580443 0.00499999989
v 0.00166562165 0.00418039504 0.00400000019
v 0.0025253417 0.00372460042 0.00499999989
v 0.00210783794 0.00397580443 0.00400000019
v 0.00291323825 0.00342972926 0.00499999989
v 0.0025253417 0.00372460042 0.00400000019
v 0.00326697971 0.00309464755 0.00499999989
v 0.00291323825 0.00342972926 0.00400000019
v 0.0035824189 0.00272328407 0.00499999989
v 0.00326697971 0.00309464755 0.00400000019
v 0.0038558573 0.00231999229 0.00499999989
v 0.0035824189 0.00272328407 0.00400000019
v 0.00408408931 0.001889501 0.00499999989
v 0.0038558573 0.00231999229 0.00400000019
v 0.00426443946 0.00143685692 0.00499999989
v 0.00408408931 0.001889501 0.00400000019
v 0.00439479249 0.00096736697 0.00499999989
v 0.00426443946 0.00143685692 0.00400000019
v 0.00447362103 0.000486535573 0.00499999989
v 0.00439479249 0.00096736697 0.00400000019
v 0.00447362103 0.000486535573 0.00400000019
v -0.0012038775 -0.00433597481 0.00400000019
v -0.00091895985 -0.00330979424 0.00400000019
v -0.00127142458 -0.00319103501 0.00400000019
v -0.000728018989 -0.00444071926 0.00400000019
v -0.00055572117 -0.00338974921 0.00400000019
v -0.00447362103 0.000486535573 0.00400000019
v -0.00341486395 0.000371388829 0.00400000019
v -0.00335469167 0.000738423434 0.00400000019
v -0.00449999981 8.26636586e-19 0.00400000019
v -0.00343500008 6.30999272e-19 0.00400000019
v -0.000243625094 -0.00449340045 0.00400000019
v -0.000185967147 -0.00342996232 0.00400000019
v 0.000728018989 -0.00444071926 0.00400000019
v 0.00055572117 -0.00338974921 0.00400000019
v 0.000185967147 -0.00342996232 0.00400000019
v 0.0012038775 -0.00433597481 0.00400000019
v 0.00091895985 -0.00330979424 0.00400000019
v 0.00166562165 -0.00418039504 0.00400000019
v 0.00127142458 -0.00319103501 0.00400000019
v 0.00210783794 -0.00397580443 0.00400000019
v 0.00160898303 -0.00303486385 0.00400000019
v 0.0035824189 -0.00272328407 0.00400000019
v 0.0038558573 -0.00231999229 0.00400000019
v 0.00294330437 -0.00177092745 0.00400000019
v 0.00408408931 -0.001889501 0.00400000019
v 0.00311752153 -0.00144231902 0.00400000019
v 0.000728018989 0.00444071926 0.00400000019
v 0.00055572117 0.00338974921 0.00400000019
v 0.00091895985 0.00330979424 0.00400000019
v 0.000243625094 0.00449340045 0.00400000019
v 0.000185967147 0.00342996232 0.00400000019
v -0.00210783794 0.00397580443 0.00400000019
v -0.00160898303 0.00303486385 0.00400000019
v -0.00127142458 0.00319103501 0.00400000019
v -0.0025253417 0.00372460042 0.00400000019
v -0.00192767754 0.00284311175 0.00400000019
v -0.00291323825 0.00342972926 0.00400000019
v -0.002223772 0.00261802669 0.00400000019
v -0.00326697971 0.00309464755 0.00400000019
v -0.00249379454 0.00236224756 0.00400000019
v -0.0038558573 0.00231999229 0.00400000019
v -0.00294330437 0.00177092745 0.00400000019
v -0.00273457961 0.00207877345 0.00400000019
v -0.00408408931 0.001889501 0.00400000019
v -0.00311752153 0.00144231902 0.00400000019
v -0.00447362103 -0.000486535573 0.00400000019
v -0.00341486395 -0.000371388829 0.00400000019
v -0.00439479249 -0.00096736697 0.00400000019
v -0.00335469167 -0.000738423434 0.00400000019
v -0.00426443946 -0.00143685692 0.00400000019
v -0.0032551887 -0.00109680078 0.00400000019
v -0.00210783794 -0.00397580443 0.00400000019
v -0.00160898303 -0.00303486385 0.00400000019
v -0.00192767754 -0.00284311175 0.00400000019
v -0.00166562165 -0.00418039504 0.00400000019
v 0.000243625094 -0.00449340045 0.00400000019
v 0.00326697971 -0.00309464755 0.00400000019
v 0.00273457961 -0.00207877345 0.00400000019
v 0.00439479249 0.00096736697 0.00400000019
v 0.00335469167 0.000738423434 0.00400000019
v 0.00341486395 0.000371388829 0.00400000019
v 0.00426443946 0.00143685692 0.00400000019
v 0.0032551887 0.00109680078 0.00400000019
v 0.00408408931 0.001889501 0.00400000019
v 0.00311752153 0.00144231902 0.00400000019
v 0.0038558573 0.00231999229 0.00400000019
v 0.00294330437 0.00177092745 0.00400000019
v 0.0035824189 0.00272328407 0.00400000019
v 0.00273457961 0.00207877345 0.00400000019
v 0.00326697971 0.00309464755 0.00400000019
v 0.00249379454 0.00236224756 0.00400000019
v 0.0012038775 0.00433597481 0.00400000019
v 0.00127142458 0.00319103501 0.00400000019
v -0.0012038775 0.00433597481 0.00400000019
v -0.00091895985 0.00330979424 0.00400000019
v -0.00055572117 0.00338974921 0.00400000019
v -0.00166562165 0.00418039504 0.00400000019
v -0.0035824189 0.00272328407 0.00400000019
v -0.00426443946 0.00143685692 0.00400000019
v -0.0032551887 0.00109680078 0.00400000019
v -0.00439479249 0.00096736697 0.00400000019
v -0.00408408931 -0.001889501 0.00400000019
v -0.00311752153 -0.00144231902 0.00400000019
v -0.0038558573 -0.00231999229 0.00400000019
v -0.00294330437 -0.00177092745 0.00400000019
v -0.00326697971 -0.00309464755 0.00400000019
v -0.00249379454 -0.00236224756 0.00400000019
v -0.00273457961 -0.00207877345 0.00400000019
v -0.00291323825 -0.00342972926 0.00400000019
v -0.002223772 -0.00261802669 0.00400000019
v -0.0025253417 -0.00372460042 0.00400000019
v 0.00426443946 -0.00143685692 0.00400000019
v 0.0032551887 -0.00109680078 0.00400000019
v 0.00447362103 0.000486535573 0.00400000019
v 0.00343500008 -6.30999272e-19 0.00400000019
v -0.000243625094 0.00449340045 0.00400000019
v -0.000185967147 0.00342996232 0.00400000019
v -0.000728018989 0.00444071926 0.00400000019
v -0.0035824189 -0.00272328407 0.00400000019
v 0.0025253417 -0.00372460042 0.00400000019
v 0.00192767754 -0.00284311175 0.00400000019
v 0.00291323825 -0.00342972926 0.00400000019
v 0.002223772 -0.00261802669 0.00400000019
v 0.00249379454 -0.00236224756 0.00400000019
v 0.00439479249 -0.00096736697 0.00400000019
v 0.00335469167 -0.000738423434 0.00400000019
v 0.00447362103 -0.000486535573 0.00400000019
v 0.00341486395 -0.000371388829 0.00400000019
v 0.00449999981 2.7554552e-19 0.00400000019
v 0.00291323825 0.00342972926 0.00400000019
v 0.002223772 0.00261802669 0.00400000019
v 0.0025253417 0.00372460042 0.00400000019
v 0.00192767754 0.00284311175 0.00400000019
v 0.00210783794 0.00397580443 0.00400000019
v 0.00160898303 0.00303486385 0.00400000019
v 0.00166562165 0.00418039504 0.00400000019
f 1 2 3
f 4 5 3
f 6 7 5
f 6 8 9
f 10 11 12
f 10 13 14
f 15 16 17
f 16 18 19
f 18 20 21
f 20 1 22
f 3 2 4
f 9 7 6
f 23 24 9
f 23 25 26
f 27 28 29
f 27 30 31
f 32 33 34
f 35 36 33
f 37 12 38
f 14 11 10
f 39 40 14
f 39 15 41
f 19 17 16
f 22 21 20
f 5 4 6
f 26 24 23
f 25 42 43
f 42 44 45
f 46 47 48
f 47 49 50
f 49 51 52
f 51 53 54
f 55 56 54
f 57 58 56
f 57 59 60
f 59 61 62
f 63 64 65
f 64 66 67
f 31 28 27
f 30 68 69
f 70 71 72
f 70 73 74
f 33 32 35
f 75 76 36
f 77 38 76
f 12 37 10
f 41 40 39
f 21 19 18
f 9 8 23
f 45 43 42
f 78 79 80
f 79 81 82
f 83 84 82
f 83 85 86
f 50 48 47
f 54 52 51
f 56 55 57
f 62 60 59
f 87 88 62
f 63 89 88
f 67 65 64
f 66 90 91
f 69 31 30
f 68 92 93
f 94 72 93
f 74 71 70
f 36 35 75
f 38 77 37
f 17 41 15
f 43 26 25
f 95 96 45
f 95 78 97
f 82 80 79
f 86 84 83
f 98 99 86
f 98 100 101
f 52 50 49
f 60 58 57
f 88 87 63
f 91 67 66
f 93 69 68
f 72 94 70
f 102 103 74
f 104 105 103
f 106 107 105
f 106 108 109
f 110 111 109
f 110 112 34
f 76 75 77
f 3 22 1
f 97 96 95
f 82 81 83
f 101 99 98
f 100 46 113
f 54 53 55
f 65 89 63
f 114 115 91
f 116 29 115
f 93 92 94
f 103 102 104
f 109 107 106
f 34 111 110
f 14 13 39
f 80 97 78
f 113 101 100
f 62 61 87
f 115 114 116
f 74 73 102
f 109 108 110
f 45 44 95
f 48 113 46
f 29 116 27
f 34 112 32
f 91 90 114
f 86 85 98
f 105 104 106
f 117 118 119
f 120 117 121
f 122 120 123
f 124 122 125
f 126 124 127
f 128 126 129
f 130 128 131
f 132 130 133
f 134 132 135
f 136 134 137
f 138 136 139
f 140 138 141
f 142 140 143
f 144 142 145
f 146 144 147
f 148 146 149
f 150 148 151
f 152 150 153
f 154 152 155
f 156 154 157
f 158 156 159
f 160 158 161
f 162 160 163
f 164 162 165
f 166 164 167
f 168 166 169
f 170 168 171
f 172 170 173
f 174 172 175
f 176 174 177
f 178 176 179
f 180 178 181
f 182 180 183
f 184 182 185
f 186 184 187
f 188 186 189
f 190 188 191
f 192 190 193
f 194 192 195
f 196 194 197
f 198 196 199
f 200 198 201
f 202 200 203
f 204 202 205
f 206 204 207
f 208 206 209
f 210 208 211
f 212 210 213
f 214 212 215
f 216 214 217
f 218 216 219
f 220 218 221
f 222 220 223
f 224 222 225
f 226 224 227
f 228 226 229
f 230 228 231
f 118 230 232
f 232 119 118
f 231 232 230
f 229 231 228
f 227 229 226
f 225 227 224
f 223 225 222
f 221 223 220
f 219 221 218
f 217 219 216
f 215 217 214
f 213 215 212
f 211 213 210
f 209 211 208
f 207 209 206
f 205 207 204
f 203 205 202
f 201 203 200
f 199 201 198
f 197 199 196
f 195 197 194
f 193 195 192
f 191 193 190
f 189 191 188
f 187 189 186
f 185 187 184
f 183 185 182
f 181 183 180
f 179 181 178
f 177 179 176
f 175 177 174
f 173 175 172
f 171 173 170
f 169 171 168
f 167 169 166
f 165 167 164
f 163 165 162
f 161 163 160
f 159 161 158
f 157 159 156
f 155 157 154
f 153 155 152
f 151 153 150
f 149 151 148
f 147 149 146
f 145 147 144
f 143 145 142
f 141 143 140
f 139 141 138
f 137 139 136
f 135 137 134
f 133 135 132
f 131 133 130
f 129 131 128
f 127 129 126
f 125 127 124
f 123 125 122
f 121 123 120
f 119 121 117
f 233 234 235
f 236 237 234
f 238 239 240
f 238 241 242
f 243 244 245
f 246 247 244
f 248 249 250
f 251 252 249
f 253 254 255
f 253 256 257
f 234 233 236
f 258 259 237
f 260 261 262
f 260 263 264
f 265 240 266
f 242 239 238
f 267 245 268
f 244 243 246
f 269 270 247
f 269 271 272
f 273 274 272
f 273 275 276
f 277 278 276
f 277 279 280
f 281 282 283
f 281 284 285
f 286 287 285
f 288 250 287
f 249 248 251
f 251 289 290
f 257 254 253
f 256 291 292
f 293 294 295
f 293 296 235
f 237 236 258
f 258 297 262
f 264 261 260
f 263 298 299
f 300 266 299
f 240 265 238
f 245 267 243
f 272 270 269
f 276 274 273
f 280 278 277
f 301 302 280
f 301 303 304
f 305 306 304
f 305 307 308
f 285 282 281
f 287 286 288
f 290 252 251
f 289 309 255
f 292 257 256
f 291 310 311
f 310 312 313
f 312 314 315
f 316 317 315
f 316 318 319
f 235 294 293
f 262 259 258
f 299 264 263
f 266 300 265
f 247 246 269
f 276 275 277
f 304 302 301
f 308 306 305
f 320 321 322
f 320 323 324
f 325 326 327
f 326 328 329
f 330 331 329
f 330 332 283
f 285 284 286
f 255 290 289
f 311 292 291
f 315 313 312
f 319 317 316
f 318 333 334
f 335 336 337
f 336 338 339
f 235 296 233
f 299 298 300
f 340 341 242
f 340 342 268
f 272 271 273
f 304 303 305
f 343 322 308
f 324 321 320
f 329 327 326
f 283 331 330
f 250 288 248
f 313 311 310
f 334 319 318
f 333 335 344
f 339 337 336
f 338 345 295
f 262 297 260
f 268 341 340
f 280 279 301
f 322 343 320
f 329 328 330
f 255 309 253
f 344 334 333
f 295 339 338
f 242 241 340
f 308 307 343
f 346 347 324
f 346 325 348
f 283 332 281
f 337 344 335
f 268 342 267
f 348 347 346
f 315 314 316
f 324 323 346
f 295 345 293
f 327 348 325
f 349 350 351
f 352 351 353
f 354 353 355
f 356 355 357
f 358 357 359
f 360 359 361
f 362 361 363
f 364 363 365
f 366 365 367
f 368 367 369
f 370 369 371
f 372 371 373
f 374 373 375
f 376 375 377
f 378 377 379
f 380 379 381
f 382 381 383
f 384 383 385
f 386 385 387
f 388 387 389
f 390 389 391
f 392 391 393
f 394 393 395
f 396 395 397
f 398 397 399
f 400 399 401
f 402 401 403
f 404 403 405
f 406 405 407
f 408 407 409
f 410 409 411
f 412 411 413
f 414 413 415
f 416 415 417
f 418 417 419
f 420 419 421
f 422 421 423
f 424 423 425
f 426 425 427
f 428 427 429
f 430 429 431
f 432 431 433
f 434 433 435
f 436 435 437
f 438 437 439
f 440 439 441
f 442 441 443
f 444 443 445
f 446 445 447
f 448 447 449
f 450 449 451
f 452 451 453
f 454 453 455
f 456 455 457
f 458 457 459
f 460 459 461
f 462 461 463
f 464 463 350
f 350 349 464
f 463 464 462
f 461 462 460
f 459 460 458
f 457 458 456
f 455 456 454
f 453 454 452
f 451 452 450
f 449 450 448
f 447 448 446
f 445 446 444
f 443 444 442
f 441 442 440
f 439 440 438
f 437 438 436
f 435 436 434
f 433 434 432
f 431 432 430
f 429 430 428
f 427 428 426
f 425 426 424
f 423 424 422
f 421 422 420
f 419 420 418
f 417 418 416
f 415 416 414
f 413 414 412
f 411 412 410
f 409 410 408
f 407 408 406
f 405 406 404
f 403 404 402
f 401 402 400
f 399 400 398
f 397 398 396
f 395 396 394
f 393 394 392
f 391 392 390
f 389 390 388
f 387 388 386
f 385 386 384
f 383 384 382
f 381 382 380
f 379 380 378
f 377 378 376
f 375 376 374
f 373 374 372
f 371 372 370
f 369 370 368
f 367 368 366
f 365 366 364
f 363 364 362
f 361 362 360
f 359 360 358
f 357 358 356
f 355 356 354
f 353 354 352
f 351 352 349
f 465 466 467
f 465 468 469
f 470 471 472
f 473 474 471
f 469 466 465
f 468 475 476
f 477 478 479
f 477 480 481
f 480 482 483
f 482 484 485
f 486 487 488
f 487 489 490
f 491 492 493
f 491 494 495
f 496 497 498
f 496 499 500
f 501 502 500
f 501 503 504
f 505 506 507
f 505 508 509
f 471 470 473
f 510 511 474
f 512 513 511
f 512 514 515
f 516 517 518
f 516 519 467
f 476 469 468
f 520 479 476
f 481 478 477
f 485 483 482
f 521 486 522
f 490 488 487
f 523 524 525
f 523 526 527
f 526 528 529
f 530 531 529
f 532 533 531
f 532 534 535
f 536 493 537
f 495 492 491
f 538 539 540
f 538 541 498
f 500 497 496
f 504 502 501
f 542 507 504
f 509 506 505
f 543 544 509
f 543 545 472
f 474 473 510
f 515 513 512
f 546 547 515
f 548 549 547
f 550 551 552
f 550 553 554
f 555 518 554
f 467 517 516
f 476 475 520
f 483 481 480
f 488 522 486
f 489 556 557
f 558 559 525
f 527 524 523
f 529 528 530
f 535 533 532
f 493 536 491
f 494 560 561
f 562 540 561
f 498 539 538
f 500 499 501
f 507 542 505
f 472 544 543
f 511 510 512
f 547 546 548
f 563 552 549
f 554 551 550
f 518 555 516
f 479 520 477
f 484 564 565
f 566 567 565
f 566 521 568
f 557 490 489
f 556 569 570
f 571 572 570
f 571 558 573
f 525 559 523
f 531 530 532
f 574 575 535
f 574 576 577
f 578 579 577
f 578 580 537
f 561 495 494
f 540 562 538
f 504 503 542
f 472 545 470
f 549 548 563
f 554 553 555
f 565 485 484
f 568 567 566
f 570 557 556
f 573 572 571
f 529 527 526
f 577 575 574
f 537 579 578
f 561 560 562
f 509 508 543
f 552 563 550
f 565 564 566
f 570 569 571
f 535 534 574
f 537 580 536
f 515 514 546
f 522 568 521
f 577 576 578
f 467 519 465
f 498 541 496
f 525 573 558
f 581 582 583
f 584 581 585
f 586 584 587
f 588 586 589
f 590 588 591
f 592 590 593
f 594 592 595
f 596 594 597
f 598 596 599
f 600 598 601
f 602 600 603
f 604 602 605
f 606 604 607
f 608 606 609
f 610 608 611
f 612 610 613
f 614 612 615
f 616 614 617
f 618 616 619
f 620 618 621
f 622 620 623
f 624 622 625
f 626 624 627
f 628 626 629
f 630 628 631
f 632 630 633
f 634 632 635
f 636 634 637
f 638 636 639
f 640 638 641
f 642 640 643
f 644 642 645
f 646 644 647
f 648 646 649
f 650 648 651
f 652 650 653
f 654 652 655
f 656 654 657
f 658 656 659
f 660 658 661
f 662 660 663
f 664 662 665
f 666 664 667
f 668 666 669
f 670 668 671
f 672 670 673
f 674 672 675
f 676 674 677
f 678 676 679
f 680 678 681
f 682 680 683
f 684 682 685
f 686 684 687
f 688 686 689
f 690 688 691
f 692 690 693
f 694 692 695
f 582 694 696
f 696 583 582
f 695 696 694
f 693 695 692
f 691 693 690
f 689 691 688
f 687 689 686
f 685 687 684
f 683 685 682
f 681 683 680
f 679 681 678
f 677 679 676
f 675 677 674
f 673 675 672
f 671 673 670
f 669 671 668
f 667 669 666
f 665 667 664
f 663 665 662
f 661 663 660
f 659 661 658
f 657 659 656
f 655 657 654
f 653 655 652
f 651 653 650
f 649 651 648
f 647 649 646
f 645 647 644
f 643 645 642
f 641 643 640
f 639 641 638
f 637 639 636
f 635 637 634
f 633 635 632
f 631 633 630
f 629 631 628
f 627 629 626
f 625 627 624
f 623 625 622
f 621 623 620
f 619 621 618
f 617 619 616
f 615 617 614
f 613 615 612
f 611 613 610
f 609 611 608
f 607 609 606
f 605 607 604
f 603 605 602
f 601 603 600
f 599 601 598
f 597 599 596
f 595 597 594
f 593 595 592
f 591 593 590
f 589 591 588
f 587 589 586
f 585 587 584
f 583 585 581
f 697 698 699
f 697 700 701
f 702 703 704
f 703 705 706
f 701 698 697
f 700 707 708
f 707 702 709
f 706 704 703
f 710 711 712
f 710 713 714
f 715 716 714
f 715 717 718
f 719 720 721
f 719 722 723
f 724 699 725
f 708 701 700
f 704 709 702
f 726 727 706
f 714 711 710
f 718 716 715
f 728 729 730
f 731 732 729
f 733 721 734
f 723 720 719
f 699 724 697
f 706 705 726
f 735 736 727
f 737 712 736
f 714 713 715
f 717 738 739
f 740 741 742
f 741 743 744
f 745 746 747
f 745 748 749
f 750 751 752
f 750 753 754
f 729 728 731
f 731 755 756
f 721 733 719
f 722 757 758
f 757 759 760
f 759 761 762
f 709 708 707
f 736 735 737
f 739 718 717
f 738 763 764
f 744 742 741
f 743 765 766
f 767 768 766
f 769 770 768
f 771 772 773
f 771 774 775
f 776 777 775
f 776 778 779
f 780 781 779
f 780 782 747
f 749 746 745
f 748 783 784
f 754 751 750
f 753 785 786
f 756 732 731
f 755 787 734
f 758 723 722
f 762 760 759
f 727 726 735
f 764 739 738
f 788 789 764
f 788 790 791
f 790 740 792
f 766 744 743
f 768 767 769
f 769 793 794
f 795 796 797
f 798 799 796
f 800 773 799
f 775 772 771
f 779 777 776
f 747 781 780
f 784 749 748
f 783 801 752
f 786 754 753
f 802 730 786
f 734 756 755
f 760 758 757
f 761 803 804
f 803 805 806
f 807 808 806
f 807 809 725
f 712 737 710
f 791 789 788
f 742 792 740
f 794 770 769
f 796 795 798
f 773 800 771
f 779 778 780
f 752 784 783
f 786 785 802
f 734 787 733
f 806 804 803
f 725 808 807
f 764 763 788
f 766 765 767
f 810 811 794
f 810 812 797
f 799 798 800
f 747 782 745
f 730 802 728
f 806 805 807
f 792 791 790
f 797 811 810
f 775 774 776
f 804 762 761
f 794 793 810
f 752 801 750
f 797 812 795
f 725 809 724
f 813 814 815
f 816 815 817
f 818 817 819
f 820 819 821
f 822 821 823
f 824 823 825
f 826 825 827
f 828 827 829
f 830 829 831
f 832 831 833
f 834 833 835
f 836 835 837
f 838 837 839
f 840 839 841
f 842 841 843
f 844 843 845
f 846 845 847
f 848 847 849
f 850 849 851
f 852 851 853
f 854 853 855
f 856 855 857
f 858 857 859
f 860 859 861
f 862 861 863
f 864 863 865
f 866 865 867
f 868 867 869
f 870 869 871
f 872 871 873
f 874 873 875
f 876 875 877
f 878 877 879
f 880 879 881
f 882 881 883
f 884 883 885
f 886 885 887
f 888 887 889
f 890 889 891
f 892 891 893
f 894 893 895
f 896 895 897
f 898 897 899
f 900 899 901
f 902 901 903
f 904 903 905
f 906 905 907
f 908 907 909
f 910 909 911
f 912 911 913
f 914 913 915
f 916 915 917
f 918 917 919
f 920 919 921
f 922 921 923
f 924 923 925
f 926 925 927
f 928 927 814
f 814 813 928
f 927 928 926
f 925 926 924
f 923 924 922
f 921 922 920
f 919 920 918
f 917 918 916
f 915 916 914
f 913 914 912
f 911 912 910
f 909 910 908
f 907 908 906
f 905 906 904
f 903 904 902
f 901 902 900
f 899 900 898
f 897 898 896
f 895 896 894
f 893 894 892
f 891 892 890
f 889 890 888
f 887 888 886
f 885 886 884
f 883 884 882
f 881 882 880
f 879 880 878
f 877 878 876
f 875 876 874
f 873 874 872
f 871 872 870
f 869 870 868
f 867 868 866
f 865 866 864
f 863 864 862
f 861 862 860
f 859 860 858
f 857 858 856
f 855 856 854
f 853 854 852
f 851 852 850
f 849 850 848
f 847 848 846
f 845 846 844
f 843 844 842
f 841 842 840
f 839 840 838
f 837 838 836
f 835 836 834
f 833 834 832
f 831 832 830
f 829 830 828
f 827 828 826
f 825 826 824
f 823 824 822
f 821 822 820
f 819 820 818
f 817 818 816
f 815 816 813
f 929 930 931
f 932 933 930
f 934 935 936
f 934 937 938
f 930 929 932
f 932 939 940
f 941 936 940
f 938 935 934
f 942 943 944
f 945 946 943
f 947 948 946
f 949 950 948
f 951 952 953
f 954 955 952
f 956 931 957
f 940 933 932
f 936 941 934
f 937 958 959
f 943 942 945
f 948 947 949
f 960 961 962
f 963 964 961
f 965 966 953
f 952 951 954
f 931 956 929
f 959 938 937
f 967 968 959
f 967 969 944
f 946 945 947
f 970 971 950
f 972 973 974
f 973 975 976
f 977 978 979
f 977 980 981
f 982 983 984
f 985 986 983
f 961 960 963
f 987 988 964
f 953 966 951
f 989 990 955
f 991 992 990
f 991 993 994
f 940 939 941
f 944 968 967
f 950 949 970
f 995 996 971
f 976 974 973
f 975 997 998
f 999 1000 998
f 1001 1002 1000
f 1003 1004 1005
f 1004 1006 1007
f 1008 1009 1007
f 1010 1011 1009
f 1012 1013 1011
f 1014 979 1013
f 981 978 977
f 980 1015 1016
f 983 982 985
f 1017 1018 986
f 964 963 987
f 987 965 1019
f 955 954 989
f 994 992 991
f 959 958 967
f 971 970 995
f 1020 1021 996
f 1020 1022 1023
f 1022 972 1024
f 998 976 975
f 1000 999 1001
f 1025 1026 1002
f 1027 1028 1029
f 1027 1030 1031
f 1003 1032 1031
f 1007 1005 1004
f 1009 1008 1010
f 1013 1012 1014
f 1016 981 980
f 1015 1033 984
f 986 985 1017
f 1017 1034 962
f 1019 988 987
f 990 989 991
f 993 1035 1036
f 1035 1037 1038
f 1037 1039 1040
f 1039 1041 957
f 944 969 942
f 1023 1021 1020
f 974 1024 972
f 1002 1001 1025
f 1031 1028 1027
f 1005 1032 1003
f 1011 1010 1012
f 984 1016 1015
f 962 1018 1017
f 953 1019 965
f 1038 1036 1035
f 957 1040 1039
f 996 995 1020
f 998 997 999
f 1042 1043 1026
f 1044 1029 1043
f 1031 1030 1003
f 979 1014 977
f 962 1034 960
f 1040 1038 1037
f 1024 1023 1022
f 1043 1042 1044
f 1007 1006 1008
f 1036 994 993
f 1026 1025 1042
f 984 1033 982
f 1029 1044 1027
f 957 1041 956
f 1045 1046 1047
f 1048 1047 1049
f 1050 1049 1051
f 1052 1051 1053
f 1054 1053 1055
f 1056 1055 1057
f 1058 1057 1059
f 1060 1059 1061
f 1062 1061 1063
f 1064 1063 1065
f 1066 1065 1067
f 1068 1067 1069
f 1070 1069 1071
f 1072 1071 1073
f 1074 1073 1075
f 1076 1075 1077
f 1078 1077 1079
f 1080 1079 1081
f 1082 1081 1083
f 1084 1083 1085
f 1086 1085 1087
f 1088 1087 1089
f 1090 1089 1091
f 1092 1091 1093
f 1094 1093 1095
f 1096 1095 1097
f 1098 1097 1099
f 1100 1099 1101
f 1102 1101 1103
f 1104 1103 1105
f 1106 1105 1107
f 1108 1107 1109
f 1110 1109 1111
f 1112 1111 1113
f 1114 1113 1115
f 1116 1115 1117
f 1118 1117 1119
f 1120 1119 1121
f 1122 1121 1123
f 1124 1123 1125
f 1126 1125 1127
f 1128 1127 1129
f 1130 1129 1131
f 1132 1131 1133
f 1134 1133 1135
f 1136 1135 1137
f 1138 1137 1139
f 1140 1139 1141
f 1142 1141 1143
f 1144 1143 1145
f 1146 1145 1147
f 1148 1147 1149
f 1150 1149 1151
f 1152 1151 1153
f 1154 1153 1155
f 1156 1155 1157
f 1158 1157 1159
f 1160 1159 1046
f 1046 1045 1160
f 1159 1160 1158
f 1157 1158 1156
f 1155 1156 1154
f 1153 1154 1152
f 1151 1152 1150
f 1149 1150 1148
f 1147 1148 1146
f 1145 1146 1144
f 1143 1144 1142
f 1141 1142 1140
f 1139 1140 1138
f 1137 1138 1136
f 1135 1136 1134
f 1133 1134 1132
f 1131 1132 1130
f 1129 1130 1128
f 1127 1128 1126
f 1125 1126 1124
f 1123 1124 1122
f 1121 1122 1120
f 1119 1120 1118
f 1117 1118 1116
f 1115 1116 1114
f 1113 1114 1112
f 1111 1112 1110
f 1109 1110 1108
f 1107 1108 1106
f 1105 1106 1104
f 1103 1104 1102
f 1101 1102 1100
f 1099 1100 1098
f 1097 1098 1096
f 1095 1096 1094
f 1093 1094 1092
f 1091 1092 1090
f 1089 1090 1088
f 1087 1088 1086
f 1085 1086 1084
f 1083 1084 1082
f 1081 1082 1080
f 1079 1080 1078
f 1077 1078 1076
f 1075 1076 1074
f 1073 1074 1072
f 1071 1072 1070
f 1069 1070 1068
f 1067 1068 1066
f 1065 1066 1064
f 1063 1064 1062
f 1061 1062 1060
f 1059 1060 1058
f 1057 1058 1056
f 1055 1056 1054
f 1053 1054 1052
f 1051 1052 1050
f 1049 1050 1048
f 1047 1048 1045
f 1161 1162 1163
f 1164 1161 1165
f 1166 1164 1167
f 1168 1166 1169
f 1170 1168 1171
f 1172 1170 1173
f 1174 1172 1175
f 1176 1174 1177
f 1178 1176 1179
f 1180 1178 1181
f 1182 1180 1183
f 1184 1182 1185
f 1186 1184 1187
f 1188 1186 1189
f 1190 1188 1191
f 1192 1190 1193
f 1194 1192 1195
f 1196 1194 1197
f 1198 1196 1199
f 1200 1198 1201
f 1202 1200 1203
f 1204 1202 1205
f 1206 1204 1207
f 1208 1206 1209
f 1210 1208 1211
f 1212 1210 1213
f 1214 1212 1215
f 1216 1214 1217
f 1218 1216 1219
f 1220 1218 1221
f 1222 1220 1223
f 1224 1222 1225
f 1226 1224 1227
f 1228 1226 1229
f 1230 1228 1231
f 1232 1230 1233
f 1234 1232 1235
f 1236 1234 1237
f 1238 1236 1239
f 1240 1238 1241
f 1242 1240 1243
f 1244 1242 1245
f 1246 1244 1247
f 1248 1246 1249
f 1250 1248 1251
f 1252 1250 1253
f 1254 1252 1255
f 1256 1254 1257
f 1258 1256 1259
f 1260 1258 1261
f 1262 1260 1263
f 1264 1262 1265
f 1266 1264 1267
f 1268 1266 1269
f 1270 1268 1271
f 1272 1270 1273
f 1274 1272 1275
f 1162 1274 1276
f 1276 1163 1162
f 1275 1276 1274
f 1273 1275 1272
f 1271 1273 1270
f 1269 1271 1268
f 1267 1269 1266
f 1265 1267 1264
f 1263 1265 1262
f 1261 1263 1260
f 1259 1261 1258
f 1257 1259 1256
f 1255 1257 1254
f 1253 1255 1252
f 1251 1253 1250
f 1249 1251 1248
f 1247 1249 1246
f 1245 1247 1244
f 1243 1245 1242
f 1241 1243 1240
f 1239 1241 1238
f 1237 1239 1236
f 1235 1237 1234
f 1233 1235 1232
f 1231 1233 1230
f 1229 1231 1228
f 1227 1229 1226
f 1225 1227 1224
f 1223 1225 1222
f 1221 1223 1220
f 1219 1221 1218
f 1217 1219 1216
f 1215 1217 1214
f 1213 1215 1212
f 1211 1213 1210
f 1209 1211 1208
f 1207 1209 1206
f 1205 1207 1204
f 1203 1205 1202
f 1201 1203 1200
f 1199 1201 1198
f 1197 1199 1196
f 1195 1197 1194
f 1193 1195 1192
f 1191 1193 1190
f 1189 1191 1188
f 1187 1189 1186
f 1185 1187 1184
f 1183 1185 1182
f 1181 1183 1180
f 1179 1181 1178
f 1177 1179 1176
f 1175 1177 1174
f 1173 1175 1172
f 1171 1173 1170
f 1169 1171 1168
f 1167 1169 1166
f 1165 1167 1164
f 1163 1165 1161
f 1277 1278 1279
f 1277 1280 1281
f 1282 1283 1284
f 1282 1285 1286
f 1281 1278 1277
f 1280 1287 1288
f 1289 1290 1291
f 1289 1292 1293
f 1292 1294 1295
f 1294 1296 1297
f 1298 1299 1300
f 1299 1301 1302
f 1303 1304 1305
f 1303 1306 1307
f 1308 1309 1310
f 1308 1311 1312
f 1313 1314 1312
f 1313 1315 1316
f 1317 1318 1319
f 1317 1320 1321
f 1286 1283 1282
f 1285 1322 1323
f 1324 1325 1323
f 1324 1326 1327
f 1328 1329 1330
f 1328 1331 1279
f 1288 1281 1280
f 1332 1291 1288
f 1293 1290 1289
f 1297 1295 1294
f 1333 1298 1334
f 1302 1300 1299
f 1335 1336 1337
f 1335 1338 1339
f 1338 1340 1341
f 1342 1343 1341
f 1344 1345 1343
f 1344 1346 1347
f 1348 1305 1349
f 1307 1304 1303
f 1350 1351 1352
f 1350 1353 1310
f 1312 1309 1308
f 1316 1314 1313
f 1354 1319 1316
f 1321 1318 1317
f 1355 1356 1321
f 1355 1357 1284
f 1323 1286 1285
f 1327 1325 1324
f 1358 1359 1327
f 1360 1361 1359
f 1362 1363 1364
f 1362 1365 1366
f 1367 1330 1366
f 1279 1329 1328
f 1288 1287 1332
f 1295 1293 1292
f 1300 1334 1298
f 1301 1368 1369
f 1370 1337 1371
f 1339 1336 1335
f 1341 1340 1342
f 1347 1345 1344
f 1305 1348 1303
f 1306 1372 1373
f 1374 1352 1373
f 1310 1351 1350
f 1312 1311 1313
f 1319 1354 1317
f 1284 1356 1355
f 1323 1322 1324
f 1359 1358 1360
f 1375 1364 1361
f 1366 1363 1362
f 1330 1367 1328
f 1291 1332 1289
f 1296 1376 1377
f 1378 1379 1377
f 1378 1333 1380
f 1369 1302 1301
f 1368 1381 1382
f 1383 1384 1382
f 1385 1371 1384
f 1337 1370 1335
f 1343 1342 1344
f 1386 1387 1347
f 1386 1388 1389
f 1390 1391 1389
f 1390 1392 1349
f 1373 1307 1306
f 1352 1374 1350
f 1316 1315 1354
f 1284 1357 1282
f 1361 1360 1375
f 1366 1365 1367
f 1377 1297 1296
f 1380 1379 1378
f 1382 1369 1368
f 1384 1383 1385
f 1341 1339 1338
f 1389 1387 1386
f 1349 1391 1390
f 1373 1372 1374
f 1321 1320 1355
f 1364 1375 1362
f 1377 1376 1378
f 1382 1381 1383
f 1347 1346 1386
f 1349 1392 1348
f 1327 1326 1358
f 1334 1380 1333
f 1389 1388 1390
f 1279 1331 1277
f 1310 1353 1308
f 1371 1385 1370
