v 0.0206520651 0.0490526706 0.262017667
v 0.0206494033 0.0491977036 0.262035698
v 0.0350067541 0.0520991012 0.240834311
v 0.0206415914 0.0489093401 0.261990964
v 0.0350094177 0.0519540682 0.240816265
v 0.0206181034 0.0487693883 0.261955887
v 0.0349989422 0.0518107377 0.240789562
v 0.0205818769 0.0486344583 0.261912912
v 0.0349754542 0.051670786 0.2407545
v 0.0205333363 0.0485061333 0.261862457
v 0.0349392295 0.051535856 0.240711495
v 0.0204730518 0.0483859144 0.261805207
v 0.034890689 0.0514075309 0.24066107
v 0.0204017293 0.0482752137 0.261741757
v 0.0348304063 0.0512873121 0.24060379
v 0.020320205 0.0481753275 0.261672884
v 0.0347590819 0.0511766113 0.240540341
v 0.0202294365 0.0480874293 0.261599362
v 0.0346775576 0.0510767251 0.240471467
v 0.0201304853 0.0480125472 0.261522114
v 0.0345867909 0.0509888269 0.240397975
v 0.020024512 0.0479515605 0.261442006
v 0.0344878398 0.0509139448 0.240320712
v 0.0199127607 0.0479051843 0.26135999
v 0.0343818665 0.0508529581 0.240240604
v 0.019796541 0.0478739589 0.26127702
v 0.0342701152 0.0508065782 0.240158588
v 0.0196772125 0.0478582568 0.26119405
v 0.0341538936 0.0507753566 0.240075603
v 0.0195561796 0.0478582568 0.261112094
v 0.0340345651 0.0507596545 0.239992648
v 0.0194348563 0.0478739589 0.261032075
v 0.0339135341 0.0507596545 0.239910692
v 0.0193146691 0.0479051843 0.260954976
v 0.0337922089 0.0507753566 0.239830673
v 0.0191970244 0.0479515605 0.260881633
v 0.0336720236 0.0508065782 0.239753559
v 0.0190833025 0.0480125472 0.260812968
v 0.0335543789 0.0508529581 0.239680246
v 0.0189748351 0.0480874293 0.260749757
v 0.0334406532 0.0509139448 0.239611581
v 0.0188728962 0.0481753275 0.260692775
v 0.0333321877 0.0509888269 0.23954837
v 0.0187786799 0.0482752137 0.260642648
v 0.0332302488 0.0510767251 0.239491373
v 0.0186932907 0.0483859144 0.260599971
v 0.0331360325 0.0511766113 0.239441231
v 0.0186177287 0.0485061333 0.260565251
v 0.0330506451 0.0512873121 0.239398554
v 0.0185528826 0.0486344583 0.260538876
v 0.0329750814 0.0514075309 0.239363834
v 0.0184995104 0.0487693883 0.260521203
v 0.0329102352 0.051535856 0.239337489
v 0.0184582379 0.0489093401 0.260512412
v 0.032856863 0.051670786 0.239319816
v 0.0184295513 0.0490526706 0.26051259
v 0.0328155905 0.0518107377 0.23931101
v 0.018413784 0.0491977036 0.26052177
v 0.032786902 0.0519540682 0.239311203
v 0.0184111204 0.0493427366 0.26053983
v 0.0327711366 0.0520991012 0.239320368
v 0.0184215959 0.0494860709 0.260566533
v 0.032768473 0.0522441342 0.239338413
v 0.0184450839 0.0496260189 0.26060158
v 0.0327789485 0.0523874648 0.239365131
v 0.0184813105 0.0497609489 0.260644585
v 0.0328024365 0.0525274165 0.239400178
v 0.0185298491 0.0498892777 0.26069501
v 0.0328386612 0.0526623465 0.239443183
v 0.0185901336 0.0500094965 0.26075229
v 0.0328872018 0.0527906716 0.239493608
v 0.0186614562 0.0501201935 0.26081574
v 0.0329474881 0.0529108904 0.239550889
v 0.0187429804 0.0502200797 0.260884613
v 0.0330188088 0.0530215912 0.239614338
v 0.0188337509 0.0503079779 0.260958105
v 0.0331003331 0.0531214774 0.239683211
v 0.018932702 0.05038286 0.261035353
v 0.0331911035 0.0532093756 0.239756703
v 0.0190386735 0.0504438467 0.261115491
v 0.0332900546 0.0532842577 0.239833966
v 0.0191504247 0.0504902266 0.261197507
v 0.033396028 0.0533452444 0.239914075
v 0.0192666464 0.0505214483 0.261280477
v 0.0335077792 0.0533916242 0.239996105
v 0.019385973 0.0505371541 0.261363447
v 0.0336239971 0.0534228459 0.240079075
v 0.0195070058 0.0505371541 0.261445403
v 0.0337433256 0.053438548 0.24016203
v 0.0196283292 0.0505214483 0.261525393
v 0.0338643603 0.053438548 0.240243986
v 0.0197485164 0.0504902266 0.261602521
v 0.0339856818 0.0534228459 0.240324005
v 0.019866161 0.0504438467 0.261675835
v 0.0341058709 0.0533916242 0.240401119
v 0.0199798848 0.05038286 0.261744499
v 0.0342235155 0.0533452444 0.240474448
v 0.0200883504 0.0503079779 0.26180771
v 0.0343372375 0.0532842577 0.240543112
v 0.0201902892 0.0502200797 0.261864722
v 0.034445703 0.0532093756 0.240606308
v 0.0202845056 0.0501201935 0.261914849
v 0.0345476419 0.0531214774 0.24066332
v 0.0203698948 0.0500094965 0.261957526
v 0.0346418582 0.0530215912 0.240713447
v 0.0204454567 0.0498892777 0.261992246
v 0.0347272493 0.0529108904 0.240756124
v 0.0205103029 0.0497609489 0.262018591
v 0.0348028094 0.0527906716 0.240790844
v 0.0205636751 0.0496260189 0.262036264
v 0.0348676555 0.0526623465 0.240817189
v 0.0206049476 0.0494860709 0.262045056
v 0.0349210277 0.0525274165 0.240834877
v 0.020633636 0.0493427366 0.262044877
v 0.0349623002 0.0523874648 0.240843669
v 0.0349909887 0.0522441342 0.240843475
v 0.0196063519 0.0467155948 0.260989696
v 0.0198302269 0.0467193834 0.261141807
v 0.0196772125 0.0478582568 0.26119405
v 0.0190125871 0.0516431816 0.26126194
v 0.0336231738 0.0536320955 0.271428257
v 0.0337393954 0.0536633208 0.271511227
v 0.0193816014 0.0467409082 0.260840952
v 0.0195561796 0.0478582568 0.261112094
v 0.019796541 0.0478739589 0.26127702
v 0.0496731177 0.0573972017 0.282812327
v 0.0494826436 0.0575569421 0.282705218
v 0.0490338504 0.0565917231 0.28226921
v 0.0492803752 0.0576923527 0.282586783
v 0.0489253812 0.0566666052 0.282205999
v 0.0486270823 0.0579382442 0.282178015
v 0.0484023318 0.0579635575 0.282029271
v 0.048452504 0.0568208955 0.281906903
v 0.0481784567 0.0579597689 0.28187716
v 0.0483314693 0.0568208955 0.281824917
v 0.0473670922 0.0557698123 0.281028032
v 0.0329178311 0.0527678914 0.27083233
v 0.0329540595 0.0529028215 0.270875335
v 0.0328838713 0.0524846092 0.27077058
v 0.0328943431 0.0526279397 0.270797282
v 0.0328865312 0.0523395762 0.270752519
v 0.019385973 0.0505371541 0.261363447
v 0.0187982991 0.0515816659 0.261108398
v 0.0191504247 0.0504902266 0.261197507
v 0.0185926072 0.0514921993 0.260956883
v 0.0190386735 0.0504438467 0.261115491
v 0.0176635701 0.0504482873 0.260184884
v 0.017576592 0.0502088927 0.260093212
v 0.0184813105 0.0497609489 0.260644585
v 0.0175125357 0.0499576479 0.260015458
v 0.0184450839 0.0496260189 0.26060158
v 0.0174721498 0.0496974885 0.259952515
v 0.0184215959 0.0494860709 0.260566533
v 0.0174559075 0.049431473 0.2599051
v 0.0184111204 0.0493427366 0.26053983
v 0.0202294365 0.0480874293 0.261599362
v 0.0201304853 0.0480125472 0.261522114
v 0.0490686931 0.0578018427 0.282458395
v 0.0488116592 0.0567275919 0.282137334
v 0.0488500744 0.0578841269 0.282321632
v 0.0485738255 0.0568051934 0.281986892
v 0.0473566204 0.055626478 0.2810013
v 0.0338587202 0.0536790229 0.271594167
v 0.0334054492 0.0535247326 0.271266103
v 0.0335114226 0.0535857193 0.271346211
v 0.0332157277 0.0533619523 0.271115363
v 0.0333064981 0.0534498505 0.271188855
v 0.0192666464 0.0505214483 0.261280477
v 0.0199127607 0.0479051843 0.26135999
v 0.020024512 0.0479515605 0.261442006
v 0.049958121 0.0536109954 0.282487214
v 0.0501067303 0.0537987016 0.282613516
v 0.0493472256 0.0545589551 0.282203227
v 0.0502362363 0.054006137 0.282729626
v 0.04941855 0.0546696559 0.282266676
v 0.0486940145 0.056773968 0.282064021
v 0.0479580835 0.057926923 0.28172344
v 0.0482121445 0.0568051934 0.281741977
v 0.0478781983 0.0566666052 0.281496853
v 0.0479841717 0.0567275919 0.281576961
v 0.0475356318 0.056293238 0.28121379
v 0.0476069562 0.0564039387 0.281277239
v 0.0474753492 0.0561730191 0.28115651
v 0.0473592803 0.0554814488 0.280983269
v 0.0330628827 0.0531513654 0.27098304
v 0.0331342071 0.0532620661 0.271046489
v 0.0174640026 0.0491627157 0.259873807
v 0.018413784 0.0491977036 0.26052177
v 0.0174963381 0.0488943681 0.259858966
v 0.017552536 0.0486295782 0.259860814
v 0.0184582379 0.0489093401 0.260512412
v 0.017631935 0.0483714491 0.259879231
v 0.0184995104 0.0487693883 0.260521203
v 0.0177336056 0.0481230058 0.2599141
v 0.0178563576 0.0478871614 0.259964943
v 0.0186177287 0.0485061333 0.260565251
v 0.0179987494 0.0476666838 0.260031193
v 0.0186932907 0.0483859144 0.260599971
v 0.0189399906 0.0468773097 0.260560572
v 0.0191586092 0.0467950255 0.260697365
v 0.0193146691 0.0479051843 0.260954976
v 0.0194348563 0.0478739589 0.261032075
v 0.0204017293 0.0482752137 0.261741757
v 0.020320205 0.0481753275 0.261672884
v 0.0489960983 0.0530359708 0.281757027
v 0.0487420373 0.0541577041 0.28173849
v 0.0486227125 0.0541419983 0.28165555
v 0.0492103845 0.0530974865 0.281910568
v 0.0488582589 0.0541889258 0.281821489
v 0.0494160764 0.0531869531 0.282062113
v 0.0489700101 0.0542353019 0.281903505
v 0.0497921482 0.05344522 0.28235212
v 0.049265705 0.0544590726 0.282134354
v 0.0498495735 0.0572149977 0.28290689
v 0.0491357893 0.0565038249 0.282326221
v 0.0480959229 0.056773968 0.281659007
v 0.0473905802 0.055909764 0.28106308
v 0.0474268086 0.056044694 0.281106085
v 0.0330026001 0.0530311465 0.27092576
v 0.0329023004 0.0521945432 0.27074334
v 0.0183979254 0.0513758324 0.260809124
v 0.018932702 0.05038286 0.261035353
v 0.0182165354 0.0512339287 0.260666847
v 0.0188337509 0.0503079779 0.260958105
v 0.0180505607 0.0510681532 0.260531783
v 0.0179019514 0.0508804508 0.260405451
v 0.0186614562 0.0501201935 0.26081574
v 0.0177724492 0.0506730154 0.260289371
v 0.0185901336 0.0500094965 0.26075229
v 0.0185298491 0.0498892777 0.26069501
v 0.0184295513 0.0490526706 0.26051259
v 0.0185528826 0.0486344583 0.260538876
v 0.018159112 0.0474641547 0.260112077
v 0.0187786799 0.0482752137 0.260642648
v 0.0183355659 0.0472819507 0.26020664
v 0.0188728962 0.0481753275 0.260692775
v 0.0185260419 0.0471222065 0.260313779
v 0.0187283084 0.0469867997 0.260432214
v 0.0190833025 0.0480125472 0.260812968
v 0.0191970244 0.0479515605 0.260881633
v 0.0351063833 0.0524846092 0.272275627
v 0.0474450067 0.0550531298 0.280982703
v 0.0474037379 0.0551930815 0.280973911
v 0.0351221524 0.0523395762 0.272266448
v 0.0481425226 0.0542353019 0.281343132
v 0.0485016778 0.0541419983 0.281573594
v 0.0496107601 0.05330332 0.282209873
v 0.0490759835 0.0542962886 0.281983614
v 0.0491749346 0.0543711707 0.282060862
v 0.0504961498 0.0547215044 0.283003509
v 0.0505365357 0.0549816638 0.283066481
v 0.0495870896 0.0551930815 0.282452464
v 0.0505527742 0.0552476794 0.283113867
v 0.0495975614 0.0553364158 0.282479167
v 0.0476884767 0.0565038249 0.281346112
v 0.0477792472 0.0565917231 0.281419605
v 0.0329309888 0.0520512126 0.270743161
v 0.0330256298 0.0517763309 0.270769626
v 0.0329722576 0.0519112609 0.270751953
v 0.0187429804 0.0502200797 0.260884613
v 0.0189748351 0.0480874293 0.260749757
v 0.0474983789 0.0549181998 0.281000376
v 0.0482601672 0.0541889258 0.281416446
v 0.0483803563 0.0541577041 0.281493574
v 0.0503451154 0.0542308651 0.282834113
v 0.0504320934 0.054470256 0.282925755
v 0.0495273732 0.0549181998 0.282374382
v 0.0495636016 0.0550531298 0.282417387
v 0.0505446792 0.0555164367 0.283145159
v 0.0495949015 0.0554814488 0.282497197
v 0.0343855098 0.0510470532 0.271590739
v 0.0342692882 0.0510158315 0.27150777
v 0.020633636 0.0493427366 0.262044877
v 0.0331660397 0.051527787 0.270830721
v 0.0330904797 0.0516480021 0.270796001
v 0.0504561476 0.0560495742 0.283158183
v 0.0503767505 0.0563077033 0.283139735
v 0.0495091751 0.055909764 0.282497764
v 0.0502750762 0.0565561466 0.283104897
v 0.0494558029 0.056044694 0.282480091
v 0.0501523279 0.056791991 0.283054024
v 0.0500099361 0.0570124686 0.282987773
v 0.049315393 0.056293238 0.282419026
v 0.0492300056 0.0564039387 0.282376349
v 0.0205333363 0.0485061333 0.261862457
v 0.0204730518 0.0483859144 0.261805207
v 0.035036426 0.0527678914 0.272267014
v 0.0350776948 0.0526279397 0.272275805
v 0.0342212655 0.0536320955 0.271833271
v 0.0343389101 0.0535857193 0.271906585
v 0.0339797549 0.0536790229 0.271676153
v 0.0341010764 0.0536633208 0.271756142
v 0.0200506002 0.0467522293 0.261295557
v 0.0205818769 0.0486344583 0.261912912
v 0.0206181034 0.0487693883 0.261955887
v 0.0206415914 0.0489093401 0.261990964
v 0.0332514271 0.0514170863 0.270873368
v 0.049390953 0.0561730191 0.282453746
v 0.0349182039 0.0530311465 0.272222996
v 0.0349830538 0.0529028215 0.272249341
v 0.0477241762 0.0545589551 0.281104118
v 0.0476387888 0.0546696559 0.281061441
v 0.0347572565 0.0532620661 0.272145599
v 0.0348426439 0.0531513654 0.272188276
v 0.0345611013 0.0534498505 0.27203846
v 0.0346630402 0.0533619523 0.272095472
v 0.0344526321 0.0535247326 0.271975249
v 0.0494788326 0.0547898747 0.282323956
v 0.0206520651 0.0490526706 0.262017667
v 0.034792956 0.0513172001 0.271903604
v 0.0347021855 0.0512293018 0.271830112
v 0.0205636751 0.0496260189 0.262036264
v 0.0206049476 0.0494860709 0.262045056
v 0.0206494033 0.0491977036 0.262035698
v 0.0340289287 0.0510001257 0.271342844
v 0.0339076072 0.0510158315 0.271262825
v 0.0505123436 0.0557847843 0.283160001
v 0.0495791323 0.055626478 0.282506377
v 0.0495504439 0.0557698123 0.282506555
v 0.0475632288 0.0547898747 0.281026751
v 0.0480288006 0.0542962886 0.281274468
v 0.0341499634 0.0510001257 0.2714248
v 0.0346032344 0.0511544198 0.271752864
v 0.0350908525 0.0519112609 0.272186637
v 0.0350546241 0.0517763309 0.272143662
v 0.0351248123 0.0521945432 0.272248417
v 0.0351143405 0.0520512126 0.272221714
v 0.0334475823 0.0512293018 0.270980507
v 0.0333456434 0.0513172001 0.270923525
v 0.0473750494 0.0553364158 0.28097409
v 0.0479203314 0.0543711707 0.281211257
v 0.0478183925 0.0544590726 0.281154275
v 0.034497261 0.0510934331 0.271672755
v 0.0204454567 0.0498892777 0.261992246
v 0.0205103029 0.0497609489 0.262018591
v 0.0336697735 0.0510934331 0.271112382
v 0.0335560516 0.0511544198 0.271043718
v 0.0337874182 0.0510470532 0.271185696
v 0.0195070058 0.0505371541 0.261445403
v 0.0196283292 0.0505214483 0.261525393
v 0.0349458009 0.051527787 0.272035956
v 0.0348744765 0.0514170863 0.271972507
v 0.0350060835 0.0516480021 0.272093207
v 0.0202845056 0.0501201935 0.261914849
v 0.0203698948 0.0500094965 0.261957526
v 0.0200883504 0.0503079779 0.26180771
v 0.0201902892 0.0502200797 0.261864722
v 0.019866161 0.0504438467 0.261675835
v 0.0199798848 0.05038286 0.261744499
v 0.0197485164 0.0504902266 0.261602521
v 0.0344079509 0.049653627 0.24009414
v 0.0486266427 0.0539172292 0.250306338
v 0.0487428643 0.0539484508 0.250389338
v 0.0346775576 0.0510767251 0.240471467
v 0.0349623002 0.0523874648 0.240843669
v 0.0472596511 0.0550959408 0.249541953
v 0.0472883396 0.0549526066 0.249541759
v 0.0619205795 0.0576912723 0.259825349
v 0.0488546155 0.053994827 0.250471354
v 0.0347590819 0.0511766113 0.240540341
v 0.0625358075 0.0608611628 0.260675758
v 0.0626888201 0.0597222932 0.260623515
v 0.062569499 0.0597065873 0.260540575
v 0.0472438857 0.0552409738 0.249551117
v 0.0489605851 0.0540558174 0.250551462
v 0.0348304063 0.0512873121 0.24060379
v 0.0345867909 0.0509888269 0.240397975
v 0.0341875814 0.0496207811 0.23994042
v 0.0340345651 0.0507596545 0.239992648
v 0.0341538936 0.0507753566 0.240075603
v 0.0339637063 0.0496169925 0.239788294
v 0.0339135341 0.0507596545 0.239910692
v 0.033297345 0.0497787036 0.23935917
v 0.0335543789 0.0508529581 0.239680246
v 0.0336720236 0.0508065782 0.239753559
v 0.0330856591 0.0498881936 0.239230797
v 0.0334406532 0.0509139448 0.239611581
v 0.0325164646 0.0503655523 0.238910675
v 0.0331360325 0.0511766113 0.239441231
v 0.0332302488 0.0510767251 0.239491373
v 0.032356102 0.0505680814 0.238829792
v 0.0330506451 0.0512873121 0.239398554
v 0.0322137102 0.050788559 0.238763541
v 0.0329750814 0.0514075309 0.239363834
v 0.0320909582 0.0510244034 0.238712698
v 0.0329102352 0.051535856 0.239337489
v 0.0623154379 0.0608283207 0.260522038
v 0.0331556499 0.0544830598 0.239907011
v 0.0335077792 0.0533916242 0.239996105
v 0.033396028 0.0533452444 0.239914075
v 0.0333699398 0.0545445755 0.240060538
v 0.0336239971 0.0534228459 0.240079075
v 0.0339856818 0.0534228459 0.240324005
v 0.0338643603 0.053438548 0.240243986
v 0.0343372375 0.0532842577 0.240543112
v 0.0342235155 0.0533452444 0.240474448
v 0.0350067541 0.0520991012 0.240834311
v 0.0349909887 0.0522441342 0.240843475
v 0.0490595363 0.0541306995 0.25062871
v 0.0343818665 0.0508529581 0.240240604
v 0.0344878398 0.0509139448 0.240320712
v 0.0342701152 0.0508065782 0.240158588
v 0.0337389559 0.0496423058 0.23963955
v 0.0337922089 0.0507753566 0.239830673
v 0.0335159637 0.0496964194 0.239495948
v 0.0328833945 0.0500236042 0.239112362
v 0.0333321877 0.0509888269 0.23954837
v 0.0326929204 0.0501833484 0.239005238
v 0.0620458312 0.0594052188 0.260144711
v 0.0622355528 0.0595680028 0.260295451
v 0.0621366017 0.0594931208 0.260218203
v 0.0624532774 0.0596753657 0.260457605
v 0.0627596825 0.0608649515 0.260827869
v 0.0628098547 0.0597222932 0.260705501
v 0.0629844368 0.0608396418 0.260976613
v 0.06293118 0.0597065873 0.26078549
v 0.0632074252 0.0607855245 0.26112023
v 0.0630513653 0.0596753657 0.260862619
v 0.0634260476 0.0607032403 0.261256993
v 0.06316901 0.0596289895 0.260935932
v 0.0649101287 0.058149077 0.261912465
v 0.0639549196 0.0582378134 0.261277765
v 0.0639522523 0.0583828427 0.261295795
v 0.0648938864 0.0578830577 0.261865079
v 0.0639444441 0.0580944791 0.261251062
v 0.0639681146 0.0562047139 0.261008471
v 0.0634333342 0.0571976863 0.260782212
v 0.0635322854 0.0572725683 0.26085946
v 0.0637734309 0.0560883507 0.260860711
v 0.0633273646 0.0571366996 0.260702103
v 0.0635677353 0.0559988841 0.260709167
v 0.0632156134 0.0570903234 0.260620087
v 0.0633534491 0.0559373684 0.260555625
v 0.0630993918 0.057059098 0.260537088
v 0.0321298018 0.0535744131 0.239087969
v 0.0329474881 0.0529108904 0.239550889
v 0.0328872018 0.0527906716 0.239493608
v 0.0322593041 0.0537818484 0.239204049
v 0.0330188088 0.0530215912 0.239614338
v 0.0325738862 0.0541353263 0.23946546
v 0.0331911035 0.0532093756 0.239756703
v 0.0331003331 0.0531214774 0.239683211
v 0.0327552781 0.0542772301 0.239607707
v 0.0332900546 0.0532842577 0.239833966
v 0.0349754542 0.051670786 0.2407545
v 0.0478049368 0.0541306995 0.24977912
v 0.0479134023 0.0540558174 0.249842316
v 0.0473296121 0.0548126549 0.249550551
v 0.0337433256 0.053438548 0.24016203
v 0.0345476419 0.0531214774 0.24066332
v 0.034445703 0.0532093756 0.240606308
v 0.0350094177 0.0519540682 0.240816265
v 0.034890689 0.0514075309 0.24066107
v 0.0617139712 0.0585278757 0.259799898
v 0.0480967462 0.0565647185 0.250309825
v 0.0623415262 0.0596289895 0.260375559
v 0.0647341013 0.0592091009 0.261938334
v 0.0638665259 0.0588111617 0.261296362
v 0.0638131574 0.0589460917 0.261278689
v 0.0648135021 0.0589509718 0.261956781
v 0.0639078021 0.05867121 0.261305153
v 0.0649020374 0.0584178343 0.261943758
v 0.0639364868 0.0585278757 0.261304975
v 0.0648535043 0.0576229021 0.261802107
v 0.0639209524 0.0579545274 0.261215985
v 0.0647894442 0.0573716536 0.261724353
v 0.0638847277 0.0578195974 0.26117298
v 0.0619961396 0.0575710535 0.259860039
v 0.0617166348 0.0583828427 0.259781867
v 0.0484584309 0.0565647185 0.25055474
v 0.0483371094 0.0565804206 0.250474751
v 0.0491146073 0.0561634637 0.250944197
v 0.049020391 0.05626335 0.25089407
v 0.0318698883 0.0528590418 0.238814056
v 0.0328024365 0.0525274165 0.239400178
v 0.0327789485 0.0523874648 0.239365131
v 0.0319339447 0.0531102903 0.23889181
v 0.0328386612 0.0526623465 0.239443183
v 0.0320209228 0.0533496812 0.238983482
v 0.0329499617 0.0543935969 0.239755467
v 0.048264958 0.0539172292 0.250061423
v 0.0483862795 0.0539015234 0.250141442
v 0.0477029979 0.0542185977 0.249722108
v 0.0475233905 0.0544291809 0.249629304
v 0.0476087816 0.0543184802 0.249671981
v 0.0473829843 0.0546777286 0.249568239
v 0.0341058709 0.0533916242 0.240401119
v 0.0346418582 0.0530215912 0.240713447
v 0.0348028094 0.0527906716 0.240790844
v 0.0347272493 0.0529108904 0.240756124
v 0.0349989422 0.0518107377 0.240789562
v 0.0349392295 0.051535856 0.240711495
v 0.0319098867 0.0515309758 0.238659397
v 0.0328155905 0.0518107377 0.23931101
v 0.032856863 0.051670786 0.239319816
v 0.0318536907 0.0517957658 0.238657579
v 0.032786902 0.0519540682 0.239311203
v 0.0473114103 0.0558042191 0.249673933
v 0.0472751856 0.0556692891 0.249630928
v 0.0476638526 0.0563512482 0.249987453
v 0.0475730821 0.05626335 0.249913961
v 0.0478687771 0.056487117 0.250144809
v 0.0477628037 0.0564261302 0.250064701
v 0.0479805283 0.0565334931 0.250226855
v 0.0618326999 0.0590744168 0.259955108
v 0.0617841594 0.0589460917 0.259904683
v 0.061964307 0.0593053363 0.260075837
v 0.0618929863 0.0591946356 0.260012388
v 0.063637726 0.0605937503 0.261385381
v 0.0632827356 0.0595680028 0.261004597
v 0.0638399944 0.0604583398 0.261503816
v 0.0633912012 0.0594931208 0.261067808
v 0.0640304685 0.0602985956 0.261610925
v 0.06349314 0.0594052188 0.26112482
v 0.064206928 0.0601163916 0.261705488
v 0.0635873601 0.0593053363 0.261174947
v 0.0643672869 0.0599138662 0.261786371
v 0.0636727437 0.0591946356 0.261217624
v 0.0645096824 0.0596933849 0.261852622
v 0.0637483075 0.0590744168 0.261252344
v 0.0648697019 0.0586861782 0.261958599
v 0.062617518 0.0570903234 0.260215044
v 0.0627377108 0.057059098 0.260292172
v 0.0623861514 0.0571976863 0.260073066
v 0.0624998733 0.0571366996 0.26014173
v 0.0622776859 0.0572725683 0.260009855
v 0.0620815307 0.0574603528 0.259902716
v 0.04857862 0.0565334931 0.250631869
v 0.0488099866 0.0564261302 0.250773847
v 0.0486962646 0.056487117 0.250705183
v 0.0489184521 0.0563512482 0.250837058
v 0.0617610887 0.0580944791 0.259772509
v 0.0494637378 0.0553860068 0.251074225
v 0.0494350493 0.0555293374 0.251074404
v 0.0324079134 0.0539695509 0.239330366
v 0.0485073142 0.0539015234 0.250223398
v 0.0480271243 0.053994827 0.24991098
v 0.0481447726 0.0539484508 0.249984309
v 0.0474478304 0.0545493998 0.249594584
v 0.0349210277 0.0525274165 0.240834877
v 0.0348676555 0.0526623465 0.240817189
v 0.0491503067 0.0542185977 0.250702202
v 0.0319892876 0.051272843 0.238677844
v 0.0473599508 0.0559325442 0.249724358
v 0.0474915579 0.0561634637 0.249845088
v 0.0474202372 0.056052763 0.249781638
v 0.0646324307 0.0594575442 0.261903495
v 0.0644640848 0.0567000993 0.261412114
v 0.0637045801 0.0574603528 0.261001825
v 0.0637759045 0.0575710535 0.261065274
v 0.0643154755 0.0565123931 0.261285812
v 0.0636230558 0.0573604666 0.260932952
v 0.0629800633 0.0570433959 0.260454148
v 0.0628590286 0.0570433959 0.260372192
v 0.062175747 0.0573604666 0.259952873
v 0.0482160747 0.0565804206 0.250392765
v 0.0617324002 0.0582378134 0.259772688
v 0.0494482033 0.0548126549 0.250985235
v 0.0494716913 0.0549526066 0.251020312
v 0.0318132602 0.0523328707 0.238703698
v 0.032768473 0.0522441342 0.239338413
v 0.0327711366 0.0520991012 0.239320368
v 0.0318295024 0.0525988862 0.238751099
v 0.049363438 0.0545493998 0.250891805
v 0.0494119786 0.0546777286 0.25094226
v 0.0647024661 0.0571322627 0.261632711
v 0.0638361871 0.0576912723 0.261122555
v 0.0645935908 0.0569075309 0.261528224
v 0.0641494989 0.0563466176 0.261150718
v 0.0492755584 0.0559325442 0.251021594
v 0.0491999984 0.056052763 0.250986874
v 0.0493937768 0.0556692891 0.251065612
v 0.0618023612 0.0579545274 0.259781301
v 0.0494795032 0.0552409738 0.251065046
v 0.0494821668 0.0550959408 0.251047015
v 0.0493031554 0.0544291809 0.250834525
v 0.049231831 0.0543184802 0.250771105
v 0.0318213552 0.0520641133 0.238672405
v 0.0472516976 0.0555293374 0.249595866
v 0.0472412221 0.0553860068 0.249569163
v 0.0617479347 0.0588111617 0.259861678
v 0.0617244467 0.05867121 0.25982663
v 0.0493404046 0.0558042191 0.251047939
v 0.0618557334 0.0578195974 0.259798974
v 0.0344079509 0.049653627 0.24009414
v 0.0200506002 0.0467522293 0.261295557
v 0.0198302269 0.0467193834 0.261141807
v 0.0341875814 0.0496207811 0.23994042
v 0.0196063519 0.0467155948 0.260989696
v 0.0339637063 0.0496169925 0.239788294
v 0.0193816014 0.0467409082 0.260840952
v 0.0337389559 0.0496423058 0.23963955
v 0.0191586092 0.0467950255 0.260697365
v 0.0335159637 0.0496964194 0.239495948
v 0.0189399906 0.0468773097 0.260560572
v 0.033297345 0.0497787036 0.23935917
v 0.0187283084 0.0469867997 0.260432214
v 0.0330856591 0.0498881936 0.239230797
v 0.0185260419 0.0471222065 0.260313779
v 0.0328833945 0.0500236042 0.239112362
v 0.0183355659 0.0472819507 0.26020664
v 0.0326929204 0.0501833484 0.239005238
v 0.018159112 0.0474641547 0.260112077
v 0.0325164646 0.0503655523 0.238910675
v 0.0179987494 0.0476666838 0.260031193
v 0.032356102 0.0505680814 0.238829792
v 0.0178563576 0.0478871614 0.259964943
v 0.0322137102 0.050788559 0.238763541
v 0.0177336056 0.0481230058 0.2599141
v 0.0320909582 0.0510244034 0.238712698
v 0.017631935 0.0483714491 0.259879231
v 0.0319892876 0.051272843 0.238677844
v 0.017552536 0.0486295782 0.259860814
v 0.0319098867 0.0515309758 0.238659397
v 0.0174963381 0.0488943681 0.259858966
v 0.0318536907 0.0517957658 0.238657579
v 0.0174640026 0.0491627157 0.259873807
v 0.0318213552 0.0520641133 0.238672405
v 0.0174559075 0.049431473 0.2599051
v 0.0318132602 0.0523328707 0.238703698
v 0.0174721498 0.0496974885 0.259952515
v 0.0318295024 0.0525988862 0.238751099
v 0.0175125357 0.0499576479 0.260015458
v 0.0318698883 0.0528590418 0.238814056
v 0.017576592 0.0502088927 0.260093212
v 0.0319339447 0.0531102903 0.23889181
v 0.0176635701 0.0504482873 0.260184884
v 0.0320209228 0.0533496812 0.238983482
v 0.0177724492 0.0506730154 0.260289371
v 0.0321298018 0.0535744131 0.239087969
v 0.0179019514 0.0508804508 0.260405451
v 0.0322593041 0.0537818484 0.239204049
v 0.0180505607 0.0510681532 0.260531783
v 0.0324079134 0.0539695509 0.239330366
v 0.0182165354 0.0512339287 0.260666847
v 0.0325738862 0.0541353263 0.23946546
v 0.0183979254 0.0513758324 0.260809124
v 0.0327552781 0.0542772301 0.239607707
v 0.0185926072 0.0514921993 0.260956883
v 0.0329499617 0.0543935969 0.239755467
v 0.0187982991 0.0515816659 0.261108398
v 0.0331556499 0.0544830598 0.239907011
v 0.0190125871 0.0516431816 0.26126194
v 0.0333699398 0.0545445755 0.240060538
v 0.0623154379 0.0608283207 0.260522038
v 0.0479580835 0.057926923 0.28172344
v 0.0481784567 0.0579597689 0.28187716
v 0.0625358075 0.0608611628 0.260675758
v 0.0484023318 0.0579635575 0.282029271
v 0.0627596825 0.0608649515 0.260827869
v 0.0486270823 0.0579382442 0.282178015
v 0.0629844368 0.0608396418 0.260976613
v 0.0488500744 0.0578841269 0.282321632
v 0.0632074252 0.0607855245 0.26112023
v 0.0490686931 0.0578018427 0.282458395
v 0.0634260476 0.0607032403 0.261256993
v 0.0492803752 0.0576923527 0.282586783
v 0.063637726 0.0605937503 0.261385381
v 0.0494826436 0.0575569421 0.282705218
v 0.0638399944 0.0604583398 0.261503816
v 0.0496731177 0.0573972017 0.282812327
v 0.0640304685 0.0602985956 0.261610925
v 0.0498495735 0.0572149977 0.28290689
v 0.064206928 0.0601163916 0.261705488
v 0.0500099361 0.0570124686 0.282987773
v 0.0643672869 0.0599138662 0.261786371
v 0.0501523279 0.056791991 0.283054024
v 0.0645096824 0.0596933849 0.261852622
v 0.0502750762 0.0565561466 0.283104897
v 0.0646324307 0.0594575442 0.261903495
v 0.0503767505 0.0563077033 0.283139735
v 0.0647341013 0.0592091009 0.261938334
v 0.0504561476 0.0560495742 0.283158183
v 0.0648135021 0.0589509718 0.261956781
v 0.0505123436 0.0557847843 0.283160001
v 0.0648697019 0.0586861782 0.261958599
v 0.0505446792 0.0555164367 0.283145159
v 0.0649020374 0.0584178343 0.261943758
v 0.0505527742 0.0552476794 0.283113867
v 0.0649101287 0.058149077 0.261912465
v 0.0505365357 0.0549816638 0.283066481
v 0.0648938864 0.0578830577 0.261865079
v 0.0504961498 0.0547215044 0.283003509
v 0.0648535043 0.0576229021 0.261802107
v 0.0504320934 0.054470256 0.282925755
v 0.0647894442 0.0573716536 0.261724353
v 0.0503451154 0.0542308651 0.282834113
v 0.0647024661 0.0571322627 0.261632711
v 0.0502362363 0.054006137 0.282729626
v 0.0645935908 0.0569075309 0.261528224
v 0.0501067303 0.0537987016 0.282613516
v 0.0644640848 0.0567000993 0.261412114
v 0.049958121 0.0536109954 0.282487214
v 0.0643154755 0.0565123931 0.261285812
v 0.0497921482 0.05344522 0.28235212
v 0.0641494989 0.0563466176 0.261150718
v 0.0496107601 0.05330332 0.282209873
v 0.0639681146 0.0562047139 0.261008471
v 0.0494160764 0.0531869531 0.282062113
v 0.0637734309 0.0560883507 0.260860711
v 0.0492103845 0.0530974865 0.281910568
v 0.0635677353 0.0559988841 0.260709167
v 0.0489960983 0.0530359708 0.281757027
v 0.0633534491 0.0559373684 0.260555625
v 0.0351248123 0.0521945432 0.272248417
v 0.0351221524 0.0523395762 0.272266448
v 0.0494795032 0.0552409738 0.251065046
v 0.0351143405 0.0520512126 0.272221714
v 0.0494821668 0.0550959408 0.251047015
v 0.0350908525 0.0519112609 0.272186637
v 0.0494716913 0.0549526066 0.251020312
v 0.0350546241 0.0517763309 0.272143662
v 0.0494482033 0.0548126549 0.250985235
v 0.0350060835 0.0516480021 0.272093207
v 0.0494119786 0.0546777286 0.25094226
v 0.0349458009 0.051527787 0.272035956
v 0.049363438 0.0545493998 0.250891805
v 0.0348744765 0.0514170863 0.271972507
v 0.0493031554 0.0544291809 0.250834525
v 0.034792956 0.0513172001 0.271903604
v 0.049231831 0.0543184802 0.250771105
v 0.0347021855 0.0512293018 0.271830112
v 0.0491503067 0.0542185977 0.250702202
v 0.0346032344 0.0511544198 0.271752864
v 0.0490595363 0.0541306995 0.25062871
v 0.034497261 0.0510934331 0.271672755
v 0.0489605851 0.0540558174 0.250551462
v 0.0343855098 0.0510470532 0.271590739
v 0.0488546155 0.053994827 0.250471354
v 0.0342692882 0.0510158315 0.27150777
v 0.0487428643 0.0539484508 0.250389338
v 0.0341499634 0.0510001257 0.2714248
v 0.0486266427 0.0539172292 0.250306338
v 0.0340289287 0.0510001257 0.271342844
v 0.0485073142 0.0539015234 0.250223398
v 0.0339076072 0.0510158315 0.271262825
v 0.0483862795 0.0539015234 0.250141442
v 0.0337874182 0.0510470532 0.271185696
v 0.048264958 0.0539172292 0.250061423
v 0.0336697735 0.0510934331 0.271112382
v 0.0481447726 0.0539484508 0.249984309
v 0.0335560516 0.0511544198 0.271043718
v 0.0480271243 0.053994827 0.24991098
v 0.0334475823 0.0512293018 0.270980507
v 0.0479134023 0.0540558174 0.249842316
v 0.0333456434 0.0513172001 0.270923525
v 0.0478049368 0.0541306995 0.24977912
v 0.0332514271 0.0514170863 0.270873368
v 0.0477029979 0.0542185977 0.249722108
v 0.0331660397 0.051527787 0.270830721
v 0.0476087816 0.0543184802 0.249671981
v 0.0330904797 0.0516480021 0.270796001
v 0.0475233905 0.0544291809 0.249629304
v 0.0330256298 0.0517763309 0.270769626
v 0.0474478304 0.0545493998 0.249594584
v 0.0329722576 0.0519112609 0.270751953
v 0.0473829843 0.0546777286 0.249568239
v 0.0329309888 0.0520512126 0.270743161
v 0.0473296121 0.0548126549 0.249550551
v 0.0329023004 0.0521945432 0.27074334
v 0.0472883396 0.0549526066 0.249541759
v 0.0328865312 0.0523395762 0.270752519
v 0.0472596511 0.0550959408 0.249541953
v 0.0328838713 0.0524846092 0.27077058
v 0.0472438857 0.0552409738 0.249551117
v 0.0328943431 0.0526279397 0.270797282
v 0.0472412221 0.0553860068 0.249569163
v 0.0329178311 0.0527678914 0.27083233
v 0.0472516976 0.0555293374 0.249595866
v 0.0329540595 0.0529028215 0.270875335
v 0.0472751856 0.0556692891 0.249630928
v 0.0330026001 0.0530311465 0.27092576
v 0.0473114103 0.0558042191 0.249673933
v 0.0330628827 0.0531513654 0.27098304
v 0.0473599508 0.0559325442 0.249724358
v 0.0331342071 0.0532620661 0.271046489
v 0.0474202372 0.056052763 0.249781638
v 0.0332157277 0.0533619523 0.271115363
v 0.0474915579 0.0561634637 0.249845088
v 0.0333064981 0.0534498505 0.271188855
v 0.0475730821 0.05626335 0.249913961
v 0.0334054492 0.0535247326 0.271266103
v 0.0476638526 0.0563512482 0.249987453
v 0.0335114226 0.0535857193 0.271346211
v 0.0477628037 0.0564261302 0.250064701
v 0.0336231738 0.0536320955 0.271428257
v 0.0478687771 0.056487117 0.250144809
v 0.0337393954 0.0536633208 0.271511227
v 0.0479805283 0.0565334931 0.250226855
v 0.0338587202 0.0536790229 0.271594167
v 0.0480967462 0.0565647185 0.250309825
v 0.0339797549 0.0536790229 0.271676153
v 0.0482160747 0.0565804206 0.250392765
v 0.0341010764 0.0536633208 0.271756142
v 0.0483371094 0.0565804206 0.250474751
v 0.0342212655 0.0536320955 0.271833271
v 0.0484584309 0.0565647185 0.25055474
v 0.0343389101 0.0535857193 0.271906585
v 0.04857862 0.0565334931 0.250631869
v 0.0344526321 0.0535247326 0.271975249
v 0.0486962646 0.056487117 0.250705183
v 0.0345611013 0.0534498505 0.27203846
v 0.0488099866 0.0564261302 0.250773847
v 0.0346630402 0.0533619523 0.272095472
v 0.0489184521 0.0563512482 0.250837058
v 0.0347572565 0.0532620661 0.272145599
v 0.049020391 0.05626335 0.25089407
v 0.0348426439 0.0531513654 0.272188276
v 0.0491146073 0.0561634637 0.250944197
v 0.0349182039 0.0530311465 0.272222996
v 0.0491999984 0.056052763 0.250986874
v 0.0349830538 0.0529028215 0.272249341
v 0.0492755584 0.0559325442 0.251021594
v 0.035036426 0.0527678914 0.272267014
v 0.0493404046 0.0558042191 0.251047939
v 0.0350776948 0.0526279397 0.272275805
v 0.0493937768 0.0556692891 0.251065612
v 0.0351063833 0.0524846092 0.272275627
v 0.0494350493 0.0555293374 0.251074404
v 0.0494637378 0.0553860068 0.251074225
v 0.0495975614 0.0553364158 0.282479167
v 0.0495949015 0.0554814488 0.282497197
v 0.0639522523 0.0583828427 0.261295795
v 0.0495870896 0.0551930815 0.282452464
v 0.0639549196 0.0582378134 0.261277765
v 0.0495636016 0.0550531298 0.282417387
v 0.0639444441 0.0580944791 0.261251062
v 0.0495273732 0.0549181998 0.282374382
v 0.0639209524 0.0579545274 0.261215985
v 0.0494788326 0.0547898747 0.282323956
v 0.0638847277 0.0578195974 0.26117298
v 0.04941855 0.0546696559 0.282266676
v 0.0638361871 0.0576912723 0.261122555
v 0.0493472256 0.0545589551 0.282203227
v 0.0637759045 0.0575710535 0.261065274
v 0.049265705 0.0544590726 0.282134354
v 0.0637045801 0.0574603528 0.261001825
v 0.0491749346 0.0543711707 0.282060862
v 0.0636230558 0.0573604666 0.260932952
v 0.0490759835 0.0542962886 0.281983614
v 0.0635322854 0.0572725683 0.26085946
v 0.0489700101 0.0542353019 0.281903505
v 0.0634333342 0.0571976863 0.260782212
v 0.0488582589 0.0541889258 0.281821489
v 0.0633273646 0.0571366996 0.260702103
v 0.0487420373 0.0541577041 0.28173849
v 0.0632156134 0.0570903234 0.260620087
v 0.0486227125 0.0541419983 0.28165555
v 0.0630993918 0.057059098 0.260537088
v 0.0485016778 0.0541419983 0.281573594
v 0.0629800633 0.0570433959 0.260454148
v 0.0483803563 0.0541577041 0.281493574
v 0.0628590286 0.0570433959 0.260372192
v 0.0482601672 0.0541889258 0.281416446
v 0.0627377108 0.057059098 0.260292172
v 0.0481425226 0.0542353019 0.281343132
v 0.062617518 0.0570903234 0.260215044
v 0.0480288006 0.0542962886 0.281274468
v 0.0624998733 0.0571366996 0.26014173
v 0.0479203314 0.0543711707 0.281211257
v 0.0623861514 0.0571976863 0.260073066
v 0.0478183925 0.0544590726 0.281154275
v 0.0622776859 0.0572725683 0.260009855
v 0.0477241762 0.0545589551 0.281104118
v 0.062175747 0.0573604666 0.259952873
v 0.0476387888 0.0546696559 0.281061441
v 0.0620815307 0.0574603528 0.259902716
v 0.0475632288 0.0547898747 0.281026751
v 0.0619961396 0.0575710535 0.259860039
v 0.0474983789 0.0549181998 0.281000376
v 0.0619205795 0.0576912723 0.259825349
v 0.0474450067 0.0550531298 0.280982703
v 0.0618557334 0.0578195974 0.259798974
v 0.0474037379 0.0551930815 0.280973911
v 0.0618023612 0.0579545274 0.259781301
v 0.0473750494 0.0553364158 0.28097409
v 0.0617610887 0.0580944791 0.259772509
v 0.0473592803 0.0554814488 0.280983269
v 0.0617324002 0.0582378134 0.259772688
v 0.0473566204 0.055626478 0.2810013
v 0.0617166348 0.0583828427 0.259781867
v 0.0473670922 0.0557698123 0.281028032
v 0.0617139712 0.0585278757 0.259799898
v 0.0473905802 0.055909764 0.28106308
v 0.0617244467 0.05867121 0.25982663
v 0.0474268086 0.056044694 0.281106085
v 0.0617479347 0.0588111617 0.259861678
v 0.0474753492 0.0561730191 0.28115651
v 0.0617841594 0.0589460917 0.259904683
v 0.0475356318 0.056293238 0.28121379
v 0.0618326999 0.0590744168 0.259955108
v 0.0476069562 0.0564039387 0.281277239
v 0.0618929863 0.0591946356 0.260012388
v 0.0476884767 0.0565038249 0.281346112
v 0.061964307 0.0593053363 0.260075837
v 0.0477792472 0.0565917231 0.281419605
v 0.0620458312 0.0594052188 0.260144711
v 0.0478781983 0.0566666052 0.281496853
v 0.0621366017 0.0594931208 0.260218203
v 0.0479841717 0.0567275919 0.281576961
v 0.0622355528 0.0595680028 0.260295451
v 0.0480959229 0.056773968 0.281659007
v 0.0623415262 0.0596289895 0.260375559
v 0.0482121445 0.0568051934 0.281741977
v 0.0624532774 0.0596753657 0.260457605
v 0.0483314693 0.0568208955 0.281824917
v 0.062569499 0.0597065873 0.260540575
v 0.048452504 0.0568208955 0.281906903
v 0.0626888201 0.0597222932 0.260623515
v 0.0485738255 0.0568051934 0.281986892
v 0.0628098547 0.0597222932 0.260705501
v 0.0486940145 0.056773968 0.282064021
v 0.06293118 0.0597065873 0.26078549
v 0.0488116592 0.0567275919 0.282137334
v 0.0630513653 0.0596753657 0.260862619
v 0.0489253812 0.0566666052 0.282205999
v 0.06316901 0.0596289895 0.260935932
v 0.0490338504 0.0565917231 0.28226921
v 0.0632827356 0.0595680028 0.261004597
v 0.0491357893 0.0565038249 0.282326221
v 0.0633912012 0.0594931208 0.261067808
v 0.0492300056 0.0564039387 0.282376349
v 0.06349314 0.0594052188 0.26112482
v 0.049315393 0.056293238 0.282419026
v 0.0635873601 0.0593053363 0.261174947
v 0.049390953 0.0561730191 0.282453746
v 0.0636727437 0.0591946356 0.261217624
v 0.0494558029 0.056044694 0.282480091
v 0.0637483075 0.0590744168 0.261252344
v 0.0495091751 0.055909764 0.282497764
v 0.0638131574 0.0589460917 0.261278689
v 0.0495504439 0.0557698123 0.282506555
v 0.0638665259 0.0588111617 0.261296362
v 0.0495791323 0.055626478 0.282506377
v 0.0639078021 0.05867121 0.261305153
v 0.0639364868 0.0585278757 0.261304975
v 0.0346630104 0.0549989119 0.266242236
v 0.0378791764 0.0556971058 0.268515736
v 0.0466650128 0.0574725866 0.255541742
v 0.0435565114 0.056796018 0.253090024
v 0.0434488468 0.0567743927 0.253268242
v 0.0377715118 0.0556754805 0.268693954
v 0.0345377252 0.0549734607 0.266407996
v 0.0467902981 0.0574980378 0.255375981
v 0.0436453819 0.0568135828 0.252901286
v 0.0472572669 0.0575943589 0.254970729
v 0.0474376045 0.0576319471 0.254871309
v 0.0470880568 0.0575592592 0.255088896
v 0.0376826413 0.0556579158 0.268882692
v 0.0190125871 0.0516431816 0.26126194
v 0.0242104698 0.0527297817 0.258853346
v 0.0329963043 0.0545052625 0.245879367
v 0.0376135446 0.0556446053 0.269079834
v 0.0476270989 0.0576716177 0.254791647
v 0.0437144786 0.0568268932 0.252704114
v 0.0437905565 0.0568402149 0.252293199
v 0.0437630489 0.0568358004 0.252500683
v 0.0437448695 0.0568262301 0.251669288
v 0.0437814146 0.0568354018 0.251875222
v 0.0241028033 0.0527081564 0.259031564
v 0.0469318293 0.0575270317 0.255224466
v 0.0437966995 0.0568400808 0.252083957
v 0.0435127951 0.0567730032 0.251090616
v 0.0436098203 0.0567948595 0.251274824
v 0.0333699398 0.0545445755 0.240060538
v 0.0623154379 0.0608283207 0.260522038
v 0.0571175516 0.0597417168 0.262930632
v 0.0483317189 0.057966236 0.275904596
v 0.0343961939 0.0549444668 0.266559511
v 0.0342399664 0.054912243 0.266695082
v 0.0340707563 0.0548771434 0.266813219
v 0.0375313237 0.0556314178 0.269700021
v 0.0375374667 0.0556312837 0.269490749
v 0.0436874591 0.0568126664 0.25146842
v 0.0432650559 0.0567181408 0.25075832
v 0.0433974527 0.0567473359 0.250917822
v 0.0431170538 0.0566857345 0.250613838
v 0.0357186906 0.0550795421 0.245370641
v 0.042955067 0.0566504784 0.250486016
v 0.0240139347 0.0526905954 0.259220302
v 0.0479580835 0.057926923 0.28172344
v 0.0383729562 0.0558210202 0.271297961
v 0.0477394648 0.0578444637 0.276475608
v 0.0475591235 0.0578068756 0.276575029
v 0.0375649743 0.0556356981 0.269283265
v 0.035544496 0.0550418198 0.245260835
v 0.0351672284 0.0549606457 0.245099902
v 0.035360001 0.0550020412 0.245170251
v 0.0347653627 0.0548748262 0.245022714
v 0.0349682905 0.0549180843 0.245050535
v 0.03435646 0.0547881126 0.245032653
v 0.0345606729 0.0548313446 0.245016739
v 0.0337688997 0.0546646267 0.245208919
v 0.0339583941 0.0547042936 0.245129287
v 0.0331215896 0.0545307137 0.245713606
v 0.023868762 0.0526639633 0.259828389
v 0.0238962695 0.052668374 0.259620905
v 0.0456093326 0.0573919564 0.276413321
v 0.0479086749 0.0578795634 0.276357442
v 0.0572252199 0.0597633421 0.262752384
v 0.0574592613 0.059807539 0.261955589
v 0.0574317537 0.0598031245 0.262163073
v 0.0571815036 0.0597403236 0.260753006
v 0.0572785251 0.0597621836 0.260937214
v 0.0492132045 0.0580091439 0.254923195
v 0.0493873991 0.0580468662 0.255033016
v 0.0341549627 0.0547456071 0.245070308
v 0.0334193483 0.0545919351 0.245426521
v 0.0335885584 0.0546270348 0.245308369
v 0.0332631208 0.0545597114 0.245562091
v 0.023944838 0.0526772849 0.259417474
v 0.0376405641 0.0556588322 0.270315528
v 0.0375831537 0.0556452684 0.27011466
v 0.0378152281 0.0556984991 0.270693332
v 0.0377182029 0.0556766391 0.270509124
v 0.0380629674 0.0557533577 0.271025658
v 0.0379305705 0.0557241626 0.270866156
v 0.0457835272 0.0574296787 0.276523143
v 0.0461607948 0.0575108528 0.276684076
v 0.0459680222 0.0574694574 0.276613712
v 0.0465626605 0.0575966723 0.276761264
v 0.0463597365 0.0575534143 0.276733428
v 0.0473696291 0.0577672049 0.276654691
v 0.0573140904 0.0597809069 0.262563676
v 0.0573831871 0.0597942136 0.262366503
v 0.0570661612 0.0597146563 0.260580182
v 0.0567857586 0.0596530586 0.260276228
v 0.0569337644 0.0596854612 0.26042068
v 0.0490287095 0.0579693653 0.254832625
v 0.0321148187 0.0544623584 0.266860753
v 0.0319406241 0.0544246323 0.266750962
v 0.0375466086 0.0556360967 0.269908756
v 0.0382109694 0.055785764 0.27117011
v 0.0480649024 0.0579117909 0.276221871
v 0.0482064337 0.0579407848 0.276070356
v 0.057465408 0.0598074049 0.261746317
v 0.057413578 0.0597935542 0.261331677
v 0.0574501231 0.0598027259 0.261537582
v 0.0566237718 0.0596178025 0.260148376
v 0.0488359369 0.0579279698 0.254762262
v 0.0480251685 0.0577554367 0.254695028
v 0.0482293777 0.057798665 0.254679114
v 0.0478236713 0.0577129312 0.254732668
v 0.0338904187 0.0548395514 0.266912669
v 0.0337009244 0.0547998808 0.266992331
v 0.0238626152 0.0526640974 0.260037631
v 0.0247042496 0.052853696 0.261635572
v 0.0322993137 0.0545021333 0.266951352
v 0.0471730605 0.0577258915 0.276713669
v 0.0469715632 0.0576833859 0.27675131
v 0.0573561676 0.0597799905 0.26113081
v 0.032691028 0.0545860901 0.267071068
v 0.0324920863 0.0545435324 0.267021686
v 0.033504352 0.0547585674 0.26705128
v 0.0333028585 0.0547160618 0.26708895
v 0.0484340675 0.0578421503 0.254685074
v 0.0486369953 0.0578854084 0.254712909
v 0.0241465196 0.052731175 0.261030972
v 0.0240494963 0.0527093187 0.260846764
v 0.0243942607 0.0527860373 0.261363298
v 0.024261862 0.0527568422 0.261203766
v 0.046767354 0.0576401576 0.276767224
v 0.0328939557 0.0546293482 0.267098874
v 0.0330986455 0.0546728335 0.267104864
v 0.0239144471 0.0526779443 0.2604523
v 0.0238779001 0.0526687726 0.260246366
v 0.0245422646 0.0528184399 0.26150775
v 0.0239718556 0.0526915081 0.260653168
v 0.044486858 0.0518834405 0.253301859
v 0.047703024 0.0525816344 0.255575359
v 0.0389171913 0.0508061573 0.268549323
v 0.0357010253 0.0501079634 0.266275823
v 0.038809523 0.050784532 0.268727571
v 0.03557574 0.0500825122 0.266441613
v 0.0445945263 0.0519050695 0.253123611
v 0.0478283092 0.0526070856 0.255409569
v 0.0479698442 0.0526360832 0.255258083
v 0.0354342088 0.0500535145 0.266593099
v 0.0446833968 0.0519226305 0.252934903
v 0.0387206562 0.0507669672 0.268916279
v 0.0351087712 0.0499861911 0.266846836
v 0.0352779813 0.0500212908 0.266728669
v 0.0447524935 0.051935941 0.252737731
v 0.0448010601 0.0519448519 0.2525343
v 0.0386515558 0.0507536568 0.269113451
v 0.0448285677 0.0519492626 0.252326816
v 0.0486651137 0.0527806655 0.254825264
v 0.0484756194 0.0527409986 0.254904896
v 0.0386211686 0.0507543162 0.270148277
v 0.0386785753 0.0507678799 0.270349145
v 0.0482952781 0.0527034067 0.255004346
v 0.0385846198 0.0507451445 0.269942343
v 0.0386029892 0.0507447459 0.269316882
v 0.048126068 0.052668307 0.255122513
v 0.0385693349 0.0507404692 0.269733638
v 0.0385754816 0.0507403351 0.269524366
v 0.0388532393 0.0508075468 0.270726949
v 0.0389685817 0.0508332141 0.270899743
v 0.0387562178 0.0507856905 0.270542741
v 0.0448347144 0.0519491285 0.252117574
v 0.0347389355 0.0499089323 0.267025918
v 0.0349284299 0.0499485992 0.266946286
v 0.0391009822 0.0508624092 0.271059275
v 0.0490631796 0.0528644845 0.254728645
v 0.0488616861 0.0528219789 0.254766285
v 0.0494720824 0.0529511981 0.254718691
v 0.0492673926 0.0529077165 0.254712701
v 0.0200506002 0.0467522293 0.261295557
v 0.0344079509 0.049653627 0.24009414
v 0.0340343192 0.049614314 0.245912984
v 0.044155065 0.051794786 0.250647455
v 0.0439930782 0.0517595299 0.250519633
v 0.0633534491 0.0559373684 0.260555625
v 0.0583521016 0.0548899546 0.262597263
v 0.0584211983 0.0549032651 0.26240012
v 0.0392489843 0.0508948117 0.271203727
v 0.0345423669 0.0498676188 0.267084897
v 0.0498739481 0.0530370176 0.254795879
v 0.0496750101 0.0529944561 0.254746526
v 0.0341366567 0.0497818813 0.267138481
v 0.0343408696 0.0498251133 0.267122537
v 0.0333373286 0.0496111847 0.26698494
v 0.0335301012 0.0496525802 0.267055303
v 0.0341596045 0.0496397614 0.245747209
v 0.0367567055 0.0501885936 0.245404243
v 0.044303067 0.0518271886 0.250791907
v 0.0584697686 0.054912176 0.26219666
v 0.0489960983 0.0530359708 0.281757027
v 0.0493697338 0.0530752838 0.275938213
v 0.0485971384 0.0529159233 0.276608646
v 0.0487774797 0.0529535152 0.276509196
v 0.0394109711 0.0509300679 0.271331578
v 0.0339319669 0.0497383997 0.267132491
v 0.0337290391 0.0496951416 0.267104656
v 0.0502512194 0.0531181917 0.254956812
v 0.0500667244 0.053078413 0.254866242
v 0.0578237735 0.0547621101 0.260309815
v 0.0576617867 0.0547268502 0.260181993
v 0.0251845345 0.0478402227 0.261064589
v 0.0252998769 0.04786589 0.261237383
v 0.0250098687 0.0478005596 0.260686755
v 0.0250875093 0.0478183664 0.260880351
v 0.024982851 0.0477863327 0.259451091
v 0.0249342825 0.0477774218 0.259654522
v 0.0252484847 0.0478388332 0.258886963
v 0.04455081 0.0518820509 0.251124233
v 0.0444354676 0.0518563837 0.250951439
v 0.0582632348 0.0548723899 0.262786001
v 0.0492444448 0.0530498363 0.276103973
v 0.048407644 0.0528762527 0.276688308
v 0.0471988097 0.0526199043 0.276717693
v 0.0473977476 0.052662462 0.276767045
v 0.0468215384 0.0525387302 0.27655676
v 0.0470060334 0.0525785089 0.276647329
v 0.050425414 0.0531559177 0.255066603
v 0.032978639 0.0495336801 0.266784579
v 0.0331528336 0.0495714061 0.26689437
v 0.0255802777 0.0479274876 0.261541367
v 0.0257422626 0.0479627475 0.261669189
v 0.0249006283 0.0477731451 0.260071248
v 0.0249159131 0.0477778241 0.260279983
v 0.0250519477 0.0477996431 0.259253919
v 0.0251408163 0.0478172079 0.259065181
v 0.0351929776 0.0498546585 0.245103911
v 0.0349964052 0.0498133451 0.245162889
v 0.0358033739 0.049983874 0.245056316
v 0.0355986841 0.0499403924 0.245050341
v 0.0362052433 0.0500696935 0.245133504
v 0.0360063016 0.0500271358 0.245084152
v 0.0448194295 0.0519444533 0.251908839
v 0.0447828807 0.0519352816 0.251702905
v 0.0584972762 0.0549165867 0.261989176
v 0.0581555665 0.0548507646 0.262964219
v 0.0489466898 0.0529886149 0.276391059
v 0.0491029136 0.0530208386 0.276255488
v 0.0482110716 0.0528349392 0.276747257
v 0.0478053652 0.0527492054 0.276800841
v 0.0480095781 0.0527924374 0.276784927
v 0.0466473438 0.0525010042 0.276446939
v 0.0249524601 0.0477869958 0.260485917
v 0.024906775 0.047773011 0.259862006
v 0.0348069109 0.0497736745 0.245242536
v 0.0346265733 0.0497360826 0.245341972
v 0.0353944711 0.0498971604 0.245066255
v 0.0365825109 0.0501508676 0.245294437
v 0.0363980159 0.0501110926 0.245203853
v 0.0446478315 0.0519039072 0.251308441
v 0.044725474 0.0519217178 0.251502037
v 0.0476006754 0.0527057238 0.276794851
v 0.0254322737 0.0478950851 0.261396885
v 0.0583941825 0.0548890382 0.261164427
v 0.05831654 0.0548712313 0.260970831
v 0.0584515892 0.054902602 0.261365265
v 0.0344573632 0.0497009829 0.245460138
v 0.0343011357 0.0496687591 0.245595708
v 0.0582195148 0.054849375 0.260786623
v 0.0585034192 0.0549164526 0.261779934
v 0.058488138 0.0549117737 0.261571199
v 0.0581041723 0.0548237078 0.260613799
v 0.0579717755 0.0547945127 0.260454297
v 0.0389171913 0.0508061573 0.268549323
v 0.047703024 0.0525816344 0.255575359
v 0.0466650128 0.0574725866 0.255541742
v 0.0378791764 0.0556971058 0.268515736
v 0.0493873991 0.0580468662 0.255033016
v 0.050425414 0.0531559177 0.255066603
v 0.0576617867 0.0547268502 0.260181993
v 0.0566237718 0.0596178025 0.260148376
v 0.0483317189 0.057966236 0.275904596
v 0.0571175516 0.0597417168 0.262930632
v 0.0581555665 0.0548507646 0.262964219
v 0.0493697338 0.0530752838 0.275938213
v 0.0394109711 0.0509300679 0.271331578
v 0.0383729562 0.0558210202 0.271297961
v 0.0456093326 0.0573919564 0.276413321
v 0.0466473438 0.0525010042 0.276446939
v 0.0357010253 0.0501079634 0.266275823
v 0.0346630104 0.0549989119 0.266242236
v 0.0434488468 0.0567743927 0.253268242
v 0.044486858 0.0518834405 0.253301859
v 0.0247042496 0.052853696 0.261635572
v 0.0319406241 0.0544246323 0.266750962
v 0.032978639 0.0495336801 0.266784579
v 0.0257422626 0.0479627475 0.261669189
v 0.0242104698 0.0527297817 0.258853346
v 0.0252484847 0.0478388332 0.258886963
v 0.0340343192 0.049614314 0.245912984
v 0.0329963043 0.0545052625 0.245879367
v 0.0357186906 0.0550795421 0.245370641
v 0.0367567055 0.0501885936 0.245404243
v 0.0439930782 0.0517595299 0.250519633
v 0.042955067 0.0566504784 0.250486016
v 0.0445945263 0.0519050695 0.253123611
v 0.044486858 0.0518834405 0.253301859
v 0.0434488468 0.0567743927 0.253268242
v 0.0446833968 0.0519226305 0.252934903
v 0.0435565114 0.056796018 0.253090024
v 0.0447524935 0.051935941 0.252737731
v 0.0436453819 0.0568135828 0.252901286
v 0.0448010601 0.0519448519 0.2525343
v 0.0437144786 0.0568268932 0.252704114
v 0.0448285677 0.0519492626 0.252326816
v 0.0437630489 0.0568358004 0.252500683
v 0.0448347144 0.0519491285 0.252117574
v 0.0437905565 0.0568402149 0.252293199
v 0.0448194295 0.0519444533 0.251908839
v 0.0437966995 0.0568400808 0.252083957
v 0.0447828807 0.0519352816 0.251702905
v 0.0437814146 0.0568354018 0.251875222
v 0.044725474 0.0519217178 0.251502037
v 0.0437448695 0.0568262301 0.251669288
v 0.0446478315 0.0519039072 0.251308441
v 0.0436874591 0.0568126664 0.25146842
v 0.04455081 0.0518820509 0.251124233
v 0.0436098203 0.0567948595 0.251274824
v 0.0444354676 0.0518563837 0.250951439
v 0.0435127951 0.0567730032 0.251090616
v 0.044303067 0.0518271886 0.250791907
v 0.0433974527 0.0567473359 0.250917822
v 0.044155065 0.051794786 0.250647455
v 0.0432650559 0.0567181408 0.25075832
v 0.0439930782 0.0517595299 0.250519633
v 0.0431170538 0.0566857345 0.250613838
v 0.042955067 0.0566504784 0.250486016
v 0.0331215896 0.0545307137 0.245713606
v 0.0329963043 0.0545052625 0.245879367
v 0.0340343192 0.049614314 0.245912984
v 0.0332631208 0.0545597114 0.245562091
v 0.0341596045 0.0496397614 0.245747209
v 0.0334193483 0.0545919351 0.245426521
v 0.0343011357 0.0496687591 0.245595708
v 0.0335885584 0.0546270348 0.245308369
v 0.0344573632 0.0497009829 0.245460138
v 0.0337688997 0.0546646267 0.245208919
v 0.0346265733 0.0497360826 0.245341972
v 0.0339583941 0.0547042936 0.245129287
v 0.0348069109 0.0497736745 0.245242536
v 0.0341549627 0.0547456071 0.245070308
v 0.0349964052 0.0498133451 0.245162889
v 0.03435646 0.0547881126 0.245032653
v 0.0351929776 0.0498546585 0.245103911
v 0.0345606729 0.0548313446 0.245016739
v 0.0353944711 0.0498971604 0.245066255
v 0.0347653627 0.0548748262 0.245022714
v 0.0355986841 0.0499403924 0.245050341
v 0.0349682905 0.0549180843 0.245050535
v 0.0358033739 0.049983874 0.245056316
v 0.0351672284 0.0549606457 0.245099902
v 0.0360063016 0.0500271358 0.245084152
v 0.035360001 0.0550020412 0.245170251
v 0.0362052433 0.0500696935 0.245133504
v 0.035544496 0.0550418198 0.245260835
v 0.0363980159 0.0501110926 0.245203853
v 0.0357186906 0.0550795421 0.245370641
v 0.0365825109 0.0501508676 0.245294437
v 0.0367567055 0.0501885936 0.245404243
v 0.0467902981 0.0574980378 0.255375981
v 0.0466650128 0.0574725866 0.255541742
v 0.047703024 0.0525816344 0.255575359
v 0.0469318293 0.0575270317 0.255224466
v 0.0478283092 0.0526070856 0.255409569
v 0.0470880568 0.0575592592 0.255088896
v 0.0479698442 0.0526360832 0.255258083
v 0.0472572669 0.0575943589 0.254970729
v 0.048126068 0.052668307 0.255122513
v 0.0474376045 0.0576319471 0.254871309
v 0.0482952781 0.0527034067 0.255004346
v 0.0476270989 0.0576716177 0.254791647
v 0.0484756194 0.0527409986 0.254904896
v 0.0478236713 0.0577129312 0.254732668
v 0.0486651137 0.0527806655 0.254825264
v 0.0480251685 0.0577554367 0.254695028
v 0.0488616861 0.0528219789 0.254766285
v 0.0482293777 0.057798665 0.254679114
v 0.0490631796 0.0528644845 0.254728645
v 0.0484340675 0.0578421503 0.254685074
v 0.0492673926 0.0529077165 0.254712701
v 0.0486369953 0.0578854084 0.254712909
v 0.0494720824 0.0529511981 0.254718691
v 0.0488359369 0.0579279698 0.254762262
v 0.0496750101 0.0529944561 0.254746526
v 0.0490287095 0.0579693653 0.254832625
v 0.0498739481 0.0530370176 0.254795879
v 0.0492132045 0.0580091439 0.254923195
v 0.0500667244 0.053078413 0.254866242
v 0.0493873991 0.0580468662 0.255033016
v 0.0502512194 0.0531181917 0.254956812
v 0.050425414 0.0531559177 0.255066603
v 0.0567857586 0.0596530586 0.260276228
v 0.0566237718 0.0596178025 0.260148376
v 0.0576617867 0.0547268502 0.260181993
v 0.0569337644 0.0596854612 0.26042068
v 0.0578237735 0.0547621101 0.260309815
v 0.0570661612 0.0597146563 0.260580182
v 0.0579717755 0.0547945127 0.260454297
v 0.0571815036 0.0597403236 0.260753006
v 0.0581041723 0.0548237078 0.260613799
v 0.0572785251 0.0597621836 0.260937214
v 0.0582195148 0.054849375 0.260786623
v 0.0573561676 0.0597799905 0.26113081
v 0.05831654 0.0548712313 0.260970831
v 0.057413578 0.0597935542 0.261331677
v 0.0583941825 0.0548890382 0.261164427
v 0.0574501231 0.0598027259 0.261537582
v 0.0584515892 0.054902602 0.261365265
v 0.057465408 0.0598074049 0.261746317
v 0.058488138 0.0549117737 0.261571199
v 0.0574592613 0.059807539 0.261955589
v 0.0585034192 0.0549164526 0.261779934
v 0.0574317537 0.0598031245 0.262163073
v 0.0584972762 0.0549165867 0.261989176
v 0.0573831871 0.0597942136 0.262366503
v 0.0584697686 0.054912176 0.26219666
v 0.0573140904 0.0597809069 0.262563676
v 0.0584211983 0.0549032651 0.26240012
v 0.0572252199 0.0597633421 0.262752384
v 0.0583521016 0.0548899546 0.262597263
v 0.0571175516 0.0597417168 0.262930632
v 0.0582632348 0.0548723899 0.262786001
v 0.0581555665 0.0548507646 0.262964219
v 0.0482064337 0.0579407848 0.276070356
v 0.0483317189 0.057966236 0.275904596
v 0.0493697338 0.0530752838 0.275938213
v 0.0480649024 0.0579117909 0.276221871
v 0.0492444448 0.0530498363 0.276103973
v 0.0479086749 0.0578795634 0.276357442
v 0.0491029136 0.0530208386 0.276255488
v 0.0477394648 0.0578444637 0.276475608
v 0.0489466898 0.0529886149 0.276391059
v 0.0475591235 0.0578068756 0.276575029
v 0.0487774797 0.0529535152 0.276509196
v 0.0473696291 0.0577672049 0.276654691
v 0.0485971384 0.0529159233 0.276608646
v 0.0471730605 0.0577258915 0.276713669
v 0.048407644 0.0528762527 0.276688308
v 0.0469715632 0.0576833859 0.27675131
v 0.0482110716 0.0528349392 0.276747257
v 0.046767354 0.0576401576 0.276767224
v 0.0480095781 0.0527924374 0.276784927
v 0.0465626605 0.0575966723 0.276761264
v 0.0478053652 0.0527492054 0.276800841
v 0.0463597365 0.0575534143 0.276733428
v 0.0476006754 0.0527057238 0.276794851
v 0.0461607948 0.0575108528 0.276684076
v 0.0473977476 0.052662462 0.276767045
v 0.0459680222 0.0574694574 0.276613712
v 0.0471988097 0.0526199043 0.276717693
v 0.0457835272 0.0574296787 0.276523143
v 0.0470060334 0.0525785089 0.276647329
v 0.0456093326 0.0573919564 0.276413321
v 0.0468215384 0.0525387302 0.27655676
v 0.0466473438 0.0525010042 0.276446939
v 0.0245422646 0.0528184399 0.26150775
v 0.0247042496 0.052853696 0.261635572
v 0.0257422626 0.0479627475 0.261669189
v 0.0243942607 0.0527860373 0.261363298
v 0.0255802777 0.0479274876 0.261541367
v 0.024261862 0.0527568422 0.261203766
v 0.0254322737 0.0478950851 0.261396885
v 0.0241465196 0.052731175 0.261030972
v 0.0252998769 0.04786589 0.261237383
v 0.0240494963 0.0527093187 0.260846764
v 0.0251845345 0.0478402227 0.261064589
v 0.0239718556 0.0526915081 0.260653168
v 0.0250875093 0.0478183664 0.260880351
v 0.0239144471 0.0526779443 0.2604523
v 0.0250098687 0.0478005596 0.260686755
v 0.0238779001 0.0526687726 0.260246366
v 0.0249524601 0.0477869958 0.260485917
v 0.0238626152 0.0526640974 0.260037631
v 0.0249159131 0.0477778241 0.260279983
v 0.023868762 0.0526639633 0.259828389
v 0.0249006283 0.0477731451 0.260071248
v 0.0238962695 0.052668374 0.259620905
v 0.024906775 0.047773011 0.259862006
v 0.023944838 0.0526772849 0.259417474
v 0.0249342825 0.0477774218 0.259654522
v 0.0240139347 0.0526905954 0.259220302
v 0.024982851 0.0477863327 0.259451091
v 0.0241028033 0.0527081564 0.259031564
v 0.0250519477 0.0477996431 0.259253919
v 0.0242104698 0.0527297817 0.258853346
v 0.0251408163 0.0478172079 0.259065181
v 0.0252484847 0.0478388332 0.258886963
v 0.0331528336 0.0495714061 0.26689437
v 0.032978639 0.0495336801 0.266784579
v 0.0319406241 0.0544246323 0.266750962
v 0.0333373286 0.0496111847 0.26698494
v 0.0321148187 0.0544623584 0.266860753
v 0.0335301012 0.0496525802 0.267055303
v 0.0322993137 0.0545021333 0.266951352
v 0.0337290391 0.0496951416 0.267104656
v 0.0324920863 0.0545435324 0.267021686
v 0.0339319669 0.0497383997 0.267132491
v 0.032691028 0.0545860901 0.267071068
v 0.0341366567 0.0497818813 0.267138481
v 0.0328939557 0.0546293482 0.267098874
v 0.0343408696 0.0498251133 0.267122537
v 0.0330986455 0.0546728335 0.267104864
v 0.0345423669 0.0498676188 0.267084897
v 0.0333028585 0.0547160618 0.26708895
v 0.0347389355 0.0499089323 0.267025918
v 0.033504352 0.0547585674 0.26705128
v 0.0349284299 0.0499485992 0.266946286
v 0.0337009244 0.0547998808 0.266992331
v 0.0351087712 0.0499861911 0.266846836
v 0.0338904187 0.0548395514 0.266912669
v 0.0352779813 0.0500212908 0.266728669
v 0.0340707563 0.0548771434 0.266813219
v 0.0354342088 0.0500535145 0.266593099
v 0.0342399664 0.054912243 0.266695082
v 0.03557574 0.0500825122 0.266441613
v 0.0343961939 0.0549444668 0.266559511
v 0.0357010253 0.0501079634 0.266275823
v 0.0345377252 0.0549734607 0.266407996
v 0.0346630104 0.0549989119 0.266242236
v 0.0382109694 0.055785764 0.27117011
v 0.0383729562 0.0558210202 0.271297961
v 0.0394109711 0.0509300679 0.271331578
v 0.0380629674 0.0557533577 0.271025658
v 0.0392489843 0.0508948117 0.271203727
v 0.0379305705 0.0557241626 0.270866156
v 0.0391009822 0.0508624092 0.271059275
v 0.0378152281 0.0556984991 0.270693332
v 0.0389685817 0.0508332141 0.270899743
v 0.0377182029 0.0556766391 0.270509124
v 0.0388532393 0.0508075468 0.270726949
v 0.0376405641 0.0556588322 0.270315528
v 0.0387562178 0.0507856905 0.270542741
v 0.0375831537 0.0556452684 0.27011466
v 0.0386785753 0.0507678799 0.270349145
v 0.0375466086 0.0556360967 0.269908756
v 0.0386211686 0.0507543162 0.270148277
v 0.0375313237 0.0556314178 0.269700021
v 0.0385846198 0.0507451445 0.269942343
v 0.0375374667 0.0556312837 0.269490749
v 0.0385693349 0.0507404692 0.269733638
v 0.0375649743 0.0556356981 0.269283265
v 0.0385754816 0.0507403351 0.269524366
v 0.0376135446 0.0556446053 0.269079834
v 0.0386029892 0.0507447459 0.269316882
v 0.0376826413 0.0556579158 0.268882692
v 0.0386515558 0.0507536568 0.269113451
v 0.0377715118 0.0556754805 0.268693954
v 0.0387206562 0.0507669672 0.268916279
v 0.0378791764 0.0556971058 0.268515736
v 0.038809523 0.050784532 0.268727571
v 0.0389171913 0.0508061573 0.268549323
f 1 2 3
f 4 1 5
f 6 4 7
f 8 6 9
f 10 8 11
f 12 10 13
f 14 12 15
f 16 14 17
f 18 16 19
f 20 18 21
f 22 20 23
f 24 22 25
f 26 24 27
f 28 26 29
f 30 28 31
f 32 30 33
f 34 32 35
f 36 34 37
f 38 36 39
f 40 38 41
f 42 40 43
f 44 42 45
f 46 44 47
f 48 46 49
f 50 48 51
f 52 50 53
f 54 52 55
f 56 54 57
f 58 56 59
f 60 58 61
f 62 60 63
f 64 62 65
f 66 64 67
f 68 66 69
f 70 68 71
f 72 70 73
f 74 72 75
f 76 74 77
f 78 76 79
f 80 78 81
f 82 80 83
f 84 82 85
f 86 84 87
f 88 86 89
f 90 88 91
f 92 90 93
f 94 92 95
f 96 94 97
f 98 96 99
f 100 98 101
f 102 100 103
f 104 102 105
f 106 104 107
f 108 106 109
f 110 108 111
f 112 110 113
f 114 112 115
f 2 114 116
f 116 3 2
f 115 116 114
f 113 115 112
f 111 113 110
f 109 111 108
f 107 109 106
f 105 107 104
f 103 105 102
f 101 103 100
f 99 101 98
f 97 99 96
f 95 97 94
f 93 95 92
f 91 93 90
f 89 91 88
f 87 89 86
f 85 87 84
f 83 85 82
f 81 83 80
f 79 81 78
f 77 79 76
f 75 77 74
f 73 75 72
f 71 73 70
f 69 71 68
f 67 69 66
f 65 67 64
f 63 65 62
f 61 63 60
f 59 61 58
f 57 59 56
f 55 57 54
f 53 55 52
f 51 53 50
f 49 51 48
f 47 49 46
f 45 47 44
f 43 45 42
f 41 43 40
f 39 41 38
f 37 39 36
f 35 37 34
f 33 35 32
f 31 33 30
f 29 31 28
f 27 29 26
f 25 27 24
f 23 25 22
f 21 23 20
f 19 21 18
f 17 19 16
f 15 17 14
f 13 15 12
f 11 13 10
f 9 11 8
f 7 9 6
f 5 7 4
f 3 5 1
f 117 118 119
f 120 121 122
f 123 117 124
f 118 125 119
f 126 127 128
f 127 129 130
f 131 132 133
f 132 134 135
f 122 136 120
f 120 137 138
f 120 139 140
f 141 120 142
f 120 143 144
f 143 145 146
f 147 148 149
f 148 150 151
f 150 152 153
f 152 154 155
f 119 124 117
f 118 156 157
f 130 128 127
f 129 158 159
f 160 131 161
f 135 133 132
f 122 162 136
f 162 122 163
f 120 164 165
f 120 166 167
f 140 137 120
f 120 168 142
f 146 144 143
f 151 149 148
f 155 153 152
f 118 169 125
f 157 170 118
f 171 172 173
f 172 174 175
f 159 130 129
f 158 160 176
f 133 161 131
f 134 177 178
f 177 179 180
f 177 181 182
f 120 183 181
f 163 184 162
f 167 164 120
f 120 185 186
f 120 141 139
f 144 168 120
f 153 151 150
f 154 187 188
f 189 190 191
f 190 192 193
f 194 195 196
f 195 197 198
f 199 200 201
f 200 123 202
f 170 169 118
f 118 203 204
f 205 206 207
f 205 208 209
f 208 210 211
f 212 171 213
f 175 173 172
f 214 126 215
f 176 159 158
f 178 135 134
f 180 216 177
f 181 177 120
f 120 217 218
f 165 121 120
f 120 219 185
f 142 220 141
f 145 221 222
f 221 223 224
f 225 226 227
f 226 228 229
f 228 147 230
f 188 155 154
f 187 189 231
f 193 191 190
f 192 194 232
f 198 196 195
f 197 233 234
f 233 235 236
f 237 238 239
f 238 199 240
f 202 201 200
f 204 156 118
f 241 242 243
f 244 205 245
f 207 246 205
f 211 209 208
f 210 247 248
f 247 212 249
f 173 213 171
f 250 251 252
f 251 253 254
f 128 215 126
f 216 178 177
f 177 255 256
f 218 183 120
f 186 166 120
f 142 257 220
f 142 258 259
f 224 222 221
f 223 225 260
f 229 227 226
f 149 230 147
f 191 231 189
f 196 232 194
f 236 234 233
f 235 237 261
f 240 239 238
f 124 202 123
f 241 262 242
f 205 263 245
f 246 264 205
f 248 211 210
f 213 249 212
f 265 266 267
f 266 250 268
f 254 252 251
f 253 269 270
f 205 271 272
f 273 274 275
f 276 277 278
f 277 279 280
f 281 282 283
f 282 214 284
f 161 176 160
f 182 255 177
f 138 219 120
f 142 275 258
f 260 224 223
f 230 229 228
f 232 193 192
f 261 236 235
f 201 240 199
f 118 285 286
f 243 287 288
f 243 289 290
f 243 291 292
f 264 263 205
f 249 248 247
f 268 267 266
f 270 254 253
f 293 294 285
f 205 295 294
f 272 296 205
f 273 297 274
f 280 278 277
f 279 281 298
f 284 283 282
f 256 179 177
f 259 257 142
f 227 260 225
f 234 198 197
f 286 203 118
f 243 288 241
f 243 299 300
f 244 301 302
f 243 303 304
f 243 305 306
f 290 307 243
f 243 163 291
f 209 206 205
f 174 265 308
f 252 268 250
f 294 293 205
f 272 309 296
f 205 310 311
f 275 312 313
f 314 315 316
f 269 317 318
f 317 276 319
f 298 280 279
f 215 284 214
f 222 146 145
f 239 261 237
f 300 287 243
f 302 320 244
f 306 303 243
f 292 289 243
f 245 321 244
f 267 308 265
f 296 295 205
f 309 272 322
f 311 323 205
f 205 324 325
f 205 326 327
f 275 313 273
f 314 328 329
f 314 322 315
f 319 318 317
f 283 298 281
f 231 188 187
f 163 243 330
f 320 262 244
f 307 305 243
f 244 331 332
f 308 175 174
f 322 314 309
f 323 333 205
f 327 324 205
f 329 297 314
f 275 334 335
f 314 336 337
f 316 338 314
f 275 339 340
f 278 319 276
f 330 184 163
f 304 299 243
f 321 331 244
f 333 271 205
f 205 341 342
f 325 343 205
f 335 312 275
f 338 336 314
f 275 344 345
f 275 346 347
f 275 142 339
f 136 217 120
f 332 301 244
f 342 310 205
f 205 244 326
f 337 328 314
f 347 344 275
f 275 348 349
f 340 350 275
f 241 244 262
f 343 341 205
f 345 334 275
f 350 348 275
f 285 118 293
f 349 346 275
f 273 314 297
f 318 270 269
f 351 352 353
f 352 351 354
f 355 356 357
f 358 353 359
f 354 360 352
f 361 362 363
f 355 364 356
f 359 365 358
f 352 360 366
f 351 367 354
f 368 369 370
f 371 372 369
f 373 374 375
f 376 377 374
f 378 379 380
f 381 382 379
f 383 384 382
f 385 386 384
f 363 387 361
f 388 389 390
f 391 392 389
f 391 393 394
f 364 395 396
f 357 397 398
f 365 399 358
f 353 358 351
f 351 400 401
f 351 370 402
f 369 368 371
f 403 404 372
f 405 375 404
f 374 373 376
f 406 407 377
f 408 380 407
f 379 378 381
f 384 383 385
f 391 387 409
f 387 410 411
f 363 412 387
f 413 414 362
f 415 416 414
f 417 418 416
f 419 420 418
f 421 422 423
f 424 425 422
f 426 427 428
f 429 430 427
f 431 432 430
f 433 434 432
f 435 436 437
f 438 439 436
f 440 441 442
f 443 444 441
f 445 446 447
f 445 357 448
f 389 388 391
f 394 449 391
f 396 391 364
f 364 450 451
f 357 452 397
f 366 453 352
f 402 400 351
f 372 371 403
f 375 405 373
f 407 406 408
f 382 381 383
f 391 454 455
f 411 409 387
f 412 456 387
f 414 413 415
f 418 417 419
f 457 458 459
f 460 461 458
f 462 423 463
f 422 421 424
f 464 465 425
f 466 467 465
f 427 426 429
f 432 431 433
f 351 358 468
f 469 470 471
f 469 472 473
f 474 475 476
f 477 478 475
f 479 437 478
f 436 435 438
f 441 440 443
f 480 390 444
f 445 481 482
f 445 483 446
f 445 484 485
f 448 486 445
f 449 392 391
f 396 487 391
f 364 488 450
f 364 489 490
f 357 398 355
f 357 445 491
f 352 453 492
f 401 367 351
f 404 403 405
f 380 408 378
f 493 494 495
f 496 497 494
f 391 498 499
f 391 500 501
f 391 502 503
f 455 504 391
f 391 505 506
f 391 507 508
f 456 410 387
f 416 415 417
f 509 510 420
f 511 512 510
f 513 514 512
f 515 516 514
f 517 518 516
f 519 520 518
f 458 457 460
f 521 463 461
f 423 462 421
f 465 464 466
f 430 429 431
f 433 522 523
f 433 524 525
f 351 526 524
f 468 527 351
f 469 528 470
f 469 529 530
f 473 531 469
f 532 533 534
f 475 474 477
f 437 479 435
f 535 442 439
f 444 443 480
f 482 536 445
f 445 537 538
f 485 483 445
f 486 539 445
f 487 393 391
f 490 488 364
f 364 540 541
f 491 452 357
f 399 542 358
f 377 376 406
f 543 495 386
f 494 493 496
f 391 544 498
f 391 545 546
f 503 500 391
f 504 502 391
f 508 505 391
f 362 361 413
f 510 509 511
f 514 513 515
f 518 517 519
f 547 459 520
f 461 460 521
f 425 424 464
f 548 549 550
f 551 552 549
f 433 553 434
f 523 554 433
f 524 433 351
f 527 555 351
f 471 556 469
f 531 529 469
f 534 469 557
f 532 558 559
f 560 561 562
f 563 476 561
f 478 477 479
f 442 535 440
f 538 481 445
f 539 484 445
f 451 395 364
f 355 540 364
f 358 564 565
f 370 351 368
f 495 543 493
f 546 544 391
f 454 469 455
f 409 507 391
f 512 511 513
f 520 519 547
f 463 521 462
f 566 567 467
f 568 550 567
f 549 548 551
f 569 428 552
f 554 553 433
f 555 526 351
f 530 528 469
f 469 570 571
f 469 534 572
f 558 532 573
f 532 574 533
f 559 575 532
f 561 560 563
f 439 438 535
f 447 537 445
f 541 489 364
f 358 576 564
f 358 542 577
f 386 385 543
f 578 562 497
f 391 579 580
f 501 545 391
f 391 581 582
f 420 419 509
f 459 547 457
f 567 566 568
f 552 551 569
f 525 522 433
f 571 472 469
f 572 583 469
f 573 584 558
f 575 574 532
f 476 563 474
f 390 480 388
f 577 576 358
f 497 496 578
f 499 579 391
f 506 581 391
f 467 466 566
f 428 569 426
f 583 570 469
f 534 557 532
f 536 352 445
f 492 445 352
f 582 454 391
f 550 568 548
f 584 358 558
f 565 558 358
f 516 515 517
f 562 578 560
f 556 455 469
f 580 364 391
f 585 586 587
f 588 587 589
f 590 589 591
f 592 591 593
f 594 593 595
f 596 595 597
f 598 597 599
f 600 599 601
f 602 601 603
f 604 603 605
f 606 605 607
f 608 607 609
f 610 609 611
f 612 611 613
f 614 613 615
f 616 615 617
f 618 617 619
f 620 619 621
f 622 621 623
f 624 623 625
f 626 625 627
f 628 627 629
f 630 629 631
f 632 631 633
f 634 633 635
f 636 635 637
f 638 637 639
f 640 639 641
f 642 641 643
f 643 644 642
f 641 642 640
f 639 640 638
f 637 638 636
f 635 636 634
f 633 634 632
f 631 632 630
f 629 630 628
f 627 628 626
f 625 626 624
f 623 624 622
f 621 622 620
f 619 620 618
f 617 618 616
f 615 616 614
f 613 614 612
f 611 612 610
f 609 610 608
f 607 608 606
f 605 606 604
f 603 604 602
f 601 602 600
f 599 600 598
f 597 598 596
f 595 596 594
f 593 594 592
f 591 592 590
f 589 590 588
f 587 588 585
f 645 646 647
f 648 647 649
f 650 649 651
f 652 651 653
f 654 653 655
f 656 655 657
f 658 657 659
f 660 659 661
f 662 661 663
f 664 663 665
f 666 665 667
f 668 667 669
f 670 669 671
f 672 671 673
f 674 673 675
f 676 675 677
f 678 677 679
f 680 679 681
f 682 681 683
f 684 683 685
f 686 685 687
f 688 687 689
f 690 689 691
f 692 691 693
f 694 693 695
f 696 695 697
f 698 697 699
f 700 699 701
f 702 701 703
f 703 704 702
f 701 702 700
f 699 700 698
f 697 698 696
f 695 696 694
f 693 694 692
f 691 692 690
f 689 690 688
f 687 688 686
f 685 686 684
f 683 684 682
f 681 682 680
f 679 680 678
f 677 678 676
f 675 676 674
f 673 674 672
f 671 672 670
f 669 670 668
f 667 668 666
f 665 666 664
f 663 664 662
f 661 662 660
f 659 660 658
f 657 658 656
f 655 656 654
f 653 654 652
f 651 652 650
f 649 650 648
f 647 648 645
f 705 706 707
f 708 705 709
f 710 708 711
f 712 710 713
f 714 712 715
f 716 714 717
f 718 716 719
f 720 718 721
f 722 720 723
f 724 722 725
f 726 724 727
f 728 726 729
f 730 728 731
f 732 730 733
f 734 732 735
f 736 734 737
f 738 736 739
f 740 738 741
f 742 740 743
f 744 742 745
f 746 744 747
f 748 746 749
f 750 748 751
f 752 750 753
f 754 752 755
f 756 754 757
f 758 756 759
f 760 758 761
f 762 760 763
f 764 762 765
f 766 764 767
f 768 766 769
f 770 768 771
f 772 770 773
f 774 772 775
f 776 774 777
f 778 776 779
f 780 778 781
f 782 780 783
f 784 782 785
f 786 784 787
f 788 786 789
f 790 788 791
f 792 790 793
f 794 792 795
f 796 794 797
f 798 796 799
f 800 798 801
f 802 800 803
f 804 802 805
f 806 804 807
f 808 806 809
f 810 808 811
f 812 810 813
f 814 812 815
f 816 814 817
f 818 816 819
f 706 818 820
f 820 707 706
f 819 820 818
f 817 819 816
f 815 817 814
f 813 815 812
f 811 813 810
f 809 811 808
f 807 809 806
f 805 807 804
f 803 805 802
f 801 803 800
f 799 801 798
f 797 799 796
f 795 797 794
f 793 795 792
f 791 793 790
f 789 791 788
f 787 789 786
f 785 787 784
f 783 785 782
f 781 783 780
f 779 781 778
f 777 779 776
f 775 777 774
f 773 775 772
f 771 773 770
f 769 771 768
f 767 769 766
f 765 767 764
f 763 765 762
f 761 763 760
f 759 761 758
f 757 759 756
f 755 757 754
f 753 755 752
f 751 753 750
f 749 751 748
f 747 749 746
f 745 747 744
f 743 745 742
f 741 743 740
f 739 741 738
f 737 739 736
f 735 737 734
f 733 735 732
f 731 733 730
f 729 731 728
f 727 729 726
f 725 727 724
f 723 725 722
f 721 723 720
f 719 721 718
f 717 719 716
f 715 717 714
f 713 715 712
f 711 713 710
f 709 711 708
f 707 709 705
f 821 822 823
f 824 821 825
f 826 824 827
f 828 826 829
f 830 828 831
f 832 830 833
f 834 832 835
f 836 834 837
f 838 836 839
f 840 838 841
f 842 840 843
f 844 842 845
f 846 844 847
f 848 846 849
f 850 848 851
f 852 850 853
f 854 852 855
f 856 854 857
f 858 856 859
f 860 858 861
f 862 860 863
f 864 862 865
f 866 864 867
f 868 866 869
f 870 868 871
f 872 870 873
f 874 872 875
f 876 874 877
f 878 876 879
f 880 878 881
f 882 880 883
f 884 882 885
f 886 884 887
f 888 886 889
f 890 888 891
f 892 890 893
f 894 892 895
f 896 894 897
f 898 896 899
f 900 898 901
f 902 900 903
f 904 902 905
f 906 904 907
f 908 906 909
f 910 908 911
f 912 910 913
f 914 912 915
f 916 914 917
f 918 916 919
f 920 918 921
f 922 920 923
f 924 922 925
f 926 924 927
f 928 926 929
f 930 928 931
f 932 930 933
f 934 932 935
f 822 934 936
f 936 823 822
f 935 936 934
f 933 935 932
f 931 933 930
f 929 931 928
f 927 929 926
f 925 927 924
f 923 925 922
f 921 923 920
f 919 921 918
f 917 919 916
f 915 917 914
f 913 915 912
f 911 913 910
f 909 911 908
f 907 909 906
f 905 907 904
f 903 905 902
f 901 903 900
f 899 901 898
f 897 899 896
f 895 897 894
f 893 895 892
f 891 893 890
f 889 891 888
f 887 889 886
f 885 887 884
f 883 885 882
f 881 883 880
f 879 881 878
f 877 879 876
f 875 877 874
f 873 875 872
f 871 873 870
f 869 871 868
f 867 869 866
f 865 867 864
f 863 865 862
f 861 863 860
f 859 861 858
f 857 859 856
f 855 857 854
f 853 855 852
f 851 853 850
f 849 851 848
f 847 849 846
f 845 847 844
f 843 845 842
f 841 843 840
f 839 841 838
f 837 839 836
f 835 837 834
f 833 835 832
f 831 833 830
f 829 831 828
f 827 829 826
f 825 827 824
f 823 825 821
f 937 938 939
f 939 940 941
f 937 942 938
f 939 941 937
f 937 943 942
f 939 944 940
f 945 946 947
f 945 940 948
f 943 949 942
f 948 946 945
f 950 951 952
f 943 953 949
f 954 955 945
f 954 956 957
f 954 958 959
f 950 960 951
f 944 961 940
f 957 955 954
f 959 962 954
f 954 963 964
f 952 965 950
f 966 967 968
f 953 969 970
f 943 969 953
f 971 972 973
f 962 956 954
f 964 974 954
f 954 975 976
f 965 977 975
f 965 978 979
f 950 980 960
f 950 981 982
f 981 983 984
f 968 981 966
f 961 948 940
f 973 985 971
f 974 958 954
f 975 954 965
f 965 986 978
f 965 987 988
f 965 989 990
f 965 991 992
f 965 993 994
f 952 995 965
f 950 996 997
f 981 998 982
f 981 999 983
f 966 1000 967
f 966 1001 1002
f 966 1003 1004
f 966 1005 1006
f 985 953 971
f 976 963 954
f 988 986 965
f 992 989 965
f 994 1007 965
f 965 1008 1009
f 995 1010 965
f 997 1011 950
f 950 1012 1013
f 950 1014 1015
f 950 1016 1017
f 981 1018 998
f 981 1019 1020
f 981 1021 1022
f 984 1023 981
f 966 1024 1000
f 1002 1025 966
f 966 1026 1003
f 966 1027 1028
f 966 1029 1005
f 947 954 945
f 990 987 965
f 1009 993 965
f 1011 980 950
f 950 1030 1031
f 1013 1032 950
f 1017 1014 950
f 982 1033 950
f 1022 1019 981
f 981 1034 999
f 968 1035 981
f 966 1036 1001
f 966 1037 1038
f 1028 1026 966
f 1006 1039 966
f 965 1040 1029
f 965 1041 1042
f 965 954 1043
f 972 1044 1045
f 970 971 953
f 1007 991 965
f 950 1046 996
f 1031 1047 950
f 950 972 1048
f 1015 1012 950
f 1020 1018 981
f 981 1049 1050
f 1035 1034 981
f 1038 1036 966
f 1004 1051 966
f 1029 966 965
f 972 1052 1053
f 972 1054 1055
f 965 1056 1057
f 1043 1041 965
f 971 1044 972
f 1010 1008 965
f 950 1058 1059
f 950 1060 1061
f 1048 1030 950
f 1033 1016 950
f 1050 1062 981
f 1025 1024 966
f 1039 1027 966
f 972 1063 1052
f 1055 1064 972
f 1042 1056 965
f 979 977 965
f 950 1065 1066
f 1061 1058 950
f 1047 1067 950
f 1062 1021 981
f 1051 1037 966
f 1064 1063 972
f 1045 1054 972
f 950 1068 1065
f 1067 1060 950
f 1023 1049 981
f 1057 1040 965
f 1059 1068 950
f 1053 1048 972
f 1032 972 950
f 1066 1046 950
f 1069 1070 1071
f 1071 1072 1069
f 1073 1074 1072
f 1071 1073 1072
f 1075 1076 1070
f 1075 1077 1076
f 1069 1075 1070
f 1073 1078 1074
f 1075 1079 1077
f 1080 1081 1082
f 1077 1083 1084
f 1081 1080 1085
f 1082 1078 1080
f 1086 1087 1088
f 1081 1089 1090
f 1077 1079 1083
f 1073 1080 1078
f 1088 1091 1086
f 1081 1092 1089
f 1085 1093 1081
f 1091 1094 1086
f 1081 1095 1092
f 1081 1093 1096
f 1094 1077 1086
f 1081 1097 1098
f 1096 1095 1081
f 1084 1086 1077
f 1081 1099 1097
f 1086 1100 1087
f 1090 1099 1081
f 1101 1102 1103
f 1100 1104 1105
f 1100 1106 1107
f 1108 1109 1110
f 1109 1111 1112
f 1113 1114 1115
f 1103 1102 1081
f 1116 1117 1101
f 1107 1104 1100
f 1100 1118 1119
f 1116 1120 1121
f 1116 1122 1123
f 1109 1124 1110
f 1112 1125 1109
f 1113 1126 1111
f 1115 1127 1113
f 1113 1128 1129
f 1128 1130 1131
f 1108 1116 1132
f 1103 1116 1101
f 1119 1106 1100
f 1116 1133 1120
f 1123 1134 1116
f 1113 1135 1136
f 1113 1137 1138
f 1108 1139 1140
f 1108 1141 1142
f 1108 1143 1144
f 1110 1145 1108
f 1111 1109 1113
f 1113 1146 1147
f 1113 1148 1114
f 1128 1149 1129
f 1128 1150 1130
f 1128 1151 1152
f 1128 1153 1154
f 1132 1128 1108
f 1105 1087 1100
f 1134 1133 1116
f 1136 1100 1113
f 1138 1155 1113
f 1108 1156 1157
f 1108 1158 1159
f 1142 1139 1108
f 1108 1160 1161
f 1108 1162 1143
f 1145 1163 1108
f 1109 1164 1165
f 1109 1166 1167
f 1109 1168 1169
f 1147 1126 1113
f 1113 1170 1171
f 1127 1172 1113
f 1129 1173 1113
f 1128 1174 1175
f 1128 1176 1150
f 1128 1177 1178
f 1154 1151 1128
f 1132 1179 1128
f 1121 1117 1116
f 1155 1135 1113
f 1159 1156 1108
f 1108 1180 1141
f 1108 1181 1160
f 1163 1162 1108
f 1109 1182 1183
f 1109 1184 1164
f 1169 1166 1109
f 1109 1185 1186
f 1113 1187 1146
f 1171 1188 1113
f 1173 1148 1113
f 1131 1174 1128
f 1128 1189 1177
f 1179 1153 1128
f 1136 1118 1100
f 1157 1116 1108
f 1140 1190 1108
f 1144 1181 1108
f 1165 1182 1109
f 1186 1168 1109
f 1188 1187 1113
f 1113 1191 1192
f 1175 1149 1128
f 1152 1189 1128
f 1157 1122 1116
f 1161 1180 1108
f 1167 1184 1109
f 1113 1100 1170
f 1113 1193 1191
f 1178 1176 1128
f 1190 1158 1108
f 1109 1194 1195
f 1125 1185 1109
f 1192 1196 1113
f 1113 1197 1198
f 1098 1103 1081
f 1183 1194 1109
f 1113 1199 1200
f 1198 1193 1113
f 1195 1124 1109
f 1196 1199 1113
f 1200 1137 1113
f 1172 1197 1113
f 1201 1202 1203
f 1203 1204 1201
f 1205 1206 1207
f 1207 1208 1205
f 1209 1210 1211
f 1211 1212 1209
f 1213 1214 1215
f 1215 1216 1213
f 1217 1218 1219
f 1219 1220 1217
f 1221 1222 1223
f 1223 1224 1221
f 1225 1226 1227
f 1227 1228 1225
f 1229 1230 1231
f 1231 1232 1229
f 1233 1234 1235
f 1236 1233 1237
f 1238 1236 1239
f 1240 1238 1241
f 1242 1240 1243
f 1244 1242 1245
f 1246 1244 1247
f 1248 1246 1249
f 1250 1248 1251
f 1252 1250 1253
f 1254 1252 1255
f 1256 1254 1257
f 1258 1256 1259
f 1260 1258 1261
f 1262 1260 1263
f 1263 1264 1262
f 1261 1263 1260
f 1259 1261 1258
f 1257 1259 1256
f 1255 1257 1254
f 1253 1255 1252
f 1251 1253 1250
f 1249 1251 1248
f 1247 1249 1246
f 1245 1247 1244
f 1243 1245 1242
f 1241 1243 1240
f 1239 1241 1238
f 1237 1239 1236
f 1235 1237 1233
f 1265 1266 1267
f 1268 1265 1269
f 1270 1268 1271
f 1272 1270 1273
f 1274 1272 1275
f 1276 1274 1277
f 1278 1276 1279
f 1280 1278 1281
f 1282 1280 1283
f 1284 1282 1285
f 1286 1284 1287
f 1288 1286 1289
f 1290 1288 1291
f 1292 1290 1293
f 1294 1292 1295
f 1295 1296 1294
f 1293 1295 1292
f 1291 1293 1290
f 1289 1291 1288
f 1287 1289 1286
f 1285 1287 1284
f 1283 1285 1282
f 1281 1283 1280
f 1279 1281 1278
f 1277 1279 1276
f 1275 1277 1274
f 1273 1275 1272
f 1271 1273 1270
f 1269 1271 1268
f 1267 1269 1265
f 1297 1298 1299
f 1300 1297 1301
f 1302 1300 1303
f 1304 1302 1305
f 1306 1304 1307
f 1308 1306 1309
f 1310 1308 1311
f 1312 1310 1313
f 1314 1312 1315
f 1316 1314 1317
f 1318 1316 1319
f 1320 1318 1321
f 1322 1320 1323
f 1324 1322 1325
f 1326 1324 1327
f 1327 1328 1326
f 1325 1327 1324
f 1323 1325 1322
f 1321 1323 1320
f 1319 1321 1318
f 1317 1319 1316
f 1315 1317 1314
f 1313 1315 1312
f 1311 1313 1310
f 1309 1311 1308
f 1307 1309 1306
f 1305 1307 1304
f 1303 1305 1302
f 1301 1303 1300
f 1299 1301 1297
f 1329 1330 1331
f 1332 1329 1333
f 1334 1332 1335
f 1336 1334 1337
f 1338 1336 1339
f 1340 1338 1341
f 1342 1340 1343
f 1344 1342 1345
f 1346 1344 1347
f 1348 1346 1349
f 1350 1348 1351
f 1352 1350 1353
f 1354 1352 1355
f 1356 1354 1357
f 1358 1356 1359
f 1359 1360 1358
f 1357 1359 1356
f 1355 1357 1354
f 1353 1355 1352
f 1351 1353 1350
f 1349 1351 1348
f 1347 1349 1346
f 1345 1347 1344
f 1343 1345 1342
f 1341 1343 1340
f 1339 1341 1338
f 1337 1339 1336
f 1335 1337 1334
f 1333 1335 1332
f 1331 1333 1329
f 1361 1362 1363
f 1364 1361 1365
f 1366 1364 1367
f 1368 1366 1369
f 1370 1368 1371
f 1372 1370 1373
f 1374 1372 1375
f 1376 1374 1377
f 1378 1376 1379
f 1380 1378 1381
f 1382 1380 1383
f 1384 1382 1385
f 1386 1384 1387
f 1388 1386 1389
f 1390 1388 1391
f 1391 1392 1390
f 1389 1391 1388
f 1387 1389 1386
f 1385 1387 1384
f 1383 1385 1382
f 1381 1383 1380
f 1379 1381 1378
f 1377 1379 1376
f 1375 1377 1374
f 1373 1375 1372
f 1371 1373 1370
f 1369 1371 1368
f 1367 1369 1366
f 1365 1367 1364
f 1363 1365 1361
f 1393 1394 1395
f 1396 1393 1397
f 1398 1396 1399
f 1400 1398 1401
f 1402 1400 1403
f 1404 1402 1405
f 1406 1404 1407
f 1408 1406 1409
f 1410 1408 1411
f 1412 1410 1413
f 1414 1412 1415
f 1416 1414 1417
f 1418 1416 1419
f 1420 1418 1421
f 1422 1420 1423
f 1423 1424 1422
f 1421 1423 1420
f 1419 1421 1418
f 1417 1419 1416
f 1415 1417 1414
f 1413 1415 1412
f 1411 1413 1410
f 1409 1411 1408
f 1407 1409 1406
f 1405 1407 1404
f 1403 1405 1402
f 1401 1403 1400
f 1399 1401 1398
f 1397 1399 1396
f 1395 1397 1393
f 1425 1426 1427
f 1428 1425 1429
f 1430 1428 1431
f 1432 1430 1433
f 1434 1432 1435
f 1436 1434 1437
f 1438 1436 1439
f 1440 1438 1441
f 1442 1440 1443
f 1444 1442 1445
f 1446 1444 1447
f 1448 1446 1449
f 1450 1448 1451
f 1452 1450 1453
f 1454 1452 1455
f 1455 1456 1454
f 1453 1455 1452
f 1451 1453 1450
f 1449 1451 1448
f 1447 1449 1446
f 1445 1447 1444
f 1443 1445 1442
f 1441 1443 1440
f 1439 1441 1438
f 1437 1439 1436
f 1435 1437 1434
f 1433 1435 1432
f 1431 1433 1430
f 1429 1431 1428
f 1427 1429 1425
f 1457 1458 1459
f 1460 1457 1461
f 1462 1460 1463
f 1464 1462 1465
f 1466 1464 1467
f 1468 1466 1469
f 1470 1468 1471
f 1472 1470 1473
f 1474 1472 1475
f 1476 1474 1477
f 1478 1476 1479
f 1480 1478 1481
f 1482 1480 1483
f 1484 1482 1485
f 1486 1484 1487
f 1487 1488 1486
f 1485 1487 1484
f 1483 1485 1482
f 1481 1483 1480
f 1479 1481 1478
f 1477 1479 1476
f 1475 1477 1474
f 1473 1475 1472
f 1471 1473 1470
f 1469 1471 1468
f 1467 1469 1466
f 1465 1467 1464
f 1463 1465 1462
f 1461 1463 1460
f 1459 1461 1457
