v 0.0564091094 0.0271406323 0.283233285
v 0.0564064458 0.0272856653 0.283251345
v 0.070763804 0.0301870629 0.262049943
v 0.0563986339 0.0269972999 0.283206582
v 0.0707664639 0.0300420299 0.262031883
v 0.0563751459 0.02685735 0.283171535
v 0.0707559884 0.0298986975 0.26200518
v 0.0563389212 0.02672242 0.28312853
v 0.0707324967 0.0297587458 0.261970133
v 0.0562903807 0.0265940931 0.283078104
v 0.070696272 0.0296238158 0.261927128
v 0.056230098 0.0264738761 0.283020824
v 0.0706477314 0.0294954907 0.261876702
v 0.0561587736 0.0263631754 0.282957375
v 0.0705874488 0.0293752719 0.261819422
v 0.0560772493 0.0262632892 0.282888502
v 0.0705161244 0.0292645711 0.261755973
v 0.0559864789 0.0261753909 0.282815009
v 0.0704346001 0.0291646868 0.2616871
v 0.0558875278 0.0261005089 0.282737732
v 0.0703438371 0.0290767867 0.261613607
v 0.0557815582 0.0260395221 0.282657623
v 0.070244886 0.0290019047 0.26153633
v 0.0556698069 0.0259931441 0.282575607
v 0.0701389089 0.0289409179 0.261456221
v 0.0555535853 0.0259619206 0.282492638
v 0.0700271577 0.0288945418 0.261374205
v 0.0554342568 0.0259462167 0.282409668
v 0.0699109361 0.0288633183 0.261291236
v 0.0553132221 0.0259462167 0.282327712
v 0.0697916076 0.0288476143 0.261208266
v 0.0551919006 0.0259619206 0.282247692
v 0.0696705803 0.0288476143 0.26112631
v 0.0550717153 0.0259931441 0.282170594
v 0.0695492551 0.0288633183 0.26104629
v 0.0549540669 0.0260395221 0.28209728
v 0.0694290698 0.0288945418 0.260969192
v 0.0548403449 0.0261005089 0.282028615
v 0.0693114251 0.0289409179 0.260895878
v 0.0547318794 0.0261753909 0.281965405
v 0.0691976994 0.0290019047 0.260827214
v 0.0546299405 0.0262632892 0.281908393
v 0.0690892339 0.0290767867 0.260764003
v 0.0545357242 0.0263631754 0.281858265
v 0.068987295 0.0291646868 0.260706991
v 0.0544503331 0.0264738761 0.281815588
v 0.068893075 0.0292645711 0.260656863
v 0.0543747731 0.0265940931 0.281780869
v 0.0688076913 0.0293752719 0.260614187
v 0.0543099269 0.02672242 0.281754524
v 0.0687321275 0.0294954907 0.260579467
v 0.0542565547 0.02685735 0.281736851
v 0.0686672777 0.0296238158 0.260553122
v 0.0542152822 0.0269972999 0.281728029
v 0.0686139092 0.0297587458 0.260535449
v 0.0541865937 0.0271406323 0.281728238
v 0.068572633 0.0298986975 0.260526627
v 0.0541708283 0.0272856653 0.281737387
v 0.0685439482 0.0300420299 0.260526836
v 0.0541681647 0.0274306983 0.281755447
v 0.0685281828 0.0301870629 0.260535985
v 0.0541786402 0.0275740307 0.28178215
v 0.0685255155 0.0303320941 0.260554045
v 0.0542021282 0.0277139824 0.281817198
v 0.068535991 0.0304754265 0.260580748
v 0.0542383529 0.0278489105 0.281860203
v 0.0685594827 0.0306153782 0.260615796
v 0.0542868935 0.0279772375 0.281910628
v 0.0685957074 0.0307503082 0.260658801
v 0.0543471798 0.0280974563 0.281967908
v 0.0686442479 0.0308786351 0.260709226
v 0.0544185005 0.028208157 0.282031357
v 0.0687045306 0.0309988521 0.260766506
v 0.0545000248 0.0283080414 0.28210023
v 0.068775855 0.0311095528 0.260829955
v 0.0545907952 0.0283959415 0.282173723
v 0.0688573793 0.031209439 0.260898829
v 0.0546897464 0.0284708217 0.282251
v 0.0689481497 0.0312973373 0.260972321
v 0.0547957197 0.0285318103 0.282331109
v 0.0690471008 0.0313722193 0.261049598
v 0.0549074709 0.0285781864 0.282413125
v 0.0691530704 0.0314332061 0.261129707
v 0.0550236888 0.0286094099 0.282496095
v 0.0692648217 0.0314795822 0.261211723
v 0.0551430173 0.0286251139 0.282579064
v 0.0693810433 0.0315108076 0.261294693
v 0.055264052 0.0286251139 0.282661021
v 0.0695003718 0.0315265097 0.261377662
v 0.0553853735 0.0286094099 0.28274104
v 0.0696214065 0.0315265097 0.261459619
v 0.0555055626 0.0285781864 0.282818139
v 0.0697427243 0.0315108076 0.261539638
v 0.0556232072 0.0285318103 0.282891452
v 0.0698629171 0.0314795822 0.261616737
v 0.0557369292 0.0284708217 0.282960147
v 0.0699805617 0.0314332061 0.26169005
v 0.0558453947 0.0283959415 0.283023328
v 0.0700942799 0.0313722193 0.261758745
v 0.0559473336 0.0283080414 0.283080339
v 0.0702027455 0.0312973373 0.261821926
v 0.0560415499 0.028208157 0.283130467
v 0.0703046843 0.031209439 0.261878937
v 0.056126941 0.0280974563 0.283173144
v 0.0703989044 0.0311095528 0.261929065
v 0.0562025011 0.0279772375 0.283207864
v 0.0704842955 0.0309988521 0.261971742
v 0.0562673472 0.0278489105 0.283234209
v 0.0705598518 0.0308786351 0.262006462
v 0.0563207194 0.0277139824 0.283251882
v 0.0706247017 0.0307503082 0.262032807
v 0.0563619919 0.0275740307 0.283260703
v 0.0706780702 0.0306153782 0.26205048
v 0.0563906804 0.0274306983 0.283260494
v 0.0707193464 0.0304754265 0.262059301
v 0.0707480311 0.0303320941 0.262059093
v 0.0552138761 0.029767774 0.282783419
v 0.0549900047 0.0297639854 0.282631278
v 0.0551430173 0.0286251139 0.282579064
v 0.0547696315 0.0297311414 0.282477558
v 0.0550236888 0.0286094099 0.282496095
v 0.0558802411 0.0296060611 0.283212543
v 0.0556616224 0.0296883471 0.28307575
v 0.0555055626 0.0285781864 0.282818139
v 0.0554386303 0.0297424626 0.282932162
v 0.0553853735 0.0286094099 0.28274104
v 0.055264052 0.0286251139 0.282661021
v 0.0407777317 0.0248945523 0.272340536
v 0.0544185005 0.028208157 0.282031357
v 0.0545000248 0.0283080414 0.28210023
v 0.0560919233 0.029496571 0.283340901
v 0.0556232072 0.0285318103 0.282891452
v 0.0547957197 0.0285318103 0.282331109
v 0.0549074709 0.0285781864 0.282413125
v 0.0542868935 0.0279772375 0.281910628
v 0.0543471798 0.0280974563 0.281967908
v 0.0397598706 0.025295807 0.271706164
v 0.0398791991 0.025311511 0.271789104
v 0.0242419932 0.0231039338 0.260897666
v 0.0395318978 0.0252182055 0.271541148
v 0.0396436527 0.0252645835 0.271623164
v 0.0545907952 0.0283959415 0.282173723
v 0.0546897464 0.0284708217 0.282251
v 0.0410981737 0.0242604259 0.272470742
v 0.0411268622 0.0241170935 0.272470564
v 0.0542152822 0.0269972999 0.281728029
v 0.0567696691 0.0254152156 0.283241332
v 0.0569182783 0.02560292 0.283367664
v 0.0561587736 0.0263631754 0.282957375
v 0.0570477806 0.0258103535 0.283483744
v 0.056230098 0.0264738761 0.283020824
v 0.0400002338 0.025311511 0.27187106
v 0.0392362066 0.0249944385 0.2713103
v 0.039326977 0.0250823367 0.271383792
v 0.0389043465 0.0241170935 0.270965487
v 0.038914822 0.0242604259 0.27099219
v 0.0240277052 0.0230424181 0.260744125
v 0.0243798327 0.0219509788 0.260833234
v 0.0238220152 0.0229529534 0.26059258
v 0.0242680814 0.0219046026 0.260751188
v 0.0236273333 0.0228365865 0.26044482
v 0.0241621081 0.0218436141 0.260671079
v 0.0234459415 0.0226946846 0.260302573
v 0.0240631569 0.021768732 0.260593832
v 0.0232799686 0.0225289073 0.260167509
v 0.0231313594 0.0223412029 0.260041177
v 0.0238908641 0.0215809494 0.260451466
v 0.0230018552 0.0221337695 0.259925097
v 0.0238195416 0.0214702487 0.260388017
v 0.0248357598 0.0181763489 0.260625422
v 0.025059633 0.0181801375 0.260777533
v 0.0249066204 0.019319009 0.260829777
v 0.0252800062 0.0182129815 0.260931253
v 0.025025947 0.019334713 0.260912716
v 0.0410569012 0.0244003776 0.272461951
v 0.0541865937 0.0271406323 0.281728238
v 0.0541708283 0.0272856653 0.281737387
v 0.0558076426 0.024840191 0.282511175
v 0.0560219325 0.0249017049 0.282664716
v 0.0556698069 0.0259931441 0.282575607
v 0.0562276244 0.0249911714 0.282816231
v 0.0557815582 0.0260395221 0.282657623
v 0.0564223044 0.0251075365 0.282963991
v 0.0558875278 0.0261005089 0.282737732
v 0.0566036962 0.0252494402 0.283106267
v 0.0559864789 0.0261753909 0.282815009
v 0.0560772493 0.0262632892 0.282888502
v 0.0571566597 0.0260350835 0.283588231
v 0.0562903807 0.0265940931 0.283078104
v 0.0394259281 0.0251572188 0.27146104
v 0.0390230753 0.0246636346 0.271120697
v 0.0390833616 0.0247838516 0.271177977
v 0.03893831 0.0244003776 0.271027267
v 0.0389745347 0.0245353077 0.271070242
v 0.0389070101 0.0239720624 0.270947456
v 0.0246153791 0.0219979063 0.260999143
v 0.0239723884 0.0216808338 0.260520339
v 0.0241693985 0.0183380619 0.260196298
v 0.0243880171 0.0182557777 0.260333091
v 0.0245440751 0.0193659365 0.260590672
v 0.0246110093 0.0182016622 0.260476679
v 0.0246642642 0.019334713 0.260667801
v 0.0572676957 0.0278537925 0.283912301
v 0.0571882948 0.0281119216 0.283893853
v 0.0563207194 0.0277139824 0.283251882
v 0.0570866242 0.028360365 0.283859015
v 0.0562673472 0.0278489105 0.283234209
v 0.0566611178 0.0290192142 0.283661038
v 0.0564846657 0.0292014182 0.283566475
v 0.0559473336 0.0283080414 0.283080339
v 0.0562941879 0.0293611623 0.283459336
v 0.0558453947 0.0283959415 0.283023328
v 0.0557369292 0.0284708217 0.282960147
v 0.0541681647 0.0274306983 0.281755447
v 0.0409386829 0.0246636346 0.272417903
v 0.041003529 0.0245353077 0.272444278
v 0.0555535853 0.0259619206 0.282492638
v 0.0401215553 0.025295807 0.271951079
v 0.0402417444 0.0252645835 0.272028208
v 0.0391546823 0.0248945523 0.271241397
v 0.0244960524 0.0219822023 0.260916203
v 0.0227015559 0.0211582426 0.259588212
v 0.0226853155 0.0208922271 0.259540826
v 0.0236405283 0.0208034907 0.260175526
v 0.0226934105 0.0206234697 0.259509534
v 0.02364319 0.0206584577 0.260157496
v 0.022725746 0.0203551222 0.259494692
v 0.0236589573 0.0205134246 0.260148317
v 0.022781942 0.0200903323 0.25949651
v 0.0236876458 0.0203700922 0.260148138
v 0.0247855857 0.019319009 0.26074782
v 0.0251421668 0.0193659365 0.260995716
v 0.0255496129 0.0196360815 0.261308581
v 0.0254588425 0.0195481833 0.261235088
v 0.025881473 0.0205134246 0.261653394
v 0.0402897671 0.0226483177 0.271702677
v 0.0407226607 0.0228617862 0.272025049
v 0.0406237096 0.0227869041 0.271947801
v 0.0569638722 0.0285962075 0.283808172
v 0.0562025011 0.0279772375 0.283207864
v 0.0568214804 0.0288166851 0.283741921
v 0.056126941 0.0280974563 0.283173144
v 0.0560415499 0.028208157 0.283130467
v 0.0542021282 0.0277139824 0.281817198
v 0.0542383529 0.0278489105 0.281860203
v 0.0541786402 0.0275740307 0.28178215
v 0.0554342568 0.0259462167 0.282409668
v 0.0553132221 0.0259462167 0.282327712
v 0.038951464 0.023683697 0.270938098
v 0.0389227755 0.0238270294 0.270938277
v 0.022806 0.0216696467 0.259728938
v 0.0227419417 0.0214184001 0.259651184
v 0.0236744899 0.0210867748 0.260237306
v 0.023651002 0.0209468231 0.260202259
v 0.0252539199 0.0194123145 0.261077732
v 0.0253598914 0.0194733012 0.26115784
v 0.0256311372 0.0197359677 0.261377454
v 0.040405985 0.0226795413 0.271785647
v 0.0405177362 0.0227259174 0.271867692
v 0.0409662761 0.0231602713 0.272230864
v 0.0408949554 0.0230495706 0.272167414
v 0.0573562272 0.0273206532 0.283899307
v 0.0573238917 0.0275890008 0.283914119
v 0.0563906804 0.0274306983 0.283260494
v 0.0563619919 0.0275740307 0.283260703
v 0.0408631228 0.0247838516 0.272383183
v 0.0411426276 0.0239720624 0.272461385
v 0.0548403449 0.0261005089 0.282028615
v 0.0547318794 0.0261753909 0.281965405
v 0.0549540669 0.0260395221 0.28209728
v 0.0551919006 0.0259619206 0.282247692
v 0.0572436377 0.0262744762 0.283679903
v 0.0563389212 0.02672242 0.28312853
v 0.0573076941 0.0265257228 0.283757657
v 0.0563751459 0.02685735 0.283171535
v 0.0405815765 0.0250823367 0.272233397
v 0.0406835154 0.0249944385 0.272290379
v 0.040359389 0.0252182055 0.272101521
v 0.040473111 0.0251572188 0.272170186
v 0.022892978 0.0219090395 0.25982061
v 0.023759257 0.0213500299 0.260330737
v 0.0237107165 0.0212217029 0.260280311
v 0.0228613429 0.0198322013 0.259514958
v 0.0237289183 0.0202301424 0.260156929
v 0.0229630135 0.019583758 0.259549826
v 0.0237822905 0.0200952124 0.260174602
v 0.023388518 0.0189249087 0.259747803
v 0.023564972 0.0187427048 0.259842366
v 0.0241023023 0.0196360815 0.260328501
v 0.0237554498 0.0185829625 0.259949476
v 0.024204243 0.0195481833 0.260385484
v 0.0239577144 0.0184475519 0.26006794
v 0.0243127085 0.0194733012 0.260448694
v 0.0244264305 0.0194123145 0.260517359
v 0.0257627424 0.0199668854 0.261498183
v 0.0257024579 0.0198466685 0.261440903
v 0.0258475095 0.0202301424 0.261591613
v 0.0258112829 0.0200952124 0.261548609
v 0.0408134311 0.0229496863 0.272098541
v 0.0230857637 0.0193479154 0.259600669
v 0.0238471366 0.0199668854 0.260200977
v 0.0232281554 0.0191274378 0.25966692
v 0.0239226967 0.0198466685 0.260235667
v 0.024008086 0.0197359677 0.260278344
v 0.041075103 0.0234088153 0.272338569
v 0.0410265625 0.0232804902 0.272288144
v 0.0391109549 0.0232804902 0.270990908
v 0.025095569 0.0219046026 0.261311561
v 0.0252092909 0.0218436141 0.261380225
v 0.0247364137 0.0219979063 0.261081129
v 0.0248577353 0.0219822023 0.261161119
v 0.0543099269 0.02672242 0.281754524
v 0.0542565547 0.02685735 0.281736851
v 0.0545357242 0.0263631754 0.281858265
v 0.0544503331 0.0264738761 0.281815588
v 0.0550717153 0.0259931441 0.282170594
v 0.0411348157 0.023683697 0.272416621
v 0.0411113277 0.0235437453 0.272381574
v 0.0258788094 0.0206584577 0.261671424
v 0.0400494039 0.0226326138 0.271537751
v 0.0399280824 0.0226483177 0.271457762
v 0.0254196972 0.0216808338 0.261500448
v 0.0255139135 0.0215809494 0.261550575
v 0.0253177583 0.021768732 0.261443436
v 0.0249779243 0.0219509788 0.261238247
v 0.0543747731 0.0265940931 0.281780869
v 0.0546299405 0.0262632892 0.281908393
v 0.05734808 0.0267858803 0.283820599
v 0.0563986339 0.0269972999 0.283206582
v 0.0573643222 0.0270518977 0.283868015
v 0.0564091094 0.0271406323 0.283233285
v 0.0390461087 0.0234088153 0.270964563
v 0.0389927365 0.0235437453 0.27094689
v 0.0258709975 0.0203700922 0.261626691
v 0.0411452912 0.0238270294 0.272443324
v 0.0258630421 0.0208034907 0.261680603
v 0.0391865149 0.0231602713 0.271025628
v 0.0395765267 0.0227869041 0.271238655
v 0.0394680612 0.0228617862 0.271175444
v 0.0398078933 0.0226795413 0.271380633
v 0.0396902487 0.0227259174 0.271307319
v 0.0401704386 0.0226326138 0.271619737
v 0.0564064458 0.0272856653 0.283251345
v 0.0258343536 0.0209468231 0.261680782
v 0.0393661223 0.0229496863 0.271118432
v 0.039271906 0.0230495706 0.271068305
v 0.0257397108 0.0212217029 0.261654317
v 0.025793083 0.0210867748 0.26167199
v 0.0256748628 0.0213500299 0.261627972
v 0.0255993027 0.0214702487 0.261593252
v 0.0533088185 0.0265850946 0.249736682
v 0.0402203947 0.0237048864 0.240479201
v 0.0401917063 0.0238482188 0.24047938
v 0.0402361639 0.0235598553 0.240470022
v 0.05328013 0.0267284252 0.249736875
v 0.053350091 0.0264451429 0.249745488
v 0.0402388237 0.0234148223 0.240451977
v 0.0701650009 0.0277415868 0.261309773
v 0.0699109361 0.0288633183 0.261291236
v 0.0700271577 0.0288945418 0.261374205
v 0.0373592079 0.0250351671 0.23872368
v 0.0381768942 0.0243716445 0.239186615
v 0.0381166115 0.0242514275 0.239129335
v 0.0374887139 0.0252426006 0.238839775
v 0.0382482149 0.0244823452 0.239250049
v 0.037803296 0.0255960803 0.239101171
v 0.0384205095 0.0246701296 0.23939243
v 0.0383297391 0.0245822314 0.239318937
v 0.0379846841 0.0257379841 0.239243433
v 0.0385194607 0.0247450117 0.239469692
v 0.0383850597 0.0259438138 0.239542723
v 0.0387371853 0.0248523764 0.239631817
v 0.038625434 0.0248059984 0.239549801
v 0.0385993458 0.0260053296 0.239696249
v 0.0388534069 0.0248836 0.239714801
v 0.0392150879 0.0248836 0.239959717
v 0.0390937664 0.0248993039 0.239879712
v 0.0532643609 0.0268734582 0.24974604
v 0.0395666435 0.0247450117 0.240178823
v 0.0394529216 0.0248059984 0.240110159
v 0.0534034632 0.0263102129 0.249763161
v 0.0396373607 0.0211143792 0.239729866
v 0.0399069674 0.0225374792 0.240107194
v 0.0394995213 0.0222673342 0.239794299
v 0.0396112725 0.0223137103 0.23987633
v 0.0394169874 0.0210815351 0.239576131
v 0.0392639749 0.0222204067 0.239628375
v 0.0393832996 0.0222361106 0.239711329
v 0.0391931124 0.0210777465 0.239424005
v 0.0391429402 0.0222204067 0.239546403
v 0.0385267511 0.0212394595 0.238994896
v 0.038783785 0.0223137103 0.239315957
v 0.0389014296 0.0222673342 0.239389285
v 0.0383150689 0.0213489477 0.238866523
v 0.038670063 0.022374697 0.239247292
v 0.0711270198 0.0283166114 0.26203993
v 0.0704346001 0.0291646868 0.2616871
v 0.0705161244 0.0292645711 0.261755973
v 0.0709610507 0.028150836 0.261904866
v 0.0703438371 0.0290767867 0.261613607
v 0.070379287 0.0278031025 0.261463314
v 0.0701389089 0.0289409179 0.261456221
v 0.0697916076 0.0288476143 0.261208266
v 0.0545277931 0.0255340096 0.250418335
v 0.0546471179 0.0255497135 0.250501275
v 0.0540476032 0.025627315 0.250105917
v 0.0541652478 0.025580937 0.250179231
v 0.0372503288 0.0248104371 0.238619193
v 0.038068071 0.0241231006 0.239078894
v 0.0381793678 0.0258543491 0.239391193
v 0.0389727317 0.0248993039 0.239797756
v 0.0393352769 0.0248523764 0.240036845
v 0.0396751128 0.0246701296 0.240242034
v 0.0400322154 0.0242514275 0.240426555
v 0.0399566554 0.0243716445 0.240391836
v 0.040228352 0.0232714899 0.240425274
v 0.039988488 0.0226373635 0.240176067
v 0.0389683619 0.021103058 0.239275277
v 0.0390216187 0.0222361106 0.239466399
v 0.0387453698 0.0211571734 0.239131674
v 0.0381128006 0.0214843582 0.238748088
v 0.0385615937 0.0224495791 0.239184096
v 0.0707796589 0.0280089341 0.261762589
v 0.070244886 0.0290019047 0.26153633
v 0.0705849752 0.0278925672 0.261614829
v 0.068893075 0.0292645711 0.260656863
v 0.0542854369 0.0255497135 0.25025636
v 0.0371633507 0.0245710444 0.238527536
v 0.0380318426 0.0239881705 0.239035904
v 0.0376373231 0.0254303049 0.238966092
v 0.039871268 0.0244823452 0.240349174
v 0.0401686355 0.0229966082 0.240347221
v 0.040204864 0.0231315382 0.240390211
v 0.0400598124 0.0227480642 0.240239516
v 0.0397172458 0.022374697 0.239956439
v 0.039816197 0.0224495791 0.240033686
v 0.0379223265 0.0216441024 0.238640949
v 0.0384596549 0.0225374792 0.239127085
v 0.0377458706 0.0218263064 0.238546401
v 0.0383654386 0.0226373635 0.239076957
v 0.069126986 0.0326325372 0.261276156
v 0.0693810433 0.0315108076 0.261294693
v 0.0692648217 0.0314795822 0.261211723
v 0.0693473592 0.0326653831 0.261429876
v 0.0695003718 0.0315265097 0.261377662
v 0.068572633 0.0298986975 0.260526627
v 0.0554842129 0.0270184912 0.251269162
v 0.0554555282 0.0271618236 0.251269341
v 0.0555026457 0.0267284252 0.251241922
v 0.0554999821 0.0268734582 0.251259983
v 0.0550800152 0.0257631838 0.250823647
v 0.0551707856 0.0258510821 0.250897139
v 0.0548750907 0.025627315 0.250666291
v 0.0549810641 0.0256883018 0.250746399
v 0.0547633395 0.025580937 0.250584245
v 0.0544067584 0.0255340096 0.250336349
v 0.0397770517 0.0245822314 0.240299031
v 0.040120095 0.0228682831 0.240296796
v 0.0375855081 0.0220288336 0.238465518
v 0.0382800512 0.0227480642 0.23903428
v 0.0374431163 0.0222493131 0.238399267
v 0.0382044911 0.0228682831 0.23899956
v 0.037320368 0.0224851556 0.23834841
v 0.0381396413 0.0229966082 0.238973215
v 0.068535991 0.0304754265 0.260580748
v 0.0685255155 0.0303320941 0.260554045
v 0.0541172251 0.0281972028 0.250504732
v 0.0691530704 0.0314332061 0.261129707
v 0.0690471008 0.0313722193 0.261049598
v 0.069795981 0.0326438583 0.26173076
v 0.0697427243 0.0315108076 0.261539638
v 0.0696214065 0.0315265097 0.261459619
v 0.0700189769 0.0325897448 0.261874348
v 0.0698629171 0.0314795822 0.261616737
v 0.0695492551 0.0288633183 0.26104629
v 0.0696705803 0.0288476143 0.26112631
v 0.0693114251 0.0289409179 0.260895878
v 0.0554686822 0.0264451429 0.251180172
v 0.0554921702 0.0265850946 0.251215219
v 0.0553236306 0.026061669 0.251029462
v 0.0553839132 0.026181886 0.251086742
v 0.0552523099 0.0259509683 0.250966012
v 0.0539338812 0.0256883018 0.250037253
v 0.0536292568 0.0259509683 0.249866903
v 0.0537234731 0.0258510821 0.249917045
v 0.0370589085 0.0240596402 0.238386825
v 0.0380083546 0.0238482188 0.239000842
v 0.0379978828 0.0237048864 0.238974139
v 0.0370992944 0.0243197978 0.238449767
v 0.0534683093 0.026181886 0.249789506
v 0.0535438694 0.026061669 0.249824226
v 0.0372186936 0.0227335989 0.238313556
v 0.0380862691 0.0231315382 0.238955528
v 0.0371392965 0.022991728 0.238295123
v 0.0380450003 0.0232714899 0.238946736
v 0.0695712343 0.0326691717 0.261582017
v 0.0716812462 0.0304903984 0.262712717
v 0.0707480311 0.0303320941 0.262059093
v 0.0707193464 0.0304754265 0.262059301
v 0.0717135817 0.0302220508 0.262697905
v 0.070763804 0.0301870629 0.262049943
v 0.0694290698 0.0288945418 0.260969192
v 0.0690892339 0.0290767867 0.260764003
v 0.0691976994 0.0290019047 0.260827214
v 0.068987295 0.0291646868 0.260706991
v 0.0687321275 0.0294954907 0.260579467
v 0.0688076913 0.0293752719 0.260614187
v 0.0685439482 0.0300420299 0.260526836
v 0.0554324538 0.0263102129 0.251137167
v 0.0538254157 0.0257631838 0.249974042
v 0.0533804297 0.0275650304 0.24991928
v 0.0533318892 0.0274367053 0.249868855
v 0.0540010035 0.0281659793 0.250421762
v 0.0538892522 0.0281196032 0.250339746
v 0.0688573793 0.031209439 0.260898829
v 0.0689481497 0.0312973373 0.260972321
v 0.0715456456 0.0310133193 0.262692451
v 0.0706780702 0.0306153782 0.26205048
v 0.0706247017 0.0307503082 0.262032807
v 0.0716250464 0.0307551883 0.262710899
v 0.071721673 0.0299532935 0.262666613
v 0.0707664639 0.0300420299 0.262031883
v 0.0717054382 0.029687278 0.262619197
v 0.0707559884 0.0298986975 0.26200518
v 0.0716650486 0.0294271205 0.262556255
v 0.0707324967 0.0297587458 0.261970133
v 0.0714051351 0.0287117511 0.262282342
v 0.0705874488 0.0293752719 0.261819422
v 0.0706477314 0.0294954907 0.261876702
v 0.0712756291 0.0285043176 0.262166262
v 0.0686672777 0.0296238158 0.260553122
v 0.0686139092 0.0297587458 0.260535449
v 0.03704267 0.0237936229 0.238339424
v 0.0380005427 0.0235598553 0.238956094
v 0.0401504338 0.0239881705 0.240470588
v 0.0370830968 0.0232565198 0.23829329
v 0.0380163118 0.0234148223 0.238946915
v 0.037050765 0.0235248655 0.238308117
v 0.0534407124 0.0276852492 0.24997656
v 0.0535935611 0.0278958343 0.250108898
v 0.0535120368 0.02779595 0.250039995
v 0.0537832789 0.0280586164 0.250259638
v 0.0536843278 0.0279837344 0.25018239
v 0.0685281828 0.0301870629 0.260535985
v 0.068775855 0.0311095528 0.260829955
v 0.0702375919 0.0325074568 0.262011141
v 0.0699805617 0.0314332061 0.26169005
v 0.0704492778 0.0323979706 0.262139499
v 0.0700942799 0.0313722193 0.261758745
v 0.0711788312 0.0317180827 0.262540519
v 0.0704842955 0.0309988521 0.261971742
v 0.0703989044 0.0311095528 0.261929065
v 0.0713212267 0.0314976051 0.26260677
v 0.0705598518 0.0308786351 0.262006462
v 0.071443975 0.0312617607 0.262657613
v 0.0716009885 0.029175872 0.262478501
v 0.070696272 0.0296238158 0.261927128
v 0.0715140104 0.0289364811 0.262386829
v 0.0400970653 0.0241231006 0.240452915
v 0.0532721728 0.0271618236 0.249790803
v 0.053261701 0.0270184912 0.249764085
v 0.0706515387 0.03226256 0.262257934
v 0.0702027455 0.0312973373 0.261821926
v 0.0708420202 0.0321028158 0.262365073
v 0.0703046843 0.031209439 0.261878937
v 0.0710184723 0.0319206119 0.262459636
v 0.0550408699 0.0278958343 0.251088977
v 0.054938931 0.0279837344 0.251031995
v 0.0532956608 0.0273017753 0.24982585
v 0.0687045306 0.0309988521 0.260766506
v 0.0686442479 0.0308786351 0.260709226
v 0.0544789061 0.0281972028 0.250749677
v 0.0543575846 0.0282129068 0.250669658
v 0.0547167398 0.0281196032 0.25090012
v 0.0545990951 0.0281659793 0.250826806
v 0.0548304617 0.0280586164 0.250968784
v 0.0685957074 0.0307503082 0.260658801
v 0.0685594827 0.0306153782 0.260615796
v 0.0554142557 0.0273017753 0.251260549
v 0.0553608835 0.0274367053 0.251242876
v 0.0542365499 0.0282129068 0.250587702
v 0.0552960336 0.0275650304 0.251216501
v 0.0552204736 0.0276852492 0.251181781
v 0.0551350862 0.02779595 0.251139134
v 0.0396373607 0.0211143792 0.239729866
v 0.0252800062 0.0182129815 0.260931253
v 0.025059633 0.0181801375 0.260777533
v 0.0394169874 0.0210815351 0.239576131
v 0.0248357598 0.0181763489 0.260625422
v 0.0391931124 0.0210777465 0.239424005
v 0.0246110093 0.0182016622 0.260476679
v 0.0389683619 0.021103058 0.239275277
v 0.0243880171 0.0182557777 0.260333091
v 0.0387453698 0.0211571734 0.239131674
v 0.0241693985 0.0183380619 0.260196298
v 0.0385267511 0.0212394595 0.238994896
v 0.0239577144 0.0184475519 0.26006794
v 0.0383150689 0.0213489477 0.238866523
v 0.0237554498 0.0185829625 0.259949476
v 0.0381128006 0.0214843582 0.238748088
v 0.023564972 0.0187427048 0.259842366
v 0.0379223265 0.0216441024 0.238640949
v 0.023388518 0.0189249087 0.259747803
v 0.0377458706 0.0218263064 0.238546401
v 0.0232281554 0.0191274378 0.25966692
v 0.0375855081 0.0220288336 0.238465518
v 0.0230857637 0.0193479154 0.259600669
v 0.0374431163 0.0222493131 0.238399267
v 0.0229630135 0.019583758 0.259549826
v 0.037320368 0.0224851556 0.23834841
v 0.0228613429 0.0198322013 0.259514958
v 0.0372186936 0.0227335989 0.238313556
v 0.022781942 0.0200903323 0.25949651
v 0.0371392965 0.022991728 0.238295123
v 0.022725746 0.0203551222 0.259494692
v 0.0370830968 0.0232565198 0.23829329
v 0.0226934105 0.0206234697 0.259509534
v 0.037050765 0.0235248655 0.238308117
v 0.0226853155 0.0208922271 0.259540826
v 0.03704267 0.0237936229 0.238339424
v 0.0227015559 0.0211582426 0.259588212
v 0.0370589085 0.0240596402 0.238386825
v 0.0227419417 0.0214184001 0.259651184
v 0.0370992944 0.0243197978 0.238449767
v 0.022806 0.0216696467 0.259728938
v 0.0371633507 0.0245710444 0.238527536
v 0.022892978 0.0219090395 0.25982061
v 0.0372503288 0.0248104371 0.238619193
v 0.0230018552 0.0221337695 0.259925097
v 0.0373592079 0.0250351671 0.23872368
v 0.0231313594 0.0223412029 0.260041177
v 0.0374887139 0.0252426006 0.238839775
v 0.0232799686 0.0225289073 0.260167509
v 0.0376373231 0.0254303049 0.238966092
v 0.0234459415 0.0226946846 0.260302573
v 0.037803296 0.0255960803 0.239101171
v 0.0236273333 0.0228365865 0.26044482
v 0.0379846841 0.0257379841 0.239243433
v 0.0238220152 0.0229529534 0.26059258
v 0.0381793678 0.0258543491 0.239391193
v 0.0240277052 0.0230424181 0.260744125
v 0.0383850597 0.0259438138 0.239542723
v 0.0242419932 0.0231039338 0.260897666
v 0.0385993458 0.0260053296 0.239696249
v 0.069126986 0.0326325372 0.261276156
v 0.0547696315 0.0297311414 0.282477558
v 0.0549900047 0.0297639854 0.282631278
v 0.0693473592 0.0326653831 0.261429876
v 0.0552138761 0.029767774 0.282783419
v 0.0695712343 0.0326691717 0.261582017
v 0.0554386303 0.0297424626 0.282932162
v 0.069795981 0.0326438583 0.26173076
v 0.0556616224 0.0296883471 0.28307575
v 0.0700189769 0.0325897448 0.261874348
v 0.0558802411 0.0296060611 0.283212543
v 0.0702375919 0.0325074568 0.262011141
v 0.0560919233 0.029496571 0.283340901
v 0.0704492778 0.0323979706 0.262139499
v 0.0562941879 0.0293611623 0.283459336
v 0.0706515387 0.03226256 0.262257934
v 0.0564846657 0.0292014182 0.283566475
v 0.0708420202 0.0321028158 0.262365073
v 0.0566611178 0.0290192142 0.283661038
v 0.0710184723 0.0319206119 0.262459636
v 0.0568214804 0.0288166851 0.283741921
v 0.0711788312 0.0317180827 0.262540519
v 0.0569638722 0.0285962075 0.283808172
v 0.0713212267 0.0314976051 0.26260677
v 0.0570866242 0.028360365 0.283859015
v 0.071443975 0.0312617607 0.262657613
v 0.0571882948 0.0281119216 0.283893853
v 0.0715456456 0.0310133193 0.262692451
v 0.0572676957 0.0278537925 0.283912301
v 0.0716250464 0.0307551883 0.262710899
v 0.0573238917 0.0275890008 0.283914119
v 0.0716812462 0.0304903984 0.262712717
v 0.0573562272 0.0273206532 0.283899307
v 0.0717135817 0.0302220508 0.262697905
v 0.0573643222 0.0270518977 0.283868015
v 0.071721673 0.0299532935 0.262666613
v 0.05734808 0.0267858803 0.283820599
v 0.0717054382 0.029687278 0.262619197
v 0.0573076941 0.0265257228 0.283757657
v 0.0716650486 0.0294271205 0.262556255
v 0.0572436377 0.0262744762 0.283679903
v 0.0716009885 0.029175872 0.262478501
v 0.0571566597 0.0260350835 0.283588231
v 0.0715140104 0.0289364811 0.262386829
v 0.0570477806 0.0258103535 0.283483744
v 0.0714051351 0.0287117511 0.262282342
v 0.0569182783 0.02560292 0.283367664
v 0.0712756291 0.0285043176 0.262166262
v 0.0567696691 0.0254152156 0.283241332
v 0.0711270198 0.0283166114 0.26203993
v 0.0566036962 0.0252494402 0.283106267
v 0.0709610507 0.028150836 0.261904866
v 0.0564223044 0.0251075365 0.282963991
v 0.0707796589 0.0280089341 0.261762589
v 0.0562276244 0.0249911714 0.282816231
v 0.0705849752 0.0278925672 0.261614829
v 0.0560219325 0.0249017049 0.282664716
v 0.070379287 0.0278031025 0.261463314
v 0.0558076426 0.024840191 0.282511175
v 0.0701650009 0.0277415868 0.261309773
v 0.025881473 0.0205134246 0.261653394
v 0.0258788094 0.0206584577 0.261671424
v 0.0402361639 0.0235598553 0.240470022
v 0.0258709975 0.0203700922 0.261626691
v 0.0402388237 0.0234148223 0.240451977
v 0.0258475095 0.0202301424 0.261591613
v 0.040228352 0.0232714899 0.240425274
v 0.0258112829 0.0200952124 0.261548609
v 0.040204864 0.0231315382 0.240390211
v 0.0257627424 0.0199668854 0.261498183
v 0.0401686355 0.0229966082 0.240347221
v 0.0257024579 0.0198466685 0.261440903
v 0.040120095 0.0228682831 0.240296796
v 0.0256311372 0.0197359677 0.261377454
v 0.0400598124 0.0227480642 0.240239516
v 0.0255496129 0.0196360815 0.261308581
v 0.039988488 0.0226373635 0.240176067
v 0.0254588425 0.0195481833 0.261235088
v 0.0399069674 0.0225374792 0.240107194
v 0.0253598914 0.0194733012 0.26115784
v 0.039816197 0.0224495791 0.240033686
v 0.0252539199 0.0194123145 0.261077732
v 0.0397172458 0.022374697 0.239956439
v 0.0251421668 0.0193659365 0.260995716
v 0.0396112725 0.0223137103 0.23987633
v 0.025025947 0.019334713 0.260912716
v 0.0394995213 0.0222673342 0.239794299
v 0.0249066204 0.019319009 0.260829777
v 0.0393832996 0.0222361106 0.239711329
v 0.0247855857 0.019319009 0.26074782
v 0.0392639749 0.0222204067 0.239628375
v 0.0246642642 0.019334713 0.260667801
v 0.0391429402 0.0222204067 0.239546403
v 0.0245440751 0.0193659365 0.260590672
v 0.0390216187 0.0222361106 0.239466399
v 0.0244264305 0.0194123145 0.260517359
v 0.0389014296 0.0222673342 0.239389285
v 0.0243127085 0.0194733012 0.260448694
v 0.038783785 0.0223137103 0.239315957
v 0.024204243 0.0195481833 0.260385484
v 0.038670063 0.022374697 0.239247292
v 0.0241023023 0.0196360815 0.260328501
v 0.0385615937 0.0224495791 0.239184096
v 0.024008086 0.0197359677 0.260278344
v 0.0384596549 0.0225374792 0.239127085
v 0.0239226967 0.0198466685 0.260235667
v 0.0383654386 0.0226373635 0.239076957
v 0.0238471366 0.0199668854 0.260200977
v 0.0382800512 0.0227480642 0.23903428
v 0.0237822905 0.0200952124 0.260174602
v 0.0382044911 0.0228682831 0.23899956
v 0.0237289183 0.0202301424 0.260156929
v 0.0381396413 0.0229966082 0.238973215
v 0.0236876458 0.0203700922 0.260148138
v 0.0380862691 0.0231315382 0.238955528
v 0.0236589573 0.0205134246 0.260148317
v 0.0380450003 0.0232714899 0.238946736
v 0.02364319 0.0206584577 0.260157496
v 0.0380163118 0.0234148223 0.238946915
v 0.0236405283 0.0208034907 0.260175526
v 0.0380005427 0.0235598553 0.238956094
v 0.023651002 0.0209468231 0.260202259
v 0.0379978828 0.0237048864 0.238974139
v 0.0236744899 0.0210867748 0.260237306
v 0.0380083546 0.0238482188 0.239000842
v 0.0237107165 0.0212217029 0.260280311
v 0.0380318426 0.0239881705 0.239035904
v 0.023759257 0.0213500299 0.260330737
v 0.038068071 0.0241231006 0.239078894
v 0.0238195416 0.0214702487 0.260388017
v 0.0381166115 0.0242514275 0.239129335
v 0.0238908641 0.0215809494 0.260451466
v 0.0381768942 0.0243716445 0.239186615
v 0.0239723884 0.0216808338 0.260520339
v 0.0382482149 0.0244823452 0.239250049
v 0.0240631569 0.021768732 0.260593832
v 0.0383297391 0.0245822314 0.239318937
v 0.0241621081 0.0218436141 0.260671079
v 0.0384205095 0.0246701296 0.23939243
v 0.0242680814 0.0219046026 0.260751188
v 0.0385194607 0.0247450117 0.239469692
v 0.0243798327 0.0219509788 0.260833234
v 0.038625434 0.0248059984 0.239549801
v 0.0244960524 0.0219822023 0.260916203
v 0.0387371853 0.0248523764 0.239631817
v 0.0246153791 0.0219979063 0.260999143
v 0.0388534069 0.0248836 0.239714801
v 0.0247364137 0.0219979063 0.261081129
v 0.0389727317 0.0248993039 0.239797756
v 0.0248577353 0.0219822023 0.261161119
v 0.0390937664 0.0248993039 0.239879712
v 0.0249779243 0.0219509788 0.261238247
v 0.0392150879 0.0248836 0.239959717
v 0.025095569 0.0219046026 0.261311561
v 0.0393352769 0.0248523764 0.240036845
v 0.0252092909 0.0218436141 0.261380225
v 0.0394529216 0.0248059984 0.240110159
v 0.0253177583 0.021768732 0.261443436
v 0.0395666435 0.0247450117 0.240178823
v 0.0254196972 0.0216808338 0.261500448
v 0.0396751128 0.0246701296 0.240242034
v 0.0255139135 0.0215809494 0.261550575
v 0.0397770517 0.0245822314 0.240299031
v 0.0255993027 0.0214702487 0.261593252
v 0.039871268 0.0244823452 0.240349174
v 0.0256748628 0.0213500299 0.261627972
v 0.0399566554 0.0243716445 0.240391836
v 0.0257397108 0.0212217029 0.261654317
v 0.0400322154 0.0242514275 0.240426555
v 0.025793083 0.0210867748 0.26167199
v 0.0400970653 0.0241231006 0.240452915
v 0.0258343536 0.0209468231 0.261680782
v 0.0401504338 0.0239881705 0.240470588
v 0.0258630421 0.0208034907 0.261680603
v 0.0401917063 0.0238482188 0.24047938
v 0.0402203947 0.0237048864 0.240479201
v 0.0411452912 0.0238270294 0.272443324
v 0.0411426276 0.0239720624 0.272461385
v 0.0554999821 0.0268734582 0.251259983
v 0.0411348157 0.023683697 0.272416621
v 0.0555026457 0.0267284252 0.251241922
v 0.0411113277 0.0235437453 0.272381574
v 0.0554921702 0.0265850946 0.251215219
v 0.041075103 0.0234088153 0.272338569
v 0.0554686822 0.0264451429 0.251180172
v 0.0410265625 0.0232804902 0.272288144
v 0.0554324538 0.0263102129 0.251137167
v 0.0409662761 0.0231602713 0.272230864
v 0.0553839132 0.026181886 0.251086742
v 0.0408949554 0.0230495706 0.272167414
v 0.0553236306 0.026061669 0.251029462
v 0.0408134311 0.0229496863 0.272098541
v 0.0552523099 0.0259509683 0.250966012
v 0.0407226607 0.0228617862 0.272025049
v 0.0551707856 0.0258510821 0.250897139
v 0.0406237096 0.0227869041 0.271947801
v 0.0550800152 0.0257631838 0.250823647
v 0.0405177362 0.0227259174 0.271867692
v 0.0549810641 0.0256883018 0.250746399
v 0.040405985 0.0226795413 0.271785647
v 0.0548750907 0.025627315 0.250666291
v 0.0402897671 0.0226483177 0.271702677
v 0.0547633395 0.025580937 0.250584245
v 0.0401704386 0.0226326138 0.271619737
v 0.0546471179 0.0255497135 0.250501275
v 0.0400494039 0.0226326138 0.271537751
v 0.0545277931 0.0255340096 0.250418335
v 0.0399280824 0.0226483177 0.271457762
v 0.0544067584 0.0255340096 0.250336349
v 0.0398078933 0.0226795413 0.271380633
v 0.0542854369 0.0255497135 0.25025636
v 0.0396902487 0.0227259174 0.271307319
v 0.0541652478 0.025580937 0.250179231
v 0.0395765267 0.0227869041 0.271238655
v 0.0540476032 0.025627315 0.250105917
v 0.0394680612 0.0228617862 0.271175444
v 0.0539338812 0.0256883018 0.250037253
v 0.0393661223 0.0229496863 0.271118432
v 0.0538254157 0.0257631838 0.249974042
v 0.039271906 0.0230495706 0.271068305
v 0.0537234731 0.0258510821 0.249917045
v 0.0391865149 0.0231602713 0.271025628
v 0.0536292568 0.0259509683 0.249866903
v 0.0391109549 0.0232804902 0.270990908
v 0.0535438694 0.026061669 0.249824226
v 0.0390461087 0.0234088153 0.270964563
v 0.0534683093 0.026181886 0.249789506
v 0.0389927365 0.0235437453 0.27094689
v 0.0534034632 0.0263102129 0.249763161
v 0.038951464 0.023683697 0.270938098
v 0.053350091 0.0264451429 0.249745488
v 0.0389227755 0.0238270294 0.270938277
v 0.0533088185 0.0265850946 0.249736682
v 0.0389070101 0.0239720624 0.270947456
v 0.05328013 0.0267284252 0.249736875
v 0.0389043465 0.0241170935 0.270965487
v 0.0532643609 0.0268734582 0.24974604
v 0.038914822 0.0242604259 0.27099219
v 0.053261701 0.0270184912 0.249764085
v 0.03893831 0.0244003776 0.271027267
v 0.0532721728 0.0271618236 0.249790803
v 0.0389745347 0.0245353077 0.271070242
v 0.0532956608 0.0273017753 0.24982585
v 0.0390230753 0.0246636346 0.271120697
v 0.0533318892 0.0274367053 0.249868855
v 0.0390833616 0.0247838516 0.271177977
v 0.0533804297 0.0275650304 0.24991928
v 0.0391546823 0.0248945523 0.271241397
v 0.0534407124 0.0276852492 0.24997656
v 0.0392362066 0.0249944385 0.2713103
v 0.0535120368 0.02779595 0.250039995
v 0.039326977 0.0250823367 0.271383792
v 0.0535935611 0.0278958343 0.250108898
v 0.0394259281 0.0251572188 0.27146104
v 0.0536843278 0.0279837344 0.25018239
v 0.0395318978 0.0252182055 0.271541148
v 0.0537832789 0.0280586164 0.250259638
v 0.0396436527 0.0252645835 0.271623164
v 0.0538892522 0.0281196032 0.250339746
v 0.0397598706 0.025295807 0.271706164
v 0.0540010035 0.0281659793 0.250421762
v 0.0398791991 0.025311511 0.271789104
v 0.0541172251 0.0281972028 0.250504732
v 0.0400002338 0.025311511 0.27187106
v 0.0542365499 0.0282129068 0.250587702
v 0.0401215553 0.025295807 0.271951079
v 0.0543575846 0.0282129068 0.250669658
v 0.0402417444 0.0252645835 0.272028208
v 0.0544789061 0.0281972028 0.250749677
v 0.040359389 0.0252182055 0.272101521
v 0.0545990951 0.0281659793 0.250826806
v 0.040473111 0.0251572188 0.272170186
v 0.0547167398 0.0281196032 0.25090012
v 0.0405815765 0.0250823367 0.272233397
v 0.0548304617 0.0280586164 0.250968784
v 0.0406835154 0.0249944385 0.272290379
v 0.054938931 0.0279837344 0.251031995
v 0.0407777317 0.0248945523 0.272340536
v 0.0550408699 0.0278958343 0.251088977
v 0.0408631228 0.0247838516 0.272383183
v 0.0551350862 0.02779595 0.251139134
v 0.0409386829 0.0246636346 0.272417903
v 0.0552204736 0.0276852492 0.251181781
v 0.041003529 0.0245353077 0.272444278
v 0.0552960336 0.0275650304 0.251216501
v 0.0410569012 0.0244003776 0.272461951
v 0.0553608835 0.0274367053 0.251242876
v 0.0410981737 0.0242604259 0.272470742
v 0.0554142557 0.0273017753 0.251260549
v 0.0411268622 0.0241170935 0.272470564
v 0.0554555282 0.0271618236 0.251269341
v 0.0554842129 0.0270184912 0.251269162
v 0.0547696315 0.0297311414 0.282477558
v 0.069126986 0.0326325372 0.261276156
v 0.0631380305 0.0313742012 0.263125539
v 0.0543521941 0.0295987222 0.276099533
v 0.0552336797 0.0296416283 0.255118132
v 0.0554078743 0.0296793524 0.255227923
v 0.0242419932 0.0231039338 0.260897666
v 0.0302309468 0.0243622698 0.259048283
v 0.0390167832 0.0261377487 0.246074304
v 0.0632456988 0.0313958265 0.262947321
v 0.0626442507 0.0312502868 0.260343313
v 0.0385993458 0.0260053296 0.239696249
v 0.0550491847 0.0296018496 0.255027562
v 0.052685488 0.0291050728 0.255736679
v 0.049469322 0.0284068789 0.253463179
v 0.0406834893 0.0266313981 0.266437143
v 0.0633345693 0.0314133912 0.262758583
v 0.0632990003 0.0313946679 0.261132151
v 0.0633766428 0.0314124748 0.261325747
v 0.0529523045 0.0291595198 0.255419403
v 0.0497835241 0.0284682885 0.25269562
v 0.0497349575 0.0284593776 0.252899051
v 0.0301232804 0.0243406445 0.259226501
v 0.0495769903 0.0284285042 0.253284931
v 0.0542269088 0.0295732711 0.276265293
v 0.0634340569 0.0314260386 0.261526585
v 0.0629542395 0.0313179493 0.260615617
v 0.0630866364 0.0313471444 0.260775119
v 0.0628062338 0.0312855467 0.260471135
v 0.0528107733 0.0291305222 0.255570889
v 0.0300344117 0.0243230797 0.259415239
v 0.0438996553 0.027329592 0.268710643
v 0.0540853776 0.0295442753 0.276416808
v 0.0634797364 0.0314400233 0.262150496
v 0.0634522289 0.0314356126 0.26235798
v 0.0632019788 0.0313728116 0.260947913
v 0.0498110317 0.0284727011 0.252488136
v 0.053108532 0.0291917436 0.255283833
v 0.0532777421 0.0292268433 0.255165666
v 0.0534580834 0.0292644333 0.255066216
v 0.0497653447 0.0284587163 0.251864225
v 0.0498018935 0.028467888 0.252070159
v 0.0391420685 0.0261631999 0.245908529
v 0.0299167447 0.0243008602 0.259815842
v 0.0299653132 0.0243097693 0.259612381
v 0.0405582041 0.0266059488 0.266602933
v 0.043791987 0.0273079667 0.268888891
v 0.0539291501 0.0295120496 0.276552379
v 0.063403666 0.0314267017 0.262561411
v 0.063470602 0.0314352103 0.261732519
v 0.0634858832 0.0314398892 0.261941254
v 0.0498171784 0.028472567 0.252278864
v 0.0496302955 0.0284273438 0.251469761
v 0.049707938 0.0284451526 0.251663357
v 0.0298830923 0.0242965817 0.260232568
v 0.0298892371 0.0242964476 0.260023326
v 0.0301669966 0.0243636612 0.261225879
v 0.0300699733 0.024341803 0.261041671
v 0.0404166728 0.0265769511 0.266754419
v 0.0436340198 0.0272770934 0.269274771
v 0.0437031202 0.027290402 0.269077599
v 0.0435579456 0.0272637699 0.269685686
v 0.0435854532 0.0272681825 0.269478202
v 0.0544545464 0.0294746347 0.254880011
v 0.0546574742 0.0295178946 0.254907846
v 0.049533274 0.0284054875 0.251285553
v 0.0496658571 0.028446069 0.253096223
v 0.0417391695 0.0267120302 0.245565563
v 0.0489755422 0.0282829646 0.250680923
v 0.0397893749 0.0262971111 0.245403856
v 0.0399788693 0.0263367798 0.245324209
v 0.0392835997 0.0261921957 0.245757028
v 0.0394398272 0.0262244213 0.245621458
v 0.0299923327 0.0243239943 0.260848075
v 0.0381352976 0.0260948427 0.26705569
v 0.037961103 0.0260571185 0.266945899
v 0.0435517989 0.027263904 0.269894928
v 0.0402604453 0.0265447274 0.266889989
v 0.0525831394 0.0292291585 0.276956171
v 0.0523802117 0.0291859005 0.276928365
v 0.05375994 0.0294769499 0.276670516
v 0.0535796024 0.0294393599 0.276769966
v 0.0548564121 0.0295604542 0.254957199
v 0.0538441464 0.0293454174 0.254927605
v 0.049285531 0.0283506252 0.250953227
v 0.0494179316 0.0283798203 0.251112759
v 0.049137529 0.0283182226 0.250808775
v 0.0415649749 0.026674306 0.245455757
v 0.0401754417 0.0263780933 0.245265231
v 0.0403769352 0.0264205988 0.245227575
v 0.0396090373 0.026259521 0.245503291
v 0.0299349241 0.0243104305 0.260647237
v 0.0307247266 0.0244861823 0.261830509
v 0.0383197926 0.0261346214 0.26714626
v 0.0387115031 0.0262185764 0.267265975
v 0.0385125652 0.0261760168 0.267216623
v 0.0395248309 0.0263910536 0.267246217
v 0.0393233337 0.0263485499 0.267283857
v 0.0400912352 0.0265096277 0.267008156
v 0.05218127 0.029143339 0.276878983
v 0.0531935357 0.0293583777 0.276908576
v 0.0529920422 0.0293158721 0.276946247
v 0.053390108 0.0293996911 0.276849627
v 0.0540456437 0.0293879211 0.254889965
v 0.0536475778 0.0293041039 0.254986584
v 0.0413804799 0.0266345274 0.245365173
v 0.0409887657 0.0265505705 0.245245472
v 0.0411877073 0.0265931319 0.245294824
v 0.0405811481 0.026463829 0.245211661
v 0.0298983771 0.0243012588 0.260441303
v 0.0304147378 0.0244185217 0.261558205
v 0.0302823391 0.0243893266 0.261398703
v 0.0389144309 0.0262618363 0.267293811
v 0.0391191207 0.0263053179 0.267299801
v 0.0399108939 0.0264720377 0.267107606
v 0.0397213995 0.026432367 0.267187238
v 0.0519884974 0.0291019436 0.276808649
v 0.0527878292 0.029272642 0.276962161
v 0.0542498566 0.0294311531 0.254874021
v 0.0407858379 0.0265073124 0.245217636
v 0.0436036326 0.0272777546 0.270309597
v 0.0435670838 0.027268583 0.270103663
v 0.0439510457 0.0273566507 0.271061063
v 0.0438357033 0.0273309834 0.270888269
v 0.0443934351 0.0274535064 0.271492869
v 0.0518040024 0.0290621649 0.27671808
v 0.0516298078 0.0290244408 0.276608258
v 0.0305627417 0.0244509261 0.261702687
v 0.0436610393 0.0272913184 0.270510465
v 0.0437386818 0.0273091253 0.270704061
v 0.0442314483 0.0274182484 0.271365047
v 0.0440834463 0.0273858458 0.271220595
v 0.0417215005 0.0217404477 0.26647076
v 0.0505073369 0.0235159285 0.253496766
v 0.0537235029 0.0242141206 0.255770266
v 0.0449376665 0.0224386416 0.26874426
v 0.0448300019 0.0224170163 0.268922478
v 0.0415962152 0.0217149984 0.266636521
v 0.0506150015 0.0235375538 0.253318548
v 0.0538487881 0.0242395718 0.255604506
v 0.0539903194 0.0242685676 0.255452991
v 0.041454684 0.0216860007 0.266788036
v 0.0541465469 0.0243007932 0.25531742
v 0.0544960946 0.0243734829 0.255099833
v 0.050821539 0.0235773381 0.252729207
v 0.0508490466 0.0235817488 0.252521753
v 0.050703872 0.0235551167 0.25312981
v 0.0507729687 0.0235684272 0.252932668
v 0.054315757 0.0243358929 0.255199283
v 0.0447411314 0.0223994516 0.269111216
v 0.0446234643 0.0223772321 0.269511819
v 0.0445959568 0.0223728195 0.269719303
v 0.0446720347 0.022386143 0.269308388
v 0.0412984565 0.021653777 0.266923606
v 0.0446050987 0.0223776326 0.27013728
v 0.0252800062 0.0182129815 0.260931253
v 0.0310303457 0.0194330439 0.260881692
v 0.0311079863 0.0194508526 0.261075288
v 0.0701650009 0.0277415868 0.261309773
v 0.0558076426 0.024840191 0.282511175
v 0.055390209 0.0247077718 0.27613312
v 0.0452694595 0.022527298 0.271398664
v 0.0454314463 0.022562556 0.271526486
v 0.0445898138 0.0223729536 0.269928545
v 0.0508551896 0.0235816166 0.252312481
v 0.0446416438 0.0223868024 0.270343214
v 0.0411292464 0.0216186773 0.267041773
v 0.0309729371 0.0194194801 0.260680825
v 0.030927252 0.0194054972 0.260056913
v 0.0309211053 0.0194056313 0.260266185
v 0.031003328 0.0194188189 0.259645998
v 0.0309547596 0.0194099098 0.259849429
v 0.0396373607 0.0211143792 0.239729866
v 0.0400547944 0.0212467983 0.246107906
v 0.0552649237 0.0246823207 0.27629891
v 0.0526678227 0.0241334904 0.276641876
v 0.0393578038 0.0212436691 0.267179877
v 0.0451214574 0.0224948954 0.271254182
v 0.0446990542 0.022400368 0.270544052
v 0.044776693 0.0224181749 0.270737678
v 0.0638442487 0.0263945945 0.260504752
v 0.0636822656 0.0263593383 0.26037693
v 0.0309363902 0.0194103085 0.26047492
v 0.0401800796 0.0212722495 0.245942131
v 0.0641760454 0.0264832508 0.263159156
v 0.054967165 0.0246210992 0.276585966
v 0.0551233925 0.0246533249 0.276450396
v 0.0448737182 0.022440033 0.270921886
v 0.0562716946 0.0247506779 0.255151749
v 0.0560871996 0.0247108992 0.25506115
v 0.0564458892 0.024788402 0.25526154
v 0.0642399937 0.0264818594 0.26098153
v 0.0641246513 0.0264561921 0.260808736
v 0.0311612934 0.0194496922 0.259260118
v 0.0310724247 0.0194321293 0.259448826
v 0.0312689617 0.0194713194 0.25908187
v 0.0412134528 0.0214871429 0.245298848
v 0.0410168841 0.0214458294 0.245357811
v 0.0644902438 0.0265446603 0.262391597
v 0.0645177513 0.0265490729 0.262184113
v 0.0643725768 0.0265224408 0.2627922
v 0.0644416735 0.0265357513 0.262595028
v 0.0642837137 0.0265048761 0.262980938
v 0.0547979549 0.0245859995 0.276704133
v 0.0532192849 0.0242523886 0.2769126
v 0.0534182265 0.0242949501 0.276961952
v 0.0449890606 0.0224657003 0.27109468
v 0.0639922544 0.0264269989 0.260649204
v 0.0644146577 0.0265215244 0.261359334
v 0.0643370152 0.0265037175 0.261165738
v 0.0645086169 0.0265442599 0.261766136
v 0.0644720644 0.0265350901 0.261560202
v 0.0403216109 0.0213012453 0.245790631
v 0.0406470485 0.0213685706 0.245536909
v 0.0404778384 0.0213334691 0.24565506
v 0.0408273898 0.0214061607 0.245437458
v 0.0501755439 0.0234272722 0.250842392
v 0.0500135571 0.0233920142 0.25071454
v 0.0544281192 0.0245087408 0.276883215
v 0.0546176136 0.0245484095 0.276803583
v 0.0538258441 0.0243816916 0.276995778
v 0.0540300533 0.0244249217 0.276979834
v 0.0530265123 0.0242109932 0.276842237
v 0.0528420173 0.0241712146 0.276751667
v 0.0409489088 0.0215810854 0.267141193
v 0.040562842 0.0215001032 0.267279834
v 0.0407594144 0.0215414166 0.267220855
v 0.0401571356 0.0214143675 0.267333388
v 0.0403613485 0.0214575995 0.267317474
v 0.0395505764 0.0212850664 0.26725024
v 0.055894427 0.0246695038 0.254990816
v 0.041619163 0.0215728786 0.245245263
v 0.04141495 0.0215296485 0.245261192
v 0.0427771807 0.0218210779 0.245599166
v 0.0542315505 0.0244674273 0.276942194
v 0.0536211506 0.0243382081 0.276989788
v 0.0548821613 0.0244544651 0.254961222
v 0.0546855889 0.0244131517 0.255020171
v 0.0399524458 0.0213708859 0.267327428
v 0.039749518 0.021327626 0.267299592
v 0.0556954853 0.0246269424 0.254941434
v 0.0418238528 0.021616362 0.245251253
v 0.0424184911 0.021743577 0.24539879
v 0.0422257185 0.0217021797 0.245328426
v 0.0426029861 0.0217833538 0.245489359
v 0.0503235459 0.0234596748 0.250986844
v 0.0508033596 0.023567766 0.251897842
v 0.0507459491 0.0235542022 0.251696974
v 0.0552878678 0.0245402008 0.254907638
v 0.0550836585 0.0244969707 0.254923552
v 0.0420267805 0.0216596201 0.245279074
v 0.0505712852 0.0235145371 0.25131917
v 0.0504559427 0.0234888699 0.251146346
v 0.0506683104 0.0235363934 0.251503378
v 0.0508399047 0.0235769376 0.252103746
v 0.0554925576 0.0245836843 0.254913628
v 0.0645238981 0.0265489388 0.261974871
v 0.0389991142 0.0211661682 0.266979486
v 0.0316007547 0.0195599757 0.261736274
v 0.0317627415 0.0195952319 0.261864126
v 0.0312050097 0.0194727089 0.261259496
v 0.0313203521 0.0194983762 0.26143232
v 0.0391733088 0.0212038923 0.267089307
v 0.0314527526 0.0195275713 0.261591822
v 0.0537235029 0.0242141206 0.255770266
v 0.052685488 0.0291050728 0.255736679
v 0.0438996553 0.027329592 0.268710643
v 0.0449376665 0.0224386416 0.26874426
v 0.0626442507 0.0312502868 0.260343313
v 0.0554078743 0.0296793524 0.255227923
v 0.0564458892 0.024788402 0.25526154
v 0.0636822656 0.0263593383 0.26037693
v 0.055390209 0.0247077718 0.27613312
v 0.0543521941 0.0295987222 0.276099533
v 0.0631380305 0.0313742012 0.263125539
v 0.0641760454 0.0264832508 0.263159156
v 0.0443934351 0.0274535064 0.271492869
v 0.0516298078 0.0290244408 0.276608258
v 0.0526678227 0.0241334904 0.276641876
v 0.0454314463 0.022562556 0.271526486
v 0.0417215005 0.0217404477 0.26647076
v 0.0406834893 0.0266313981 0.266437143
v 0.049469322 0.0284068789 0.253463179
v 0.0505073369 0.0235159285 0.253496766
v 0.037961103 0.0260571185 0.266945899
v 0.0389991142 0.0211661682 0.266979486
v 0.0317627415 0.0195952319 0.261864126
v 0.0307247266 0.0244861823 0.261830509
v 0.0390167832 0.0261377487 0.246074304
v 0.0302309468 0.0243622698 0.259048283
v 0.0312689617 0.0194713194 0.25908187
v 0.0400547944 0.0212467983 0.246107906
v 0.0427771807 0.0218210779 0.245599166
v 0.0500135571 0.0233920142 0.25071454
v 0.0489755422 0.0282829646 0.250680923
v 0.0417391695 0.0267120302 0.245565563
v 0.0506150015 0.0235375538 0.253318548
v 0.0505073369 0.0235159285 0.253496766
v 0.049469322 0.0284068789 0.253463179
v 0.050703872 0.0235551167 0.25312981
v 0.0495769903 0.0284285042 0.253284931
v 0.0507729687 0.0235684272 0.252932668
v 0.0496658571 0.028446069 0.253096223
v 0.050821539 0.0235773381 0.252729207
v 0.0497349575 0.0284593776 0.252899051
v 0.0508490466 0.0235817488 0.252521753
v 0.0497835241 0.0284682885 0.25269562
v 0.0508551896 0.0235816166 0.252312481
v 0.0498110317 0.0284727011 0.252488136
v 0.0508399047 0.0235769376 0.252103746
v 0.0498171784 0.028472567 0.252278864
v 0.0508033596 0.023567766 0.251897842
v 0.0498018935 0.028467888 0.252070159
v 0.0507459491 0.0235542022 0.251696974
v 0.0497653447 0.0284587163 0.251864225
v 0.0506683104 0.0235363934 0.251503378
v 0.049707938 0.0284451526 0.251663357
v 0.0505712852 0.0235145371 0.25131917
v 0.0496302955 0.0284273438 0.251469761
v 0.0504559427 0.0234888699 0.251146346
v 0.049533274 0.0284054875 0.251285553
v 0.0503235459 0.0234596748 0.250986844
v 0.0494179316 0.0283798203 0.251112759
v 0.0501755439 0.0234272722 0.250842392
v 0.049285531 0.0283506252 0.250953227
v 0.0500135571 0.0233920142 0.25071454
v 0.049137529 0.0283182226 0.250808775
v 0.0489755422 0.0282829646 0.250680923
v 0.0391420685 0.0261631999 0.245908529
v 0.0390167832 0.0261377487 0.246074304
v 0.0400547944 0.0212467983 0.246107906
v 0.0392835997 0.0261921957 0.245757028
v 0.0401800796 0.0212722495 0.245942131
v 0.0394398272 0.0262244213 0.245621458
v 0.0403216109 0.0213012453 0.245790631
v 0.0396090373 0.026259521 0.245503291
v 0.0404778384 0.0213334691 0.24565506
v 0.0397893749 0.0262971111 0.245403856
v 0.0406470485 0.0213685706 0.245536909
v 0.0399788693 0.0263367798 0.245324209
v 0.0408273898 0.0214061607 0.245437458
v 0.0401754417 0.0263780933 0.245265231
v 0.0410168841 0.0214458294 0.245357811
v 0.0403769352 0.0264205988 0.245227575
v 0.0412134528 0.0214871429 0.245298848
v 0.0405811481 0.026463829 0.245211661
v 0.04141495 0.0215296485 0.245261192
v 0.0407858379 0.0265073124 0.245217636
v 0.041619163 0.0215728786 0.245245263
v 0.0409887657 0.0265505705 0.245245472
v 0.0418238528 0.021616362 0.245251253
v 0.0411877073 0.0265931319 0.245294824
v 0.0420267805 0.0216596201 0.245279074
v 0.0413804799 0.0266345274 0.245365173
v 0.0422257185 0.0217021797 0.245328426
v 0.0415649749 0.026674306 0.245455757
v 0.0424184911 0.021743577 0.24539879
v 0.0417391695 0.0267120302 0.245565563
v 0.0426029861 0.0217833538 0.245489359
v 0.0427771807 0.0218210779 0.245599166
v 0.0528107733 0.0291305222 0.255570889
v 0.052685488 0.0291050728 0.255736679
v 0.0537235029 0.0242141206 0.255770266
v 0.0529523045 0.0291595198 0.255419403
v 0.0538487881 0.0242395718 0.255604506
v 0.053108532 0.0291917436 0.255283833
v 0.0539903194 0.0242685676 0.255452991
v 0.0532777421 0.0292268433 0.255165666
v 0.0541465469 0.0243007932 0.25531742
v 0.0534580834 0.0292644333 0.255066216
v 0.054315757 0.0243358929 0.255199283
v 0.0536475778 0.0293041039 0.254986584
v 0.0544960946 0.0243734829 0.255099833
v 0.0538441464 0.0293454174 0.254927605
v 0.0546855889 0.0244131517 0.255020171
v 0.0540456437 0.0293879211 0.254889965
v 0.0548821613 0.0244544651 0.254961222
v 0.0542498566 0.0294311531 0.254874021
v 0.0550836585 0.0244969707 0.254923552
v 0.0544545464 0.0294746347 0.254880011
v 0.0552878678 0.0245402008 0.254907638
v 0.0546574742 0.0295178946 0.254907846
v 0.0554925576 0.0245836843 0.254913628
v 0.0548564121 0.0295604542 0.254957199
v 0.0556954853 0.0246269424 0.254941434
v 0.0550491847 0.0296018496 0.255027562
v 0.055894427 0.0246695038 0.254990816
v 0.0552336797 0.0296416283 0.255118132
v 0.0560871996 0.0247108992 0.25506115
v 0.0554078743 0.0296793524 0.255227923
v 0.0562716946 0.0247506779 0.255151749
v 0.0564458892 0.024788402 0.25526154
v 0.0628062338 0.0312855467 0.260471135
v 0.0626442507 0.0312502868 0.260343313
v 0.0636822656 0.0263593383 0.26037693
v 0.0629542395 0.0313179493 0.260615617
v 0.0638442487 0.0263945945 0.260504752
v 0.0630866364 0.0313471444 0.260775119
v 0.0639922544 0.0264269989 0.260649204
v 0.0632019788 0.0313728116 0.260947913
v 0.0641246513 0.0264561921 0.260808736
v 0.0632990003 0.0313946679 0.261132151
v 0.0642399937 0.0264818594 0.26098153
v 0.0633766428 0.0314124748 0.261325747
v 0.0643370152 0.0265037175 0.261165738
v 0.0634340569 0.0314260386 0.261526585
v 0.0644146577 0.0265215244 0.261359334
v 0.063470602 0.0314352103 0.261732519
v 0.0644720644 0.0265350901 0.261560202
v 0.0634858832 0.0314398892 0.261941254
v 0.0645086169 0.0265442599 0.261766136
v 0.0634797364 0.0314400233 0.262150496
v 0.0645238981 0.0265489388 0.261974871
v 0.0634522289 0.0314356126 0.26235798
v 0.0645177513 0.0265490729 0.262184113
v 0.063403666 0.0314267017 0.262561411
v 0.0644902438 0.0265446603 0.262391597
v 0.0633345693 0.0314133912 0.262758583
v 0.0644416735 0.0265357513 0.262595028
v 0.0632456988 0.0313958265 0.262947321
v 0.0643725768 0.0265224408 0.2627922
v 0.0631380305 0.0313742012 0.263125539
v 0.0642837137 0.0265048761 0.262980938
v 0.0641760454 0.0264832508 0.263159156
v 0.0542269088 0.0295732711 0.276265293
v 0.0543521941 0.0295987222 0.276099533
v 0.055390209 0.0247077718 0.27613312
v 0.0540853776 0.0295442753 0.276416808
v 0.0552649237 0.0246823207 0.27629891
v 0.0539291501 0.0295120496 0.276552379
v 0.0551233925 0.0246533249 0.276450396
v 0.05375994 0.0294769499 0.276670516
v 0.054967165 0.0246210992 0.276585966
v 0.0535796024 0.0294393599 0.276769966
v 0.0547979549 0.0245859995 0.276704133
v 0.053390108 0.0293996911 0.276849627
v 0.0546176136 0.0245484095 0.276803583
v 0.0531935357 0.0293583777 0.276908576
v 0.0544281192 0.0245087408 0.276883215
v 0.0529920422 0.0293158721 0.276946247
v 0.0542315505 0.0244674273 0.276942194
v 0.0527878292 0.029272642 0.276962161
v 0.0540300533 0.0244249217 0.276979834
v 0.0525831394 0.0292291585 0.276956171
v 0.0538258441 0.0243816916 0.276995778
v 0.0523802117 0.0291859005 0.276928365
v 0.0536211506 0.0243382081 0.276989788
v 0.05218127 0.029143339 0.276878983
v 0.0534182265 0.0242949501 0.276961952
v 0.0519884974 0.0291019436 0.276808649
v 0.0532192849 0.0242523886 0.2769126
v 0.0518040024 0.0290621649 0.27671808
v 0.0530265123 0.0242109932 0.276842237
v 0.0516298078 0.0290244408 0.276608258
v 0.0528420173 0.0241712146 0.276751667
v 0.0526678227 0.0241334904 0.276641876
v 0.0305627417 0.0244509261 0.261702687
v 0.0307247266 0.0244861823 0.261830509
v 0.0317627415 0.0195952319 0.261864126
v 0.0304147378 0.0244185217 0.261558205
v 0.0316007547 0.0195599757 0.261736274
v 0.0302823391 0.0243893266 0.261398703
v 0.0314527526 0.0195275713 0.261591822
v 0.0301669966 0.0243636612 0.261225879
v 0.0313203521 0.0194983762 0.26143232
v 0.0300699733 0.024341803 0.261041671
v 0.0312050097 0.0194727089 0.261259496
v 0.0299923327 0.0243239943 0.260848075
v 0.0311079863 0.0194508526 0.261075288
v 0.0299349241 0.0243104305 0.260647237
v 0.0310303457 0.0194330439 0.260881692
v 0.0298983771 0.0243012588 0.260441303
v 0.0309729371 0.0194194801 0.260680825
v 0.0298830923 0.0242965817 0.260232568
v 0.0309363902 0.0194103085 0.26047492
v 0.0298892371 0.0242964476 0.260023326
v 0.0309211053 0.0194056313 0.260266185
v 0.0299167447 0.0243008602 0.259815842
v 0.030927252 0.0194054972 0.260056913
v 0.0299653132 0.0243097693 0.259612381
v 0.0309547596 0.0194099098 0.259849429
v 0.0300344117 0.0243230797 0.259415239
v 0.031003328 0.0194188189 0.259645998
v 0.0301232804 0.0243406445 0.259226501
v 0.0310724247 0.0194321293 0.259448826
v 0.0302309468 0.0243622698 0.259048283
v 0.0311612934 0.0194496922 0.259260118
v 0.0312689617 0.0194713194 0.25908187
v 0.0391733088 0.0212038923 0.267089307
v 0.0389991142 0.0211661682 0.266979486
v 0.037961103 0.0260571185 0.266945899
v 0.0393578038 0.0212436691 0.267179877
v 0.0381352976 0.0260948427 0.26705569
v 0.0395505764 0.0212850664 0.26725024
v 0.0383197926 0.0261346214 0.26714626
v 0.039749518 0.021327626 0.267299592
v 0.0385125652 0.0261760168 0.267216623
v 0.0399524458 0.0213708859 0.267327428
v 0.0387115031 0.0262185764 0.267265975
v 0.0401571356 0.0214143675 0.267333388
v 0.0389144309 0.0262618363 0.267293811
v 0.0403613485 0.0214575995 0.267317474
v 0.0391191207 0.0263053179 0.267299801
v 0.040562842 0.0215001032 0.267279834
v 0.0393233337 0.0263485499 0.267283857
v 0.0407594144 0.0215414166 0.267220855
v 0.0395248309 0.0263910536 0.267246217
v 0.0409489088 0.0215810854 0.267141193
v 0.0397213995 0.026432367 0.267187238
v 0.0411292464 0.0216186773 0.267041773
v 0.0399108939 0.0264720377 0.267107606
v 0.0412984565 0.021653777 0.266923606
v 0.0400912352 0.0265096277 0.267008156
v 0.041454684 0.0216860007 0.266788036
v 0.0402604453 0.0265447274 0.266889989
v 0.0415962152 0.0217149984 0.266636521
v 0.0404166728 0.0265769511 0.266754419
v 0.0417215005 0.0217404477 0.26647076
v 0.0405582041 0.0266059488 0.266602933
v 0.0406834893 0.0266313981 0.266437143
v 0.0442314483 0.0274182484 0.271365047
v 0.0443934351 0.0274535064 0.271492869
v 0.0454314463 0.022562556 0.271526486
v 0.0440834463 0.0273858458 0.271220595
v 0.0452694595 0.022527298 0.271398664
v 0.0439510457 0.0273566507 0.271061063
v 0.0451214574 0.0224948954 0.271254182
v 0.0438357033 0.0273309834 0.270888269
v 0.0449890606 0.0224657003 0.27109468
v 0.0437386818 0.0273091253 0.270704061
v 0.0448737182 0.022440033 0.270921886
v 0.0436610393 0.0272913184 0.270510465
v 0.044776693 0.0224181749 0.270737678
v 0.0436036326 0.0272777546 0.270309597
v 0.0446990542 0.022400368 0.270544052
v 0.0435670838 0.027268583 0.270103663
v 0.0446416438 0.0223868024 0.270343214
v 0.0435517989 0.027263904 0.269894928
v 0.0446050987 0.0223776326 0.27013728
v 0.0435579456 0.0272637699 0.269685686
v 0.0445898138 0.0223729536 0.269928545
v 0.0435854532 0.0272681825 0.269478202
v 0.0445959568 0.0223728195 0.269719303
v 0.0436340198 0.0272770934 0.269274771
v 0.0446234643 0.0223772321 0.269511819
v 0.0437031202 0.027290402 0.269077599
v 0.0446720347 0.022386143 0.269308388
v 0.043791987 0.0273079667 0.268888891
v 0.0447411314 0.0223994516 0.269111216
v 0.0438996553 0.027329592 0.268710643
v 0.0448300019 0.0224170163 0.268922478
v 0.0449376665 0.0224386416 0.26874426
f 1 2 3
f 4 1 5
f 6 4 7
f 8 6 9
f 10 8 11
f 12 10 13
f 14 12 15
f 16 14 17
f 18 16 19
f 20 18 21
f 22 20 23
f 24 22 25
f 26 24 27
f 28 26 29
f 30 28 31
f 32 30 33
f 34 32 35
f 36 34 37
f 38 36 39
f 40 38 41
f 42 40 43
f 44 42 45
f 46 44 47
f 48 46 49
f 50 48 51
f 52 50 53
f 54 52 55
f 56 54 57
f 58 56 59
f 60 58 61
f 62 60 63
f 64 62 65
f 66 64 67
f 68 66 69
f 70 68 71
f 72 70 73
f 74 72 75
f 76 74 77
f 78 76 79
f 80 78 81
f 82 80 83
f 84 82 85
f 86 84 87
f 88 86 89
f 90 88 91
f 92 90 93
f 94 92 95
f 96 94 97
f 98 96 99
f 100 98 101
f 102 100 103
f 104 102 105
f 106 104 107
f 108 106 109
f 110 108 111
f 112 110 113
f 114 112 115
f 2 114 116
f 116 3 2
f 115 116 114
f 113 115 112
f 111 113 110
f 109 111 108
f 107 109 106
f 105 107 104
f 103 105 102
f 101 103 100
f 99 101 98
f 97 99 96
f 95 97 94
f 93 95 92
f 91 93 90
f 89 91 88
f 87 89 86
f 85 87 84
f 83 85 82
f 81 83 80
f 79 81 78
f 77 79 76
f 75 77 74
f 73 75 72
f 71 73 70
f 69 71 68
f 67 69 66
f 65 67 64
f 63 65 62
f 61 63 60
f 59 61 58
f 57 59 56
f 55 57 54
f 53 55 52
f 51 53 50
f 49 51 48
f 47 49 46
f 45 47 44
f 43 45 42
f 41 43 40
f 39 41 38
f 37 39 36
f 35 37 34
f 33 35 32
f 31 33 30
f 29 31 28
f 27 29 26
f 25 27 24
f 23 25 22
f 21 23 20
f 19 21 18
f 17 19 16
f 15 17 14
f 13 15 12
f 11 13 10
f 9 11 8
f 7 9 6
f 5 7 4
f 3 5 1
f 117 118 119
f 118 120 121
f 122 123 124
f 123 125 126
f 125 117 127
f 121 119 118
f 128 129 130
f 131 122 132
f 126 124 123
f 119 127 117
f 120 133 134
f 130 120 128
f 128 135 136
f 120 137 138
f 139 140 141
f 124 132 122
f 134 121 120
f 120 142 143
f 136 129 128
f 144 145 146
f 147 148 149
f 148 150 151
f 138 152 120
f 141 120 139
f 139 153 154
f 139 155 156
f 139 157 158
f 157 159 160
f 159 161 162
f 161 163 164
f 165 166 167
f 166 168 169
f 170 171 172
f 171 173 174
f 127 126 125
f 130 142 120
f 175 176 177
f 176 175 144
f 178 179 180
f 179 181 182
f 181 183 184
f 183 185 186
f 185 147 187
f 151 149 148
f 150 188 189
f 141 137 120
f 154 190 139
f 139 191 192
f 139 193 194
f 139 195 155
f 195 139 196
f 160 158 157
f 164 162 161
f 163 165 197
f 169 167 166
f 198 199 200
f 199 201 202
f 174 172 171
f 203 204 205
f 204 206 207
f 208 209 210
f 209 211 212
f 211 131 213
f 143 133 120
f 146 176 144
f 214 215 216
f 180 217 178
f 184 182 181
f 187 186 185
f 189 151 150
f 120 218 219
f 190 140 139
f 192 220 139
f 156 193 139
f 139 221 196
f 162 160 159
f 167 197 165
f 222 223 224
f 223 225 226
f 225 227 228
f 227 229 230
f 202 200 199
f 201 170 231
f 173 232 174
f 173 233 234
f 235 178 236
f 178 237 238
f 207 205 204
f 206 239 240
f 239 241 242
f 241 208 243
f 212 210 209
f 132 213 131
f 128 244 245
f 128 214 246
f 216 175 214
f 178 247 248
f 182 180 179
f 149 187 147
f 152 218 120
f 194 191 139
f 196 249 250
f 197 164 163
f 251 252 253
f 252 222 254
f 226 224 223
f 230 228 227
f 231 202 201
f 173 255 232
f 234 256 173
f 178 257 233
f 178 258 236
f 238 259 178
f 178 260 261
f 262 263 264
f 263 203 265
f 240 207 206
f 243 242 241
f 213 212 211
f 246 244 128
f 177 214 175
f 214 128 266
f 267 268 269
f 267 178 270
f 248 271 178
f 186 184 183
f 188 272 273
f 272 274 275
f 120 276 277
f 120 278 279
f 220 153 139
f 158 221 139
f 168 280 281
f 280 251 282
f 254 253 252
f 228 226 225
f 229 283 284
f 283 285 286
f 287 288 289
f 288 290 291
f 290 292 293
f 292 198 294
f 172 231 170
f 233 173 178
f 178 295 296
f 178 297 298
f 259 258 178
f 261 299 178
f 265 264 263
f 242 240 239
f 245 135 128
f 266 215 214
f 270 268 267
f 217 247 178
f 275 273 272
f 279 276 120
f 196 250 195
f 282 281 280
f 224 254 222
f 286 284 283
f 285 300 301
f 300 302 303
f 302 287 304
f 291 289 288
f 294 293 292
f 256 255 173
f 298 295 178
f 299 237 178
f 178 305 306
f 307 308 309
f 307 310 311
f 205 265 203
f 145 267 146
f 267 312 313
f 267 314 315
f 178 316 270
f 273 189 188
f 219 278 120
f 253 282 251
f 301 286 285
f 304 303 302
f 293 291 290
f 296 257 178
f 306 260 178
f 178 317 318
f 319 320 321
f 307 322 323
f 309 324 307
f 311 325 307
f 210 243 208
f 267 326 312
f 267 327 314
f 271 316 178
f 274 328 329
f 328 330 331
f 281 169 168
f 303 301 300
f 196 332 333
f 200 294 198
f 178 235 334
f 318 305 178
f 178 267 335
f 336 337 307
f 319 338 339
f 319 340 341
f 319 342 320
f 324 322 307
f 307 196 310
f 313 146 267
f 269 327 267
f 331 329 328
f 330 262 343
f 284 230 229
f 196 307 332
f 334 297 178
f 335 317 178
f 307 344 336
f 319 345 346
f 341 338 319
f 319 236 342
f 307 347 348
f 325 308 307
f 315 326 267
f 343 331 330
f 333 249 196
f 236 319 235
f 346 337 319
f 321 340 319
f 307 349 347
f 323 350 307
f 329 275 274
f 289 304 287
f 339 345 319
f 350 349 307
f 277 128 120
f 348 344 307
f 336 319 337
f 264 343 262
f 351 352 353
f 351 354 352
f 353 355 351
f 356 357 354
f 358 359 360
f 361 362 363
f 364 365 362
f 366 367 368
f 369 370 367
f 371 372 373
f 374 375 372
f 374 376 377
f 378 379 380
f 351 356 354
f 381 382 383
f 382 384 385
f 386 387 388
f 389 390 387
f 391 392 393
f 394 395 392
f 396 397 398
f 399 400 397
f 401 360 402
f 358 403 359
f 382 404 405
f 382 406 407
f 408 363 409
f 362 361 364
f 367 366 369
f 410 373 370
f 372 371 374
f 377 411 374
f 374 380 412
f 378 413 379
f 378 414 415
f 381 416 357
f 383 417 381
f 382 388 384
f 387 386 389
f 418 419 390
f 420 393 419
f 392 391 394
f 421 422 395
f 397 396 399
f 423 424 400
f 425 402 424
f 360 401 358
f 405 426 382
f 407 427 382
f 428 409 429
f 363 408 361
f 430 368 365
f 370 369 410
f 411 375 374
f 380 374 378
f 415 431 378
f 353 378 355
f 381 432 433
f 417 434 381
f 382 435 436
f 388 382 386
f 419 418 420
f 395 394 421
f 437 438 422
f 439 440 438
f 441 442 443
f 444 445 442
f 400 399 423
f 402 425 401
f 446 447 448
f 446 449 450
f 426 451 452
f 426 453 454
f 405 455 426
f 427 456 382
f 409 428 408
f 368 430 366
f 412 376 374
f 431 457 378
f 433 416 381
f 434 458 381
f 385 435 382
f 393 420 391
f 438 437 439
f 459 460 440
f 461 462 460
f 463 464 462
f 465 466 467
f 441 468 469
f 442 441 444
f 470 471 472
f 473 474 471
f 424 423 425
f 358 475 476
f 358 382 477
f 450 447 446
f 426 478 479
f 426 480 481
f 452 482 426
f 455 453 426
f 382 483 406
f 382 484 485
f 486 487 488
f 489 429 487
f 365 364 430
f 457 413 378
f 382 490 491
f 458 432 381
f 390 389 418
f 440 439 459
f 462 461 463
f 492 493 464
f 494 495 493
f 467 374 465
f 443 468 441
f 496 472 445
f 471 470 473
f 497 498 499
f 500 501 498
f 476 403 358
f 477 502 358
f 382 503 504
f 382 426 505
f 449 506 507
f 448 508 446
f 426 509 478
f 482 480 426
f 456 404 382
f 485 510 382
f 487 486 489
f 373 410 371
f 382 381 490
f 436 383 382
f 460 459 461
f 493 492 494
f 374 511 512
f 374 513 514
f 467 513 374
f 374 441 515
f 469 516 441
f 472 496 470
f 517 518 519
f 520 499 518
f 498 497 500
f 521 522 501
f 523 524 522
f 525 526 524
f 527 528 529
f 530 398 528
f 502 475 358
f 505 503 382
f 449 531 506
f 446 532 449
f 481 509 426
f 510 483 382
f 533 488 534
f 429 489 428
f 378 353 535
f 356 381 357
f 464 463 492
f 536 537 495
f 538 534 537
f 374 539 511
f 374 540 541
f 374 542 543
f 466 544 467
f 515 545 374
f 445 444 496
f 546 547 474
f 548 549 547
f 550 551 552
f 553 554 551
f 555 519 554
f 518 517 520
f 501 500 521
f 524 523 525
f 556 557 526
f 558 529 557
f 528 527 530
f 504 477 382
f 532 531 449
f 454 451 426
f 488 533 486
f 535 559 378
f 422 421 437
f 537 536 538
f 374 560 561
f 541 539 374
f 514 542 374
f 516 515 441
f 547 546 548
f 562 563 549
f 564 565 563
f 566 552 565
f 551 550 553
f 519 555 517
f 522 521 523
f 557 556 558
f 398 530 396
f 479 449 426
f 559 414 378
f 495 494 536
f 544 567 568
f 374 569 560
f 543 540 374
f 374 570 571
f 474 473 546
f 563 562 564
f 552 566 550
f 499 520 497
f 529 558 527
f 448 544 508
f 491 484 382
f 544 572 573
f 544 574 575
f 568 576 544
f 512 569 374
f 374 577 578
f 545 570 374
f 565 564 566
f 544 579 580
f 526 525 556
f 534 538 533
f 573 581 544
f 576 574 544
f 544 582 583
f 578 465 374
f 549 548 562
f 544 448 579
f 507 426 449
f 575 572 544
f 583 584 544
f 571 577 374
f 554 553 555
f 584 567 544
f 580 582 544
f 561 378 374
f 581 467 544
f 585 586 587
f 588 587 589
f 590 589 591
f 592 591 593
f 594 593 595
f 596 595 597
f 598 597 599
f 600 599 601
f 602 601 603
f 604 603 605
f 606 605 607
f 608 607 609
f 610 609 611
f 612 611 613
f 614 613 615
f 616 615 617
f 618 617 619
f 620 619 621
f 622 621 623
f 624 623 625
f 626 625 627
f 628 627 629
f 630 629 631
f 632 631 633
f 634 633 635
f 636 635 637
f 638 637 639
f 640 639 641
f 642 641 643
f 643 644 642
f 641 642 640
f 639 640 638
f 637 638 636
f 635 636 634
f 633 634 632
f 631 632 630
f 629 630 628
f 627 628 626
f 625 626 624
f 623 624 622
f 621 622 620
f 619 620 618
f 617 618 616
f 615 616 614
f 613 614 612
f 611 612 610
f 609 610 608
f 607 608 606
f 605 606 604
f 603 604 602
f 601 602 600
f 599 600 598
f 597 598 596
f 595 596 594
f 593 594 592
f 591 592 590
f 589 590 588
f 587 588 585
f 645 646 647
f 648 647 649
f 650 649 651
f 652 651 653
f 654 653 655
f 656 655 657
f 658 657 659
f 660 659 661
f 662 661 663
f 664 663 665
f 666 665 667
f 668 667 669
f 670 669 671
f 672 671 673
f 674 673 675
f 676 675 677
f 678 677 679
f 680 679 681
f 682 681 683
f 684 683 685
f 686 685 687
f 688 687 689
f 690 689 691
f 692 691 693
f 694 693 695
f 696 695 697
f 698 697 699
f 700 699 701
f 702 701 703
f 703 704 702
f 701 702 700
f 699 700 698
f 697 698 696
f 695 696 694
f 693 694 692
f 691 692 690
f 689 690 688
f 687 688 686
f 685 686 684
f 683 684 682
f 681 682 680
f 679 680 678
f 677 678 676
f 675 676 674
f 673 674 672
f 671 672 670
f 669 670 668
f 667 668 666
f 665 666 664
f 663 664 662
f 661 662 660
f 659 660 658
f 657 658 656
f 655 656 654
f 653 654 652
f 651 652 650
f 649 650 648
f 647 648 645
f 705 706 707
f 708 705 709
f 710 708 711
f 712 710 713
f 714 712 715
f 716 714 717
f 718 716 719
f 720 718 721
f 722 720 723
f 724 722 725
f 726 724 727
f 728 726 729
f 730 728 731
f 732 730 733
f 734 732 735
f 736 734 737
f 738 736 739
f 740 738 741
f 742 740 743
f 744 742 745
f 746 744 747
f 748 746 749
f 750 748 751
f 752 750 753
f 754 752 755
f 756 754 757
f 758 756 759
f 760 758 761
f 762 760 763
f 764 762 765
f 766 764 767
f 768 766 769
f 770 768 771
f 772 770 773
f 774 772 775
f 776 774 777
f 778 776 779
f 780 778 781
f 782 780 783
f 784 782 785
f 786 784 787
f 788 786 789
f 790 788 791
f 792 790 793
f 794 792 795
f 796 794 797
f 798 796 799
f 800 798 801
f 802 800 803
f 804 802 805
f 806 804 807
f 808 806 809
f 810 808 811
f 812 810 813
f 814 812 815
f 816 814 817
f 818 816 819
f 706 818 820
f 820 707 706
f 819 820 818
f 817 819 816
f 815 817 814
f 813 815 812
f 811 813 810
f 809 811 808
f 807 809 806
f 805 807 804
f 803 805 802
f 801 803 800
f 799 801 798
f 797 799 796
f 795 797 794
f 793 795 792
f 791 793 790
f 789 791 788
f 787 789 786
f 785 787 784
f 783 785 782
f 781 783 780
f 779 781 778
f 777 779 776
f 775 777 774
f 773 775 772
f 771 773 770
f 769 771 768
f 767 769 766
f 765 767 764
f 763 765 762
f 761 763 760
f 759 761 758
f 757 759 756
f 755 757 754
f 753 755 752
f 751 753 750
f 749 751 748
f 747 749 746
f 745 747 744
f 743 745 742
f 741 743 740
f 739 741 738
f 737 739 736
f 735 737 734
f 733 735 732
f 731 733 730
f 729 731 728
f 727 729 726
f 725 727 724
f 723 725 722
f 721 723 720
f 719 721 718
f 717 719 716
f 715 717 714
f 713 715 712
f 711 713 710
f 709 711 708
f 707 709 705
f 821 822 823
f 824 821 825
f 826 824 827
f 828 826 829
f 830 828 831
f 832 830 833
f 834 832 835
f 836 834 837
f 838 836 839
f 840 838 841
f 842 840 843
f 844 842 845
f 846 844 847
f 848 846 849
f 850 848 851
f 852 850 853
f 854 852 855
f 856 854 857
f 858 856 859
f 860 858 861
f 862 860 863
f 864 862 865
f 866 864 867
f 868 866 869
f 870 868 871
f 872 870 873
f 874 872 875
f 876 874 877
f 878 876 879
f 880 878 881
f 882 880 883
f 884 882 885
f 886 884 887
f 888 886 889
f 890 888 891
f 892 890 893
f 894 892 895
f 896 894 897
f 898 896 899
f 900 898 901
f 902 900 903
f 904 902 905
f 906 904 907
f 908 906 909
f 910 908 911
f 912 910 913
f 914 912 915
f 916 914 917
f 918 916 919
f 920 918 921
f 922 920 923
f 924 922 925
f 926 924 927
f 928 926 929
f 930 928 931
f 932 930 933
f 934 932 935
f 822 934 936
f 936 823 822
f 935 936 934
f 933 935 932
f 931 933 930
f 929 931 928
f 927 929 926
f 925 927 924
f 923 925 922
f 921 923 920
f 919 921 918
f 917 919 916
f 915 917 914
f 913 915 912
f 911 913 910
f 909 911 908
f 907 909 906
f 905 907 904
f 903 905 902
f 901 903 900
f 899 901 898
f 897 899 896
f 895 897 894
f 893 895 892
f 891 893 890
f 889 891 888
f 887 889 886
f 885 887 884
f 883 885 882
f 881 883 880
f 879 881 878
f 877 879 876
f 875 877 874
f 873 875 872
f 871 873 870
f 869 871 868
f 867 869 866
f 865 867 864
f 863 865 862
f 861 863 860
f 859 861 858
f 857 859 856
f 855 857 854
f 853 855 852
f 851 853 850
f 849 851 848
f 847 849 846
f 845 847 844
f 843 845 842
f 841 843 840
f 839 841 838
f 837 839 836
f 835 837 834
f 833 835 832
f 831 833 830
f 829 831 828
f 827 829 826
f 825 827 824
f 823 825 821
f 937 938 939
f 939 940 937
f 938 941 942
f 943 944 945
f 938 946 939
f 942 947 938
f 948 949 941
f 945 948 943
f 950 951 952
f 938 953 946
f 938 954 955
f 941 938 948
f 956 957 958
f 943 959 944
f 950 960 951
f 940 961 937
f 955 962 938
f 938 963 964
f 947 965 938
f 958 966 956
f 943 967 959
f 952 968 950
f 961 969 937
f 938 970 971
f 938 972 954
f 965 963 938
f 973 974 975
f 974 973 957
f 976 977 978
f 945 979 948
f 943 980 981
f 982 983 968
f 969 984 937
f 971 985 938
f 938 986 987
f 964 972 938
f 956 974 957
f 978 988 976
f 976 989 990
f 981 967 943
f 943 991 992
f 943 993 994
f 952 982 968
f 995 996 997
f 995 998 999
f 985 953 938
f 962 986 938
f 948 1000 1001
f 988 973 976
f 976 1002 989
f 966 1003 960
f 948 1004 1005
f 948 1006 1007
f 948 1008 1009
f 992 980 943
f 994 1010 943
f 943 1011 1012
f 1013 995 1014
f 997 983 995
f 995 1013 998
f 937 1015 1016
f 937 1017 1018
f 987 970 938
f 1001 1019 948
f 990 977 976
f 966 958 1003
f 1020 1021 1022
f 1020 948 1023
f 948 1024 1004
f 948 1025 1026
f 948 1027 1006
f 979 1008 948
f 1010 1028 943
f 1012 1029 943
f 943 1013 1030
f 1013 1031 1032
f 1013 1033 1034
f 1014 1035 1013
f 999 996 995
f 1016 1036 937
f 937 1037 1038
f 1018 1039 937
f 1019 949 948
f 948 1020 1040
f 1002 976 1041
f 960 950 966
f 1023 1021 1020
f 948 1042 1024
f 948 1043 1044
f 1026 1045 948
f 1009 1027 948
f 1028 1046 943
f 943 1047 1048
f 1030 1011 943
f 1013 1049 1031
f 1034 1050 1013
f 1013 1051 1052
f 982 995 983
f 1036 1053 937
f 1038 1054 937
f 984 1017 937
f 1040 1055 948
f 975 976 973
f 1005 1023 948
f 948 1056 1043
f 1007 1025 948
f 943 1057 1058
f 943 1059 1060
f 943 937 1061
f 937 1062 1063
f 1048 993 943
f 1029 1064 943
f 1050 1049 1013
f 1035 1051 1013
f 1054 1015 937
f 1055 1000 948
f 1022 1002 1020
f 1045 1056 948
f 943 1065 1057
f 1060 1066 943
f 943 1067 1068
f 1063 1061 937
f 1064 1047 943
f 1052 1033 1013
f 1039 1037 937
f 1044 1042 948
f 1066 1065 943
f 1061 1067 943
f 1032 1030 1013
f 1041 1020 1002
f 1068 1059 943
f 1053 1062 937
f 1046 991 943
f 1058 1013 943
f 1069 1070 1071
f 1071 1072 1069
f 1073 1074 1069
f 1072 1073 1069
f 1075 1076 1071
f 1075 1077 1076
f 1073 1078 1074
f 1075 1079 1077
f 1070 1075 1071
f 1080 1081 1082
f 1075 1083 1079
f 1084 1080 1085
f 1078 1073 1086
f 1080 1084 1081
f 1085 1079 1084
f 1078 1087 1088
f 1086 1089 1078
f 1083 1084 1079
f 1090 1078 1091
f 1092 1093 1094
f 1095 1096 1097
f 1096 1098 1099
f 1088 1100 1078
f 1082 1101 1080
f 1102 1103 1090
f 1092 1104 1093
f 1092 1105 1106
f 1092 1107 1108
f 1092 1109 1110
f 1096 1111 1097
f 1099 1112 1096
f 1113 1114 1098
f 1103 1115 1116
f 1089 1087 1078
f 1091 1102 1090
f 1095 1117 1118
f 1092 1119 1104
f 1108 1105 1092
f 1109 1120 1110
f 1097 1121 1095
f 1096 1122 1123
f 1098 1096 1113
f 1116 1124 1103
f 1102 1115 1103
f 1095 1125 1126
f 1118 1127 1095
f 1095 1128 1129
f 1106 1119 1092
f 1092 1130 1131
f 1110 1132 1092
f 1109 1133 1134
f 1095 1135 1136
f 1095 1137 1138
f 1121 1139 1095
f 1096 1140 1122
f 1096 1141 1142
f 1113 1143 1114
f 1100 1091 1078
f 1127 1125 1095
f 1129 1144 1095
f 1095 1145 1146
f 1095 1147 1148
f 1131 1107 1092
f 1109 1149 1120
f 1109 1150 1151
f 1134 1152 1109
f 1109 1153 1154
f 1138 1135 1095
f 1123 1111 1096
f 1096 1155 1156
f 1096 1157 1158
f 1096 1159 1141
f 1112 1160 1096
f 1143 1161 1103
f 1143 1162 1163
f 1143 1164 1165
f 1143 1113 1166
f 1101 1126 1167
f 1144 1117 1095
f 1148 1145 1095
f 1132 1130 1092
f 1152 1150 1109
f 1109 1168 1169
f 1154 1170 1109
f 1139 1137 1095
f 1096 1171 1155
f 1096 1172 1157
f 1160 1159 1096
f 1163 1161 1143
f 1101 1173 1174
f 1143 1175 1164
f 1166 1176 1143
f 1167 1177 1101
f 1146 1128 1095
f 1151 1149 1109
f 1109 1178 1168
f 1109 1179 1180
f 1170 1181 1109
f 1095 1182 1153
f 1095 1183 1184
f 1156 1140 1096
f 1142 1172 1096
f 1174 1080 1101
f 1176 1175 1143
f 1101 1185 1186
f 1126 1101 1095
f 1169 1133 1109
f 1180 1187 1109
f 1153 1109 1095
f 1095 1188 1189
f 1184 1190 1095
f 1095 1101 1191
f 1158 1171 1096
f 1165 1162 1143
f 1101 1192 1185
f 1095 1193 1147
f 1096 1092 1194
f 1092 1195 1196
f 1092 1197 1198
f 1187 1178 1109
f 1189 1182 1095
f 1191 1183 1095
f 1124 1143 1103
f 1177 1192 1101
f 1196 1194 1092
f 1094 1197 1092
f 1190 1188 1095
f 1186 1173 1101
f 1194 1199 1096
f 1181 1179 1109
f 1199 1113 1096
f 1198 1200 1092
f 1200 1195 1092
f 1136 1193 1095
f 1201 1202 1203
f 1203 1204 1201
f 1205 1206 1207
f 1207 1208 1205
f 1209 1210 1211
f 1211 1212 1209
f 1213 1214 1215
f 1215 1216 1213
f 1217 1218 1219
f 1219 1220 1217
f 1221 1222 1223
f 1223 1224 1221
f 1225 1226 1227
f 1227 1228 1225
f 1229 1230 1231
f 1231 1232 1229
f 1233 1234 1235
f 1236 1233 1237
f 1238 1236 1239
f 1240 1238 1241
f 1242 1240 1243
f 1244 1242 1245
f 1246 1244 1247
f 1248 1246 1249
f 1250 1248 1251
f 1252 1250 1253
f 1254 1252 1255
f 1256 1254 1257
f 1258 1256 1259
f 1260 1258 1261
f 1262 1260 1263
f 1263 1264 1262
f 1261 1263 1260
f 1259 1261 1258
f 1257 1259 1256
f 1255 1257 1254
f 1253 1255 1252
f 1251 1253 1250
f 1249 1251 1248
f 1247 1249 1246
f 1245 1247 1244
f 1243 1245 1242
f 1241 1243 1240
f 1239 1241 1238
f 1237 1239 1236
f 1235 1237 1233
f 1265 1266 1267
f 1268 1265 1269
f 1270 1268 1271
f 1272 1270 1273
f 1274 1272 1275
f 1276 1274 1277
f 1278 1276 1279
f 1280 1278 1281
f 1282 1280 1283
f 1284 1282 1285
f 1286 1284 1287
f 1288 1286 1289
f 1290 1288 1291
f 1292 1290 1293
f 1294 1292 1295
f 1295 1296 1294
f 1293 1295 1292
f 1291 1293 1290
f 1289 1291 1288
f 1287 1289 1286
f 1285 1287 1284
f 1283 1285 1282
f 1281 1283 1280
f 1279 1281 1278
f 1277 1279 1276
f 1275 1277 1274
f 1273 1275 1272
f 1271 1273 1270
f 1269 1271 1268
f 1267 1269 1265
f 1297 1298 1299
f 1300 1297 1301
f 1302 1300 1303
f 1304 1302 1305
f 1306 1304 1307
f 1308 1306 1309
f 1310 1308 1311
f 1312 1310 1313
f 1314 1312 1315
f 1316 1314 1317
f 1318 1316 1319
f 1320 1318 1321
f 1322 1320 1323
f 1324 1322 1325
f 1326 1324 1327
f 1327 1328 1326
f 1325 1327 1324
f 1323 1325 1322
f 1321 1323 1320
f 1319 1321 1318
f 1317 1319 1316
f 1315 1317 1314
f 1313 1315 1312
f 1311 1313 1310
f 1309 1311 1308
f 1307 1309 1306
f 1305 1307 1304
f 1303 1305 1302
f 1301 1303 1300
f 1299 1301 1297
f 1329 1330 1331
f 1332 1329 1333
f 1334 1332 1335
f 1336 1334 1337
f 1338 1336 1339
f 1340 1338 1341
f 1342 1340 1343
f 1344 1342 1345
f 1346 1344 1347
f 1348 1346 1349
f 1350 1348 1351
f 1352 1350 1353
f 1354 1352 1355
f 1356 1354 1357
f 1358 1356 1359
f 1359 1360 1358
f 1357 1359 1356
f 1355 1357 1354
f 1353 1355 1352
f 1351 1353 1350
f 1349 1351 1348
f 1347 1349 1346
f 1345 1347 1344
f 1343 1345 1342
f 1341 1343 1340
f 1339 1341 1338
f 1337 1339 1336
f 1335 1337 1334
f 1333 1335 1332
f 1331 1333 1329
f 1361 1362 1363
f 1364 1361 1365
f 1366 1364 1367
f 1368 1366 1369
f 1370 1368 1371
f 1372 1370 1373
f 1374 1372 1375
f 1376 1374 1377
f 1378 1376 1379
f 1380 1378 1381
f 1382 1380 1383
f 1384 1382 1385
f 1386 1384 1387
f 1388 1386 1389
f 1390 1388 1391
f 1391 1392 1390
f 1389 1391 1388
f 1387 1389 1386
f 1385 1387 1384
f 1383 1385 1382
f 1381 1383 1380
f 1379 1381 1378
f 1377 1379 1376
f 1375 1377 1374
f 1373 1375 1372
f 1371 1373 1370
f 1369 1371 1368
f 1367 1369 1366
f 1365 1367 1364
f 1363 1365 1361
f 1393 1394 1395
f 1396 1393 1397
f 1398 1396 1399
f 1400 1398 1401
f 1402 1400 1403
f 1404 1402 1405
f 1406 1404 1407
f 1408 1406 1409
f 1410 1408 1411
f 1412 1410 1413
f 1414 1412 1415
f 1416 1414 1417
f 1418 1416 1419
f 1420 1418 1421
f 1422 1420 1423
f 1423 1424 1422
f 1421 1423 1420
f 1419 1421 1418
f 1417 1419 1416
f 1415 1417 1414
f 1413 1415 1412
f 1411 1413 1410
f 1409 1411 1408
f 1407 1409 1406
f 1405 1407 1404
f 1403 1405 1402
f 1401 1403 1400
f 1399 1401 1398
f 1397 1399 1396
f 1395 1397 1393
f 1425 1426 1427
f 1428 1425 1429
f 1430 1428 1431
f 1432 1430 1433
f 1434 1432 1435
f 1436 1434 1437
f 1438 1436 1439
f 1440 1438 1441
f 1442 1440 1443
f 1444 1442 1445
f 1446 1444 1447
f 1448 1446 1449
f 1450 1448 1451
f 1452 1450 1453
f 1454 1452 1455
f 1455 1456 1454
f 1453 1455 1452
f 1451 1453 1450
f 1449 1451 1448
f 1447 1449 1446
f 1445 1447 1444
f 1443 1445 1442
f 1441 1443 1440
f 1439 1441 1438
f 1437 1439 1436
f 1435 1437 1434
f 1433 1435 1432
f 1431 1433 1430
f 1429 1431 1428
f 1427 1429 1425
f 1457 1458 1459
f 1460 1457 1461
f 1462 1460 1463
f 1464 1462 1465
f 1466 1464 1467
f 1468 1466 1469
f 1470 1468 1471
f 1472 1470 1473
f 1474 1472 1475
f 1476 1474 1477
f 1478 1476 1479
f 1480 1478 1481
f 1482 1480 1483
f 1484 1482 1485
f 1486 1484 1487
f 1487 1488 1486
f 1485 1487 1484
f 1483 1485 1482
f 1481 1483 1480
f 1479 1481 1478
f 1477 1479 1476
f 1475 1477 1474
f 1473 1475 1472
f 1471 1473 1470
f 1469 1471 1468
f 1467 1469 1466
f 1465 1467 1464
f 1463 1465 1462
f 1461 1463 1460
f 1459 1461 1457
