v 0.417804509 -0.367178023 0.0505643114
v 0.42021969 -0.36744076 0.0505124405
v 0.420177132 -0.367700398 0.0505129993
v 0.420106739 -0.367953926 0.0505141579
v 0.420009375 -0.368198365 0.050515905
v 0.419886142 -0.368430823 0.0505182222
v 0.419738531 -0.368648618 0.0505210795
v 0.419568211 -0.368849128 0.0505244397
v 0.419377238 -0.369030088 0.050528273
v 0.419167817 -0.369189322 0.0505325235
v 0.418942422 -0.369324952 0.0505371504
v 0.418703675 -0.369435459 0.0505420938
v 0.418454379 -0.369519472 0.050547298
v 0.418197483 -0.369576007 0.0505527034
v 0.417935967 -0.369604468 0.0505582429
v 0.417672902 -0.369604468 0.0505638532
v 0.417411387 -0.369576007 0.050569471
v 0.417154491 -0.369519472 0.0505750291
v 0.416905195 -0.369435459 0.0505804569
v 0.416666478 -0.369324952 0.0505856983
v 0.416441083 -0.369189322 0.0505906902
v 0.416231662 -0.369030088 0.0505953692
v 0.416040689 -0.368849128 0.0505996868
v 0.415870398 -0.368648618 0.0506035909
v 0.415722787 -0.368430823 0.0506070331
v 0.415599555 -0.368198365 0.0506099723
v 0.41550222 -0.367953926 0.0506123789
v 0.415431827 -0.367700398 0.0506142192
v 0.415389299 -0.36744076 0.0506154783
v 0.415375054 -0.367178023 0.050616134
v 0.415389299 -0.366915315 0.0506161824
v 0.415431857 -0.366655648 0.0506156236
v 0.41550225 -0.366402119 0.050614465
v 0.415599614 -0.366157711 0.0506127179
v 0.415722847 -0.365925252 0.0506104007
v 0.415870488 -0.365707457 0.0506075434
v 0.416040778 -0.365506917 0.0506041795
v 0.416231751 -0.365325987 0.0506003499
v 0.416441172 -0.365166754 0.0505960956
v 0.416666597 -0.365031093 0.0505914725
v 0.416905344 -0.364920616 0.0505865291
v 0.41715461 -0.364836603 0.0505813248
v 0.417411536 -0.364780039 0.0505759194
v 0.417673051 -0.364751607 0.0505703799
v 0.417936087 -0.364751607 0.0505647659
v 0.418197602 -0.364780039 0.0505591519
v 0.418454528 -0.364836603 0.0505535938
v 0.418703794 -0.364920616 0.050548166
v 0.418942541 -0.365031093 0.0505429246
v 0.419167936 -0.365166754 0.0505379327
v 0.419377357 -0.365325987 0.05053325
v 0.41956833 -0.365506917 0.0505289361
v 0.419738621 -0.365707457 0.050525032
v 0.419886231 -0.365925252 0.0505215898
v 0.420009434 -0.366157711 0.0505186506
v 0.420106798 -0.366402119 0.050516244
v 0.420177162 -0.366655648 0.0505144037
v 0.420219719 -0.366915315 0.0505131446
v 0.420233935 -0.367178023 0.0505124889
v 0.42076081 -0.367211252 0.0752120689
v 0.420233935 -0.367178023 0.0505124889
v 0.420219719 -0.366915315 0.0505131446
v 0.420746595 -0.366948515 0.0752127245
v 0.420177162 -0.366655648 0.0505144037
v 0.420704037 -0.366688877 0.0752139837
v 0.420106798 -0.366402119 0.050516244
v 0.420633674 -0.366435349 0.0752158239
v 0.420009434 -0.366157711 0.0505186506
v 0.420536309 -0.36619091 0.0752182305
v 0.419886231 -0.365925252 0.0505215898
v 0.420413107 -0.365958452 0.075221166
v 0.419738621 -0.365707457 0.050525032
v 0.420265496 -0.365740687 0.0752246082
v 0.41956833 -0.365506917 0.0505289361
v 0.420095176 -0.365540147 0.0752285123
v 0.419377357 -0.365325987 0.05053325
v 0.419904232 -0.365359187 0.0752328336
v 0.419167936 -0.365166754 0.0505379327
v 0.419694811 -0.365199983 0.0752375126
v 0.418942541 -0.365031093 0.0505429246
v 0.419469416 -0.365064323 0.0752425045
v 0.418703794 -0.364920616 0.050548166
v 0.41923067 -0.364953846 0.0752477422
v 0.418454528 -0.364836603 0.0505535938
v 0.418981373 -0.364869833 0.0752531737
v 0.418197602 -0.364780039 0.0505591519
v 0.418724477 -0.364813268 0.0752587318
v 0.417936087 -0.364751607 0.0505647659
v 0.418462962 -0.364784807 0.0752643496
v 0.417673051 -0.364751607 0.0505703799
v 0.418199927 -0.364784807 0.0752699599
v 0.417411536 -0.364780039 0.0505759194
v 0.417938411 -0.364813268 0.0752754956
v 0.41715461 -0.364836603 0.0505813248
v 0.417681485 -0.364869833 0.0752809048
v 0.416905344 -0.364920616 0.0505865291
v 0.417432219 -0.364953846 0.0752861053
v 0.416666597 -0.365031093 0.0505914725
v 0.417193472 -0.365064323 0.0752910525
v 0.416441172 -0.365166754 0.0505960956
v 0.416968048 -0.365199983 0.0752956793
v 0.416231751 -0.365325987 0.0506003499
v 0.416758627 -0.365359187 0.0752999261
v 0.416040778 -0.365506917 0.0506041795
v 0.416567653 -0.365540147 0.0753037632
v 0.415870488 -0.365707457 0.0506075434
v 0.416397363 -0.365740687 0.0753071234
v 0.415722847 -0.365925252 0.0506104007
v 0.416249722 -0.365958452 0.0753099769
v 0.415599614 -0.366157711 0.0506127179
v 0.41612649 -0.36619091 0.0753122941
v 0.41550225 -0.366402119 0.050614465
v 0.416029125 -0.366435349 0.075314045
v 0.415431857 -0.366655648 0.0506156236
v 0.415958732 -0.366688877 0.0753152072
v 0.415389299 -0.366915315 0.0506161824
v 0.415916175 -0.366948515 0.075315766
v 0.415375054 -0.367178023 0.050616134
v 0.415901929 -0.367211252 0.0753157139
v 0.415389299 -0.36744076 0.0506154783
v 0.415916175 -0.36747399 0.0753150582
v 0.415431827 -0.367700398 0.0506142192
v 0.415958703 -0.367733628 0.0753137991
v 0.41550222 -0.367953926 0.0506123789
v 0.416029066 -0.367987156 0.0753119588
v 0.415599555 -0.368198365 0.0506099723
v 0.41612643 -0.368231595 0.0753095523
v 0.415722787 -0.368430823 0.0506070331
v 0.416249663 -0.368464053 0.0753066093
v 0.415870398 -0.368648618 0.0506035909
v 0.416397274 -0.368681818 0.0753031671
v 0.416040689 -0.368849128 0.0505996868
v 0.416567564 -0.368882358 0.0752992705
v 0.416231662 -0.369030088 0.0505953692
v 0.416758537 -0.369063318 0.0752949491
v 0.416441083 -0.369189322 0.0505906902
v 0.416967928 -0.369222522 0.0752902701
v 0.416666478 -0.369324952 0.0505856983
v 0.417193323 -0.369358182 0.0752852783
v 0.416905195 -0.369435459 0.0505804569
v 0.41743207 -0.369468659 0.0752800405
v 0.417154491 -0.369519472 0.0505750291
v 0.417681366 -0.369552672 0.075274609
v 0.417411387 -0.369576007 0.050569471
v 0.417938262 -0.369609237 0.0752690509
v 0.417672902 -0.369604468 0.0505638532
v 0.418199778 -0.369637698 0.0752634332
v 0.417935967 -0.369604468 0.0505582429
v 0.418462843 -0.369637698 0.0752578229
v 0.418197483 -0.369576007 0.0505527034
v 0.418724358 -0.369609237 0.0752522796
v 0.418454379 -0.369519472 0.050547298
v 0.418981254 -0.369552672 0.075246878
v 0.418703675 -0.369435459 0.0505420938
v 0.419230551 -0.369468659 0.07524167
v 0.418942422 -0.369324952 0.0505371504
v 0.419469297 -0.369358182 0.0752367303
v 0.419167817 -0.369189322 0.0505325235
v 0.419694692 -0.369222522 0.0752321035
v 0.419377238 -0.369030088 0.050528273
v 0.419904113 -0.369063318 0.0752278492
v 0.419568211 -0.368849128 0.0505244397
v 0.420095086 -0.368882358 0.0752240196
v 0.419738531 -0.368648618 0.0505210795
v 0.420265406 -0.368681818 0.0752206594
v 0.419886142 -0.368430823 0.0505182222
v 0.420413017 -0.368464053 0.0752177984
v 0.420009375 -0.368198365 0.050515905
v 0.42053625 -0.368231595 0.0752154887
v 0.420106739 -0.367953926 0.0505141579
v 0.420633614 -0.367987156 0.0752137378
v 0.420177132 -0.367700398 0.0505129993
v 0.420704007 -0.367733628 0.0752125755
v 0.42021969 -0.36744076 0.0505124405
v 0.420746565 -0.36747399 0.0752120167
v 0.418331385 -0.367211252 0.0752638876
v 0.420746595 -0.366948515 0.0752127245
v 0.420704037 -0.366688877 0.0752139837
v 0.420633674 -0.366435349 0.0752158239
v 0.420536309 -0.36619091 0.0752182305
v 0.420413107 -0.365958452 0.075221166
v 0.420265496 -0.365740687 0.0752246082
v 0.420095176 -0.365540147 0.0752285123
v 0.419904232 -0.365359187 0.0752328336
v 0.419694811 -0.365199983 0.0752375126
v 0.419469416 -0.365064323 0.0752425045
v 0.41923067 -0.364953846 0.0752477422
v 0.418981373 -0.364869833 0.0752531737
v 0.418724477 -0.364813268 0.0752587318
v 0.418462962 -0.364784807 0.0752643496
v 0.418199927 -0.364784807 0.0752699599
v 0.417938411 -0.364813268 0.0752754956
v 0.417681485 -0.364869833 0.0752809048
v 0.417432219 -0.364953846 0.0752861053
v 0.417193472 -0.365064323 0.0752910525
v 0.416968048 -0.365199983 0.0752956793
v 0.416758627 -0.365359187 0.0752999261
v 0.416567653 -0.365540147 0.0753037632
v 0.416397363 -0.365740687 0.0753071234
v 0.416249722 -0.365958452 0.0753099769
v 0.41612649 -0.36619091 0.0753122941
v 0.416029125 -0.366435349 0.075314045
v 0.415958732 -0.366688877 0.0753152072
v 0.415916175 -0.366948515 0.075315766
v 0.415901929 -0.367211252 0.0753157139
v 0.415916175 -0.36747399 0.0753150582
v 0.415958703 -0.367733628 0.0753137991
v 0.416029066 -0.367987156 0.0753119588
v 0.41612643 -0.368231595 0.0753095523
v 0.416249663 -0.368464053 0.0753066093
v 0.416397274 -0.368681818 0.0753031671
v 0.416567564 -0.368882358 0.0752992705
v 0.416758537 -0.369063318 0.0752949491
v 0.416967928 -0.369222522 0.0752902701
v 0.417193323 -0.369358182 0.0752852783
v 0.41743207 -0.369468659 0.0752800405
v 0.417681366 -0.369552672 0.075274609
v 0.417938262 -0.369609237 0.0752690509
v 0.418199778 -0.369637698 0.0752634332
v 0.418462843 -0.369637698 0.0752578229
v 0.418724358 -0.369609237 0.0752522796
v 0.418981254 -0.369552672 0.075246878
v 0.419230551 -0.369468659 0.07524167
v 0.419469297 -0.369358182 0.0752367303
v 0.419694692 -0.369222522 0.0752321035
v 0.419904113 -0.369063318 0.0752278492
v 0.420095086 -0.368882358 0.0752240196
v 0.420265406 -0.368681818 0.0752206594
v 0.420413017 -0.368464053 0.0752177984
v 0.42053625 -0.368231595 0.0752154887
v 0.420633614 -0.367987156 0.0752137378
v 0.420704007 -0.367733628 0.0752125755
v 0.420746565 -0.36747399 0.0752120167
v 0.42076081 -0.367211252 0.0752120689
f 1 2 3
f 3 4 1
f 4 5 1
f 5 6 1
f 6 7 1
f 7 8 1
f 8 9 1
f 9 10 1
f 10 11 1
f 11 12 1
f 12 13 1
f 13 14 1
f 14 15 1
f 15 16 1
f 16 17 1
f 17 18 1
f 18 19 1
f 19 20 1
f 20 21 1
f 21 22 1
f 22 23 1
f 23 24 1
f 24 25 1
f 25 26 1
f 26 27 1
f 27 28 1
f 28 29 1
f 29 30 1
f 30 31 1
f 31 32 1
f 32 33 1
f 33 34 1
f 34 35 1
f 35 36 1
f 36 37 1
f 37 38 1
f 38 39 1
f 39 40 1
f 40 41 1
f 41 42 1
f 42 43 1
f 43 44 1
f 44 45 1
f 45 46 1
f 46 47 1
f 47 48 1
f 48 49 1
f 49 50 1
f 50 51 1
f 51 52 1
f 52 53 1
f 53 54 1
f 54 55 1
f 55 56 1
f 56 57 1
f 57 58 1
f 58 59 1
f 59 2 1
f 60 61 62
f 63 62 64
f 65 64 66
f 67 66 68
f 69 68 70
f 71 70 72
f 73 72 74
f 75 74 76
f 77 76 78
f 79 78 80
f 81 80 82
f 83 82 84
f 85 84 86
f 87 86 88
f 89 88 90
f 91 90 92
f 93 92 94
f 95 94 96
f 97 96 98
f 99 98 100
f 101 100 102
f 103 102 104
f 105 104 106
f 107 106 108
f 109 108 110
f 111 110 112
f 113 112 114
f 115 114 116
f 117 116 118
f 119 118 120
f 121 120 122
f 123 122 124
f 125 124 126
f 127 126 128
f 129 128 130
f 131 130 132
f 133 132 134
f 135 134 136
f 137 136 138
f 139 138 140
f 141 140 142
f 143 142 144
f 145 144 146
f 147 146 148
f 149 148 150
f 151 150 152
f 153 152 154
f 155 154 156
f 157 156 158
f 159 158 160
f 161 160 162
f 163 162 164
f 165 164 166
f 167 166 168
f 169 168 170
f 171 170 172
f 173 172 174
f 175 174 61
f 61 60 175
f 174 175 173
f 172 173 171
f 170 171 169
f 168 169 167
f 166 167 165
f 164 165 163
f 162 163 161
f 160 161 159
f 158 159 157
f 156 157 155
f 154 155 153
f 152 153 151
f 150 151 149
f 148 149 147
f 146 147 145
f 144 145 143
f 142 143 141
f 140 141 139
f 138 139 137
f 136 137 135
f 134 135 133
f 132 133 131
f 130 131 129
f 128 129 127
f 126 127 125
f 124 125 123
f 122 123 121
f 120 121 119
f 118 119 117
f 116 117 115
f 114 115 113
f 112 113 111
f 110 111 109
f 108 109 107
f 106 107 105
f 104 105 103
f 102 103 101
f 100 101 99
f 98 99 97
f 96 97 95
f 94 95 93
f 92 93 91
f 90 91 89
f 88 89 87
f 86 87 85
f 84 85 83
f 82 83 81
f 80 81 79
f 78 79 77
f 76 77 75
f 74 75 73
f 72 73 71
f 70 71 69
f 68 69 67
f 66 67 65
f 64 65 63
f 62 63 60
f 176 177 178
f 178 179 176
f 179 180 176
f 180 181 176
f 181 182 176
f 182 183 176
f 183 184 176
f 184 185 176
f 185 186 176
f 186 187 176
f 187 188 176
f 188 189 176
f 189 190 176
f 190 191 176
f 191 192 176
f 192 193 176
f 193 194 176
f 194 195 176
f 195 196 176
f 196 197 176
f 197 198 176
f 198 199 176
f 199 200 176
f 200 201 176
f 201 202 176
f 202 203 176
f 203 204 176
f 204 205 176
f 205 206 176
f 206 207 176
f 207 208 176
f 208 209 176
f 209 210 176
f 210 211 176
f 211 212 176
f 212 213 176
f 213 214 176
f 214 215 176
f 215 216 176
f 216 217 176
f 217 218 176
f 218 219 176
f 219 220 176
f 220 221 176
f 221 222 176
f 222 223 176
f 223 224 176
f 224 225 176
f 225 226 176
f 226 227 176
f 227 228 176
f 228 229 176
f 229 230 176
f 230 231 176
f 231 232 176
f 232 233 176
f 233 234 176
f 234 177 176
