v 0.053081505 0.0449855737 0.0162498392
v 0.0505279787 0.0453367718 0.0142731545
v 0.0505729765 0.0456838496 0.0143079851
v 0.0506473817 0.046022743 0.0143655818
v 0.0507503226 0.046349477 0.0144452704
v 0.050880596 0.0466602184 0.014546115
v 0.0510366745 0.0469513275 0.0146669354
v 0.0512167253 0.0472193919 0.0148063125
v 0.0514186397 0.0474612638 0.0149626145
v 0.0516400523 0.047674112 0.0151340077
v 0.0518783592 0.0478554405 0.0153184831
v 0.0521307774 0.0480031185 0.0155138783
v 0.052394338 0.0481154211 0.0157179013
v 0.0526659563 0.0481910296 0.0159281604
v 0.0529424474 0.0482290573 0.0161421914
v 0.0532205664 0.0482290573 0.0163574852
v 0.0534970574 0.0481910296 0.0165715162
v 0.0537686758 0.0481154211 0.0167817753
v 0.0540322363 0.0480031185 0.0169858001
v 0.0542846508 0.0478554405 0.0171811935
v 0.0545229614 0.047674112 0.0173656698
v 0.0547443703 0.0474612638 0.017537063
v 0.0549462847 0.0472193919 0.017693365
v 0.0551263355 0.0469513275 0.017832743
v 0.055282414 0.0466602184 0.0179535616
v 0.0554126874 0.046349477 0.0180544071
v 0.055515632 0.046022743 0.0181340966
v 0.0555900373 0.0456838496 0.0181916934
v 0.0556350313 0.0453367718 0.018226523
v 0.0556500889 0.0449855737 0.0182381794
v 0.0556350313 0.0446343757 0.018226523
v 0.0555900373 0.0442872941 0.0181916934
v 0.055515632 0.0439484045 0.0181340966
v 0.0554126874 0.0436216705 0.0180544071
v 0.055282414 0.0433109254 0.0179535616
v 0.0551263355 0.0430198163 0.017832743
v 0.0549462847 0.0427517556 0.017693365
v 0.0547443703 0.0425098836 0.017537063
v 0.0545229614 0.0422970355 0.0173656698
v 0.0542846508 0.042115707 0.0171811935
v 0.0540322363 0.0419680253 0.0169858001
v 0.0537686758 0.0418557227 0.0167817753
v 0.0534970574 0.0417801142 0.0165715162
v 0.0532205664 0.0417420901 0.0163574852
v 0.0529424474 0.0417420901 0.0161421914
v 0.0526659563 0.0417801142 0.0159281604
v 0.052394338 0.0418557227 0.0157179013
v 0.0521307774 0.0419680253 0.0155138783
v 0.0518783592 0.042115707 0.0153184831
v 0.0516400523 0.0422970355 0.0151340077
v 0.0514186397 0.0425098836 0.0149626145
v 0.0512167253 0.0427517556 0.0148063125
v 0.0510366745 0.0430198163 0.0146669354
v 0.050880596 0.0433109254 0.014546115
v 0.0507503226 0.0436216705 0.0144452704
v 0.0506473817 0.0439484045 0.0143655818
v 0.0505729765 0.0442872941 0.0143079851
v 0.0505279787 0.0446343757 0.0142731545
v 0.0505129248 0.0449855737 0.014261499
v 0.0556350313 0.0446343757 0.018226523
v 0.0556500889 0.0449855737 0.0182381794
v 0.0587107241 0.0449855737 0.0142843816
v 0.0555900373 0.0442872941 0.0181916934
v 0.0586956665 0.0446343757 0.0142727261
v 0.055515632 0.0439484045 0.0181340966
v 0.0586506724 0.0442872941 0.0142378956
v 0.0554126874 0.0436216705 0.0180544071
v 0.0585762672 0.0439484045 0.014180298
v 0.055282414 0.0433109254 0.0179535616
v 0.0584733225 0.0436216705 0.0141006103
v 0.0551263355 0.0430198163 0.017832743
v 0.0583430491 0.0433109254 0.0139997648
v 0.0549462847 0.0427517556 0.017693365
v 0.0581869707 0.0430198163 0.0138789453
v 0.0547443703 0.0425098836 0.017537063
v 0.0580069199 0.0427517556 0.0137395673
v 0.0545229614 0.0422970355 0.0173656698
v 0.0578050055 0.0425098836 0.0135832652
v 0.0542846508 0.042115707 0.0171811935
v 0.0575835966 0.0422970355 0.0134118721
v 0.0540322363 0.0419680253 0.0169858001
v 0.057345286 0.042115707 0.0132273966
v 0.0537686758 0.0418557227 0.0167817753
v 0.0570928715 0.0419680253 0.0130320024
v 0.0534970574 0.0417801142 0.0165715162
v 0.056829311 0.0418557227 0.0128279785
v 0.0532205664 0.0417420901 0.0163574852
v 0.0565576926 0.0417801142 0.0126177194
v 0.0529424474 0.0417420901 0.0161421914
v 0.0562812015 0.0417420901 0.0124036884
v 0.0526659563 0.0417801142 0.0159281604
v 0.0560030825 0.0417420901 0.0121883946
v 0.052394338 0.0418557227 0.0157179013
v 0.0557265915 0.0417801142 0.0119743636
v 0.0521307774 0.0419680253 0.0155138783
v 0.0554549731 0.0418557227 0.0117641045
v 0.0518783592 0.042115707 0.0153184831
v 0.0551914088 0.0419680253 0.0115600806
v 0.0516400523 0.0422970355 0.0151340077
v 0.0549389943 0.042115707 0.0113646863
v 0.0514186397 0.0425098836 0.0149626145
v 0.0547006838 0.0422970355 0.0111802109
v 0.0512167253 0.0427517556 0.0148063125
v 0.0544792749 0.0425098836 0.0110088168
v 0.0510366745 0.0430198163 0.0146669354
v 0.0542773604 0.0427517556 0.0108525157
v 0.050880596 0.0433109254 0.014546115
v 0.0540973097 0.0430198163 0.0107131377
v 0.0507503226 0.0436216705 0.0144452704
v 0.0539412312 0.0433109254 0.0105923181
v 0.0506473817 0.0439484045 0.0143655818
v 0.0538109578 0.0436216705 0.0104914727
v 0.0505729765 0.0442872941 0.0143079851
v 0.0537080169 0.0439484045 0.0104117841
v 0.0505279787 0.0446343757 0.0142731545
v 0.0536336116 0.0442872941 0.0103541873
v 0.0505129248 0.0449855737 0.014261499
v 0.0535886139 0.0446343757 0.0103193568
v 0.0505279787 0.0453367718 0.0142731545
v 0.0535735562 0.0449855737 0.0103077013
v 0.0505729765 0.0456838496 0.0143079851
v 0.0535886139 0.0453367718 0.0103193568
v 0.0506473817 0.046022743 0.0143655818
v 0.0536336116 0.0456838496 0.0103541873
v 0.0507503226 0.046349477 0.0144452704
v 0.0537080169 0.046022743 0.0104117841
v 0.050880596 0.0466602184 0.014546115
v 0.0538109578 0.046349477 0.0104914727
v 0.0510366745 0.0469513275 0.0146669354
v 0.0539412312 0.0466602184 0.0105923181
v 0.0512167253 0.0472193919 0.0148063125
v 0.0540973097 0.0469513275 0.0107131377
v 0.0514186397 0.0474612638 0.0149626145
v 0.0542773604 0.0472193919 0.0108525157
v 0.0516400523 0.047674112 0.0151340077
v 0.0544792749 0.0474612638 0.0110088168
v 0.0518783592 0.0478554405 0.0153184831
v 0.0547006838 0.047674112 0.0111802109
v 0.0521307774 0.0480031185 0.0155138783
v 0.0549389943 0.0478554405 0.0113646863
v 0.052394338 0.0481154211 0.0157179013
v 0.0551914088 0.0480031185 0.0115600806
v 0.0526659563 0.0481910296 0.0159281604
v 0.0554549731 0.0481154211 0.0117641045
v 0.0529424474 0.0482290573 0.0161421914
v 0.0557265915 0.0481910296 0.0119743636
v 0.0532205664 0.0482290573 0.0163574852
v 0.0560030825 0.0482290573 0.0121883946
v 0.0534970574 0.0481910296 0.0165715162
v 0.0562812015 0.0482290573 0.0124036884
v 0.0537686758 0.0481154211 0.0167817753
v 0.0565576926 0.0481910296 0.0126177194
v 0.0540322363 0.0480031185 0.0169858001
v 0.056829311 0.0481154211 0.0128279785
v 0.0542846508 0.0478554405 0.0171811935
v 0.0570928715 0.0480031185 0.0130320024
v 0.0545229614 0.047674112 0.0173656698
v 0.057345286 0.0478554405 0.0132273966
v 0.0547443703 0.0474612638 0.017537063
v 0.0575835966 0.047674112 0.0134118721
v 0.0549462847 0.0472193919 0.017693365
v 0.0578050055 0.0474612638 0.0135832652
v 0.0551263355 0.0469513275 0.017832743
v 0.0580069199 0.0472193919 0.0137395673
v 0.055282414 0.0466602184 0.0179535616
v 0.0581869707 0.0469513275 0.0138789453
v 0.0554126874 0.046349477 0.0180544071
v 0.0583430491 0.0466602184 0.0139997648
v 0.055515632 0.046022743 0.0181340966
v 0.0584733225 0.046349477 0.0141006103
v 0.0555900373 0.0456838496 0.0181916934
v 0.0585762672 0.046022743 0.014180298
v 0.0556350313 0.0453367718 0.018226523
v 0.0586506724 0.0456838496 0.0142378956
v 0.0586956665 0.0453367718 0.0142727261
v 0.0559484847 0.0495024808 0.0121461321
v 0.0560030825 0.0482290573 0.0121883946
v 0.0557265915 0.0481910296 0.0119743636
v 0.0563357994 0.0495024808 0.0124459509
v 0.0562812015 0.0482290573 0.0124036884
v 0.0592071488 0.0473177023 0.014668663
v 0.0583430491 0.0466602184 0.0139997648
v 0.0581869707 0.0469513275 0.0138789453
v 0.0593885705 0.0468849577 0.0148091009
v 0.0584733225 0.046349477 0.0141006103
v 0.0567208417 0.0405216217 0.0127440132
v 0.0565576926 0.0417801142 0.0126177194
v 0.056829311 0.0418557227 0.0128279785
v 0.0563357994 0.0404686667 0.0124459509
v 0.0562812015 0.0417420901 0.0124036884
v 0.0559484847 0.0404686667 0.0121461321
v 0.0560030825 0.0417420901 0.0121883946
v 0.0555634424 0.0405216217 0.0118480697
v 0.0557265915 0.0417801142 0.0119743636
v 0.0567208417 0.0494495258 0.0127440132
v 0.0565576926 0.0481910296 0.0126177194
v 0.0589897931 0.0477231033 0.0145004084
v 0.0580069199 0.0472193919 0.0137395673
v 0.0595319271 0.046429947 0.0149200754
v 0.0585762672 0.046022743 0.014180298
v 0.0596355461 0.0459580012 0.0150002856
v 0.0586506724 0.0456838496 0.0142378956
v 0.0596982054 0.0454746559 0.0150487917
v 0.0586956665 0.0453367718 0.0142727261
v 0.0597191751 0.0449855737 0.0150650237
v 0.0587107241 0.0449855737 0.0142843816
v 0.0596982054 0.0444964916 0.0150487917
v 0.0586956665 0.0446343757 0.0142727261
v 0.0596355461 0.0440131463 0.0150002856
v 0.0586506724 0.0442872941 0.0142378956
v 0.0595319271 0.0435412005 0.0149200754
v 0.0585762672 0.0439484045 0.014180298
v 0.0593885705 0.0430861861 0.0148091009
v 0.0584733225 0.0436216705 0.0141006103
v 0.0589897931 0.0422480442 0.0145004084
v 0.0581869707 0.0430198163 0.0138789453
v 0.0583430491 0.0433109254 0.0139997648
v 0.0587390512 0.0418747365 0.0143063096
v 0.0580069199 0.0427517556 0.0137395673
v 0.0551851839 0.0406269133 0.01155526
v 0.0554549731 0.0418557227 0.0117641045
v 0.0548181459 0.0407833084 0.0112711359
v 0.0551914088 0.0419680253 0.0115600806
v 0.0555634424 0.0494495258 0.0118480697
v 0.0554549731 0.0481154211 0.0117641045
v 0.0581495278 0.0487296581 0.0138499578
v 0.0575835966 0.047674112 0.0134118721
v 0.057345286 0.0478554405 0.0132273966
v 0.0584578626 0.0484332442 0.0140886419
v 0.0578050055 0.0474612638 0.0135832652
v 0.0587390512 0.0480964109 0.0143063096
v 0.0592071488 0.0426534452 0.014668663
v 0.0574661382 0.0407833084 0.0133209471
v 0.0570928715 0.0419680253 0.0130320024
v 0.057345286 0.042115707 0.0132273966
v 0.0570991002 0.0406269133 0.0130368229
v 0.0544666275 0.0489821769 0.0109990267
v 0.0549389943 0.0478554405 0.0113646863
v 0.0547006838 0.047674112 0.0111802109
v 0.0548181459 0.049187839 0.0112711359
v 0.0551914088 0.0480031185 0.0115600806
v 0.0570991002 0.0493442304 0.0130368229
v 0.056829311 0.0481154211 0.0128279785
v 0.0574661382 0.049187839 0.0133209471
v 0.0570928715 0.0480031185 0.0130320024
v 0.0578176528 0.0489821769 0.0135930562
v 0.0584578626 0.0415378995 0.0140886419
v 0.0578050055 0.0425098836 0.0135832652
v 0.0581495278 0.0412414894 0.0138499578
v 0.0575835966 0.0422970355 0.0134118721
v 0.0578176528 0.0409889705 0.0135930562
v 0.0544666275 0.0409889705 0.0109990267
v 0.0549389943 0.042115707 0.0113646863
v 0.0541347563 0.0412414894 0.0107421242
v 0.0547006838 0.0422970355 0.0111802109
v 0.0530771352 0.0426534452 0.00992341898
v 0.0539412312 0.0433109254 0.0105923181
v 0.0540973097 0.0430198163 0.0107131377
v 0.0528957136 0.0430861861 0.00978298113
v 0.0538109578 0.0436216705 0.0104914727
v 0.052648738 0.0440131463 0.00959179644
v 0.0536336116 0.0442872941 0.0103541873
v 0.0537080169 0.0439484045 0.0104117841
v 0.0525860749 0.0444964916 0.00954329129
v 0.0535886139 0.0446343757 0.0103193568
v 0.052648738 0.0459580012 0.00959179644
v 0.0536336116 0.0456838496 0.0103541873
v 0.0535886139 0.0453367718 0.0103193568
v 0.0527523533 0.046429947 0.00967200659
v 0.0537080169 0.046022743 0.0104117841
v 0.0530771352 0.0473177023 0.00992341898
v 0.0539412312 0.0466602184 0.0105923181
v 0.0538109578 0.046349477 0.0104914727
v 0.053294491 0.0477231033 0.0100916745
v 0.0540973097 0.0469513275 0.0107131377
v 0.0551851839 0.0493442304 0.01155526
v 0.0538264178 0.0415378995 0.0105034402
v 0.0544792749 0.0425098836 0.0110088168
v 0.0535452291 0.0418747365 0.0102857733
v 0.0542773604 0.0427517556 0.0108525157
v 0.053294491 0.0422480442 0.0100916745
v 0.0527523533 0.0435412005 0.00967200659
v 0.0528957136 0.0468849577 0.00978298113
v 0.0535452291 0.0480964109 0.0102857733
v 0.0542773604 0.0472193919 0.0108525157
v 0.0538264178 0.0484332442 0.0105034402
v 0.0544792749 0.0474612638 0.0110088168
v 0.0541347563 0.0487296581 0.0107421242
v 0.052565109 0.0449855737 0.00952705927
v 0.0525860749 0.0454746559 0.00954329129
v 0.0535735562 0.0449855737 0.0103077013
v 0.0566585399 0.0449855737 0.0190188214
v 0.0597191751 0.0449855737 0.0150650237
v 0.0596982054 0.0454746559 0.0150487917
v 0.0566375703 0.0454746559 0.0190025885
v 0.0596355461 0.0459580012 0.0150002856
v 0.0565749109 0.0459580012 0.0189540833
v 0.0595319271 0.046429947 0.0149200754
v 0.0564712919 0.046429947 0.0188738741
v 0.0593885705 0.0468849577 0.0148091009
v 0.0563279353 0.0468849577 0.0187628996
v 0.0592071488 0.0473177023 0.014668663
v 0.0589897931 0.0477231033 0.0145004084
v 0.0559831895 0.047622323 0.0184960328
v 0.0559291579 0.0477231033 0.0184542052
v 0.0587390512 0.0480964109 0.0143063096
v 0.055678416 0.0480964109 0.0182601064
v 0.0584578626 0.0484332442 0.0140886419
v 0.0553972274 0.0484332442 0.0180424396
v 0.0581495278 0.0487296581 0.0138499578
v 0.0550888926 0.0487296581 0.0178037565
v 0.0578176528 0.0489821769 0.0135930562
v 0.0547570176 0.0489821769 0.0175468531
v 0.0574661382 0.049187839 0.0133209471
v 0.054405503 0.049187839 0.0172747448
v 0.0570991002 0.0493442304 0.0130368229
v 0.054038465 0.0493442304 0.0169906206
v 0.0567208417 0.0494495258 0.0127440132
v 0.0536602065 0.0494495258 0.016697811
v 0.0563357994 0.0495024808 0.0124459509
v 0.0532751642 0.0495024808 0.0163997486
v 0.0559484847 0.0495024808 0.0121461321
v 0.0528878495 0.0495024808 0.0160999298
v 0.0555634424 0.0494495258 0.0118480697
v 0.0525028072 0.0494495258 0.0158018675
v 0.0551851839 0.0493442304 0.01155526
v 0.0521245487 0.0493442304 0.0155090578
v 0.0548181459 0.049187839 0.0112711359
v 0.0517575108 0.049187839 0.0152249327
v 0.0544666275 0.0489821769 0.0109990267
v 0.0514059924 0.0489821769 0.0149528245
v 0.0541347563 0.0487296581 0.0107421242
v 0.0538264178 0.0484332442 0.0105034402
v 0.0507657826 0.0484332442 0.0144572379
v 0.0509964302 0.0486549698 0.0146357808
v 0.0535452291 0.0480964109 0.0102857733
v 0.0504845977 0.0480964109 0.0142395701
v 0.053294491 0.0477231033 0.0100916745
v 0.0530771352 0.0473177023 0.00992341898
v 0.0500165001 0.0473177023 0.0138772167
v 0.0501798205 0.047622323 0.0140036447
v 0.0528957136 0.0468849577 0.00978298113
v 0.0498350784 0.0468849577 0.0137367789
v 0.0527523533 0.046429947 0.00967200659
v 0.0496917181 0.046429947 0.0136258043
v 0.052648738 0.0459580012 0.00959179644
v 0.0495881028 0.0459580012 0.0135455942
v 0.0525860749 0.0454746559 0.00954329129
v 0.0495254397 0.0454746559 0.013497089
v 0.052565109 0.0449855737 0.00952705927
v 0.0495044738 0.0449855737 0.013480857
v 0.0525860749 0.0444964916 0.00954329129
v 0.0495254397 0.0444964916 0.013497089
v 0.052648738 0.0440131463 0.00959179644
v 0.0495881028 0.0440131463 0.0135455942
v 0.0527523533 0.0435412005 0.00967200659
v 0.0496917181 0.0435412005 0.0136258043
v 0.0528957136 0.0430861861 0.00978298113
v 0.0498350784 0.0430861861 0.0137367789
v 0.0530771352 0.0426534452 0.00992341898
v 0.0500165001 0.0426534452 0.0138772167
v 0.053294491 0.0422480442 0.0100916745
v 0.0502338558 0.0422480442 0.0140454713
v 0.0535452291 0.0418747365 0.0102857733
v 0.0504845977 0.0418747365 0.0142395701
v 0.0538264178 0.0415378995 0.0105034402
v 0.0541347563 0.0412414894 0.0107421242
v 0.0509964302 0.041316174 0.0146357808
v 0.0510741211 0.0412414894 0.0146959219
v 0.0544666275 0.0409889705 0.0109990267
v 0.0514059924 0.0409889705 0.0149528245
v 0.0548181459 0.0407833084 0.0112711359
v 0.0517575108 0.0407833084 0.0152249327
v 0.0551851839 0.0406269133 0.01155526
v 0.0521245487 0.0406269133 0.0155090578
v 0.0555634424 0.0405216217 0.0118480697
v 0.0525028072 0.0405216217 0.0158018675
v 0.0559484847 0.0404686667 0.0121461321
v 0.0528878495 0.0404686667 0.0160999298
v 0.0563357994 0.0404686667 0.0124459509
v 0.0532751642 0.0404686667 0.0163997486
v 0.0567208417 0.0405216217 0.0127440132
v 0.0536602065 0.0405216217 0.016697811
v 0.0570991002 0.0406269133 0.0130368229
v 0.054038465 0.0406269133 0.0169906206
v 0.0574661382 0.0407833084 0.0133209471
v 0.054405503 0.0407833084 0.0172747448
v 0.0578176528 0.0409889705 0.0135930562
v 0.0547570176 0.0409889705 0.0175468531
v 0.0581495278 0.0412414894 0.0138499578
v 0.0550888926 0.0412414894 0.0178037565
v 0.0584578626 0.0415378995 0.0140886419
v 0.0553972274 0.0415378995 0.0180424396
v 0.0587390512 0.0418747365 0.0143063096
v 0.055678416 0.0418747365 0.0182601064
v 0.0589897931 0.0422480442 0.0145004084
v 0.0559291579 0.0422480442 0.0184542052
v 0.0592071488 0.0426534452 0.014668663
v 0.0561465137 0.0426534452 0.0186224617
v 0.0593885705 0.0430861861 0.0148091009
v 0.0563279353 0.0430861861 0.0187628996
v 0.0595319271 0.0435412005 0.0149200754
v 0.0564712919 0.0435412005 0.0188738741
v 0.0596355461 0.0440131463 0.0150002856
v 0.0565749109 0.0440131463 0.0189540833
v 0.0596982054 0.0444964916 0.0150487917
v 0.0566375703 0.0444964916 0.0190025885
v 0.0507657826 0.0415378995 0.0144572379
v 0.0502338558 0.0477231033 0.0140454713
v 0.0510741211 0.0487296581 0.0146959219
v 0.0561465137 0.0473177023 0.0186224617
v 0.0509964302 0.0486549698 0.0146357808
v 0.0484663621 0.0535935387 0.0126772542
v 0.0492293611 0.0541740991 0.0132678943
v 0.0500375293 0.0546469316 0.0138934944
v 0.0477574654 0.0529120602 0.0121285003
v 0.0465345159 0.0512793846 0.0111818146
v 0.0502338558 0.0477231033 0.0140454713
v 0.0501798205 0.047622323 0.0140036447
v 0.0471109934 0.0521376468 0.0116280643
v 0.0504845977 0.0480964109 0.0142395701
v 0.0507657826 0.0484332442 0.0144572379
v 0.0456176996 0.0493524186 0.0104721049
v 0.046034798 0.0503473319 0.0107949832
v 0.0451379307 0.047622323 0.0101007167
v 0.0452881008 0.0483063087 0.0102169644
v 0.0508813821 0.0550064929 0.0145467212
v 0.0509964302 0.0550385192 0.0146357808
v 0.0536197126 0.0519206151 0.0166664626
v 0.0536434799 0.051996056 0.0166848637
v 0.0605453141 0.0493524186 0.0220275726
v 0.053660661 0.0523967631 0.0166981611
v 0.0536434799 0.0524750091 0.0166848637
v 0.0569336489 0.0541740991 0.0192317832
v 0.0536710471 0.0523166247 0.016706204
v 0.0576966517 0.0535935387 0.0198224224
v 0.0536745265 0.0522355326 0.0167088956
v 0.0584055446 0.0529120602 0.0203711782
v 0.0536710471 0.0521544442 0.016706204
v 0.0590520203 0.0521376468 0.0208716132
v 0.053660661 0.0520743057 0.0166981611
v 0.0596284941 0.0512793846 0.0213178638
v 0.060128212 0.0503473319 0.0217046943
v 0.0608749092 0.0483063087 0.0222827122
v 0.0526362732 0.0553703196 0.0159051847
v 0.0530493483 0.0529844351 0.016224945
v 0.052985508 0.0529756546 0.0161755271
v 0.0535267405 0.0553703196 0.0165944938
v 0.0531135648 0.0529844351 0.0162746552
v 0.0535535961 0.0526894145 0.0166152827
v 0.0535120219 0.0527513064 0.0165831
v 0.0552816316 0.0550064929 0.0179529563
v 0.0610250793 0.047622323 0.0223989598
v 0.0535535961 0.0517816544 0.0166152827
v 0.0559291579 0.0477231033 0.0184542052
v 0.0532401204 0.0515128709 0.0163726211
v 0.0536602065 0.0494495258 0.016697811
v 0.0532751642 0.0495024808 0.0163997486
v 0.0529227927 0.0529581979 0.0161269791
v 0.0528619364 0.0529322661 0.016079871
v 0.0532401204 0.0529581979 0.0163726211
v 0.0531774051 0.0529756546 0.0163240731
v 0.0561254844 0.0546469316 0.0186061822
v 0.0535896309 0.0526221991 0.0166431796
v 0.0536197126 0.05255045 0.0166664626
v 0.0559831895 0.047622323 0.0184960328
v 0.0534653999 0.0516639128 0.0165470112
v 0.0550888926 0.0487296581 0.0178037565
v 0.0547570176 0.0489821769 0.0175468531
v 0.0531135648 0.0514866337 0.0162746552
v 0.0531774051 0.0514954142 0.0163240731
v 0.0528878495 0.0495024808 0.0160999298
v 0.0530493483 0.0514866337 0.016224945
v 0.0529227927 0.0515128709 0.0161269791
v 0.052985508 0.0514954142 0.0161755271
v 0.0528619364 0.0515388027 0.016079871
v 0.0525028072 0.0494495258 0.0158018675
v 0.0525194332 0.0524750091 0.0158147365
v 0.0525022522 0.0523967631 0.0158014372
v 0.0526975095 0.052807156 0.0159525871
v 0.0517510287 0.0552485697 0.0152199147
v 0.054411985 0.0552485697 0.0172797628
v 0.053300973 0.0529322661 0.0164197292
v 0.0534653999 0.052807156 0.0165470112
v 0.0534142777 0.0528563 0.0165074375
v 0.0535120219 0.0517197587 0.0165831
v 0.0534142777 0.0516147651 0.0165074375
v 0.053300973 0.0515388027 0.0164197292
v 0.054038465 0.0493442304 0.0169906206
v 0.0521245487 0.0493442304 0.0155090578
v 0.0528036579 0.0515729003 0.0160347559
v 0.0526975095 0.0516639128 0.0159525871
v 0.0527486317 0.0516147651 0.0159921609
v 0.0514059924 0.0489821769 0.0149528245
v 0.0524918623 0.0523166247 0.0157933962
v 0.0526508912 0.0527513064 0.0159164984
v 0.052609317 0.0526894145 0.0158843175
v 0.0527486317 0.0528563 0.0159921609
v 0.0533592552 0.0528981686 0.0164648443
v 0.0535896309 0.0518488698 0.0166431796
v 0.0553972274 0.0484332442 0.0180424396
v 0.054405503 0.049187839 0.0172747448
v 0.0510741211 0.0487296581 0.0146959219
v 0.0526508912 0.0517197587 0.0159164984
v 0.0525432006 0.05255045 0.0158331357
v 0.0525732785 0.0526221991 0.0158564206
v 0.0528036579 0.0528981686 0.0160347559
v 0.0533592552 0.0515729003 0.0164648443
v 0.055678416 0.0480964109 0.0182601064
v 0.0517575108 0.049187839 0.0152249327
v 0.0525732785 0.0518488698 0.0158564206
v 0.052609317 0.0517816544 0.0158843175
v 0.0525432006 0.0519206151 0.0158331357
v 0.0524883866 0.0522355326 0.0157907046
v 0.0525022522 0.0520743057 0.0158014372
v 0.0525194332 0.051996056 0.0158147365
v 0.0524918623 0.0521544442 0.0157933962
v 0.0536197126 0.0380504504 0.0166664626
v 0.0588465706 0.0442366339 0.0207125749
v 0.0589104109 0.0442454144 0.0207619928
v 0.0583423227 0.0445316546 0.0203222372
v 0.0561465137 0.0426534452 0.0186224617
v 0.0563279353 0.0430861861 0.0187628996
v 0.061113134 0.0427498817 0.0224671233
v 0.0583062842 0.04459887 0.0202943403
v 0.0583838969 0.0444697589 0.0203544199
v 0.053300973 0.0384322666 0.0164197292
v 0.0553972274 0.0415378995 0.0180424396
v 0.0547570176 0.0409889705 0.0175468531
v 0.0550888926 0.0412414894 0.0178037565
v 0.0532401204 0.0384581946 0.0163726211
v 0.0536602065 0.0405216217 0.016697811
v 0.0582524389 0.0447460562 0.0202526581
v 0.0565749109 0.0440131463 0.0189540833
v 0.0566375703 0.0444964916 0.0190025885
v 0.0582524389 0.0452250093 0.0202526581
v 0.0582352579 0.0451467596 0.0202393588
v 0.0566375703 0.0454746559 0.0190025885
v 0.0612571947 0.0438611358 0.0225786399
v 0.0593226366 0.04459887 0.0210810993
v 0.058782354 0.0442366339 0.0206628647
v 0.0586557984 0.0442628711 0.0205648988
v 0.0587185137 0.0442454144 0.0206134468
v 0.0535120219 0.0382513069 0.0165831
v 0.0534653999 0.0383071564 0.0165470112
v 0.0584305152 0.044413913 0.0203905087
v 0.0559291579 0.0422480442 0.0184542052
v 0.055678416 0.0418747365 0.0182601064
v 0.054405503 0.0407833084 0.0172747448
v 0.054038465 0.0406269133 0.0169906206
v 0.0582352579 0.0448243059 0.0202393588
v 0.0565749109 0.0459580012 0.0189540833
v 0.0582762063 0.0453004502 0.0202710573
v 0.0583423227 0.0454394147 0.0203222372
v 0.0583062842 0.0453721993 0.0202943403
v 0.0563279353 0.0468849577 0.0187628996
v 0.0613054037 0.0449855737 0.0226159599
v 0.0594040565 0.0450666212 0.0211441237
v 0.0593936667 0.0451467596 0.0211360827
v 0.0593936667 0.0448243059 0.0211360827
v 0.0592866018 0.0445316546 0.0210532025
v 0.0591472834 0.0443647653 0.020945359
v 0.0591984056 0.044413913 0.0209849328
v 0.0589731261 0.0442628711 0.0208105408
v 0.0590339787 0.0442888029 0.0208576489
v 0.0584816374 0.0443647653 0.0204300825
v 0.0529227927 0.0384581946 0.0161269791
v 0.0525028072 0.0405216217 0.0158018675
v 0.0528878495 0.0404686667 0.0160999298
v 0.0582762063 0.0446706153 0.0202710573
v 0.0564712919 0.0435412005 0.0188738741
v 0.0564712919 0.046429947 0.0188738741
v 0.0561465137 0.0473177023 0.0186224617
v 0.0583838969 0.0455013067 0.0203544199
v 0.058782354 0.0457344353 0.0206628647
v 0.0587185137 0.0457256548 0.0206134468
v 0.0588465706 0.0457344353 0.0207125749
v 0.0612571947 0.0461100116 0.0225786399
v 0.0593527183 0.0453004502 0.0211043842
v 0.0593226366 0.0453721993 0.0210810993
v 0.0593764856 0.0452250093 0.0211227834
v 0.0594075322 0.0449855328 0.0211468153
v 0.0594040565 0.0449044444 0.0211441237
v 0.0593527183 0.0446706153 0.0211043842
v 0.0593764856 0.0447460562 0.0211227834
v 0.0592450276 0.0444697589 0.0210210215
v 0.0590922609 0.0443229005 0.0209027641
v 0.0585366637 0.0443229005 0.0204726756
v 0.0585949458 0.0442888029 0.0205177907
v 0.0534142777 0.0383563004 0.0165074375
v 0.0535896309 0.0381221995 0.0166431796
v 0.0608749092 0.0416648388 0.0222827122
v 0.0605453141 0.0406187251 0.0220275726
v 0.0528619364 0.0384322666 0.016079871
v 0.0521245487 0.0406269133 0.0155090578
v 0.0530493483 0.0384844355 0.016224945
v 0.052985508 0.038475655 0.0161755271
v 0.0532751642 0.0404686667 0.0163997486
v 0.0531135648 0.0384844355 0.0162746552
v 0.0531774051 0.038475655 0.0163240731
v 0.0566585399 0.0449855737 0.0190188214
v 0.058224868 0.0450666212 0.0202313159
v 0.0589731261 0.0457081944 0.0208105408
v 0.0589104109 0.0457256548 0.0207619928
v 0.0592450276 0.0455013067 0.0210210215
v 0.061113134 0.0472212657 0.0224671233
v 0.0533592552 0.038398169 0.0164648443
v 0.0535535961 0.0381894149 0.0166152827
v 0.0536434799 0.0379750095 0.0166848637
v 0.060128212 0.0396238118 0.0217046943
v 0.053660661 0.0378967598 0.0166981611
v 0.0596284941 0.0386917628 0.0213178638
v 0.0536710471 0.0378166214 0.016706204
v 0.0590520203 0.0378335007 0.0208716132
v 0.0536745265 0.037735533 0.0167088956
v 0.0584055446 0.0370590873 0.0203711782
v 0.0536710471 0.0376544446 0.016706204
v 0.0576966517 0.0363776088 0.0198224224
v 0.053660661 0.0375743061 0.0166981611
v 0.0569336489 0.0357970484 0.0192317832
v 0.0526975095 0.0383071564 0.0159525871
v 0.0510741211 0.0412414894 0.0146959219
v 0.0514059924 0.0409889705 0.0149528245
v 0.0582213923 0.0449855328 0.0202286243
v 0.058224868 0.0449044444 0.0202313159
v 0.0584816374 0.0456063002 0.0204300825
v 0.0584305152 0.0455571562 0.0203905087
v 0.0590922609 0.0456481688 0.0209027641
v 0.0590339787 0.0456822664 0.0208576489
v 0.0592866018 0.0454394147 0.0210532025
v 0.0536197126 0.0374206156 0.0166664626
v 0.0536434799 0.0374960564 0.0166848637
v 0.0561254844 0.0353242159 0.0186061822
v 0.0534653999 0.0371639132 0.0165470112
v 0.0552816316 0.0349646546 0.0179529563
v 0.054411985 0.0347225778 0.0172797628
v 0.0535267405 0.0346008241 0.0165944938
v 0.0531135648 0.0369866341 0.0162746552
v 0.0531774051 0.0369954146 0.0163240731
v 0.0526362732 0.0346008241 0.0159051847
v 0.0530493483 0.0369866341 0.016224945
v 0.0509964302 0.041316174 0.0146357808
v 0.0524918623 0.0378166214 0.0157933962
v 0.0524883866 0.037735533 0.0157907046
v 0.0527486317 0.0383563004 0.0159921609
v 0.0528036579 0.038398169 0.0160347559
v 0.0517575108 0.0407833084 0.0152249327
v 0.0585366637 0.0456481688 0.0204726756
v 0.0586557984 0.0457081944 0.0205648988
v 0.0585949458 0.0456822664 0.0205177907
v 0.0535535961 0.0372816548 0.0166152827
v 0.0535896309 0.0373488665 0.0166431796
v 0.0534142777 0.0371147655 0.0165074375
v 0.0529227927 0.0370128714 0.0161269791
v 0.052985508 0.0369954146 0.0161755271
v 0.0517510287 0.0347225778 0.0152199147
v 0.0528619364 0.0370387994 0.016079871
v 0.0525022522 0.0378967598 0.0158014372
v 0.0525432006 0.0380504504 0.0158331357
v 0.0525194332 0.0379750095 0.0158147365
v 0.0526508912 0.0382513069 0.0159164984
v 0.052609317 0.0381894149 0.0158843175
v 0.0591984056 0.0455571562 0.0209849328
v 0.0535120219 0.0372197591 0.0165831
v 0.0533592552 0.0370729007 0.0164648443
v 0.0532401204 0.0370128714 0.0163726211
v 0.053300973 0.0370387994 0.0164197292
v 0.0528036579 0.0370729007 0.0160347559
v 0.0526975095 0.0371639132 0.0159525871
v 0.0527486317 0.0371147655 0.0159921609
v 0.0525732785 0.0381221995 0.0158564206
v 0.0591472834 0.0456063002 0.020945359
v 0.0509964302 0.0349326283 0.0146357808
v 0.0526508912 0.0372197591 0.0159164984
v 0.0525732785 0.0373488665 0.0158564206
v 0.052609317 0.0372816548 0.0158843175
v 0.0525432006 0.0374206156 0.0158331357
v 0.0525022522 0.0375743061 0.0158014372
v 0.0525194332 0.0374960564 0.0158147365
v 0.0524918623 0.0376544446 0.0157933962
v 0.0495044738 0.0449855737 0.013480857
v 0.0495254397 0.0444964916 0.013497089
v 0.0479380414 0.0449044444 0.0122682834
v 0.0479415208 0.0449855328 0.0122709749
v 0.0479380414 0.0450666212 0.0122682834
v 0.0479276516 0.0448243059 0.0122602414
v 0.0479104742 0.0447460562 0.0122469421
v 0.0479104742 0.0452250093 0.0122469421
v 0.0495881028 0.0459580012 0.0135455942
v 0.0495254397 0.0454746559 0.013497089
v 0.0495881028 0.0440131463 0.0135455942
v 0.0479276516 0.0451467596 0.0122602414
v 0.0473163426 0.0457344353 0.0117870243
v 0.0472525023 0.0457256548 0.0117376056
v 0.0473805591 0.0457344353 0.0118367346
v 0.0498350784 0.0468849577 0.0137367789
v 0.0478566252 0.0453721993 0.012205258
v 0.0478205867 0.0454394147 0.0121773621
v 0.0496917181 0.046429947 0.0136258043
v 0.0478867032 0.0453004502 0.0122285429
v 0.0478566252 0.04459887 0.012205258
v 0.0478867032 0.0446706153 0.0122285429
v 0.0496917181 0.0435412005 0.0136258043
v 0.0498350784 0.0430861861 0.0137367789
v 0.0477790162 0.0444697589 0.0121451803
v 0.0478205867 0.0445316546 0.0121773621
v 0.047507111 0.0442628711 0.0119347004
v 0.0492293611 0.0357970484 0.0132678943
v 0.0484663621 0.0363776088 0.0126772542
v 0.0474443957 0.0442454144 0.0118861524
v 0.0477574654 0.0370590873 0.0121285003
v 0.0448576063 0.0449855737 0.00988371857
v 0.0449058153 0.0461100116 0.00992103666
v 0.0467692465 0.0451467596 0.0113635175
v 0.047507111 0.0457081944 0.0119347004
v 0.0474443957 0.0457256548 0.0118861524
v 0.0477790162 0.0455013067 0.0121451803
v 0.0500165001 0.0473177023 0.0138772167
v 0.0500165001 0.0426534452 0.0138772167
v 0.0475679673 0.0442888029 0.0119818076
v 0.0500375293 0.0353242159 0.0138934944
v 0.0473805591 0.0442366339 0.0118367346
v 0.0471109934 0.0378335007 0.0116280643
v 0.0473163426 0.0442366339 0.0117870243
v 0.0465345159 0.0386917628 0.0111818146
v 0.0472525023 0.0442454144 0.0117376056
v 0.046034798 0.0396238118 0.0107949832
v 0.0467588566 0.0450666212 0.0113554755
v 0.0469178818 0.0455013067 0.0114785777
v 0.0468763113 0.0454394147 0.0114463968
v 0.045049876 0.0472212657 0.0100325551
v 0.047189787 0.0457081944 0.0116890585
v 0.0471289307 0.0456822664 0.0116419503
v 0.0502338558 0.0422480442 0.0140454713
v 0.0504845977 0.0418747365 0.0142395701
v 0.0476262495 0.0443229005 0.0120269237
v 0.0508813821 0.0349646546 0.0145467212
v 0.047189787 0.0442628711 0.0116890585
v 0.0467864238 0.0452250093 0.0113768158
v 0.0468402728 0.0453721993 0.0114185
v 0.047015626 0.0456063002 0.0115542412
v 0.0469645038 0.0455571562 0.0115146674
v 0.0476262495 0.0456481688 0.0120269237
v 0.0475679673 0.0456822664 0.0119818076
v 0.0477323942 0.0455571562 0.0121090915
v 0.0477323942 0.044413913 0.0121090915
v 0.0507657826 0.0415378995 0.0144572379
v 0.047681272 0.0443647653 0.0120695177
v 0.0471289307 0.0442888029 0.0116419503
v 0.0456176996 0.0406187251 0.0104721049
v 0.0469645038 0.044413913 0.0115146674
v 0.0452881008 0.0416648388 0.0102169644
v 0.045049876 0.0427498817 0.0100325551
v 0.0468101948 0.0453004502 0.011395216
v 0.0470706522 0.0456481688 0.0115968352
v 0.047681272 0.0456063002 0.0120695177
v 0.0470706522 0.0443229005 0.0115968352
v 0.0469178818 0.0444697589 0.0114785777
v 0.047015626 0.0443647653 0.0115542412
v 0.0468402728 0.04459887 0.0114185
v 0.0468763113 0.0445316546 0.0114463968
v 0.0449058153 0.0438611358 0.00992103666
v 0.0468101948 0.0446706153 0.011395216
v 0.0467588566 0.0449044444 0.0113554755
v 0.0467692465 0.0448243059 0.0113635175
v 0.0467864238 0.0447460562 0.0113768158
v 0.0467553809 0.0449855328 0.011352784
v 0.0527528599 0.0376544446 0.0178923421
v 0.0527563356 0.037735533 0.0178950336
v 0.0536745265 0.037735533 0.0167088956
v 0.0527424701 0.0375743061 0.017884301
v 0.0536710471 0.0376544446 0.016706204
v 0.052725289 0.0374960564 0.0178710017
v 0.053660661 0.0375743061 0.0166981611
v 0.0527015217 0.0374206156 0.0178526025
v 0.0536434799 0.0374960564 0.0166848637
v 0.0526714399 0.0373488665 0.0178293176
v 0.0536197126 0.0374206156 0.0166664626
v 0.0526354052 0.0372816548 0.0178014208
v 0.0535896309 0.0373488665 0.0166431796
v 0.052593831 0.0372197591 0.0177692398
v 0.0535535961 0.0372816548 0.0166152827
v 0.052547209 0.0371639132 0.0177331511
v 0.0535120219 0.0372197591 0.0165831
v 0.0524960868 0.0371147655 0.0176935773
v 0.0534653999 0.0371639132 0.0165470112
v 0.0524410643 0.0370729007 0.0176509824
v 0.0534142777 0.0371147655 0.0165074375
v 0.0523827821 0.0370387994 0.0176058672
v 0.0533592552 0.0370729007 0.0164648443
v 0.0523219295 0.0370128714 0.0175587591
v 0.053300973 0.0370387994 0.0164197292
v 0.0522592142 0.0369954146 0.017510213
v 0.0532401204 0.0370128714 0.0163726211
v 0.0521953739 0.0369866341 0.0174607933
v 0.0531774051 0.0369954146 0.0163240731
v 0.0521311574 0.0369866341 0.0174110848
v 0.0531135648 0.0369866341 0.0162746552
v 0.0520673171 0.0369954146 0.0173616651
v 0.0530493483 0.0369866341 0.016224945
v 0.0520046018 0.0370128714 0.0173131172
v 0.052985508 0.0369954146 0.0161755271
v 0.0519437492 0.0370387994 0.0172660109
v 0.0529227927 0.0370128714 0.0161269791
v 0.051885467 0.0370729007 0.0172208957
v 0.0528619364 0.0370387994 0.016079871
v 0.0518304408 0.0371147655 0.0171783008
v 0.0528036579 0.0370729007 0.0160347559
v 0.0517793186 0.0371639132 0.017138727
v 0.0527486317 0.0371147655 0.0159921609
v 0.0517327003 0.0372197591 0.0171026383
v 0.0526975095 0.0371639132 0.0159525871
v 0.0516911261 0.0372816548 0.0170704573
v 0.0526508912 0.0372197591 0.0159164984
v 0.0516550876 0.0373488665 0.0170425605
v 0.052609317 0.0372816548 0.0158843175
v 0.0516250096 0.0374206156 0.0170192756
v 0.0525732785 0.0373488665 0.0158564206
v 0.0516012423 0.0374960564 0.0170008764
v 0.0525432006 0.0374206156 0.0158331357
v 0.0515840612 0.0375743061 0.0169875771
v 0.0525194332 0.0374960564 0.0158147365
v 0.0515736714 0.0376544446 0.0169795342
v 0.0525022522 0.0375743061 0.0158014372
v 0.0515701957 0.037735533 0.0169768445
v 0.0524918623 0.0376544446 0.0157933962
v 0.0515736714 0.0378166214 0.0169795342
v 0.0524883866 0.037735533 0.0157907046
v 0.0515840612 0.0378967598 0.0169875771
v 0.0524918623 0.0378166214 0.0157933962
v 0.0516012423 0.0379750095 0.0170008764
v 0.0525022522 0.0378967598 0.0158014372
v 0.0516250096 0.0380504504 0.0170192756
v 0.0525194332 0.0379750095 0.0158147365
v 0.0516550876 0.0381221995 0.0170425605
v 0.0525432006 0.0380504504 0.0158331357
v 0.0516911261 0.0381894149 0.0170704573
v 0.0525732785 0.0381221995 0.0158564206
v 0.0517327003 0.0382513069 0.0171026383
v 0.052609317 0.0381894149 0.0158843175
v 0.0517793186 0.0383071564 0.017138727
v 0.0526508912 0.0382513069 0.0159164984
v 0.0518304408 0.0383563004 0.0171783008
v 0.0526975095 0.0383071564 0.0159525871
v 0.051885467 0.038398169 0.0172208957
v 0.0527486317 0.0383563004 0.0159921609
v 0.0519437492 0.0384322666 0.0172660109
v 0.0528036579 0.038398169 0.0160347559
v 0.0520046018 0.0384581946 0.0173131172
v 0.0528619364 0.0384322666 0.016079871
v 0.0520673171 0.038475655 0.0173616651
v 0.0529227927 0.0384581946 0.0161269791
v 0.0521311574 0.0384844355 0.0174110848
v 0.052985508 0.038475655 0.0161755271
v 0.0521953739 0.0384844355 0.0174607933
v 0.0530493483 0.0384844355 0.016224945
v 0.0522592142 0.038475655 0.017510213
v 0.0531135648 0.0384844355 0.0162746552
v 0.0523219295 0.0384581946 0.0175587591
v 0.0531774051 0.038475655 0.0163240731
v 0.0523827821 0.0384322666 0.0176058672
v 0.0532401204 0.0384581946 0.0163726211
v 0.0524410643 0.038398169 0.0176509824
v 0.053300973 0.0384322666 0.0164197292
v 0.0524960868 0.0383563004 0.0176935773
v 0.0533592552 0.038398169 0.0164648443
v 0.052547209 0.0383071564 0.0177331511
v 0.0534142777 0.0383563004 0.0165074375
v 0.052593831 0.0382513069 0.0177692398
v 0.0534653999 0.0383071564 0.0165470112
v 0.0526354052 0.0381894149 0.0178014208
v 0.0535120219 0.0382513069 0.0165831
v 0.0526714399 0.0381221995 0.0178293176
v 0.0535535961 0.0381894149 0.0166152827
v 0.0527015217 0.0380504504 0.0178526025
v 0.0535896309 0.0381221995 0.0166431796
v 0.052725289 0.0379750095 0.0178710017
v 0.0536197126 0.0380504504 0.0166664626
v 0.0527424701 0.0378967598 0.017884301
v 0.0536434799 0.0379750095 0.0166848637
v 0.0527528599 0.0378166214 0.0178923421
v 0.053660661 0.0378967598 0.0166981611
v 0.0536710471 0.0378166214 0.016706204
v 0.0515840612 0.0523967631 0.0169875771
v 0.0516012423 0.0524750091 0.0170008764
v 0.0483111739 0.0541740991 0.0144540332
v 0.0515701957 0.0522355326 0.0169768445
v 0.0515736714 0.0523166247 0.0169795342
v 0.0468392782 0.0529120602 0.0133146392
v 0.0515736714 0.0521544442 0.0169795342
v 0.0461928025 0.0521376468 0.0128142033
v 0.0516250096 0.0519206151 0.0170192756
v 0.0516012423 0.051996056 0.0170008764
v 0.0446995087 0.0493524186 0.0116582438
v 0.0468608253 0.0444697589 0.0133313192
v 0.0468142033 0.044413913 0.0132952305
v 0.0517327003 0.0382513069 0.0171026383
v 0.0516911261 0.0526894145 0.0170704573
v 0.0517327003 0.0527513064 0.0171026383
v 0.0499631912 0.0550064929 0.0157328602
v 0.0516250096 0.05255045 0.0170192756
v 0.0516550876 0.0526221991 0.0170425605
v 0.0491193384 0.0546469316 0.0150796343
v 0.0475481711 0.0535935387 0.013863394
v 0.0456163287 0.0512793846 0.0123679535
v 0.0515840612 0.0520743057 0.0169875771
v 0.0451166108 0.0503473319 0.0119811222
v 0.0443699136 0.0483063087 0.0114031043
v 0.0516550876 0.0518488698 0.0170425605
v 0.0441316888 0.0472212657 0.011218694
v 0.0460463129 0.0455571562 0.0127008064
v 0.057465706 0.0455013067 0.021540558
v 0.057512328 0.0455571562 0.0215766467
v 0.052593831 0.0517197587 0.0177692398
v 0.0527015217 0.0519206151 0.0178526025
v 0.0579283796 0.0457344353 0.0218987148
v 0.0579922199 0.0457256548 0.0219481327
v 0.0582290962 0.0443647653 0.022131497
v 0.0521953739 0.0384844355 0.0174607933
v 0.0522592142 0.038475655 0.017510213
v 0.0517793186 0.0383071564 0.017138727
v 0.0526085496 0.0553703196 0.0177806336
v 0.0521953739 0.0529844351 0.0174607933
v 0.0522592142 0.0529756546 0.017510213
v 0.0517180823 0.0553703196 0.0170913227
v 0.0521311574 0.0529844351 0.0174110848
v 0.0459996946 0.0455013067 0.0126647176
v 0.0439394154 0.0449855737 0.0110698575
v 0.0458406657 0.0450666212 0.0125416145
v 0.0458510555 0.0451467596 0.0125496564
v 0.052547209 0.0516639128 0.0177331511
v 0.0601949431 0.0472212657 0.0236532614
v 0.0526354052 0.0517816544 0.0178014208
v 0.0576767549 0.0456822664 0.0217039306
v 0.0524410643 0.038398169 0.0176509824
v 0.0582802184 0.044413913 0.0221710708
v 0.0521311574 0.0384844355 0.0174110848
v 0.0520046018 0.0384581946 0.0173131172
v 0.0520673171 0.038475655 0.0173616651
v 0.0518304408 0.0383563004 0.0171783008
v 0.0465262085 0.0442454144 0.0130722914
v 0.0464623682 0.0442366339 0.0130228736
v 0.0468392782 0.0370590873 0.0133146392
v 0.0465889201 0.0442628711 0.0131208394
v 0.0475481711 0.0363776088 0.013863394
v 0.0516911261 0.0381894149 0.0170704573
v 0.0466497764 0.0442888029 0.0131679475
v 0.0515840612 0.0378967598 0.0169875771
v 0.0516012423 0.0379750095 0.0170008764
v 0.0483111739 0.0357970484 0.0144540332
v 0.0515736714 0.0378166214 0.0169795342
v 0.0515736714 0.0376544446 0.0169795342
v 0.0515701957 0.037735533 0.0169768445
v 0.0523219295 0.0529581979 0.0175587591
v 0.0523827821 0.0529322661 0.0176058672
v 0.0520046018 0.0529581979 0.0173131172
v 0.0520673171 0.0529756546 0.0173616651
v 0.0517327003 0.0517197587 0.0171026383
v 0.0516911261 0.0517816544 0.0170704573
v 0.0439876243 0.0461100116 0.0111071765
v 0.0458682328 0.0452250093 0.0125629557
v 0.04583719 0.0449855328 0.012538923
v 0.0439876243 0.0438611358 0.0111071765
v 0.0458510555 0.0448243059 0.0125496564
v 0.0460974351 0.0456063002 0.0127403801
v 0.0461524613 0.0456481688 0.0127829742
v 0.0521311574 0.0514866337 0.0174110848
v 0.0520673171 0.0514954142 0.0173616651
v 0.0522592142 0.0514954142 0.017510213
v 0.0521953739 0.0514866337 0.0174607933
v 0.0575634502 0.0456063002 0.0216162205
v 0.0578641631 0.0457344353 0.0218490046
v 0.0577376075 0.0457081944 0.0217510387
v 0.0578003228 0.0457256548 0.0217995867
v 0.0526714399 0.0518488698 0.0178293176
v 0.0526714399 0.0381221995 0.0178293176
v 0.0601949431 0.0427498817 0.0236532614
v 0.051885467 0.038398169 0.0172208957
v 0.0579922199 0.0442454144 0.0219481327
v 0.0579283796 0.0442366339 0.0218987148
v 0.05817407 0.0443229005 0.0220889039
v 0.0581157878 0.0442888029 0.0220437888
v 0.0523219295 0.0384581946 0.0175587591
v 0.0523827821 0.0384322666 0.0176058672
v 0.0519437492 0.0384322666 0.0172660109
v 0.0467630811 0.0443647653 0.0132556567
v 0.046968516 0.0446706153 0.0134146819
v 0.0469384342 0.04459887 0.0133913979
v 0.0470233299 0.0449855328 0.0134571139
v 0.0470198505 0.0449044444 0.0134544224
v 0.0463343114 0.0442454144 0.0129237454
v 0.0462715961 0.0442628711 0.0128751975
v 0.0451166108 0.0396238118 0.0119811222
v 0.0463981517 0.0442366339 0.0129731633
v 0.0456163287 0.0386917628 0.0123679535
v 0.0461928025 0.0378335007 0.0128142033
v 0.0516550876 0.0381221995 0.0170425605
v 0.0516250096 0.0380504504 0.0170192756
v 0.0516250096 0.0374206156 0.0170192756
v 0.0516012423 0.0374960564 0.0170008764
v 0.0491193384 0.0353242159 0.0150796343
v 0.0516911261 0.0372816548 0.0170704573
v 0.0499631912 0.0349646546 0.0157328602
v 0.0534937941 0.0552485697 0.0184659027
v 0.0508328378 0.0552485697 0.0164060537
v 0.0519437492 0.0529322661 0.0172660109
v 0.0517793186 0.052807156 0.017138727
v 0.0518304408 0.0528563 0.0171783008
v 0.0459220819 0.0453721993 0.0126046399
v 0.0459581204 0.0454394147 0.0126325358
v 0.0458920039 0.0453004502 0.0125813549
v 0.0458406657 0.0449044444 0.0125416145
v 0.0518304408 0.0516147651 0.0171783008
v 0.0517793186 0.0516639128 0.017138727
v 0.0520046018 0.0515128709 0.0173131172
v 0.0519437492 0.0515388027 0.0172660109
v 0.0524410643 0.0515729003 0.0176509824
v 0.0523827821 0.0515388027 0.0176058672
v 0.0524960868 0.0516147651 0.0176935773
v 0.0573580153 0.0453004502 0.0214571953
v 0.057388097 0.0453721993 0.0214804802
v 0.0599567182 0.0483063087 0.023468852
v 0.0596271232 0.0493524186 0.0232137125
v 0.0583268367 0.0444697589 0.0222071614
v 0.0584044494 0.04459887 0.0222672392
v 0.0583684109 0.0445316546 0.0222393423
v 0.0603390038 0.0438611358 0.0237647798
v 0.0584345274 0.0446706153 0.0222905222
v 0.0578641631 0.0442366339 0.0218490046
v 0.0580549352 0.0442628711 0.0219966806
v 0.0467080586 0.0443229005 0.0132130627
v 0.0469023958 0.0445316546 0.0133635011
v 0.0470094644 0.0448243059 0.0134463804
v 0.0460463129 0.044413913 0.0127008064
v 0.0459996946 0.0444697589 0.0126647176
v 0.0441316888 0.0427498817 0.011218694
v 0.0462107398 0.0442888029 0.0128280902
v 0.0461524613 0.0443229005 0.0127829742
v 0.0446995087 0.0406187251 0.0116582438
v 0.0515840612 0.0375743061 0.0169875771
v 0.0516550876 0.0373488665 0.0170425605
v 0.0517327003 0.0372197591 0.0171026383
v 0.0517180823 0.0346008241 0.0170913227
v 0.0521311574 0.0369866341 0.0174110848
v 0.0520673171 0.0369954146 0.0173616651
v 0.0526085496 0.0346008241 0.0177806336
v 0.0521953739 0.0369866341 0.0174607933
v 0.0527563356 0.0522355326 0.0178950336
v 0.0581338294 0.0521376468 0.0220577531
v 0.0574873537 0.0529120602 0.021557318
v 0.0527528599 0.0523166247 0.0178923421
v 0.0567784607 0.0535935387 0.0210085623
v 0.0527424701 0.0523967631 0.017884301
v 0.056015458 0.0541740991 0.0204179231
v 0.0526354052 0.0526894145 0.0178014208
v 0.0552072935 0.0546469316 0.0197923221
v 0.0543634407 0.0550064929 0.0191390961
v 0.051885467 0.0528981686 0.0172208957
v 0.0458920039 0.0446706153 0.0125813549
v 0.0458682328 0.0447460562 0.0125629557
v 0.0463343114 0.0457256548 0.0129237454
v 0.0463981517 0.0457344353 0.0129731633
v 0.0462107398 0.0456822664 0.0128280902
v 0.0523219295 0.0515128709 0.0175587591
v 0.0574241318 0.0454394147 0.021508377
v 0.0573032014 0.0449855328 0.0214147642
v 0.0573066771 0.0450666212 0.0214174557
v 0.0573170669 0.0448243059 0.0214254968
v 0.0573066771 0.0449044444 0.0214174557
v 0.0582290962 0.0456063002 0.022131497
v 0.0582802184 0.0455571562 0.0221710708
v 0.0580549352 0.0457081944 0.0219966806
v 0.0581157878 0.0456822664 0.0220437888
v 0.052725289 0.051996056 0.0178710017
v 0.059210021 0.0503473319 0.0228908341
v 0.0527424701 0.0520743057 0.017884301
v 0.0587103032 0.0512793846 0.0225040019
v 0.0527528599 0.0521544442 0.0178923421
v 0.0527015217 0.0380504504 0.0178526025
v 0.052725289 0.0379750095 0.0178710017
v 0.0596271232 0.0406187251 0.0232137125
v 0.052593831 0.0382513069 0.0177692398
v 0.0526354052 0.0381894149 0.0178014208
v 0.0603872128 0.0449855737 0.0238020979
v 0.0584858656 0.0449044444 0.0223302636
v 0.0584754758 0.0448243059 0.0223222207
v 0.0469922833 0.0447460562 0.0134330811
v 0.0459220819 0.04459887 0.0126046399
v 0.0459581204 0.0445316546 0.0126325358
v 0.0443699136 0.0416648388 0.0114031043
v 0.0460974351 0.0443647653 0.0127403801
v 0.0520046018 0.0370128714 0.0173131172
v 0.0519437492 0.0370387994 0.0172660109
v 0.0523219295 0.0370128714 0.0175587591
v 0.0522592142 0.0369954146 0.017510213
v 0.0527015217 0.05255045 0.0178526025
v 0.052725289 0.0524750091 0.0178710017
v 0.052593831 0.0527513064 0.0177692398
v 0.052547209 0.052807156 0.0177331511
v 0.0464623682 0.0457344353 0.0130228736
v 0.0462715961 0.0457081944 0.0128751975
v 0.051885467 0.0515729003 0.0172208957
v 0.0603390038 0.0461100116 0.0237647798
v 0.0584754758 0.0451467596 0.0223222207
v 0.0584044494 0.0453721993 0.0222672392
v 0.0583268367 0.0455013067 0.0222071614
v 0.0583684109 0.0454394147 0.0222393423
v 0.0573170669 0.0451467596 0.0214254968
v 0.057334248 0.0452250093 0.0214387961
v 0.05817407 0.0456481688 0.0220889039
v 0.0527528599 0.0378166214 0.0178923421
v 0.0527563356 0.037735533 0.0178950336
v 0.0581338294 0.0378335007 0.0220577531
v 0.0527424701 0.0378967598 0.017884301
v 0.0587103032 0.0386917628 0.0225040019
v 0.059210021 0.0396238118 0.0228908341
v 0.0599567182 0.0416648388 0.023468852
v 0.0584582947 0.0447460562 0.0223089233
v 0.0584893413 0.0449855328 0.0223329552
v 0.0517793186 0.0371639132 0.017138727
v 0.0508328378 0.0347225778 0.0164060537
v 0.0534937941 0.0347225778 0.0184659027
v 0.0523827821 0.0370387994 0.0176058672
v 0.0526714399 0.0526221991 0.0178293176
v 0.0524960868 0.0528563 0.0176935773
v 0.0584858656 0.0450666212 0.0223302636
v 0.0576184727 0.0456481688 0.0216588154
v 0.0518304408 0.0371147655 0.0171783008
v 0.0524410643 0.0370729007 0.0176509824
v 0.0526354052 0.0372816548 0.0178014208
v 0.052593831 0.0372197591 0.0177692398
v 0.0543634407 0.0349646546 0.0191390961
v 0.0527424701 0.0375743061 0.017884301
v 0.052725289 0.0374960564 0.0178710017
v 0.056015458 0.0357970484 0.0204179231
v 0.0527528599 0.0376544446 0.0178923421
v 0.0567784607 0.0363776088 0.0210085623
v 0.0574873537 0.0370590873 0.021557318
v 0.0524410643 0.0528981686 0.0176509824
v 0.0584582947 0.0452250093 0.0223089233
v 0.0584345274 0.0453004502 0.0222905222
v 0.0524960868 0.0383563004 0.0176935773
v 0.052547209 0.0383071564 0.0177331511
v 0.051885467 0.0370729007 0.0172208957
v 0.052547209 0.0371639132 0.0177331511
v 0.0524960868 0.0371147655 0.0176935773
v 0.0552072935 0.0353242159 0.0197923221
v 0.0526714399 0.0373488665 0.0178293176
v 0.0527015217 0.0374206156 0.0178526025
v 0.0577376075 0.0442628711 0.0217510387
v 0.0465262085 0.0457256548 0.0130722914
v 0.0465889201 0.0457081944 0.0131208394
v 0.0578003228 0.0442454144 0.0217995867
v 0.0470094644 0.0451467596 0.0134463804
v 0.0470198505 0.0450666212 0.0134544224
v 0.0468608253 0.0455013067 0.0133313192
v 0.0469023958 0.0454394147 0.0133635011
v 0.0467080586 0.0456481688 0.0132130627
v 0.0467630811 0.0456063002 0.0132556567
v 0.057465706 0.0444697589 0.021540558
v 0.0574241318 0.0445316546 0.021508377
v 0.0576184727 0.0443229005 0.0216588154
v 0.0575634502 0.0443647653 0.0216162205
v 0.0576767549 0.0442888029 0.0217039306
v 0.0469922833 0.0452250093 0.0134330811
v 0.0469384342 0.0453721993 0.0133913979
v 0.0468142033 0.0455571562 0.0132952305
v 0.057388097 0.04459887 0.0214804802
v 0.057512328 0.044413913 0.0215766467
v 0.0466497764 0.0456822664 0.0131679475
v 0.0573580153 0.0446706153 0.0214571953
v 0.057334248 0.0447460562 0.0214387961
v 0.046968516 0.0453004502 0.0134146819
v 0.0584858656 0.0449044444 0.0223302636
v 0.0584893413 0.0449855328 0.0223329552
v 0.0594075322 0.0449855328 0.0211468153
v 0.0584754758 0.0448243059 0.0223222207
v 0.0594040565 0.0449044444 0.0211441237
v 0.0584582947 0.0447460562 0.0223089233
v 0.0593936667 0.0448243059 0.0211360827
v 0.0584345274 0.0446706153 0.0222905222
v 0.0593764856 0.0447460562 0.0211227834
v 0.0584044494 0.04459887 0.0222672392
v 0.0593527183 0.0446706153 0.0211043842
v 0.0583684109 0.0445316546 0.0222393423
v 0.0593226366 0.04459887 0.0210810993
v 0.0583268367 0.0444697589 0.0222071614
v 0.0592866018 0.0445316546 0.0210532025
v 0.0582802184 0.044413913 0.0221710708
v 0.0592450276 0.0444697589 0.0210210215
v 0.0582290962 0.0443647653 0.022131497
v 0.0591984056 0.044413913 0.0209849328
v 0.05817407 0.0443229005 0.0220889039
v 0.0591472834 0.0443647653 0.020945359
v 0.0581157878 0.0442888029 0.0220437888
v 0.0590922609 0.0443229005 0.0209027641
v 0.0580549352 0.0442628711 0.0219966806
v 0.0590339787 0.0442888029 0.0208576489
v 0.0579922199 0.0442454144 0.0219481327
v 0.0589731261 0.0442628711 0.0208105408
v 0.0579283796 0.0442366339 0.0218987148
v 0.0589104109 0.0442454144 0.0207619928
v 0.0578641631 0.0442366339 0.0218490046
v 0.0588465706 0.0442366339 0.0207125749
v 0.0578003228 0.0442454144 0.0217995867
v 0.058782354 0.0442366339 0.0206628647
v 0.0577376075 0.0442628711 0.0217510387
v 0.0587185137 0.0442454144 0.0206134468
v 0.0576767549 0.0442888029 0.0217039306
v 0.0586557984 0.0442628711 0.0205648988
v 0.0576184727 0.0443229005 0.0216588154
v 0.0585949458 0.0442888029 0.0205177907
v 0.0575634502 0.0443647653 0.0216162205
v 0.0585366637 0.0443229005 0.0204726756
v 0.057512328 0.044413913 0.0215766467
v 0.0584816374 0.0443647653 0.0204300825
v 0.057465706 0.0444697589 0.021540558
v 0.0584305152 0.044413913 0.0203905087
v 0.0574241318 0.0445316546 0.021508377
v 0.0583838969 0.0444697589 0.0203544199
v 0.057388097 0.04459887 0.0214804802
v 0.0583423227 0.0445316546 0.0203222372
v 0.0573580153 0.0446706153 0.0214571953
v 0.0583062842 0.04459887 0.0202943403
v 0.057334248 0.0447460562 0.0214387961
v 0.0582762063 0.0446706153 0.0202710573
v 0.0573170669 0.0448243059 0.0214254968
v 0.0582524389 0.0447460562 0.0202526581
v 0.0573066771 0.0449044444 0.0214174557
v 0.0582352579 0.0448243059 0.0202393588
v 0.0573032014 0.0449855328 0.0214147642
v 0.058224868 0.0449044444 0.0202313159
v 0.0573066771 0.0450666212 0.0214174557
v 0.0582213923 0.0449855328 0.0202286243
v 0.0573170669 0.0451467596 0.0214254968
v 0.058224868 0.0450666212 0.0202313159
v 0.057334248 0.0452250093 0.0214387961
v 0.0582352579 0.0451467596 0.0202393588
v 0.0573580153 0.0453004502 0.0214571953
v 0.0582524389 0.0452250093 0.0202526581
v 0.057388097 0.0453721993 0.0214804802
v 0.0582762063 0.0453004502 0.0202710573
v 0.0574241318 0.0454394147 0.021508377
v 0.0583062842 0.0453721993 0.0202943403
v 0.057465706 0.0455013067 0.021540558
v 0.0583423227 0.0454394147 0.0203222372
v 0.057512328 0.0455571562 0.0215766467
v 0.0583838969 0.0455013067 0.0203544199
v 0.0575634502 0.0456063002 0.0216162205
v 0.0584305152 0.0455571562 0.0203905087
v 0.0576184727 0.0456481688 0.0216588154
v 0.0584816374 0.0456063002 0.0204300825
v 0.0576767549 0.0456822664 0.0217039306
v 0.0585366637 0.0456481688 0.0204726756
v 0.0577376075 0.0457081944 0.0217510387
v 0.0585949458 0.0456822664 0.0205177907
v 0.0578003228 0.0457256548 0.0217995867
v 0.0586557984 0.0457081944 0.0205648988
v 0.0578641631 0.0457344353 0.0218490046
v 0.0587185137 0.0457256548 0.0206134468
v 0.0579283796 0.0457344353 0.0218987148
v 0.058782354 0.0457344353 0.0206628647
v 0.0579922199 0.0457256548 0.0219481327
v 0.0588465706 0.0457344353 0.0207125749
v 0.0580549352 0.0457081944 0.0219966806
v 0.0589104109 0.0457256548 0.0207619928
v 0.0581157878 0.0456822664 0.0220437888
v 0.0589731261 0.0457081944 0.0208105408
v 0.05817407 0.0456481688 0.0220889039
v 0.0590339787 0.0456822664 0.0208576489
v 0.0582290962 0.0456063002 0.022131497
v 0.0590922609 0.0456481688 0.0209027641
v 0.0582802184 0.0455571562 0.0221710708
v 0.0591472834 0.0456063002 0.020945359
v 0.0583268367 0.0455013067 0.0222071614
v 0.0591984056 0.0455571562 0.0209849328
v 0.0583684109 0.0454394147 0.0222393423
v 0.0592450276 0.0455013067 0.0210210215
v 0.0584044494 0.0453721993 0.0222672392
v 0.0592866018 0.0454394147 0.0210532025
v 0.0584345274 0.0453004502 0.0222905222
v 0.0593226366 0.0453721993 0.0210810993
v 0.0584582947 0.0452250093 0.0223089233
v 0.0593527183 0.0453004502 0.0211043842
v 0.0584754758 0.0451467596 0.0223222207
v 0.0593764856 0.0452250093 0.0211227834
v 0.0584858656 0.0450666212 0.0223302636
v 0.0593936667 0.0451467596 0.0211360827
v 0.0594040565 0.0450666212 0.0211441237
v 0.0527528599 0.0521544442 0.0178923421
v 0.0527563356 0.0522355326 0.0178950336
v 0.0536745265 0.0522355326 0.0167088956
v 0.0527424701 0.0520743057 0.017884301
v 0.0536710471 0.0521544442 0.016706204
v 0.052725289 0.051996056 0.0178710017
v 0.053660661 0.0520743057 0.0166981611
v 0.0527015217 0.0519206151 0.0178526025
v 0.0536434799 0.051996056 0.0166848637
v 0.0526714399 0.0518488698 0.0178293176
v 0.0536197126 0.0519206151 0.0166664626
v 0.0526354052 0.0517816544 0.0178014208
v 0.0535896309 0.0518488698 0.0166431796
v 0.052593831 0.0517197587 0.0177692398
v 0.0535535961 0.0517816544 0.0166152827
v 0.052547209 0.0516639128 0.0177331511
v 0.0535120219 0.0517197587 0.0165831
v 0.0524960868 0.0516147651 0.0176935773
v 0.0534653999 0.0516639128 0.0165470112
v 0.0524410643 0.0515729003 0.0176509824
v 0.0534142777 0.0516147651 0.0165074375
v 0.0523827821 0.0515388027 0.0176058672
v 0.0533592552 0.0515729003 0.0164648443
v 0.0523219295 0.0515128709 0.0175587591
v 0.053300973 0.0515388027 0.0164197292
v 0.0522592142 0.0514954142 0.017510213
v 0.0532401204 0.0515128709 0.0163726211
v 0.0521953739 0.0514866337 0.0174607933
v 0.0531774051 0.0514954142 0.0163240731
v 0.0521311574 0.0514866337 0.0174110848
v 0.0531135648 0.0514866337 0.0162746552
v 0.0520673171 0.0514954142 0.0173616651
v 0.0530493483 0.0514866337 0.016224945
v 0.0520046018 0.0515128709 0.0173131172
v 0.052985508 0.0514954142 0.0161755271
v 0.0519437492 0.0515388027 0.0172660109
v 0.0529227927 0.0515128709 0.0161269791
v 0.051885467 0.0515729003 0.0172208957
v 0.0528619364 0.0515388027 0.016079871
v 0.0518304408 0.0516147651 0.0171783008
v 0.0528036579 0.0515729003 0.0160347559
v 0.0517793186 0.0516639128 0.017138727
v 0.0527486317 0.0516147651 0.0159921609
v 0.0517327003 0.0517197587 0.0171026383
v 0.0526975095 0.0516639128 0.0159525871
v 0.0516911261 0.0517816544 0.0170704573
v 0.0526508912 0.0517197587 0.0159164984
v 0.0516550876 0.0518488698 0.0170425605
v 0.052609317 0.0517816544 0.0158843175
v 0.0516250096 0.0519206151 0.0170192756
v 0.0525732785 0.0518488698 0.0158564206
v 0.0516012423 0.051996056 0.0170008764
v 0.0525432006 0.0519206151 0.0158331357
v 0.0515840612 0.0520743057 0.0169875771
v 0.0525194332 0.051996056 0.0158147365
v 0.0515736714 0.0521544442 0.0169795342
v 0.0525022522 0.0520743057 0.0158014372
v 0.0515701957 0.0522355326 0.0169768445
v 0.0524918623 0.0521544442 0.0157933962
v 0.0515736714 0.0523166247 0.0169795342
v 0.0524883866 0.0522355326 0.0157907046
v 0.0515840612 0.0523967631 0.0169875771
v 0.0524918623 0.0523166247 0.0157933962
v 0.0516012423 0.0524750091 0.0170008764
v 0.0525022522 0.0523967631 0.0158014372
v 0.0516250096 0.05255045 0.0170192756
v 0.0525194332 0.0524750091 0.0158147365
v 0.0516550876 0.0526221991 0.0170425605
v 0.0525432006 0.05255045 0.0158331357
v 0.0516911261 0.0526894145 0.0170704573
v 0.0525732785 0.0526221991 0.0158564206
v 0.0517327003 0.0527513064 0.0171026383
v 0.052609317 0.0526894145 0.0158843175
v 0.0517793186 0.052807156 0.017138727
v 0.0526508912 0.0527513064 0.0159164984
v 0.0518304408 0.0528563 0.0171783008
v 0.0526975095 0.052807156 0.0159525871
v 0.051885467 0.0528981686 0.0172208957
v 0.0527486317 0.0528563 0.0159921609
v 0.0519437492 0.0529322661 0.0172660109
v 0.0528036579 0.0528981686 0.0160347559
v 0.0520046018 0.0529581979 0.0173131172
v 0.0528619364 0.0529322661 0.016079871
v 0.0520673171 0.0529756546 0.0173616651
v 0.0529227927 0.0529581979 0.0161269791
v 0.0521311574 0.0529844351 0.0174110848
v 0.052985508 0.0529756546 0.0161755271
v 0.0521953739 0.0529844351 0.0174607933
v 0.0530493483 0.0529844351 0.016224945
v 0.0522592142 0.0529756546 0.017510213
v 0.0531135648 0.0529844351 0.0162746552
v 0.0523219295 0.0529581979 0.0175587591
v 0.0531774051 0.0529756546 0.0163240731
v 0.0523827821 0.0529322661 0.0176058672
v 0.0532401204 0.0529581979 0.0163726211
v 0.0524410643 0.0528981686 0.0176509824
v 0.053300973 0.0529322661 0.0164197292
v 0.0524960868 0.0528563 0.0176935773
v 0.0533592552 0.0528981686 0.0164648443
v 0.052547209 0.052807156 0.0177331511
v 0.0534142777 0.0528563 0.0165074375
v 0.052593831 0.0527513064 0.0177692398
v 0.0534653999 0.052807156 0.0165470112
v 0.0526354052 0.0526894145 0.0178014208
v 0.0535120219 0.0527513064 0.0165831
v 0.0526714399 0.0526221991 0.0178293176
v 0.0535535961 0.0526894145 0.0166152827
v 0.0527015217 0.05255045 0.0178526025
v 0.0535896309 0.0526221991 0.0166431796
v 0.052725289 0.0524750091 0.0178710017
v 0.0536197126 0.05255045 0.0166664626
v 0.0527424701 0.0523967631 0.017884301
v 0.0536434799 0.0524750091 0.0166848637
v 0.0527528599 0.0523166247 0.0178923421
v 0.053660661 0.0523967631 0.0166981611
v 0.0536710471 0.0523166247 0.016706204
v 0.0470198505 0.0449044444 0.0134544224
v 0.0470233299 0.0449855328 0.0134571139
v 0.0479415208 0.0449855328 0.0122709749
v 0.0470094644 0.0448243059 0.0134463804
v 0.0479380414 0.0449044444 0.0122682834
v 0.0469922833 0.0447460562 0.0134330811
v 0.0479276516 0.0448243059 0.0122602414
v 0.046968516 0.0446706153 0.0134146819
v 0.0479104742 0.0447460562 0.0122469421
v 0.0469384342 0.04459887 0.0133913979
v 0.0478867032 0.0446706153 0.0122285429
v 0.0469023958 0.0445316546 0.0133635011
v 0.0478566252 0.04459887 0.012205258
v 0.0468608253 0.0444697589 0.0133313192
v 0.0478205867 0.0445316546 0.0121773621
v 0.0468142033 0.044413913 0.0132952305
v 0.0477790162 0.0444697589 0.0121451803
v 0.0467630811 0.0443647653 0.0132556567
v 0.0477323942 0.044413913 0.0121090915
v 0.0467080586 0.0443229005 0.0132130627
v 0.047681272 0.0443647653 0.0120695177
v 0.0466497764 0.0442888029 0.0131679475
v 0.0476262495 0.0443229005 0.0120269237
v 0.0465889201 0.0442628711 0.0131208394
v 0.0475679673 0.0442888029 0.0119818076
v 0.0465262085 0.0442454144 0.0130722914
v 0.047507111 0.0442628711 0.0119347004
v 0.0464623682 0.0442366339 0.0130228736
v 0.0474443957 0.0442454144 0.0118861524
v 0.0463981517 0.0442366339 0.0129731633
v 0.0473805591 0.0442366339 0.0118367346
v 0.0463343114 0.0442454144 0.0129237454
v 0.0473163426 0.0442366339 0.0117870243
v 0.0462715961 0.0442628711 0.0128751975
v 0.0472525023 0.0442454144 0.0117376056
v 0.0462107398 0.0442888029 0.0128280902
v 0.047189787 0.0442628711 0.0116890585
v 0.0461524613 0.0443229005 0.0127829742
v 0.0471289307 0.0442888029 0.0116419503
v 0.0460974351 0.0443647653 0.0127403801
v 0.0470706522 0.0443229005 0.0115968352
v 0.0460463129 0.044413913 0.0127008064
v 0.047015626 0.0443647653 0.0115542412
v 0.0459996946 0.0444697589 0.0126647176
v 0.0469645038 0.044413913 0.0115146674
v 0.0459581204 0.0445316546 0.0126325358
v 0.0469178818 0.0444697589 0.0114785777
v 0.0459220819 0.04459887 0.0126046399
v 0.0468763113 0.0445316546 0.0114463968
v 0.0458920039 0.0446706153 0.0125813549
v 0.0468402728 0.04459887 0.0114185
v 0.0458682328 0.0447460562 0.0125629557
v 0.0468101948 0.0446706153 0.011395216
v 0.0458510555 0.0448243059 0.0125496564
v 0.0467864238 0.0447460562 0.0113768158
v 0.0458406657 0.0449044444 0.0125416145
v 0.0467692465 0.0448243059 0.0113635175
v 0.04583719 0.0449855328 0.012538923
v 0.0467588566 0.0449044444 0.0113554755
v 0.0458406657 0.0450666212 0.0125416145
v 0.0467553809 0.0449855328 0.011352784
v 0.0458510555 0.0451467596 0.0125496564
v 0.0467588566 0.0450666212 0.0113554755
v 0.0458682328 0.0452250093 0.0125629557
v 0.0467692465 0.0451467596 0.0113635175
v 0.0458920039 0.0453004502 0.0125813549
v 0.0467864238 0.0452250093 0.0113768158
v 0.0459220819 0.0453721993 0.0126046399
v 0.0468101948 0.0453004502 0.011395216
v 0.0459581204 0.0454394147 0.0126325358
v 0.0468402728 0.0453721993 0.0114185
v 0.0459996946 0.0455013067 0.0126647176
v 0.0468763113 0.0454394147 0.0114463968
v 0.0460463129 0.0455571562 0.0127008064
v 0.0469178818 0.0455013067 0.0114785777
v 0.0460974351 0.0456063002 0.0127403801
v 0.0469645038 0.0455571562 0.0115146674
v 0.0461524613 0.0456481688 0.0127829742
v 0.047015626 0.0456063002 0.0115542412
v 0.0462107398 0.0456822664 0.0128280902
v 0.0470706522 0.0456481688 0.0115968352
v 0.0462715961 0.0457081944 0.0128751975
v 0.0471289307 0.0456822664 0.0116419503
v 0.0463343114 0.0457256548 0.0129237454
v 0.047189787 0.0457081944 0.0116890585
v 0.0463981517 0.0457344353 0.0129731633
v 0.0472525023 0.0457256548 0.0117376056
v 0.0464623682 0.0457344353 0.0130228736
v 0.0473163426 0.0457344353 0.0117870243
v 0.0465262085 0.0457256548 0.0130722914
v 0.0473805591 0.0457344353 0.0118367346
v 0.0465889201 0.0457081944 0.0131208394
v 0.0474443957 0.0457256548 0.0118861524
v 0.0466497764 0.0456822664 0.0131679475
v 0.047507111 0.0457081944 0.0119347004
v 0.0467080586 0.0456481688 0.0132130627
v 0.0475679673 0.0456822664 0.0119818076
v 0.0467630811 0.0456063002 0.0132556567
v 0.0476262495 0.0456481688 0.0120269237
v 0.0468142033 0.0455571562 0.0132952305
v 0.047681272 0.0456063002 0.0120695177
v 0.0468608253 0.0455013067 0.0133313192
v 0.0477323942 0.0455571562 0.0121090915
v 0.0469023958 0.0454394147 0.0133635011
v 0.0477790162 0.0455013067 0.0121451803
v 0.0469384342 0.0453721993 0.0133913979
v 0.0478205867 0.0454394147 0.0121773621
v 0.046968516 0.0453004502 0.0134146819
v 0.0478566252 0.0453721993 0.012205258
v 0.0469922833 0.0452250093 0.0134330811
v 0.0478867032 0.0453004502 0.0122285429
v 0.0470094644 0.0451467596 0.0134463804
v 0.0479104742 0.0452250093 0.0122469421
v 0.0470198505 0.0450666212 0.0134544224
v 0.0479276516 0.0451467596 0.0122602414
v 0.0479380414 0.0450666212 0.0122682834
v 0.0603872128 0.0449855737 0.0238020979
v 0.0613054037 0.0449855737 0.0226159599
v 0.0612571947 0.0461100116 0.0225786399
v 0.0603390038 0.0461100116 0.0237647798
v 0.061113134 0.0472212657 0.0224671233
v 0.0599567182 0.0483063087 0.023468852
v 0.0601949431 0.0472212657 0.0236532614
v 0.0610250793 0.047622323 0.0223989598
v 0.0608749092 0.0483063087 0.0222827122
v 0.0605453141 0.0493524186 0.0220275726
v 0.0596271232 0.0493524186 0.0232137125
v 0.060128212 0.0503473319 0.0217046943
v 0.059210021 0.0503473319 0.0228908341
v 0.0596284941 0.0512793846 0.0213178638
v 0.0587103032 0.0512793846 0.0225040019
v 0.0590520203 0.0521376468 0.0208716132
v 0.0581338294 0.0521376468 0.0220577531
v 0.0584055446 0.0529120602 0.0203711782
v 0.0574873537 0.0529120602 0.021557318
v 0.0576966517 0.0535935387 0.0198224224
v 0.0567784607 0.0535935387 0.0210085623
v 0.0569336489 0.0541740991 0.0192317832
v 0.056015458 0.0541740991 0.0204179231
v 0.0561254844 0.0546469316 0.0186061822
v 0.0552072935 0.0546469316 0.0197923221
v 0.0552816316 0.0550064929 0.0179529563
v 0.0543634407 0.0550064929 0.0191390961
v 0.054411985 0.0552485697 0.0172797628
v 0.0534937941 0.0552485697 0.0184659027
v 0.0535267405 0.0553703196 0.0165944938
v 0.0526085496 0.0553703196 0.0177806336
v 0.0526362732 0.0553703196 0.0159051847
v 0.0517180823 0.0553703196 0.0170913227
v 0.0517510287 0.0552485697 0.0152199147
v 0.0508328378 0.0552485697 0.0164060537
v 0.0509964302 0.0550385192 0.0146357808
v 0.0499631912 0.0550064929 0.0157328602
v 0.0508813821 0.0550064929 0.0145467212
v 0.0500375293 0.0546469316 0.0138934944
v 0.0491193384 0.0546469316 0.0150796343
v 0.0492293611 0.0541740991 0.0132678943
v 0.0483111739 0.0541740991 0.0144540332
v 0.0484663621 0.0535935387 0.0126772542
v 0.0475481711 0.0535935387 0.013863394
v 0.0477574654 0.0529120602 0.0121285003
v 0.0468392782 0.0529120602 0.0133146392
v 0.0471109934 0.0521376468 0.0116280643
v 0.0461928025 0.0521376468 0.0128142033
v 0.0465345159 0.0512793846 0.0111818146
v 0.0456163287 0.0512793846 0.0123679535
v 0.046034798 0.0503473319 0.0107949832
v 0.0451166108 0.0503473319 0.0119811222
v 0.0456176996 0.0493524186 0.0104721049
v 0.0446995087 0.0493524186 0.0116582438
v 0.0452881008 0.0483063087 0.0102169644
v 0.0443699136 0.0483063087 0.0114031043
v 0.0451379307 0.047622323 0.0101007167
v 0.0441316888 0.0472212657 0.011218694
v 0.045049876 0.0472212657 0.0100325551
v 0.0449058153 0.0461100116 0.00992103666
v 0.0439876243 0.0461100116 0.0111071765
v 0.0448576063 0.0449855737 0.00988371857
v 0.0439394154 0.0449855737 0.0110698575
v 0.0449058153 0.0438611358 0.00992103666
v 0.0439876243 0.0438611358 0.0111071765
v 0.045049876 0.0427498817 0.0100325551
v 0.0441316888 0.0427498817 0.011218694
v 0.0452881008 0.0416648388 0.0102169644
v 0.0443699136 0.0416648388 0.0114031043
v 0.0456176996 0.0406187251 0.0104721049
v 0.0446995087 0.0406187251 0.0116582438
v 0.046034798 0.0396238118 0.0107949832
v 0.0451166108 0.0396238118 0.0119811222
v 0.0465345159 0.0386917628 0.0111818146
v 0.0456163287 0.0386917628 0.0123679535
v 0.0471109934 0.0378335007 0.0116280643
v 0.0461928025 0.0378335007 0.0128142033
v 0.0477574654 0.0370590873 0.0121285003
v 0.0468392782 0.0370590873 0.0133146392
v 0.0484663621 0.0363776088 0.0126772542
v 0.0475481711 0.0363776088 0.013863394
v 0.0492293611 0.0357970484 0.0132678943
v 0.0483111739 0.0357970484 0.0144540332
v 0.0500375293 0.0353242159 0.0138934944
v 0.0491193384 0.0353242159 0.0150796343
v 0.0508813821 0.0349646546 0.0145467212
v 0.0508328378 0.0347225778 0.0164060537
v 0.0499631912 0.0349646546 0.0157328602
v 0.0509964302 0.0349326283 0.0146357808
v 0.0517510287 0.0347225778 0.0152199147
v 0.0526362732 0.0346008241 0.0159051847
v 0.0517180823 0.0346008241 0.0170913227
v 0.0535267405 0.0346008241 0.0165944938
v 0.0526085496 0.0346008241 0.0177806336
v 0.054411985 0.0347225778 0.0172797628
v 0.0534937941 0.0347225778 0.0184659027
v 0.0552816316 0.0349646546 0.0179529563
v 0.0543634407 0.0349646546 0.0191390961
v 0.0561254844 0.0353242159 0.0186061822
v 0.0552072935 0.0353242159 0.0197923221
v 0.0569336489 0.0357970484 0.0192317832
v 0.056015458 0.0357970484 0.0204179231
v 0.0576966517 0.0363776088 0.0198224224
v 0.0567784607 0.0363776088 0.0210085623
v 0.0584055446 0.0370590873 0.0203711782
v 0.0574873537 0.0370590873 0.021557318
v 0.0590520203 0.0378335007 0.0208716132
v 0.0581338294 0.0378335007 0.0220577531
v 0.0596284941 0.0386917628 0.0213178638
v 0.0587103032 0.0386917628 0.0225040019
v 0.060128212 0.0396238118 0.0217046943
v 0.059210021 0.0396238118 0.0228908341
v 0.0605453141 0.0406187251 0.0220275726
v 0.0596271232 0.0406187251 0.0232137125
v 0.0608749092 0.0416648388 0.0222827122
v 0.0599567182 0.0416648388 0.023468852
v 0.061113134 0.0427498817 0.0224671233
v 0.0601949431 0.0427498817 0.0236532614
v 0.0612571947 0.0438611358 0.0225786399
v 0.0603390038 0.0438611358 0.0237647798
f 1 2 3
f 3 4 1
f 4 5 1
f 5 6 1
f 6 7 1
f 7 8 1
f 8 9 1
f 9 10 1
f 10 11 1
f 11 12 1
f 12 13 1
f 13 14 1
f 14 15 1
f 15 16 1
f 16 17 1
f 17 18 1
f 18 19 1
f 19 20 1
f 20 21 1
f 21 22 1
f 22 23 1
f 23 24 1
f 24 25 1
f 25 26 1
f 26 27 1
f 27 28 1
f 28 29 1
f 29 30 1
f 30 31 1
f 31 32 1
f 32 33 1
f 33 34 1
f 34 35 1
f 35 36 1
f 36 37 1
f 37 38 1
f 38 39 1
f 39 40 1
f 40 41 1
f 41 42 1
f 42 43 1
f 43 44 1
f 44 45 1
f 45 46 1
f 46 47 1
f 47 48 1
f 48 49 1
f 49 50 1
f 50 51 1
f 51 52 1
f 52 53 1
f 53 54 1
f 54 55 1
f 55 56 1
f 56 57 1
f 57 58 1
f 58 59 1
f 59 2 1
f 60 61 62
f 63 60 64
f 65 63 66
f 67 65 68
f 69 67 70
f 71 69 72
f 73 71 74
f 75 73 76
f 77 75 78
f 79 77 80
f 81 79 82
f 83 81 84
f 85 83 86
f 87 85 88
f 89 87 90
f 91 89 92
f 93 91 94
f 95 93 96
f 97 95 98
f 99 97 100
f 101 99 102
f 103 101 104
f 105 103 106
f 107 105 108
f 109 107 110
f 111 109 112
f 113 111 114
f 115 113 116
f 117 115 118
f 119 117 120
f 121 119 122
f 123 121 124
f 125 123 126
f 127 125 128
f 129 127 130
f 131 129 132
f 133 131 134
f 135 133 136
f 137 135 138
f 139 137 140
f 141 139 142
f 143 141 144
f 145 143 146
f 147 145 148
f 149 147 150
f 151 149 152
f 153 151 154
f 155 153 156
f 157 155 158
f 159 157 160
f 161 159 162
f 163 161 164
f 165 163 166
f 167 165 168
f 169 167 170
f 171 169 172
f 173 171 174
f 61 173 175
f 175 62 61
f 174 175 173
f 172 174 171
f 170 172 169
f 168 170 167
f 166 168 165
f 164 166 163
f 162 164 161
f 160 162 159
f 158 160 157
f 156 158 155
f 154 156 153
f 152 154 151
f 150 152 149
f 148 150 147
f 146 148 145
f 144 146 143
f 142 144 141
f 140 142 139
f 138 140 137
f 136 138 135
f 134 136 133
f 132 134 131
f 130 132 129
f 128 130 127
f 126 128 125
f 124 126 123
f 122 124 121
f 120 122 119
f 118 120 117
f 116 118 115
f 114 116 113
f 112 114 111
f 110 112 109
f 108 110 107
f 106 108 105
f 104 106 103
f 102 104 101
f 100 102 99
f 98 100 97
f 96 98 95
f 94 96 93
f 92 94 91
f 90 92 89
f 88 90 87
f 86 88 85
f 84 86 83
f 82 84 81
f 80 82 79
f 78 80 77
f 76 78 75
f 74 76 73
f 72 74 71
f 70 72 69
f 68 70 67
f 66 68 65
f 64 66 63
f 62 64 60
f 176 177 178
f 176 179 180
f 181 182 183
f 181 184 185
f 186 187 188
f 189 190 187
f 191 192 190
f 191 193 194
f 180 177 176
f 179 195 196
f 197 183 198
f 185 182 181
f 199 200 185
f 199 201 202
f 203 204 202
f 203 205 206
f 207 208 206
f 207 209 210
f 211 212 210
f 211 213 214
f 215 216 217
f 215 218 219
f 187 186 189
f 194 192 191
f 193 220 221
f 220 222 223
f 224 178 225
f 196 180 179
f 226 227 228
f 226 229 230
f 231 198 230
f 183 197 181
f 202 200 199
f 206 204 203
f 210 208 207
f 214 212 211
f 232 217 214
f 219 216 215
f 233 234 235
f 236 188 234
f 190 189 191
f 223 221 220
f 237 238 239
f 237 240 241
f 178 224 176
f 195 242 243
f 242 244 245
f 244 246 228
f 230 227 226
f 198 231 197
f 202 201 203
f 210 209 211
f 217 232 215
f 218 247 248
f 249 250 248
f 249 251 235
f 234 233 236
f 221 194 193
f 252 253 223
f 252 254 255
f 256 257 258
f 256 259 260
f 261 262 263
f 261 264 265
f 266 267 268
f 266 269 270
f 271 272 273
f 271 274 275
f 241 238 237
f 240 276 225
f 243 196 195
f 228 245 244
f 230 229 231
f 206 205 207
f 248 219 218
f 235 250 249
f 188 236 186
f 255 253 252
f 277 278 255
f 277 279 280
f 281 258 280
f 260 257 256
f 282 263 260
f 265 262 261
f 270 267 266
f 269 283 273
f 275 272 271
f 274 284 285
f 225 241 240
f 245 243 242
f 185 184 199
f 248 247 249
f 223 222 252
f 280 278 277
f 258 281 256
f 263 282 261
f 273 270 269
f 285 275 274
f 286 287 285
f 286 288 239
f 225 276 224
f 214 213 232
f 255 254 277
f 260 259 282
f 273 283 271
f 239 287 286
f 228 246 226
f 280 279 281
f 289 290 268
f 285 284 286
f 235 251 233
f 289 291 265
f 268 290 266
f 265 264 289
f 239 288 237
f 268 291 289
f 292 293 294
f 295 294 296
f 297 296 298
f 299 298 300
f 301 300 302
f 302 303 304
f 303 305 304
f 305 303 306
f 307 306 308
f 309 308 310
f 311 310 312
f 313 312 314
f 315 314 316
f 317 316 318
f 319 318 320
f 321 320 322
f 323 322 324
f 325 324 326
f 327 326 328
f 329 328 330
f 331 330 332
f 333 334 335
f 335 332 333
f 334 333 336
f 337 336 338
f 339 340 341
f 341 338 339
f 340 339 342
f 343 342 344
f 345 344 346
f 347 346 348
f 349 348 350
f 351 350 352
f 353 352 354
f 355 354 356
f 357 356 358
f 359 358 360
f 361 360 362
f 363 362 364
f 365 364 366
f 366 367 368
f 367 369 368
f 369 367 370
f 371 370 372
f 373 372 374
f 375 374 376
f 377 376 378
f 379 378 380
f 381 380 382
f 383 382 384
f 385 384 386
f 387 386 388
f 389 388 390
f 391 390 392
f 393 392 394
f 395 394 396
f 397 396 398
f 399 398 400
f 401 400 402
f 403 402 404
f 405 404 406
f 407 406 293
f 293 292 407
f 406 407 405
f 404 405 403
f 402 403 401
f 400 401 399
f 398 399 397
f 396 397 395
f 394 395 393
f 392 393 391
f 390 391 389
f 388 389 387
f 386 387 385
f 384 385 383
f 382 383 381
f 380 381 379
f 378 379 377
f 376 377 375
f 374 375 373
f 372 373 371
f 370 371 369
f 368 408 366
f 366 408 365
f 364 365 363
f 362 363 361
f 360 361 359
f 358 359 357
f 356 357 355
f 354 355 353
f 352 353 351
f 350 351 349
f 348 349 347
f 346 347 345
f 344 345 343
f 342 343 340
f 341 409 338
f 338 409 337
f 336 337 334
f 335 410 332
f 332 410 331
f 330 331 329
f 328 329 327
f 326 327 325
f 324 325 323
f 322 323 321
f 320 321 319
f 318 319 317
f 316 317 315
f 314 315 313
f 312 313 311
f 310 311 309
f 308 309 307
f 306 307 305
f 304 411 302
f 302 411 301
f 300 301 299
f 298 299 297
f 296 297 295
f 294 295 292
f 412 413 414
f 414 415 412
f 416 413 412
f 417 418 419
f 420 421 418
f 420 416 422
f 412 422 416
f 419 423 424
f 419 425 426
f 422 421 420
f 415 427 412
f 426 423 419
f 427 428 412
f 418 417 420
f 429 430 431
f 432 433 434
f 435 432 436
f 437 435 438
f 439 437 440
f 441 439 442
f 430 441 443
f 431 444 429
f 445 446 447
f 445 448 449
f 450 451 452
f 434 436 432
f 438 440 437
f 442 443 441
f 444 453 429
f 454 453 455
f 456 457 458
f 445 459 460
f 449 446 445
f 448 461 462
f 463 464 450
f 465 464 463
f 436 438 435
f 443 431 430
f 453 466 455
f 467 468 469
f 458 470 471
f 472 473 470
f 474 475 472
f 476 474 477
f 428 478 479
f 480 428 481
f 460 481 445
f 462 449 448
f 448 482 483
f 484 485 482
f 463 434 465
f 440 442 439
f 455 486 454
f 469 487 467
f 488 489 457
f 470 458 472
f 472 477 474
f 490 491 476
f 492 493 494
f 479 495 428
f 428 496 497
f 481 498 480
f 447 459 445
f 482 499 483
f 452 451 484
f 433 465 434
f 454 500 453
f 486 501 468
f 487 469 502
f 457 456 488
f 475 473 472
f 477 490 476
f 503 504 492
f 428 505 478
f 497 506 428
f 481 507 498
f 483 461 448
f 482 452 484
f 500 429 453
f 502 508 487
f 486 455 509
f 508 502 489
f 490 510 491
f 493 491 510
f 494 503 492
f 506 505 428
f 460 507 481
f 452 463 450
f 509 501 486
f 458 471 456
f 503 412 504
f 412 511 512
f 480 496 428
f 467 486 468
f 510 494 493
f 412 513 511
f 412 428 514
f 485 499 482
f 512 504 412
f 412 515 516
f 514 517 412
f 488 508 489
f 517 515 412
f 516 513 412
f 518 519 520
f 521 522 523
f 520 524 518
f 523 525 521
f 526 527 528
f 527 529 530
f 527 531 532
f 533 534 535
f 536 537 538
f 539 524 540
f 518 541 519
f 518 542 543
f 544 545 546
f 526 547 522
f 528 548 526
f 527 549 529
f 532 550 527
f 535 551 533
f 552 553 536
f 554 555 556
f 557 558 559
f 557 539 560
f 524 561 540
f 524 562 563
f 524 564 565
f 543 541 518
f 546 566 544
f 567 568 569
f 548 547 526
f 550 549 527
f 533 570 534
f 525 523 571
f 555 552 572
f 552 555 553
f 573 574 554
f 466 575 576
f 453 577 575
f 578 579 580
f 578 559 581
f 557 582 558
f 560 583 557
f 539 584 585
f 524 586 561
f 524 587 562
f 520 564 524
f 518 588 589
f 545 590 546
f 588 518 591
f 518 592 593
f 594 595 568
f 569 596 597
f 569 598 599
f 531 600 598
f 530 528 527
f 571 534 525
f 601 538 602
f 538 552 536
f 556 573 554
f 575 466 453
f 453 603 604
f 605 453 606
f 580 606 578
f 559 578 557
f 585 560 539
f 563 586 524
f 589 542 518
f 590 607 546
f 591 608 588
f 518 524 592
f 609 593 610
f 611 610 612
f 613 612 614
f 615 614 616
f 617 616 618
f 619 618 620
f 621 622 623
f 568 567 594
f 599 596 569
f 598 532 531
f 526 546 607
f 570 525 534
f 601 624 625
f 538 537 602
f 573 466 574
f 466 626 627
f 604 577 453
f 453 628 629
f 580 630 606
f 583 582 557
f 565 587 524
f 608 544 588
f 610 611 609
f 614 615 613
f 618 619 617
f 620 631 632
f 631 620 633
f 634 635 636
f 637 638 639
f 640 641 638
f 642 643 644
f 623 645 621
f 646 647 595
f 600 599 598
f 521 526 522
f 625 535 601
f 572 556 555
f 466 648 626
f 466 649 650
f 629 603 453
f 581 579 578
f 566 588 544
f 612 613 611
f 620 632 619
f 633 651 652
f 651 633 635
f 636 653 634
f 638 637 640
f 640 654 655
f 640 656 657
f 642 658 643
f 642 659 660
f 642 661 662
f 661 642 622
f 645 623 647
f 569 597 567
f 625 551 535
f 627 574 466
f 576 649 466
f 453 605 663
f 540 584 539
f 616 617 615
f 635 664 651
f 636 665 653
f 637 666 667
f 655 641 640
f 656 668 657
f 669 670 656
f 660 658 642
f 662 671 642
f 647 646 645
f 607 527 526
f 650 648 466
f 663 672 453
f 593 609 518
f 634 664 635
f 667 636 637
f 657 654 640
f 673 674 669
f 671 659 642
f 594 646 595
f 672 628 453
f 633 652 631
f 639 666 637
f 656 673 669
f 673 675 676
f 621 661 622
f 606 630 605
f 670 668 656
f 673 677 675
f 602 624 601
f 676 674 673
f 673 678 679
f 673 644 680
f 667 665 636
f 680 678 673
f 679 677 673
f 681 682 683
f 681 684 685
f 682 686 683
f 687 686 682
f 688 689 690
f 685 690 681
f 682 691 687
f 685 692 690
f 425 693 694
f 425 419 695
f 696 697 698
f 697 696 699
f 700 699 689
f 690 692 688
f 701 702 703
f 704 705 706
f 707 708 709
f 710 709 711
f 712 713 714
f 695 693 425
f 419 715 716
f 699 700 697
f 717 419 718
f 683 684 681
f 702 687 691
f 705 704 719
f 706 701 704
f 720 721 708
f 711 722 710
f 722 711 723
f 724 723 725
f 726 725 727
f 714 728 712
f 729 730 731
f 425 732 733
f 716 695 419
f 718 696 717
f 691 703 702
f 705 734 735
f 703 704 701
f 736 673 737
f 720 737 721
f 723 724 722
f 727 738 726
f 713 739 714
f 713 731 740
f 731 425 729
f 425 741 742
f 694 732 425
f 419 743 744
f 419 717 745
f 689 688 700
f 719 734 705
f 746 705 747
f 748 746 642
f 708 707 720
f 725 726 724
f 749 727 750
f 751 752 753
f 713 754 739
f 730 740 731
f 425 755 741
f 744 715 419
f 745 756 419
f 735 747 705
f 642 673 748
f 709 710 707
f 750 757 749
f 757 750 752
f 753 758 751
f 740 754 713
f 733 755 425
f 698 717 696
f 673 736 748
f 749 738 727
f 751 759 752
f 753 760 761
f 762 763 760
f 742 729 425
f 747 642 746
f 752 759 757
f 760 753 762
f 712 764 765
f 756 743 419
f 761 758 753
f 762 765 766
f 712 767 764
f 737 720 736
f 765 762 712
f 766 763 762
f 728 767 712
f 644 673 642
f 495 514 428
f 419 424 417
f 768 769 770
f 771 768 772
f 773 771 774
f 775 773 776
f 777 775 778
f 779 777 780
f 781 779 782
f 783 781 784
f 785 783 786
f 787 785 788
f 789 787 790
f 791 789 792
f 793 791 794
f 795 793 796
f 797 795 798
f 799 797 800
f 801 799 802
f 803 801 804
f 805 803 806
f 807 805 808
f 809 807 810
f 811 809 812
f 813 811 814
f 815 813 816
f 817 815 818
f 819 817 820
f 821 819 822
f 823 821 824
f 825 823 826
f 827 825 828
f 829 827 830
f 831 829 832
f 833 831 834
f 835 833 836
f 837 835 838
f 839 837 840
f 841 839 842
f 843 841 844
f 845 843 846
f 847 845 848
f 849 847 850
f 851 849 852
f 853 851 854
f 855 853 856
f 857 855 858
f 859 857 860
f 861 859 862
f 863 861 864
f 865 863 866
f 867 865 868
f 869 867 870
f 871 869 872
f 873 871 874
f 875 873 876
f 877 875 878
f 879 877 880
f 881 879 882
f 769 881 883
f 883 770 769
f 882 883 881
f 880 882 879
f 878 880 877
f 876 878 875
f 874 876 873
f 872 874 871
f 870 872 869
f 868 870 867
f 866 868 865
f 864 866 863
f 862 864 861
f 860 862 859
f 858 860 857
f 856 858 855
f 854 856 853
f 852 854 851
f 850 852 849
f 848 850 847
f 846 848 845
f 844 846 843
f 842 844 841
f 840 842 839
f 838 840 837
f 836 838 835
f 834 836 833
f 832 834 831
f 830 832 829
f 828 830 827
f 826 828 825
f 824 826 823
f 822 824 821
f 820 822 819
f 818 820 817
f 816 818 815
f 814 816 813
f 812 814 811
f 810 812 809
f 808 810 807
f 806 808 805
f 804 806 803
f 802 804 801
f 800 802 799
f 798 800 797
f 796 798 795
f 794 796 793
f 792 794 791
f 790 792 789
f 788 790 787
f 786 788 785
f 784 786 783
f 782 784 781
f 780 782 779
f 778 780 777
f 776 778 775
f 774 776 773
f 772 774 771
f 770 772 768
f 884 885 886
f 887 888 889
f 890 887 891
f 892 893 894
f 895 896 897
f 898 899 900
f 901 902 903
f 886 904 884
f 888 884 904
f 891 905 890
f 893 906 907
f 894 908 892
f 909 910 911
f 912 913 914
f 915 916 917
f 918 919 920
f 897 921 895
f 922 923 924
f 925 926 923
f 903 902 898
f 885 901 886
f 889 891 887
f 906 890 905
f 908 910 892
f 910 927 911
f 928 929 930
f 914 931 912
f 917 932 915
f 933 914 934
f 935 936 918
f 918 937 919
f 918 938 939
f 921 940 895
f 941 942 943
f 944 941 945
f 946 897 947
f 944 948 949
f 950 951 948
f 950 952 953
f 922 954 955
f 923 922 925
f 925 956 957
f 903 886 901
f 905 907 906
f 910 909 892
f 911 958 959
f 960 930 961
f 928 962 929
f 928 963 964
f 958 911 965
f 966 967 968
f 966 969 970
f 913 971 914
f 915 972 916
f 915 973 974
f 973 975 933
f 976 977 936
f 978 979 980
f 978 981 982
f 918 983 984
f 939 937 918
f 985 918 981
f 896 986 897
f 978 987 988
f 978 989 990
f 991 992 993
f 994 991 995
f 942 994 996
f 945 950 944
f 944 997 946
f 949 998 944
f 953 951 950
f 950 999 1000
f 999 950 1001
f 1002 1001 1003
f 955 1004 922
f 957 926 925
f 925 1005 1006
f 1007 1008 1005
f 904 889 888
f 911 959 909
f 910 1009 1010
f 960 1011 1009
f 930 960 928
f 964 1012 928
f 965 1013 1014
f 966 1015 1016
f 970 967 966
f 966 1017 1018
f 931 1019 912
f 1017 1020 1021
f 974 972 915
f 973 915 975
f 915 1022 1023
f 977 1024 936
f 977 1025 1026
f 1027 1028 1025
f 980 1029 978
f 982 1030 978
f 920 983 918
f 981 978 985
f 986 1031 897
f 988 1032 978
f 990 1033 978
f 1034 1035 1036
f 1037 1038 1039
f 995 996 994
f 943 945 941
f 998 997 944
f 950 1040 952
f 1001 1041 999
f 1003 1042 1002
f 1043 1044 1045
f 1043 1046 1047
f 1048 1049 1050
f 1051 1050 1052
f 1053 1052 1054
f 1055 1056 1057
f 924 954 922
f 1005 1058 1006
f 900 899 1007
f 907 894 893
f 1009 910 960
f 1012 962 928
f 963 1059 1060
f 1017 1061 1062
f 1017 966 1063
f 965 1014 958
f 968 1015 966
f 1018 1064 966
f 1019 1017 912
f 1021 1065 1017
f 1017 1066 1067
f 1017 1068 1069
f 932 1070 1071
f 932 1072 1073
f 934 973 933
f 915 932 1022
f 1074 1023 1075
f 1076 1075 1077
f 1078 1077 1049
f 1079 1080 1081
f 936 1082 1083
f 1025 977 1027
f 1084 1085 1086
f 1030 979 978
f 985 938 918
f 1032 895 978
f 1033 1087 978
f 963 1036 1088
f 1036 1035 1089
f 1090 1091 1034
f 1038 1091 1090
f 993 992 1037
f 996 943 942
f 948 944 950
f 1002 1041 1001
f 1043 1092 1093
f 1047 1044 1043
f 1046 1094 1095
f 1052 1053 1051
f 1054 1096 1097
f 1096 1054 1056
f 1057 1098 1055
f 1099 1057 1004
f 1006 956 925
f 1005 900 1007
f 1010 927 910
f 1060 964 963
f 1062 1100 1017
f 1063 1101 1017
f 966 1102 1013
f 1064 969 966
f 1084 1103 1104
f 1103 932 1105
f 932 1106 1107
f 1065 912 1017
f 1017 1108 1109
f 1069 1066 1017
f 932 1110 1070
f 917 1072 932
f 1075 1076 1074
f 1049 1048 1078
f 1111 1112 1113
f 1114 1111 1115
f 1080 1114 1116
f 1081 1117 1079
f 936 1083 976
f 1027 1118 1028
f 1084 1119 1085
f 918 984 935
f 1087 987 978
f 1089 1088 1036
f 1090 1039 1038
f 993 995 991
f 1000 1040 950
f 1120 1003 1121
f 1093 1121 1043
f 1095 1047 1046
f 1046 1122 1123
f 1054 1097 1053
f 1055 1124 1056
f 1004 1125 1099
f 1008 1058 1005
f 961 1011 960
f 1101 1061 1017
f 1016 1102 966
f 1104 1126 1084
f 1107 1105 932
f 971 1127 914
f 1067 1108 1017
f 1073 1110 932
f 1077 1078 1076
f 1115 1116 1114
f 1117 977 1079
f 1026 1024 977
f 1086 1027 1084
f 940 978 895
f 1036 1090 1034
f 947 944 946
f 1121 1128 1120
f 1045 1092 1043
f 1122 1129 1123
f 1130 1131 1132
f 1133 1134 1135
f 1136 1133 1137
f 1112 1136 1138
f 1056 1124 1096
f 1004 1139 1125
f 900 903 898
f 965 966 1013
f 1103 1140 1104
f 1105 1141 1103
f 1109 1020 1017
f 1023 1074 915
f 1116 1081 1080
f 1086 1118 1027
f 936 1142 1143
f 1029 989 978
f 1039 993 1037
f 1121 1144 1128
f 1123 1094 1046
f 1145 1146 1122
f 1147 1148 1130
f 1149 1148 1147
f 1135 1137 1133
f 1138 1113 1112
f 1150 1100 1151
f 1152 1029 1153
f 1099 1098 1057
f 1100 1068 1017
f 1141 1140 1103
f 1071 1106 932
f 976 1079 977
f 936 935 1142
f 1088 1059 963
f 1093 1144 1121
f 1132 1131 1145
f 1147 1135 1149
f 1137 1138 1136
f 1029 1154 1155
f 1029 1156 1157
f 1029 1158 1159
f 1100 1160 1161
f 1100 1162 1163
f 1100 1150 1164
f 1153 1151 1152
f 955 1139 1004
f 1127 934 914
f 1143 1082 936
f 1120 1042 1003
f 1122 1132 1145
f 1134 1149 1135
f 1029 1165 1154
f 1157 1166 1029
f 1159 1167 1029
f 1161 1168 1100
f 1163 1169 1100
f 1029 1152 1170
f 1151 1153 1150
f 1126 1119 1084
f 1100 1171 1172
f 1031 947 897
f 1132 1147 1130
f 1029 1173 1165
f 1167 1156 1029
f 1169 1160 1100
f 1164 1162 1100
f 1172 1068 1100
f 1146 1129 1122
f 1166 1173 1029
f 1170 1158 1029
f 1113 1115 1111
f 1168 1171 1100
f 1155 989 1029
f 1050 1051 1048
f 1174 1175 1176
f 1177 1174 1178
f 1179 1177 1180
f 1181 1179 1182
f 1183 1181 1184
f 1185 1183 1186
f 1187 1185 1188
f 1189 1187 1190
f 1191 1189 1192
f 1193 1191 1194
f 1195 1193 1196
f 1197 1195 1198
f 1199 1197 1200
f 1201 1199 1202
f 1203 1201 1204
f 1205 1203 1206
f 1207 1205 1208
f 1209 1207 1210
f 1211 1209 1212
f 1213 1211 1214
f 1215 1213 1216
f 1217 1215 1218
f 1219 1217 1220
f 1221 1219 1222
f 1223 1221 1224
f 1225 1223 1226
f 1227 1225 1228
f 1229 1227 1230
f 1231 1229 1232
f 1233 1231 1234
f 1235 1233 1236
f 1237 1235 1238
f 1239 1237 1240
f 1241 1239 1242
f 1243 1241 1244
f 1245 1243 1246
f 1247 1245 1248
f 1249 1247 1250
f 1251 1249 1252
f 1253 1251 1254
f 1255 1253 1256
f 1257 1255 1258
f 1259 1257 1260
f 1261 1259 1262
f 1263 1261 1264
f 1265 1263 1266
f 1267 1265 1268
f 1269 1267 1270
f 1271 1269 1272
f 1273 1271 1274
f 1275 1273 1276
f 1277 1275 1278
f 1279 1277 1280
f 1281 1279 1282
f 1283 1281 1284
f 1285 1283 1286
f 1287 1285 1288
f 1175 1287 1289
f 1289 1176 1175
f 1288 1289 1287
f 1286 1288 1285
f 1284 1286 1283
f 1282 1284 1281
f 1280 1282 1279
f 1278 1280 1277
f 1276 1278 1275
f 1274 1276 1273
f 1272 1274 1271
f 1270 1272 1269
f 1268 1270 1267
f 1266 1268 1265
f 1264 1266 1263
f 1262 1264 1261
f 1260 1262 1259
f 1258 1260 1257
f 1256 1258 1255
f 1254 1256 1253
f 1252 1254 1251
f 1250 1252 1249
f 1248 1250 1247
f 1246 1248 1245
f 1244 1246 1243
f 1242 1244 1241
f 1240 1242 1239
f 1238 1240 1237
f 1236 1238 1235
f 1234 1236 1233
f 1232 1234 1231
f 1230 1232 1229
f 1228 1230 1227
f 1226 1228 1225
f 1224 1226 1223
f 1222 1224 1221
f 1220 1222 1219
f 1218 1220 1217
f 1216 1218 1215
f 1214 1216 1213
f 1212 1214 1211
f 1210 1212 1209
f 1208 1210 1207
f 1206 1208 1205
f 1204 1206 1203
f 1202 1204 1201
f 1200 1202 1199
f 1198 1200 1197
f 1196 1198 1195
f 1194 1196 1193
f 1192 1194 1191
f 1190 1192 1189
f 1188 1190 1187
f 1186 1188 1185
f 1184 1186 1183
f 1182 1184 1181
f 1180 1182 1179
f 1178 1180 1177
f 1176 1178 1174
f 1290 1291 1292
f 1293 1290 1294
f 1295 1293 1296
f 1297 1295 1298
f 1299 1297 1300
f 1301 1299 1302
f 1303 1301 1304
f 1305 1303 1306
f 1307 1305 1308
f 1309 1307 1310
f 1311 1309 1312
f 1313 1311 1314
f 1315 1313 1316
f 1317 1315 1318
f 1319 1317 1320
f 1321 1319 1322
f 1323 1321 1324
f 1325 1323 1326
f 1327 1325 1328
f 1329 1327 1330
f 1331 1329 1332
f 1333 1331 1334
f 1335 1333 1336
f 1337 1335 1338
f 1339 1337 1340
f 1341 1339 1342
f 1343 1341 1344
f 1345 1343 1346
f 1347 1345 1348
f 1349 1347 1350
f 1351 1349 1352
f 1353 1351 1354
f 1355 1353 1356
f 1357 1355 1358
f 1359 1357 1360
f 1361 1359 1362
f 1363 1361 1364
f 1365 1363 1366
f 1367 1365 1368
f 1369 1367 1370
f 1371 1369 1372
f 1373 1371 1374
f 1375 1373 1376
f 1377 1375 1378
f 1379 1377 1380
f 1381 1379 1382
f 1383 1381 1384
f 1385 1383 1386
f 1387 1385 1388
f 1389 1387 1390
f 1391 1389 1392
f 1393 1391 1394
f 1395 1393 1396
f 1397 1395 1398
f 1399 1397 1400
f 1401 1399 1402
f 1403 1401 1404
f 1291 1403 1405
f 1405 1292 1291
f 1404 1405 1403
f 1402 1404 1401
f 1400 1402 1399
f 1398 1400 1397
f 1396 1398 1395
f 1394 1396 1393
f 1392 1394 1391
f 1390 1392 1389
f 1388 1390 1387
f 1386 1388 1385
f 1384 1386 1383
f 1382 1384 1381
f 1380 1382 1379
f 1378 1380 1377
f 1376 1378 1375
f 1374 1376 1373
f 1372 1374 1371
f 1370 1372 1369
f 1368 1370 1367
f 1366 1368 1365
f 1364 1366 1363
f 1362 1364 1361
f 1360 1362 1359
f 1358 1360 1357
f 1356 1358 1355
f 1354 1356 1353
f 1352 1354 1351
f 1350 1352 1349
f 1348 1350 1347
f 1346 1348 1345
f 1344 1346 1343
f 1342 1344 1341
f 1340 1342 1339
f 1338 1340 1337
f 1336 1338 1335
f 1334 1336 1333
f 1332 1334 1331
f 1330 1332 1329
f 1328 1330 1327
f 1326 1328 1325
f 1324 1326 1323
f 1322 1324 1321
f 1320 1322 1319
f 1318 1320 1317
f 1316 1318 1315
f 1314 1316 1313
f 1312 1314 1311
f 1310 1312 1309
f 1308 1310 1307
f 1306 1308 1305
f 1304 1306 1303
f 1302 1304 1301
f 1300 1302 1299
f 1298 1300 1297
f 1296 1298 1295
f 1294 1296 1293
f 1292 1294 1290
f 1406 1407 1408
f 1409 1406 1410
f 1411 1409 1412
f 1413 1411 1414
f 1415 1413 1416
f 1417 1415 1418
f 1419 1417 1420
f 1421 1419 1422
f 1423 1421 1424
f 1425 1423 1426
f 1427 1425 1428
f 1429 1427 1430
f 1431 1429 1432
f 1433 1431 1434
f 1435 1433 1436
f 1437 1435 1438
f 1439 1437 1440
f 1441 1439 1442
f 1443 1441 1444
f 1445 1443 1446
f 1447 1445 1448
f 1449 1447 1450
f 1451 1449 1452
f 1453 1451 1454
f 1455 1453 1456
f 1457 1455 1458
f 1459 1457 1460
f 1461 1459 1462
f 1463 1461 1464
f 1465 1463 1466
f 1467 1465 1468
f 1469 1467 1470
f 1471 1469 1472
f 1473 1471 1474
f 1475 1473 1476
f 1477 1475 1478
f 1479 1477 1480
f 1481 1479 1482
f 1483 1481 1484
f 1485 1483 1486
f 1487 1485 1488
f 1489 1487 1490
f 1491 1489 1492
f 1493 1491 1494
f 1495 1493 1496
f 1497 1495 1498
f 1499 1497 1500
f 1501 1499 1502
f 1503 1501 1504
f 1505 1503 1506
f 1507 1505 1508
f 1509 1507 1510
f 1511 1509 1512
f 1513 1511 1514
f 1515 1513 1516
f 1517 1515 1518
f 1519 1517 1520
f 1407 1519 1521
f 1521 1408 1407
f 1520 1521 1519
f 1518 1520 1517
f 1516 1518 1515
f 1514 1516 1513
f 1512 1514 1511
f 1510 1512 1509
f 1508 1510 1507
f 1506 1508 1505
f 1504 1506 1503
f 1502 1504 1501
f 1500 1502 1499
f 1498 1500 1497
f 1496 1498 1495
f 1494 1496 1493
f 1492 1494 1491
f 1490 1492 1489
f 1488 1490 1487
f 1486 1488 1485
f 1484 1486 1483
f 1482 1484 1481
f 1480 1482 1479
f 1478 1480 1477
f 1476 1478 1475
f 1474 1476 1473
f 1472 1474 1471
f 1470 1472 1469
f 1468 1470 1467
f 1466 1468 1465
f 1464 1466 1463
f 1462 1464 1461
f 1460 1462 1459
f 1458 1460 1457
f 1456 1458 1455
f 1454 1456 1453
f 1452 1454 1451
f 1450 1452 1449
f 1448 1450 1447
f 1446 1448 1445
f 1444 1446 1443
f 1442 1444 1441
f 1440 1442 1439
f 1438 1440 1437
f 1436 1438 1435
f 1434 1436 1433
f 1432 1434 1431
f 1430 1432 1429
f 1428 1430 1427
f 1426 1428 1425
f 1424 1426 1423
f 1422 1424 1421
f 1420 1422 1419
f 1418 1420 1417
f 1416 1418 1415
f 1414 1416 1413
f 1412 1414 1411
f 1410 1412 1409
f 1408 1410 1406
f 1522 1523 1524
f 1525 1524 1526
f 1527 1528 1529
f 1528 1526 1529
f 1527 1530 1531
f 1532 1531 1533
f 1534 1533 1535
f 1536 1535 1537
f 1538 1537 1539
f 1540 1539 1541
f 1542 1541 1543
f 1544 1543 1545
f 1546 1545 1547
f 1548 1547 1549
f 1550 1549 1551
f 1552 1551 1553
f 1554 1553 1555
f 1556 1555 1557
f 1557 1558 1556
f 1558 1559 1560
f 1561 1560 1562
f 1563 1562 1564
f 1565 1564 1566
f 1567 1566 1568
f 1569 1568 1570
f 1571 1570 1572
f 1573 1572 1574
f 1575 1574 1576
f 1577 1576 1578
f 1578 1579 1577
f 1579 1580 1581
f 1582 1581 1583
f 1584 1583 1585
f 1586 1585 1587
f 1588 1587 1589
f 1590 1589 1591
f 1592 1591 1593
f 1594 1593 1595
f 1596 1595 1597
f 1598 1597 1599
f 1600 1599 1601
f 1602 1601 1603
f 1604 1603 1605
f 1606 1605 1607
f 1608 1609 1610
f 1609 1607 1610
f 1608 1611 1612
f 1613 1612 1614
f 1615 1614 1616
f 1617 1616 1618
f 1619 1618 1620
f 1621 1620 1622
f 1623 1622 1624
f 1625 1624 1626
f 1627 1626 1628
f 1629 1628 1630
f 1631 1630 1632
f 1633 1632 1634
f 1635 1634 1636
f 1637 1636 1638
f 1639 1638 1640
f 1641 1640 1523
f 1523 1522 1641
f 1640 1641 1639
f 1638 1639 1637
f 1636 1637 1635
f 1634 1635 1633
f 1632 1633 1631
f 1630 1631 1629
f 1628 1629 1627
f 1626 1627 1625
f 1624 1625 1623
f 1622 1623 1621
f 1620 1621 1619
f 1618 1619 1617
f 1616 1617 1615
f 1614 1615 1613
f 1612 1613 1608
f 1610 1611 1608
f 1607 1609 1606
f 1605 1606 1604
f 1603 1604 1602
f 1601 1602 1600
f 1599 1600 1598
f 1597 1598 1596
f 1595 1596 1594
f 1593 1594 1592
f 1591 1592 1590
f 1589 1590 1588
f 1587 1588 1586
f 1585 1586 1584
f 1583 1584 1582
f 1581 1582 1579
f 1578 1580 1579
f 1576 1577 1575
f 1574 1575 1573
f 1572 1573 1571
f 1570 1571 1569
f 1568 1569 1567
f 1566 1567 1565
f 1564 1565 1563
f 1562 1563 1561
f 1560 1561 1558
f 1557 1559 1558
f 1555 1556 1554
f 1553 1554 1552
f 1551 1552 1550
f 1549 1550 1548
f 1547 1548 1546
f 1545 1546 1544
f 1543 1544 1542
f 1541 1542 1540
f 1539 1540 1538
f 1537 1538 1536
f 1535 1536 1534
f 1533 1534 1532
f 1531 1532 1527
f 1529 1530 1527
f 1526 1528 1525
f 1524 1525 1522
