v 0.114321478 -0.0246799346 0.0248032045
v 0.114321478 -0.0246799346 0.0218032058
v 0.114259928 -0.0235446841 0.0218032058
v 0.114259928 -0.0235446841 0.0248032045
v 0.114075996 -0.0224227458 0.0218032058
v 0.114075996 -0.0224227458 0.0248032045
v 0.113771833 -0.0213272683 0.0218032058
v 0.113771833 -0.0213272683 0.0248032045
v 0.113351017 -0.0202710982 0.0218032058
v 0.113351017 -0.0202710982 0.0248032045
v 0.11281848 -0.0192666184 0.0218032058
v 0.11281848 -0.0192666184 0.0248032045
v 0.112180457 -0.0183256045 0.0218032058
v 0.112180457 -0.0183256045 0.0248032045
v 0.111444429 -0.0174590908 0.0218032058
v 0.111444429 -0.0174590908 0.0248032045
v 0.110619038 -0.0166772325 0.0218032058
v 0.110619038 -0.0166772325 0.0248032045
v 0.109713942 -0.0159891993 0.0218032058
v 0.109713942 -0.0159891993 0.0248032045
v 0.108739771 -0.0154030584 0.0218032058
v 0.108739771 -0.0154030584 0.0248032045
v 0.107707933 -0.0149256792 0.0218032058
v 0.107707933 -0.0149256792 0.0248032045
v 0.106630526 -0.0145626599 0.0218032058
v 0.106630526 -0.0145626599 0.0248032045
v 0.105520189 -0.0143182557 0.0218032058
v 0.105520189 -0.0143182557 0.0248032045
v 0.104389936 -0.0141953342 0.0218032058
v 0.104389936 -0.0141953342 0.0248032045
v 0.103253022 -0.0141953342 0.0218032058
v 0.103253022 -0.0141953342 0.0248032045
v 0.102122769 -0.0143182557 0.0218032058
v 0.102122769 -0.0143182557 0.0248032045
v 0.101012431 -0.0145626599 0.0218032058
v 0.101012431 -0.0145626599 0.0248032045
v 0.099935025 -0.0149256792 0.0218032058
v 0.099935025 -0.0149256792 0.0248032045
v 0.0989031866 -0.0154030584 0.0218032058
v 0.0989031866 -0.0154030584 0.0248032045
v 0.0979290158 -0.0159891993 0.0218032058
v 0.0979290158 -0.0159891993 0.0248032045
v 0.0970239192 -0.0166772325 0.0218032058
v 0.0970239192 -0.0166772325 0.0248032045
v 0.096198529 -0.0174590908 0.0218032058
v 0.096198529 -0.0174590908 0.0248032045
v 0.095462501 -0.0183256045 0.0218032058
v 0.095462501 -0.0183256045 0.0248032045
v 0.094824478 -0.0192666184 0.0218032058
v 0.094824478 -0.0192666184 0.0248032045
v 0.0942919403 -0.0202710982 0.0218032058
v 0.0942919403 -0.0202710982 0.0248032045
v 0.0938711241 -0.0213272683 0.0218032058
v 0.0938711241 -0.0213272683 0.0248032045
v 0.0935669616 -0.0224227458 0.0218032058
v 0.0935669616 -0.0224227458 0.0248032045
v 0.0933830291 -0.0235446841 0.0218032058
v 0.0933830291 -0.0235446841 0.0248032045
v 0.0933214799 -0.0246799346 0.0218032058
v 0.0933214799 -0.0246799346 0.0248032045
v 0.0933830291 -0.0258151852 0.0218032058
v 0.0933830291 -0.0258151852 0.0248032045
v 0.0935669616 -0.0269371234 0.0218032058
v 0.0935669616 -0.0269371234 0.0248032045
v 0.0938711241 -0.0280326009 0.0218032058
v 0.0938711241 -0.0280326009 0.0248032045
v 0.0942919403 -0.029088771 0.0218032058
v 0.0942919403 -0.029088771 0.0248032045
v 0.094824478 -0.0300932508 0.0218032058
v 0.094824478 -0.0300932508 0.0248032045
v 0.095462501 -0.0310342647 0.0218032058
v 0.095462501 -0.0310342647 0.0248032045
v 0.096198529 -0.0319007784 0.0218032058
v 0.096198529 -0.0319007784 0.0248032045
v 0.0970239192 -0.0326826349 0.0218032058
v 0.0970239192 -0.0326826349 0.0248032045
v 0.0979290158 -0.0333706699 0.0218032058
v 0.0979290158 -0.0333706699 0.0248032045
v 0.0989031866 -0.0339568108 0.0218032058
v 0.0989031866 -0.0339568108 0.0248032045
v 0.099935025 -0.0344341919 0.0218032058
v 0.099935025 -0.0344341919 0.0248032045
v 0.101012431 -0.0347972102 0.0218032058
v 0.101012431 -0.0347972102 0.0248032045
v 0.102122769 -0.0350416116 0.0218032058
v 0.102122769 -0.0350416116 0.0248032045
v 0.103253022 -0.035164535 0.0218032058
v 0.103253022 -0.035164535 0.0248032045
v 0.104389936 -0.035164535 0.0218032058
v 0.104389936 -0.035164535 0.0248032045
v 0.105520189 -0.0350416116 0.0218032058
v 0.105520189 -0.0350416116 0.0248032045
v 0.106630526 -0.0347972102 0.0218032058
v 0.106630526 -0.0347972102 0.0248032045
v 0.107707933 -0.0344341919 0.0218032058
v 0.107707933 -0.0344341919 0.0248032045
v 0.108739771 -0.0339568108 0.0218032058
v 0.108739771 -0.0339568108 0.0248032045
v 0.109713942 -0.0333706699 0.0218032058
v 0.109713942 -0.0333706699 0.0248032045
v 0.110619038 -0.0326826349 0.0218032058
v 0.110619038 -0.0326826349 0.0248032045
v 0.111444429 -0.0319007784 0.0218032058
v 0.111444429 -0.0319007784 0.0248032045
v 0.112180457 -0.0310342647 0.0218032058
v 0.112180457 -0.0310342647 0.0248032045
v 0.11281848 -0.0300932508 0.0218032058
v 0.11281848 -0.0300932508 0.0248032045
v 0.113351017 -0.029088771 0.0218032058
v 0.113351017 -0.029088771 0.0248032045
v 0.113771833 -0.0280326009 0.0218032058
v 0.113771833 -0.0280326009 0.0248032045
v 0.114075996 -0.0269371234 0.0218032058
v 0.114075996 -0.0269371234 0.0248032045
v 0.114259928 -0.0258151852 0.0218032058
v 0.114259928 -0.0258151852 0.0248032045
v 0.105520189 -0.0350416116 0.0218032058
v 0.104468606 -0.028627241 0.0218032058
v 0.104891591 -0.0285341348 0.0218032058
v 0.104389936 -0.035164535 0.0218032058
v 0.104038037 -0.0286740679 0.0218032058
v 0.102122769 -0.0143182557 0.0218032058
v 0.103174351 -0.0207326282 0.0218032058
v 0.102751367 -0.0208257344 0.0218032058
v 0.103253022 -0.0141953342 0.0218032058
v 0.10360492 -0.0206858013 0.0218032058
v 0.103253022 -0.035164535 0.0218032058
v 0.10360492 -0.0286740679 0.0218032058
v 0.101012431 -0.0347972102 0.0218032058
v 0.102751367 -0.0285341348 0.0218032058
v 0.103174351 -0.028627241 0.0218032058
v 0.099935025 -0.0344341919 0.0218032058
v 0.102340929 -0.0283958409 0.0218032058
v 0.099935025 -0.0149256792 0.0218032058
v 0.102340929 -0.0209640283 0.0218032058
v 0.101947844 -0.0211458858 0.0218032058
v 0.101012431 -0.0145626599 0.0218032058
v 0.104389936 -0.0141953342 0.0218032058
v 0.104038037 -0.0206858013 0.0218032058
v 0.105520189 -0.0143182557 0.0218032058
v 0.104468606 -0.0207326282 0.0218032058
v 0.106630526 -0.0145626599 0.0218032058
v 0.104891591 -0.0208257344 0.0218032058
v 0.102122769 -0.0350416116 0.0218032058
v 0.0989031866 -0.0339568108 0.0218032058
v 0.101947844 -0.0282139834 0.0218032058
v 0.0970239192 -0.0326826349 0.0218032058
v 0.101231933 -0.0277285837 0.0218032058
v 0.101576731 -0.0279906914 0.0218032058
v 0.096198529 -0.0319007784 0.0218032058
v 0.100917496 -0.0274307318 0.0218032058
v 0.095462501 -0.0183256045 0.0218032058
v 0.100637108 -0.0222592372 0.0218032058
v 0.100394048 -0.0226177201 0.0218032058
v 0.096198529 -0.0174590908 0.0218032058
v 0.100917496 -0.0219291374 0.0218032058
v 0.0970239192 -0.0166772325 0.0218032058
v 0.101231933 -0.0216312855 0.0218032058
v 0.0979290158 -0.0159891993 0.0218032058
v 0.101576731 -0.0213691778 0.0218032058
v 0.0989031866 -0.0154030584 0.0218032058
v 0.107707933 -0.0149256792 0.0218032058
v 0.105302028 -0.0209640283 0.0218032058
v 0.108739771 -0.0154030584 0.0218032058
v 0.105695114 -0.0211458858 0.0218032058
v 0.112180457 -0.0183256045 0.0218032058
v 0.107005849 -0.0222592372 0.0218032058
v 0.106725462 -0.0219291374 0.0218032058
v 0.11281848 -0.0192666184 0.0218032058
v 0.10724891 -0.0226177201 0.0218032058
v 0.0979290158 -0.0333706699 0.0218032058
v 0.095462501 -0.0310342647 0.0218032058
v 0.100637108 -0.027100632 0.0218032058
v 0.094824478 -0.0300932508 0.0218032058
v 0.100394048 -0.0267421491 0.0218032058
v 0.0942919403 -0.0202710982 0.0218032058
v 0.100191176 -0.0230003782 0.0218032058
v 0.100030869 -0.0234027281 0.0218032058
v 0.094824478 -0.0192666184 0.0218032058
v 0.109713942 -0.0159891993 0.0218032058
v 0.106066227 -0.0213691778 0.0218032058
v 0.113351017 -0.0202710982 0.0218032058
v 0.107451782 -0.0230003782 0.0218032058
v 0.0942919403 -0.029088771 0.0218032058
v 0.100191176 -0.0263594911 0.0218032058
v 0.110619038 -0.0166772325 0.0218032058
v 0.106411025 -0.0216312855 0.0218032058
v 0.111444429 -0.0174590908 0.0218032058
v 0.113771833 -0.0213272683 0.0218032058
v 0.107612088 -0.0234027281 0.0218032058
v 0.114259928 -0.0258151852 0.0218032058
v 0.107798032 -0.025112411 0.0218032058
v 0.107821479 -0.0246799346 0.0218032058
v 0.114075996 -0.0269371234 0.0218032058
v 0.10772796 -0.0255398173 0.0218032058
v 0.112180457 -0.0310342647 0.0218032058
v 0.107005849 -0.027100632 0.0218032058
v 0.10724891 -0.0267421491 0.0218032058
v 0.111444429 -0.0319007784 0.0218032058
v 0.106725462 -0.0274307318 0.0218032058
v 0.107707933 -0.0344341919 0.0218032058
v 0.105302028 -0.0283958409 0.0218032058
v 0.105695114 -0.0282139834 0.0218032058
v 0.106630526 -0.0347972102 0.0218032058
v 0.0933830291 -0.0235446841 0.0218032058
v 0.0998449251 -0.0242474582 0.0218032058
v 0.0998214781 -0.0246799346 0.0218032058
v 0.0935669616 -0.0224227458 0.0218032058
v 0.0999149978 -0.0238200519 0.0218032058
v 0.113771833 -0.0280326009 0.0218032058
v 0.107612088 -0.0259571411 0.0218032058
v 0.11281848 -0.0300932508 0.0218032058
v 0.107451782 -0.0263594911 0.0218032058
v 0.110619038 -0.0326826349 0.0218032058
v 0.106411025 -0.0277285837 0.0218032058
v 0.109713942 -0.0333706699 0.0218032058
v 0.106066227 -0.0279906914 0.0218032058
v 0.108739771 -0.0339568108 0.0218032058
v 0.0938711241 -0.0280326009 0.0218032058
v 0.100030869 -0.0259571411 0.0218032058
v 0.0933830291 -0.0258151852 0.0218032058
v 0.0998449251 -0.025112411 0.0218032058
v 0.0999149978 -0.0255398173 0.0218032058
v 0.0933214799 -0.0246799346 0.0218032058
v 0.0938711241 -0.0213272683 0.0218032058
v 0.114259928 -0.0235446841 0.0218032058
v 0.107798032 -0.0242474582 0.0218032058
v 0.10772796 -0.0238200519 0.0218032058
v 0.114321478 -0.0246799346 0.0218032058
v 0.113351017 -0.029088771 0.0218032058
v 0.0935669616 -0.0269371234 0.0218032058
v 0.114075996 -0.0224227458 0.0218032058
v 0.107798032 -0.025112411 0.0248032045
v 0.107821479 -0.0246799346 0.0248032045
v 0.107821479 -0.0246799346 0.0218032058
v 0.10772796 -0.0255398173 0.0248032045
v 0.107798032 -0.025112411 0.0218032058
v 0.107612088 -0.0259571411 0.0248032045
v 0.10772796 -0.0255398173 0.0218032058
v 0.107451782 -0.0263594911 0.0248032045
v 0.107612088 -0.0259571411 0.0218032058
v 0.10724891 -0.0267421491 0.0248032045
v 0.107451782 -0.0263594911 0.0218032058
v 0.107005849 -0.027100632 0.0248032045
v 0.10724891 -0.0267421491 0.0218032058
v 0.106725462 -0.0274307318 0.0248032045
v 0.107005849 -0.027100632 0.0218032058
v 0.106411025 -0.0277285837 0.0248032045
v 0.106725462 -0.0274307318 0.0218032058
v 0.106066227 -0.0279906914 0.0248032045
v 0.106411025 -0.0277285837 0.0218032058
v 0.105695114 -0.0282139834 0.0248032045
v 0.106066227 -0.0279906914 0.0218032058
v 0.105302028 -0.0283958409 0.0248032045
v 0.105695114 -0.0282139834 0.0218032058
v 0.104891591 -0.0285341348 0.0248032045
v 0.105302028 -0.0283958409 0.0218032058
v 0.104468606 -0.028627241 0.0248032045
v 0.104891591 -0.0285341348 0.0218032058
v 0.104038037 -0.0286740679 0.0248032045
v 0.104468606 -0.028627241 0.0218032058
v 0.10360492 -0.0286740679 0.0248032045
v 0.104038037 -0.0286740679 0.0218032058
v 0.103174351 -0.028627241 0.0248032045
v 0.10360492 -0.0286740679 0.0218032058
v 0.102751367 -0.0285341348 0.0248032045
v 0.103174351 -0.028627241 0.0218032058
v 0.102340929 -0.0283958409 0.0248032045
v 0.102751367 -0.0285341348 0.0218032058
v 0.101947844 -0.0282139834 0.0248032045
v 0.102340929 -0.0283958409 0.0218032058
v 0.101576731 -0.0279906914 0.0248032045
v 0.101947844 -0.0282139834 0.0218032058
v 0.101231933 -0.0277285837 0.0248032045
v 0.101576731 -0.0279906914 0.0218032058
v 0.100917496 -0.0274307318 0.0248032045
v 0.101231933 -0.0277285837 0.0218032058
v 0.100637108 -0.027100632 0.0248032045
v 0.100917496 -0.0274307318 0.0218032058
v 0.100394048 -0.0267421491 0.0248032045
v 0.100637108 -0.027100632 0.0218032058
v 0.100191176 -0.0263594911 0.0248032045
v 0.100394048 -0.0267421491 0.0218032058
v 0.100030869 -0.0259571411 0.0248032045
v 0.100191176 -0.0263594911 0.0218032058
v 0.0999149978 -0.0255398173 0.0248032045
v 0.100030869 -0.0259571411 0.0218032058
v 0.0998449251 -0.025112411 0.0248032045
v 0.0999149978 -0.0255398173 0.0218032058
v 0.0998214781 -0.0246799346 0.0248032045
v 0.0998449251 -0.025112411 0.0218032058
v 0.0998449251 -0.0242474582 0.0248032045
v 0.0998214781 -0.0246799346 0.0218032058
v 0.0999149978 -0.0238200519 0.0248032045
v 0.0998449251 -0.0242474582 0.0218032058
v 0.100030869 -0.0234027281 0.0248032045
v 0.0999149978 -0.0238200519 0.0218032058
v 0.100191176 -0.0230003782 0.0248032045
v 0.100030869 -0.0234027281 0.0218032058
v 0.100394048 -0.0226177201 0.0248032045
v 0.100191176 -0.0230003782 0.0218032058
v 0.100637108 -0.0222592372 0.0248032045
v 0.100394048 -0.0226177201 0.0218032058
v 0.100917496 -0.0219291374 0.0248032045
v 0.100637108 -0.0222592372 0.0218032058
v 0.101231933 -0.0216312855 0.0248032045
v 0.100917496 -0.0219291374 0.0218032058
v 0.101576731 -0.0213691778 0.0248032045
v 0.101231933 -0.0216312855 0.0218032058
v 0.101947844 -0.0211458858 0.0248032045
v 0.101576731 -0.0213691778 0.0218032058
v 0.102340929 -0.0209640283 0.0248032045
v 0.101947844 -0.0211458858 0.0218032058
v 0.102751367 -0.0208257344 0.0248032045
v 0.102340929 -0.0209640283 0.0218032058
v 0.103174351 -0.0207326282 0.0248032045
v 0.102751367 -0.0208257344 0.0218032058
v 0.10360492 -0.0206858013 0.0248032045
v 0.103174351 -0.0207326282 0.0218032058
v 0.104038037 -0.0206858013 0.0248032045
v 0.10360492 -0.0206858013 0.0218032058
v 0.104468606 -0.0207326282 0.0248032045
v 0.104038037 -0.0206858013 0.0218032058
v 0.104891591 -0.0208257344 0.0248032045
v 0.104468606 -0.0207326282 0.0218032058
v 0.105302028 -0.0209640283 0.0248032045
v 0.104891591 -0.0208257344 0.0218032058
v 0.105695114 -0.0211458858 0.0248032045
v 0.105302028 -0.0209640283 0.0218032058
v 0.106066227 -0.0213691778 0.0248032045
v 0.105695114 -0.0211458858 0.0218032058
v 0.106411025 -0.0216312855 0.0248032045
v 0.106066227 -0.0213691778 0.0218032058
v 0.106725462 -0.0219291374 0.0248032045
v 0.106411025 -0.0216312855 0.0218032058
v 0.107005849 -0.0222592372 0.0248032045
v 0.106725462 -0.0219291374 0.0218032058
v 0.10724891 -0.0226177201 0.0248032045
v 0.107005849 -0.0222592372 0.0218032058
v 0.107451782 -0.0230003782 0.0248032045
v 0.10724891 -0.0226177201 0.0218032058
v 0.107612088 -0.0234027281 0.0248032045
v 0.107451782 -0.0230003782 0.0218032058
v 0.10772796 -0.0238200519 0.0248032045
v 0.107612088 -0.0234027281 0.0218032058
v 0.107798032 -0.0242474582 0.0248032045
v 0.10772796 -0.0238200519 0.0218032058
v 0.107798032 -0.0242474582 0.0218032058
v 0.105520189 -0.0143182557 0.0248032045
v 0.104468606 -0.0207326282 0.0248032045
v 0.104891591 -0.0208257344 0.0248032045
v 0.104389936 -0.0141953342 0.0248032045
v 0.104038037 -0.0206858013 0.0248032045
v 0.101012431 -0.0347972102 0.0248032045
v 0.102751367 -0.0285341348 0.0248032045
v 0.102340929 -0.0283958409 0.0248032045
v 0.102122769 -0.0350416116 0.0248032045
v 0.103174351 -0.028627241 0.0248032045
v 0.103253022 -0.035164535 0.0248032045
v 0.10360492 -0.0286740679 0.0248032045
v 0.104389936 -0.035164535 0.0248032045
v 0.104038037 -0.0286740679 0.0248032045
v 0.105520189 -0.0350416116 0.0248032045
v 0.104468606 -0.028627241 0.0248032045
v 0.106630526 -0.0347972102 0.0248032045
v 0.104891591 -0.0285341348 0.0248032045
v 0.112180457 -0.0183256045 0.0248032045
v 0.107005849 -0.0222592372 0.0248032045
v 0.10724891 -0.0226177201 0.0248032045
v 0.111444429 -0.0174590908 0.0248032045
v 0.106725462 -0.0219291374 0.0248032045
v 0.107707933 -0.0149256792 0.0248032045
v 0.105302028 -0.0209640283 0.0248032045
v 0.105695114 -0.0211458858 0.0248032045
v 0.106630526 -0.0145626599 0.0248032045
v 0.103253022 -0.0141953342 0.0248032045
v 0.10360492 -0.0206858013 0.0248032045
v 0.102122769 -0.0143182557 0.0248032045
v 0.103174351 -0.0207326282 0.0248032045
v 0.101012431 -0.0145626599 0.0248032045
v 0.102751367 -0.0208257344 0.0248032045
v 0.0970239192 -0.0326826349 0.0248032045
v 0.101231933 -0.0277285837 0.0248032045
v 0.100917496 -0.0274307318 0.0248032045
v 0.0979290158 -0.0333706699 0.0248032045
v 0.101576731 -0.0279906914 0.0248032045
v 0.099935025 -0.0344341919 0.0248032045
v 0.101947844 -0.0282139834 0.0248032045
v 0.11281848 -0.0192666184 0.0248032045
v 0.107451782 -0.0230003782 0.0248032045
v 0.108739771 -0.0154030584 0.0248032045
v 0.106066227 -0.0213691778 0.0248032045
v 0.099935025 -0.0149256792 0.0248032045
v 0.102340929 -0.0209640283 0.0248032045
v 0.0989031866 -0.0154030584 0.0248032045
v 0.101947844 -0.0211458858 0.0248032045
v 0.094824478 -0.0300932508 0.0248032045
v 0.100394048 -0.0267421491 0.0248032045
v 0.100191176 -0.0263594911 0.0248032045
v 0.095462501 -0.0310342647 0.0248032045
v 0.100637108 -0.027100632 0.0248032045
v 0.0989031866 -0.0339568108 0.0248032045
v 0.113351017 -0.0202710982 0.0248032045
v 0.107612088 -0.0234027281 0.0248032045
v 0.110619038 -0.0166772325 0.0248032045
v 0.106411025 -0.0216312855 0.0248032045
v 0.109713942 -0.0159891993 0.0248032045
v 0.0979290158 -0.0159891993 0.0248032045
v 0.101576731 -0.0213691778 0.0248032045
v 0.0970239192 -0.0166772325 0.0248032045
v 0.101231933 -0.0216312855 0.0248032045
v 0.096198529 -0.0174590908 0.0248032045
v 0.100917496 -0.0219291374 0.0248032045
v 0.095462501 -0.0183256045 0.0248032045
v 0.100637108 -0.0222592372 0.0248032045
v 0.094824478 -0.0192666184 0.0248032045
v 0.100394048 -0.0226177201 0.0248032045
v 0.096198529 -0.0319007784 0.0248032045
v 0.0942919403 -0.0202710982 0.0248032045
v 0.100191176 -0.0230003782 0.0248032045
v 0.0938711241 -0.0213272683 0.0248032045
v 0.100030869 -0.0234027281 0.0248032045
v 0.107707933 -0.0344341919 0.0248032045
v 0.105302028 -0.0283958409 0.0248032045
v 0.108739771 -0.0339568108 0.0248032045
v 0.105695114 -0.0282139834 0.0248032045
v 0.112180457 -0.0310342647 0.0248032045
v 0.107005849 -0.027100632 0.0248032045
v 0.106725462 -0.0274307318 0.0248032045
v 0.11281848 -0.0300932508 0.0248032045
v 0.10724891 -0.0267421491 0.0248032045
v 0.114259928 -0.0258151852 0.0248032045
v 0.107798032 -0.025112411 0.0248032045
v 0.10772796 -0.0255398173 0.0248032045
v 0.114321478 -0.0246799346 0.0248032045
v 0.107821479 -0.0246799346 0.0248032045
v 0.0933830291 -0.0235446841 0.0248032045
v 0.0998449251 -0.0242474582 0.0248032045
v 0.0999149978 -0.0238200519 0.0248032045
v 0.0933214799 -0.0246799346 0.0248032045
v 0.0998214781 -0.0246799346 0.0248032045
v 0.0933830291 -0.0258151852 0.0248032045
v 0.0998449251 -0.025112411 0.0248032045
v 0.0935669616 -0.0269371234 0.0248032045
v 0.0999149978 -0.0255398173 0.0248032045
v 0.0938711241 -0.0280326009 0.0248032045
v 0.0942919403 -0.029088771 0.0248032045
v 0.109713942 -0.0333706699 0.0248032045
v 0.106066227 -0.0279906914 0.0248032045
v 0.110619038 -0.0326826349 0.0248032045
v 0.106411025 -0.0277285837 0.0248032045
v 0.111444429 -0.0319007784 0.0248032045
v 0.113351017 -0.029088771 0.0248032045
v 0.107451782 -0.0263594911 0.0248032045
v 0.114075996 -0.0269371234 0.0248032045
v 0.107612088 -0.0259571411 0.0248032045
v 0.114259928 -0.0235446841 0.0248032045
v 0.107798032 -0.0242474582 0.0248032045
v 0.114075996 -0.0224227458 0.0248032045
v 0.10772796 -0.0238200519 0.0248032045
v 0.0935669616 -0.0224227458 0.0248032045
v 0.100030869 -0.0259571411 0.0248032045
v 0.113771833 -0.0280326009 0.0248032045
v 0.113771833 -0.0213272683 0.0248032045
f 1 2 3
f 4 3 5
f 6 5 7
f 8 7 9
f 10 9 11
f 12 11 13
f 14 13 15
f 16 15 17
f 18 17 19
f 20 19 21
f 22 21 23
f 24 23 25
f 26 25 27
f 28 27 29
f 30 29 31
f 32 31 33
f 34 33 35
f 36 35 37
f 38 37 39
f 40 39 41
f 42 41 43
f 44 43 45
f 46 45 47
f 48 47 49
f 50 49 51
f 52 51 53
f 54 53 55
f 56 55 57
f 58 57 59
f 60 59 61
f 62 61 63
f 64 63 65
f 66 65 67
f 68 67 69
f 70 69 71
f 72 71 73
f 74 73 75
f 76 75 77
f 78 77 79
f 80 79 81
f 82 81 83
f 84 83 85
f 86 85 87
f 88 87 89
f 90 89 91
f 92 91 93
f 94 93 95
f 96 95 97
f 98 97 99
f 100 99 101
f 102 101 103
f 104 103 105
f 106 105 107
f 108 107 109
f 110 109 111
f 112 111 113
f 114 113 115
f 116 115 2
f 2 1 116
f 115 116 114
f 113 114 112
f 111 112 110
f 109 110 108
f 107 108 106
f 105 106 104
f 103 104 102
f 101 102 100
f 99 100 98
f 97 98 96
f 95 96 94
f 93 94 92
f 91 92 90
f 89 90 88
f 87 88 86
f 85 86 84
f 83 84 82
f 81 82 80
f 79 80 78
f 77 78 76
f 75 76 74
f 73 74 72
f 71 72 70
f 69 70 68
f 67 68 66
f 65 66 64
f 63 64 62
f 61 62 60
f 59 60 58
f 57 58 56
f 55 56 54
f 53 54 52
f 51 52 50
f 49 50 48
f 47 48 46
f 45 46 44
f 43 44 42
f 41 42 40
f 39 40 38
f 37 38 36
f 35 36 34
f 33 34 32
f 31 32 30
f 29 30 28
f 27 28 26
f 25 26 24
f 23 24 22
f 21 22 20
f 19 20 18
f 17 18 16
f 15 16 14
f 13 14 12
f 11 12 10
f 9 10 8
f 7 8 6
f 5 6 4
f 3 4 1
f 117 118 119
f 120 121 118
f 122 123 124
f 125 126 123
f 118 117 120
f 127 128 121
f 129 130 131
f 129 132 133
f 134 135 136
f 134 137 124
f 123 122 125
f 125 138 139
f 138 140 141
f 140 142 143
f 121 120 127
f 127 144 131
f 133 130 129
f 132 145 146
f 147 148 149
f 147 150 151
f 152 153 154
f 152 155 156
f 157 158 156
f 157 159 160
f 161 136 160
f 124 135 134
f 139 126 125
f 143 141 140
f 162 163 143
f 162 164 165
f 166 167 168
f 166 169 170
f 131 128 127
f 146 133 132
f 171 149 146
f 151 148 147
f 150 172 173
f 172 174 175
f 176 177 178
f 179 154 177
f 156 153 152
f 160 158 157
f 136 161 134
f 141 139 138
f 165 163 162
f 164 180 181
f 170 167 166
f 169 182 183
f 131 144 129
f 149 171 147
f 175 173 172
f 174 184 185
f 177 176 179
f 156 155 157
f 124 137 122
f 181 165 164
f 186 187 181
f 186 188 168
f 183 170 169
f 182 189 190
f 191 192 193
f 191 194 195
f 196 197 198
f 196 199 200
f 201 202 203
f 201 204 119
f 146 145 171
f 185 175 174
f 205 206 207
f 205 208 209
f 154 179 152
f 143 142 162
f 168 187 186
f 190 183 182
f 195 192 191
f 194 210 211
f 212 198 213
f 200 197 196
f 214 215 200
f 214 216 217
f 218 203 217
f 119 202 201
f 173 151 150
f 219 220 185
f 221 222 223
f 221 224 207
f 209 206 205
f 208 225 178
f 160 159 161
f 168 188 166
f 226 227 228
f 226 229 193
f 211 195 194
f 210 230 213
f 198 212 196
f 217 215 214
f 203 218 201
f 185 184 219
f 231 223 220
f 207 222 221
f 178 209 208
f 181 180 186
f 232 228 190
f 193 227 226
f 213 211 210
f 200 199 214
f 119 204 117
f 223 231 221
f 178 225 176
f 228 232 226
f 213 230 212
f 220 219 231
f 190 189 232
f 217 216 218
f 193 229 191
f 207 224 205
f 233 234 235
f 236 233 237
f 238 236 239
f 240 238 241
f 242 240 243
f 244 242 245
f 246 244 247
f 248 246 249
f 250 248 251
f 252 250 253
f 254 252 255
f 256 254 257
f 258 256 259
f 260 258 261
f 262 260 263
f 264 262 265
f 266 264 267
f 268 266 269
f 270 268 271
f 272 270 273
f 274 272 275
f 276 274 277
f 278 276 279
f 280 278 281
f 282 280 283
f 284 282 285
f 286 284 287
f 288 286 289
f 290 288 291
f 292 290 293
f 294 292 295
f 296 294 297
f 298 296 299
f 300 298 301
f 302 300 303
f 304 302 305
f 306 304 307
f 308 306 309
f 310 308 311
f 312 310 313
f 314 312 315
f 316 314 317
f 318 316 319
f 320 318 321
f 322 320 323
f 324 322 325
f 326 324 327
f 328 326 329
f 330 328 331
f 332 330 333
f 334 332 335
f 336 334 337
f 338 336 339
f 340 338 341
f 342 340 343
f 344 342 345
f 346 344 347
f 234 346 348
f 348 235 234
f 347 348 346
f 345 347 344
f 343 345 342
f 341 343 340
f 339 341 338
f 337 339 336
f 335 337 334
f 333 335 332
f 331 333 330
f 329 331 328
f 327 329 326
f 325 327 324
f 323 325 322
f 321 323 320
f 319 321 318
f 317 319 316
f 315 317 314
f 313 315 312
f 311 313 310
f 309 311 308
f 307 309 306
f 305 307 304
f 303 305 302
f 301 303 300
f 299 301 298
f 297 299 296
f 295 297 294
f 293 295 292
f 291 293 290
f 289 291 288
f 287 289 286
f 285 287 284
f 283 285 282
f 281 283 280
f 279 281 278
f 277 279 276
f 275 277 274
f 273 275 272
f 271 273 270
f 269 271 268
f 267 269 266
f 265 267 264
f 263 265 262
f 261 263 260
f 259 261 258
f 257 259 256
f 255 257 254
f 253 255 252
f 251 253 250
f 249 251 248
f 247 249 246
f 245 247 244
f 243 245 242
f 241 243 240
f 239 241 238
f 237 239 236
f 235 237 233
f 349 350 351
f 352 353 350
f 354 355 356
f 354 357 358
f 359 360 358
f 359 361 362
f 361 363 364
f 363 365 366
f 367 368 369
f 367 370 371
f 372 373 374
f 372 375 351
f 350 349 352
f 352 376 377
f 376 378 379
f 378 380 381
f 382 383 384
f 382 385 386
f 387 356 388
f 358 355 354
f 362 360 359
f 366 364 363
f 389 369 390
f 371 368 367
f 391 374 392
f 351 373 372
f 377 353 352
f 381 379 378
f 393 394 381
f 393 395 396
f 397 398 399
f 400 401 398
f 386 383 382
f 385 402 388
f 356 387 354
f 364 362 361
f 403 390 404
f 369 389 367
f 405 406 371
f 405 407 392
f 374 391 372
f 379 377 376
f 396 394 393
f 395 408 409
f 410 411 409
f 410 412 413
f 414 415 413
f 414 416 417
f 398 397 400
f 418 384 401
f 388 386 385
f 358 357 359
f 390 403 389
f 392 406 405
f 351 375 349
f 409 396 395
f 413 411 410
f 417 415 414
f 416 419 420
f 419 421 422
f 401 400 418
f 388 402 387
f 423 424 366
f 423 425 426
f 427 428 429
f 427 430 431
f 432 433 434
f 432 435 436
f 371 370 405
f 381 380 393
f 413 412 414
f 422 420 419
f 437 438 439
f 437 440 441
f 442 443 441
f 442 444 445
f 446 447 399
f 384 418 382
f 426 424 423
f 425 448 449
f 450 451 449
f 450 452 429
f 431 428 427
f 430 453 454
f 455 434 456
f 436 433 432
f 457 458 436
f 457 459 460
f 392 407 391
f 420 417 416
f 461 439 422
f 441 438 437
f 445 443 442
f 444 446 462
f 399 447 397
f 449 426 425
f 429 451 450
f 454 431 430
f 463 456 454
f 434 455 432
f 460 458 457
f 459 464 404
f 409 408 410
f 439 461 437
f 462 445 444
f 366 365 423
f 429 452 427
f 456 463 455
f 404 460 459
f 422 421 461
f 399 462 446
f 454 453 463
f 404 464 403
f 449 448 450
f 441 440 442
f 436 435 457
