v 0.006102541 0.005780634 0.00800000038
v 0.0043559731 0.00412619673 0.00800000038
v 0.00477655837 0.00363104534 0.00800000038
v 0.00544177089 0.00640654797 0.00800000038
v 0.00388431782 0.00457297219 0.00800000038
v 0.00720253214 0.00433361996 0.00800000038
v 0.00514114322 0.0030933232 0.00800000038
v 0.00544545241 0.00251933467 0.00800000038
v 0.00669176411 0.00508694677 0.00800000038
v 0.00471720146 0.0069573517 0.00800000038
v 0.0033671225 0.00496613421 0.00800000038
v 0.00393732684 0.00742658647 0.00800000038
v 0.00281045074 0.00530107226 0.00800000038
v 0.00311129098 0.00780875143 0.00800000038
v 0.00222082902 0.00557386037 0.00800000038
v 0.000455078436 0.00839342829 0.00800000038
v 0.00032483344 0.00599120045 0.00800000038
v 0.000970691966 0.00592095917 0.00800000038
v -0.000455078436 0.00839342829 0.00800000038
v -0.00032483344 0.00599120045 0.00800000038
v -0.00224877801 -0.00809936598 0.00800000038
v -0.00160517008 -0.0057812999 0.00800000038
v -0.00222082902 -0.00557386037 0.00800000038
v -0.00135989999 -0.00829502288 0.00800000038
v -0.000970691966 -0.00592095917 0.00800000038
v 0.00224877801 0.00809936598 0.00800000038
v 0.00160517008 0.0057812999 0.00800000038
v 0.00135989999 0.00829502288 0.00800000038
v -0.00135989999 0.00829502288 0.00800000038
v -0.000970691966 0.00592095917 0.00800000038
v -0.006102541 -0.005780634 0.00800000038
v -0.00544177089 -0.00640654797 0.00800000038
v -0.00388431782 -0.00457297219 0.00800000038
v -0.00471720146 -0.0069573517 0.00800000038
v -0.0033671225 -0.00496613421 0.00800000038
v -0.000455078436 -0.00839342829 0.00800000038
v -0.00032483344 -0.00599120045 0.00800000038
v -0.00224877801 0.00809936598 0.00800000038
v -0.00160517008 0.0057812999 0.00800000038
v -0.00796574168 -0.00268397061 0.00800000038
v -0.00568591896 -0.00191580923 0.00800000038
v -0.00585972331 -0.00128982263 0.00800000038
v -0.00762885762 -0.00352948532 0.00800000038
v -0.00544545241 -0.00251933467 0.00800000038
v -0.00393732684 -0.00742658647 0.00800000038
v -0.00281045074 -0.00530107226 0.00800000038
v -0.00311129098 -0.00780875143 0.00800000038
v 0.000455078436 -0.00839342829 0.00800000038
v 0.00032483344 -0.00599120045 0.00800000038
v 0.00135989999 -0.00829502288 0.00800000038
v 0.000970691966 -0.00592095917 0.00800000038
v 0.00224877801 -0.00809936598 0.00800000038
v 0.00160517008 -0.0057812999 0.00800000038
v 0.00311129098 -0.00780875143 0.00800000038
v 0.00222082902 -0.00557386037 0.00800000038
v 0.00669176411 -0.00508694677 0.00800000038
v 0.00477655837 -0.00363104534 0.00800000038
v 0.0043559731 -0.00412619673 0.00800000038
v 0.00720253214 -0.00433361996 0.00800000038
v 0.00514114322 -0.0030933232 0.00800000038
v 0.00796574168 0.00268397061 0.00800000038
v 0.00568591896 0.00191580923 0.00800000038
v 0.00585972331 0.00128982263 0.00800000038
v 0.00762885762 0.00352948532 0.00800000038
v -0.00311129098 0.00780875143 0.00800000038
v -0.00222082902 0.00557386037 0.00800000038
v -0.00393732684 0.00742658647 0.00800000038
v -0.00281045074 0.00530107226 0.00800000038
v -0.00544177089 0.00640654797 0.00800000038
v -0.006102541 0.005780634 0.00800000038
v -0.0043559731 0.00412619673 0.00800000038
v -0.00669176411 0.00508694677 0.00800000038
v -0.00477655837 0.00363104534 0.00800000038
v -0.00720253214 -0.00433361996 0.00800000038
v -0.00514114322 -0.0030933232 0.00800000038
v -0.00669176411 -0.00508694677 0.00800000038
v -0.00477655837 -0.00363104534 0.00800000038
v -0.0043559731 -0.00412619673 0.00800000038
v 0.00393732684 -0.00742658647 0.00800000038
v 0.00281045074 -0.00530107226 0.00800000038
v 0.00471720146 -0.0069573517 0.00800000038
v 0.0033671225 -0.00496613421 0.00800000038
v 0.00762885762 -0.00352948532 0.00800000038
v 0.00544545241 -0.00251933467 0.00800000038
v -0.00471720146 0.0069573517 0.00800000038
v -0.0033671225 0.00496613421 0.00800000038
v -0.00388431782 0.00457297219 0.00800000038
v -0.00720253214 0.00433361996 0.00800000038
v -0.00514114322 0.0030933232 0.00800000038
v -0.00762885762 0.00352948532 0.00800000038
v -0.00544545241 0.00251933467 0.00800000038
v -0.00796574168 0.00268397061 0.00800000038
v -0.00568591896 0.00191580923 0.00800000038
v -0.0082092341 0.00180698908 0.00800000038
v -0.00585972331 0.00128982263 0.00800000038
v -0.00835648086 0.000908822054 0.00800000038
v -0.00840575621 1.54411232e-18 0.00800000038
v -0.00600000005 3.67394027e-19 0.00800000038
v -0.00835648086 -0.000908822054 0.00800000038
v -0.00596482772 -0.000648714136 0.00800000038
v 0.00544177089 -0.00640654797 0.00800000038
v 0.00388431782 -0.00457297219 0.00800000038
v 0.00796574168 -0.00268397061 0.00800000038
v 0.00568591896 -0.00191580923 0.00800000038
v 0.0082092341 -0.00180698908 0.00800000038
v 0.00585972331 -0.00128982263 0.00800000038
v 0.00835648086 -0.000908822054 0.00800000038
v 0.00596482772 -0.000648714136 0.00800000038
v -0.00596482772 0.000648714136 0.00800000038
v -0.0082092341 -0.00180698908 0.00800000038
v 0.006102541 -0.005780634 0.00800000038
v 0.00840575621 5.14704089e-19 0.00800000038
v 0.00600000005 1.10218208e-18 0.00800000038
v 0.00835648086 0.000908822054 0.00800000038
v 0.00596482772 0.000648714136 0.00800000038
v 0.0082092341 0.00180698908 0.00800000038
v -0.00596482772 -0.000648714136 0
v -0.00600000005 3.67394027e-19 0
v -0.00600000005 3.67394027e-19 0.00800000038
v -0.00585972331 -0.00128982263 0
v -0.00596482772 -0.000648714136 0.00800000038
v -0.00568591896 -0.00191580923 0
v -0.00585972331 -0.00128982263 0.00800000038
v -0.00544545241 -0.00251933467 0
v -0.00568591896 -0.00191580923 0.00800000038
v -0.00514114322 -0.0030933232 0
v -0.00544545241 -0.00251933467 0.00800000038
v -0.00477655837 -0.00363104534 0
v -0.00514114322 -0.0030933232 0.00800000038
v -0.0043559731 -0.00412619673 0
v -0.00477655837 -0.00363104534 0.00800000038
v -0.00388431782 -0.00457297219 0
v -0.0043559731 -0.00412619673 0.00800000038
v -0.0033671225 -0.00496613421 0
v -0.00388431782 -0.00457297219 0.00800000038
v -0.00281045074 -0.00530107226 0
v -0.0033671225 -0.00496613421 0.00800000038
v -0.00222082902 -0.00557386037 0
v -0.00281045074 -0.00530107226 0.00800000038
v -0.00160517008 -0.0057812999 0
v -0.00222082902 -0.00557386037 0.00800000038
v -0.000970691966 -0.00592095917 0
v -0.00160517008 -0.0057812999 0.00800000038
v -0.00032483344 -0.00599120045 0
v -0.000970691966 -0.00592095917 0.00800000038
v 0.00032483344 -0.00599120045 0
v -0.00032483344 -0.00599120045 0.00800000038
v 0.000970691966 -0.00592095917 0
v 0.00032483344 -0.00599120045 0.00800000038
v 0.00160517008 -0.0057812999 0
v 0.000970691966 -0.00592095917 0.00800000038
v 0.00222082902 -0.00557386037 0
v 0.00160517008 -0.0057812999 0.00800000038
v 0.00281045074 -0.00530107226 0
v 0.00222082902 -0.00557386037 0.00800000038
v 0.0033671225 -0.00496613421 0
v 0.00281045074 -0.00530107226 0.00800000038
v 0.00388431782 -0.00457297219 0
v 0.0033671225 -0.00496613421 0.00800000038
v 0.0043559731 -0.00412619673 0
v 0.00388431782 -0.00457297219 0.00800000038
v 0.00477655837 -0.00363104534 0
v 0.0043559731 -0.00412619673 0.00800000038
v 0.00514114322 -0.0030933232 0
v 0.00477655837 -0.00363104534 0.00800000038
v 0.00544545241 -0.00251933467 0
v 0.00514114322 -0.0030933232 0.00800000038
v 0.00568591896 -0.00191580923 0
v 0.00544545241 -0.00251933467 0.00800000038
v 0.00585972331 -0.00128982263 0
v 0.00568591896 -0.00191580923 0.00800000038
v 0.00596482772 -0.000648714136 0
v 0.00585972331 -0.00128982263 0.00800000038
v 0.00600000005 2.57175829e-18 0
v 0.00596482772 -0.000648714136 0.00800000038
v 0.00596482772 0.000648714136 0
v 0.00600000005 1.10218208e-18 0.00800000038
v 0.00585972331 0.00128982263 0
v 0.00596482772 0.000648714136 0.00800000038
v 0.00568591896 0.00191580923 0
v 0.00585972331 0.00128982263 0.00800000038
v 0.00544545241 0.00251933467 0
v 0.00568591896 0.00191580923 0.00800000038
v 0.00514114322 0.0030933232 0
v 0.00544545241 0.00251933467 0.00800000038
v 0.00477655837 0.00363104534 0
v 0.00514114322 0.0030933232 0.00800000038
v 0.0043559731 0.00412619673 0
v 0.00477655837 0.00363104534 0.00800000038
v 0.00388431782 0.00457297219 0
v 0.0043559731 0.00412619673 0.00800000038
v 0.0033671225 0.00496613421 0
v 0.00388431782 0.00457297219 0.00800000038
v 0.00281045074 0.00530107226 0
v 0.0033671225 0.00496613421 0.00800000038
v 0.00222082902 0.00557386037 0
v 0.00281045074 0.00530107226 0.00800000038
v 0.00160517008 0.0057812999 0
v 0.00222082902 0.00557386037 0.00800000038
v 0.000970691966 0.00592095917 0
v 0.00160517008 0.0057812999 0.00800000038
v 0.00032483344 0.00599120045 0
v 0.000970691966 0.00592095917 0.00800000038
v -0.00032483344 0.00599120045 0
v 0.00032483344 0.00599120045 0.00800000038
v -0.000970691966 0.00592095917 0
v -0.00032483344 0.00599120045 0.00800000038
v -0.00160517008 0.0057812999 0
v -0.000970691966 0.00592095917 0.00800000038
v -0.00222082902 0.00557386037 0
v -0.00160517008 0.0057812999 0.00800000038
v -0.00281045074 0.00530107226 0
v -0.00222082902 0.00557386037 0.00800000038
v -0.0033671225 0.00496613421 0
v -0.00281045074 0.00530107226 0.00800000038
v -0.00388431782 0.00457297219 0
v -0.0033671225 0.00496613421 0.00800000038
v -0.0043559731 0.00412619673 0
v -0.00388431782 0.00457297219 0.00800000038
v -0.00477655837 0.00363104534 0
v -0.0043559731 0.00412619673 0.00800000038
v -0.00514114322 0.0030933232 0
v -0.00477655837 0.00363104534 0.00800000038
v -0.00544545241 0.00251933467 0
v -0.00514114322 0.0030933232 0.00800000038
v -0.00568591896 0.00191580923 0
v -0.00544545241 0.00251933467 0.00800000038
v -0.00585972331 0.00128982263 0
v -0.00568591896 0.00191580923 0.00800000038
v -0.00596482772 0.000648714136 0
v -0.00585972331 0.00128982263 0.00800000038
v -0.00596482772 0.000648714136 0.00800000038
v -0.00135989999 0.00829502288 0
v -0.000970691966 0.00592095917 0
v -0.00160517008 0.0057812999 0
v -0.000455078436 0.00839342829 0
v -0.00032483344 0.00599120045 0
v 0.000455078436 0.00839342829 0
v 0.00032483344 0.00599120045 0
v 0.00762885762 -0.00352948532 0
v 0.00544545241 -0.00251933467 0
v 0.00568591896 -0.00191580923 0
v 0.00720253214 -0.00433361996 0
v 0.00514114322 -0.0030933232 0
v 0.00669176411 -0.00508694677 0
v 0.00477655837 -0.00363104534 0
v 0.006102541 -0.005780634 0
v 0.0043559731 -0.00412619673 0
v 0.00224877801 -0.00809936598 0
v 0.00160517008 -0.0057812999 0
v 0.00222082902 -0.00557386037 0
v 0.00135989999 -0.00829502288 0
v 0.000970691966 -0.00592095917 0
v -0.00135989999 -0.00829502288 0
v -0.000970691966 -0.00592095917 0
v -0.00032483344 -0.00599120045 0
v -0.00224877801 -0.00809936598 0
v -0.00160517008 -0.0057812999 0
v -0.00796574168 0.00268397061 0
v -0.00568591896 0.00191580923 0
v -0.00585972331 0.00128982263 0
v -0.00762885762 0.00352948532 0
v -0.00544545241 0.00251933467 0
v -0.00720253214 0.00433361996 0
v -0.00514114322 0.0030933232 0
v -0.00669176411 0.00508694677 0
v -0.00477655837 0.00363104534 0
v -0.006102541 0.005780634 0
v -0.0043559731 0.00412619673 0
v -0.00544177089 0.00640654797 0
v -0.00388431782 0.00457297219 0
v 0.00135989999 0.00829502288 0
v 0.000970691966 0.00592095917 0
v 0.00224877801 0.00809936598 0
v 0.00160517008 0.0057812999 0
v 0.00311129098 0.00780875143 0
v 0.00222082902 0.00557386037 0
v 0.00835648086 0.000908822054 0
v 0.00596482772 0.000648714136 0
v 0.00585972331 0.00128982263 0
v 0.00840575621 1.54411232e-18 0
v 0.00600000005 2.57175829e-18 0
v 0.0082092341 -0.00180698908 0
v 0.00585972331 -0.00128982263 0
v 0.00596482772 -0.000648714136 0
v 0.00796574168 -0.00268397061 0
v 0.000455078436 -0.00839342829 0
v 0.00032483344 -0.00599120045 0
v -0.00311129098 -0.00780875143 0
v -0.00222082902 -0.00557386037 0
v -0.0082092341 0.00180698908 0
v -0.00596482772 0.000648714136 0
v 0.00393732684 0.00742658647 0
v 0.00281045074 0.00530107226 0
v 0.00471720146 0.0069573517 0
v 0.0033671225 0.00496613421 0
v 0.00544177089 0.00640654797 0
v 0.00388431782 0.00457297219 0
v 0.006102541 0.005780634 0
v 0.0043559731 0.00412619673 0
v 0.00835648086 -0.000908822054 0
v 0.00544177089 -0.00640654797 0
v 0.00388431782 -0.00457297219 0
v 0.00471720146 -0.0069573517 0
v 0.0033671225 -0.00496613421 0
v 0.00393732684 -0.00742658647 0
v 0.00281045074 -0.00530107226 0
v 0.00311129098 -0.00780875143 0
v -0.000455078436 -0.00839342829 0
v -0.00393732684 -0.00742658647 0
v -0.00281045074 -0.00530107226 0
v -0.00544177089 -0.00640654797 0
v -0.00388431782 -0.00457297219 0
v -0.0033671225 -0.00496613421 0
v -0.006102541 -0.005780634 0
v -0.0043559731 -0.00412619673 0
v -0.00840575621 5.14704089e-19 0
v -0.00835648086 0.000908822054 0
v -0.00471720146 0.0069573517 0
v -0.0033671225 0.00496613421 0
v -0.00393732684 0.00742658647 0
v -0.00281045074 0.00530107226 0
v -0.00311129098 0.00780875143 0
v -0.00222082902 0.00557386037 0
v 0.00669176411 0.00508694677 0
v 0.00477655837 0.00363104534 0
v -0.00471720146 -0.0069573517 0
v -0.00796574168 -0.00268397061 0
v -0.00568591896 -0.00191580923 0
v -0.00544545241 -0.00251933467 0
v -0.0082092341 -0.00180698908 0
v -0.00585972331 -0.00128982263 0
v -0.00224877801 0.00809936598 0
v 0.00720253214 0.00433361996 0
v 0.00514114322 0.0030933232 0
v 0.00762885762 0.00352948532 0
v 0.00544545241 0.00251933467 0
v -0.00669176411 -0.00508694677 0
v -0.00477655837 -0.00363104534 0
v -0.00720253214 -0.00433361996 0
v -0.00514114322 -0.0030933232 0
v -0.00762885762 -0.00352948532 0
v 0.00796574168 0.00268397061 0
v 0.00568591896 0.00191580923 0
v 0.0082092341 0.00180698908 0
v -0.00835648086 -0.000908822054 0
v -0.00596482772 -0.000648714136 0
v -0.00600000005 3.67394027e-19 0
v -0.00840575621 5.14704089e-19 0
v -0.00840575621 5.14704089e-19 0.00100000005
v -0.00835648086 0.000908822054 0.00100000005
v -0.00835648086 0.000908822054 0
v -0.0082092341 0.00180698908 0.00100000005
v -0.0082092341 0.00180698908 0
v -0.00796574168 0.00268397061 0.00100000005
v -0.00796574168 0.00268397061 0
v -0.00762885762 0.00352948532 0.00100000005
v -0.00762885762 0.00352948532 0
v -0.00720253214 0.00433361996 0.00100000005
v -0.00720253214 0.00433361996 0
v -0.00669176411 0.00508694677 0.00100000005
v -0.00669176411 0.00508694677 0
v -0.006102541 0.005780634 0.00100000005
v -0.006102541 0.005780634 0
v -0.00544177089 0.00640654797 0.00100000005
v -0.00544177089 0.00640654797 0
v -0.00471720146 0.0069573517 0.00100000005
v -0.00471720146 0.0069573517 0
v -0.00393732684 0.00742658647 0.00100000005
v -0.00393732684 0.00742658647 0
v -0.00311129098 0.00780875143 0.00100000005
v -0.00311129098 0.00780875143 0
v -0.00224877801 0.00809936598 0.00100000005
v -0.00224877801 0.00809936598 0
v -0.00135989999 0.00829502288 0.00100000005
v -0.00135989999 0.00829502288 0
v -0.000455078436 0.00839342829 0.00100000005
v -0.000455078436 0.00839342829 0
v 0.000455078436 0.00839342829 0.00100000005
v 0.000455078436 0.00839342829 0
v 0.00135989999 0.00829502288 0.00100000005
v 0.00135989999 0.00829502288 0
v 0.00224877801 0.00809936598 0.00100000005
v 0.00224877801 0.00809936598 0
v 0.00311129098 0.00780875143 0.00100000005
v 0.00311129098 0.00780875143 0
v 0.00393732684 0.00742658647 0.00100000005
v 0.00393732684 0.00742658647 0
v 0.00471720146 0.0069573517 0.00100000005
v 0.00471720146 0.0069573517 0
v 0.00544177089 0.00640654797 0.00100000005
v 0.00544177089 0.00640654797 0
v 0.006102541 0.005780634 0.00100000005
v 0.006102541 0.005780634 0
v 0.00669176411 0.00508694677 0.00100000005
v 0.00669176411 0.00508694677 0
v 0.00720253214 0.00433361996 0.00100000005
v 0.00720253214 0.00433361996 0
v 0.00762885762 0.00352948532 0.00100000005
v 0.00762885762 0.00352948532 0
v 0.00796574168 0.00268397061 0.00100000005
v 0.00796574168 0.00268397061 0
v 0.0082092341 0.00180698908 0.00100000005
v 0.0082092341 0.00180698908 0
v 0.00835648086 0.000908822054 0.00100000005
v 0.00835648086 0.000908822054 0
v 0.00840575621 3.60292867e-18 0.00100000005
v 0.00840575621 1.54411232e-18 0
v 0.00835648086 -0.000908822054 0.00100000005
v 0.00835648086 -0.000908822054 0
v 0.0082092341 -0.00180698908 0.00100000005
v 0.0082092341 -0.00180698908 0
v 0.00796574168 -0.00268397061 0.00100000005
v 0.00796574168 -0.00268397061 0
v 0.00762885762 -0.00352948532 0.00100000005
v 0.00762885762 -0.00352948532 0
v 0.00720253214 -0.00433361996 0.00100000005
v 0.00720253214 -0.00433361996 0
v 0.00669176411 -0.00508694677 0.00100000005
v 0.00669176411 -0.00508694677 0
v 0.006102541 -0.005780634 0.00100000005
v 0.006102541 -0.005780634 0
v 0.00544177089 -0.00640654797 0.00100000005
v 0.00544177089 -0.00640654797 0
v 0.00471720146 -0.0069573517 0.00100000005
v 0.00471720146 -0.0069573517 0
v 0.00393732684 -0.00742658647 0.00100000005
v 0.00393732684 -0.00742658647 0
v 0.00311129098 -0.00780875143 0.00100000005
v 0.00311129098 -0.00780875143 0
v 0.00224877801 -0.00809936598 0.00100000005
v 0.00224877801 -0.00809936598 0
v 0.00135989999 -0.00829502288 0.00100000005
v 0.00135989999 -0.00829502288 0
v 0.000455078436 -0.00839342829 0.00100000005
v 0.000455078436 -0.00839342829 0
v -0.000455078436 -0.00839342829 0.00100000005
v -0.000455078436 -0.00839342829 0
v -0.00135989999 -0.00829502288 0.00100000005
v -0.00135989999 -0.00829502288 0
v -0.00224877801 -0.00809936598 0.00100000005
v -0.00224877801 -0.00809936598 0
v -0.00311129098 -0.00780875143 0.00100000005
v -0.00311129098 -0.00780875143 0
v -0.00393732684 -0.00742658647 0.00100000005
v -0.00393732684 -0.00742658647 0
v -0.00471720146 -0.0069573517 0.00100000005
v -0.00471720146 -0.0069573517 0
v -0.00544177089 -0.00640654797 0.00100000005
v -0.00544177089 -0.00640654797 0
v -0.006102541 -0.005780634 0.00100000005
v -0.006102541 -0.005780634 0
v -0.00669176411 -0.00508694677 0.00100000005
v -0.00669176411 -0.00508694677 0
v -0.00720253214 -0.00433361996 0.00100000005
v -0.00720253214 -0.00433361996 0
v -0.00762885762 -0.00352948532 0.00100000005
v -0.00762885762 -0.00352948532 0
v -0.00796574168 -0.00268397061 0.00100000005
v -0.00796574168 -0.00268397061 0
v -0.0082092341 -0.00180698908 0.00100000005
v -0.0082092341 -0.00180698908 0
v -0.00835648086 -0.000908822054 0.00100000005
v -0.00835648086 -0.000908822054 0
v -0.00476437388 0.0119576771 0.00100000005
v -0.00311129098 0.00780875143 0.00100000005
v -0.00393732684 0.00742658647 0.00100000005
v -0.00344359269 0.0124027003 0.00100000005
v -0.00224877801 0.00809936598 0.00100000005
v -0.000696869567 0.0128530022 0.00100000005
v -0.000455078436 0.00839342829 0.00100000005
v -0.00135989999 0.00829502288 0.00100000005
v 0.000696869567 0.0128530022 0.00100000005
v 0.000455078436 0.00839342829 0.00100000005
v -0.00208243844 0.0127023123 0.00100000005
v 0.00208243844 0.0127023123 0.00100000005
v 0.00135989999 0.00829502288 0.00100000005
v -0.00934492704 0.00885198452 0.00100000005
v -0.006102541 0.005780634 0.00100000005
v -0.00669176411 0.00508694677 0.00100000005
v -0.00833307859 0.00981045887 0.00100000005
v -0.00544177089 0.00640654797 0.00100000005
v 0.00344359269 0.0124027003 0.00100000005
v 0.00224877801 0.00809936598 0.00100000005
v -0.0110293627 0.00663614739 0.00100000005
v -0.00720253214 0.00433361996 0.00100000005
v -0.00762885762 0.00352948532 0.00100000005
v -0.0102472147 0.00778973009 0.00100000005
v -0.00722353254 0.010653914 0.00100000005
v -0.00471720146 0.0069573517 0.00100000005
v 0.00476437388 0.0119576771 0.00100000005
v 0.00311129098 0.00780875143 0.00100000005
v 0.00602929713 0.011372461 0.00100000005
v 0.00393732684 0.00742658647 0.00100000005
v 0.00722353254 0.010653914 0.00100000005
v 0.00471720146 0.0069573517 0.00100000005
v -0.0121980784 0.00411001081 0.00100000005
v -0.00796574168 0.00268397061 0.00100000005
v -0.0082092341 0.00180698908 0.00100000005
v -0.0116822021 0.00540476199 0.00100000005
v 0.00602929713 -0.011372461 0.00100000005
v 0.00393732684 -0.00742658647 0.00100000005
v 0.00471720146 -0.0069573517 0.00100000005
v 0.00476437388 -0.0119576771 0.00100000005
v 0.00311129098 -0.00780875143 0.00100000005
v -0.00602929713 0.011372461 0.00100000005
v 0.00344359269 -0.0124027003 0.00100000005
v 0.00224877801 -0.00809936598 0.00100000005
v 0.00833307859 0.00981045887 0.00100000005
v 0.00544177089 0.00640654797 0.00100000005
v 0.00934492704 0.00885198452 0.00100000005
v 0.006102541 0.005780634 0.00100000005
v 0.0102472147 0.00778973009 0.00100000005
v 0.00669176411 0.00508694677 0.00100000005
v 0.0110293627 0.00663614739 0.00100000005
v 0.00720253214 0.00433361996 0.00100000005
v 0.00833307859 -0.00981045887 0.00100000005
v 0.00544177089 -0.00640654797 0.00100000005
v 0.006102541 -0.005780634 0.00100000005
v 0.00722353254 -0.010653914 0.00100000005
v 0.00208243844 -0.0127023123 0.00100000005
v 0.00135989999 -0.00829502288 0.00100000005
v -0.000696869567 -0.0128530022 0.00100000005
v -0.000455078436 -0.00839342829 0.00100000005
v 0.000455078436 -0.00839342829 0.00100000005
v -0.00208243844 -0.0127023123 0.00100000005
v -0.00135989999 -0.00829502288 0.00100000005
v -0.00602929713 -0.011372461 0.00100000005
v -0.00393732684 -0.00742658647 0.00100000005
v -0.00311129098 -0.00780875143 0.00100000005
v -0.00722353254 -0.010653914 0.00100000005
v -0.00471720146 -0.0069573517 0.00100000005
v -0.00833307859 -0.00981045887 0.00100000005
v -0.00544177089 -0.00640654797 0.00100000005
v -0.00934492704 -0.00885198452 0.00100000005
v -0.006102541 -0.005780634 0.00100000005
v 0.0116822021 0.00540476199 0.00100000005
v 0.00762885762 0.00352948532 0.00100000005
v 0.000696869567 -0.0128530022 0.00100000005
v -0.00476437388 -0.0119576771 0.00100000005
v -0.00224877801 -0.00809936598 0.00100000005
v -0.0102472147 -0.00778973009 0.00100000005
v -0.00669176411 -0.00508694677 0.00100000005
v -0.0110293627 -0.00663614739 0.00100000005
v -0.00720253214 -0.00433361996 0.00100000005
v -0.0116822021 -0.00540476199 0.00100000005
v -0.00762885762 -0.00352948532 0.00100000005
v 0.0121980784 0.00411001081 0.00100000005
v 0.00796574168 0.00268397061 0.00100000005
v 0.0125709428 0.00276707369 0.00100000005
v 0.0082092341 0.00180698908 0.00100000005
v 0.0110293627 -0.00663614739 0.00100000005
v 0.0102472147 -0.00778973009 0.00100000005
v 0.00669176411 -0.00508694677 0.00100000005
v 0.00934492704 -0.00885198452 0.00100000005
v -0.00344359269 -0.0124027003 0.00100000005
v -0.0121980784 -0.00411001081 0.00100000005
v -0.00796574168 -0.00268397061 0.00100000005
v -0.0125709428 -0.00276707369 0.00100000005
v -0.0082092341 -0.00180698908 0.00100000005
v -0.0127964243 0.001391695 0.00100000005
v -0.00835648086 0.000908822054 0.00100000005
v -0.00840575621 5.14704089e-19 0.00100000005
v -0.0125709428 0.00276707369 0.00100000005
v 0.0127964243 0.001391695 0.00100000005
v 0.00835648086 0.000908822054 0.00100000005
v 0.0128718801 2.36452597e-18 0.00100000005
v 0.00840575621 3.60292867e-18 0.00100000005
v 0.0127964243 -0.001391695 0.00100000005
v 0.00835648086 -0.000908822054 0.00100000005
v 0.0125709428 -0.00276707369 0.00100000005
v 0.0082092341 -0.00180698908 0.00100000005
v 0.0121980784 -0.00411001081 0.00100000005
v 0.00796574168 -0.00268397061 0.00100000005
v 0.0116822021 -0.00540476199 0.00100000005
v 0.00762885762 -0.00352948532 0.00100000005
v 0.00720253214 -0.00433361996 0.00100000005
v -0.0127964243 -0.001391695 0.00100000005
v -0.00835648086 -0.000908822054 0.00100000005
v -0.0128718801 7.88175324e-19 0.00100000005
v -0.0127964243 -0.001391695 0
v -0.0128718801 7.88175324e-19 0
v -0.0128718801 7.88175324e-19 0.00100000005
v -0.0125709428 -0.00276707369 0
v -0.0127964243 -0.001391695 0.00100000005
v -0.0121980784 -0.00411001081 0
v -0.0125709428 -0.00276707369 0.00100000005
v -0.0116822021 -0.00540476199 0
v -0.0121980784 -0.00411001081 0.00100000005
v -0.0110293627 -0.00663614739 0
v -0.0116822021 -0.00540476199 0.00100000005
v -0.0102472147 -0.00778973009 0
v -0.0110293627 -0.00663614739 0.00100000005
v -0.00934492704 -0.00885198452 0
v -0.0102472147 -0.00778973009 0.00100000005
v -0.00833307859 -0.00981045887 0
v -0.00934492704 -0.00885198452 0.00100000005
v -0.00722353254 -0.010653914 0
v -0.00833307859 -0.00981045887 0.00100000005
v -0.00602929713 -0.011372461 0
v -0.00722353254 -0.010653914 0.00100000005
v -0.00476437388 -0.0119576771 0
v -0.00602929713 -0.011372461 0.00100000005
v -0.00344359269 -0.0124027003 0
v -0.00476437388 -0.0119576771 0.00100000005
v -0.00208243844 -0.0127023123 0
v -0.00344359269 -0.0124027003 0.00100000005
v -0.000696869567 -0.0128530022 0
v -0.00208243844 -0.0127023123 0.00100000005
v 0.000696869567 -0.0128530022 0
v -0.000696869567 -0.0128530022 0.00100000005
v 0.00208243844 -0.0127023123 0
v 0.000696869567 -0.0128530022 0.00100000005
v 0.00344359269 -0.0124027003 0
v 0.00208243844 -0.0127023123 0.00100000005
v 0.00476437388 -0.0119576771 0
v 0.00344359269 -0.0124027003 0.00100000005
v 0.00602929713 -0.011372461 0
v 0.00476437388 -0.0119576771 0.00100000005
v 0.00722353254 -0.010653914 0
v 0.00602929713 -0.011372461 0.00100000005
v 0.00833307859 -0.00981045887 0
v 0.00722353254 -0.010653914 0.00100000005
v 0.00934492704 -0.00885198452 0
v 0.00833307859 -0.00981045887 0.00100000005
v 0.0102472147 -0.00778973009 0
v 0.00934492704 -0.00885198452 0.00100000005
v 0.0110293627 -0.00663614739 0
v 0.0102472147 -0.00778973009 0.00100000005
v 0.0116822021 -0.00540476199 0
v 0.0110293627 -0.00663614739 0.00100000005
v 0.0121980784 -0.00411001081 0
v 0.0116822021 -0.00540476199 0.00100000005
v 0.0125709428 -0.00276707369 0
v 0.0121980784 -0.00411001081 0.00100000005
v 0.0127964243 -0.001391695 0
v 0.0125709428 -0.00276707369 0.00100000005
v 0.0128718801 5.51722727e-18 0
v 0.0127964243 -0.001391695 0.00100000005
v 0.0127964243 0.001391695 0
v 0.0128718801 2.36452597e-18 0.00100000005
v 0.0125709428 0.00276707369 0
v 0.0127964243 0.001391695 0.00100000005
v 0.0121980784 0.00411001081 0
v 0.0125709428 0.00276707369 0.00100000005
v 0.0116822021 0.00540476199 0
v 0.0121980784 0.00411001081 0.00100000005
v 0.0110293627 0.00663614739 0
v 0.0116822021 0.00540476199 0.00100000005
v 0.0102472147 0.00778973009 0
v 0.0110293627 0.00663614739 0.00100000005
v 0.00934492704 0.00885198452 0
v 0.0102472147 0.00778973009 0.00100000005
v 0.00833307859 0.00981045887 0
v 0.00934492704 0.00885198452 0.00100000005
v 0.00722353254 0.010653914 0
v 0.00833307859 0.00981045887 0.00100000005
v 0.00602929713 0.011372461 0
v 0.00722353254 0.010653914 0.00100000005
v 0.00476437388 0.0119576771 0
v 0.00602929713 0.011372461 0.00100000005
v 0.00344359269 0.0124027003 0
v 0.00476437388 0.0119576771 0.00100000005
v 0.00208243844 0.0127023123 0
v 0.00344359269 0.0124027003 0.00100000005
v 0.000696869567 0.0128530022 0
v 0.00208243844 0.0127023123 0.00100000005
v -0.000696869567 0.0128530022 0
v 0.000696869567 0.0128530022 0.00100000005
v -0.00208243844 0.0127023123 0
v -0.000696869567 0.0128530022 0.00100000005
v -0.00344359269 0.0124027003 0
v -0.00208243844 0.0127023123 0.00100000005
v -0.00476437388 0.0119576771 0
v -0.00344359269 0.0124027003 0.00100000005
v -0.00602929713 0.011372461 0
v -0.00476437388 0.0119576771 0.00100000005
v -0.00722353254 0.010653914 0
v -0.00602929713 0.011372461 0.00100000005
v -0.00833307859 0.00981045887 0
v -0.00722353254 0.010653914 0.00100000005
v -0.00934492704 0.00885198452 0
v -0.00833307859 0.00981045887 0.00100000005
v -0.0102472147 0.00778973009 0
v -0.00934492704 0.00885198452 0.00100000005
v -0.0110293627 0.00663614739 0
v -0.0102472147 0.00778973009 0.00100000005
v -0.0116822021 0.00540476199 0
v -0.0110293627 0.00663614739 0.00100000005
v -0.0121980784 0.00411001081 0
v -0.0116822021 0.00540476199 0.00100000005
v -0.0125709428 0.00276707369 0
v -0.0121980784 0.00411001081 0.00100000005
v -0.0127964243 0.001391695 0
v -0.0125709428 0.00276707369 0.00100000005
v -0.0127964243 0.001391695 0.00100000005
v 0.0101639368 -0.00962779205 0
v 0.00906340778 -0.0106702689 0
v 0.00833307859 -0.00981045887 0
v 0.00785661861 -0.0115876459 0
v 0.00722353254 -0.010653914 0
v 0.00655771839 -0.0123691689 0
v 0.00602929713 -0.011372461 0
v 0.0139179314 -0.00151366624 0
v 0.0127964243 -0.001391695 0
v 0.0128718801 5.51722727e-18 0
v 0.013672688 -0.00300958613 0
v 0.0125709428 -0.00276707369 0
v 0.00518193422 -0.0130056739 0
v 0.00476437388 -0.0119576771 0
v -0.00655771839 -0.0123691689 0
v -0.00602929713 -0.011372461 0
v -0.00476437388 -0.0119576771 0
v -0.00785661861 -0.0115876459 0
v -0.00722353254 -0.010653914 0
v -0.0101639368 -0.00962779205 0
v -0.00934492704 -0.00885198452 0
v -0.00833307859 -0.00981045887 0
v -0.011145303 -0.0084724389 0
v -0.0102472147 -0.00778973009 0
v -0.00226494786 0.0138155716 0
v -0.00208243844 0.0127023123 0
v -0.00344359269 0.0124027003 0
v -0.000757944712 0.0139794676 0
v -0.000696869567 0.0128530022 0
v 0.0132671446 -0.00447022123 0
v 0.0121980784 -0.00411001081 0
v 0.0127060562 -0.00587844756 0
v 0.0116822021 -0.00540476199 0
v 0.0119960001 -0.00721775414 0
v 0.0110293627 -0.00663614739 0
v 0.00374539685 -0.0134896999 0
v 0.00344359269 -0.0124027003 0
v 0.00226494786 -0.0138155716 0
v 0.00208243844 -0.0127023123 0
v 0.000757944712 -0.0139794676 0
v 0.000696869567 -0.0128530022 0
v -0.00518193422 -0.0130056739 0
v -0.00344359269 -0.0124027003 0
v -0.0119960001 -0.00721775414 0
v -0.0110293627 -0.00663614739 0
v 0.000757944712 0.0139794676 0
v 0.000696869567 0.0128530022 0
v 0.00226494786 0.0138155716 0
v 0.00208243844 0.0127023123 0
v 0.00374539685 0.0134896999 0
v 0.00344359269 0.0124027003 0
v 0.011145303 -0.0084724389 0
v 0.0102472147 -0.00778973009 0
v 0.00934492704 -0.00885198452 0
v -0.00226494786 -0.0138155716 0
v -0.00208243844 -0.0127023123 0
v -0.000696869567 -0.0128530022 0
v -0.00374539685 -0.0134896999 0
v -0.00906340778 -0.0106702689 0
v -0.0127060562 -0.00587844756 0
v -0.0116822021 -0.00540476199 0
v -0.0132671446 -0.00447022123 0
v -0.0121980784 -0.00411001081 0
v -0.013672688 -0.00300958613 0
v -0.0125709428 -0.00276707369 0
v 0.00906340778 0.0106702689 0
v 0.00833307859 0.00981045887 0
v 0.00722353254 0.010653914 0
v 0.0101639368 0.00962779205 0
v 0.00934492704 0.00885198452 0
v 0.011145303 0.0084724389 0
v 0.0102472147 0.00778973009 0
v 0.0119960001 0.00721775414 0
v 0.0110293627 0.00663614739 0
v -0.000757944712 -0.0139794676 0
v -0.011145303 0.0084724389 0
v -0.0102472147 0.00778973009 0
v -0.0110293627 0.00663614739 0
v -0.0101639368 0.00962779205 0
v -0.00934492704 0.00885198452 0
v 0.00518193422 0.0130056739 0
v 0.00476437388 0.0119576771 0
v 0.00655771839 0.0123691689 0
v 0.00602929713 0.011372461 0
v 0.00785661861 0.0115876459 0
v -0.0139179314 0.00151366624 0
v -0.0127964243 0.001391695 0
v -0.0128718801 7.88175324e-19 0
v -0.013672688 0.00300958613 0
v -0.0125709428 0.00276707369 0
v -0.0132671446 0.00447022123 0
v -0.0121980784 0.00411001081 0
v -0.0127060562 0.00587844756 0
v -0.0116822021 0.00540476199 0
v -0.0119960001 0.00721775414 0
v -0.00906340778 0.0106702689 0
v -0.00833307859 0.00981045887 0
v -0.00785661861 0.0115876459 0
v -0.00722353254 0.010653914 0
v 0.0127060562 0.00587844756 0
v 0.0116822021 0.00540476199 0
v 0.0139179314 0.00151366624 0
v 0.0127964243 0.001391695 0
v 0.0125709428 0.00276707369 0
v 0.0140000004 2.57175829e-18 0
v -0.00518193422 0.0130056739 0
v -0.00476437388 0.0119576771 0
v -0.00602929713 0.011372461 0
v -0.00374539685 0.0134896999 0
v 0.0132671446 0.00447022123 0
v 0.0121980784 0.00411001081 0
v 0.013672688 0.00300958613 0
v -0.0139179314 -0.00151366624 0
v -0.0127964243 -0.001391695 0
v -0.0140000004 8.57252764e-19 0
v -0.00655771839 0.0123691689 0
v -0.0140000004 8.57252764e-19 0
v -0.0140000004 8.57252764e-19 0.00800000038
v -0.0139179314 0.00151366624 0.00800000038
v -0.0139179314 0.00151366624 0
v -0.013672688 0.00300958613 0.00800000038
v -0.013672688 0.00300958613 0
v -0.0132671446 0.00447022123 0.00800000038
v -0.0132671446 0.00447022123 0
v -0.0127060562 0.00587844756 0.00800000038
v -0.0127060562 0.00587844756 0
v -0.0119960001 0.00721775414 0.00800000038
v -0.0119960001 0.00721775414 0
v -0.011145303 0.0084724389 0.00800000038
v -0.011145303 0.0084724389 0
v -0.0101639368 0.00962779205 0.00800000038
v -0.0101639368 0.00962779205 0
v -0.00906340778 0.0106702689 0.00800000038
v -0.00906340778 0.0106702689 0
v -0.00785661861 0.0115876459 0.00800000038
v -0.00785661861 0.0115876459 0
v -0.00655771839 0.0123691689 0.00800000038
v -0.00655771839 0.0123691689 0
v -0.00518193422 0.0130056739 0.00800000038
v -0.00518193422 0.0130056739 0
v -0.00374539685 0.0134896999 0.00800000038
v -0.00374539685 0.0134896999 0
v -0.00226494786 0.0138155716 0.00800000038
v -0.00226494786 0.0138155716 0
v -0.000757944712 0.0139794676 0.00800000038
v -0.000757944712 0.0139794676 0
v 0.000757944712 0.0139794676 0.00800000038
v 0.000757944712 0.0139794676 0
v 0.00226494786 0.0138155716 0.00800000038
v 0.00226494786 0.0138155716 0
v 0.00374539685 0.0134896999 0.00800000038
v 0.00374539685 0.0134896999 0
v 0.00518193422 0.0130056739 0.00800000038
v 0.00518193422 0.0130056739 0
v 0.00655771839 0.0123691689 0.00800000038
v 0.00655771839 0.0123691689 0
v 0.00785661861 0.0115876459 0.00800000038
v 0.00785661861 0.0115876459 0
v 0.00906340778 0.0106702689 0.00800000038
v 0.00906340778 0.0106702689 0
v 0.0101639368 0.00962779205 0.00800000038
v 0.0101639368 0.00962779205 0
v 0.011145303 0.0084724389 0.00800000038
v 0.011145303 0.0084724389 0
v 0.0119960001 0.00721775414 0.00800000038
v 0.0119960001 0.00721775414 0
v 0.0127060562 0.00587844756 0.00800000038
v 0.0127060562 0.00587844756 0
v 0.0132671446 0.00447022123 0.00800000038
v 0.0132671446 0.00447022123 0
v 0.013672688 0.00300958613 0.00800000038
v 0.013672688 0.00300958613 0
v 0.0139179314 0.00151366624 0.00800000038
v 0.0139179314 0.00151366624 0
v 0.0140000004 6.00076935e-18 0.00800000038
v 0.0140000004 2.57175829e-18 0
v 0.0139179314 -0.00151366624 0.00800000038
v 0.0139179314 -0.00151366624 0
v 0.013672688 -0.00300958613 0.00800000038
v 0.013672688 -0.00300958613 0
v 0.0132671446 -0.00447022123 0.00800000038
v 0.0132671446 -0.00447022123 0
v 0.0127060562 -0.00587844756 0.00800000038
v 0.0127060562 -0.00587844756 0
v 0.0119960001 -0.00721775414 0.00800000038
v 0.0119960001 -0.00721775414 0
v 0.011145303 -0.0084724389 0.00800000038
v 0.011145303 -0.0084724389 0
v 0.0101639368 -0.00962779205 0.00800000038
v 0.0101639368 -0.00962779205 0
v 0.00906340778 -0.0106702689 0.00800000038
v 0.00906340778 -0.0106702689 0
v 0.00785661861 -0.0115876459 0.00800000038
v 0.00785661861 -0.0115876459 0
v 0.00655771839 -0.0123691689 0.00800000038
v 0.00655771839 -0.0123691689 0
v 0.00518193422 -0.0130056739 0.00800000038
v 0.00518193422 -0.0130056739 0
v 0.00374539685 -0.0134896999 0.00800000038
v 0.00374539685 -0.0134896999 0
v 0.00226494786 -0.0138155716 0.00800000038
v 0.00226494786 -0.0138155716 0
v 0.000757944712 -0.0139794676 0.00800000038
v 0.000757944712 -0.0139794676 0
v -0.000757944712 -0.0139794676 0.00800000038
v -0.000757944712 -0.0139794676 0
v -0.00226494786 -0.0138155716 0.00800000038
v -0.00226494786 -0.0138155716 0
v -0.00374539685 -0.0134896999 0.00800000038
v -0.00374539685 -0.0134896999 0
v -0.00518193422 -0.0130056739 0.00800000038
v -0.00518193422 -0.0130056739 0
v -0.00655771839 -0.0123691689 0.00800000038
v -0.00655771839 -0.0123691689 0
v -0.00785661861 -0.0115876459 0.00800000038
v -0.00785661861 -0.0115876459 0
v -0.00906340778 -0.0106702689 0.00800000038
v -0.00906340778 -0.0106702689 0
v -0.0101639368 -0.00962779205 0.00800000038
v -0.0101639368 -0.00962779205 0
v -0.011145303 -0.0084724389 0.00800000038
v -0.011145303 -0.0084724389 0
v -0.0119960001 -0.00721775414 0.00800000038
v -0.0119960001 -0.00721775414 0
v -0.0127060562 -0.00587844756 0.00800000038
v -0.0127060562 -0.00587844756 0
v -0.0132671446 -0.00447022123 0.00800000038
v -0.0132671446 -0.00447022123 0
v -0.013672688 -0.00300958613 0.00800000038
v -0.013672688 -0.00300958613 0
v -0.0139179314 -0.00151366624 0.00800000038
v -0.0139179314 -0.00151366624 0
v -0.00906340778 -0.0106702689 0.00800000038
v -0.00833307859 -0.00981045887 0.00800000038
v -0.00934492704 -0.00885198452 0.00800000038
v -0.00785661861 -0.0115876459 0.00800000038
v -0.00722353254 -0.010653914 0.00800000038
v -0.00655771839 -0.0123691689 0.00800000038
v -0.00602929713 -0.011372461 0.00800000038
v -0.0139179314 -0.00151366624 0.00800000038
v -0.0127964243 -0.001391695 0.00800000038
v -0.0128718801 2.36452597e-18 0.00800000038
v -0.013672688 -0.00300958613 0.00800000038
v -0.0125709428 -0.00276707369 0.00800000038
v -0.00518193422 -0.0130056739 0.00800000038
v -0.00476437388 -0.0119576771 0.00800000038
v 0.00518193422 -0.0130056739 0.00800000038
v 0.00655771839 -0.0123691689 0.00800000038
v 0.00602929713 -0.011372461 0.00800000038
v 0.00785661861 -0.0115876459 0.00800000038
v 0.00722353254 -0.010653914 0.00800000038
v 0.0101639368 -0.00962779205 0.00800000038
v 0.00934492704 -0.00885198452 0.00800000038
v 0.00833307859 -0.00981045887 0.00800000038
v 0.011145303 -0.0084724389 0.00800000038
v 0.0102472147 -0.00778973009 0.00800000038
v 0.00226494786 0.0138155716 0.00800000038
v 0.00208243844 0.0127023123 0.00800000038
v 0.00344359269 0.0124027003 0.00800000038
v 0.000757944712 0.0139794676 0.00800000038
v 0.000696869567 0.0128530022 0.00800000038
v -0.0132671446 -0.00447022123 0.00800000038
v -0.0121980784 -0.00411001081 0.00800000038
v -0.0127060562 -0.00587844756 0.00800000038
v -0.0116822021 -0.00540476199 0.00800000038
v -0.0119960001 -0.00721775414 0.00800000038
v -0.0110293627 -0.00663614739 0.00800000038
v -0.00374539685 -0.0134896999 0.00800000038
v -0.00344359269 -0.0124027003 0.00800000038
v -0.00226494786 -0.0138155716 0.00800000038
v -0.00208243844 -0.0127023123 0.00800000038
v -0.000757944712 -0.0139794676 0.00800000038
v -0.000696869567 -0.0128530022 0.00800000038
v 0.00476437388 -0.0119576771 0.00800000038
v 0.00344359269 -0.0124027003 0.00800000038
v 0.0119960001 -0.00721775414 0.00800000038
v 0.0110293627 -0.00663614739 0.00800000038
v -0.000757944712 0.0139794676 0.00800000038
v -0.000696869567 0.0128530022 0.00800000038
v -0.00226494786 0.0138155716 0.00800000038
v -0.00208243844 0.0127023123 0.00800000038
v -0.00374539685 0.0134896999 0.00800000038
v -0.00344359269 0.0124027003 0.00800000038
v -0.011145303 -0.0084724389 0.00800000038
v -0.0102472147 -0.00778973009 0.00800000038
v -0.0101639368 -0.00962779205 0.00800000038
v 0.00226494786 -0.0138155716 0.00800000038
v 0.00208243844 -0.0127023123 0.00800000038
v 0.000696869567 -0.0128530022 0.00800000038
v 0.00374539685 -0.0134896999 0.00800000038
v 0.00906340778 -0.0106702689 0.00800000038
v 0.0127060562 -0.00587844756 0.00800000038
v 0.0116822021 -0.00540476199 0.00800000038
v 0.0132671446 -0.00447022123 0.00800000038
v 0.0121980784 -0.00411001081 0.00800000038
v 0.013672688 -0.00300958613 0.00800000038
v 0.0125709428 -0.00276707369 0.00800000038
v -0.00785661861 0.0115876459 0.00800000038
v -0.00906340778 0.0106702689 0.00800000038
v -0.00833307859 0.00981045887 0.00800000038
v -0.0101639368 0.00962779205 0.00800000038
v -0.00934492704 0.00885198452 0.00800000038
v -0.011145303 0.0084724389 0.00800000038
v -0.0102472147 0.00778973009 0.00800000038
v -0.0119960001 0.00721775414 0.00800000038
v -0.0110293627 0.00663614739 0.00800000038
v 0.000757944712 -0.0139794676 0.00800000038
v 0.011145303 0.0084724389 0.00800000038
v 0.0102472147 0.00778973009 0.00800000038
v 0.0110293627 0.00663614739 0.00800000038
v 0.0101639368 0.00962779205 0.00800000038
v 0.00934492704 0.00885198452 0.00800000038
v -0.00518193422 0.0130056739 0.00800000038
v -0.00476437388 0.0119576771 0.00800000038
v -0.00655771839 0.0123691689 0.00800000038
v -0.00602929713 0.011372461 0.00800000038
v -0.00722353254 0.010653914 0.00800000038
v 0.0139179314 0.00151366624 0.00800000038
v 0.0127964243 0.001391695 0.00800000038
v 0.0128718801 -2.36452597e-18 0.00800000038
v 0.013672688 0.00300958613 0.00800000038
v 0.0125709428 0.00276707369 0.00800000038
v 0.0132671446 0.00447022123 0.00800000038
v 0.0121980784 0.00411001081 0.00800000038
v 0.0127060562 0.00587844756 0.00800000038
v 0.0116822021 0.00540476199 0.00800000038
v 0.0119960001 0.00721775414 0.00800000038
v 0.00906340778 0.0106702689 0.00800000038
v 0.00833307859 0.00981045887 0.00800000038
v 0.00785661861 0.0115876459 0.00800000038
v 0.00722353254 0.010653914 0.00800000038
v -0.0127060562 0.00587844756 0.00800000038
v -0.0116822021 0.00540476199 0.00800000038
v -0.0139179314 0.00151366624 0.00800000038
v -0.0127964243 0.001391695 0.00800000038
v -0.0125709428 0.00276707369 0.00800000038
v -0.0140000004 8.57252764e-19 0.00800000038
v 0.00518193422 0.0130056739 0.00800000038
v 0.00476437388 0.0119576771 0.00800000038
v 0.00602929713 0.011372461 0.00800000038
v 0.00374539685 0.0134896999 0.00800000038
v -0.0132671446 0.00447022123 0.00800000038
v -0.0121980784 0.00411001081 0.00800000038
v -0.013672688 0.00300958613 0.00800000038
v 0.0139179314 -0.00151366624 0.00800000038
v 0.0127964243 -0.001391695 0.00800000038
v 0.0140000004 6.00076935e-18 0.00800000038
v 0.00655771839 0.0123691689 0.00800000038
v 0.00840575621 5.14704089e-19 0.00800000038
v 0.00840575621 -1.54411232e-18 0.00700000022
v 0.00835648086 0.000908822054 0.00700000022
v 0.00835648086 0.000908822054 0.00800000038
v 0.0082092341 0.00180698908 0.00700000022
v 0.0082092341 0.00180698908 0.00800000038
v 0.00796574168 0.00268397061 0.00700000022
v 0.00796574168 0.00268397061 0.00800000038
v 0.00762885762 0.00352948532 0.00700000022
v 0.00762885762 0.00352948532 0.00800000038
v 0.00720253214 0.00433361996 0.00700000022
v 0.00720253214 0.00433361996 0.00800000038
v 0.00669176411 0.00508694677 0.00700000022
v 0.00669176411 0.00508694677 0.00800000038
v 0.006102541 0.005780634 0.00700000022
v 0.006102541 0.005780634 0.00800000038
v 0.00544177089 0.00640654797 0.00700000022
v 0.00544177089 0.00640654797 0.00800000038
v 0.00471720146 0.0069573517 0.00700000022
v 0.00471720146 0.0069573517 0.00800000038
v 0.00393732684 0.00742658647 0.00700000022
v 0.00393732684 0.00742658647 0.00800000038
v 0.00311129098 0.00780875143 0.00700000022
v 0.00311129098 0.00780875143 0.00800000038
v 0.00224877801 0.00809936598 0.00700000022
v 0.00224877801 0.00809936598 0.00800000038
v 0.00135989999 0.00829502288 0.00700000022
v 0.00135989999 0.00829502288 0.00800000038
v 0.000455078436 0.00839342829 0.00700000022
v 0.000455078436 0.00839342829 0.00800000038
v -0.000455078436 0.00839342829 0.00700000022
v -0.000455078436 0.00839342829 0.00800000038
v -0.00135989999 0.00829502288 0.00700000022
v -0.00135989999 0.00829502288 0.00800000038
v -0.00224877801 0.00809936598 0.00700000022
v -0.00224877801 0.00809936598 0.00800000038
v -0.00311129098 0.00780875143 0.00700000022
v -0.00311129098 0.00780875143 0.00800000038
v -0.00393732684 0.00742658647 0.00700000022
v -0.00393732684 0.00742658647 0.00800000038
v -0.00471720146 0.0069573517 0.00700000022
v -0.00471720146 0.0069573517 0.00800000038
v -0.00544177089 0.00640654797 0.00700000022
v -0.00544177089 0.00640654797 0.00800000038
v -0.006102541 0.005780634 0.00700000022
v -0.006102541 0.005780634 0.00800000038
v -0.00669176411 0.00508694677 0.00700000022
v -0.00669176411 0.00508694677 0.00800000038
v -0.00720253214 0.00433361996 0.00700000022
v -0.00720253214 0.00433361996 0.00800000038
v -0.00762885762 0.00352948532 0.00700000022
v -0.00762885762 0.00352948532 0.00800000038
v -0.00796574168 0.00268397061 0.00700000022
v -0.00796574168 0.00268397061 0.00800000038
v -0.0082092341 0.00180698908 0.00700000022
v -0.0082092341 0.00180698908 0.00800000038
v -0.00835648086 0.000908822054 0.00700000022
v -0.00835648086 0.000908822054 0.00800000038
v -0.00840575621 1.54411232e-18 0.00700000022
v -0.00840575621 1.54411232e-18 0.00800000038
v -0.00835648086 -0.000908822054 0.00700000022
v -0.00835648086 -0.000908822054 0.00800000038
v -0.0082092341 -0.00180698908 0.00700000022
v -0.0082092341 -0.00180698908 0.00800000038
v -0.00796574168 -0.00268397061 0.00700000022
v -0.00796574168 -0.00268397061 0.00800000038
v -0.00762885762 -0.00352948532 0.00700000022
v -0.00762885762 -0.00352948532 0.00800000038
v -0.00720253214 -0.00433361996 0.00700000022
v -0.00720253214 -0.00433361996 0.00800000038
v -0.00669176411 -0.00508694677 0.00700000022
v -0.00669176411 -0.00508694677 0.00800000038
v -0.006102541 -0.005780634 0.00700000022
v -0.006102541 -0.005780634 0.00800000038
v -0.00544177089 -0.00640654797 0.00700000022
v -0.00544177089 -0.00640654797 0.00800000038
v -0.00471720146 -0.0069573517 0.00700000022
v -0.00471720146 -0.0069573517 0.00800000038
v -0.00393732684 -0.00742658647 0.00700000022
v -0.00393732684 -0.00742658647 0.00800000038
v -0.00311129098 -0.00780875143 0.00700000022
v -0.00311129098 -0.00780875143 0.00800000038
v -0.00224877801 -0.00809936598 0.00700000022
v -0.00224877801 -0.00809936598 0.00800000038
v -0.00135989999 -0.00829502288 0.00700000022
v -0.00135989999 -0.00829502288 0.00800000038
v -0.000455078436 -0.00839342829 0.00700000022
v -0.000455078436 -0.00839342829 0.00800000038
v 0.000455078436 -0.00839342829 0.00700000022
v 0.000455078436 -0.00839342829 0.00800000038
v 0.00135989999 -0.00829502288 0.00700000022
v 0.00135989999 -0.00829502288 0.00800000038
v 0.00224877801 -0.00809936598 0.00700000022
v 0.00224877801 -0.00809936598 0.00800000038
v 0.00311129098 -0.00780875143 0.00700000022
v 0.00311129098 -0.00780875143 0.00800000038
v 0.00393732684 -0.00742658647 0.00700000022
v 0.00393732684 -0.00742658647 0.00800000038
v 0.00471720146 -0.0069573517 0.00700000022
v 0.00471720146 -0.0069573517 0.00800000038
v 0.00544177089 -0.00640654797 0.00700000022
v 0.00544177089 -0.00640654797 0.00800000038
v 0.006102541 -0.005780634 0.00700000022
v 0.006102541 -0.005780634 0.00800000038
v 0.00669176411 -0.00508694677 0.00700000022
v 0.00669176411 -0.00508694677 0.00800000038
v 0.00720253214 -0.00433361996 0.00700000022
v 0.00720253214 -0.00433361996 0.00800000038
v 0.00762885762 -0.00352948532 0.00700000022
v 0.00762885762 -0.00352948532 0.00800000038
v 0.00796574168 -0.00268397061 0.00700000022
v 0.00796574168 -0.00268397061 0.00800000038
v 0.0082092341 -0.00180698908 0.00700000022
v 0.0082092341 -0.00180698908 0.00800000038
v 0.00835648086 -0.000908822054 0.00700000022
v 0.00835648086 -0.000908822054 0.00800000038
v 0.0127964243 -0.001391695 0.00800000038
v 0.0128718801 -2.36452597e-18 0.00800000038
v 0.0128718801 7.88175324e-19 0.00700000022
v 0.0125709428 -0.00276707369 0.00800000038
v 0.0127964243 -0.001391695 0.00700000022
v 0.0121980784 -0.00411001081 0.00800000038
v 0.0125709428 -0.00276707369 0.00700000022
v 0.0116822021 -0.00540476199 0.00800000038
v 0.0121980784 -0.00411001081 0.00700000022
v 0.0110293627 -0.00663614739 0.00800000038
v 0.0116822021 -0.00540476199 0.00700000022
v 0.0102472147 -0.00778973009 0.00800000038
v 0.0110293627 -0.00663614739 0.00700000022
v 0.00934492704 -0.00885198452 0.00800000038
v 0.0102472147 -0.00778973009 0.00700000022
v 0.00833307859 -0.00981045887 0.00800000038
v 0.00934492704 -0.00885198452 0.00700000022
v 0.00722353254 -0.010653914 0.00800000038
v 0.00833307859 -0.00981045887 0.00700000022
v 0.00602929713 -0.011372461 0.00800000038
v 0.00722353254 -0.010653914 0.00700000022
v 0.00476437388 -0.0119576771 0.00800000038
v 0.00602929713 -0.011372461 0.00700000022
v 0.00344359269 -0.0124027003 0.00800000038
v 0.00476437388 -0.0119576771 0.00700000022
v 0.00208243844 -0.0127023123 0.00800000038
v 0.00344359269 -0.0124027003 0.00700000022
v 0.000696869567 -0.0128530022 0.00800000038
v 0.00208243844 -0.0127023123 0.00700000022
v -0.000696869567 -0.0128530022 0.00800000038
v 0.000696869567 -0.0128530022 0.00700000022
v -0.00208243844 -0.0127023123 0.00800000038
v -0.000696869567 -0.0128530022 0.00700000022
v -0.00344359269 -0.0124027003 0.00800000038
v -0.00208243844 -0.0127023123 0.00700000022
v -0.00476437388 -0.0119576771 0.00800000038
v -0.00344359269 -0.0124027003 0.00700000022
v -0.00602929713 -0.011372461 0.00800000038
v -0.00476437388 -0.0119576771 0.00700000022
v -0.00722353254 -0.010653914 0.00800000038
v -0.00602929713 -0.011372461 0.00700000022
v -0.00833307859 -0.00981045887 0.00800000038
v -0.00722353254 -0.010653914 0.00700000022
v -0.00934492704 -0.00885198452 0.00800000038
v -0.00833307859 -0.00981045887 0.00700000022
v -0.0102472147 -0.00778973009 0.00800000038
v -0.00934492704 -0.00885198452 0.00700000022
v -0.0110293627 -0.00663614739 0.00800000038
v -0.0102472147 -0.00778973009 0.00700000022
v -0.0116822021 -0.00540476199 0.00800000038
v -0.0110293627 -0.00663614739 0.00700000022
v -0.0121980784 -0.00411001081 0.00800000038
v -0.0116822021 -0.00540476199 0.00700000022
v -0.0125709428 -0.00276707369 0.00800000038
v -0.0121980784 -0.00411001081 0.00700000022
v -0.0127964243 -0.001391695 0.00800000038
v -0.0125709428 -0.00276707369 0.00700000022
v -0.0128718801 2.36452597e-18 0.00800000038
v -0.0127964243 -0.001391695 0.00700000022
v -0.0127964243 0.001391695 0.00800000038
v -0.0128718801 2.36452597e-18 0.00700000022
v -0.0125709428 0.00276707369 0.00800000038
v -0.0127964243 0.001391695 0.00700000022
v -0.0121980784 0.00411001081 0.00800000038
v -0.0125709428 0.00276707369 0.00700000022
v -0.0116822021 0.00540476199 0.00800000038
v -0.0121980784 0.00411001081 0.00700000022
v -0.0110293627 0.00663614739 0.00800000038
v -0.0116822021 0.00540476199 0.00700000022
v -0.0102472147 0.00778973009 0.00800000038
v -0.0110293627 0.00663614739 0.00700000022
v -0.00934492704 0.00885198452 0.00800000038
v -0.0102472147 0.00778973009 0.00700000022
v -0.00833307859 0.00981045887 0.00800000038
v -0.00934492704 0.00885198452 0.00700000022
v -0.00722353254 0.010653914 0.00800000038
v -0.00833307859 0.00981045887 0.00700000022
v -0.00602929713 0.011372461 0.00800000038
v -0.00722353254 0.010653914 0.00700000022
v -0.00476437388 0.0119576771 0.00800000038
v -0.00602929713 0.011372461 0.00700000022
v -0.00344359269 0.0124027003 0.00800000038
v -0.00476437388 0.0119576771 0.00700000022
v -0.00208243844 0.0127023123 0.00800000038
v -0.00344359269 0.0124027003 0.00700000022
v -0.000696869567 0.0128530022 0.00800000038
v -0.00208243844 0.0127023123 0.00700000022
v 0.000696869567 0.0128530022 0.00800000038
v -0.000696869567 0.0128530022 0.00700000022
v 0.00208243844 0.0127023123 0.00800000038
v 0.000696869567 0.0128530022 0.00700000022
v 0.00344359269 0.0124027003 0.00800000038
v 0.00208243844 0.0127023123 0.00700000022
v 0.00476437388 0.0119576771 0.00800000038
v 0.00344359269 0.0124027003 0.00700000022
v 0.00602929713 0.011372461 0.00800000038
v 0.00476437388 0.0119576771 0.00700000022
v 0.00722353254 0.010653914 0.00800000038
v 0.00602929713 0.011372461 0.00700000022
v 0.00833307859 0.00981045887 0.00800000038
v 0.00722353254 0.010653914 0.00700000022
v 0.00934492704 0.00885198452 0.00800000038
v 0.00833307859 0.00981045887 0.00700000022
v 0.0102472147 0.00778973009 0.00800000038
v 0.00934492704 0.00885198452 0.00700000022
v 0.0110293627 0.00663614739 0.00800000038
v 0.0102472147 0.00778973009 0.00700000022
v 0.0116822021 0.00540476199 0.00800000038
v 0.0110293627 0.00663614739 0.00700000022
v 0.0121980784 0.00411001081 0.00800000038
v 0.0116822021 0.00540476199 0.00700000022
v 0.0125709428 0.00276707369 0.00800000038
v 0.0121980784 0.00411001081 0.00700000022
v 0.0127964243 0.001391695 0.00800000038
v 0.0125709428 0.00276707369 0.00700000022
v 0.0127964243 0.001391695 0.00700000022
v 0.00476437388 0.0119576771 0.00700000022
v 0.00311129098 0.00780875143 0.00700000022
v 0.00393732684 0.00742658647 0.00700000022
v 0.00344359269 0.0124027003 0.00700000022
v 0.00224877801 0.00809936598 0.00700000022
v 0.000696869567 0.0128530022 0.00700000022
v 0.000455078436 0.00839342829 0.00700000022
v 0.00135989999 0.00829502288 0.00700000022
v -0.000696869567 0.0128530022 0.00700000022
v -0.000455078436 0.00839342829 0.00700000022
v 0.00208243844 0.0127023123 0.00700000022
v -0.00208243844 0.0127023123 0.00700000022
v -0.00135989999 0.00829502288 0.00700000022
v 0.00934492704 0.00885198452 0.00700000022
v 0.006102541 0.005780634 0.00700000022
v 0.00669176411 0.00508694677 0.00700000022
v 0.00833307859 0.00981045887 0.00700000022
v 0.00544177089 0.00640654797 0.00700000022
v -0.00344359269 0.0124027003 0.00700000022
v -0.00224877801 0.00809936598 0.00700000022
v 0.0110293627 0.00663614739 0.00700000022
v 0.00720253214 0.00433361996 0.00700000022
v 0.00762885762 0.00352948532 0.00700000022
v 0.0102472147 0.00778973009 0.00700000022
v 0.00722353254 0.010653914 0.00700000022
v 0.00471720146 0.0069573517 0.00700000022
v -0.00476437388 0.0119576771 0.00700000022
v -0.00311129098 0.00780875143 0.00700000022
v -0.00602929713 0.011372461 0.00700000022
v -0.00393732684 0.00742658647 0.00700000022
v -0.00722353254 0.010653914 0.00700000022
v -0.00471720146 0.0069573517 0.00700000022
v 0.0121980784 0.00411001081 0.00700000022
v 0.00796574168 0.00268397061 0.00700000022
v 0.0082092341 0.00180698908 0.00700000022
v 0.0116822021 0.00540476199 0.00700000022
v -0.00602929713 -0.011372461 0.00700000022
v -0.00393732684 -0.00742658647 0.00700000022
v -0.00471720146 -0.0069573517 0.00700000022
v -0.00476437388 -0.0119576771 0.00700000022
v -0.00311129098 -0.00780875143 0.00700000022
v 0.00602929713 0.011372461 0.00700000022
v -0.00344359269 -0.0124027003 0.00700000022
v -0.00224877801 -0.00809936598 0.00700000022
v -0.00833307859 0.00981045887 0.00700000022
v -0.00544177089 0.00640654797 0.00700000022
v -0.00934492704 0.00885198452 0.00700000022
v -0.006102541 0.005780634 0.00700000022
v -0.0102472147 0.00778973009 0.00700000022
v -0.00669176411 0.00508694677 0.00700000022
v -0.0110293627 0.00663614739 0.00700000022
v -0.00720253214 0.00433361996 0.00700000022
v -0.00833307859 -0.00981045887 0.00700000022
v -0.00544177089 -0.00640654797 0.00700000022
v -0.006102541 -0.005780634 0.00700000022
v -0.00722353254 -0.010653914 0.00700000022
v -0.00208243844 -0.0127023123 0.00700000022
v -0.00135989999 -0.00829502288 0.00700000022
v 0.000696869567 -0.0128530022 0.00700000022
v 0.000455078436 -0.00839342829 0.00700000022
v -0.000455078436 -0.00839342829 0.00700000022
v 0.00208243844 -0.0127023123 0.00700000022
v 0.00135989999 -0.00829502288 0.00700000022
v 0.00602929713 -0.011372461 0.00700000022
v 0.00393732684 -0.00742658647 0.00700000022
v 0.00311129098 -0.00780875143 0.00700000022
v 0.00722353254 -0.010653914 0.00700000022
v 0.00471720146 -0.0069573517 0.00700000022
v 0.00833307859 -0.00981045887 0.00700000022
v 0.00544177089 -0.00640654797 0.00700000022
v 0.00934492704 -0.00885198452 0.00700000022
v 0.006102541 -0.005780634 0.00700000022
v -0.0116822021 0.00540476199 0.00700000022
v -0.00762885762 0.00352948532 0.00700000022
v -0.000696869567 -0.0128530022 0.00700000022
v 0.00476437388 -0.0119576771 0.00700000022
v 0.00224877801 -0.00809936598 0.00700000022
v 0.0102472147 -0.00778973009 0.00700000022
v 0.00669176411 -0.00508694677 0.00700000022
v 0.0110293627 -0.00663614739 0.00700000022
v 0.00720253214 -0.00433361996 0.00700000022
v 0.0116822021 -0.00540476199 0.00700000022
v 0.00762885762 -0.00352948532 0.00700000022
v -0.0121980784 0.00411001081 0.00700000022
v -0.00796574168 0.00268397061 0.00700000022
v -0.0125709428 0.00276707369 0.00700000022
v -0.0082092341 0.00180698908 0.00700000022
v -0.0110293627 -0.00663614739 0.00700000022
v -0.0102472147 -0.00778973009 0.00700000022
v -0.00669176411 -0.00508694677 0.00700000022
v -0.00934492704 -0.00885198452 0.00700000022
v 0.00344359269 -0.0124027003 0.00700000022
v 0.0121980784 -0.00411001081 0.00700000022
v 0.00796574168 -0.00268397061 0.00700000022
v 0.0125709428 -0.00276707369 0.00700000022
v 0.0082092341 -0.00180698908 0.00700000022
v 0.0127964243 0.001391695 0.00700000022
v 0.00835648086 0.000908822054 0.00700000022
v 0.00840575621 -1.54411232e-18 0.00700000022
v 0.0125709428 0.00276707369 0.00700000022
v -0.0127964243 0.001391695 0.00700000022
v -0.00835648086 0.000908822054 0.00700000022
v -0.0128718801 2.36452597e-18 0.00700000022
v -0.00840575621 1.54411232e-18 0.00700000022
v -0.0127964243 -0.001391695 0.00700000022
v -0.00835648086 -0.000908822054 0.00700000022
v -0.0125709428 -0.00276707369 0.00700000022
v -0.0082092341 -0.00180698908 0.00700000022
v -0.0121980784 -0.00411001081 0.00700000022
v -0.00796574168 -0.00268397061 0.00700000022
v -0.0116822021 -0.00540476199 0.00700000022
v -0.00762885762 -0.00352948532 0.00700000022
v -0.00720253214 -0.00433361996 0.00700000022
v 0.0127964243 -0.001391695 0.00700000022
v 0.00835648086 -0.000908822054 0.00700000022
v 0.0128718801 7.88175324e-19 0.00700000022
f 1 2 3
f 4 5 2
f 6 7 8
f 6 9 3
f 2 1 4
f 10 11 5
f 3 7 6
f 5 4 10
f 12 13 11
f 12 14 15
f 16 17 18
f 16 19 20
f 21 22 23
f 21 24 25
f 3 9 1
f 15 13 12
f 14 26 27
f 26 28 18
f 20 17 16
f 19 29 30
f 31 32 33
f 32 34 35
f 25 22 21
f 24 36 37
f 11 10 12
f 18 27 26
f 30 20 19
f 29 38 39
f 40 41 42
f 43 44 41
f 35 33 32
f 45 46 35
f 47 23 46
f 37 25 24
f 48 49 37
f 48 50 51
f 50 52 53
f 52 54 55
f 56 57 58
f 56 59 60
f 61 62 63
f 61 64 8
f 27 15 14
f 39 30 29
f 65 66 39
f 67 68 66
f 69 70 71
f 70 72 73
f 41 40 43
f 43 74 75
f 74 76 77
f 76 31 78
f 35 34 45
f 23 47 21
f 51 49 48
f 55 53 52
f 79 80 55
f 81 82 80
f 60 57 56
f 83 84 60
f 8 62 61
f 18 28 16
f 66 65 67
f 67 85 86
f 69 87 86
f 73 71 70
f 72 88 89
f 88 90 91
f 92 93 91
f 92 94 95
f 96 97 98
f 99 100 98
f 75 44 43
f 78 77 76
f 46 45 47
f 53 51 50
f 80 79 81
f 81 101 102
f 60 59 83
f 103 104 84
f 105 106 104
f 107 108 106
f 8 64 6
f 86 68 67
f 71 87 69
f 91 89 88
f 95 93 92
f 94 96 109
f 98 97 99
f 99 110 42
f 77 75 74
f 37 36 48
f 102 82 81
f 101 111 58
f 84 83 103
f 106 105 107
f 39 38 65
f 89 73 72
f 109 95 94
f 42 100 99
f 33 78 31
f 58 102 101
f 104 103 105
f 112 113 108
f 86 85 69
f 98 109 96
f 55 54 79
f 108 107 112
f 114 115 113
f 114 116 63
f 91 90 92
f 58 111 56
f 63 115 114
f 42 110 40
f 63 116 61
f 113 112 114
f 117 118 119
f 120 117 121
f 122 120 123
f 124 122 125
f 126 124 127
f 128 126 129
f 130 128 131
f 132 130 133
f 134 132 135
f 136 134 137
f 138 136 139
f 140 138 141
f 142 140 143
f 144 142 145
f 146 144 147
f 148 146 149
f 150 148 151
f 152 150 153
f 154 152 155
f 156 154 157
f 158 156 159
f 160 158 161
f 162 160 163
f 164 162 165
f 166 164 167
f 168 166 169
f 170 168 171
f 172 170 173
f 174 172 175
f 176 174 177
f 178 176 179
f 180 178 181
f 182 180 183
f 184 182 185
f 186 184 187
f 188 186 189
f 190 188 191
f 192 190 193
f 194 192 195
f 196 194 197
f 198 196 199
f 200 198 201
f 202 200 203
f 204 202 205
f 206 204 207
f 208 206 209
f 210 208 211
f 212 210 213
f 214 212 215
f 216 214 217
f 218 216 219
f 220 218 221
f 222 220 223
f 224 222 225
f 226 224 227
f 228 226 229
f 230 228 231
f 118 230 232
f 232 119 118
f 231 232 230
f 229 231 228
f 227 229 226
f 225 227 224
f 223 225 222
f 221 223 220
f 219 221 218
f 217 219 216
f 215 217 214
f 213 215 212
f 211 213 210
f 209 211 208
f 207 209 206
f 205 207 204
f 203 205 202
f 201 203 200
f 199 201 198
f 197 199 196
f 195 197 194
f 193 195 192
f 191 193 190
f 189 191 188
f 187 189 186
f 185 187 184
f 183 185 182
f 181 183 180
f 179 181 178
f 177 179 176
f 175 177 174
f 173 175 172
f 171 173 170
f 169 171 168
f 167 169 166
f 165 167 164
f 163 165 162
f 161 163 160
f 159 161 158
f 157 159 156
f 155 157 154
f 153 155 152
f 151 153 150
f 149 151 148
f 147 149 146
f 145 147 144
f 143 145 142
f 141 143 140
f 139 141 138
f 137 139 136
f 135 137 134
f 133 135 132
f 131 133 130
f 129 131 128
f 127 129 126
f 125 127 124
f 123 125 122
f 121 123 120
f 119 121 117
f 233 234 235
f 236 237 234
f 234 233 236
f 236 238 239
f 240 241 242
f 243 244 241
f 243 245 246
f 245 247 248
f 249 250 251
f 249 252 253
f 254 255 256
f 254 257 258
f 259 260 261
f 259 262 263
f 264 265 263
f 264 266 267
f 268 269 267
f 268 270 271
f 239 237 236
f 238 272 273
f 274 275 273
f 274 276 277
f 278 279 280
f 281 282 279
f 283 284 285
f 286 242 284
f 241 240 243
f 248 246 245
f 253 250 249
f 287 288 253
f 258 255 254
f 257 289 290
f 291 261 292
f 263 260 259
f 267 265 264
f 271 269 268
f 273 239 238
f 277 275 274
f 293 294 277
f 293 295 296
f 297 298 296
f 297 299 300
f 279 278 281
f 301 285 282
f 284 283 286
f 246 244 243
f 247 302 303
f 304 305 303
f 306 307 305
f 306 308 251
f 253 252 287
f 309 256 288
f 290 258 257
f 289 310 311
f 312 313 314
f 312 315 316
f 317 318 292
f 261 291 259
f 267 266 268
f 270 319 320
f 321 322 320
f 321 323 324
f 273 272 274
f 296 294 293
f 300 298 297
f 299 325 326
f 282 281 301
f 242 286 240
f 303 302 304
f 251 307 306
f 288 287 309
f 311 290 289
f 327 314 311
f 316 313 312
f 328 329 330
f 328 331 332
f 292 318 291
f 320 271 270
f 324 322 321
f 323 333 235
f 277 276 293
f 326 300 299
f 334 335 326
f 334 336 337
f 285 301 283
f 305 304 306
f 256 309 254
f 314 327 312
f 338 339 316
f 338 340 341
f 342 330 341
f 332 329 328
f 263 262 264
f 235 324 323
f 296 295 297
f 337 335 334
f 303 248 247
f 311 310 327
f 341 339 338
f 330 342 328
f 320 319 321
f 326 325 334
f 343 344 337
f 343 345 280
f 251 308 249
f 341 340 342
f 346 347 332
f 346 317 348
f 235 333 233
f 280 344 343
f 316 315 338
f 348 347 346
f 337 336 343
f 332 331 346
f 280 345 278
f 292 348 317
f 349 350 351
f 352 351 353
f 354 353 355
f 356 355 357
f 358 357 359
f 360 359 361
f 362 361 363
f 364 363 365
f 366 365 367
f 368 367 369
f 370 369 371
f 372 371 373
f 374 373 375
f 376 375 377
f 378 377 379
f 380 379 381
f 382 381 383
f 384 383 385
f 386 385 387
f 388 387 389
f 390 389 391
f 392 391 393
f 394 393 395
f 396 395 397
f 398 397 399
f 400 399 401
f 402 401 403
f 404 403 405
f 406 405 407
f 408 407 409
f 410 409 411
f 412 411 413
f 414 413 415
f 416 415 417
f 418 417 419
f 420 419 421
f 422 421 423
f 424 423 425
f 426 425 427
f 428 427 429
f 430 429 431
f 432 431 433
f 434 433 435
f 436 435 437
f 438 437 439
f 440 439 441
f 442 441 443
f 444 443 445
f 446 445 447
f 448 447 449
f 450 449 451
f 452 451 453
f 454 453 455
f 456 455 457
f 458 457 459
f 460 459 461
f 462 461 463
f 464 463 350
f 350 349 464
f 463 464 462
f 461 462 460
f 459 460 458
f 457 458 456
f 455 456 454
f 453 454 452
f 451 452 450
f 449 450 448
f 447 448 446
f 445 446 444
f 443 444 442
f 441 442 440
f 439 440 438
f 437 438 436
f 435 436 434
f 433 434 432
f 431 432 430
f 429 430 428
f 427 428 426
f 425 426 424
f 423 424 422
f 421 422 420
f 419 420 418
f 417 418 416
f 415 416 414
f 413 414 412
f 411 412 410
f 409 410 408
f 407 408 406
f 405 406 404
f 403 404 402
f 401 402 400
f 399 400 398
f 397 398 396
f 395 396 394
f 393 394 392
f 391 392 390
f 389 390 388
f 387 388 386
f 385 386 384
f 383 384 382
f 381 382 380
f 379 380 378
f 377 378 376
f 375 376 374
f 373 374 372
f 371 372 370
f 369 370 368
f 367 368 366
f 365 366 364
f 363 364 362
f 361 362 360
f 359 360 358
f 357 358 356
f 355 356 354
f 353 354 352
f 351 352 349
f 465 466 467
f 468 469 466
f 470 471 472
f 470 473 474
f 466 465 468
f 475 472 469
f 474 471 470
f 473 476 477
f 469 468 475
f 477 474 473
f 478 479 480
f 481 482 479
f 472 475 470
f 476 483 484
f 485 486 487
f 485 488 480
f 479 478 481
f 481 489 490
f 484 477 476
f 483 491 492
f 491 493 494
f 493 495 496
f 497 498 499
f 497 500 487
f 480 486 485
f 490 482 481
f 492 484 483
f 496 494 493
f 501 502 503
f 501 504 505
f 487 498 497
f 480 488 478
f 506 467 490
f 494 492 491
f 505 502 501
f 504 507 508
f 487 500 485
f 467 506 465
f 509 510 496
f 509 511 512
f 513 514 512
f 515 516 514
f 517 518 519
f 517 520 503
f 508 505 504
f 507 521 522
f 523 524 525
f 523 526 527
f 528 529 530
f 528 531 532
f 533 534 532
f 535 536 534
f 490 489 506
f 512 510 509
f 514 513 515
f 515 537 538
f 503 518 517
f 522 508 507
f 539 525 522
f 527 524 523
f 540 530 541
f 532 529 528
f 534 533 535
f 535 542 543
f 544 545 543
f 544 546 547
f 496 495 509
f 538 516 515
f 548 549 538
f 548 550 551
f 552 553 554
f 553 555 519
f 503 520 501
f 525 539 523
f 526 556 541
f 530 540 528
f 543 536 535
f 547 545 544
f 546 557 558
f 557 559 560
f 561 562 563
f 561 564 499
f 512 511 513
f 551 549 548
f 565 566 551
f 565 567 568
f 569 570 568
f 569 571 572
f 573 574 572
f 573 575 576
f 552 577 576
f 519 554 553
f 522 521 539
f 541 556 540
f 543 542 544
f 560 558 557
f 499 562 561
f 538 537 548
f 568 566 565
f 572 570 569
f 576 574 573
f 554 577 552
f 541 527 526
f 558 547 546
f 499 564 497
f 568 567 569
f 576 575 552
f 532 531 533
f 551 550 565
f 519 555 517
f 578 579 560
f 578 580 563
f 572 571 573
f 563 579 578
f 560 559 578
f 563 580 561
f 581 582 583
f 584 581 585
f 586 584 587
f 588 586 589
f 590 588 591
f 592 590 593
f 594 592 595
f 596 594 597
f 598 596 599
f 600 598 601
f 602 600 603
f 604 602 605
f 606 604 607
f 608 606 609
f 610 608 611
f 612 610 613
f 614 612 615
f 616 614 617
f 618 616 619
f 620 618 621
f 622 620 623
f 624 622 625
f 626 624 627
f 628 626 629
f 630 628 631
f 632 630 633
f 634 632 635
f 636 634 637
f 638 636 639
f 640 638 641
f 642 640 643
f 644 642 645
f 646 644 647
f 648 646 649
f 650 648 651
f 652 650 653
f 654 652 655
f 656 654 657
f 658 656 659
f 660 658 661
f 662 660 663
f 664 662 665
f 666 664 667
f 668 666 669
f 670 668 671
f 672 670 673
f 674 672 675
f 676 674 677
f 678 676 679
f 680 678 681
f 682 680 683
f 684 682 685
f 686 684 687
f 688 686 689
f 690 688 691
f 692 690 693
f 694 692 695
f 582 694 696
f 696 583 582
f 695 696 694
f 693 695 692
f 691 693 690
f 689 691 688
f 687 689 686
f 685 687 684
f 683 685 682
f 681 683 680
f 679 681 678
f 677 679 676
f 675 677 674
f 673 675 672
f 671 673 670
f 669 671 668
f 667 669 666
f 665 667 664
f 663 665 662
f 661 663 660
f 659 661 658
f 657 659 656
f 655 657 654
f 653 655 652
f 651 653 650
f 649 651 648
f 647 649 646
f 645 647 644
f 643 645 642
f 641 643 640
f 639 641 638
f 637 639 636
f 635 637 634
f 633 635 632
f 631 633 630
f 629 631 628
f 627 629 626
f 625 627 624
f 623 625 622
f 621 623 620
f 619 621 618
f 617 619 616
f 615 617 614
f 613 615 612
f 611 613 610
f 609 611 608
f 607 609 606
f 605 607 604
f 603 605 602
f 601 603 600
f 599 601 598
f 597 599 596
f 595 597 594
f 593 595 592
f 591 593 590
f 589 591 588
f 587 589 586
f 585 587 584
f 583 585 581
f 697 698 699
f 698 700 701
f 701 699 698
f 700 702 703
f 704 705 706
f 704 707 708
f 703 701 700
f 702 709 710
f 711 712 713
f 714 715 712
f 716 717 718
f 719 720 717
f 721 722 723
f 721 724 725
f 708 705 704
f 707 726 727
f 728 729 727
f 728 730 731
f 710 703 702
f 709 732 733
f 734 735 733
f 734 736 737
f 738 713 739
f 712 711 714
f 717 716 719
f 740 741 720
f 725 722 721
f 724 742 743
f 744 745 743
f 744 746 747
f 727 708 707
f 731 729 728
f 748 749 731
f 748 697 750
f 733 710 709
f 737 735 734
f 751 752 753
f 751 754 739
f 713 738 711
f 714 755 718
f 720 719 740
f 756 757 741
f 758 759 757
f 758 760 761
f 743 725 724
f 747 745 744
f 762 763 764
f 765 766 763
f 767 768 766
f 769 770 768
f 727 726 728
f 750 749 748
f 733 732 734
f 771 753 737
f 739 752 751
f 718 715 714
f 741 740 756
f 761 759 758
f 772 773 774
f 772 775 776
f 743 742 744
f 777 778 747
f 779 780 778
f 781 764 780
f 763 762 765
f 768 767 769
f 731 730 748
f 737 736 771
f 739 754 738
f 757 756 758
f 782 783 784
f 782 785 786
f 785 787 788
f 787 789 790
f 789 791 774
f 776 773 772
f 775 792 793
f 792 794 795
f 747 746 777
f 780 779 781
f 766 765 767
f 796 797 770
f 798 799 800
f 801 706 799
f 699 750 697
f 718 755 716
f 786 783 782
f 790 788 787
f 774 791 772
f 795 793 792
f 802 803 804
f 802 805 723
f 778 777 779
f 770 769 796
f 806 807 797
f 806 808 800
f 799 798 801
f 753 771 751
f 809 810 761
f 809 811 784
f 788 786 785
f 793 776 775
f 812 804 795
f 723 803 802
f 764 781 762
f 800 807 806
f 706 801 704
f 784 810 809
f 774 790 789
f 804 812 802
f 797 796 806
f 761 760 809
f 795 794 812
f 800 808 798
f 723 805 721
f 784 811 782
f 813 814 815
f 816 815 817
f 818 817 819
f 820 819 821
f 822 821 823
f 824 823 825
f 826 825 827
f 828 827 829
f 830 829 831
f 832 831 833
f 834 833 835
f 836 835 837
f 838 837 839
f 840 839 841
f 842 841 843
f 844 843 845
f 846 845 847
f 848 847 849
f 850 849 851
f 852 851 853
f 854 853 855
f 856 855 857
f 858 857 859
f 860 859 861
f 862 861 863
f 864 863 865
f 866 865 867
f 868 867 869
f 870 869 871
f 872 871 873
f 874 873 875
f 876 875 877
f 878 877 879
f 880 879 881
f 882 881 883
f 884 883 885
f 886 885 887
f 888 887 889
f 890 889 891
f 892 891 893
f 894 893 895
f 896 895 897
f 898 897 899
f 900 899 901
f 902 901 903
f 904 903 905
f 906 905 907
f 908 907 909
f 910 909 911
f 912 911 913
f 914 913 915
f 916 915 917
f 918 917 919
f 920 919 921
f 922 921 923
f 924 923 925
f 926 925 927
f 928 927 814
f 814 813 928
f 927 928 926
f 925 926 924
f 923 924 922
f 921 922 920
f 919 920 918
f 917 918 916
f 915 916 914
f 913 914 912
f 911 912 910
f 909 910 908
f 907 908 906
f 905 906 904
f 903 904 902
f 901 902 900
f 899 900 898
f 897 898 896
f 895 896 894
f 893 894 892
f 891 892 890
f 889 890 888
f 887 888 886
f 885 886 884
f 883 884 882
f 881 882 880
f 879 880 878
f 877 878 876
f 875 876 874
f 873 874 872
f 871 872 870
f 869 870 868
f 867 868 866
f 865 866 864
f 863 864 862
f 861 862 860
f 859 860 858
f 857 858 856
f 855 856 854
f 853 854 852
f 851 852 850
f 849 850 848
f 847 848 846
f 845 846 844
f 843 844 842
f 841 842 840
f 839 840 838
f 837 838 836
f 835 836 834
f 833 834 832
f 831 832 830
f 829 830 828
f 827 828 826
f 825 826 824
f 823 824 822
f 821 822 820
f 819 820 818
f 817 818 816
f 815 816 813
f 929 930 931
f 932 933 930
f 930 929 932
f 932 934 935
f 936 937 938
f 936 939 940
f 935 933 932
f 934 941 942
f 943 944 945
f 944 946 947
f 948 949 950
f 951 952 949
f 953 954 955
f 956 957 954
f 940 937 936
f 939 958 959
f 958 960 961
f 960 962 963
f 942 935 934
f 964 965 942
f 966 967 965
f 968 969 967
f 943 970 971
f 947 945 944
f 949 948 951
f 972 973 952
f 954 953 956
f 974 975 957
f 976 977 975
f 978 979 977
f 959 940 939
f 963 961 960
f 980 981 963
f 982 931 981
f 942 941 964
f 967 966 968
f 983 984 985
f 986 971 984
f 945 970 943
f 987 950 947
f 952 951 972
f 988 989 973
f 990 991 989
f 990 992 993
f 957 956 974
f 977 976 978
f 994 995 996
f 995 997 998
f 999 1000 998
f 1001 1002 1000
f 961 959 958
f 981 980 982
f 965 964 966
f 968 1003 985
f 984 983 986
f 947 946 987
f 973 972 988
f 993 991 990
f 1004 1005 1006
f 1004 1007 1008
f 975 974 976
f 1009 1010 979
f 1011 1012 1010
f 1011 994 1013
f 998 996 995
f 1000 999 1001
f 963 962 980
f 985 969 968
f 971 986 943
f 989 988 990
f 1014 1015 1016
f 1017 1018 1015
f 1019 1020 1018
f 1021 1022 1020
f 1023 1006 1022
f 1008 1005 1004
f 1007 1024 1025
f 1024 1026 1027
f 979 978 1009
f 1013 1012 1011
f 998 997 999
f 1028 1029 1002
f 1030 1031 1032
f 1033 938 1031
f 931 982 929
f 950 987 948
f 1015 1014 1017
f 1020 1019 1021
f 1006 1023 1004
f 1027 1025 1024
f 1034 1035 1036
f 1037 955 1035
f 1010 1009 1011
f 1002 1001 1028
f 1038 1039 1029
f 1040 1032 1039
f 1031 1030 1033
f 985 1003 983
f 992 1041 1042
f 1041 1043 1016
f 1018 1017 1019
f 1025 1008 1007
f 1026 1044 1036
f 1035 1034 1037
f 996 1013 994
f 1039 1038 1040
f 938 1033 936
f 1016 1042 1041
f 1022 1021 1023
f 1036 1044 1034
f 1029 1028 1038
f 1042 993 992
f 1036 1027 1026
f 1032 1040 1030
f 955 1037 953
f 1016 1043 1014
f 1045 1046 1047
f 1048 1047 1049
f 1050 1049 1051
f 1052 1051 1053
f 1054 1053 1055
f 1056 1055 1057
f 1058 1057 1059
f 1060 1059 1061
f 1062 1061 1063
f 1064 1063 1065
f 1066 1065 1067
f 1068 1067 1069
f 1070 1069 1071
f 1072 1071 1073
f 1074 1073 1075
f 1076 1075 1077
f 1078 1077 1079
f 1080 1079 1081
f 1082 1081 1083
f 1084 1083 1085
f 1086 1085 1087
f 1088 1087 1089
f 1090 1089 1091
f 1092 1091 1093
f 1094 1093 1095
f 1096 1095 1097
f 1098 1097 1099
f 1100 1099 1101
f 1102 1101 1103
f 1104 1103 1105
f 1106 1105 1107
f 1108 1107 1109
f 1110 1109 1111
f 1112 1111 1113
f 1114 1113 1115
f 1116 1115 1117
f 1118 1117 1119
f 1120 1119 1121
f 1122 1121 1123
f 1124 1123 1125
f 1126 1125 1127
f 1128 1127 1129
f 1130 1129 1131
f 1132 1131 1133
f 1134 1133 1135
f 1136 1135 1137
f 1138 1137 1139
f 1140 1139 1141
f 1142 1141 1143
f 1144 1143 1145
f 1146 1145 1147
f 1148 1147 1149
f 1150 1149 1151
f 1152 1151 1153
f 1154 1153 1155
f 1156 1155 1157
f 1158 1157 1159
f 1160 1159 1046
f 1046 1045 1160
f 1159 1160 1158
f 1157 1158 1156
f 1155 1156 1154
f 1153 1154 1152
f 1151 1152 1150
f 1149 1150 1148
f 1147 1148 1146
f 1145 1146 1144
f 1143 1144 1142
f 1141 1142 1140
f 1139 1140 1138
f 1137 1138 1136
f 1135 1136 1134
f 1133 1134 1132
f 1131 1132 1130
f 1129 1130 1128
f 1127 1128 1126
f 1125 1126 1124
f 1123 1124 1122
f 1121 1122 1120
f 1119 1120 1118
f 1117 1118 1116
f 1115 1116 1114
f 1113 1114 1112
f 1111 1112 1110
f 1109 1110 1108
f 1107 1108 1106
f 1105 1106 1104
f 1103 1104 1102
f 1101 1102 1100
f 1099 1100 1098
f 1097 1098 1096
f 1095 1096 1094
f 1093 1094 1092
f 1091 1092 1090
f 1089 1090 1088
f 1087 1088 1086
f 1085 1086 1084
f 1083 1084 1082
f 1081 1082 1080
f 1079 1080 1078
f 1077 1078 1076
f 1075 1076 1074
f 1073 1074 1072
f 1071 1072 1070
f 1069 1070 1068
f 1067 1068 1066
f 1065 1066 1064
f 1063 1064 1062
f 1061 1062 1060
f 1059 1060 1058
f 1057 1058 1056
f 1055 1056 1054
f 1053 1054 1052
f 1051 1052 1050
f 1049 1050 1048
f 1047 1048 1045
f 1161 1162 1163
f 1164 1161 1165
f 1166 1164 1167
f 1168 1166 1169
f 1170 1168 1171
f 1172 1170 1173
f 1174 1172 1175
f 1176 1174 1177
f 1178 1176 1179
f 1180 1178 1181
f 1182 1180 1183
f 1184 1182 1185
f 1186 1184 1187
f 1188 1186 1189
f 1190 1188 1191
f 1192 1190 1193
f 1194 1192 1195
f 1196 1194 1197
f 1198 1196 1199
f 1200 1198 1201
f 1202 1200 1203
f 1204 1202 1205
f 1206 1204 1207
f 1208 1206 1209
f 1210 1208 1211
f 1212 1210 1213
f 1214 1212 1215
f 1216 1214 1217
f 1218 1216 1219
f 1220 1218 1221
f 1222 1220 1223
f 1224 1222 1225
f 1226 1224 1227
f 1228 1226 1229
f 1230 1228 1231
f 1232 1230 1233
f 1234 1232 1235
f 1236 1234 1237
f 1238 1236 1239
f 1240 1238 1241
f 1242 1240 1243
f 1244 1242 1245
f 1246 1244 1247
f 1248 1246 1249
f 1250 1248 1251
f 1252 1250 1253
f 1254 1252 1255
f 1256 1254 1257
f 1258 1256 1259
f 1260 1258 1261
f 1262 1260 1263
f 1264 1262 1265
f 1266 1264 1267
f 1268 1266 1269
f 1270 1268 1271
f 1272 1270 1273
f 1274 1272 1275
f 1162 1274 1276
f 1276 1163 1162
f 1275 1276 1274
f 1273 1275 1272
f 1271 1273 1270
f 1269 1271 1268
f 1267 1269 1266
f 1265 1267 1264
f 1263 1265 1262
f 1261 1263 1260
f 1259 1261 1258
f 1257 1259 1256
f 1255 1257 1254
f 1253 1255 1252
f 1251 1253 1250
f 1249 1251 1248
f 1247 1249 1246
f 1245 1247 1244
f 1243 1245 1242
f 1241 1243 1240
f 1239 1241 1238
f 1237 1239 1236
f 1235 1237 1234
f 1233 1235 1232
f 1231 1233 1230
f 1229 1231 1228
f 1227 1229 1226
f 1225 1227 1224
f 1223 1225 1222
f 1221 1223 1220
f 1219 1221 1218
f 1217 1219 1216
f 1215 1217 1214
f 1213 1215 1212
f 1211 1213 1210
f 1209 1211 1208
f 1207 1209 1206
f 1205 1207 1204
f 1203 1205 1202
f 1201 1203 1200
f 1199 1201 1198
f 1197 1199 1196
f 1195 1197 1194
f 1193 1195 1192
f 1191 1193 1190
f 1189 1191 1188
f 1187 1189 1186
f 1185 1187 1184
f 1183 1185 1182
f 1181 1183 1180
f 1179 1181 1178
f 1177 1179 1176
f 1175 1177 1174
f 1173 1175 1172
f 1171 1173 1170
f 1169 1171 1168
f 1167 1169 1166
f 1165 1167 1164
f 1163 1165 1161
f 1277 1278 1279
f 1280 1281 1278
f 1282 1283 1284
f 1282 1285 1286
f 1278 1277 1280
f 1287 1284 1281
f 1286 1283 1282
f 1285 1288 1289
f 1281 1280 1287
f 1289 1286 1285
f 1290 1291 1292
f 1293 1294 1291
f 1284 1287 1282
f 1288 1295 1296
f 1297 1298 1299
f 1297 1300 1292
f 1291 1290 1293
f 1293 1301 1302
f 1296 1289 1288
f 1295 1303 1304
f 1303 1305 1306
f 1305 1307 1308
f 1309 1310 1311
f 1309 1312 1299
f 1292 1298 1297
f 1302 1294 1293
f 1304 1296 1295
f 1308 1306 1305
f 1313 1314 1315
f 1313 1316 1317
f 1299 1310 1309
f 1292 1300 1290
f 1318 1279 1302
f 1306 1304 1303
f 1317 1314 1313
f 1316 1319 1320
f 1299 1312 1297
f 1279 1318 1277
f 1321 1322 1308
f 1321 1323 1324
f 1325 1326 1324
f 1327 1328 1326
f 1329 1330 1331
f 1329 1332 1315
f 1320 1317 1316
f 1319 1333 1334
f 1335 1336 1337
f 1335 1338 1339
f 1340 1341 1342
f 1340 1343 1344
f 1345 1346 1344
f 1347 1348 1346
f 1302 1301 1318
f 1324 1322 1321
f 1326 1325 1327
f 1327 1349 1350
f 1315 1330 1329
f 1334 1320 1319
f 1351 1337 1334
f 1339 1336 1335
f 1352 1342 1353
f 1344 1341 1340
f 1346 1345 1347
f 1347 1354 1355
f 1356 1357 1355
f 1356 1358 1359
f 1308 1307 1321
f 1350 1328 1327
f 1360 1361 1350
f 1360 1362 1363
f 1364 1365 1366
f 1365 1367 1331
f 1315 1332 1313
f 1337 1351 1335
f 1338 1368 1353
f 1342 1352 1340
f 1355 1348 1347
f 1359 1357 1356
f 1358 1369 1370
f 1369 1371 1372
f 1373 1374 1375
f 1373 1376 1311
f 1324 1323 1325
f 1363 1361 1360
f 1377 1378 1363
f 1377 1379 1380
f 1381 1382 1380
f 1381 1383 1384
f 1385 1386 1384
f 1385 1387 1388
f 1364 1389 1388
f 1331 1366 1365
f 1334 1333 1351
f 1353 1368 1352
f 1355 1354 1356
f 1372 1370 1369
f 1311 1374 1373
f 1350 1349 1360
f 1380 1378 1377
f 1384 1382 1381
f 1388 1386 1385
f 1366 1389 1364
f 1353 1339 1338
f 1370 1359 1358
f 1311 1376 1309
f 1380 1379 1381
f 1388 1387 1364
f 1344 1343 1345
f 1363 1362 1377
f 1331 1367 1329
f 1390 1391 1372
f 1390 1392 1375
f 1384 1383 1385
f 1375 1391 1390
f 1372 1371 1390
f 1375 1392 1373
