v -4.33680869e-19 -1.08420217e-18 0.0776000023
v 0.0049892948 0.000327015645 0.0776000023
v 0.00492403889 0.000868240895 0.0776000023
v 0.00480024936 0.00139914511 0.0776000023
v 0.00461939769 0.00191341713 0.0776000023
v 0.00438363384 0.00240494381 0.0776000023
v 0.00409576017 0.00286788214 0.0776000023
v 0.00375919905 0.00329672918 0.0776000023
v 0.00337795098 0.00368638663 0.0776000023
v 0.00295654824 0.00403222302 0.0776000023
v 0.00249999994 0.00433012703 0.0776000023
v 0.00221144338 0.00448436383 0.0776000023
v 0.00191341713 0.00461939769 0.0776000023
v 0.00160719734 0.00473465072 0.0776000023
v 0.00129409519 0.00482962932 0.0776000023
v 0.000975451607 0.00490392651 0.0776000023
v 0.000652630988 0.00495722424 0.0776000023
v 0.000327015645 0.0049892948 0.0776000023
v -7.39842592e-19 0.00499999989 0.0776000023
v -0.000327015645 0.0049892948 0.0776000023
v -0.000652630988 0.00495722424 0.0776000023
v -0.000975451607 0.00490392651 0.0776000023
v -0.00129409519 0.00482962932 0.0776000023
v -0.00160719734 0.00473465072 0.0776000023
v -0.00191341713 0.00461939769 0.0776000023
v -0.00221144338 0.00448436383 0.0776000023
v -0.00249999994 0.00433012703 0.0776000023
v -0.00295654824 0.00403222302 0.0776000023
v -0.00337795098 0.00368638663 0.0776000023
v -0.00375919905 0.00329672918 0.0776000023
v -0.00409576017 0.00286788214 0.0776000023
v -0.00438363384 0.00240494381 0.0776000023
v -0.00461939769 0.00191341713 0.0776000023
v -0.00480024936 0.00139914511 0.0776000023
v -0.00492403889 0.000868240895 0.0776000023
v -0.0049892948 0.000327015645 0.0776000023
v -0.00499999989 -1.08420217e-18 0.0776000023
v -0.0049952413 -0.000218096931 0.0776000023
v -0.00494180759 -0.000760616909 0.0776000023
v -0.00482962932 -0.00129409519 0.0776000023
v -0.00466003921 -0.00181219017 0.0776000023
v -0.00443505403 -0.00230874307 0.0776000023
v -0.00415734807 -0.00277785119 0.0776000023
v -0.00383022218 -0.00321393809 0.0776000023
v -0.00345756533 -0.00361181982 0.0776000023
v -0.00304380711 -0.00396676688 0.0776000023
v -0.00259386632 -0.00427455921 0.0776000023
v -0.00211309129 -0.00453153905 0.0776000023
v -0.00160719734 -0.00473465072 0.0776000023
v -0.00108219811 -0.00488148024 0.0776000023
v -0.000544334354 -0.00497028185 0.0776000023
v 4.8480425e-19 -0.00499999989 0.0776000023
v 0.000544334354 -0.00497028185 0.0776000023
v 0.00108219811 -0.00488148024 0.0776000023
v 0.00160719734 -0.00473465072 0.0776000023
v 0.00211309129 -0.00453153905 0.0776000023
v 0.00259386632 -0.00427455921 0.0776000023
v 0.00304380711 -0.00396676688 0.0776000023
v 0.00345756533 -0.00361181982 0.0776000023
v 0.00383022218 -0.00321393809 0.0776000023
v 0.00415734807 -0.00277785119 0.0776000023
v 0.00443505403 -0.00230874307 0.0776000023
v 0.00466003921 -0.00181219017 0.0776000023
v 0.00482962932 -0.00129409519 0.0776000023
v 0.00494180759 -0.000760616909 0.0776000023
v 0.0049952413 -0.000218096931 0.0776000023
v 0.00499999989 7.52768013e-19 0.0776000023
v -0.00600000005 -2.55377828e-18 0.0766000003
v -0.00499999989 -1.08420217e-18 0.0776000023
v -0.0049892948 0.000327015645 0.0776000023
v -0.00598715339 0.000392418762 0.0766000003
v -0.00492403889 0.000868240895 0.0776000023
v -0.00590884639 0.00104188907 0.0766000003
v -0.00480024936 0.00139914511 0.0776000023
v -0.00576029904 0.00167897413 0.0766000003
v -0.00461939769 0.00191341713 0.0776000023
v -0.00554327713 0.0022961006 0.0766000003
v -0.00438363384 0.00240494381 0.0776000023
v -0.00526036043 0.00288593257 0.0766000003
v -0.00409576017 0.00286788214 0.0776000023
v -0.0049149124 0.00344145857 0.0766000003
v -0.00375919905 0.00329672918 0.0776000023
v -0.00451103877 0.00395607483 0.0766000003
v -0.00337795098 0.00368638663 0.0776000023
v -0.00405354146 0.00442366395 0.0766000003
v -0.00295654824 0.00403222302 0.0776000023
v -0.00354785798 0.00483866781 0.0766000003
v -0.00249999994 0.00433012703 0.0776000023
v 0.00300000003 0.00519615225 0.0766000003
v 0.00249999994 0.00433012703 0.0776000023
v 0.00295654824 0.00403222302 0.0776000023
v 0.00354785798 0.00483866781 0.0766000003
v 0.00337795098 0.00368638663 0.0776000023
v 0.00405354146 0.00442366395 0.0766000003
v 0.00375919905 0.00329672918 0.0776000023
v 0.00451103877 0.00395607483 0.0766000003
v 0.00409576017 0.00286788214 0.0776000023
v 0.0049149124 0.00344145857 0.0766000003
v 0.00438363384 0.00240494381 0.0776000023
v 0.00526036043 0.00288593257 0.0766000003
v 0.00461939769 0.00191341713 0.0776000023
v 0.00554327713 0.0022961006 0.0766000003
v 0.00480024936 0.00139914511 0.0776000023
v 0.00576029904 0.00167897413 0.0766000003
v 0.00492403889 0.000868240895 0.0776000023
v 0.00590884639 0.00104188907 0.0766000003
v 0.0049892948 0.000327015645 0.0776000023
v 0.00598715339 0.000392418762 0.0766000003
v 0.00499999989 7.52768013e-19 0.0776000023
v 0.00599428918 -0.000261716312 0.0766000003
v 0.0049952413 -0.000218096931 0.0776000023
v 0.00494180759 -0.000760616909 0.0776000023
v 0.00593016902 -0.000912740303 0.0766000003
v 0.00482962932 -0.00129409519 0.0776000023
v 0.00579555519 -0.00155291427 0.0766000003
v 0.00466003921 -0.00181219017 0.0776000023
v 0.00559204724 -0.0021746282 0.0766000003
v 0.00443505403 -0.00230874307 0.0776000023
v 0.0053220652 -0.00277049164 0.0766000003
v 0.00415734807 -0.00277785119 0.0776000023
v 0.0049888175 -0.00333342142 0.0766000003
v 0.00383022218 -0.00321393809 0.0776000023
v 0.00459626643 -0.00385672576 0.0766000003
v 0.00345756533 -0.00361181982 0.0776000023
v 0.00414907839 -0.00433418388 0.0766000003
v 0.00304380711 -0.00396676688 0.0776000023
v 0.00365256867 -0.00476012006 0.0766000003
v 0.00259386632 -0.00427455921 0.0776000023
v 0.00311263953 -0.00512947142 0.0766000003
v 0.00211309129 -0.00453153905 0.0776000023
v 0.00253570965 -0.00543784676 0.0766000003
v 0.00160719734 -0.00473465072 0.0776000023
v 0.0019286368 -0.00568158086 0.0766000003
v 0.00108219811 -0.00488148024 0.0776000023
v 0.00129863771 -0.00585777592 0.0766000003
v 0.000544334354 -0.00497028185 0.0776000023
v 0.000653201248 -0.00596433785 0.0766000003
v 4.8480425e-19 -0.00499999989 0.0776000023
v 6.68501263e-19 -0.00600000005 0.0766000003
v -0.000544334354 -0.00497028185 0.0776000023
v -0.000653201248 -0.00596433785 0.0766000003
v -0.00108219811 -0.00488148024 0.0776000023
v -0.00129863771 -0.00585777592 0.0766000003
v -0.00160719734 -0.00473465072 0.0776000023
v -0.0019286368 -0.00568158086 0.0766000003
v -0.00211309129 -0.00453153905 0.0776000023
v -0.00253570965 -0.00543784676 0.0766000003
v -0.00259386632 -0.00427455921 0.0776000023
v -0.00311263953 -0.00512947142 0.0766000003
v -0.00304380711 -0.00396676688 0.0776000023
v -0.00365256867 -0.00476012006 0.0766000003
v -0.00345756533 -0.00361181982 0.0776000023
v -0.00414907839 -0.00433418388 0.0766000003
v -0.00383022218 -0.00321393809 0.0776000023
v -0.00459626643 -0.00385672576 0.0766000003
v -0.00415734807 -0.00277785119 0.0776000023
v -0.0049888175 -0.00333342142 0.0766000003
v -0.00443505403 -0.00230874307 0.0776000023
v -0.0053220652 -0.00277049164 0.0766000003
v -0.00466003921 -0.00181219017 0.0776000023
v -0.00559204724 -0.0021746282 0.0766000003
v -0.00482962932 -0.00129409519 0.0776000023
v -0.00579555519 -0.00155291427 0.0766000003
v -0.00494180759 -0.000760616909 0.0776000023
v -0.00593016902 -0.000912740303 0.0766000003
v -0.0049952413 -0.000218096931 0.0776000023
v -0.00599428918 -0.000261716312 0.0766000003
v 0.00256245886 0.00519615225 0.0768063664
v 0.00221144338 0.00448436383 0.0776000023
v 0.00215911982 0.00519615225 0.0769610479
v 0.00191341713 0.00461939769 0.0776000023
v 0.00176385604 0.00519615225 0.0771126375
v 0.00160719734 0.00473465072 0.0776000023
v 0.0013923049 0.00519615225 0.0772205442
v 0.00129409519 0.00482962932 0.0776000023
v 0.001033579 0.00519615225 0.0773020461
v 0.000975451607 0.00490392651 0.0776000023
v 0.000684086466 0.00519615225 0.0773590133
v 0.000652630988 0.00495722424 0.0776000023
v 0.00034057381 0.00519615225 0.0773926973
v -2.1591422e-18 0.00519615225 0.0774038509
v -7.39842592e-19 0.00499999989 0.0776000023
v -0.00034057381 0.00519615225 0.0773926973
v -0.000327015645 0.0049892948 0.0776000023
v -0.000652630988 0.00495722424 0.0776000023
v -0.000975451607 0.00490392651 0.0776000023
v -0.000684086466 0.00519615225 0.0773590133
v -0.00129409519 0.00482962932 0.0776000023
v -0.001033579 0.00519615225 0.0773020461
v -0.00160719734 0.00473465072 0.0776000023
v -0.0013923049 0.00519615225 0.0772205442
v -0.00191341713 0.00461939769 0.0776000023
v -0.00176385604 0.00519615225 0.0771126375
v -0.00221144338 0.00448436383 0.0776000023
v -0.00215231674 0.00519615225 0.0769757256
v -0.00257154834 0.00519615225 0.0767899081
v -0.00300000003 0.00519615225 0.0766000003
v 0.000327015645 0.0049892948 0.0776000023
v 0.00300000003 0.00519615225 -0.00899999961
v 0.00300000003 0.00519615225 0.0766000003
v 0.00354785798 0.00483866781 0.0766000003
v 0.00354785798 0.00483866781 -0.00899999961
v 0.00405354146 0.00442366395 0.0766000003
v 0.00405354146 0.00442366395 -0.00899999961
v 0.00451103877 0.00395607483 0.0766000003
v 0.00451103877 0.00395607483 -0.00899999961
v 0.0049149124 0.00344145857 0.0766000003
v 0.0049149124 0.00344145857 -0.00899999961
v 0.00526036043 0.00288593257 0.0766000003
v 0.00526036043 0.00288593257 -0.00899999961
v 0.00554327713 0.0022961006 0.0766000003
v 0.00554327713 0.0022961006 -0.00899999961
v 0.00576029904 0.00167897413 0.0766000003
v 0.00576029904 0.00167897413 -0.00899999961
v 0.00590884639 0.00104188907 0.0766000003
v 0.00590884639 0.00104188907 -0.00899999961
v 0.00598715339 0.000392418762 0.0766000003
v 0.00599428918 -0.000261716312 0.0766000003
v 0.00599428918 -0.000261716312 -0.00899999961
v 0.00600000005 -2.55377828e-18 -0.00899999961
v 0.00593016902 -0.000912740303 0.0766000003
v 0.00593016902 -0.000912740303 -0.00899999961
v 0.00579555519 -0.00155291427 0.0766000003
v 0.00579555519 -0.00155291427 -0.00899999961
v 0.00559204724 -0.0021746282 0.0766000003
v 0.00559204724 -0.0021746282 -0.00899999961
v 0.0053220652 -0.00277049164 0.0766000003
v 0.0053220652 -0.00277049164 -0.00899999961
v 0.0049888175 -0.00333342142 0.0766000003
v 0.0049888175 -0.00333342142 -0.00899999961
v 0.00459626643 -0.00385672576 0.0766000003
v 0.00459626643 -0.00385672576 -0.00899999961
v 0.00414907839 -0.00433418388 0.0766000003
v 0.00414907839 -0.00433418388 -0.00899999961
v 0.00365256867 -0.00476012006 0.0766000003
v 0.00365256867 -0.00476012006 -0.00899999961
v 0.00311263953 -0.00512947142 0.0766000003
v 0.00311263953 -0.00512947142 -0.00899999961
v 0.00253570965 -0.00543784676 0.0766000003
v 0.00253570965 -0.00543784676 -0.00899999961
v 0.0019286368 -0.00568158086 0.0766000003
v 0.0019286368 -0.00568158086 -0.00899999961
v 0.00129863771 -0.00585777592 0.0766000003
v 0.00129863771 -0.00585777592 -0.00899999961
v 0.000653201248 -0.00596433785 0.0766000003
v 0.000653201248 -0.00596433785 -0.00899999961
v 6.68501263e-19 -0.00600000005 0.0766000003
v -1.53586295e-18 -0.00600000005 -0.00899999961
v -0.000653201248 -0.00596433785 0.0766000003
v -0.000653201248 -0.00596433785 -0.00899999961
v -0.00129863771 -0.00585777592 0.0766000003
v -0.00129863771 -0.00585777592 -0.00899999961
v -0.0019286368 -0.00568158086 0.0766000003
v -0.0019286368 -0.00568158086 -0.00899999961
v -0.00253570965 -0.00543784676 0.0766000003
v -0.00253570965 -0.00543784676 -0.00899999961
v -0.00311263953 -0.00512947142 0.0766000003
v -0.00311263953 -0.00512947142 -0.00899999961
v -0.00365256867 -0.00476012006 0.0766000003
v -0.00365256867 -0.00476012006 -0.00899999961
v -0.00414907839 -0.00433418388 0.0766000003
v -0.00414907839 -0.00433418388 -0.00899999961
v -0.00459626643 -0.00385672576 0.0766000003
v -0.00459626643 -0.00385672576 -0.00899999961
v -0.0049888175 -0.00333342142 0.0766000003
v -0.0049888175 -0.00333342142 -0.00899999961
v -0.0053220652 -0.00277049164 0.0766000003
v -0.0053220652 -0.00277049164 -0.00899999961
v -0.00559204724 -0.0021746282 0.0766000003
v -0.00559204724 -0.0021746282 -0.00899999961
v -0.00579555519 -0.00155291427 0.0766000003
v -0.00579555519 -0.00155291427 -0.00899999961
v -0.00593016902 -0.000912740303 0.0766000003
v -0.00593016902 -0.000912740303 -0.00899999961
v -0.00599428918 -0.000261716312 0.0766000003
v -0.00599428918 -0.000261716312 -0.00899999961
v -0.00600000005 -2.55377828e-18 0.0766000003
v -0.00598715339 0.000392418762 -0.00899999961
v -0.00598715339 0.000392418762 0.0766000003
v -0.00590884639 0.00104188907 0.0766000003
v -0.00590884639 0.00104188907 -0.00899999961
v -0.00576029904 0.00167897413 0.0766000003
v -0.00576029904 0.00167897413 -0.00899999961
v -0.00554327713 0.0022961006 0.0766000003
v -0.00554327713 0.0022961006 -0.00899999961
v -0.00526036043 0.00288593257 0.0766000003
v -0.00526036043 0.00288593257 -0.00899999961
v -0.0049149124 0.00344145857 0.0766000003
v -0.0049149124 0.00344145857 -0.00899999961
v -0.00451103877 0.00395607483 0.0766000003
v -0.00451103877 0.00395607483 -0.00899999961
v -0.00405354146 0.00442366395 0.0766000003
v -0.00405354146 0.00442366395 -0.00899999961
v -0.00354785798 0.00483866781 0.0766000003
v -0.00354785798 0.00483866781 -0.00899999961
v -0.00300000003 0.00519615225 0.0766000003
v -0.00300000003 0.00519615225 -0.00899999961
v 0.00598715339 0.000392418762 -0.00899999961
v 0.00300000003 0.00519615225 0.0766000003
v 0.00034057381 0.00519615225 -0.00979269855
v -1.62559227e-19 0.00519615225 -0.00980384741
v -0.00034057381 0.00519615225 -0.00979269855
v -0.00300000003 0.00519615225 -0.00899999961
v -0.00034057381 0.00519615225 0.0773926973
v -2.1591422e-18 0.00519615225 0.0774038509
v 0.000684086466 0.00519615225 -0.00975900982
v -0.000684086466 0.00519615225 0.0773590133
v -0.000684086466 0.00519615225 -0.00975900982
v 0.00034057381 0.00519615225 0.0773926973
v 0.001033579 0.00519615225 -0.0097020492
v 0.000684086466 0.00519615225 0.0773590133
v 0.0013923049 0.00519615225 -0.00962054729
v -0.001033579 0.00519615225 0.0773020461
v -0.001033579 0.00519615225 -0.0097020492
v 0.00257154834 0.00519615225 -0.0091899056
v 0.00176385604 0.00519615225 -0.00951263402
v -0.0013923049 0.00519615225 0.0772205442
v -0.0013923049 0.00519615225 -0.00962054729
v -0.00176385604 0.00519615225 -0.00951263402
v 0.001033579 0.00519615225 0.0773020461
v -0.00257154834 0.00519615225 0.0767899081
v -0.00176385604 0.00519615225 0.0771126375
v -0.00256245886 0.00519615225 -0.00920636579
v 0.0013923049 0.00519615225 0.0772205442
v 0.00176385604 0.00519615225 0.0771126375
v 0.00215911982 0.00519615225 0.0769610479
v 0.00256245886 0.00519615225 0.0768063664
v 0.00300000003 0.00519615225 -0.00899999961
v -0.00215911982 0.00519615225 -0.00936104823
v -0.00300000003 0.00519615225 0.0766000003
v 0.00215231674 0.00519615225 -0.00937572494
v -0.00215231674 0.00519615225 0.0769757256
v 0.00600000005 -2.55377828e-18 -0.00899999961
v 0.00499999989 -2.30884907e-18 -0.00999999978
v 0.0049892948 0.000327015645 -0.00999999978
v 0.00598715339 0.000392418762 -0.00899999961
v 0.00492403889 0.000868240895 -0.00999999978
v 0.00590884639 0.00104188907 -0.00899999961
v 0.00480024936 0.00139914511 -0.00999999978
v 0.00576029904 0.00167897413 -0.00899999961
v 0.00461939769 0.00191341713 -0.00999999978
v 0.00554327713 0.0022961006 -0.00899999961
v 0.00438363384 0.00240494381 -0.00999999978
v 0.00526036043 0.00288593257 -0.00899999961
v 0.00409576017 0.00286788214 -0.00999999978
v 0.0049149124 0.00344145857 -0.00899999961
v 0.00375919905 0.00329672918 -0.00999999978
v 0.00451103877 0.00395607483 -0.00899999961
v 0.00337795098 0.00368638663 -0.00999999978
v 0.00405354146 0.00442366395 -0.00899999961
v 0.00295654824 0.00403222302 -0.00999999978
v 0.00354785798 0.00483866781 -0.00899999961
v 0.00249999994 0.00433012703 -0.00999999978
v -0.00300000003 0.00519615225 -0.00899999961
v -0.00249999994 0.00433012703 -0.00999999978
v -0.00295654824 0.00403222302 -0.00999999978
v -0.00354785798 0.00483866781 -0.00899999961
v -0.00337795098 0.00368638663 -0.00999999978
v -0.00405354146 0.00442366395 -0.00899999961
v -0.00375919905 0.00329672918 -0.00999999978
v -0.00451103877 0.00395607483 -0.00899999961
v -0.00409576017 0.00286788214 -0.00999999978
v -0.0049149124 0.00344145857 -0.00899999961
v -0.00438363384 0.00240494381 -0.00999999978
v -0.00526036043 0.00288593257 -0.00899999961
v -0.00461939769 0.00191341713 -0.00999999978
v -0.00554327713 0.0022961006 -0.00899999961
v -0.00480024936 0.00139914511 -0.00999999978
v -0.00576029904 0.00167897413 -0.00899999961
v -0.00492403889 0.000868240895 -0.00999999978
v -0.00590884639 0.00104188907 -0.00899999961
v -0.0049892948 0.000327015645 -0.00999999978
v -0.00598715339 0.000392418762 -0.00899999961
v -0.0049952413 -0.000218096931 -0.00999999978
v -0.00599428918 -0.000261716312 -0.00899999961
v -0.00494180759 -0.000760616909 -0.00999999978
v -0.00593016902 -0.000912740303 -0.00899999961
v -0.00482962932 -0.00129409519 -0.00999999978
v -0.00579555519 -0.00155291427 -0.00899999961
v -0.00466003921 -0.00181219017 -0.00999999978
v -0.00559204724 -0.0021746282 -0.00899999961
v -0.00443505403 -0.00230874307 -0.00999999978
v -0.0053220652 -0.00277049164 -0.00899999961
v -0.00415734807 -0.00277785119 -0.00999999978
v -0.0049888175 -0.00333342142 -0.00899999961
v -0.00383022218 -0.00321393809 -0.00999999978
v -0.00459626643 -0.00385672576 -0.00899999961
v -0.00345756533 -0.00361181982 -0.00999999978
v -0.00414907839 -0.00433418388 -0.00899999961
v -0.00304380711 -0.00396676688 -0.00999999978
v -0.00365256867 -0.00476012006 -0.00899999961
v -0.00259386632 -0.00427455921 -0.00999999978
v -0.00311263953 -0.00512947142 -0.00899999961
v -0.00211309129 -0.00453153905 -0.00999999978
v -0.00253570965 -0.00543784676 -0.00899999961
v -0.00160719734 -0.00473465072 -0.00999999978
v -0.0019286368 -0.00568158086 -0.00899999961
v -0.00108219811 -0.00488148024 -0.00999999978
v -0.00129863771 -0.00585777592 -0.00899999961
v -0.000544334354 -0.00497028185 -0.00999999978
v -0.000653201248 -0.00596433785 -0.00899999961
v -1.35216599e-18 -0.00499999989 -0.00999999978
v -1.53586295e-18 -0.00600000005 -0.00899999961
v 0.000544334354 -0.00497028185 -0.00999999978
v 0.000653201248 -0.00596433785 -0.00899999961
v 0.00108219811 -0.00488148024 -0.00999999978
v 0.00129863771 -0.00585777592 -0.00899999961
v 0.00160719734 -0.00473465072 -0.00999999978
v 0.0019286368 -0.00568158086 -0.00899999961
v 0.00211309129 -0.00453153905 -0.00999999978
v 0.00253570965 -0.00543784676 -0.00899999961
v 0.00259386632 -0.00427455921 -0.00999999978
v 0.00311263953 -0.00512947142 -0.00899999961
v 0.00304380711 -0.00396676688 -0.00999999978
v 0.00365256867 -0.00476012006 -0.00899999961
v 0.00345756533 -0.00361181982 -0.00999999978
v 0.00414907839 -0.00433418388 -0.00899999961
v 0.00383022218 -0.00321393809 -0.00999999978
v 0.00459626643 -0.00385672576 -0.00899999961
v 0.00415734807 -0.00277785119 -0.00999999978
v 0.0049888175 -0.00333342142 -0.00899999961
v 0.00443505403 -0.00230874307 -0.00999999978
v 0.0053220652 -0.00277049164 -0.00899999961
v 0.00466003921 -0.00181219017 -0.00999999978
v 0.00559204724 -0.0021746282 -0.00899999961
v 0.00482962932 -0.00129409519 -0.00999999978
v 0.00579555519 -0.00155291427 -0.00899999961
v 0.00494180759 -0.000760616909 -0.00999999978
v 0.00593016902 -0.000912740303 -0.00899999961
v 0.0049952413 -0.000218096931 -0.00999999978
v 0.00599428918 -0.000261716312 -0.00899999961
v -0.00256245886 0.00519615225 -0.00920636579
v -0.00221144338 0.00448436383 -0.00999999978
v -0.00215911982 0.00519615225 -0.00936104823
v -0.00191341713 0.00461939769 -0.00999999978
v -0.00176385604 0.00519615225 -0.00951263402
v -0.00160719734 0.00473465072 -0.00999999978
v -0.0013923049 0.00519615225 -0.00962054729
v -0.00129409519 0.00482962932 -0.00999999978
v -0.001033579 0.00519615225 -0.0097020492
v -0.000975451607 0.00490392651 -0.00999999978
v -0.000684086466 0.00519615225 -0.00975900982
v -0.000652630988 0.00495722424 -0.00999999978
v -0.00034057381 0.00519615225 -0.00979269855
v -1.62559227e-19 0.00519615225 -0.00980384741
v -1.27519171e-19 0.00499999989 -0.00999999978
v 0.00034057381 0.00519615225 -0.00979269855
v 0.000327015645 0.0049892948 -0.00999999978
v 0.000652630988 0.00495722424 -0.00999999978
v 0.000975451607 0.00490392651 -0.00999999978
v 0.000684086466 0.00519615225 -0.00975900982
v 0.00129409519 0.00482962932 -0.00999999978
v 0.001033579 0.00519615225 -0.0097020492
v 0.00160719734 0.00473465072 -0.00999999978
v 0.0013923049 0.00519615225 -0.00962054729
v 0.00191341713 0.00461939769 -0.00999999978
v 0.00176385604 0.00519615225 -0.00951263402
v 0.00221144338 0.00448436383 -0.00999999978
v 0.00215231674 0.00519615225 -0.00937572494
v 0.00257154834 0.00519615225 -0.0091899056
v 0.00300000003 0.00519615225 -0.00899999961
v -0.000327015645 0.0049892948 -0.00999999978
v -4.33680869e-19 -1.08420217e-18 -0.00999999978
v 0.0049952413 -0.000218096931 -0.00999999978
v 0.00494180759 -0.000760616909 -0.00999999978
v 0.00482962932 -0.00129409519 -0.00999999978
v 0.00466003921 -0.00181219017 -0.00999999978
v 0.00443505403 -0.00230874307 -0.00999999978
v 0.00415734807 -0.00277785119 -0.00999999978
v 0.00383022218 -0.00321393809 -0.00999999978
v 0.00345756533 -0.00361181982 -0.00999999978
v 0.00304380711 -0.00396676688 -0.00999999978
v 0.00259386632 -0.00427455921 -0.00999999978
v 0.00211309129 -0.00453153905 -0.00999999978
v 0.00160719734 -0.00473465072 -0.00999999978
v 0.00108219811 -0.00488148024 -0.00999999978
v 0.000544334354 -0.00497028185 -0.00999999978
v -1.35216599e-18 -0.00499999989 -0.00999999978
v -0.000544334354 -0.00497028185 -0.00999999978
v -0.00108219811 -0.00488148024 -0.00999999978
v -0.00160719734 -0.00473465072 -0.00999999978
v -0.00211309129 -0.00453153905 -0.00999999978
v -0.00259386632 -0.00427455921 -0.00999999978
v -0.00304380711 -0.00396676688 -0.00999999978
v -0.00345756533 -0.00361181982 -0.00999999978
v -0.00383022218 -0.00321393809 -0.00999999978
v -0.00415734807 -0.00277785119 -0.00999999978
v -0.00443505403 -0.00230874307 -0.00999999978
v -0.00466003921 -0.00181219017 -0.00999999978
v -0.00482962932 -0.00129409519 -0.00999999978
v -0.00494180759 -0.000760616909 -0.00999999978
v -0.0049952413 -0.000218096931 -0.00999999978
v -0.0049892948 0.000327015645 -0.00999999978
v -0.00492403889 0.000868240895 -0.00999999978
v -0.00480024936 0.00139914511 -0.00999999978
v -0.00461939769 0.00191341713 -0.00999999978
v -0.00438363384 0.00240494381 -0.00999999978
v -0.00409576017 0.00286788214 -0.00999999978
v -0.00375919905 0.00329672918 -0.00999999978
v -0.00337795098 0.00368638663 -0.00999999978
v -0.00295654824 0.00403222302 -0.00999999978
v -0.00249999994 0.00433012703 -0.00999999978
v -0.00221144338 0.00448436383 -0.00999999978
v -0.00191341713 0.00461939769 -0.00999999978
v -0.00160719734 0.00473465072 -0.00999999978
v -0.00129409519 0.00482962932 -0.00999999978
v -0.000975451607 0.00490392651 -0.00999999978
v -0.000652630988 0.00495722424 -0.00999999978
v -0.000327015645 0.0049892948 -0.00999999978
v -1.27519171e-19 0.00499999989 -0.00999999978
v 0.000327015645 0.0049892948 -0.00999999978
v 0.000652630988 0.00495722424 -0.00999999978
v 0.000975451607 0.00490392651 -0.00999999978
v 0.00129409519 0.00482962932 -0.00999999978
v 0.00160719734 0.00473465072 -0.00999999978
v 0.00191341713 0.00461939769 -0.00999999978
v 0.00221144338 0.00448436383 -0.00999999978
v 0.00249999994 0.00433012703 -0.00999999978
v 0.00295654824 0.00403222302 -0.00999999978
v 0.00337795098 0.00368638663 -0.00999999978
v 0.00375919905 0.00329672918 -0.00999999978
v 0.00409576017 0.00286788214 -0.00999999978
v 0.00438363384 0.00240494381 -0.00999999978
v 0.00461939769 0.00191341713 -0.00999999978
v 0.00480024936 0.00139914511 -0.00999999978
v 0.00492403889 0.000868240895 -0.00999999978
v 0.0049892948 0.000327015645 -0.00999999978
v 0.00499999989 -2.30884907e-18 -0.00999999978
f 1 2 3
f 3 4 1
f 4 5 1
f 5 6 1
f 6 7 1
f 7 8 1
f 8 9 1
f 9 10 1
f 10 11 1
f 11 12 1
f 12 13 1
f 13 14 1
f 14 15 1
f 15 16 1
f 16 17 1
f 17 18 1
f 18 19 1
f 19 20 1
f 20 21 1
f 21 22 1
f 22 23 1
f 23 24 1
f 24 25 1
f 25 26 1
f 26 27 1
f 27 28 1
f 28 29 1
f 29 30 1
f 30 31 1
f 31 32 1
f 32 33 1
f 33 34 1
f 34 35 1
f 35 36 1
f 36 37 1
f 37 38 1
f 38 39 1
f 39 40 1
f 40 41 1
f 41 42 1
f 42 43 1
f 43 44 1
f 44 45 1
f 45 46 1
f 46 47 1
f 47 48 1
f 48 49 1
f 49 50 1
f 50 51 1
f 51 52 1
f 52 53 1
f 53 54 1
f 54 55 1
f 55 56 1
f 56 57 1
f 57 58 1
f 58 59 1
f 59 60 1
f 60 61 1
f 61 62 1
f 62 63 1
f 63 64 1
f 64 65 1
f 65 66 1
f 66 67 1
f 67 2 1
f 68 69 70
f 71 70 72
f 73 72 74
f 75 74 76
f 77 76 78
f 79 78 80
f 81 80 82
f 83 82 84
f 85 84 86
f 87 86 88
f 89 90 91
f 92 91 93
f 94 93 95
f 96 95 97
f 98 97 99
f 100 99 101
f 102 101 103
f 104 103 105
f 106 105 107
f 108 107 109
f 109 110 108
f 110 111 112
f 113 112 114
f 115 114 116
f 117 116 118
f 119 118 120
f 121 120 122
f 123 122 124
f 125 124 126
f 127 126 128
f 129 128 130
f 131 130 132
f 133 132 134
f 135 134 136
f 137 136 138
f 139 138 140
f 141 140 142
f 143 142 144
f 145 144 146
f 147 146 148
f 149 148 150
f 151 150 152
f 153 152 154
f 155 154 156
f 157 156 158
f 159 158 160
f 161 160 162
f 163 162 164
f 165 164 166
f 167 166 69
f 90 89 168
f 169 168 170
f 171 170 172
f 173 172 174
f 175 174 176
f 177 176 178
f 179 178 180
f 180 181 182
f 183 184 182
f 185 184 183
f 186 185 187
f 188 186 189
f 190 188 191
f 192 190 193
f 194 192 195
f 88 194 196
f 196 197 88
f 195 196 194
f 193 195 192
f 191 193 190
f 189 191 188
f 187 189 186
f 183 187 185
f 182 181 183
f 182 198 180
f 180 198 179
f 178 179 177
f 176 177 175
f 174 175 173
f 172 173 171
f 170 171 169
f 168 169 90
f 69 68 167
f 166 167 165
f 164 165 163
f 162 163 161
f 160 161 159
f 158 159 157
f 156 157 155
f 154 155 153
f 152 153 151
f 150 151 149
f 148 149 147
f 146 147 145
f 144 145 143
f 142 143 141
f 140 141 139
f 138 139 137
f 136 137 135
f 134 135 133
f 132 133 131
f 130 131 129
f 128 129 127
f 126 127 125
f 124 125 123
f 122 123 121
f 120 121 119
f 118 119 117
f 116 117 115
f 114 115 113
f 112 113 110
f 109 111 110
f 107 108 106
f 105 106 104
f 103 104 102
f 101 102 100
f 99 100 98
f 97 98 96
f 95 96 94
f 93 94 92
f 91 92 89
f 88 197 87
f 86 87 85
f 84 85 83
f 82 83 81
f 80 81 79
f 78 79 77
f 76 77 75
f 74 75 73
f 72 73 71
f 70 71 68
f 199 200 201
f 202 201 203
f 204 203 205
f 206 205 207
f 208 207 209
f 210 209 211
f 212 211 213
f 214 213 215
f 216 215 217
f 218 219 220
f 220 217 218
f 219 218 221
f 222 221 223
f 224 223 225
f 226 225 227
f 228 227 229
f 230 229 231
f 232 231 233
f 234 233 235
f 236 235 237
f 238 237 239
f 240 239 241
f 242 241 243
f 244 243 245
f 246 245 247
f 248 247 249
f 250 249 251
f 252 251 253
f 254 253 255
f 256 255 257
f 258 257 259
f 260 259 261
f 262 261 263
f 264 263 265
f 266 265 267
f 268 267 269
f 270 269 271
f 272 271 273
f 274 273 275
f 276 275 277
f 277 278 276
f 278 279 280
f 281 280 282
f 283 282 284
f 285 284 286
f 287 286 288
f 289 288 290
f 291 290 292
f 293 292 294
f 295 294 296
f 296 297 295
f 294 295 293
f 292 293 291
f 290 291 289
f 288 289 287
f 286 287 285
f 284 285 283
f 282 283 281
f 280 281 278
f 277 279 278
f 275 276 274
f 273 274 272
f 271 272 270
f 269 270 268
f 267 268 266
f 265 266 264
f 263 264 262
f 261 262 260
f 259 260 258
f 257 258 256
f 255 256 254
f 253 254 252
f 251 252 250
f 249 250 248
f 247 248 246
f 245 246 244
f 243 244 242
f 241 242 240
f 239 240 238
f 237 238 236
f 235 236 234
f 233 234 232
f 231 232 230
f 229 230 228
f 227 228 226
f 225 226 224
f 223 224 222
f 221 222 219
f 220 298 217
f 217 298 216
f 215 216 214
f 213 214 212
f 211 212 210
f 209 210 208
f 207 208 206
f 205 206 204
f 203 204 202
f 201 202 199
f 299 300 301
f 301 302 299
f 303 304 305
f 299 306 300
f 303 307 304
f 302 308 299
f 305 309 303
f 299 310 306
f 309 311 303
f 299 312 310
f 303 313 307
f 308 314 299
f 299 315 316
f 303 317 313
f 299 318 319
f 316 312 299
f 311 320 303
f 303 321 322
f 299 323 303
f 314 318 299
f 303 324 325
f 322 317 303
f 303 326 327
f 299 328 315
f 320 324 303
f 299 329 323
f 319 329 299
f 303 330 321
f 315 331 316
f 325 326 303
f 321 332 322
f 303 327 299
f 333 334 335
f 336 335 337
f 338 337 339
f 340 339 341
f 342 341 343
f 344 343 345
f 346 345 347
f 348 347 349
f 350 349 351
f 352 351 353
f 354 355 356
f 357 356 358
f 359 358 360
f 361 360 362
f 363 362 364
f 365 364 366
f 367 366 368
f 369 368 370
f 371 370 372
f 373 372 374
f 375 374 376
f 377 376 378
f 379 378 380
f 381 380 382
f 383 382 384
f 385 384 386
f 387 386 388
f 389 388 390
f 391 390 392
f 393 392 394
f 395 394 396
f 397 396 398
f 399 398 400
f 401 400 402
f 403 402 404
f 405 404 406
f 407 406 408
f 409 408 410
f 411 410 412
f 413 412 414
f 415 414 416
f 417 416 418
f 419 418 420
f 421 420 422
f 423 422 424
f 425 424 426
f 427 426 428
f 429 428 430
f 431 430 334
f 355 354 432
f 433 432 434
f 435 434 436
f 437 436 438
f 439 438 440
f 441 440 442
f 443 442 444
f 444 445 446
f 445 447 448
f 449 448 447
f 450 449 451
f 452 450 453
f 454 452 455
f 456 454 457
f 458 456 459
f 353 458 460
f 460 461 353
f 459 460 458
f 457 459 456
f 455 457 454
f 453 455 452
f 451 453 450
f 447 451 449
f 448 446 445
f 446 462 444
f 444 462 443
f 442 443 441
f 440 441 439
f 438 439 437
f 436 437 435
f 434 435 433
f 432 433 355
f 334 333 431
f 430 431 429
f 428 429 427
f 426 427 425
f 424 425 423
f 422 423 421
f 420 421 419
f 418 419 417
f 416 417 415
f 414 415 413
f 412 413 411
f 410 411 409
f 408 409 407
f 406 407 405
f 404 405 403
f 402 403 401
f 400 401 399
f 398 399 397
f 396 397 395
f 394 395 393
f 392 393 391
f 390 391 389
f 388 389 387
f 386 387 385
f 384 385 383
f 382 383 381
f 380 381 379
f 378 379 377
f 376 377 375
f 374 375 373
f 372 373 371
f 370 371 369
f 368 369 367
f 366 367 365
f 364 365 363
f 362 363 361
f 360 361 359
f 358 359 357
f 356 357 354
f 353 461 352
f 351 352 350
f 349 350 348
f 347 348 346
f 345 346 344
f 343 344 342
f 341 342 340
f 339 340 338
f 337 338 336
f 335 336 333
f 463 464 465
f 465 466 463
f 466 467 463
f 467 468 463
f 468 469 463
f 469 470 463
f 470 471 463
f 471 472 463
f 472 473 463
f 473 474 463
f 474 475 463
f 475 476 463
f 476 477 463
f 477 478 463
f 478 479 463
f 479 480 463
f 480 481 463
f 481 482 463
f 482 483 463
f 483 484 463
f 484 485 463
f 485 486 463
f 486 487 463
f 487 488 463
f 488 489 463
f 489 490 463
f 490 491 463
f 491 492 463
f 492 493 463
f 493 494 463
f 494 495 463
f 495 496 463
f 496 497 463
f 497 498 463
f 498 499 463
f 499 500 463
f 500 501 463
f 501 502 463
f 502 503 463
f 503 504 463
f 504 505 463
f 505 506 463
f 506 507 463
f 507 508 463
f 508 509 463
f 509 510 463
f 510 511 463
f 511 512 463
f 512 513 463
f 513 514 463
f 514 515 463
f 515 516 463
f 516 517 463
f 517 518 463
f 518 519 463
f 519 520 463
f 520 521 463
f 521 522 463
f 522 523 463
f 523 524 463
f 524 525 463
f 525 526 463
f 526 527 463
f 527 528 463
f 528 464 463
