v 0.0666448921 -0.0221745688 0.211686894
v 0.0675579906 -0.0221512653 0.209964052
v 0.0677102655 -0.022147378 0.210034519
v 0.0663202778 -0.0221828539 0.21149151
v 0.0674142316 -0.0221549347 0.209877521
v 0.0695788488 -0.0220996868 0.211846024
v 0.0692198351 -0.022108851 0.211967036
v 0.0686983243 -0.0221221596 0.210088104
v 0.0688498393 -0.0221182927 0.212048501
v 0.0685344711 -0.0221263431 0.21012418
v 0.0677177384 -0.022147188 0.212048501
v 0.0680331066 -0.0221391395 0.21012418
v 0.0681999028 -0.0221348815 0.210142329
v 0.0673477426 -0.0221566316 0.211967036
v 0.0678692535 -0.0221433211 0.210088104
v 0.0669887289 -0.0221657939 0.211846024
v 0.0688498393 -0.0221182927 0.20514071
v 0.0692198351 -0.022108851 0.205222175
v 0.0686983243 -0.0221221596 0.207101107
v 0.0695788488 -0.0220996868 0.205343187
v 0.0688573197 -0.0221181028 0.207154691
v 0.0699226856 -0.0220909119 0.211686894
v 0.0688573197 -0.0221181028 0.210034519
v 0.0680943653 -0.0221375749 0.205099732
v 0.0681999028 -0.0221348815 0.207046881
v 0.0680331066 -0.0221391395 0.207065031
v 0.0684732124 -0.0221279059 0.205099732
v 0.0683676749 -0.0221305992 0.207046881
v 0.0685344711 -0.0221263431 0.207065031
v 0.0699226856 -0.0220909119 0.205502316
v 0.0690095872 -0.0221142154 0.207225159
v 0.0702473074 -0.0220826268 0.2056977
v 0.0691533461 -0.0221105479 0.20731169
v 0.0708239451 -0.0220679082 0.21100156
v 0.0705489069 -0.0220749285 0.211262167
v 0.0692869127 -0.0221071374 0.209775954
v 0.0702473074 -0.0220826268 0.21149151
v 0.0691533461 -0.0221105479 0.209877521
v 0.0684732124 -0.0221279059 0.212089479
v 0.0683676749 -0.0221305992 0.210142329
v 0.0680943653 -0.0221375749 0.212089479
v 0.0677177384 -0.022147188 0.20514071
v 0.0678692535 -0.0221433211 0.207101107
v 0.0712818131 -0.0220562238 0.210399047
v 0.0710692108 -0.0220616497 0.210712716
v 0.0695173293 -0.022101257 0.209532619
v 0.0694087148 -0.0221040286 0.209660545
v 0.0690095872 -0.0221142154 0.209964052
v 0.0649680793 -0.0222173668 0.207477048
v 0.0668154061 -0.0221702177 0.208099693
v 0.0667705238 -0.0221713632 0.2082614
v 0.0651083067 -0.0222137868 0.207124993
v 0.0668775067 -0.0221686326 0.207943782
v 0.0666448921 -0.0221745688 0.205502316
v 0.0675579906 -0.0221512653 0.207225159
v 0.0674142316 -0.0221549347 0.20731169
v 0.0669887289 -0.0221657939 0.205343187
v 0.0677102655 -0.022147378 0.207154691
v 0.0708239451 -0.0220679082 0.206187651
v 0.0710692108 -0.0220616497 0.206476495
v 0.0695173293 -0.022101257 0.207656592
v 0.0712818131 -0.0220562238 0.206790164
v 0.0696114823 -0.0220988542 0.207795501
v 0.0717008486 -0.0220455285 0.209346995
v 0.0715994984 -0.0220481157 0.209712163
v 0.0697521716 -0.022095263 0.209089518
v 0.071459271 -0.0220516939 0.210064217
v 0.069690071 -0.0220968481 0.209245428
v 0.0696114823 -0.0220988542 0.20939371
v 0.0660186782 -0.0221905522 0.211262167
v 0.067280665 -0.0221583433 0.209775954
v 0.0657436326 -0.0221975725 0.21100156
v 0.0671588629 -0.0221614521 0.209660545
v 0.0654983744 -0.022203831 0.210712716
v 0.0670502484 -0.0221642237 0.209532619
v 0.0652857646 -0.0222092588 0.210399047
v 0.0669560954 -0.0221666265 0.20939371
v 0.0648054406 -0.0222215168 0.20897302
v 0.0667433739 -0.0221720561 0.208762184
v 0.0667705238 -0.0221713632 0.20892781
v 0.0647849292 -0.0222220402 0.208594605
v 0.0667342916 -0.0221722871 0.208594605
v 0.0652857646 -0.0222092588 0.206790164
v 0.0669560954 -0.0221666265 0.207795501
v 0.0654983744 -0.022203831 0.206476495
v 0.0670502484 -0.0221642237 0.207656592
v 0.0657436326 -0.0221975725 0.206187651
v 0.0671588629 -0.0221614521 0.207528666
v 0.0673477426 -0.0221566316 0.205222175
v 0.0705489069 -0.0220749285 0.205927044
v 0.0692869127 -0.0221071374 0.207413256
v 0.071459271 -0.0220516939 0.207124993
v 0.069690071 -0.0220968481 0.207943782
v 0.0717008486 -0.0220455285 0.207842216
v 0.0717621371 -0.0220439639 0.20821619
v 0.0698242038 -0.0220934246 0.208427027
v 0.0717826486 -0.0220434405 0.208594605
v 0.0698332861 -0.0220931936 0.208594605
v 0.0717621371 -0.0220439639 0.20897302
v 0.0697970614 -0.0220941175 0.20892781
v 0.0651083067 -0.0222137868 0.210064217
v 0.0668775067 -0.0221686326 0.209245428
v 0.0649680793 -0.0222173668 0.209712163
v 0.0668154061 -0.0221702177 0.209089518
v 0.0648667291 -0.0222199522 0.209346995
v 0.0648054406 -0.0222215168 0.20821619
v 0.0667433739 -0.0221720561 0.208427027
v 0.0648667291 -0.0222199522 0.207842216
v 0.0694087148 -0.0221040286 0.207528666
v 0.0715994984 -0.0220481157 0.207477048
v 0.0697970614 -0.0220941175 0.2082614
v 0.0698242038 -0.0220934246 0.208762184
v 0.0697521716 -0.022095263 0.208099693
v 0.0660186782 -0.0221905522 0.205927044
v 0.067280665 -0.0221583433 0.207413256
v 0.0663202778 -0.0221828539 0.2056977
v 0.0658039302 0.0146362111 0.208427027
v 0.0657948479 0.0146359792 0.208594605
v 0.0667342916 -0.0221722871 0.208594605
v 0.0658310726 0.0146369031 0.2082614
v 0.0667433739 -0.0221720561 0.208427027
v 0.0658759624 0.0146380486 0.208099693
v 0.0667705238 -0.0221713632 0.2082614
v 0.065938063 0.0146396337 0.207943782
v 0.0668154061 -0.0221702177 0.208099693
v 0.0660166442 0.0146416398 0.207795501
v 0.0668775067 -0.0221686326 0.207943782
v 0.0661108047 0.0146440426 0.207656592
v 0.0669560954 -0.0221666265 0.207795501
v 0.0662194192 0.0146468151 0.207528666
v 0.0670502484 -0.0221642237 0.207656592
v 0.0663412213 0.0146499239 0.207413256
v 0.0671588629 -0.0221614521 0.207528666
v 0.0664747879 0.0146533325 0.20731169
v 0.067280665 -0.0221583433 0.207413256
v 0.0666185468 0.0146570019 0.207225159
v 0.0674142316 -0.0221549347 0.20731169
v 0.0667708144 0.0146608884 0.207154691
v 0.0675579906 -0.0221512653 0.207225159
v 0.0669298097 0.0146649461 0.207101107
v 0.0677102655 -0.022147378 0.207154691
v 0.0670936629 0.0146691278 0.207065031
v 0.0678692535 -0.0221433211 0.207101107
v 0.0672604591 0.0146733848 0.207046881
v 0.0680331066 -0.0221391395 0.207065031
v 0.0674282312 0.0146776671 0.207046881
v 0.0681999028 -0.0221348815 0.207046881
v 0.0675950274 0.0146819241 0.207065031
v 0.0683676749 -0.0221305992 0.207046881
v 0.0677588806 0.0146861058 0.207101107
v 0.0685344711 -0.0221263431 0.207065031
v 0.0679178685 0.0146901645 0.207154691
v 0.0686983243 -0.0221221596 0.207101107
v 0.0680701435 0.01469405 0.207225159
v 0.0688573197 -0.0221181028 0.207154691
v 0.0682139024 0.0146977194 0.20731169
v 0.0690095872 -0.0221142154 0.207225159
v 0.068347469 0.0147011289 0.207413256
v 0.0691533461 -0.0221105479 0.20731169
v 0.0684692711 0.0147042377 0.207528666
v 0.0692869127 -0.0221071374 0.207413256
v 0.0685778856 0.0147070093 0.207656592
v 0.0694087148 -0.0221040286 0.207528666
v 0.0686720386 0.0147094121 0.207795501
v 0.0695173293 -0.022101257 0.207656592
v 0.0687506273 0.0147114182 0.207943782
v 0.0696114823 -0.0220988542 0.207795501
v 0.0688127279 0.0147130033 0.208099693
v 0.069690071 -0.0220968481 0.207943782
v 0.0688576102 0.0147141488 0.2082614
v 0.0697521716 -0.022095263 0.208099693
v 0.0688847527 0.0147148417 0.208427027
v 0.0697970614 -0.0220941175 0.2082614
v 0.0688938424 0.0147150736 0.208594605
v 0.0698242038 -0.0220934246 0.208427027
v 0.0688847527 0.0147148417 0.208762184
v 0.0698332861 -0.0220931936 0.208594605
v 0.0688576102 0.0147141488 0.20892781
v 0.0698242038 -0.0220934246 0.208762184
v 0.0688127279 0.0147130033 0.209089518
v 0.0697970614 -0.0220941175 0.20892781
v 0.0687506273 0.0147114182 0.209245428
v 0.0697521716 -0.022095263 0.209089518
v 0.0686720386 0.0147094121 0.20939371
v 0.069690071 -0.0220968481 0.209245428
v 0.0685778856 0.0147070093 0.209532619
v 0.0696114823 -0.0220988542 0.20939371
v 0.0684692711 0.0147042377 0.209660545
v 0.0695173293 -0.022101257 0.209532619
v 0.068347469 0.0147011289 0.209775954
v 0.0694087148 -0.0221040286 0.209660545
v 0.0682139024 0.0146977194 0.209877521
v 0.0692869127 -0.0221071374 0.209775954
v 0.0680701435 0.01469405 0.209964052
v 0.0691533461 -0.0221105479 0.209877521
v 0.0679178685 0.0146901645 0.210034519
v 0.0690095872 -0.0221142154 0.209964052
v 0.0677588806 0.0146861058 0.210088104
v 0.0688573197 -0.0221181028 0.210034519
v 0.0675950274 0.0146819241 0.21012418
v 0.0686983243 -0.0221221596 0.210088104
v 0.0674282312 0.0146776671 0.210142329
v 0.0685344711 -0.0221263431 0.21012418
v 0.0672604591 0.0146733848 0.210142329
v 0.0683676749 -0.0221305992 0.210142329
v 0.0670936629 0.0146691278 0.21012418
v 0.0681999028 -0.0221348815 0.210142329
v 0.0669298097 0.0146649461 0.210088104
v 0.0680331066 -0.0221391395 0.21012418
v 0.0667708144 0.0146608884 0.210034519
v 0.0678692535 -0.0221433211 0.210088104
v 0.0666185468 0.0146570019 0.209964052
v 0.0677102655 -0.022147378 0.210034519
v 0.0664747879 0.0146533325 0.209877521
v 0.0675579906 -0.0221512653 0.209964052
v 0.0663412213 0.0146499239 0.209775954
v 0.0674142316 -0.0221549347 0.209877521
v 0.0662194192 0.0146468151 0.209660545
v 0.067280665 -0.0221583433 0.209775954
v 0.0661108047 0.0146440426 0.209532619
v 0.0671588629 -0.0221614521 0.209660545
v 0.0660166442 0.0146416398 0.20939371
v 0.0670502484 -0.0221642237 0.209532619
v 0.065938063 0.0146396337 0.209245428
v 0.0669560954 -0.0221666265 0.20939371
v 0.0658759624 0.0146380486 0.209089518
v 0.0668775067 -0.0221686326 0.209245428
v 0.0658310726 0.0146369031 0.20892781
v 0.0668154061 -0.0221702177 0.209089518
v 0.0658039302 0.0146362111 0.208762184
v 0.0667705238 -0.0221713632 0.20892781
v 0.0667433739 -0.0221720561 0.208762184
v 0.0679103956 0.0146899736 0.20514071
v 0.0675950274 0.0146819241 0.207065031
v 0.0677588806 0.0146861058 0.207101107
v 0.0675337687 0.0146803604 0.205099732
v 0.0674282312 0.0146776671 0.207046881
v 0.0664082989 0.0146516357 0.211967036
v 0.0667782947 0.0146610793 0.212048501
v 0.0670936629 0.0146691278 0.21012418
v 0.0671549216 0.0146706915 0.212089479
v 0.0672604591 0.0146733848 0.210142329
v 0.0693078563 0.0147256404 0.2056977
v 0.0682139024 0.0146977194 0.20731169
v 0.068347469 0.0147011289 0.207413256
v 0.0689832419 0.0147173554 0.205502316
v 0.0680701435 0.01469405 0.207225159
v 0.0686394051 0.0147085795 0.205343187
v 0.0679178685 0.0146901645 0.207154691
v 0.0682803914 0.0146994162 0.205222175
v 0.0671549216 0.0146706915 0.205099732
v 0.0672604591 0.0146733848 0.207046881
v 0.0667782947 0.0146610793 0.20514071
v 0.0670936629 0.0146691278 0.207065031
v 0.0664082989 0.0146516357 0.205222175
v 0.0669298097 0.0146649461 0.207101107
v 0.0660492852 0.0146424724 0.205343187
v 0.0667708144 0.0146608884 0.207154691
v 0.0657054484 0.0146336975 0.205502316
v 0.0666185468 0.0146570019 0.207225159
v 0.0650792271 0.0146177141 0.211262167
v 0.0653808266 0.0146254124 0.21149151
v 0.0664747879 0.0146533325 0.209877521
v 0.0657054484 0.0146336975 0.211686894
v 0.0666185468 0.0146570019 0.209964052
v 0.0660492852 0.0146424724 0.211846024
v 0.0667708144 0.0146608884 0.210034519
v 0.0669298097 0.0146649461 0.210088104
v 0.0675337687 0.0146803604 0.212089479
v 0.0674282312 0.0146776671 0.210142329
v 0.0679103956 0.0146899736 0.212048501
v 0.0675950274 0.0146819241 0.21012418
v 0.0682803914 0.0146994162 0.211967036
v 0.0677588806 0.0146861058 0.210088104
v 0.0686394051 0.0147085795 0.211846024
v 0.0679178685 0.0146901645 0.210034519
v 0.0689832419 0.0147173554 0.211686894
v 0.0680701435 0.01469405 0.209964052
v 0.0693078563 0.0147256404 0.21149151
v 0.0682139024 0.0146977194 0.209877521
v 0.0696094558 0.0147333378 0.211262167
v 0.068347469 0.0147011289 0.209775954
v 0.0653808266 0.0146254124 0.2056977
v 0.0664747879 0.0146533325 0.20731169
v 0.064168863 0.0145944795 0.210064217
v 0.0643463209 0.0145990085 0.210399047
v 0.0660166442 0.0146416398 0.20939371
v 0.0645589232 0.0146044344 0.210712716
v 0.0661108047 0.0146440426 0.209532619
v 0.0648041889 0.0146106947 0.21100156
v 0.0662194192 0.0146468151 0.209660545
v 0.0663412213 0.0146499239 0.209775954
v 0.0650792271 0.0146177141 0.205927044
v 0.0663412213 0.0146499239 0.207413256
v 0.0645589232 0.0146044344 0.206476495
v 0.0643463209 0.0145990085 0.206790164
v 0.0660166442 0.0146416398 0.207795501
v 0.064168863 0.0145944795 0.207124993
v 0.065938063 0.0146396337 0.207943782
v 0.0638659969 0.0145867495 0.20897302
v 0.0639272854 0.0145883132 0.209346995
v 0.0658310726 0.0146369031 0.20892781
v 0.0640286356 0.0145909004 0.209712163
v 0.0658759624 0.0146380486 0.209089518
v 0.065938063 0.0146396337 0.209245428
v 0.0703423694 0.0147520434 0.210399047
v 0.0686720386 0.0147094121 0.20939371
v 0.0685778856 0.0147070093 0.209532619
v 0.0705198273 0.0147565724 0.210064217
v 0.0687506273 0.0147114182 0.209245428
v 0.0707614049 0.0147627387 0.209346995
v 0.0688576102 0.0147141488 0.20892781
v 0.0688127279 0.0147130033 0.209089518
v 0.0708226934 0.0147643033 0.20897302
v 0.0688847527 0.0147148417 0.208762184
v 0.0708432049 0.0147648267 0.208594605
v 0.0688938424 0.0147150736 0.208594605
v 0.0708226934 0.0147643033 0.20821619
v 0.0688847527 0.0147148417 0.208427027
v 0.0703423694 0.0147520434 0.206790164
v 0.0686720386 0.0147094121 0.207795501
v 0.0687506273 0.0147114182 0.207943782
v 0.0701297596 0.0147466175 0.206476495
v 0.0685778856 0.0147070093 0.207656592
v 0.0648041889 0.0146106947 0.206187651
v 0.0662194192 0.0146468151 0.207528666
v 0.0661108047 0.0146440426 0.207656592
v 0.0640286356 0.0145909004 0.207477048
v 0.0658759624 0.0146380486 0.208099693
v 0.0639272854 0.0145883132 0.207842216
v 0.0658310726 0.0146369031 0.2082614
v 0.0638659969 0.0145867495 0.20821619
v 0.0658039302 0.0146362111 0.208427027
v 0.0706600472 0.0147601515 0.209712163
v 0.0707614049 0.0147627387 0.207842216
v 0.0688576102 0.0147141488 0.2082614
v 0.0706600472 0.0147601515 0.207477048
v 0.0688127279 0.0147130033 0.208099693
v 0.0705198273 0.0147565724 0.207124993
v 0.0698845014 0.0147403581 0.21100156
v 0.0684692711 0.0147042377 0.209660545
v 0.0701297596 0.0147466175 0.210712716
v 0.0698845014 0.0147403581 0.206187651
v 0.0684692711 0.0147042377 0.207528666
v 0.0696094558 0.0147333378 0.205927044
v 0.0638454854 0.0145862261 0.208594605
v 0.0658039302 0.0146362111 0.208762184
v 0.0657948479 0.0146359792 0.208594605
v 0.0717826486 -0.0220434405 0.208594605
v 0.0708432049 0.0147648267 0.208594605
v 0.0708226934 0.0147643033 0.20897302
v 0.0717621371 -0.0220439639 0.20897302
v 0.0707614049 0.0147627387 0.209346995
v 0.0717008486 -0.0220455285 0.209346995
v 0.0706600472 0.0147601515 0.209712163
v 0.0715994984 -0.0220481157 0.209712163
v 0.0705198273 0.0147565724 0.210064217
v 0.071459271 -0.0220516939 0.210064217
v 0.0703423694 0.0147520434 0.210399047
v 0.0712818131 -0.0220562238 0.210399047
v 0.0701297596 0.0147466175 0.210712716
v 0.0710692108 -0.0220616497 0.210712716
v 0.0698845014 0.0147403581 0.21100156
v 0.0708239451 -0.0220679082 0.21100156
v 0.0696094558 0.0147333378 0.211262167
v 0.0705489069 -0.0220749285 0.211262167
v 0.0693078563 0.0147256404 0.21149151
v 0.0702473074 -0.0220826268 0.21149151
v 0.0689832419 0.0147173554 0.211686894
v 0.0699226856 -0.0220909119 0.211686894
v 0.0686394051 0.0147085795 0.211846024
v 0.0695788488 -0.0220996868 0.211846024
v 0.0682803914 0.0146994162 0.211967036
v 0.0692198351 -0.022108851 0.211967036
v 0.0679103956 0.0146899736 0.212048501
v 0.0688498393 -0.0221182927 0.212048501
v 0.0675337687 0.0146803604 0.212089479
v 0.0684732124 -0.0221279059 0.212089479
v 0.0671549216 0.0146706915 0.212089479
v 0.0680943653 -0.0221375749 0.212089479
v 0.0667782947 0.0146610793 0.212048501
v 0.0677177384 -0.022147188 0.212048501
v 0.0664082989 0.0146516357 0.211967036
v 0.0673477426 -0.0221566316 0.211967036
v 0.0660492852 0.0146424724 0.211846024
v 0.0669887289 -0.0221657939 0.211846024
v 0.0657054484 0.0146336975 0.211686894
v 0.0666448921 -0.0221745688 0.211686894
v 0.0653808266 0.0146254124 0.21149151
v 0.0663202778 -0.0221828539 0.21149151
v 0.0650792271 0.0146177141 0.211262167
v 0.0660186782 -0.0221905522 0.211262167
v 0.0648041889 0.0146106947 0.21100156
v 0.0657436326 -0.0221975725 0.21100156
v 0.0645589232 0.0146044344 0.210712716
v 0.0654983744 -0.022203831 0.210712716
v 0.0643463209 0.0145990085 0.210399047
v 0.0652857646 -0.0222092588 0.210399047
v 0.064168863 0.0145944795 0.210064217
v 0.0651083067 -0.0222137868 0.210064217
v 0.0640286356 0.0145909004 0.209712163
v 0.0649680793 -0.0222173668 0.209712163
v 0.0639272854 0.0145883132 0.209346995
v 0.0648667291 -0.0222199522 0.209346995
v 0.0638659969 0.0145867495 0.20897302
v 0.0648054406 -0.0222215168 0.20897302
v 0.0638454854 0.0145862261 0.208594605
v 0.0647849292 -0.0222220402 0.208594605
v 0.0638659969 0.0145867495 0.20821619
v 0.0648054406 -0.0222215168 0.20821619
v 0.0639272854 0.0145883132 0.207842216
v 0.0648667291 -0.0222199522 0.207842216
v 0.0640286356 0.0145909004 0.207477048
v 0.0649680793 -0.0222173668 0.207477048
v 0.064168863 0.0145944795 0.207124993
v 0.0651083067 -0.0222137868 0.207124993
v 0.0643463209 0.0145990085 0.206790164
v 0.0652857646 -0.0222092588 0.206790164
v 0.0645589232 0.0146044344 0.206476495
v 0.0654983744 -0.022203831 0.206476495
v 0.0648041889 0.0146106947 0.206187651
v 0.0657436326 -0.0221975725 0.206187651
v 0.0650792271 0.0146177141 0.205927044
v 0.0660186782 -0.0221905522 0.205927044
v 0.0653808266 0.0146254124 0.2056977
v 0.0663202778 -0.0221828539 0.2056977
v 0.0657054484 0.0146336975 0.205502316
v 0.0666448921 -0.0221745688 0.205502316
v 0.0660492852 0.0146424724 0.205343187
v 0.0669887289 -0.0221657939 0.205343187
v 0.0664082989 0.0146516357 0.205222175
v 0.0673477426 -0.0221566316 0.205222175
v 0.0667782947 0.0146610793 0.20514071
v 0.0677177384 -0.022147188 0.20514071
v 0.0671549216 0.0146706915 0.205099732
v 0.0680943653 -0.0221375749 0.205099732
v 0.0675337687 0.0146803604 0.205099732
v 0.0684732124 -0.0221279059 0.205099732
v 0.0679103956 0.0146899736 0.20514071
v 0.0688498393 -0.0221182927 0.20514071
v 0.0682803914 0.0146994162 0.205222175
v 0.0692198351 -0.022108851 0.205222175
v 0.0686394051 0.0147085795 0.205343187
v 0.0695788488 -0.0220996868 0.205343187
v 0.0689832419 0.0147173554 0.205502316
v 0.0699226856 -0.0220909119 0.205502316
v 0.0693078563 0.0147256404 0.2056977
v 0.0702473074 -0.0220826268 0.2056977
v 0.0696094558 0.0147333378 0.205927044
v 0.0705489069 -0.0220749285 0.205927044
v 0.0698845014 0.0147403581 0.206187651
v 0.0708239451 -0.0220679082 0.206187651
v 0.0701297596 0.0147466175 0.206476495
v 0.0710692108 -0.0220616497 0.206476495
v 0.0703423694 0.0147520434 0.206790164
v 0.0712818131 -0.0220562238 0.206790164
v 0.0705198273 0.0147565724 0.207124993
v 0.071459271 -0.0220516939 0.207124993
v 0.0706600472 0.0147601515 0.207477048
v 0.0715994984 -0.0220481157 0.207477048
v 0.0707614049 0.0147627387 0.207842216
v 0.0717008486 -0.0220455285 0.207842216
v 0.0708226934 0.0147643033 0.20821619
v 0.0717621371 -0.0220439639 0.20821619
f 1 2 3
f 4 5 2
f 6 7 8
f 7 9 10
f 11 12 13
f 14 15 12
f 16 3 15
f 2 1 4
f 17 18 19
f 18 20 21
f 22 6 23
f 10 8 7
f 12 11 14
f 3 16 1
f 24 25 26
f 24 27 28
f 27 17 29
f 21 19 18
f 20 30 31
f 30 32 33
f 34 35 36
f 35 37 38
f 8 23 6
f 9 39 40
f 41 13 40
f 15 14 16
f 42 26 43
f 28 25 24
f 19 29 17
f 33 31 30
f 44 45 46
f 45 34 47
f 38 36 35
f 37 22 48
f 40 10 9
f 13 41 11
f 49 50 51
f 52 53 50
f 54 55 56
f 57 58 55
f 26 42 24
f 31 21 20
f 59 60 61
f 60 62 63
f 64 65 66
f 65 67 68
f 67 44 69
f 47 46 45
f 48 38 37
f 40 39 41
f 70 71 5
f 72 73 71
f 74 75 73
f 76 77 75
f 78 79 80
f 81 82 79
f 50 49 52
f 83 84 53
f 85 86 84
f 87 88 86
f 55 54 57
f 89 43 58
f 29 28 27
f 32 90 91
f 63 61 60
f 62 92 93
f 94 95 96
f 95 97 98
f 99 64 100
f 68 66 65
f 46 69 44
f 23 48 22
f 71 70 72
f 75 74 76
f 101 102 77
f 103 104 102
f 105 80 104
f 79 78 81
f 106 107 82
f 108 51 107
f 53 52 83
f 86 85 87
f 58 57 89
f 91 33 32
f 90 59 109
f 93 63 62
f 110 94 111
f 98 96 95
f 97 99 112
f 66 100 64
f 36 47 34
f 73 72 74
f 102 101 103
f 80 105 78
f 107 106 108
f 84 83 85
f 43 89 42
f 61 109 59
f 92 110 113
f 96 111 94
f 100 112 99
f 5 4 70
f 104 103 105
f 51 108 49
f 114 115 88
f 116 56 115
f 109 91 90
f 111 113 110
f 69 68 67
f 82 81 106
f 115 114 116
f 113 93 92
f 77 76 101
f 56 116 54
f 88 87 114
f 112 98 97
f 117 118 119
f 120 117 121
f 122 120 123
f 124 122 125
f 126 124 127
f 128 126 129
f 130 128 131
f 132 130 133
f 134 132 135
f 136 134 137
f 138 136 139
f 140 138 141
f 142 140 143
f 144 142 145
f 146 144 147
f 148 146 149
f 150 148 151
f 152 150 153
f 154 152 155
f 156 154 157
f 158 156 159
f 160 158 161
f 162 160 163
f 164 162 165
f 166 164 167
f 168 166 169
f 170 168 171
f 172 170 173
f 174 172 175
f 176 174 177
f 178 176 179
f 180 178 181
f 182 180 183
f 184 182 185
f 186 184 187
f 188 186 189
f 190 188 191
f 192 190 193
f 194 192 195
f 196 194 197
f 198 196 199
f 200 198 201
f 202 200 203
f 204 202 205
f 206 204 207
f 208 206 209
f 210 208 211
f 212 210 213
f 214 212 215
f 216 214 217
f 218 216 219
f 220 218 221
f 222 220 223
f 224 222 225
f 226 224 227
f 228 226 229
f 230 228 231
f 118 230 232
f 232 119 118
f 231 232 230
f 229 231 228
f 227 229 226
f 225 227 224
f 223 225 222
f 221 223 220
f 219 221 218
f 217 219 216
f 215 217 214
f 213 215 212
f 211 213 210
f 209 211 208
f 207 209 206
f 205 207 204
f 203 205 202
f 201 203 200
f 199 201 198
f 197 199 196
f 195 197 194
f 193 195 192
f 191 193 190
f 189 191 188
f 187 189 186
f 185 187 184
f 183 185 182
f 181 183 180
f 179 181 178
f 177 179 176
f 175 177 174
f 173 175 172
f 171 173 170
f 169 171 168
f 167 169 166
f 165 167 164
f 163 165 162
f 161 163 160
f 159 161 158
f 157 159 156
f 155 157 154
f 153 155 152
f 151 153 150
f 149 151 148
f 147 149 146
f 145 147 144
f 143 145 142
f 141 143 140
f 139 141 138
f 137 139 136
f 135 137 134
f 133 135 132
f 131 133 130
f 129 131 128
f 127 129 126
f 125 127 124
f 123 125 122
f 121 123 120
f 119 121 117
f 233 234 235
f 236 237 234
f 238 239 240
f 239 241 242
f 243 244 245
f 246 247 244
f 248 249 247
f 250 235 249
f 234 233 236
f 251 252 237
f 253 254 252
f 253 255 256
f 255 257 258
f 257 259 260
f 261 262 263
f 262 264 265
f 264 266 267
f 266 238 268
f 242 240 239
f 241 269 270
f 271 272 270
f 273 274 272
f 275 276 274
f 277 278 276
f 279 280 278
f 281 282 280
f 244 243 246
f 249 248 250
f 237 236 251
f 256 254 253
f 260 258 257
f 259 283 284
f 285 286 287
f 286 288 289
f 288 290 291
f 290 261 292
f 265 263 262
f 268 267 266
f 270 242 241
f 272 271 273
f 276 275 277
f 280 279 281
f 247 246 248
f 252 251 253
f 284 260 259
f 283 293 294
f 295 296 297
f 296 298 299
f 300 301 302
f 301 303 304
f 303 285 305
f 289 287 286
f 292 291 290
f 267 265 264
f 270 269 271
f 278 277 279
f 306 307 308
f 309 310 307
f 311 312 313
f 314 315 312
f 316 317 315
f 318 319 317
f 320 321 322
f 323 324 321
f 235 250 233
f 294 284 283
f 293 325 326
f 325 295 327
f 299 297 296
f 298 328 329
f 328 330 331
f 330 332 333
f 304 302 301
f 287 305 285
f 263 292 261
f 274 273 275
f 307 306 309
f 334 313 310
f 312 311 314
f 317 316 318
f 335 336 319
f 337 338 336
f 339 322 338
f 321 320 323
f 258 256 255
f 327 326 325
f 329 299 298
f 333 331 330
f 305 304 303
f 240 268 238
f 340 341 282
f 342 308 341
f 310 309 334
f 315 314 316
f 336 335 337
f 322 339 320
f 343 344 324
f 345 245 344
f 326 294 293
f 331 329 328
f 346 300 347
f 291 289 288
f 341 340 342
f 313 334 311
f 338 337 339
f 344 343 345
f 297 327 295
f 332 346 348
f 302 347 300
f 308 342 306
f 324 323 343
f 348 333 332
f 282 281 340
f 245 345 243
f 319 318 335
f 347 348 346
f 349 350 351
f 352 351 353
f 354 353 355
f 356 355 357
f 358 357 359
f 360 359 361
f 362 361 363
f 364 363 365
f 366 365 367
f 368 367 369
f 370 369 371
f 372 371 373
f 374 373 375
f 376 375 377
f 378 377 379
f 380 379 381
f 382 381 383
f 384 383 385
f 386 385 387
f 388 387 389
f 390 389 391
f 392 391 393
f 394 393 395
f 396 395 397
f 398 397 399
f 400 399 401
f 402 401 403
f 404 403 405
f 406 405 407
f 408 407 409
f 410 409 411
f 412 411 413
f 414 413 415
f 416 415 417
f 418 417 419
f 420 419 421
f 422 421 423
f 424 423 425
f 426 425 427
f 428 427 429
f 430 429 431
f 432 431 433
f 434 433 435
f 436 435 437
f 438 437 439
f 440 439 441
f 442 441 443
f 444 443 445
f 446 445 447
f 448 447 449
f 450 449 451
f 452 451 453
f 454 453 455
f 456 455 457
f 458 457 459
f 460 459 461
f 462 461 463
f 464 463 350
f 350 349 464
f 463 464 462
f 461 462 460
f 459 460 458
f 457 458 456
f 455 456 454
f 453 454 452
f 451 452 450
f 449 450 448
f 447 448 446
f 445 446 444
f 443 444 442
f 441 442 440
f 439 440 438
f 437 438 436
f 435 436 434
f 433 434 432
f 431 432 430
f 429 430 428
f 427 428 426
f 425 426 424
f 423 424 422
f 421 422 420
f 419 420 418
f 417 418 416
f 415 416 414
f 413 414 412
f 411 412 410
f 409 410 408
f 407 408 406
f 405 406 404
f 403 404 402
f 401 402 400
f 399 400 398
f 397 398 396
f 395 396 394
f 393 394 392
f 391 392 390
f 389 390 388
f 387 388 386
f 385 386 384
f 383 384 382
f 381 382 380
f 379 380 378
f 377 378 376
f 375 376 374
f 373 374 372
f 371 372 370
f 369 370 368
f 367 368 366
f 365 366 364
f 363 364 362
f 361 362 360
f 359 360 358
f 357 358 356
f 355 356 354
f 353 354 352
f 351 352 349
