v -0.0368593037 0.0267395433 0.00672823982
v -0.0366592854 0.0285786986 0.00672823982
v -0.0364616103 0.0285462905 0.00672823982
v -0.0362685993 0.0284927022 0.00672823982
v -0.0360825099 0.0284185577 0.00672823982
v -0.0359055325 0.0283247288 0.00672823982
v -0.0357397348 0.0282123145 0.00672823982
v -0.0355870612 0.0280826353 0.00672823982
v -0.0354493074 0.0279372074 0.00672823982
v -0.035328079 0.0277777389 0.00672823982
v -0.0352248065 0.027606098 0.00672823982
v -0.0351406969 0.0274242982 0.00672823982
v -0.0350767374 0.0272344705 0.00672823982
v -0.0350336768 0.0270388406 0.00672823982
v -0.0350120179 0.0268396996 0.00672823982
v -0.0350120179 0.026639387 0.00672823982
v -0.0350336768 0.026440246 0.00672823982
v -0.0350767374 0.0262446161 0.00672823982
v -0.0351406969 0.0260547884 0.00672823982
v -0.0352248065 0.0258729868 0.00672823982
v -0.035328079 0.0257013477 0.00672823982
v -0.0354493074 0.0255418792 0.00672823982
v -0.0355870612 0.0253964514 0.00672823982
v -0.0357397348 0.0252667703 0.00672823982
v -0.0359055325 0.0251543578 0.00672823982
v -0.0360825099 0.0250605289 0.00672823982
v -0.0362685993 0.0249863844 0.00672823982
v -0.0364616103 0.0249327943 0.00672823982
v -0.0366592854 0.024900388 0.00672823982
v -0.0368593037 0.0248895437 0.00672823982
v -0.0370593257 0.024900388 0.00672823982
v -0.0372570008 0.0249327943 0.00672823982
v -0.0374500118 0.0249863844 0.00672823982
v -0.0376361012 0.0250605289 0.00672823982
v -0.0378130786 0.0251543578 0.00672823982
v -0.0379788764 0.0252667703 0.00672823982
v -0.03813155 0.0253964514 0.00672823982
v -0.0382693037 0.0255418792 0.00672823982
v -0.0383905284 0.0257013477 0.00672823982
v -0.0384938046 0.0258729868 0.00672823982
v -0.0385779142 0.0260547884 0.00672823982
v -0.0386418737 0.0262446161 0.00672823982
v -0.0386849344 0.026440246 0.00672823982
v -0.0387065932 0.026639387 0.00672823982
v -0.0387065932 0.0268396996 0.00672823982
v -0.0386849344 0.0270388406 0.00672823982
v -0.0386418737 0.0272344705 0.00672823982
v -0.0385779142 0.0274242982 0.00672823982
v -0.0384938046 0.027606098 0.00672823982
v -0.0383905284 0.0277777389 0.00672823982
v -0.0382693037 0.0279372074 0.00672823982
v -0.03813155 0.0280826353 0.00672823982
v -0.0379788764 0.0282123145 0.00672823982
v -0.0378130786 0.0283247288 0.00672823982
v -0.0376361012 0.0284185577 0.00672823982
v -0.0374500118 0.0284927022 0.00672823982
v -0.0372570008 0.0285462905 0.00672823982
v -0.0370593257 0.0285786986 0.00672823982
v -0.0368593037 0.028589543 0.00672823982
v -0.0370593257 0.0285786986 -0.0079279514
v -0.0368593037 0.028589543 -0.0079279514
v -0.0368593037 0.028589543 0.00672823982
v -0.0372570008 0.0285462905 -0.0079279514
v -0.0370593257 0.0285786986 0.00672823982
v -0.0374500118 0.0284927022 -0.0079279514
v -0.0372570008 0.0285462905 0.00672823982
v -0.0376361012 0.0284185577 -0.0079279514
v -0.0374500118 0.0284927022 0.00672823982
v -0.0378130786 0.0283247288 -0.0079279514
v -0.0376361012 0.0284185577 0.00672823982
v -0.0379788764 0.0282123145 -0.0079279514
v -0.0378130786 0.0283247288 0.00672823982
v -0.03813155 0.0280826353 -0.0079279514
v -0.0379788764 0.0282123145 0.00672823982
v -0.0382693037 0.0279372074 -0.0079279514
v -0.03813155 0.0280826353 0.00672823982
v -0.0383905284 0.0277777389 -0.0079279514
v -0.0382693037 0.0279372074 0.00672823982
v -0.0384938046 0.027606098 -0.0079279514
v -0.0383905284 0.0277777389 0.00672823982
v -0.0385779142 0.0274242982 -0.0079279514
v -0.0384938046 0.027606098 0.00672823982
v -0.0386418737 0.0272344705 -0.0079279514
v -0.0385779142 0.0274242982 0.00672823982
v -0.0386849344 0.0270388406 -0.0079279514
v -0.0386418737 0.0272344705 0.00672823982
v -0.0387065932 0.0268396996 -0.0079279514
v -0.0386849344 0.0270388406 0.00672823982
v -0.0387065932 0.026639387 -0.0079279514
v -0.0387065932 0.0268396996 0.00672823982
v -0.0386849344 0.026440246 -0.0079279514
v -0.0387065932 0.026639387 0.00672823982
v -0.0386418737 0.0262446161 -0.0079279514
v -0.0386849344 0.026440246 0.00672823982
v -0.0385779142 0.0260547884 -0.0079279514
v -0.0386418737 0.0262446161 0.00672823982
v -0.0384938046 0.0258729868 -0.0079279514
v -0.0385779142 0.0260547884 0.00672823982
v -0.0383905284 0.0257013477 -0.0079279514
v -0.0384938046 0.0258729868 0.00672823982
v -0.0382693037 0.0255418792 -0.0079279514
v -0.0383905284 0.0257013477 0.00672823982
v -0.03813155 0.0253964514 -0.0079279514
v -0.0382693037 0.0255418792 0.00672823982
v -0.0379788764 0.0252667703 -0.0079279514
v -0.03813155 0.0253964514 0.00672823982
v -0.0378130786 0.0251543578 -0.0079279514
v -0.0379788764 0.0252667703 0.00672823982
v -0.0376361012 0.0250605289 -0.0079279514
v -0.0378130786 0.0251543578 0.00672823982
v -0.0374500118 0.0249863844 -0.0079279514
v -0.0376361012 0.0250605289 0.00672823982
v -0.0372570008 0.0249327943 -0.0079279514
v -0.0374500118 0.0249863844 0.00672823982
v -0.0370593257 0.024900388 -0.0079279514
v -0.0372570008 0.0249327943 0.00672823982
v -0.0368593037 0.0248895437 -0.0079279514
v -0.0370593257 0.024900388 0.00672823982
v -0.0366592854 0.024900388 -0.0079279514
v -0.0368593037 0.0248895437 0.00672823982
v -0.0364616103 0.0249327943 -0.0079279514
v -0.0366592854 0.024900388 0.00672823982
v -0.0362685993 0.0249863844 -0.0079279514
v -0.0364616103 0.0249327943 0.00672823982
v -0.0360825099 0.0250605289 -0.0079279514
v -0.0362685993 0.0249863844 0.00672823982
v -0.0359055325 0.0251543578 -0.0079279514
v -0.0360825099 0.0250605289 0.00672823982
v -0.0357397348 0.0252667703 -0.0079279514
v -0.0359055325 0.0251543578 0.00672823982
v -0.0355870612 0.0253964514 -0.0079279514
v -0.0357397348 0.0252667703 0.00672823982
v -0.0354493074 0.0255418792 -0.0079279514
v -0.0355870612 0.0253964514 0.00672823982
v -0.035328079 0.0257013477 -0.0079279514
v -0.0354493074 0.0255418792 0.00672823982
v -0.0352248065 0.0258729868 -0.0079279514
v -0.035328079 0.0257013477 0.00672823982
v -0.0351406969 0.0260547884 -0.0079279514
v -0.0352248065 0.0258729868 0.00672823982
v -0.0350767374 0.0262446161 -0.0079279514
v -0.0351406969 0.0260547884 0.00672823982
v -0.0350336768 0.026440246 -0.0079279514
v -0.0350767374 0.0262446161 0.00672823982
v -0.0350120179 0.026639387 0.00672823982
v -0.0350120179 0.026639387 -0.0079279514
v -0.0350321084 0.0264499672 -0.0079279514
v -0.0350336768 0.026440246 0.00672823982
v -0.0350120179 0.0268396996 -0.0079279514
v -0.0350336768 0.0270388406 -0.0079279514
v -0.0350120179 0.0268396996 0.00672823982
v -0.0350767374 0.0272344705 -0.0079279514
v -0.0350336768 0.0270388406 0.00672823982
v -0.0351406969 0.0274242982 -0.0079279514
v -0.0350767374 0.0272344705 0.00672823982
v -0.0352248065 0.027606098 -0.0079279514
v -0.0351406969 0.0274242982 0.00672823982
v -0.035328079 0.0277777389 -0.0079279514
v -0.0352248065 0.027606098 0.00672823982
v -0.0354493074 0.0279372074 -0.0079279514
v -0.035328079 0.0277777389 0.00672823982
v -0.0355870612 0.0280826353 -0.0079279514
v -0.0354493074 0.0279372074 0.00672823982
v -0.0357397348 0.0282123145 -0.0079279514
v -0.0355870612 0.0280826353 0.00672823982
v -0.0359055325 0.0283247288 -0.0079279514
v -0.0357397348 0.0282123145 0.00672823982
v -0.0360825099 0.0284185577 -0.0079279514
v -0.0359055325 0.0283247288 0.00672823982
v -0.0362685993 0.0284927022 -0.0079279514
v -0.0360825099 0.0284185577 0.00672823982
v -0.0364616103 0.0285462905 -0.0079279514
v -0.0362685993 0.0284927022 0.00672823982
v -0.0366592854 0.0285786986 -0.0079279514
v -0.0364616103 0.0285462905 0.00672823982
v -0.0366592854 0.0285786986 0.00672823982
v -0.0181250013 0.022311138 -0.0079279514
v -0.0350336768 0.026440246 -0.0079279514
v -0.0350321084 0.0264499672 -0.0079279514
v -0.0181715544 0.0220996439 -0.0079279514
v -0.0350767374 0.0262446161 -0.0079279514
v -0.0350120179 0.026639387 -0.0079279514
v -0.0440754369 0.0244101454 -0.0079279514
v -0.0455302224 0.0218779184 -0.0079279514
v -0.045698449 0.0219325963 -0.0079279514
v -0.0438961945 0.0242886171 -0.0079279514
v -0.0453572012 0.0218411237 -0.0079279514
v -0.0442404859 0.0245503411 -0.0079279514
v -0.0460132249 0.0220930185 -0.0079279514
v -0.0461563207 0.0221970063 -0.0079279514
v -0.0458600409 0.0220045596 -0.0079279514
v -0.0465100743 0.0225899648 -0.0079279514
v -0.0465985052 0.0227431636 -0.0079279514
v -0.0149875525 0.0201838948 -0.0079279514
v -0.0148225026 0.0203240886 -0.0079279514
v -0.0131808948 0.0184528213 -0.0079279514
v -0.015166793 0.0200623665 -0.0079279514
v -0.0133443298 0.0179499816 -0.0079279514
v -0.0174082499 0.0201838948 -0.0079279514
v -0.0172290094 0.0200623665 -0.0079279514
v -0.0180558544 0.0210358035 -0.0079279514
v -0.0179649256 0.0208392628 -0.0079279514
v -0.0181949679 0.0216678027 -0.0079279514
v -0.0181715544 0.0214525163 -0.0079279514
v -0.0304297302 0.0330519117 -0.0079279514
v -0.035328079 0.0277777389 -0.0079279514
v -0.0354493074 0.0279372074 -0.0079279514
v -0.0177222248 0.0230708532 -0.0079279514
v -0.0350767374 0.0272344705 -0.0079279514
v -0.0351406969 0.0260547884 -0.0079279514
v -0.0464061163 0.0224468466 -0.0079279514
v -0.0443894118 0.0247075595 -0.0079279514
v -0.0466704369 0.0229047686 -0.0079279514
v -0.0467250831 0.0230730064 -0.0079279514
v -0.0132176885 0.0182798002 -0.0079279514
v -0.0134327896 0.0177967977 -0.0079279514
v -0.015358123 0.0199609306 -0.0079279514
v -0.0137866177 0.0174039062 -0.0079279514
v -0.0139297349 0.0172999464 -0.0079279514
v -0.0136551512 0.0175222568 -0.0079279514
v -0.0144127766 0.0170849375 -0.0079279514
v -0.0145858051 0.0170481764 -0.0079279514
v -0.0140829347 0.0172115155 -0.0079279514
v -0.0142445387 0.0171395838 -0.0079279514
v -0.0151145374 0.0170482267 -0.0079279514
v -0.0177222248 0.0204813071 -0.0079279514
v -0.0175733007 0.0203240886 -0.0079279514
v -0.0178532787 0.020653706 -0.0079279514
v -0.0181250013 0.0212410241 -0.0079279514
v -0.0350657031 0.0333029814 -0.0079279514
v -0.0364616103 0.0285462905 -0.0079279514
v -0.0366592854 0.0285786986 -0.0079279514
v -0.0359055325 0.0283247288 -0.0079279514
v -0.0355870612 0.0280826353 -0.0079279514
v -0.0351406969 0.0274242982 -0.0079279514
v -0.0350120179 0.0268396996 -0.0079279514
v -0.0350336768 0.0270388406 -0.0079279514
v -0.0180558544 0.0225163568 -0.0079279514
v -0.0178532787 0.0228984542 -0.0079279514
v -0.0462877639 0.0223153811 -0.0079279514
v -0.0467618443 0.023246035 -0.0079279514
v -0.046780318 0.0234219562 -0.0079279514
v -0.0445204638 0.0248799566 -0.0079279514
v -0.0467803031 0.0235988479 -0.0079279514
v -0.0467617959 0.0237747673 -0.0079279514
v -0.0456195772 0.0309820436 -0.0079279514
v -0.0438961945 0.0277160462 -0.0079279514
v -0.0440754369 0.0275945179 -0.0079279514
v -0.0148225026 0.0232280716 -0.0079279514
v -0.0120205265 0.0258294661 -0.0079279514
v -0.0120386761 0.0256600976 -0.0079279514
v -0.0146735767 0.0204813071 -0.0079279514
v -0.0132723665 0.0181115717 -0.0079279514
v -0.0135367764 0.0176537018 -0.0079279514
v -0.015559298 0.0198807735 -0.0079279514
v -0.0149386181 0.0170297194 -0.0079279514
v -0.0147617282 0.0170297027 -0.0079279514
v -0.0170376785 0.0199609306 -0.0079279514
v -0.0168365035 0.0198807735 -0.0079279514
v -0.0181949679 0.0218843576 -0.0079279514
v -0.0370593257 0.024900388 -0.0079279514
v -0.0362685993 0.0284927022 -0.0079279514
v -0.0360825099 0.0284185577 -0.0079279514
v -0.0352248065 0.027606098 -0.0079279514
v -0.0352248065 0.0258729868 -0.0079279514
v -0.0179649256 0.0227128975 -0.0079279514
v -0.025844194 0.0323251896 -0.0079279514
v -0.0174082499 0.0233682673 -0.0079279514
v -0.0213577636 0.0311305281 -0.0079279514
v -0.0168365035 0.0236713868 -0.0079279514
v -0.0170180593 0.0294806063 -0.0079279514
v -0.0447921865 0.0254672747 -0.0079279514
v -0.0447230414 0.0252620559 -0.0079279514
v -0.0446321107 0.0269391481 -0.0079279514
v -0.0447230414 0.0267426074 -0.0079279514
v -0.0442404859 0.0274543222 -0.0079279514
v -0.0120195178 0.0259998012 -0.0079279514
v -0.0142008346 0.0216678027 -0.0079279514
v -0.0142008346 0.0218843576 -0.0079279514
v -0.014224248 0.0214525163 -0.0079279514
v -0.0145425228 0.020653706 -0.0079279514
v -0.0166278426 0.0198228396 -0.0079279514
v -0.0372570008 0.0249327943 -0.0079279514
v -0.0175733007 0.0232280716 -0.0079279514
v -0.0170376785 0.0235912316 -0.0079279514
v -0.0172290094 0.0234897956 -0.0079279514
v -0.0166278426 0.0237293225 -0.0079279514
v -0.0437048636 0.0241871811 -0.0079279514
v -0.0435036905 0.0241070259 -0.0079279514
v -0.0446321107 0.0250655152 -0.0079279514
v -0.0445204638 0.0271247067 -0.0079279514
v -0.0443894118 0.0272971038 -0.0079279514
v -0.0410071351 0.0267426074 -0.0079279514
v -0.0385779142 0.0274242982 -0.0079279514
v -0.0386418737 0.0272344705 -0.0079279514
v -0.015166793 0.0234897956 -0.0079279514
v -0.0124716954 0.0270770062 -0.0079279514
v -0.0123619679 0.0269467179 -0.0079279514
v -0.0149875525 0.0233682673 -0.0079279514
v -0.0121845081 0.026656419 -0.0079279514
v -0.012118578 0.0264993571 -0.0079279514
v -0.0122659132 0.0268060453 -0.0079279514
v -0.0120356623 0.0261693709 -0.0079279514
v -0.0144308768 0.0208392628 -0.0079279514
v -0.0143399481 0.0210358035 -0.0079279514
v -0.0157679599 0.0198228396 -0.0079279514
v -0.0164141394 0.0197878052 -0.0079279514
v -0.0161979012 0.0197760798 -0.0079279514
v -0.0357397348 0.0282123145 -0.0079279514
v -0.0164141394 0.023764357 -0.0079279514
v -0.0354493074 0.0255418792 -0.0079279514
v -0.035328079 0.0257013477 -0.0079279514
v -0.0357397348 0.0252667703 -0.0079279514
v -0.0355870612 0.0253964514 -0.0079279514
v -0.0368593037 0.0248895437 -0.0079279514
v -0.0366592854 0.024900388 -0.0079279514
v -0.0384938046 0.0258729868 -0.0079279514
v -0.0418339781 0.0242886171 -0.0079279514
v -0.0416547395 0.0244101454 -0.0079279514
v -0.0447921865 0.0265373886 -0.0079279514
v -0.0437048636 0.0278174821 -0.0079279514
v -0.04558447 0.0311487243 -0.0079279514
v -0.0455327593 0.031311024 -0.0079279514
v -0.0409379862 0.0265373886 -0.0079279514
v -0.0412097089 0.0271247067 -0.0079279514
v -0.03813155 0.0280826353 -0.0079279514
v -0.0382693037 0.0279372074 -0.0079279514
v -0.0379788764 0.0282123145 -0.0079279514
v -0.0368593037 0.028589543 -0.0079279514
v -0.0370593257 0.0285786986 -0.0079279514
v -0.0128711434 0.027392935 -0.0079279514
v -0.015559298 0.0236713868 -0.0079279514
v -0.0157679599 0.0237293225 -0.0079279514
v -0.015358123 0.0235912316 -0.0079279514
v -0.0125939809 0.0271955859 -0.0079279514
v -0.0127275828 0.0273012538 -0.0079279514
v -0.0120687941 0.0263364557 -0.0079279514
v -0.0145425228 0.0228984542 -0.0079279514
v -0.0146735767 0.0230708532 -0.0079279514
v -0.014224248 0.0220996439 -0.0079279514
v -0.0142708011 0.022311138 -0.0079279514
v -0.0142708011 0.0212410241 -0.0079279514
v -0.015981663 0.0197878052 -0.0079279514
v -0.0374500118 0.0249863844 -0.0079279514
v -0.0378130786 0.0251543578 -0.0079279514
v -0.0376361012 0.0250605289 -0.0079279514
v -0.03813155 0.0253964514 -0.0079279514
v -0.0379788764 0.0252667703 -0.0079279514
v -0.0383905284 0.0257013477 -0.0079279514
v -0.0382693037 0.0255418792 -0.0079279514
v -0.0360825099 0.0250605289 -0.0079279514
v -0.0359055325 0.0251543578 -0.0079279514
v -0.0364616103 0.0249327943 -0.0079279514
v -0.0362685993 0.0249863844 -0.0079279514
v -0.0385779142 0.0260547884 -0.0079279514
v -0.0420253091 0.0241871811 -0.0079279514
v -0.0430813245 0.0240140557 -0.0079279514
v -0.0428650863 0.0240023322 -0.0079279514
v -0.0448621549 0.02611061 -0.0079279514
v -0.0448621549 0.0258940533 -0.0079279514
v -0.0416547395 0.0275945179 -0.0079279514
v -0.0418339781 0.0277160462 -0.0079279514
v -0.0397029035 0.0330757312 -0.0079279514
v -0.0410980619 0.0269391481 -0.0079279514
v -0.0374500118 0.0284927022 -0.0079279514
v -0.0376361012 0.0284185577 -0.0079279514
v -0.0372570008 0.0285462905 -0.0079279514
v -0.0144308768 0.0227128975 -0.0079279514
v -0.0143399481 0.0225163568 -0.0079279514
v -0.0386849344 0.026440246 -0.0079279514
v -0.0386418737 0.0262446161 -0.0079279514
v -0.0424351469 0.0240490902 -0.0079279514
v -0.0422264822 0.0241070259 -0.0079279514
v -0.0432950296 0.0240490902 -0.0079279514
v -0.0448387414 0.0256787669 -0.0079279514
v -0.0448387414 0.0263258964 -0.0079279514
v -0.0454649776 0.0314672925 -0.0079279514
v -0.0435036905 0.0278976373 -0.0079279514
v -0.0452840924 0.0317554735 -0.0079279514
v -0.0451728329 0.0318844505 -0.0079279514
v -0.0432950296 0.0279555731 -0.0079279514
v -0.0449143089 0.0321056545 -0.0079279514
v -0.0384938046 0.027606098 -0.0079279514
v -0.0383905284 0.0277777389 -0.0079279514
v -0.0161979012 0.0237760805 -0.0079279514
v -0.0426488481 0.0240140557 -0.0079279514
v -0.0450491495 0.0320015773 -0.0079279514
v -0.0453818068 0.0316159464 -0.0079279514
v -0.0446167141 0.0322705917 -0.0079279514
v -0.0444569886 0.0323297717 -0.0079279514
v -0.0447696708 0.0321956314 -0.0079279514
v -0.0420253091 0.0278174821 -0.0079279514
v -0.0378130786 0.0283247288 -0.0079279514
v -0.0387065932 0.0268396996 -0.0079279514
v -0.0387065932 0.026639387 -0.0079279514
v -0.0386849344 0.0270388406 -0.0079279514
v -0.040891435 0.0263258964 -0.0079279514
v -0.0410980619 0.0250655152 -0.0079279514
v -0.0410071351 0.0252620559 -0.0079279514
v -0.0414896868 0.0245503411 -0.0079279514
v -0.015981663 0.023764357 -0.0079279514
v -0.0442921147 0.0323725715 -0.0079279514
v -0.0426488481 0.0279906075 -0.0079279514
v -0.0422264822 0.0278976373 -0.0079279514
v -0.0408680215 0.0258940533 -0.0079279514
v -0.0408680215 0.02611061 -0.0079279514
v -0.0412097089 0.0248799566 -0.0079279514
v -0.0413407646 0.0247075595 -0.0079279514
v -0.0424351469 0.0279555731 -0.0079279514
v -0.0414896868 0.0274543222 -0.0079279514
v -0.040891435 0.0256787669 -0.0079279514
v -0.0413407646 0.0272971038 -0.0079279514
v -0.0409379862 0.0254672747 -0.0079279514
v -0.0428650863 0.028002331 -0.0079279514
v -0.0430813245 0.0279906075 -0.0079279514
v -0.0456195772 0.0309820436 -0.00392795168
v -0.0456195772 0.0309820436 -0.0079279514
v -0.0467617959 0.0237747673 -0.0079279514
v -0.0467617959 0.0237747673 -0.00392795168
v -0.0131808948 0.0184528213 -0.00392795168
v -0.0131808948 0.0184528213 -0.0079279514
v -0.0120386761 0.0256600976 -0.0079279514
v -0.0120386761 0.0256600976 -0.00392795168
v -0.0442921147 0.0323725715 -0.0079279514
v -0.0442921147 0.0323725715 -0.00392795168
v -0.0397029035 0.0330757312 -0.00392795168
v -0.0397029035 0.0330757312 -0.0079279514
v -0.0350657031 0.0333029814 -0.00392795168
v -0.0350657031 0.0333029814 -0.0079279514
v -0.0304297302 0.0330519117 -0.00392795168
v -0.0304297302 0.0330519117 -0.0079279514
v -0.025844194 0.0323251896 -0.00392795168
v -0.025844194 0.0323251896 -0.0079279514
v -0.0213577636 0.0311305281 -0.00392795168
v -0.0213577636 0.0311305281 -0.0079279514
v -0.0170180593 0.0294806063 -0.00392795168
v -0.0170180593 0.0294806063 -0.0079279514
v -0.0128711434 0.027392935 -0.00392795168
v -0.0128711434 0.027392935 -0.0079279514
v -0.0467617959 0.0237747673 -0.00392795168
v -0.0467617959 0.0237747673 -0.0079279514
v -0.0467803031 0.0235988479 -0.0079279514
v -0.0467803031 0.0235988479 -0.00392795168
v -0.046780318 0.0234219562 -0.0079279514
v -0.046780318 0.0234219562 -0.00392795168
v -0.0467618443 0.023246035 -0.0079279514
v -0.0467618443 0.023246035 -0.00392795168
v -0.0467250831 0.0230730064 -0.0079279514
v -0.0467250831 0.0230730064 -0.00392795168
v -0.0466704369 0.0229047686 -0.0079279514
v -0.0466704369 0.0229047686 -0.00392795168
v -0.0465985052 0.0227431636 -0.0079279514
v -0.0465985052 0.0227431636 -0.00392795168
v -0.0465100743 0.0225899648 -0.0079279514
v -0.0465100743 0.0225899648 -0.00392795168
v -0.0464061163 0.0224468466 -0.0079279514
v -0.0464061163 0.0224468466 -0.00392795168
v -0.0462877639 0.0223153811 -0.0079279514
v -0.0462877639 0.0223153811 -0.00392795168
v -0.0461563207 0.0221970063 -0.0079279514
v -0.0461563207 0.0221970063 -0.00392795168
v -0.0460132249 0.0220930185 -0.0079279514
v -0.0460132249 0.0220930185 -0.00392795168
v -0.0458600409 0.0220045596 -0.0079279514
v -0.0458600409 0.0220045596 -0.00392795168
v -0.045698449 0.0219325963 -0.0079279514
v -0.045698449 0.0219325963 -0.00392795168
v -0.0455302224 0.0218779184 -0.0079279514
v -0.0455302224 0.0218779184 -0.00392795168
v -0.0453572012 0.0218411237 -0.0079279514
v -0.0453572012 0.0218411237 -0.00392795168
v -0.0456195772 0.0309820436 -0.0079279514
v -0.0456195772 0.0309820436 -0.00392795168
v -0.04558447 0.0311487243 -0.00392795168
v -0.04558447 0.0311487243 -0.0079279514
v -0.0455327593 0.031311024 -0.00392795168
v -0.0455327593 0.031311024 -0.0079279514
v -0.0454649776 0.0314672925 -0.00392795168
v -0.0454649776 0.0314672925 -0.0079279514
v -0.0453818068 0.0316159464 -0.00392795168
v -0.0453818068 0.0316159464 -0.0079279514
v -0.0452840924 0.0317554735 -0.00392795168
v -0.0452840924 0.0317554735 -0.0079279514
v -0.0451728329 0.0318844505 -0.00392795168
v -0.0451728329 0.0318844505 -0.0079279514
v -0.0450491495 0.0320015773 -0.00392795168
v -0.0450491495 0.0320015773 -0.0079279514
v -0.0449143089 0.0321056545 -0.00392795168
v -0.0449143089 0.0321056545 -0.0079279514
v -0.0447696708 0.0321956314 -0.00392795168
v -0.0447696708 0.0321956314 -0.0079279514
v -0.0446167141 0.0322705917 -0.00392795168
v -0.0446167141 0.0322705917 -0.0079279514
v -0.0444569886 0.0323297717 -0.00392795168
v -0.0444569886 0.0323297717 -0.0079279514
v -0.0442921147 0.0323725715 -0.00392795168
v -0.0442921147 0.0323725715 -0.0079279514
v -0.0128711434 0.027392935 -0.0079279514
v -0.0128711434 0.027392935 -0.00392795168
v -0.0127275828 0.0273012538 -0.00392795168
v -0.0127275828 0.0273012538 -0.0079279514
v -0.0125939809 0.0271955859 -0.00392795168
v -0.0125939809 0.0271955859 -0.0079279514
v -0.0124716954 0.0270770062 -0.00392795168
v -0.0124716954 0.0270770062 -0.0079279514
v -0.0123619679 0.0269467179 -0.00392795168
v -0.0123619679 0.0269467179 -0.0079279514
v -0.0122659132 0.0268060453 -0.00392795168
v -0.0122659132 0.0268060453 -0.0079279514
v -0.0121845081 0.026656419 -0.00392795168
v -0.0121845081 0.026656419 -0.0079279514
v -0.012118578 0.0264993571 -0.00392795168
v -0.012118578 0.0264993571 -0.0079279514
v -0.0120687941 0.0263364557 -0.00392795168
v -0.0120687941 0.0263364557 -0.0079279514
v -0.0120356623 0.0261693709 -0.00392795168
v -0.0120356623 0.0261693709 -0.0079279514
v -0.0120195178 0.0259998012 -0.00392795168
v -0.0120195178 0.0259998012 -0.0079279514
v -0.0120205265 0.0258294661 -0.00392795168
v -0.0120205265 0.0258294661 -0.0079279514
v -0.0120386761 0.0256600976 -0.00392795168
v -0.0120386761 0.0256600976 -0.0079279514
v -0.0131808948 0.0184528213 -0.0079279514
v -0.0131808948 0.0184528213 -0.00392795168
v -0.0132176885 0.0182798002 -0.00392795168
v -0.0132176885 0.0182798002 -0.0079279514
v -0.0132723665 0.0181115717 -0.00392795168
v -0.0132723665 0.0181115717 -0.0079279514
v -0.0133443298 0.0179499816 -0.00392795168
v -0.0133443298 0.0179499816 -0.0079279514
v -0.0134327896 0.0177967977 -0.00392795168
v -0.0134327896 0.0177967977 -0.0079279514
v -0.0135367764 0.0176537018 -0.00392795168
v -0.0135367764 0.0176537018 -0.0079279514
v -0.0136551512 0.0175222568 -0.00392795168
v -0.0136551512 0.0175222568 -0.0079279514
v -0.0137866177 0.0174039062 -0.00392795168
v -0.0137866177 0.0174039062 -0.0079279514
v -0.0139297349 0.0172999464 -0.00392795168
v -0.0139297349 0.0172999464 -0.0079279514
v -0.0140829347 0.0172115155 -0.00392795168
v -0.0140829347 0.0172115155 -0.0079279514
v -0.0142445387 0.0171395838 -0.00392795168
v -0.0142445387 0.0171395838 -0.0079279514
v -0.0144127766 0.0170849375 -0.00392795168
v -0.0144127766 0.0170849375 -0.0079279514
v -0.0145858051 0.0170481764 -0.00392795168
v -0.0145858051 0.0170481764 -0.0079279514
v -0.0147617282 0.0170297027 -0.00392795168
v -0.0147617282 0.0170297027 -0.0079279514
v -0.0149386181 0.0170297194 -0.00392795168
v -0.0149386181 0.0170297194 -0.0079279514
v -0.0151145374 0.0170482267 -0.00392795168
v -0.0151145374 0.0170482267 -0.0079279514
v -0.0430813245 0.0240140557 -0.00392795168
v -0.0428650863 0.0240023322 -0.00392795168
v -0.0428650863 0.0240023322 -0.0079279514
v -0.0432950296 0.0240490902 -0.00392795168
v -0.0430813245 0.0240140557 -0.0079279514
v -0.0435036905 0.0241070259 -0.00392795168
v -0.0432950296 0.0240490902 -0.0079279514
v -0.0437048636 0.0241871811 -0.00392795168
v -0.0435036905 0.0241070259 -0.0079279514
v -0.0438961945 0.0242886171 -0.00392795168
v -0.0437048636 0.0241871811 -0.0079279514
v -0.0440754369 0.0244101454 -0.00392795168
v -0.0438961945 0.0242886171 -0.0079279514
v -0.0442404859 0.0245503411 -0.00392795168
v -0.0440754369 0.0244101454 -0.0079279514
v -0.0443894118 0.0247075595 -0.00392795168
v -0.0442404859 0.0245503411 -0.0079279514
v -0.0445204638 0.0248799566 -0.00392795168
v -0.0443894118 0.0247075595 -0.0079279514
v -0.0446321107 0.0250655152 -0.00392795168
v -0.0445204638 0.0248799566 -0.0079279514
v -0.0447230414 0.0252620559 -0.00392795168
v -0.0446321107 0.0250655152 -0.0079279514
v -0.0447921865 0.0254672747 -0.00392795168
v -0.0447230414 0.0252620559 -0.0079279514
v -0.0448387414 0.0256787669 -0.00392795168
v -0.0447921865 0.0254672747 -0.0079279514
v -0.0448621549 0.0258940533 -0.00392795168
v -0.0448387414 0.0256787669 -0.0079279514
v -0.0448621549 0.02611061 -0.00392795168
v -0.0448621549 0.0258940533 -0.0079279514
v -0.0448387414 0.0263258964 -0.00392795168
v -0.0448621549 0.02611061 -0.0079279514
v -0.0447921865 0.0265373886 -0.00392795168
v -0.0448387414 0.0263258964 -0.0079279514
v -0.0447230414 0.0267426074 -0.00392795168
v -0.0447921865 0.0265373886 -0.0079279514
v -0.0446321107 0.0269391481 -0.00392795168
v -0.0447230414 0.0267426074 -0.0079279514
v -0.0445204638 0.0271247067 -0.00392795168
v -0.0446321107 0.0269391481 -0.0079279514
v -0.0443894118 0.0272971038 -0.00392795168
v -0.0445204638 0.0271247067 -0.0079279514
v -0.0442404859 0.0274543222 -0.00392795168
v -0.0443894118 0.0272971038 -0.0079279514
v -0.0440754369 0.0275945179 -0.00392795168
v -0.0442404859 0.0274543222 -0.0079279514
v -0.0438961945 0.0277160462 -0.00392795168
v -0.0440754369 0.0275945179 -0.0079279514
v -0.0437048636 0.0278174821 -0.00392795168
v -0.0438961945 0.0277160462 -0.0079279514
v -0.0435036905 0.0278976373 -0.00392795168
v -0.0437048636 0.0278174821 -0.0079279514
v -0.0432950296 0.0279555731 -0.00392795168
v -0.0435036905 0.0278976373 -0.0079279514
v -0.0430813245 0.0279906075 -0.00392795168
v -0.0432950296 0.0279555731 -0.0079279514
v -0.0428650863 0.028002331 -0.00392795168
v -0.0430813245 0.0279906075 -0.0079279514
v -0.0426488481 0.0279906075 -0.00392795168
v -0.0428650863 0.028002331 -0.0079279514
v -0.0424351469 0.0279555731 -0.00392795168
v -0.0426488481 0.0279906075 -0.0079279514
v -0.0422264822 0.0278976373 -0.00392795168
v -0.0424351469 0.0279555731 -0.0079279514
v -0.0420253091 0.0278174821 -0.00392795168
v -0.0422264822 0.0278976373 -0.0079279514
v -0.0418339781 0.0277160462 -0.00392795168
v -0.0420253091 0.0278174821 -0.0079279514
v -0.0416547395 0.0275945179 -0.00392795168
v -0.0418339781 0.0277160462 -0.0079279514
v -0.0414896868 0.0274543222 -0.00392795168
v -0.0416547395 0.0275945179 -0.0079279514
v -0.0413407646 0.0272971038 -0.00392795168
v -0.0414896868 0.0274543222 -0.0079279514
v -0.0412097089 0.0271247067 -0.00392795168
v -0.0413407646 0.0272971038 -0.0079279514
v -0.0410980619 0.0269391481 -0.00392795168
v -0.0412097089 0.0271247067 -0.0079279514
v -0.0410071351 0.0267426074 -0.00392795168
v -0.0410980619 0.0269391481 -0.0079279514
v -0.0409379862 0.0265373886 -0.00392795168
v -0.0410071351 0.0267426074 -0.0079279514
v -0.040891435 0.0263258964 -0.00392795168
v -0.0409379862 0.0265373886 -0.0079279514
v -0.0408680215 0.02611061 -0.00392795168
v -0.040891435 0.0263258964 -0.0079279514
v -0.0408680215 0.0258940533 -0.00392795168
v -0.0408680215 0.02611061 -0.0079279514
v -0.040891435 0.0256787669 -0.00392795168
v -0.0408680215 0.0258940533 -0.0079279514
v -0.0409379862 0.0254672747 -0.00392795168
v -0.040891435 0.0256787669 -0.0079279514
v -0.0410071351 0.0252620559 -0.00392795168
v -0.0409379862 0.0254672747 -0.0079279514
v -0.0410980619 0.0250655152 -0.00392795168
v -0.0410071351 0.0252620559 -0.0079279514
v -0.0412097089 0.0248799566 -0.00392795168
v -0.0410980619 0.0250655152 -0.0079279514
v -0.0413407646 0.0247075595 -0.00392795168
v -0.0412097089 0.0248799566 -0.0079279514
v -0.0414896868 0.0245503411 -0.00392795168
v -0.0413407646 0.0247075595 -0.0079279514
v -0.0416547395 0.0244101454 -0.00392795168
v -0.0414896868 0.0245503411 -0.0079279514
v -0.0418339781 0.0242886171 -0.00392795168
v -0.0416547395 0.0244101454 -0.0079279514
v -0.0420253091 0.0241871811 -0.00392795168
v -0.0418339781 0.0242886171 -0.0079279514
v -0.0422264822 0.0241070259 -0.00392795168
v -0.0420253091 0.0241871811 -0.0079279514
v -0.0424351469 0.0240490902 -0.00392795168
v -0.0422264822 0.0241070259 -0.0079279514
v -0.0426488481 0.0240140557 -0.00392795168
v -0.0424351469 0.0240490902 -0.0079279514
v -0.0426488481 0.0240140557 -0.0079279514
v -0.0164141394 0.0197878052 -0.00392795168
v -0.0161979012 0.0197760798 -0.00392795168
v -0.0161979012 0.0197760798 -0.0079279514
v -0.0166278426 0.0198228396 -0.00392795168
v -0.0164141394 0.0197878052 -0.0079279514
v -0.0168365035 0.0198807735 -0.00392795168
v -0.0166278426 0.0198228396 -0.0079279514
v -0.0170376785 0.0199609306 -0.00392795168
v -0.0168365035 0.0198807735 -0.0079279514
v -0.0172290094 0.0200623665 -0.00392795168
v -0.0170376785 0.0199609306 -0.0079279514
v -0.0174082499 0.0201838948 -0.00392795168
v -0.0172290094 0.0200623665 -0.0079279514
v -0.0175733007 0.0203240886 -0.00392795168
v -0.0174082499 0.0201838948 -0.0079279514
v -0.0177222248 0.0204813071 -0.00392795168
v -0.0175733007 0.0203240886 -0.0079279514
v -0.0178532787 0.020653706 -0.00392795168
v -0.0177222248 0.0204813071 -0.0079279514
v -0.0179649256 0.0208392628 -0.00392795168
v -0.0178532787 0.020653706 -0.0079279514
v -0.0180558544 0.0210358035 -0.00392795168
v -0.0179649256 0.0208392628 -0.0079279514
v -0.0181250013 0.0212410241 -0.00392795168
v -0.0180558544 0.0210358035 -0.0079279514
v -0.0181715544 0.0214525163 -0.00392795168
v -0.0181250013 0.0212410241 -0.0079279514
v -0.0181949679 0.0216678027 -0.00392795168
v -0.0181715544 0.0214525163 -0.0079279514
v -0.0181949679 0.0218843576 -0.00392795168
v -0.0181949679 0.0216678027 -0.0079279514
v -0.0181715544 0.0220996439 -0.00392795168
v -0.0181949679 0.0218843576 -0.0079279514
v -0.0181250013 0.022311138 -0.00392795168
v -0.0181715544 0.0220996439 -0.0079279514
v -0.0180558544 0.0225163568 -0.00392795168
v -0.0181250013 0.022311138 -0.0079279514
v -0.0179649256 0.0227128975 -0.00392795168
v -0.0180558544 0.0225163568 -0.0079279514
v -0.0178532787 0.0228984542 -0.00392795168
v -0.0179649256 0.0227128975 -0.0079279514
v -0.0177222248 0.0230708532 -0.00392795168
v -0.0178532787 0.0228984542 -0.0079279514
v -0.0175733007 0.0232280716 -0.00392795168
v -0.0177222248 0.0230708532 -0.0079279514
v -0.0174082499 0.0233682673 -0.00392795168
v -0.0175733007 0.0232280716 -0.0079279514
v -0.0172290094 0.0234897956 -0.00392795168
v -0.0174082499 0.0233682673 -0.0079279514
v -0.0170376785 0.0235912316 -0.00392795168
v -0.0172290094 0.0234897956 -0.0079279514
v -0.0168365035 0.0236713868 -0.00392795168
v -0.0170376785 0.0235912316 -0.0079279514
v -0.0166278426 0.0237293225 -0.00392795168
v -0.0168365035 0.0236713868 -0.0079279514
v -0.0164141394 0.023764357 -0.00392795168
v -0.0166278426 0.0237293225 -0.0079279514
v -0.0161979012 0.0237760805 -0.00392795168
v -0.0164141394 0.023764357 -0.0079279514
v -0.015981663 0.023764357 -0.00392795168
v -0.0161979012 0.0237760805 -0.0079279514
v -0.0157679599 0.0237293225 -0.00392795168
v -0.015981663 0.023764357 -0.0079279514
v -0.015559298 0.0236713868 -0.00392795168
v -0.0157679599 0.0237293225 -0.0079279514
v -0.015358123 0.0235912316 -0.00392795168
v -0.015559298 0.0236713868 -0.0079279514
v -0.015166793 0.0234897956 -0.00392795168
v -0.015358123 0.0235912316 -0.0079279514
v -0.0149875525 0.0233682673 -0.00392795168
v -0.015166793 0.0234897956 -0.0079279514
v -0.0148225026 0.0232280716 -0.00392795168
v -0.0149875525 0.0233682673 -0.0079279514
v -0.0146735767 0.0230708532 -0.00392795168
v -0.0148225026 0.0232280716 -0.0079279514
v -0.0145425228 0.0228984542 -0.00392795168
v -0.0146735767 0.0230708532 -0.0079279514
v -0.0144308768 0.0227128975 -0.00392795168
v -0.0145425228 0.0228984542 -0.0079279514
v -0.0143399481 0.0225163568 -0.00392795168
v -0.0144308768 0.0227128975 -0.0079279514
v -0.0142708011 0.022311138 -0.00392795168
v -0.0143399481 0.0225163568 -0.0079279514
v -0.014224248 0.0220996439 -0.00392795168
v -0.0142708011 0.022311138 -0.0079279514
v -0.0142008346 0.0218843576 -0.00392795168
v -0.014224248 0.0220996439 -0.0079279514
v -0.0142008346 0.0216678027 -0.00392795168
v -0.0142008346 0.0218843576 -0.0079279514
v -0.014224248 0.0214525163 -0.00392795168
v -0.0142008346 0.0216678027 -0.0079279514
v -0.0142708011 0.0212410241 -0.00392795168
v -0.014224248 0.0214525163 -0.0079279514
v -0.0143399481 0.0210358035 -0.00392795168
v -0.0142708011 0.0212410241 -0.0079279514
v -0.0144308768 0.0208392628 -0.00392795168
v -0.0143399481 0.0210358035 -0.0079279514
v -0.0145425228 0.020653706 -0.00392795168
v -0.0144308768 0.0208392628 -0.0079279514
v -0.0146735767 0.0204813071 -0.00392795168
v -0.0145425228 0.020653706 -0.0079279514
v -0.0148225026 0.0203240886 -0.00392795168
v -0.0146735767 0.0204813071 -0.0079279514
v -0.0149875525 0.0201838948 -0.00392795168
v -0.0148225026 0.0203240886 -0.0079279514
v -0.015166793 0.0200623665 -0.00392795168
v -0.0149875525 0.0201838948 -0.0079279514
v -0.015358123 0.0199609306 -0.00392795168
v -0.015166793 0.0200623665 -0.0079279514
v -0.015559298 0.0198807735 -0.00392795168
v -0.015358123 0.0199609306 -0.0079279514
v -0.0157679599 0.0198228396 -0.00392795168
v -0.015559298 0.0198807735 -0.0079279514
v -0.015981663 0.0197878052 -0.00392795168
v -0.0157679599 0.0198228396 -0.0079279514
v -0.015981663 0.0197878052 -0.0079279514
v -0.0442404859 0.0245503411 -0.00392795168
v -0.0443894118 0.0247075595 -0.00392795168
v -0.0465985052 0.0227431636 -0.00392795168
v -0.0460132249 0.0220930185 -0.00392795168
v -0.0458600409 0.0220045596 -0.00392795168
v -0.0462877639 0.0223153811 -0.00392795168
v -0.0461563207 0.0221970063 -0.00392795168
v -0.0440754369 0.0244101454 -0.00392795168
v -0.0455302224 0.0218779184 -0.00392795168
v -0.0453572012 0.0218411237 -0.00392795168
v -0.045698449 0.0219325963 -0.00392795168
v -0.0467618443 0.023246035 -0.00392795168
v -0.0467250831 0.0230730064 -0.00392795168
v -0.0465100743 0.0225899648 -0.00392795168
v -0.0456195772 0.0309820436 -0.00392795168
v -0.0442404859 0.0274543222 -0.00392795168
v -0.0440754369 0.0275945179 -0.00392795168
v -0.0445204638 0.0248799566 -0.00392795168
v -0.0446321107 0.0250655152 -0.00392795168
v -0.0467617959 0.0237747673 -0.00392795168
v -0.0466704369 0.0229047686 -0.00392795168
v -0.046780318 0.0234219562 -0.00392795168
v -0.0464061163 0.0224468466 -0.00392795168
v -0.0438961945 0.0242886171 -0.00392795168
v -0.015166793 0.0200623665 -0.00392795168
v -0.0134327896 0.0177967977 -0.00392795168
v -0.0133443298 0.0179499816 -0.00392795168
v -0.0149875525 0.0201838948 -0.00392795168
v -0.0132176885 0.0182798002 -0.00392795168
v -0.0131808948 0.0184528213 -0.00392795168
v -0.0148225026 0.0232280716 -0.00392795168
v -0.0120205265 0.0258294661 -0.00392795168
v -0.0120195178 0.0259998012 -0.00392795168
v -0.0146735767 0.0230708532 -0.00392795168
v -0.0120386761 0.0256600976 -0.00392795168
v -0.015166793 0.0234897956 -0.00392795168
v -0.0149875525 0.0233682673 -0.00392795168
v -0.0123619679 0.0269467179 -0.00392795168
v -0.0203591343 0.0178793967 -0.00392795168
v -0.0181250013 0.0212410241 -0.00392795168
v -0.0181715544 0.0214525163 -0.00392795168
v -0.0178532787 0.020653706 -0.00392795168
v -0.0179649256 0.0208392628 -0.00392795168
v -0.0401126035 0.0210099537 -0.00392795168
v -0.0414896868 0.0245503411 -0.00392795168
v -0.0416547395 0.0244101454 -0.00392795168
v -0.0443894118 0.0272971038 -0.00392795168
v -0.0447921865 0.0265373886 -0.00392795168
v -0.0447230414 0.0267426074 -0.00392795168
v -0.0447230414 0.0252620559 -0.00392795168
v -0.0467803031 0.0235988479 -0.00392795168
v -0.015559298 0.0198807735 -0.00392795168
v -0.0157679599 0.0198228396 -0.00392795168
v -0.0151145374 0.0170482267 -0.00392795168
v -0.015358123 0.0199609306 -0.00392795168
v -0.0144127766 0.0170849375 -0.00392795168
v -0.0142445387 0.0171395838 -0.00392795168
v -0.0145858051 0.0170481764 -0.00392795168
v -0.0137866177 0.0174039062 -0.00392795168
v -0.0136551512 0.0175222568 -0.00392795168
v -0.0140829347 0.0172115155 -0.00392795168
v -0.0139297349 0.0172999464 -0.00392795168
v -0.0135367764 0.0176537018 -0.00392795168
v -0.0132723665 0.0181115717 -0.00392795168
v -0.0121845081 0.026656419 -0.00392795168
v -0.0122659132 0.0268060453 -0.00392795168
v -0.0120687941 0.0263364557 -0.00392795168
v -0.012118578 0.0264993571 -0.00392795168
v -0.0124716954 0.0270770062 -0.00392795168
v -0.0128711434 0.027392935 -0.00392795168
v -0.015559298 0.0236713868 -0.00392795168
v -0.015358123 0.0235912316 -0.00392795168
v -0.0170180593 0.0294806063 -0.00392795168
v -0.0157679599 0.0237293225 -0.00392795168
v -0.018544985 0.0293264836 -0.00392795168
v -0.0166278426 0.0237293225 -0.00392795168
v -0.0170376785 0.0235912316 -0.00392795168
v -0.0168365035 0.0236713868 -0.00392795168
v -0.0174082499 0.0233682673 -0.00392795168
v -0.0172290094 0.0234897956 -0.00392795168
v -0.0177222248 0.0230708532 -0.00392795168
v -0.0175733007 0.0232280716 -0.00392795168
v -0.0179649256 0.0227128975 -0.00392795168
v -0.0178532787 0.0228984542 -0.00392795168
v -0.0181715544 0.0220996439 -0.00392795168
v -0.0180558544 0.0210358035 -0.00392795168
v -0.0177222248 0.0204813071 -0.00392795168
v -0.0174082499 0.0201838948 -0.00392795168
v -0.0175733007 0.0203240886 -0.00392795168
v -0.0170376785 0.0199609306 -0.00392795168
v -0.0172290094 0.0200623665 -0.00392795168
v -0.0166278426 0.0198228396 -0.00392795168
v -0.0168365035 0.0198807735 -0.00392795168
v -0.0418339781 0.0242886171 -0.00392795168
v -0.0445204638 0.0271247067 -0.00392795168
v -0.0446321107 0.0269391481 -0.00392795168
v -0.0432950296 0.0240490902 -0.00392795168
v -0.0435036905 0.0241070259 -0.00392795168
v -0.0149386181 0.0170297194 -0.00392795168
v -0.0145425228 0.020653706 -0.00392795168
v -0.0146735767 0.0204813071 -0.00392795168
v -0.0142008346 0.0216678027 -0.00392795168
v -0.0143399481 0.0225163568 -0.00392795168
v -0.0142708011 0.022311138 -0.00392795168
v -0.0120356623 0.0261693709 -0.00392795168
v -0.0125939809 0.0271955859 -0.00392795168
v -0.0180558544 0.0225163568 -0.00392795168
v -0.0181250013 0.022311138 -0.00392795168
v -0.0413407646 0.0247075595 -0.00392795168
v -0.0409379862 0.0254672747 -0.00392795168
v -0.0410071351 0.0252620559 -0.00392795168
v -0.0432950296 0.0279555731 -0.00392795168
v -0.0447696708 0.0321956314 -0.00392795168
v -0.0449143089 0.0321056545 -0.00392795168
v -0.0437048636 0.0278174821 -0.00392795168
v -0.04558447 0.0311487243 -0.00392795168
v -0.0454649776 0.0314672925 -0.00392795168
v -0.0455327593 0.031311024 -0.00392795168
v -0.0448387414 0.0263258964 -0.00392795168
v -0.0437048636 0.0241871811 -0.00392795168
v -0.0147617282 0.0170297027 -0.00392795168
v -0.0148225026 0.0203240886 -0.00392795168
v -0.0144308768 0.0208392628 -0.00392795168
v -0.0142008346 0.0218843576 -0.00392795168
v -0.0144308768 0.0227128975 -0.00392795168
v -0.0145425228 0.0228984542 -0.00392795168
v -0.0127275828 0.0273012538 -0.00392795168
v -0.015981663 0.023764357 -0.00392795168
v -0.0164141394 0.023764357 -0.00392795168
v -0.0161979012 0.0237760805 -0.00392795168
v -0.0164141394 0.0197878052 -0.00392795168
v -0.0412097089 0.0248799566 -0.00392795168
v -0.0410980619 0.0250655152 -0.00392795168
v -0.0397029035 0.0330757312 -0.00392795168
v -0.0420253091 0.0278174821 -0.00392795168
v -0.0418339781 0.0277160462 -0.00392795168
v -0.0442921147 0.0323725715 -0.00392795168
v -0.0428650863 0.028002331 -0.00392795168
v -0.0426488481 0.0279906075 -0.00392795168
v -0.0446167141 0.0322705917 -0.00392795168
v -0.0435036905 0.0278976373 -0.00392795168
v -0.0451728329 0.0318844505 -0.00392795168
v -0.0452840924 0.0317554735 -0.00392795168
v -0.0450491495 0.0320015773 -0.00392795168
v -0.0448387414 0.0256787669 -0.00392795168
v -0.0448621549 0.0258940533 -0.00392795168
v -0.0428650863 0.0240023322 -0.00392795168
v -0.0142708011 0.0212410241 -0.00392795168
v -0.0143399481 0.0210358035 -0.00392795168
v -0.014224248 0.0220996439 -0.00392795168
v -0.0420253091 0.0241871811 -0.00392795168
v -0.0422264822 0.0241070259 -0.00392795168
v -0.0382984541 0.0324570388 -0.00392795168
v -0.0408680215 0.0258940533 -0.00392795168
v -0.0410980619 0.0269391481 -0.00392795168
v -0.0410071351 0.0267426074 -0.00392795168
v -0.0413407646 0.0272971038 -0.00392795168
v -0.0412097089 0.0271247067 -0.00392795168
v -0.0416547395 0.0275945179 -0.00392795168
v -0.0414896868 0.0274543222 -0.00392795168
v -0.0430813245 0.0279906075 -0.00392795168
v -0.0444569886 0.0323297717 -0.00392795168
v -0.0453818068 0.0316159464 -0.00392795168
v -0.0438961945 0.0277160462 -0.00392795168
v -0.0448621549 0.02611061 -0.00392795168
v -0.0447921865 0.0254672747 -0.00392795168
v -0.0430813245 0.0240140557 -0.00392795168
v -0.014224248 0.0214525163 -0.00392795168
v -0.0181949679 0.0216678027 -0.00392795168
v -0.0181949679 0.0218843576 -0.00392795168
v -0.0161979012 0.0197760798 -0.00392795168
v -0.025844194 0.0323251896 -0.00392795168
v -0.0304297302 0.0330519117 -0.00392795168
v -0.0424351469 0.0240490902 -0.00392795168
v -0.040891435 0.0256787669 -0.00392795168
v -0.0408680215 0.02611061 -0.00392795168
v -0.0409379862 0.0265373886 -0.00392795168
v -0.0422264822 0.0278976373 -0.00392795168
v -0.015981663 0.0197878052 -0.00392795168
v -0.0350657031 0.0333029814 -0.00392795168
v -0.0213577636 0.0311305281 -0.00392795168
v -0.040891435 0.0263258964 -0.00392795168
v -0.0424351469 0.0279555731 -0.00392795168
v -0.0426488481 0.0240140557 -0.00392795168
v -0.0453572012 0.0218411237 -0.0079279514
v -0.0203591343 0.0178793967 -0.00392795168
v -0.0401126035 0.0210099537 -0.00392795168
v -0.0203591343 0.0178793967 0.0100382902
v -0.0401126035 0.0210099537 0.0100382902
v -0.0151145374 0.0170482267 -0.0079279514
v -0.0151145374 0.0170482267 -0.00392795168
v -0.0453572012 0.0218411237 -0.00392795168
v -0.0185726341 0.0291520134 -0.00391869387
v -0.018544985 0.0293264836 -0.00392795168
v -0.0382984541 0.0324570388 -0.00392795168
v -0.0185999814 0.0289794542 -0.00389102218
v -0.038326107 0.0322825685 -0.00391869387
v -0.0186267272 0.0288106985 -0.00384523952
v -0.0383534543 0.0321100093 -0.00389102218
v -0.0186525751 0.0286475923 -0.00378184789
v -0.0383801982 0.0319412537 -0.00384523952
v -0.0186772458 0.0284919236 -0.00370154134
v -0.038406048 0.0317781493 -0.00378184789
v -0.0187004674 0.0283454005 -0.00360519998
v -0.0384307168 0.0316224806 -0.00370154134
v -0.0187219847 0.0282096248 -0.00349387922
v -0.0384539403 0.0314759575 -0.00360519998
v -0.0187415648 0.0280860867 -0.00336879888
v -0.0384754576 0.0313401818 -0.00349387922
v -0.018758988 0.0279761385 -0.00323132938
v -0.038495034 0.0312166438 -0.00336879888
v -0.018774068 0.0278809853 -0.00308297668
v -0.0385124609 0.0311066955 -0.00323132938
v -0.018786639 0.0278016683 -0.00292536616
v -0.0385275409 0.0310115404 -0.00308297668
v -0.0187965613 0.0277390573 -0.00276022498
v -0.03854011 0.0309322234 -0.00292536616
v -0.0188037287 0.0276938397 -0.00258936197
v -0.0385500342 0.0308696143 -0.00276022498
v -0.0188080594 0.0276665092 -0.00241464959
v -0.0385571979 0.0308243949 -0.00258936197
v -0.0188095085 0.0276573654 -0.00223800167
v -0.0385615304 0.0307970643 -0.00241464959
v -0.0385629795 0.0307879206 -0.00223800167
v -0.0385629795 0.0307879206 -0.00223800167
v -0.0385629795 0.0307879206 0.00503828982
v -0.0188095085 0.0276573654 0.00503828982
v -0.0188095085 0.0276573654 -0.00223800167
v -0.0200946089 0.0195485167 0.0117282402
v -0.0398480818 0.0226790719 0.0117282402
v -0.0398757309 0.0225046016 0.0117189819
v -0.0201222599 0.0193740446 0.0117189819
v -0.0399030782 0.0223320425 0.0116913104
v -0.0201496072 0.0192014873 0.0116913104
v -0.0399298221 0.0221632868 0.0116455276
v -0.0201763529 0.0190327298 0.0116455276
v -0.0399556719 0.0220001806 0.0115821362
v -0.0202022009 0.0188696235 0.0115821362
v -0.0399803445 0.0218445119 0.0115018301
v -0.0202268716 0.0187139567 0.0115018301
v -0.0400035642 0.0216979887 0.0114054885
v -0.0202500932 0.0185674317 0.0114054885
v -0.0400250815 0.0215622131 0.0112941675
v -0.0202716105 0.0184316579 0.0112941675
v -0.0400446616 0.021438675 0.0111690871
v -0.0202911887 0.018308118 0.0111690871
v -0.0400620848 0.0213287268 0.0110316174
v -0.0203086138 0.0181981698 0.0110316174
v -0.0400771648 0.0212335736 0.0108832652
v -0.0203236938 0.0181030165 0.0108832652
v -0.0400897339 0.0211542565 0.0107256547
v -0.0203362647 0.0180236995 0.0107256547
v -0.0400996581 0.0210916456 0.0105605135
v -0.0203461871 0.0179610886 0.0105605135
v -0.0401068255 0.021046428 0.0103896502
v -0.0203533527 0.017915871 0.0103896502
v -0.0401111543 0.0210190974 0.0102149379
v -0.0203576852 0.0178885404 0.0102149379
v -0.0401126035 0.0210099537 0.0100382902
v -0.0203591343 0.0178793967 0.0100382902
v -0.0200946089 0.0195485167 0.0117282402
v -0.0190740321 0.0259882454 0.0117282402
v -0.038827505 0.0291188024 0.0117282402
v -0.0398480818 0.0226790719 0.0117282402
v -0.0188109577 0.0276482217 0.0132415425
v -0.0188095085 0.0276573654 0.0134181902
v -0.0385629795 0.0307879206 0.0134181902
v -0.0188152883 0.0276208911 0.0130668301
v -0.0385644287 0.0307787787 0.0132415425
v -0.0188224558 0.0275756717 0.0128959669
v -0.0385687612 0.0307514463 0.0130668301
v -0.0188323781 0.0275130626 0.0127308257
v -0.0385759249 0.0307062287 0.0128959669
v -0.0188449472 0.0274337456 0.0125732152
v -0.0385858491 0.0306436177 0.0127308257
v -0.0188600272 0.0273385923 0.012424862
v -0.0385984182 0.0305643026 0.0125732152
v -0.0188774522 0.0272286441 0.0122873932
v -0.0386134982 0.0304691475 0.012424862
v -0.0188970305 0.0271051042 0.0121623129
v -0.0386309251 0.0303591993 0.0122873932
v -0.0189185496 0.0269693304 0.0120509919
v -0.0386505015 0.0302356612 0.0121623129
v -0.0189417712 0.0268228054 0.0119546503
v -0.0386720188 0.0300998855 0.0120509919
v -0.0189664401 0.0266671386 0.0118743442
v -0.0386952423 0.0299533624 0.0119546503
v -0.0189922899 0.0265040323 0.0118109519
v -0.0387199111 0.0297976937 0.0118743442
v -0.0190190356 0.0263352748 0.0117651699
v -0.0387457609 0.0296345893 0.0118109519
v -0.019046383 0.0261627156 0.0117374975
v -0.0387725048 0.0294658318 0.0117651699
v -0.0190740321 0.0259882454 0.0117282402
v -0.0387998521 0.0292932726 0.0117374975
v -0.038827505 0.0291188024 0.0117282402
v -0.038326107 0.0322825685 0.00671898248
v -0.0382984541 0.0324570388 0.00672823982
v -0.018544985 0.0293264836 0.00672823982
v -0.0383534543 0.0321100093 0.00669131055
v -0.0185726341 0.0291520134 0.00671898248
v -0.0383801982 0.0319412537 0.00664552813
v -0.0185999814 0.0289794542 0.00669131055
v -0.038406048 0.0317781493 0.00658213627
v -0.0186267272 0.0288106985 0.00664552813
v -0.0384307168 0.0316224806 0.00650182972
v -0.0186525751 0.0286475923 0.00658213627
v -0.0384539403 0.0314759575 0.00640548812
v -0.0186772458 0.0284919236 0.00650182972
v -0.0384754576 0.0313401818 0.0062941676
v -0.0187004674 0.0283454005 0.00640548812
v -0.038495034 0.0312166438 0.00616908725
v -0.0187219847 0.0282096248 0.0062941676
v -0.0385124609 0.0311066955 0.00603161752
v -0.0187415648 0.0280860867 0.00616908725
v -0.0385275409 0.0310115404 0.00588326482
v -0.018758988 0.0279761385 0.00603161752
v -0.03854011 0.0309322234 0.00572565477
v -0.018774068 0.0278809853 0.00588326482
v -0.0385500342 0.0308696143 0.00556051312
v -0.018786639 0.0278016683 0.00572565477
v -0.0385571979 0.0308243949 0.00538965035
v -0.0187965613 0.0277390573 0.00556051312
v -0.0385615304 0.0307970643 0.00521493796
v -0.0188037287 0.0276938397 0.00538965035
v -0.0385629795 0.0307879206 0.00503828982
v -0.0188080594 0.0276665092 0.00521493796
v -0.0188095085 0.0276573654 0.00503828982
v -0.0181348659 0.0319142863 0.00672823982
v -0.018544985 0.0293264836 0.00672823982
v -0.0382984541 0.0324570388 0.00672823982
v -0.0378883369 0.0350448452 0.00672823982
v -0.0181348659 0.0319142863 0.00672823982
v -0.0378883369 0.0350448452 0.00672823982
v -0.0378606878 0.0352193154 0.00673749764
v -0.0181072149 0.0320887566 0.00673749764
v -0.0378333405 0.0353918746 0.00676516956
v -0.0180798676 0.0322613157 0.00676516956
v -0.0378065929 0.0355606303 0.00681095198
v -0.0180531237 0.0324300751 0.00681095198
v -0.0377807431 0.0357237346 0.00687434385
v -0.0180272739 0.0325931795 0.00687434385
v -0.0377560742 0.0358794034 0.00695465039
v -0.0180026032 0.0327488482 0.00695465039
v -0.0377328545 0.0360259265 0.00705099152
v -0.0179793816 0.0328953713 0.00705099152
v -0.0377113372 0.0361617021 0.00716231251
v -0.0179578643 0.033031147 0.00716231251
v -0.0376917571 0.0362852402 0.00728739286
v -0.0179382861 0.0331546851 0.00728739286
v -0.0376743339 0.0363951884 0.00742486212
v -0.017920861 0.0332646333 0.00742486212
v -0.0376592502 0.0364903435 0.00757321483
v -0.017905781 0.0333597884 0.00757321483
v -0.0376466811 0.0365696587 0.00773082534
v -0.0178932101 0.0334391035 0.00773082534
v -0.0376367606 0.0366322696 0.00789596699
v -0.0178832877 0.0335017145 0.00789596699
v -0.0376295932 0.0366774872 0.00806682929
v -0.0178761221 0.033546932 0.00806682929
v -0.0376252607 0.0367048196 0.00824154261
v -0.0178717896 0.0335742645 0.00824154168
v -0.0376238115 0.0367139615 0.00841819029
v -0.0178703405 0.0335834064 0.00841819029
v -0.0201496072 0.0192014873 0.0116913104
v -0.0202022009 0.0188696235 0.0115821362
v -0.0202268716 0.0187139567 0.0115018301
v -0.0202500932 0.0185674317 0.0114054885
v -0.0202716105 0.0184316579 0.0112941675
v -0.0201763529 0.0190327298 0.0116455276
v -0.0202911887 0.018308118 0.0111690871
v -0.0201222599 0.0193740446 0.0117189819
v -0.0200946089 0.0195485167 0.0117282402
v -0.0203362647 0.0180236995 0.0107256547
v -0.0203461871 0.0179610886 0.0105605135
v -0.0203086138 0.0181981698 0.0110316174
v -0.0203236938 0.0181030165 0.0108832652
v -0.0203533527 0.017915871 0.0103896502
v -0.0190190356 0.0263352748 0.0117651699
v -0.0187965613 0.0277390573 0.00556051312
v -0.018786639 0.0278016683 0.00572565477
v -0.0188774522 0.0272286441 0.0122873932
v -0.0188970305 0.0271051042 0.0121623129
v -0.0181348659 0.0319142863 0.00672823982
v -0.0203576852 0.0178885404 0.0102149379
v -0.0188080594 0.0276665092 0.00521493796
v -0.0190740321 0.0259882454 0.0117282402
v -0.0187415648 0.0280860867 0.00616908725
v -0.0187219847 0.0282096248 0.0062941676
v -0.018774068 0.0278809853 0.00588326482
v -0.0189664401 0.0266671386 0.0118743442
v -0.0189922899 0.0265040323 0.0118109519
v -0.0186525751 0.0286475923 0.00658213627
v -0.0187004674 0.0283454005 0.00640548812
v -0.0186772458 0.0284919236 0.00650182972
v -0.0180798676 0.0322613157 0.00676516956
v -0.0180531237 0.0324300751 0.00681095198
v -0.0181072149 0.0320887566 0.00673749764
v -0.0203591343 0.0178793967 0.0100382902
v -0.018758988 0.0279761385 0.00603161752
v -0.0188037287 0.0276938397 0.00538965035
v -0.0186267272 0.0288106985 0.00664552813
v -0.0180272739 0.0325931795 0.00687434385
v -0.0180026032 0.0327488482 0.00695465039
v -0.0178932101 0.0334391035 0.00773082534
v -0.0178832877 0.0335017145 0.00789596699
v -0.0179382861 0.0331546851 0.00728739286
v -0.017920861 0.0332646333 0.00742486212
v -0.0179793816 0.0328953713 0.00705099152
v -0.0179578643 0.033031147 0.00716231251
v -0.019046383 0.0261627156 0.0117374975
v -0.0189417712 0.0268228054 0.0119546503
v -0.0185999814 0.0289794542 0.00669131055
v -0.017905781 0.0333597884 0.00757321483
v -0.0188600272 0.0273385923 0.012424862
v -0.0178717896 0.0335742645 0.00824154168
v -0.0178703405 0.0335834064 0.00841819029
v -0.0178761221 0.033546932 0.00806682929
v -0.0203591343 0.0178793967 -0.00392795168
v -0.0188095085 0.0276573654 -0.00223800167
v -0.0188095085 0.0276573654 0.00503828982
v -0.018544985 0.0293264836 -0.00392795168
v -0.0185726341 0.0291520134 -0.00391869387
v -0.0185726341 0.0291520134 0.00671898248
v -0.0189185496 0.0269693304 0.0120509919
v -0.018544985 0.0293264836 0.00672823982
v -0.0188080594 0.0276665092 -0.00241464959
v -0.0186267272 0.0288106985 -0.00384523952
v -0.0186525751 0.0286475923 -0.00378184789
v -0.0185999814 0.0289794542 -0.00389102218
v -0.0188323781 0.0275130626 0.0127308257
v -0.0188449472 0.0274337456 0.0125732152
v -0.0188152883 0.0276208911 0.0130668301
v -0.0188224558 0.0275756717 0.0128959669
v -0.0178703405 0.0335834064 0.0460720472
v -0.0188095085 0.0276573654 0.0460720472
v -0.0188095085 0.0276573654 0.0134181902
v -0.018758988 0.0279761385 -0.00323132938
v -0.018774068 0.0278809853 -0.00308297668
v -0.0187219847 0.0282096248 -0.00349387922
v -0.0187415648 0.0280860867 -0.00336879888
v -0.0186772458 0.0284919236 -0.00370154134
v -0.0187004674 0.0283454005 -0.00360519998
v -0.0188109577 0.0276482217 0.0132415425
v -0.0188037287 0.0276938397 -0.00258936197
v -0.018786639 0.0278016683 -0.00292536616
v -0.0187965613 0.0277390573 -0.00276022498
v -0.0399030782 0.0223320425 0.0116913104
v -0.0399803445 0.0218445119 0.0115018301
v -0.0399556719 0.0220001806 0.0115821362
v -0.0398757309 0.0225046016 0.0117189819
v -0.0400446616 0.021438675 0.0111690871
v -0.0400250815 0.0215622131 0.0112941675
v -0.0400897339 0.0211542565 0.0107256547
v -0.0400771648 0.0212335736 0.0108832652
v -0.0399298221 0.0221632868 0.0116455276
v -0.0400035642 0.0216979887 0.0114054885
v -0.0400620848 0.0213287268 0.0110316174
v -0.0401068255 0.021046428 0.0103896502
v -0.0400996581 0.0210916456 0.0105605135
v -0.0386309251 0.0303591993 0.0122873932
v -0.0377807431 0.0357237346 0.00687434385
v -0.0378065929 0.0355606303 0.00681095198
v -0.0387199111 0.0297976937 0.0118743442
v -0.0383801982 0.0319412537 0.00664552813
v -0.038406048 0.0317781493 0.00658213627
v -0.0386134982 0.0304691475 0.012424862
v -0.0377113372 0.0361617021 0.00716231251
v -0.0377328545 0.0360259265 0.00705099152
v -0.0376592502 0.0364903435 0.00757321483
v -0.0376743339 0.0363951884 0.00742486212
v -0.0376367606 0.0366322696 0.00789596699
v -0.0376466811 0.0365696587 0.00773082534
v -0.0378333405 0.0353918746 0.00676516956
v -0.0377560742 0.0358794034 0.00695465039
v -0.0387457609 0.0296345893 0.0118109519
v -0.0384307168 0.0316224806 0.00650182972
v -0.0383534543 0.0321100093 0.00669131055
v -0.0398480818 0.0226790719 0.0117282402
v -0.0401126035 0.0210099537 0.0100382902
v -0.0401111543 0.0210190974 0.0102149379
v -0.0376917571 0.0362852402 0.00728739286
v -0.0378606878 0.0352193154 0.00673749764
v -0.0378883369 0.0350448452 0.00672823982
v -0.0386952423 0.0299533624 0.0119546503
v -0.038326107 0.0322825685 0.00671898248
v -0.0387725048 0.0294658318 0.0117651699
v -0.03854011 0.0309322234 0.00572565477
v -0.0385500342 0.0308696143 0.00556051312
v -0.0385124609 0.0311066955 0.00603161752
v -0.0385275409 0.0310115404 0.00588326482
v -0.0384754576 0.0313401818 0.0062941676
v -0.0385615304 0.0307970643 0.00521493796
v -0.0382984541 0.0324570388 0.00672823982
v -0.0384539403 0.0314759575 0.00640548812
v -0.038495034 0.0312166438 0.00616908725
v -0.0386505015 0.0302356612 0.0121623129
v -0.0387998521 0.0292932726 0.0117374975
v -0.0385571979 0.0308243949 0.00538965035
v -0.038827505 0.0291188024 0.0117282402
v -0.0401126035 0.0210099537 -0.00392795168
v -0.0385629795 0.0307879206 0.00503828982
v -0.0385984182 0.0305643026 0.0125732152
v -0.0376238115 0.0367139615 0.00841819029
v -0.0386720188 0.0300998855 0.0120509919
v -0.038495034 0.0312166438 -0.00336879888
v -0.0384754576 0.0313401818 -0.00349387922
v -0.0385629795 0.0307879206 -0.00223800167
v -0.0385759249 0.0307062287 0.0128959669
v -0.0385687612 0.0307514463 0.0130668301
v -0.0376252607 0.0367048196 0.00824154261
v -0.0383534543 0.0321100093 -0.00389102218
v -0.038326107 0.0322825685 -0.00391869387
v -0.038406048 0.0317781493 -0.00378184789
v -0.0383801982 0.0319412537 -0.00384523952
v -0.0384539403 0.0314759575 -0.00360519998
v -0.0384307168 0.0316224806 -0.00370154134
v -0.0385124609 0.0311066955 -0.00323132938
v -0.03854011 0.0309322234 -0.00292536616
v -0.0385275409 0.0310115404 -0.00308297668
v -0.0385615304 0.0307970643 -0.00241464959
v -0.0385571979 0.0308243949 -0.00258936197
v -0.0385858491 0.0306436177 0.0127308257
v -0.0376295932 0.0366774872 0.00806682929
v -0.0385500342 0.0308696143 -0.00276022498
v -0.0376238115 0.0367139615 0.0460720472
v -0.0385629795 0.0307879206 0.0134181902
v -0.0385644287 0.0307787787 0.0132415425
v -0.0385629795 0.0307879206 0.0460720472
v -0.0382984541 0.0324570388 -0.00392795168
v -0.0188095085 0.0276573654 0.0460720472
v -0.0178703405 0.0335834064 0.0460720472
v -0.017928239 0.0335925817 0.0471532382
v -0.018867407 0.0276665408 0.0471532382
v -0.0181012545 0.0336199999 0.048221752
v -0.0190404207 0.0276939608 0.048221752
v -0.0183873568 0.0336653441 0.0492650643
v -0.0193265248 0.0277393032 0.0492650643
v -0.0187831949 0.033728078 0.0502709411
v -0.0197223611 0.0278020352 0.0502709411
v -0.0192841254 0.0338074639 0.0512275882
v -0.0202232916 0.027881423 0.0512275882
v -0.0198842771 0.0339025781 0.0521237887
v -0.0208234433 0.0279765353 0.0521237887
v -0.0205766112 0.034012299 0.0529490411
v -0.0215157792 0.0280862581 0.0529490411
v -0.0213530138 0.0341353454 0.0536936671
v -0.02229218 0.0282093044 0.0536936671
v -0.0222043805 0.0342702717 0.0543489382
v -0.0231435485 0.0283442289 0.0543489382
v -0.0231207311 0.0344154947 0.0549071692
v -0.0240598973 0.0284894537 0.0549071692
v -0.0240913201 0.0345693156 0.0553618148
v -0.0250304863 0.0286432747 0.0553618148
v -0.0251047704 0.0347299278 0.0557075478
v -0.0260439366 0.0288038868 0.0557075478
v -0.0261491984 0.0348954499 0.0559403151
v -0.0270883664 0.0289694089 0.0559403151
v -0.0272123609 0.035063941 0.0560573824
v -0.0281515289 0.0291379001 0.0560573824
v -0.028281793 0.0352334268 0.0560573824
v -0.0292209592 0.0293073859 0.0560573824
v -0.0293449555 0.035401918 0.0559403151
v -0.0302841216 0.0294758771 0.0559403151
v -0.0303893834 0.0355674401 0.0557075478
v -0.0313285515 0.0296413992 0.0557075478
v -0.0314028338 0.0357280523 0.0553618148
v -0.0323420018 0.0298020132 0.0553618148
v -0.0323734246 0.0358818732 0.0549071692
v -0.0333125889 0.0299558323 0.0549071692
v -0.0332897715 0.0360270999 0.0543489382
v -0.0342289396 0.0301010571 0.0543489382
v -0.0341411382 0.0361620225 0.0536936671
v -0.0350803062 0.0302359834 0.0536936671
v -0.0349175408 0.0362850688 0.0529490411
v -0.0358567089 0.0303590279 0.0529490411
v -0.0356098786 0.0363947898 0.0521237887
v -0.0365490429 0.0304687507 0.0521237887
v -0.0362100303 0.0364899039 0.0512275882
v -0.0371491946 0.030563863 0.0512275882
v -0.0367109589 0.0365692936 0.0502709411
v -0.037650127 0.0306432508 0.0502709411
v -0.0371067971 0.0366320238 0.0492650643
v -0.0380459651 0.0307059847 0.0492650643
v -0.0373928994 0.036677368 0.048221752
v -0.0383320674 0.0307513252 0.048221752
v -0.0375659131 0.0367047861 0.0471532382
v -0.0385050811 0.0307787452 0.0471532382
v -0.0376238115 0.0367139615 0.0460720472
v -0.0385629795 0.0307879206 0.0460720472
v -0.0192841254 0.0338074639 0.0512275882
v -0.0187831949 0.033728078 0.0502709411
v -0.0228169411 0.034367349 0.0483814366
v -0.0183873568 0.0336653441 0.0492650643
v -0.0225992315 0.0343328454 0.0478282049
v -0.0178703405 0.0335834064 0.0460720472
v -0.0225992315 0.0343328454 0.0443158895
v -0.0224418752 0.0343079083 0.0448897108
v -0.0178703405 0.0335834064 0.00841819029
v -0.0230924543 0.0344110131 0.0432365015
v -0.0242303424 0.034591347 0.0418801568
v -0.0238033216 0.0345236734 0.0422897004
v -0.0268682446 0.0350094065 0.0406445041
v -0.0262938086 0.0349183679 0.0407725237
v -0.0213530138 0.0341353454 0.0536936671
v -0.0205766112 0.034012299 0.0529490411
v -0.0238033216 0.0345236734 0.049854394
v -0.0198842771 0.0339025781 0.0521237887
v -0.0234225374 0.0344633274 0.0494005047
v -0.0181012545 0.0336199999 0.048221752
v -0.0224418752 0.0343079083 0.0472543873
v -0.017928239 0.0335925817 0.0471532382
v -0.0223467164 0.0342928283 0.0466667041
v -0.0223148726 0.0342877805 0.0460720472
v -0.0223467164 0.0342928283 0.045477394
v -0.0234225374 0.0344633274 0.0427435897
v -0.0246985946 0.0346655585 0.0415197574
v -0.0257364102 0.0348300301 0.0409626774
v -0.0252025872 0.0347454287 0.0412127338
v -0.027452983 0.0351020768 0.0405801162
v -0.0240913201 0.0345693156 0.0553618148
v -0.0231207311 0.0344154947 0.0549071692
v -0.0252025872 0.0347454287 0.0509313643
v -0.0222043805 0.0342702717 0.0543489382
v -0.0246985946 0.0346655585 0.050624337
v -0.0242303424 0.034591347 0.0502639413
v -0.0228169411 0.034367349 0.0437626578
v -0.0376238115 0.0367139615 0.00841819029
v -0.0280411709 0.035195291 0.0405801162
v -0.0314028338 0.0357280523 0.0553618148
v -0.0303893834 0.0355674401 0.0557075478
v -0.0292003453 0.035379 0.0513715744
v -0.0293449555 0.035401918 0.0559403151
v -0.0286259092 0.0352879614 0.051499594
v -0.0251047704 0.0347299278 0.0557075478
v -0.0257364102 0.0348300301 0.0511814207
v -0.0230924543 0.0344110131 0.0489075929
v -0.0292003453 0.035379 0.0407725237
v -0.0286259092 0.0352879614 0.0406445041
v -0.028281793 0.0352334268 0.0560573824
v -0.0280411709 0.035195291 0.0515639819
v -0.0302915666 0.0355519392 0.0412127338
v -0.0297577437 0.0354673378 0.0409626774
v -0.0316908322 0.0357736945 0.0422897004
v -0.0312638134 0.0357060209 0.0418801568
v -0.0324016996 0.0358863547 0.0432365015
v -0.0320716165 0.0358340442 0.0427435897
v -0.0367109589 0.0365692936 0.0502709411
v -0.0362100303 0.0364899039 0.0512275882
v -0.0324016996 0.0358863547 0.0489075929
v -0.0356098786 0.0363947898 0.0521237887
v -0.0320716165 0.0358340442 0.0494005047
v -0.0349175408 0.0362850688 0.0529490411
v -0.0316908322 0.0357736945 0.049854394
v -0.0341411382 0.0361620225 0.0536936671
v -0.0312638134 0.0357060209 0.0502639413
v -0.0332897715 0.0360270999 0.0543489382
v -0.0323734246 0.0358818732 0.0549071692
v -0.0302915666 0.0355519392 0.0509313643
v -0.0297577437 0.0354673378 0.0511814207
v -0.0272123609 0.035063941 0.0560573824
v -0.027452983 0.0351020768 0.0515639819
v -0.0307955593 0.0356318131 0.0415197574
v -0.0376238115 0.0367139615 0.0460720472
v -0.0330522805 0.0359894596 0.0448897108
v -0.0328949243 0.0359645225 0.0443158895
v -0.0331792831 0.0360095873 0.0460720472
v -0.0331474394 0.0360045396 0.045477394
v -0.0375659131 0.0367047861 0.0471532382
v -0.0373928994 0.036677368 0.048221752
v -0.0330522805 0.0359894596 0.0472543873
v -0.0371067971 0.0366320238 0.0492650643
v -0.0328949243 0.0359645225 0.0478282049
v -0.0326772109 0.0359300189 0.0483814366
v -0.0307955593 0.0356318131 0.050624337
v -0.0261491984 0.0348954499 0.0559403151
v -0.0268682446 0.0350094065 0.051499594
v -0.0262938086 0.0349183679 0.0513715744
v -0.0326772109 0.0359300189 0.0437626578
v -0.0331474394 0.0360045396 0.0466667041
v -0.0188095085 0.0276573654 0.0134181902
v -0.028392151 0.029176034 0.0405801162
v -0.0289803371 0.029269252 0.0405801162
v -0.0278074108 0.0290833637 0.0406445041
v -0.0247424878 0.0285976324 0.0422897004
v -0.0251695085 0.028665306 0.0418801568
v -0.0240316205 0.0284849722 0.0432365015
v -0.0243617035 0.0285372846 0.0427435897
v -0.0215157792 0.0280862581 0.0529490411
v -0.0247424878 0.0285976324 0.049854394
v -0.0243617035 0.0285372846 0.0494005047
v -0.02229218 0.0282093044 0.0536936671
v -0.0251695085 0.028665306 0.0502639413
v -0.0231435485 0.0283442289 0.0543489382
v -0.0256377608 0.0287395157 0.050624337
v -0.0240598973 0.0284894537 0.0549071692
v -0.0261417534 0.0288193896 0.0509313643
v -0.0385629795 0.0307879206 0.0134181902
v -0.0188095085 0.0276573654 0.0460720472
v -0.0237561092 0.0284413081 0.0437626578
v -0.0358567089 0.0303590279 0.0529490411
v -0.0326300003 0.0298476554 0.049854394
v -0.0322029777 0.02977998 0.0502639413
v -0.0365490429 0.0304687507 0.0521237887
v -0.0330107845 0.0299080014 0.0494005047
v -0.0333408676 0.0299603138 0.0432365015
v -0.0336163789 0.0300039779 0.0437626578
v -0.0312307347 0.0296258982 0.0412127338
v -0.0317347273 0.0297057703 0.0415197574
v -0.0301395133 0.0294529591 0.0407725237
v -0.0306969099 0.0295412969 0.0409626774
v -0.0295650773 0.0293619223 0.0406445041
v -0.0197223611 0.0278020352 0.0502709411
v -0.0237561092 0.0284413081 0.0483814366
v -0.0235383976 0.0284068063 0.0478282049
v -0.0202232916 0.027881423 0.0512275882
v -0.0240316205 0.0284849722 0.0489075929
v -0.0250304863 0.0286432747 0.0553618148
v -0.0266755782 0.028903991 0.0511814207
v -0.0333125889 0.0299558323 0.0549071692
v -0.0312307347 0.0296258982 0.0509313643
v -0.0306969099 0.0295412969 0.0511814207
v -0.0342289396 0.0301010571 0.0543489382
v -0.0317347273 0.0297057703 0.050624337
v -0.0350803062 0.0302359834 0.0536936671
v -0.0385629795 0.0307879206 0.0460720472
v -0.0322029777 0.02977998 0.0418801568
v -0.0326300003 0.0298476554 0.0422897004
v -0.0272329748 0.0289923269 0.0407725237
v -0.0256377608 0.0287395157 0.0415197574
v -0.0261417534 0.0288193896 0.0412127338
v -0.0235383976 0.0284068063 0.0443158895
v -0.0232858825 0.0283667874 0.045477394
v -0.0233810414 0.0283818673 0.0448897108
v -0.0190404207 0.0276939608 0.048221752
v -0.0233810414 0.0283818673 0.0472543873
v -0.0232858825 0.0283667874 0.0466667041
v -0.0193265248 0.0277393032 0.0492650643
v -0.0208234433 0.0279765353 0.0521237887
v -0.0260439366 0.0288038868 0.0557075478
v -0.0272329748 0.0289923269 0.0513715744
v -0.0270883664 0.0289694089 0.0559403151
v -0.0278074108 0.0290833637 0.051499594
v -0.0281515289 0.0291379001 0.0560573824
v -0.028392151 0.029176034 0.0515639819
v -0.0292209592 0.0293073859 0.0560573824
v -0.0289803371 0.029269252 0.0515639819
v -0.0302841216 0.0294758771 0.0559403151
v -0.0295650773 0.0293619223 0.051499594
v -0.0371491946 0.030563863 0.0512275882
v -0.0333408676 0.0299603138 0.0489075929
v -0.037650127 0.0306432508 0.0502709411
v -0.0336163789 0.0300039779 0.0483814366
v -0.0380459651 0.0307059847 0.0492650643
v -0.0338340886 0.0300384816 0.0478282049
v -0.0383320674 0.0307513252 0.048221752
v -0.0339914449 0.0300634187 0.0472543873
v -0.0341184475 0.0300835464 0.0460720472
v -0.0340866037 0.0300784986 0.0466667041
v -0.0338340886 0.0300384816 0.0443158895
v -0.0339914449 0.0300634187 0.0448897108
v -0.0330107845 0.0299080014 0.0427435897
v -0.0266755782 0.028903991 0.0409626774
v -0.0232540388 0.0283617396 0.0460720472
v -0.018867407 0.0276665408 0.0471532382
v -0.0313285515 0.0296413992 0.0557075478
v -0.0301395133 0.0294529591 0.0513715744
v -0.0323420018 0.0298020132 0.0553618148
v -0.0385050811 0.0307787452 0.0471532382
v -0.0340866037 0.0300784986 0.045477394
v -0.0232858825 0.0283667874 0.045477394
v -0.0232540388 0.0283617396 0.0460720472
v -0.0223148726 0.0342877805 0.0460720472
v -0.0233810414 0.0283818673 0.0448897108
v -0.0223467164 0.0342928283 0.045477394
v -0.0235383976 0.0284068063 0.0443158895
v -0.0224418752 0.0343079083 0.0448897108
v -0.0237561092 0.0284413081 0.0437626578
v -0.0225992315 0.0343328454 0.0443158895
v -0.0240316205 0.0284849722 0.0432365015
v -0.0228169411 0.034367349 0.0437626578
v -0.0243617035 0.0285372846 0.0427435897
v -0.0230924543 0.0344110131 0.0432365015
v -0.0247424878 0.0285976324 0.0422897004
v -0.0234225374 0.0344633274 0.0427435897
v -0.0251695085 0.028665306 0.0418801568
v -0.0238033216 0.0345236734 0.0422897004
v -0.0256377608 0.0287395157 0.0415197574
v -0.0242303424 0.034591347 0.0418801568
v -0.0261417534 0.0288193896 0.0412127338
v -0.0246985946 0.0346655585 0.0415197574
v -0.0266755782 0.028903991 0.0409626774
v -0.0252025872 0.0347454287 0.0412127338
v -0.0272329748 0.0289923269 0.0407725237
v -0.0257364102 0.0348300301 0.0409626774
v -0.0278074108 0.0290833637 0.0406445041
v -0.0262938086 0.0349183679 0.0407725237
v -0.028392151 0.029176034 0.0405801162
v -0.0268682446 0.0350094065 0.0406445041
v -0.0289803371 0.029269252 0.0405801162
v -0.027452983 0.0351020768 0.0405801162
v -0.0295650773 0.0293619223 0.0406445041
v -0.0280411709 0.035195291 0.0405801162
v -0.0301395133 0.0294529591 0.0407725237
v -0.0286259092 0.0352879614 0.0406445041
v -0.0306969099 0.0295412969 0.0409626774
v -0.0292003453 0.035379 0.0407725237
v -0.0312307347 0.0296258982 0.0412127338
v -0.0297577437 0.0354673378 0.0409626774
v -0.0317347273 0.0297057703 0.0415197574
v -0.0302915666 0.0355519392 0.0412127338
v -0.0322029777 0.02977998 0.0418801568
v -0.0307955593 0.0356318131 0.0415197574
v -0.0326300003 0.0298476554 0.0422897004
v -0.0312638134 0.0357060209 0.0418801568
v -0.0330107845 0.0299080014 0.0427435897
v -0.0316908322 0.0357736945 0.0422897004
v -0.0333408676 0.0299603138 0.0432365015
v -0.0320716165 0.0358340442 0.0427435897
v -0.0336163789 0.0300039779 0.0437626578
v -0.0324016996 0.0358863547 0.0432365015
v -0.0338340886 0.0300384816 0.0443158895
v -0.0326772109 0.0359300189 0.0437626578
v -0.0339914449 0.0300634187 0.0448897108
v -0.0328949243 0.0359645225 0.0443158895
v -0.0340866037 0.0300784986 0.045477394
v -0.0330522805 0.0359894596 0.0448897108
v -0.0341184475 0.0300835464 0.0460720472
v -0.0331474394 0.0360045396 0.045477394
v -0.0340866037 0.0300784986 0.0466667041
v -0.0331792831 0.0360095873 0.0460720472
v -0.0339914449 0.0300634187 0.0472543873
v -0.0331474394 0.0360045396 0.0466667041
v -0.0338340886 0.0300384816 0.0478282049
v -0.0330522805 0.0359894596 0.0472543873
v -0.0336163789 0.0300039779 0.0483814366
v -0.0328949243 0.0359645225 0.0478282049
v -0.0333408676 0.0299603138 0.0489075929
v -0.0326772109 0.0359300189 0.0483814366
v -0.0330107845 0.0299080014 0.0494005047
v -0.0324016996 0.0358863547 0.0489075929
v -0.0326300003 0.0298476554 0.049854394
v -0.0320716165 0.0358340442 0.0494005047
v -0.0322029777 0.02977998 0.0502639413
v -0.0316908322 0.0357736945 0.049854394
v -0.0317347273 0.0297057703 0.050624337
v -0.0312638134 0.0357060209 0.0502639413
v -0.0312307347 0.0296258982 0.0509313643
v -0.0307955593 0.0356318131 0.050624337
v -0.0306969099 0.0295412969 0.0511814207
v -0.0302915666 0.0355519392 0.0509313643
v -0.0301395133 0.0294529591 0.0513715744
v -0.0297577437 0.0354673378 0.0511814207
v -0.0295650773 0.0293619223 0.051499594
v -0.0292003453 0.035379 0.0513715744
v -0.0289803371 0.029269252 0.0515639819
v -0.0286259092 0.0352879614 0.051499594
v -0.028392151 0.029176034 0.0515639819
v -0.0280411709 0.035195291 0.0515639819
v -0.0278074108 0.0290833637 0.051499594
v -0.027452983 0.0351020768 0.0515639819
v -0.0272329748 0.0289923269 0.0513715744
v -0.0268682446 0.0350094065 0.051499594
v -0.0266755782 0.028903991 0.0511814207
v -0.0262938086 0.0349183679 0.0513715744
v -0.0261417534 0.0288193896 0.0509313643
v -0.0257364102 0.0348300301 0.0511814207
v -0.0256377608 0.0287395157 0.050624337
v -0.0252025872 0.0347454287 0.0509313643
v -0.0251695085 0.028665306 0.0502639413
v -0.0246985946 0.0346655585 0.050624337
v -0.0247424878 0.0285976324 0.049854394
v -0.0242303424 0.034591347 0.0502639413
v -0.0243617035 0.0285372846 0.0494005047
v -0.0238033216 0.0345236734 0.049854394
v -0.0240316205 0.0284849722 0.0489075929
v -0.0234225374 0.0344633274 0.0494005047
v -0.0237561092 0.0284413081 0.0483814366
v -0.0230924543 0.0344110131 0.0489075929
v -0.0235383976 0.0284068063 0.0478282049
v -0.0228169411 0.034367349 0.0483814366
v -0.0233810414 0.0283818673 0.0472543873
v -0.0225992315 0.0343328454 0.0478282049
v -0.0232858825 0.0283667874 0.0466667041
v -0.0224418752 0.0343079083 0.0472543873
v -0.0223467164 0.0342928283 0.0466667041
f 1 2 3
f 3 4 1
f 4 5 1
f 5 6 1
f 6 7 1
f 7 8 1
f 8 9 1
f 9 10 1
f 10 11 1
f 11 12 1
f 12 13 1
f 13 14 1
f 14 15 1
f 15 16 1
f 16 17 1
f 17 18 1
f 18 19 1
f 19 20 1
f 20 21 1
f 21 22 1
f 22 23 1
f 23 24 1
f 24 25 1
f 25 26 1
f 26 27 1
f 27 28 1
f 28 29 1
f 29 30 1
f 30 31 1
f 31 32 1
f 32 33 1
f 33 34 1
f 34 35 1
f 35 36 1
f 36 37 1
f 37 38 1
f 38 39 1
f 39 40 1
f 40 41 1
f 41 42 1
f 42 43 1
f 43 44 1
f 44 45 1
f 45 46 1
f 46 47 1
f 47 48 1
f 48 49 1
f 49 50 1
f 50 51 1
f 51 52 1
f 52 53 1
f 53 54 1
f 54 55 1
f 55 56 1
f 56 57 1
f 57 58 1
f 58 59 1
f 59 2 1
f 60 61 62
f 63 60 64
f 65 63 66
f 67 65 68
f 69 67 70
f 71 69 72
f 73 71 74
f 75 73 76
f 77 75 78
f 79 77 80
f 81 79 82
f 83 81 84
f 85 83 86
f 87 85 88
f 89 87 90
f 91 89 92
f 93 91 94
f 95 93 96
f 97 95 98
f 99 97 100
f 101 99 102
f 103 101 104
f 105 103 106
f 107 105 108
f 109 107 110
f 111 109 112
f 113 111 114
f 115 113 116
f 117 115 118
f 119 117 120
f 121 119 122
f 123 121 124
f 125 123 126
f 127 125 128
f 129 127 130
f 131 129 132
f 133 131 134
f 135 133 136
f 137 135 138
f 139 137 140
f 141 139 142
f 143 141 144
f 145 146 147
f 147 148 145
f 149 146 145
f 150 149 151
f 152 150 153
f 154 152 155
f 156 154 157
f 158 156 159
f 160 158 161
f 162 160 163
f 164 162 165
f 166 164 167
f 168 166 169
f 170 168 171
f 172 170 173
f 174 172 175
f 61 174 176
f 176 62 61
f 175 176 174
f 173 175 172
f 171 173 170
f 169 171 168
f 167 169 166
f 165 167 164
f 163 165 162
f 161 163 160
f 159 161 158
f 157 159 156
f 155 157 154
f 153 155 152
f 151 153 150
f 145 151 149
f 147 143 148
f 144 148 143
f 142 144 141
f 140 142 139
f 138 140 137
f 136 138 135
f 134 136 133
f 132 134 131
f 130 132 129
f 128 130 127
f 126 128 125
f 124 126 123
f 122 124 121
f 120 122 119
f 118 120 117
f 116 118 115
f 114 116 113
f 112 114 111
f 110 112 109
f 108 110 107
f 106 108 105
f 104 106 103
f 102 104 101
f 100 102 99
f 98 100 97
f 96 98 95
f 94 96 93
f 92 94 91
f 90 92 89
f 88 90 87
f 86 88 85
f 84 86 83
f 82 84 81
f 80 82 79
f 78 80 77
f 76 78 75
f 74 76 73
f 72 74 71
f 70 72 69
f 68 70 67
f 66 68 65
f 64 66 63
f 62 64 60
f 177 178 179
f 177 180 181
f 181 178 177
f 179 182 177
f 183 184 185
f 183 186 187
f 188 189 190
f 188 183 191
f 188 192 193
f 194 195 196
f 197 194 198
f 187 199 200
f 187 201 202
f 187 203 204
f 205 206 207
f 205 208 209
f 180 210 181
f 187 184 183
f 191 189 188
f 188 211 192
f 212 213 214
f 196 215 194
f 198 216 197
f 217 218 219
f 217 197 220
f 217 221 222
f 217 223 224
f 200 225 187
f 187 226 227
f 202 228 187
f 204 229 187
f 230 231 232
f 230 205 233
f 207 234 205
f 209 235 205
f 208 236 237
f 236 238 177
f 236 208 239
f 190 240 188
f 188 240 211
f 212 241 242
f 212 193 213
f 243 244 245
f 246 247 248
f 249 250 251
f 196 195 252
f 215 253 194
f 216 254 197
f 220 218 217
f 224 221 217
f 255 256 225
f 255 222 257
f 225 258 259
f 227 199 187
f 229 201 187
f 260 187 261
f 230 262 231
f 233 263 230
f 205 264 206
f 237 209 208
f 180 265 210
f 239 266 236
f 208 205 267
f 268 267 269
f 270 269 271
f 193 212 188
f 214 241 212
f 243 242 244
f 245 272 273
f 246 274 275
f 248 276 246
f 249 277 250
f 251 278 279
f 196 280 278
f 252 281 196
f 254 220 197
f 222 255 217
f 257 256 255
f 259 282 225
f 228 226 187
f 187 283 261
f 263 262 230
f 235 264 205
f 266 238 236
f 267 268 284
f 269 285 286
f 271 287 270
f 187 288 289
f 242 243 212
f 273 290 245
f 246 291 274
f 276 292 246
f 293 294 295
f 296 297 298
f 299 300 301
f 299 298 302
f 249 303 277
f 278 251 196
f 196 304 305
f 253 198 194
f 225 306 255
f 225 307 308
f 200 258 225
f 261 180 260
f 205 309 233
f 182 236 177
f 269 286 268
f 271 310 287
f 180 311 312
f 180 313 314
f 180 315 316
f 317 318 319
f 187 186 288
f 245 290 243
f 245 246 320
f 292 291 246
f 321 322 323
f 321 247 246
f 295 324 293
f 325 326 327
f 325 230 328
f 230 329 330
f 331 332 333
f 331 296 334
f 296 335 297
f 296 331 336
f 299 337 303
f 302 300 299
f 251 338 339
f 251 340 341
f 196 342 280
f 281 304 196
f 225 343 306
f 282 307 225
f 187 344 283
f 187 345 346
f 187 347 348
f 187 349 350
f 234 309 205
f 270 285 269
f 314 311 180
f 180 351 352
f 180 353 354
f 180 261 315
f 319 355 317
f 187 356 318
f 187 357 358
f 185 191 183
f 245 359 360
f 275 320 246
f 246 322 321
f 361 362 363
f 293 364 294
f 328 326 325
f 230 365 366
f 330 367 230
f 334 332 331
f 336 335 296
f 301 337 299
f 251 368 338
f 341 369 251
f 305 342 196
f 308 343 225
f 346 344 187
f 350 347 187
f 267 284 208
f 352 313 180
f 316 353 180
f 318 349 187
f 319 370 371
f 187 372 373
f 187 374 357
f 245 375 272
f 245 376 359
f 323 377 321
f 378 379 380
f 378 321 377
f 381 378 382
f 363 230 361
f 325 383 294
f 327 384 325
f 367 365 230
f 333 271 331
f 303 249 299
f 369 368 251
f 219 223 217
f 348 345 187
f 271 385 310
f 354 351 180
f 371 355 319
f 187 386 372
f 289 374 187
f 320 376 245
f 380 387 378
f 377 388 378
f 381 389 390
f 382 391 381
f 362 392 363
f 384 383 325
f 366 393 230
f 324 394 395
f 324 295 396
f 397 395 370
f 370 398 399
f 370 319 400
f 333 401 271
f 251 339 249
f 260 203 187
f 312 265 180
f 373 356 187
f 360 375 245
f 388 379 378
f 391 389 381
f 402 363 403
f 392 404 363
f 393 328 230
f 396 394 324
f 370 405 406
f 370 407 398
f 400 408 370
f 298 299 296
f 232 329 230
f 358 386 187
f 390 402 381
f 363 409 403
f 230 410 361
f 395 397 324
f 370 411 405
f 408 407 370
f 279 340 251
f 387 382 378
f 404 409 363
f 230 325 412
f 370 406 397
f 399 413 370
f 317 349 318
f 402 414 415
f 412 410 230
f 413 411 370
f 415 381 402
f 364 325 294
f 403 414 402
f 401 385 271
f 416 417 418
f 418 419 416
f 420 421 422
f 422 423 420
f 424 425 426
f 427 426 428
f 429 428 430
f 431 430 432
f 433 432 434
f 435 434 436
f 437 436 438
f 438 439 437
f 436 437 435
f 434 435 433
f 432 433 431
f 430 431 429
f 428 429 427
f 426 427 424
f 440 441 442
f 443 442 444
f 445 444 446
f 447 446 448
f 449 448 450
f 451 450 452
f 453 452 454
f 455 454 456
f 457 456 458
f 459 458 460
f 461 460 462
f 463 462 464
f 465 464 466
f 467 466 468
f 469 468 470
f 470 471 469
f 468 469 467
f 466 467 465
f 464 465 463
f 462 463 461
f 460 461 459
f 458 459 457
f 456 457 455
f 454 455 453
f 452 453 451
f 450 451 449
f 448 449 447
f 446 447 445
f 444 445 443
f 442 443 440
f 472 473 474
f 475 474 476
f 477 476 478
f 479 478 480
f 481 480 482
f 483 482 484
f 485 484 486
f 487 486 488
f 489 488 490
f 491 490 492
f 493 492 494
f 495 494 496
f 496 497 495
f 494 495 493
f 492 493 491
f 490 491 489
f 488 489 487
f 486 487 485
f 484 485 483
f 482 483 481
f 480 481 479
f 478 479 477
f 476 477 475
f 474 475 472
f 498 499 500
f 501 500 502
f 503 502 504
f 505 504 506
f 507 506 508
f 509 508 510
f 511 510 512
f 513 512 514
f 515 514 516
f 517 516 518
f 519 518 520
f 521 520 522
f 522 523 521
f 520 521 519
f 518 519 517
f 516 517 515
f 514 515 513
f 512 513 511
f 510 511 509
f 508 509 507
f 506 507 505
f 504 505 503
f 502 503 501
f 500 501 498
f 524 525 526
f 527 526 528
f 529 528 530
f 531 530 532
f 533 532 534
f 535 534 536
f 537 536 538
f 539 538 540
f 541 540 542
f 543 542 544
f 545 544 546
f 547 546 548
f 549 548 550
f 551 550 552
f 553 552 554
f 554 555 553
f 552 553 551
f 550 551 549
f 548 549 547
f 546 547 545
f 544 545 543
f 542 543 541
f 540 541 539
f 538 539 537
f 536 537 535
f 534 535 533
f 532 533 531
f 530 531 529
f 528 529 527
f 526 527 524
f 556 557 558
f 559 556 560
f 561 559 562
f 563 561 564
f 565 563 566
f 567 565 568
f 569 567 570
f 571 569 572
f 573 571 574
f 575 573 576
f 577 575 578
f 579 577 580
f 581 579 582
f 583 581 584
f 585 583 586
f 587 585 588
f 589 587 590
f 591 589 592
f 593 591 594
f 595 593 596
f 597 595 598
f 599 597 600
f 601 599 602
f 603 601 604
f 605 603 606
f 607 605 608
f 609 607 610
f 611 609 612
f 613 611 614
f 615 613 616
f 617 615 618
f 619 617 620
f 621 619 622
f 623 621 624
f 625 623 626
f 627 625 628
f 629 627 630
f 631 629 632
f 633 631 634
f 635 633 636
f 637 635 638
f 639 637 640
f 641 639 642
f 643 641 644
f 645 643 646
f 647 645 648
f 649 647 650
f 651 649 652
f 653 651 654
f 655 653 656
f 657 655 658
f 659 657 660
f 661 659 662
f 663 661 664
f 665 663 666
f 667 665 668
f 669 667 670
f 557 669 671
f 671 558 557
f 670 671 669
f 668 670 667
f 666 668 665
f 664 666 663
f 662 664 661
f 660 662 659
f 658 660 657
f 656 658 655
f 654 656 653
f 652 654 651
f 650 652 649
f 648 650 647
f 646 648 645
f 644 646 643
f 642 644 641
f 640 642 639
f 638 640 637
f 636 638 635
f 634 636 633
f 632 634 631
f 630 632 629
f 628 630 627
f 626 628 625
f 624 626 623
f 622 624 621
f 620 622 619
f 618 620 617
f 616 618 615
f 614 616 613
f 612 614 611
f 610 612 609
f 608 610 607
f 606 608 605
f 604 606 603
f 602 604 601
f 600 602 599
f 598 600 597
f 596 598 595
f 594 596 593
f 592 594 591
f 590 592 589
f 588 590 587
f 586 588 585
f 584 586 583
f 582 584 581
f 580 582 579
f 578 580 577
f 576 578 575
f 574 576 573
f 572 574 571
f 570 572 569
f 568 570 567
f 566 568 565
f 564 566 563
f 562 564 561
f 560 562 559
f 558 560 556
f 672 673 674
f 675 672 676
f 677 675 678
f 679 677 680
f 681 679 682
f 683 681 684
f 685 683 686
f 687 685 688
f 689 687 690
f 691 689 692
f 693 691 694
f 695 693 696
f 697 695 698
f 699 697 700
f 701 699 702
f 703 701 704
f 705 703 706
f 707 705 708
f 709 707 710
f 711 709 712
f 713 711 714
f 715 713 716
f 717 715 718
f 719 717 720
f 721 719 722
f 723 721 724
f 725 723 726
f 727 725 728
f 729 727 730
f 731 729 732
f 733 731 734
f 735 733 736
f 737 735 738
f 739 737 740
f 741 739 742
f 743 741 744
f 745 743 746
f 747 745 748
f 749 747 750
f 751 749 752
f 753 751 754
f 755 753 756
f 757 755 758
f 759 757 760
f 761 759 762
f 763 761 764
f 765 763 766
f 767 765 768
f 769 767 770
f 771 769 772
f 773 771 774
f 775 773 776
f 777 775 778
f 779 777 780
f 781 779 782
f 783 781 784
f 785 783 786
f 673 785 787
f 787 674 673
f 786 787 785
f 784 786 783
f 782 784 781
f 780 782 779
f 778 780 777
f 776 778 775
f 774 776 773
f 772 774 771
f 770 772 769
f 768 770 767
f 766 768 765
f 764 766 763
f 762 764 761
f 760 762 759
f 758 760 757
f 756 758 755
f 754 756 753
f 752 754 751
f 750 752 749
f 748 750 747
f 746 748 745
f 744 746 743
f 742 744 741
f 740 742 739
f 738 740 737
f 736 738 735
f 734 736 733
f 732 734 731
f 730 732 729
f 728 730 727
f 726 728 725
f 724 726 723
f 722 724 721
f 720 722 719
f 718 720 717
f 716 718 715
f 714 716 713
f 712 714 711
f 710 712 709
f 708 710 707
f 706 708 705
f 704 706 703
f 702 704 701
f 700 702 699
f 698 700 697
f 696 698 695
f 694 696 693
f 692 694 691
f 690 692 689
f 688 690 687
f 686 688 685
f 684 686 683
f 682 684 681
f 680 682 679
f 678 680 677
f 676 678 675
f 674 676 672
f 788 789 790
f 788 791 792
f 788 793 794
f 795 796 797
f 795 792 798
f 789 799 800
f 790 801 788
f 794 791 788
f 798 796 795
f 802 803 804
f 805 806 807
f 800 808 789
f 789 805 809
f 801 810 788
f 797 811 795
f 812 813 814
f 815 816 817
f 818 819 820
f 818 821 822
f 823 824 825
f 826 827 828
f 826 829 830
f 831 832 833
f 802 834 803
f 802 835 836
f 807 806 837
f 807 838 805
f 809 799 789
f 792 795 788
f 839 840 841
f 842 843 844
f 842 839 845
f 842 846 847
f 842 848 849
f 812 850 813
f 815 851 816
f 822 819 818
f 824 852 853
f 824 854 855
f 825 856 823
f 857 858 859
f 857 860 861
f 860 862 863
f 862 864 865
f 862 866 867
f 862 868 869
f 862 870 871
f 862 826 872
f 826 873 827
f 826 874 829
f 826 875 876
f 826 877 878
f 841 879 880
f 833 881 831
f 802 882 834
f 836 883 802
f 838 809 805
f 810 793 788
f 797 884 885
f 841 886 839
f 845 843 842
f 849 846 842
f 812 847 850
f 815 814 851
f 817 887 888
f 817 822 889
f 822 890 891
f 820 892 818
f 855 852 824
f 824 818 892
f 856 893 823
f 861 858 857
f 865 863 862
f 869 866 862
f 862 894 870
f 872 895 862
f 830 873 826
f 878 875 826
f 880 826 841
f 831 896 832
f 831 897 898
f 899 900 901
f 902 903 802
f 902 904 905
f 883 882 802
f 807 906 835
f 808 790 789
f 885 907 797
f 886 908 839
f 847 812 842
f 817 909 815
f 817 910 887
f 822 911 889
f 822 912 890
f 821 913 822
f 892 854 824
f 893 914 823
f 860 915 861
f 860 916 917
f 867 864 862
f 895 894 862
f 876 874 826
f 841 918 879
f 831 919 896
f 898 920 831
f 921 922 923
f 924 925 926
f 899 927 900
f 928 929 930
f 928 901 931
f 905 903 902
f 835 802 807
f 807 932 933
f 907 811 797
f 797 831 934
f 844 848 842
f 888 909 817
f 817 935 936
f 822 937 911
f 913 912 822
f 914 857 823
f 917 915 860
f 871 868 862
f 880 877 826
f 831 938 939
f 920 919 831
f 831 940 941
f 940 942 943
f 940 944 945
f 940 946 947
f 923 940 921
f 924 948 925
f 899 949 927
f 928 950 904
f 931 929 928
f 804 951 802
f 933 952 807
f 837 953 807
f 934 954 797
f 908 845 839
f 936 910 817
f 889 955 817
f 853 825 824
f 863 916 860
f 826 956 957
f 841 958 918
f 940 959 960
f 939 961 831
f 831 962 897
f 940 963 941
f 943 964 940
f 947 944 940
f 921 965 922
f 924 899 948
f 899 924 949
f 930 950 928
f 952 906 807
f 954 884 797
f 840 966 841
f 955 935 817
f 859 823 857
f 828 956 826
f 960 967 940
f 862 968 959
f 881 938 831
f 940 969 963
f 945 942 940
f 921 970 965
f 926 921 924
f 904 902 928
f 953 932 807
f 814 815 812
f 957 872 826
f 959 940 862
f 961 971 831
f 964 969 940
f 926 970 921
f 802 951 902
f 891 937 822
f 862 860 968
f 941 962 831
f 901 928 899
f 967 921 940
f 923 946 940
f 971 934 831
f 966 958 841
f 972 973 974
f 975 976 974
f 974 973 975
f 977 978 973
f 973 972 977
f 974 979 972
f 980 981 982
f 983 980 984
f 985 983 986
f 987 985 988
f 989 987 990
f 991 989 992
f 993 991 994
f 995 993 996
f 997 995 998
f 999 997 1000
f 1001 999 1002
f 1003 1001 1004
f 1005 1003 1006
f 1007 1005 1008
f 1009 1007 1010
f 1010 1011 1009
f 1008 1010 1007
f 1006 1008 1005
f 1004 1006 1003
f 1002 1004 1001
f 1000 1002 999
f 998 1000 997
f 996 998 995
f 994 996 993
f 992 994 991
f 990 992 989
f 988 990 987
f 986 988 985
f 984 986 983
f 982 984 980
f 1012 1013 1014
f 1014 1015 1012
f 1016 1017 1018
f 1019 1018 1020
f 1021 1020 1022
f 1023 1022 1024
f 1025 1024 1026
f 1027 1026 1028
f 1029 1028 1030
f 1031 1030 1032
f 1033 1032 1034
f 1035 1034 1036
f 1037 1036 1038
f 1039 1038 1040
f 1041 1040 1042
f 1043 1042 1044
f 1045 1044 1046
f 1046 1047 1045
f 1044 1045 1043
f 1042 1043 1041
f 1040 1041 1039
f 1038 1039 1037
f 1036 1037 1035
f 1034 1035 1033
f 1032 1033 1031
f 1030 1031 1029
f 1028 1029 1027
f 1026 1027 1025
f 1024 1025 1023
f 1022 1023 1021
f 1020 1021 1019
f 1018 1019 1016
f 1048 1049 1050
f 1050 1051 1048
f 1052 1053 1054
f 1055 1052 1056
f 1057 1055 1058
f 1059 1057 1060
f 1061 1059 1062
f 1063 1061 1064
f 1065 1063 1066
f 1067 1065 1068
f 1069 1067 1070
f 1071 1069 1072
f 1073 1071 1074
f 1075 1073 1076
f 1077 1075 1078
f 1079 1077 1080
f 1081 1079 1082
f 1082 1083 1081
f 1080 1082 1079
f 1078 1080 1077
f 1076 1078 1075
f 1074 1076 1073
f 1072 1074 1071
f 1070 1072 1069
f 1068 1070 1067
f 1066 1068 1065
f 1064 1066 1063
f 1062 1064 1061
f 1060 1062 1059
f 1058 1060 1057
f 1056 1058 1055
f 1054 1056 1052
f 1084 1085 1086
f 1087 1084 1088
f 1089 1087 1090
f 1091 1089 1092
f 1093 1091 1094
f 1095 1093 1096
f 1097 1095 1098
f 1099 1097 1100
f 1101 1099 1102
f 1103 1101 1104
f 1105 1103 1106
f 1107 1105 1108
f 1109 1107 1110
f 1111 1109 1112
f 1113 1111 1114
f 1114 1115 1113
f 1112 1114 1111
f 1110 1112 1109
f 1108 1110 1107
f 1106 1108 1105
f 1104 1106 1103
f 1102 1104 1101
f 1100 1102 1099
f 1098 1100 1097
f 1096 1098 1095
f 1094 1096 1093
f 1092 1094 1091
f 1090 1092 1089
f 1088 1090 1087
f 1086 1088 1084
f 1116 1117 1118
f 1118 1119 1116
f 1120 1121 1122
f 1123 1122 1124
f 1125 1124 1126
f 1127 1126 1128
f 1129 1128 1130
f 1131 1130 1132
f 1133 1132 1134
f 1135 1134 1136
f 1137 1136 1138
f 1139 1138 1140
f 1141 1140 1142
f 1143 1142 1144
f 1145 1144 1146
f 1147 1146 1148
f 1149 1148 1150
f 1150 1151 1149
f 1148 1149 1147
f 1146 1147 1145
f 1144 1145 1143
f 1142 1143 1141
f 1140 1141 1139
f 1138 1139 1137
f 1136 1137 1135
f 1134 1135 1133
f 1132 1133 1131
f 1130 1131 1129
f 1128 1129 1127
f 1126 1127 1125
f 1124 1125 1123
f 1122 1123 1120
f 1152 1153 1154
f 1152 1155 1156
f 1152 1157 1153
f 1154 1155 1152
f 1158 1159 1152
f 1160 1161 1162
f 1160 1158 1163
f 1158 1160 1159
f 1160 1164 1161
f 1156 1158 1152
f 1163 1164 1160
f 1162 1165 1160
f 1166 1167 1168
f 1169 1170 1171
f 1165 1172 1160
f 1173 1174 1160
f 1166 1175 1176
f 1168 1177 1166
f 1178 1179 1180
f 1179 1181 1182
f 1169 1183 1184
f 1171 1185 1169
f 1160 1186 1173
f 1166 1187 1175
f 1166 1188 1167
f 1180 1189 1178
f 1179 1176 1181
f 1169 1190 1191
f 1185 1183 1169
f 1169 1192 1193
f 1169 1194 1195
f 1169 1196 1197
f 1173 1198 1174
f 1198 1173 1188
f 1177 1187 1166
f 1182 1180 1179
f 1199 1178 1200
f 1184 1190 1169
f 1169 1201 1192
f 1197 1194 1169
f 1202 1203 1204
f 1202 1193 1205
f 1206 1207 1208
f 1206 1209 1210
f 1188 1166 1198
f 1189 1200 1178
f 1200 1211 1199
f 1212 1199 1213
f 1191 1196 1169
f 1195 1201 1169
f 1205 1203 1202
f 1206 1214 1207
f 1206 1215 1216
f 1210 1217 1206
f 1176 1179 1166
f 1213 1171 1212
f 1193 1202 1169
f 1204 1218 1219
f 1204 1220 1221
f 1222 1223 1224
f 1208 1186 1206
f 1206 1225 1226
f 1206 1227 1228
f 1206 1229 1230
f 1217 1215 1206
f 1211 1213 1199
f 1204 1219 1202
f 1204 1231 1220
f 1224 1204 1222
f 1206 1232 1214
f 1206 1233 1234
f 1228 1225 1206
f 1216 1229 1206
f 1170 1212 1171
f 1224 1231 1204
f 1234 1232 1206
f 1230 1227 1206
f 1221 1218 1204
f 1226 1233 1206
f 1208 1173 1186
f 1172 1186 1160
f 1235 1236 1237
f 1238 1239 1240
f 1238 1241 1242
f 1237 1243 1235
f 1240 1244 1238
f 1242 1245 1238
f 1238 1246 1247
f 1244 1236 1238
f 1247 1241 1238
f 1248 1249 1250
f 1251 1252 1253
f 1245 1239 1238
f 1254 1255 1256
f 1254 1257 1258
f 1254 1259 1260
f 1250 1261 1248
f 1248 1256 1262
f 1263 1253 1264
f 1251 1265 1252
f 1235 1238 1236
f 1266 1267 1268
f 1254 1269 1255
f 1260 1257 1254
f 1248 1270 1271
f 1262 1249 1248
f 1272 1273 1265
f 1253 1263 1251
f 1274 1275 1276
f 1274 1277 1278
f 1274 1263 1279
f 1280 1267 1266
f 1268 1246 1266
f 1258 1269 1254
f 1261 1270 1248
f 1272 1281 1273
f 1264 1282 1263
f 1278 1275 1274
f 1279 1283 1274
f 1238 1266 1246
f 1271 1284 1248
f 1282 1279 1263
f 1283 1277 1274
f 1285 1274 1286
f 1266 1287 1280
f 1288 1267 1289
f 1254 1290 1291
f 1271 1292 1284
f 1292 1271 1281
f 1276 1286 1274
f 1287 1285 1280
f 1288 1293 1294
f 1289 1295 1288
f 1291 1296 1297
f 1291 1298 1254
f 1281 1272 1292
f 1286 1280 1285
f 1288 1299 1300
f 1288 1301 1302
f 1288 1303 1304
f 1288 1305 1293
f 1288 1306 1307
f 1288 1308 1309
f 1267 1280 1289
f 1291 1310 1296
f 1298 1311 1254
f 1265 1251 1272
f 1302 1299 1288
f 1294 1303 1288
f 1288 1312 1306
f 1295 1308 1288
f 1313 1291 1314
f 1291 1290 1310
f 1256 1248 1254
f 1304 1301 1288
f 1309 1312 1288
f 1291 1315 1314
f 1311 1259 1254
f 1307 1305 1288
f 1297 1315 1291
f 1314 1316 1313
f 1300 1317 1288
f 1318 1319 1320
f 1321 1320 1322
f 1323 1322 1324
f 1325 1324 1326
f 1327 1326 1328
f 1329 1328 1330
f 1331 1330 1332
f 1333 1332 1334
f 1335 1334 1336
f 1337 1336 1338
f 1339 1338 1340
f 1341 1340 1342
f 1343 1342 1344
f 1345 1344 1346
f 1347 1346 1348
f 1349 1348 1350
f 1351 1350 1352
f 1353 1352 1354
f 1355 1354 1356
f 1357 1356 1358
f 1359 1358 1360
f 1361 1360 1362
f 1363 1362 1364
f 1365 1364 1366
f 1367 1366 1368
f 1369 1368 1370
f 1371 1370 1372
f 1373 1372 1374
f 1375 1374 1376
f 1376 1377 1375
f 1374 1375 1373
f 1372 1373 1371
f 1370 1371 1369
f 1368 1369 1367
f 1366 1367 1365
f 1364 1365 1363
f 1362 1363 1361
f 1360 1361 1359
f 1358 1359 1357
f 1356 1357 1355
f 1354 1355 1353
f 1352 1353 1351
f 1350 1351 1349
f 1348 1349 1347
f 1346 1347 1345
f 1344 1345 1343
f 1342 1343 1341
f 1340 1341 1339
f 1338 1339 1337
f 1336 1337 1335
f 1334 1335 1333
f 1332 1333 1331
f 1330 1331 1329
f 1328 1329 1327
f 1326 1327 1325
f 1324 1325 1323
f 1322 1323 1321
f 1320 1321 1318
f 1378 1379 1380
f 1379 1381 1382
f 1383 1384 1385
f 1383 1386 1387
f 1386 1388 1389
f 1386 1390 1391
f 1392 1393 1394
f 1393 1395 1396
f 1382 1380 1379
f 1381 1397 1398
f 1397 1399 1400
f 1399 1383 1401
f 1385 1402 1383
f 1386 1403 1387
f 1386 1404 1388
f 1386 1405 1406
f 1386 1407 1390
f 1408 1409 1410
f 1409 1411 1412
f 1411 1392 1413
f 1396 1394 1393
f 1398 1382 1381
f 1401 1400 1399
f 1383 1414 1384
f 1389 1403 1386
f 1391 1405 1386
f 1386 1415 1416
f 1417 1418 1419
f 1418 1420 1421
f 1422 1408 1423
f 1412 1410 1409
f 1394 1413 1392
f 1395 1378 1424
f 1400 1398 1397
f 1387 1414 1383
f 1416 1407 1386
f 1415 1425 1426
f 1421 1419 1418
f 1420 1427 1428
f 1410 1423 1408
f 1424 1396 1395
f 1402 1401 1383
f 1426 1416 1415
f 1415 1429 1430
f 1415 1431 1432
f 1415 1433 1434
f 1435 1436 1437
f 1436 1438 1439
f 1438 1440 1441
f 1440 1442 1443
f 1444 1445 1446
f 1445 1417 1447
f 1428 1421 1420
f 1427 1448 1449
f 1413 1412 1411
f 1406 1404 1386
f 1415 1450 1429
f 1434 1431 1415
f 1451 1452 1453
f 1451 1454 1455
f 1456 1457 1458
f 1457 1459 1460
f 1459 1435 1461
f 1439 1437 1436
f 1443 1441 1440
f 1442 1444 1462
f 1447 1446 1445
f 1449 1428 1427
f 1448 1463 1464
f 1463 1422 1465
f 1380 1424 1378
f 1432 1450 1415
f 1451 1466 1433
f 1455 1452 1451
f 1451 1456 1467
f 1460 1458 1457
f 1437 1461 1435
f 1462 1443 1442
f 1419 1447 1417
f 1465 1464 1463
f 1430 1425 1415
f 1453 1466 1451
f 1458 1467 1456
f 1441 1439 1438
f 1464 1449 1448
f 1433 1415 1451
f 1461 1460 1459
f 1423 1465 1422
f 1446 1462 1444
f 1467 1454 1451
f 1468 1469 1470
f 1468 1471 1469
f 1468 1472 1473
f 1468 1474 1475
f 1476 1477 1478
f 1479 1480 1477
f 1481 1482 1480
f 1483 1484 1482
f 1470 1485 1468
f 1475 1472 1468
f 1468 1486 1487
f 1477 1476 1479
f 1482 1481 1483
f 1488 1489 1490
f 1491 1492 1489
f 1485 1493 1494
f 1485 1495 1496
f 1485 1497 1498
f 1470 1499 1485
f 1487 1474 1468
f 1500 1501 1502
f 1503 1504 1501
f 1480 1479 1481
f 1505 1506 1484
f 1507 1508 1509
f 1510 1511 1508
f 1512 1490 1511
f 1489 1488 1491
f 1494 1513 1485
f 1485 1514 1515
f 1498 1495 1485
f 1468 1516 1471
f 1468 1517 1518
f 1486 1519 1487
f 1486 1520 1521
f 1522 1523 1524
f 1525 1502 1523
f 1501 1500 1503
f 1526 1478 1504
f 1484 1483 1505
f 1527 1528 1506
f 1529 1530 1528
f 1531 1532 1530
f 1533 1534 1532
f 1535 1536 1534
f 1508 1507 1510
f 1490 1512 1488
f 1537 1538 1492
f 1539 1540 1538
f 1541 1542 1540
f 1543 1544 1542
f 1513 1545 1546
f 1513 1547 1548
f 1485 1549 1493
f 1496 1514 1485
f 1468 1550 1516
f 1473 1517 1468
f 1486 1551 1520
f 1552 1524 1551
f 1523 1522 1525
f 1504 1503 1526
f 1506 1505 1527
f 1530 1529 1531
f 1534 1533 1535
f 1553 1554 1536
f 1555 1509 1554
f 1511 1510 1512
f 1538 1537 1539
f 1542 1541 1543
f 1556 1546 1544
f 1513 1557 1545
f 1494 1547 1513
f 1499 1497 1485
f 1521 1519 1486
f 1524 1552 1522
f 1478 1526 1476
f 1532 1531 1533
f 1554 1553 1555
f 1492 1491 1537
f 1544 1543 1556
f 1548 1557 1513
f 1518 1550 1468
f 1502 1525 1500
f 1536 1535 1553
f 1540 1539 1541
f 1515 1549 1485
f 1528 1527 1529
f 1546 1556 1513
f 1509 1555 1507
f 1551 1486 1552
f 1558 1559 1560
f 1561 1558 1562
f 1563 1561 1564
f 1565 1563 1566
f 1567 1565 1568
f 1569 1567 1570
f 1571 1569 1572
f 1573 1571 1574
f 1575 1573 1576
f 1577 1575 1578
f 1579 1577 1580
f 1581 1579 1582
f 1583 1581 1584
f 1585 1583 1586
f 1587 1585 1588
f 1589 1587 1590
f 1591 1589 1592
f 1593 1591 1594
f 1595 1593 1596
f 1597 1595 1598
f 1599 1597 1600
f 1601 1599 1602
f 1603 1601 1604
f 1605 1603 1606
f 1607 1605 1608
f 1609 1607 1610
f 1611 1609 1612
f 1613 1611 1614
f 1615 1613 1616
f 1617 1615 1618
f 1619 1617 1620
f 1621 1619 1622
f 1623 1621 1624
f 1625 1623 1626
f 1627 1625 1628
f 1629 1627 1630
f 1631 1629 1632
f 1633 1631 1634
f 1635 1633 1636
f 1637 1635 1638
f 1639 1637 1640
f 1641 1639 1642
f 1643 1641 1644
f 1645 1643 1646
f 1647 1645 1648
f 1649 1647 1650
f 1651 1649 1652
f 1653 1651 1654
f 1655 1653 1656
f 1657 1655 1658
f 1659 1657 1660
f 1661 1659 1662
f 1663 1661 1664
f 1665 1663 1666
f 1667 1665 1668
f 1669 1667 1670
f 1671 1669 1672
f 1559 1671 1673
f 1673 1560 1559
f 1672 1673 1671
f 1670 1672 1669
f 1668 1670 1667
f 1666 1668 1665
f 1664 1666 1663
f 1662 1664 1661
f 1660 1662 1659
f 1658 1660 1657
f 1656 1658 1655
f 1654 1656 1653
f 1652 1654 1651
f 1650 1652 1649
f 1648 1650 1647
f 1646 1648 1645
f 1644 1646 1643
f 1642 1644 1641
f 1640 1642 1639
f 1638 1640 1637
f 1636 1638 1635
f 1634 1636 1633
f 1632 1634 1631
f 1630 1632 1629
f 1628 1630 1627
f 1626 1628 1625
f 1624 1626 1623
f 1622 1624 1621
f 1620 1622 1619
f 1618 1620 1617
f 1616 1618 1615
f 1614 1616 1613
f 1612 1614 1611
f 1610 1612 1609
f 1608 1610 1607
f 1606 1608 1605
f 1604 1606 1603
f 1602 1604 1601
f 1600 1602 1599
f 1598 1600 1597
f 1596 1598 1595
f 1594 1596 1593
f 1592 1594 1591
f 1590 1592 1589
f 1588 1590 1587
f 1586 1588 1585
f 1584 1586 1583
f 1582 1584 1581
f 1580 1582 1579
f 1578 1580 1577
f 1576 1578 1575
f 1574 1576 1573
f 1572 1574 1571
f 1570 1572 1569
f 1568 1570 1567
f 1566 1568 1565
f 1564 1566 1563
f 1562 1564 1561
f 1560 1562 1558
