v -0.348175257 -0.255461723 0.0126999998
v -0.348175257 -0.255461723 0
v 0.330068678 -0.255461723 0
v 0.330068678 -0.255461723 0.0126999998
v -0.348175257 0.255461723 0.0126999998
v -0.348175257 0.255461723 0
v -0.348175257 -0.255461723 0
v -0.348175257 -0.255461723 0.0126999998
v -0.348175257 0.255461723 0.0126999998
v 0.337283015 -0.254548252 0.0126999998
v 0.337313235 -0.254541218 0.0126999998
v 0.348011792 -0.240595385 0.0126999998
v 0.348024935 -0.240504324 0.0126999998
v 0.347679734 -0.242828459 0.0126999998
v 0.347702712 -0.242732853 0.0126999998
v 0.346674919 -0.246269867 0.0126999998
v 0.346706063 -0.246201411 0.0126999998
v 0.347224951 -0.24468784 0.0126999998
v 0.342667192 -0.251818776 0.0126999998
v 0.34533298 -0.248854846 0.0126999998
v 0.343646467 -0.250932693 0.0126999998
v 0.343693167 -0.250890315 0.0126999998
v 0.344538629 -0.24994278 0.0126999998
v 0.33289361 -0.255335063 0.0126999998
v 0.348169088 -0.238017261 0.0126999998
v 0.346043229 -0.247642532 0.0126999998
v 0.34607777 -0.247582972 0.0126999998
v 0.345371038 -0.2488022 0.0126999998
v 0.342684686 -0.251806021 0.0126999998
v 0.341502935 -0.252664447 0.0126999998
v 0.341523111 -0.252652705 0.0126999998
v 0.338913739 -0.253991514 0.0126999998
v 0.338940233 -0.253982425 0.0126999998
v 0.340300292 -0.253360897 0.0126999998
v 0.335319251 -0.255005717 0.0126999998
v 0.330068678 -0.255461723 0.0126999998
v 0.332734644 -0.255355626 0.0126999998
v 0.348175257 -0.237355113 0.0126999998
v 0.347252429 -0.244607732 0.0126999998
v 0.335167021 -0.255041182 0.0126999998
v -0.348175257 -0.255461723 0.0126999998
v 0.34458074 -0.249895617 0.0126999998
v 0.34032318 -0.253350437 0.0126999998
v 0.348175257 0.255461723 0.0126999998
v -0.348175257 0.255461723 0
v 0.335320115 -0.255007416 0
v 0.332893819 -0.255330175 0
v 0.330730796 -0.255455554 0
v 0.346044451 -0.247643232 0
v 0.343646258 -0.250932932 0
v 0.345333159 -0.248854965 0
v 0.344539493 -0.249943793 0
v 0.345366269 -0.248809561 0
v 0.347224534 -0.244687691 0
v 0.346063972 -0.247609645 0
v 0.347667992 -0.242825747 0
v 0.347254753 -0.2445997 0
v 0.348175257 -0.237355113 0
v 0.348069161 -0.24002111 0
v 0.330068678 -0.255461723 0
v 0.340300679 -0.253361791 0
v 0.337282956 -0.254548073 0
v 0.342665434 -0.251816958 0
v 0.341503143 -0.252664804 0
v 0.342609167 -0.251867175 0
v 0.34151575 -0.252657503 0
v 0.343603849 -0.250979602 0
v 0.34669596 -0.246226683 0
v 0.346675992 -0.246270359 0
v 0.347995192 -0.240593299 0
v 0.347754717 -0.242453486 0
v 0.348175257 0.255461723 0
v 0.333217859 -0.2553114 0
v 0.335446388 -0.254989147 0
v 0.338914186 -0.253992766 0
v 0.337321281 -0.254538864 0
v 0.340296507 -0.253364205 0
v 0.338914961 -0.253992498 0
v 0.344519556 -0.249971151 0
v -0.348175257 -0.255461723 0
v 0.348175257 0.255461723 0
v 0.348175257 0.255461723 0.0126999998
v 0.348175257 -0.237355113 0.0126999998
v 0.348175257 -0.237355113 0
v 0.348175257 0.255461723 0.0126999998
v 0.348175257 0.255461723 0
v -0.348175257 0.255461723 0
v -0.348175257 0.255461723 0.0126999998
v 0.332734644 -0.255355626 0.0126999998
v 0.330068678 -0.255461723 0.0126999998
v 0.330730796 -0.255455554 0
v 0.332893819 -0.255330175 0
v 0.33289361 -0.255335063 0.0126999998
v 0.330068678 -0.255461723 0
v 0.335167021 -0.255041182 0.0126999998
v 0.333217859 -0.2553114 0
v 0.335320115 -0.255007416 0
v 0.335319251 -0.255005717 0.0126999998
v 0.337283015 -0.254548252 0.0126999998
v 0.335446388 -0.254989147 0
v 0.338913739 -0.253991514 0.0126999998
v 0.337313235 -0.254541218 0.0126999998
v 0.337321281 -0.254538864 0
v 0.337282956 -0.254548073 0
v 0.340300292 -0.253360897 0.0126999998
v 0.338914961 -0.253992498 0
v 0.340296507 -0.253364205 0
v 0.338914186 -0.253992766 0
v 0.338940233 -0.253982425 0.0126999998
v 0.341503143 -0.252664804 0
v 0.341502935 -0.252664447 0.0126999998
v 0.34032318 -0.253350437 0.0126999998
v 0.340300679 -0.253361791 0
v 0.341523111 -0.252652705 0.0126999998
v 0.34151575 -0.252657503 0
v 0.342609167 -0.251867175 0
v 0.342667192 -0.251818776 0.0126999998
v 0.342684686 -0.251806021 0.0126999998
v 0.342665434 -0.251816958 0
v 0.343603849 -0.250979602 0
v 0.343646467 -0.250932693 0.0126999998
v 0.344519556 -0.249971151 0
v 0.344538629 -0.24994278 0.0126999998
v 0.343693167 -0.250890315 0.0126999998
v 0.343646258 -0.250932932 0
v 0.345333159 -0.248854965 0
v 0.34533298 -0.248854846 0.0126999998
v 0.34458074 -0.249895617 0.0126999998
v 0.344539493 -0.249943793 0
v 0.346044451 -0.247643232 0
v 0.346043229 -0.247642532 0.0126999998
v 0.345371038 -0.2488022 0.0126999998
v 0.345366269 -0.248809561 0
v 0.346675992 -0.246270359 0
v 0.346674919 -0.246269867 0.0126999998
v 0.34607777 -0.247582972 0.0126999998
v 0.346063972 -0.247609645 0
v 0.347224534 -0.244687691 0
v 0.347224951 -0.24468784 0.0126999998
v 0.346706063 -0.246201411 0.0126999998
v 0.34669596 -0.246226683 0
v 0.347679734 -0.242828459 0.0126999998
v 0.347252429 -0.244607732 0.0126999998
v 0.347254753 -0.2445997 0
v 0.348011792 -0.240595385 0.0126999998
v 0.347702712 -0.242732853 0.0126999998
v 0.347754717 -0.242453486 0
v 0.347667992 -0.242825747 0
v 0.348069161 -0.24002111 0
v 0.348175257 -0.237355113 0
v 0.348169088 -0.238017261 0.0126999998
v 0.348175257 -0.237355113 0.0126999998
v 0.347995192 -0.240593299 0
v 0.348024935 -0.240504324 0.0126999998
f 1 2 3
f 3 4 1
f 5 6 7
f 7 8 5
f 9 10 11
f 9 12 13
f 9 14 15
f 16 17 18
f 9 19 20
f 21 22 23
f 9 24 10
f 13 25 9
f 9 16 14
f 18 14 16
f 9 26 27
f 20 28 9
f 23 20 21
f 20 19 29
f 9 30 31
f 32 33 34
f 24 35 10
f 9 36 37
f 25 38 9
f 18 39 14
f 28 26 9
f 29 21 20
f 9 32 30
f 34 30 32
f 24 40 35
f 9 41 36
f 15 12 9
f 23 42 20
f 34 43 30
f 37 24 9
f 27 16 9
f 11 32 9
f 31 19 9
f 38 44 9
f 45 46 47
f 47 48 45
f 45 49 50
f 50 51 52
f 49 53 51
f 45 54 55
f 45 56 57
f 45 58 59
f 48 60 45
f 45 61 62
f 45 63 64
f 63 65 66
f 50 67 45
f 51 50 49
f 54 68 69
f 57 54 45
f 45 70 71
f 45 72 58
f 46 73 47
f 62 74 45
f 61 75 76
f 61 77 78
f 66 64 63
f 52 79 50
f 55 49 45
f 59 70 45
f 74 46 45
f 78 75 61
f 67 63 45
f 71 56 45
f 76 62 61
f 69 55 54
f 64 61 45
f 60 80 45
f 81 82 83
f 83 84 81
f 85 86 87
f 87 88 85
f 89 90 91
f 92 93 89
f 90 94 91
f 95 93 96
f 97 98 95
f 93 92 96
f 99 98 100
f 98 97 100
f 101 102 103
f 104 103 102
f 102 99 104
f 105 106 107
f 101 108 106
f 106 105 109
f 106 109 101
f 110 111 112
f 112 113 110
f 114 115 116
f 116 117 114
f 111 110 115
f 115 114 111
f 118 119 120
f 120 121 118
f 118 117 119
f 122 123 124
f 124 125 122
f 124 121 125
f 126 127 128
f 128 129 126
f 130 131 132
f 127 126 133
f 133 132 127
f 134 135 136
f 131 130 137
f 137 136 131
f 138 139 140
f 135 134 141
f 141 140 135
f 142 143 144
f 138 144 143
f 143 139 138
f 145 146 147
f 148 147 146
f 146 142 148
f 149 150 151
f 150 152 151
f 153 149 154
f 154 145 153
f 151 154 149
f 147 153 145
f 144 148 142
f 140 141 138
f 136 137 134
f 132 133 130
f 128 123 129
f 122 129 123
f 120 125 121
f 116 119 117
f 112 105 113
f 107 113 105
f 103 108 101
f 100 104 99
f 96 97 95
f 91 92 89
