v 0.0552949049 0.00100000005 0.00230205851
v 0.0555624999 0.00100000005 0.0022875499
v 0.0555624999 0.00700000022 0.0022875499
v 0.0550304465 0.00100000005 0.0023454139
v 0.0552949049 0.00700000022 0.00230205851
v 0.054772228 0.00100000005 0.00241710828
v 0.0550304465 0.00700000022 0.0023454139
v 0.0545232743 0.00100000005 0.00251630065
v 0.054772228 0.00700000022 0.00241710828
v 0.0542865023 0.00100000005 0.00264182827
v 0.0545232743 0.00700000022 0.00251630065
v 0.0540646948 0.00100000005 0.00279221963
v 0.0542865023 0.00700000022 0.00264182827
v 0.0538604446 0.00100000005 0.00296571106
v 0.0540646948 0.00700000022 0.00279221963
v 0.053676147 0.00100000005 0.00316026877
v 0.0538604446 0.00700000022 0.00296571106
v 0.0535139702 0.00100000005 0.00337361195
v 0.053676147 0.00700000022 0.00316026877
v 0.0533758067 0.00100000005 0.00360323908
v 0.0535139702 0.00700000022 0.00337361195
v 0.0532632843 0.00100000005 0.00384645793
v 0.0533758067 0.00700000022 0.00360323908
v 0.0531777143 0.00100000005 0.00410041725
v 0.0532632843 0.00700000022 0.00384645793
v 0.0531201027 0.00100000005 0.00436213939
v 0.0531777143 0.00700000022 0.00410041725
v 0.0530911312 0.00100000005 0.00462855631
v 0.0531201027 0.00700000022 0.00436213939
v 0.0530911312 0.00100000005 0.00489654345
v 0.0530911312 0.00700000022 0.00462855631
v 0.0531201027 0.00100000005 0.00516296038
v 0.0530911312 0.00700000022 0.00489654345
v 0.0531777143 0.00100000005 0.00542468252
v 0.0531201027 0.00700000022 0.00516296038
v 0.0532632843 0.00100000005 0.00567864161
v 0.0531777143 0.00700000022 0.00542468252
v 0.0533758067 0.00100000005 0.00592186069
v 0.0532632843 0.00700000022 0.00567864161
v 0.0535139702 0.00100000005 0.00615148805
v 0.0533758067 0.00700000022 0.00592186069
v 0.053676147 0.00100000005 0.00636483077
v 0.0535139702 0.00700000022 0.00615148805
v 0.0538604446 0.00100000005 0.00655938871
v 0.053676147 0.00700000022 0.00636483077
v 0.0540646948 0.00100000005 0.00673288014
v 0.0538604446 0.00700000022 0.00655938871
v 0.0542865023 0.00100000005 0.0068832715
v 0.0540646948 0.00700000022 0.00673288014
v 0.0545232743 0.00100000005 0.00700879889
v 0.0542865023 0.00700000022 0.0068832715
v 0.054772228 0.00100000005 0.00710799126
v 0.0545232743 0.00700000022 0.00700879889
v 0.0550304465 0.00100000005 0.00717968587
v 0.054772228 0.00700000022 0.00710799126
v 0.0552949049 0.00100000005 0.00722304126
v 0.0550304465 0.00700000022 0.00717968587
v 0.0555624999 0.00100000005 0.00723754987
v 0.0552949049 0.00700000022 0.00722304126
v 0.055830095 0.00100000005 0.00722304126
v 0.0555624999 0.00700000022 0.00723754987
v 0.0560945533 0.00100000005 0.00717968587
v 0.055830095 0.00700000022 0.00722304126
v 0.0563527718 0.00100000005 0.00710799126
v 0.0560945533 0.00700000022 0.00717968587
v 0.0566017255 0.00100000005 0.00700879889
v 0.0563527718 0.00700000022 0.00710799126
v 0.0568384975 0.00100000005 0.0068832715
v 0.0566017255 0.00700000022 0.00700879889
v 0.057060305 0.00100000005 0.00673288014
v 0.0568384975 0.00700000022 0.0068832715
v 0.0572645552 0.00100000005 0.00655938871
v 0.057060305 0.00700000022 0.00673288014
v 0.0574488528 0.00100000005 0.00636483077
v 0.0572645552 0.00700000022 0.00655938871
v 0.0576110296 0.00100000005 0.00615148805
v 0.0574488528 0.00700000022 0.00636483077
v 0.0577491932 0.00100000005 0.00592186069
v 0.0576110296 0.00700000022 0.00615148805
v 0.0578617156 0.00100000005 0.00567864161
v 0.0577491932 0.00700000022 0.00592186069
v 0.0579472855 0.00100000005 0.00542468252
v 0.0578617156 0.00700000022 0.00567864161
v 0.0580048971 0.00100000005 0.00516296038
v 0.0579472855 0.00700000022 0.00542468252
v 0.0580338687 0.00100000005 0.00489654345
v 0.0580048971 0.00700000022 0.00516296038
v 0.0580338687 0.00100000005 0.00462855631
v 0.0580338687 0.00700000022 0.00489654345
v 0.0580048971 0.00100000005 0.00436213939
v 0.0580338687 0.00700000022 0.00462855631
v 0.0579472855 0.00100000005 0.00410041725
v 0.0580048971 0.00700000022 0.00436213939
v 0.0578617156 0.00100000005 0.00384645793
v 0.0579472855 0.00700000022 0.00410041725
v 0.0577491932 0.00100000005 0.00360323908
v 0.0578617156 0.00700000022 0.00384645793
v 0.0576110296 0.00100000005 0.00337361195
v 0.0577491932 0.00700000022 0.00360323908
v 0.0574488528 0.00100000005 0.00316026877
v 0.0576110296 0.00700000022 0.00337361195
v 0.0572645552 0.00100000005 0.00296571106
v 0.0574488528 0.00700000022 0.00316026877
v 0.057060305 0.00100000005 0.00279221963
v 0.0572645552 0.00700000022 0.00296571106
v 0.0568384975 0.00100000005 0.00264182827
v 0.057060305 0.00700000022 0.00279221963
v 0.0566017255 0.00100000005 0.00251630065
v 0.0568384975 0.00700000022 0.00264182827
v 0.0563527718 0.00100000005 0.00241710828
v 0.0566017255 0.00700000022 0.00251630065
v 0.0560945533 0.00100000005 0.0023454139
v 0.0563527718 0.00700000022 0.00241710828
v 0.055830095 0.00100000005 0.00230205851
v 0.0560945533 0.00700000022 0.0023454139
v 0.055830095 0.00700000022 0.00230205851
v 0.056077417 0.00100000005 0.00949713122
v 0.0555624999 0.00100000005 0.00952504948
v 0.0555624999 0.00100000005 0.00723754987
v 0.0580178238 0.00100000005 0.0088433316
v 0.0568384975 0.00100000005 0.0068832715
v 0.057060305 0.00100000005 0.00673288014
v 0.0575622208 0.00100000005 0.00908487756
v 0.0566017255 0.00100000005 0.00700879889
v 0.0570831746 0.00100000005 0.00927574746
v 0.0563527718 0.00100000005 0.00710799126
v 0.0565862954 0.00100000005 0.00941370521
v 0.0560945533 0.00100000005 0.00717968587
v 0.055830095 0.00100000005 0.00722304126
v 0.0552949049 0.00100000005 0.00722304126
v 0.00230717496 0.00100000005 0.0088433316
v 0.00348650431 0.00100000005 0.0068832715
v 0.00372327445 0.00100000005 0.00700879889
v 0.00188035809 0.00100000005 0.00855394267
v 0.00326469378 0.00100000005 0.00673288014
v 0.0591922961 0.00100000005 0.0078457268
v 0.0574488528 0.00100000005 0.00636483077
v 0.0576110296 0.00100000005 0.00615148805
v 0.0588376671 0.00100000005 0.00822010357
v 0.0572645552 0.00100000005 0.00655938871
v 0.00714728609 0.00100000005 0.00542468252
v 0.0540646948 0.00100000005 0.00673288014
v 0.0542865023 0.00100000005 0.0068832715
v 0.00476250006 0.00100000005 0.00952504948
v 0.00580172567 0.00100000005 0.00700879889
v 0.00603849581 0.00100000005 0.0068832715
v 0.00324182655 0.00100000005 0.00927574746
v 0.00397222862 0.00100000005 0.00710799126
v 0.00423044804 0.00100000005 0.00717968587
v 0.00276277843 0.00100000005 0.00908487756
v 0.0014873317 0.00100000005 0.00822010357
v 0.00306044379 0.00100000005 0.00655938871
v 0.056077417 0.00100000005 2.79682681e-05
v 0.0565862954 0.00100000005 0.000111394882
v 0.0560945533 0.00100000005 0.0023454139
v 0.0570831746 0.00100000005 0.000249352044
v 0.0563527718 0.00100000005 0.00241710828
v 0.0603180155 0.00100000005 0.00450471323
v 0.0580338687 0.00100000005 0.00462855631
v 0.0580048971 0.00100000005 0.00436213939
v 0.0603180155 0.00100000005 0.00502038654
v 0.0580338687 0.00100000005 0.00489654345
v 0.0601514056 0.00100000005 0.00603665365
v 0.0579472855 0.00100000005 0.00542468252
v 0.0580048971 0.00100000005 0.00516296038
v 0.0599867515 0.00100000005 0.00652533257
v 0.0578617156 0.00100000005 0.00567864161
v 0.0584446415 0.00100000005 0.00855394267
v 0.0550304465 0.00100000005 0.00717968587
v 0.0545232743 0.00100000005 0.00700879889
v 0.054772228 0.00100000005 0.00710799126
v 0.00723387022 0.00100000005 0.00489654345
v 0.00723387022 0.00100000005 0.00462855631
v 0.0530911312 0.00100000005 0.00462855631
v 0.00626030611 0.00100000005 0.00673288014
v 0.00646455633 0.00100000005 0.00655938871
v 0.00424758345 0.00100000005 0.00949713122
v 0.00449490547 0.00100000005 0.00722304126
v 0.00476250006 0.00100000005 0.00723754987
v 0.00373870344 0.00100000005 0.00941370521
v 0.055830095 0.00100000005 0.00230205851
v 0.0555624999 0.00100000005 0.0022875499
v 0.0575622208 0.00100000005 0.000440222328
v 0.0566017255 0.00100000005 0.00251630065
v 0.0580178238 0.00100000005 0.000681767939
v 0.0568384975 0.00100000005 0.00264182827
v 0.0588376671 0.00100000005 0.00130499667
v 0.0591922961 0.00100000005 0.00167937297
v 0.0574488528 0.00100000005 0.00316026877
v 0.0595043674 0.00100000005 0.00208989671
v 0.0576110296 0.00100000005 0.00337361195
v 0.0601514056 0.00100000005 0.00348844635
v 0.0579472855 0.00100000005 0.00410041725
v 0.0578617156 0.00100000005 0.00384645793
v 0.0602622591 0.00100000005 0.00399206299
v 0.0602622591 0.00100000005 0.00553303678
v 0.0597702265 0.00100000005 0.00699334498
v 0.0577491932 0.00100000005 0.00592186069
v 0.0595043674 0.00100000005 0.00743520306
v 0.0531201027 0.00100000005 0.00436213939
v 0.00720489584 0.00100000005 0.00436213939
v 0.00529455207 0.00100000005 0.00717968587
v 0.0055527715 0.00100000005 0.00710799126
v 0.00503009465 0.00100000005 0.00722304126
v 0.00113270362 0.00100000005 0.0078457268
v 0.00287614902 0.00100000005 0.00636483077
v 0.000820631569 0.00100000005 0.00743520306
v 0.00271396968 0.00100000005 0.00615148805
v 0.000554774306 0.00100000005 0.00699334498
v 0.00257580774 0.00100000005 0.00592186069
v 0.000338248821 0.00100000005 0.00652533257
v 0.00246328278 0.00100000005 0.00567864161
v 0.000173593609 0.00100000005 0.00603665365
v 0.0023777138 0.00100000005 0.00542468252
v 0.0533758067 0.00100000005 0.00360323908
v 0.00646455633 0.00100000005 0.00296571106
v 0.00626030611 0.00100000005 0.00279221963
v 0.0584446415 0.00100000005 0.000971156987
v 0.0572645552 0.00100000005 0.00296571106
v 0.0599867515 0.00100000005 0.00299976696
v 0.0577491932 0.00100000005 0.00360323908
v 0.053676147 0.00100000005 0.00636483077
v 0.0538604446 0.00100000005 0.00655938871
v 0.0533758067 0.00100000005 0.00592186069
v 0.0535139702 0.00100000005 0.00615148805
v 0.0530911312 0.00100000005 0.00489654345
v 0.00720489584 0.00100000005 0.00516296038
v 6.27391491e-05 0.00100000005 0.00553303678
v 0.00232010451 0.00100000005 0.00516296038
v 6.98508165e-06 0.00100000005 0.00502038654
v 0.0022911299 0.00100000005 0.00489654345
v 6.98508165e-06 0.00100000005 0.00450471323
v 0.0022911299 0.00100000005 0.00462855631
v 0.00476250006 0.00100000005 4.98257577e-08
v 0.0055527715 0.00100000005 0.00241710828
v 0.00529455207 0.00100000005 0.0023454139
v 0.00603849581 0.00100000005 0.00264182827
v 0.00580172567 0.00100000005 0.00251630065
v 0.057060305 0.00100000005 0.00279221963
v 0.0597702265 0.00100000005 0.00253175478
v 0.0531201027 0.00100000005 0.00516296038
v 0.0531777143 0.00100000005 0.00542468252
v 6.27391491e-05 0.00100000005 0.00399206299
v 0.00232010451 0.00100000005 0.00436213939
v 0.000173593609 0.00100000005 0.00348844635
v 0.0023777138 0.00100000005 0.00410041725
v 0.00503009465 0.00100000005 0.00230205851
v 0.00694919238 0.00100000005 0.00360323908
v 0.00681103021 0.00100000005 0.00337361195
v 0.0532632843 0.00100000005 0.00567864161
v 0.00714728609 0.00100000005 0.00410041725
v 0.0532632843 0.00100000005 0.00384645793
v 0.0531777143 0.00100000005 0.00410041725
v 0.00664885109 0.00100000005 0.00636483077
v 0.00681103021 0.00100000005 0.00615148805
v 0.00664885109 0.00100000005 0.00316026877
v 0.00188035809 0.00100000005 0.000971156987
v 0.00326469378 0.00100000005 0.00279221963
v 0.00306044379 0.00100000005 0.00296571106
v 0.00230717496 0.00100000005 0.000681767939
v 0.00348650431 0.00100000005 0.00264182827
v 0.00276277843 0.00100000005 0.000440222328
v 0.00372327445 0.00100000005 0.00251630065
v 0.00324182655 0.00100000005 0.000249352044
v 0.00397222862 0.00100000005 0.00241710828
v 0.00706171757 0.00100000005 0.00384645793
v 0.00694919238 0.00100000005 0.00592186069
v 0.00706171757 0.00100000005 0.00567864161
v 0.000338248821 0.00100000005 0.00299976696
v 0.00246328278 0.00100000005 0.00384645793
v 0.000554774306 0.00100000005 0.00253175478
v 0.00257580774 0.00100000005 0.00360323908
v 0.0555624999 0.00100000005 5.0291419e-08
v 0.0545232743 0.00100000005 0.00251630065
v 0.0542865023 0.00100000005 0.00264182827
v 0.0550304465 0.00100000005 0.0023454139
v 0.054772228 0.00100000005 0.00241710828
v 0.0552949049 0.00100000005 0.00230205851
v 0.00373870344 0.00100000005 0.000111394882
v 0.00423044804 0.00100000005 0.0023454139
v 0.00424758345 0.00100000005 2.79682681e-05
v 0.00449490547 0.00100000005 0.00230205851
v 0.053676147 0.00100000005 0.00316026877
v 0.0535139702 0.00100000005 0.00337361195
v 0.0540646948 0.00100000005 0.00279221963
v 0.0538604446 0.00100000005 0.00296571106
v 0.0014873317 0.00100000005 0.00130499667
v 0.00287614902 0.00100000005 0.00316026877
v 0.00476250006 0.00100000005 0.0022875499
v 0.000820631569 0.00100000005 0.00208989671
v 0.00271396968 0.00100000005 0.00337361195
v 0.00113270362 0.00100000005 0.00167937297
v 0.0575622208 0.00700000022 0.000440222328
v 0.0566017255 0.00700000022 0.00251630065
v 0.0568384975 0.00700000022 0.00264182827
v 0.0570831746 0.00700000022 0.000249352044
v 0.0563527718 0.00700000022 0.00241710828
v 0.0530911312 0.00700000022 0.00489654345
v 0.0530911312 0.00700000022 0.00462855631
v 0.00723387022 0.00700000022 0.00462855631
v 0.00714728609 0.00700000022 0.00410041725
v 0.00720489584 0.00700000022 0.00436213939
v 0.0580178238 0.00700000022 0.000681767939
v 0.057060305 0.00700000022 0.00279221963
v 0.0565862954 0.00700000022 0.000111394882
v 0.0560945533 0.00700000022 0.0023454139
v 0.056077417 0.00700000022 2.79682681e-05
v 0.055830095 0.00700000022 0.00230205851
v 0.0555624999 0.00700000022 0.00952504948
v 0.00626030611 0.00700000022 0.00673288014
v 0.00603849581 0.00700000022 0.0068832715
v 0.00476250006 0.00700000022 0.00952504948
v 0.00580172567 0.00700000022 0.00700879889
v 0.0055527715 0.00700000022 0.00710799126
v 0.00723387022 0.00700000022 0.00489654345
v 0.00720489584 0.00700000022 0.00516296038
v 0.00714728609 0.00700000022 0.00542468252
v 0.0542865023 0.00700000022 0.0068832715
v 0.0591922961 0.00700000022 0.00167937297
v 0.0574488528 0.00700000022 0.00316026877
v 0.0576110296 0.00700000022 0.00337361195
v 0.0588376671 0.00700000022 0.00130499667
v 0.0572645552 0.00700000022 0.00296571106
v 0.0555624999 0.00700000022 5.0291419e-08
v 0.0555624999 0.00700000022 0.0022875499
v 0.0550304465 0.00700000022 0.0023454139
v 0.0552949049 0.00700000022 0.00230205851
v 0.0545232743 0.00700000022 0.00251630065
v 0.054772228 0.00700000022 0.00241710828
v 0.00664885109 0.00700000022 0.00636483077
v 0.00646455633 0.00700000022 0.00655938871
v 0.0531201027 0.00700000022 0.00436213939
v 0.0532632843 0.00700000022 0.00567864161
v 0.0531777143 0.00700000022 0.00542468252
v 0.0545232743 0.00700000022 0.00700879889
v 0.0550304465 0.00700000022 0.00717968587
v 0.054772228 0.00700000022 0.00710799126
v 0.00476250006 0.00700000022 4.98257577e-08
v 0.00424758345 0.00700000022 2.79682681e-05
v 0.00449490547 0.00700000022 0.00230205851
v 0.00276277843 0.00700000022 0.000440222328
v 0.00372327445 0.00700000022 0.00251630065
v 0.00397222862 0.00700000022 0.00241710828
v 0.00230717496 0.00700000022 0.000681767939
v 0.00348650431 0.00700000022 0.00264182827
v 0.00188035809 0.00700000022 0.000971156987
v 0.00326469378 0.00700000022 0.00279221963
v 0.0014873317 0.00700000022 0.00130499667
v 0.00306044379 0.00700000022 0.00296571106
v 0.00230717496 0.00700000022 0.0088433316
v 0.00348650431 0.00700000022 0.0068832715
v 0.00326469378 0.00700000022 0.00673288014
v 0.00276277843 0.00700000022 0.00908487756
v 0.00372327445 0.00700000022 0.00700879889
v 0.0570831746 0.00700000022 0.00927574746
v 0.0563527718 0.00700000022 0.00710799126
v 0.0560945533 0.00700000022 0.00717968587
v 0.0575622208 0.00700000022 0.00908487756
v 0.0566017255 0.00700000022 0.00700879889
v 0.0580178238 0.00700000022 0.0088433316
v 0.0568384975 0.00700000022 0.0068832715
v 0.0584446415 0.00700000022 0.00855394267
v 0.057060305 0.00700000022 0.00673288014
v 0.0591922961 0.00700000022 0.0078457268
v 0.0574488528 0.00700000022 0.00636483077
v 0.0572645552 0.00700000022 0.00655938871
v 0.0595043674 0.00700000022 0.00743520306
v 0.0576110296 0.00700000022 0.00615148805
v 0.0601514056 0.00700000022 0.00603665365
v 0.0579472855 0.00700000022 0.00542468252
v 0.0578617156 0.00700000022 0.00567864161
v 0.0602622591 0.00700000022 0.00553303678
v 0.0580048971 0.00700000022 0.00516296038
v 0.0603180155 0.00700000022 0.00502038654
v 0.0603180155 0.00700000022 0.00450471323
v 0.0580338687 0.00700000022 0.00462855631
v 0.0602622591 0.00700000022 0.00399206299
v 0.0580048971 0.00700000022 0.00436213939
v 0.0584446415 0.00700000022 0.000971156987
v 0.0540646948 0.00700000022 0.00279221963
v 0.0542865023 0.00700000022 0.00264182827
v 0.00529455207 0.00700000022 0.00717968587
v 0.00503009465 0.00700000022 0.00722304126
v 0.0531777143 0.00700000022 0.00410041725
v 0.0531201027 0.00700000022 0.00516296038
v 0.0533758067 0.00700000022 0.00592186069
v 0.053676147 0.00700000022 0.00636483077
v 0.0535139702 0.00700000022 0.00615148805
v 0.0540646948 0.00700000022 0.00673288014
v 0.0538604446 0.00700000022 0.00655938871
v 0.0555624999 0.00700000022 0.00723754987
v 0.0552949049 0.00700000022 0.00722304126
v 0.0533758067 0.00700000022 0.00360323908
v 0.00603849581 0.00700000022 0.00264182827
v 0.00503009465 0.00700000022 0.00230205851
v 0.00529455207 0.00700000022 0.0023454139
v 0.00476250006 0.00700000022 0.0022875499
v 0.00373870344 0.00700000022 0.000111394882
v 0.00423044804 0.00700000022 0.0023454139
v 0.00324182655 0.00700000022 0.000249352044
v 0.00188035809 0.00700000022 0.00855394267
v 0.00306044379 0.00700000022 0.00655938871
v 0.00324182655 0.00700000022 0.00927574746
v 0.00397222862 0.00700000022 0.00710799126
v 0.00373870344 0.00700000022 0.00941370521
v 0.00423044804 0.00700000022 0.00717968587
v 0.056077417 0.00700000022 0.00949713122
v 0.055830095 0.00700000022 0.00722304126
v 0.0565862954 0.00700000022 0.00941370521
v 0.0588376671 0.00700000022 0.00822010357
v 0.0599867515 0.00700000022 0.00652533257
v 0.0577491932 0.00700000022 0.00592186069
v 0.0580338687 0.00700000022 0.00489654345
v 0.0601514056 0.00700000022 0.00348844635
v 0.0579472855 0.00700000022 0.00410041725
v 0.0599867515 0.00700000022 0.00299976696
v 0.0578617156 0.00700000022 0.00384645793
v 0.0595043674 0.00700000022 0.00208989671
v 0.0577491932 0.00700000022 0.00360323908
v 0.00694919238 0.00700000022 0.00592186069
v 0.00681103021 0.00700000022 0.00615148805
v 0.0532632843 0.00700000022 0.00384645793
v 0.00646455633 0.00700000022 0.00296571106
v 0.00664885109 0.00700000022 0.00316026877
v 0.00626030611 0.00700000022 0.00279221963
v 0.0055527715 0.00700000022 0.00241710828
v 0.00580172567 0.00700000022 0.00251630065
v 0.00113270362 0.00700000022 0.00167937297
v 0.00287614902 0.00700000022 0.00316026877
v 0.000338248821 0.00700000022 0.00652533257
v 0.00246328278 0.00700000022 0.00567864161
v 0.0023777138 0.00700000022 0.00542468252
v 0.000554774306 0.00700000022 0.00699334498
v 0.00257580774 0.00700000022 0.00592186069
v 0.0597702265 0.00700000022 0.00699334498
v 0.0597702265 0.00700000022 0.00253175478
v 0.00706171757 0.00700000022 0.00567864161
v 0.00681103021 0.00700000022 0.00337361195
v 6.98508165e-06 0.00700000022 0.00450471323
v 6.98508165e-06 0.00700000022 0.00502038654
v 0.0022911299 0.00700000022 0.00489654345
v 6.27391491e-05 0.00700000022 0.00553303678
v 0.00232010451 0.00700000022 0.00516296038
v 0.000173593609 0.00700000022 0.00603665365
v 0.000820631569 0.00700000022 0.00743520306
v 0.00271396968 0.00700000022 0.00615148805
v 0.00113270362 0.00700000022 0.0078457268
v 0.00287614902 0.00700000022 0.00636483077
v 0.0014873317 0.00700000022 0.00822010357
v 0.053676147 0.00700000022 0.00316026877
v 0.0538604446 0.00700000022 0.00296571106
v 0.000820631569 0.00700000022 0.00208989671
v 0.00271396968 0.00700000022 0.00337361195
v 0.000554774306 0.00700000022 0.00253175478
v 0.00257580774 0.00700000022 0.00360323908
v 6.27391491e-05 0.00700000022 0.00399206299
v 0.00232010451 0.00700000022 0.00436213939
v 0.0023777138 0.00700000022 0.00410041725
v 0.0022911299 0.00700000022 0.00462855631
v 0.00424758345 0.00700000022 0.00949713122
v 0.00449490547 0.00700000022 0.00722304126
v 0.00476250006 0.00700000022 0.00723754987
v 0.0535139702 0.00700000022 0.00337361195
v 0.00694919238 0.00700000022 0.00360323908
v 0.00706171757 0.00700000022 0.00384645793
v 0.000338248821 0.00700000022 0.00299976696
v 0.00246328278 0.00700000022 0.00384645793
v 0.000173593609 0.00700000022 0.00348844635
v 0.0555624999 0.00100000005 0.00952504948
v 0.0555624999 0.00700000022 0.00952504948
v 0.00476250006 0.00700000022 0.00952504948
v 0.00476250006 0.00100000005 0.00952504948
v 0.0555624999 0.00100000005 5.0291419e-08
v 0.00476250006 0.00100000005 4.98257577e-08
v 0.00476250006 0.00700000022 4.98257577e-08
v 0.0555624999 0.00700000022 5.0291419e-08
v 0.00476250006 0.00100000005 0.00952504948
v 0.00476250006 0.00700000022 0.00952504948
v 0.00424758345 0.00700000022 0.00949713122
v 0.00424758345 0.00100000005 0.00949713122
v 0.00373870344 0.00700000022 0.00941370521
v 0.00373870344 0.00100000005 0.00941370521
v 0.00324182655 0.00700000022 0.00927574746
v 0.00324182655 0.00100000005 0.00927574746
v 0.00276277843 0.00700000022 0.00908487756
v 0.00276277843 0.00100000005 0.00908487756
v 0.00230717496 0.00700000022 0.0088433316
v 0.00230717496 0.00100000005 0.0088433316
v 0.00188035809 0.00700000022 0.00855394267
v 0.00188035809 0.00100000005 0.00855394267
v 0.0014873317 0.00700000022 0.00822010357
v 0.0014873317 0.00100000005 0.00822010357
v 0.00113270362 0.00700000022 0.0078457268
v 0.00113270362 0.00100000005 0.0078457268
v 0.000820631569 0.00700000022 0.00743520306
v 0.000820631569 0.00100000005 0.00743520306
v 0.000554774306 0.00700000022 0.00699334498
v 0.000554774306 0.00100000005 0.00699334498
v 0.000338248821 0.00700000022 0.00652533257
v 0.000338248821 0.00100000005 0.00652533257
v 0.000173593609 0.00700000022 0.00603665365
v 0.000173593609 0.00100000005 0.00603665365
v 6.27391491e-05 0.00700000022 0.00553303678
v 6.27391491e-05 0.00100000005 0.00553303678
v 6.98508165e-06 0.00700000022 0.00502038654
v 6.98508165e-06 0.00100000005 0.00502038654
v 6.98508165e-06 0.00700000022 0.00450471323
v 6.98508165e-06 0.00100000005 0.00450471323
v 6.27391491e-05 0.00700000022 0.00399206299
v 6.27391491e-05 0.00100000005 0.00399206299
v 0.000173593609 0.00700000022 0.00348844635
v 0.000173593609 0.00100000005 0.00348844635
v 0.000338248821 0.00700000022 0.00299976696
v 0.000338248821 0.00100000005 0.00299976696
v 0.000554774306 0.00700000022 0.00253175478
v 0.000554774306 0.00100000005 0.00253175478
v 0.000820631569 0.00700000022 0.00208989671
v 0.000820631569 0.00100000005 0.00208989671
v 0.00113270362 0.00700000022 0.00167937297
v 0.00113270362 0.00100000005 0.00167937297
v 0.0014873317 0.00700000022 0.00130499667
v 0.0014873317 0.00100000005 0.00130499667
v 0.00188035809 0.00700000022 0.000971156987
v 0.00188035809 0.00100000005 0.000971156987
v 0.00230717496 0.00700000022 0.000681767939
v 0.00230717496 0.00100000005 0.000681767939
v 0.00276277843 0.00700000022 0.000440222328
v 0.00276277843 0.00100000005 0.000440222328
v 0.00324182655 0.00700000022 0.000249352044
v 0.00324182655 0.00100000005 0.000249352044
v 0.00373870344 0.00700000022 0.000111394882
v 0.00373870344 0.00100000005 0.000111394882
v 0.00424758345 0.00700000022 2.79682681e-05
v 0.00424758345 0.00100000005 2.79682681e-05
v 0.00476250006 0.00700000022 4.98257577e-08
v 0.00476250006 0.00100000005 4.98257577e-08
v 0.0555624999 0.00100000005 5.0291419e-08
v 0.0555624999 0.00700000022 5.0291419e-08
v 0.056077417 0.00700000022 2.79682681e-05
v 0.056077417 0.00100000005 2.79682681e-05
v 0.0565862954 0.00700000022 0.000111394882
v 0.0565862954 0.00100000005 0.000111394882
v 0.0570831746 0.00700000022 0.000249352044
v 0.0570831746 0.00100000005 0.000249352044
v 0.0575622208 0.00700000022 0.000440222328
v 0.0575622208 0.00100000005 0.000440222328
v 0.0580178238 0.00700000022 0.000681767939
v 0.0580178238 0.00100000005 0.000681767939
v 0.0584446415 0.00700000022 0.000971156987
v 0.0584446415 0.00100000005 0.000971156987
v 0.0588376671 0.00700000022 0.00130499667
v 0.0588376671 0.00100000005 0.00130499667
v 0.0591922961 0.00700000022 0.00167937297
v 0.0591922961 0.00100000005 0.00167937297
v 0.0595043674 0.00700000022 0.00208989671
v 0.0595043674 0.00100000005 0.00208989671
v 0.0597702265 0.00700000022 0.00253175478
v 0.0597702265 0.00100000005 0.00253175478
v 0.0599867515 0.00700000022 0.00299976696
v 0.0599867515 0.00100000005 0.00299976696
v 0.0601514056 0.00700000022 0.00348844635
v 0.0601514056 0.00100000005 0.00348844635
v 0.0602622591 0.00700000022 0.00399206299
v 0.0602622591 0.00100000005 0.00399206299
v 0.0603180155 0.00700000022 0.00450471323
v 0.0603180155 0.00100000005 0.00450471323
v 0.0603180155 0.00700000022 0.00502038654
v 0.0603180155 0.00100000005 0.00502038654
v 0.0602622591 0.00700000022 0.00553303678
v 0.0602622591 0.00100000005 0.00553303678
v 0.0601514056 0.00700000022 0.00603665365
v 0.0601514056 0.00100000005 0.00603665365
v 0.0599867515 0.00700000022 0.00652533257
v 0.0599867515 0.00100000005 0.00652533257
v 0.0597702265 0.00700000022 0.00699334498
v 0.0597702265 0.00100000005 0.00699334498
v 0.0595043674 0.00700000022 0.00743520306
v 0.0595043674 0.00100000005 0.00743520306
v 0.0591922961 0.00700000022 0.0078457268
v 0.0591922961 0.00100000005 0.0078457268
v 0.0588376671 0.00700000022 0.00822010357
v 0.0588376671 0.00100000005 0.00822010357
v 0.0584446415 0.00700000022 0.00855394267
v 0.0584446415 0.00100000005 0.00855394267
v 0.0580178238 0.00700000022 0.0088433316
v 0.0580178238 0.00100000005 0.0088433316
v 0.0575622208 0.00700000022 0.00908487756
v 0.0575622208 0.00100000005 0.00908487756
v 0.0570831746 0.00700000022 0.00927574746
v 0.0570831746 0.00100000005 0.00927574746
v 0.0565862954 0.00700000022 0.00941370521
v 0.0565862954 0.00100000005 0.00941370521
v 0.056077417 0.00700000022 0.00949713122
v 0.056077417 0.00100000005 0.00949713122
v 0.0555624999 0.00700000022 0.00952504948
v 0.0555624999 0.00100000005 0.00952504948
v 0.00449490547 0.00100000005 0.00230205851
v 0.00476250006 0.00100000005 0.0022875499
v 0.00476250006 0.00700000022 0.0022875499
v 0.00423044804 0.00100000005 0.0023454139
v 0.00449490547 0.00700000022 0.00230205851
v 0.00397222862 0.00100000005 0.00241710828
v 0.00423044804 0.00700000022 0.0023454139
v 0.00372327445 0.00100000005 0.00251630065
v 0.00397222862 0.00700000022 0.00241710828
v 0.00348650431 0.00100000005 0.00264182827
v 0.00372327445 0.00700000022 0.00251630065
v 0.00326469378 0.00100000005 0.00279221963
v 0.00348650431 0.00700000022 0.00264182827
v 0.00306044379 0.00100000005 0.00296571106
v 0.00326469378 0.00700000022 0.00279221963
v 0.00287614902 0.00100000005 0.00316026877
v 0.00306044379 0.00700000022 0.00296571106
v 0.00271396968 0.00100000005 0.00337361195
v 0.00287614902 0.00700000022 0.00316026877
v 0.00257580774 0.00100000005 0.00360323908
v 0.00271396968 0.00700000022 0.00337361195
v 0.00246328278 0.00100000005 0.00384645793
v 0.00257580774 0.00700000022 0.00360323908
v 0.0023777138 0.00100000005 0.00410041725
v 0.00246328278 0.00700000022 0.00384645793
v 0.00232010451 0.00100000005 0.00436213939
v 0.0023777138 0.00700000022 0.00410041725
v 0.0022911299 0.00100000005 0.00462855631
v 0.00232010451 0.00700000022 0.00436213939
v 0.0022911299 0.00100000005 0.00489654345
v 0.0022911299 0.00700000022 0.00462855631
v 0.00232010451 0.00100000005 0.00516296038
v 0.0022911299 0.00700000022 0.00489654345
v 0.0023777138 0.00100000005 0.00542468252
v 0.00232010451 0.00700000022 0.00516296038
v 0.00246328278 0.00100000005 0.00567864161
v 0.0023777138 0.00700000022 0.00542468252
v 0.00257580774 0.00100000005 0.00592186069
v 0.00246328278 0.00700000022 0.00567864161
v 0.00271396968 0.00100000005 0.00615148805
v 0.00257580774 0.00700000022 0.00592186069
v 0.00287614902 0.00100000005 0.00636483077
v 0.00271396968 0.00700000022 0.00615148805
v 0.00306044379 0.00100000005 0.00655938871
v 0.00287614902 0.00700000022 0.00636483077
v 0.00326469378 0.00100000005 0.00673288014
v 0.00306044379 0.00700000022 0.00655938871
v 0.00348650431 0.00100000005 0.0068832715
v 0.00326469378 0.00700000022 0.00673288014
v 0.00372327445 0.00100000005 0.00700879889
v 0.00348650431 0.00700000022 0.0068832715
v 0.00397222862 0.00100000005 0.00710799126
v 0.00372327445 0.00700000022 0.00700879889
v 0.00423044804 0.00100000005 0.00717968587
v 0.00397222862 0.00700000022 0.00710799126
v 0.00449490547 0.00100000005 0.00722304126
v 0.00423044804 0.00700000022 0.00717968587
v 0.00476250006 0.00100000005 0.00723754987
v 0.00449490547 0.00700000022 0.00722304126
v 0.00503009465 0.00100000005 0.00722304126
v 0.00476250006 0.00700000022 0.00723754987
v 0.00529455207 0.00100000005 0.00717968587
v 0.00503009465 0.00700000022 0.00722304126
v 0.0055527715 0.00100000005 0.00710799126
v 0.00529455207 0.00700000022 0.00717968587
v 0.00580172567 0.00100000005 0.00700879889
v 0.0055527715 0.00700000022 0.00710799126
v 0.00603849581 0.00100000005 0.0068832715
v 0.00580172567 0.00700000022 0.00700879889
v 0.00626030611 0.00100000005 0.00673288014
v 0.00603849581 0.00700000022 0.0068832715
v 0.00646455633 0.00100000005 0.00655938871
v 0.00626030611 0.00700000022 0.00673288014
v 0.00664885109 0.00100000005 0.00636483077
v 0.00646455633 0.00700000022 0.00655938871
v 0.00681103021 0.00100000005 0.00615148805
v 0.00664885109 0.00700000022 0.00636483077
v 0.00694919238 0.00100000005 0.00592186069
v 0.00681103021 0.00700000022 0.00615148805
v 0.00706171757 0.00100000005 0.00567864161
v 0.00694919238 0.00700000022 0.00592186069
v 0.00714728609 0.00100000005 0.00542468252
v 0.00706171757 0.00700000022 0.00567864161
v 0.00720489584 0.00100000005 0.00516296038
v 0.00714728609 0.00700000022 0.00542468252
v 0.00723387022 0.00100000005 0.00489654345
v 0.00720489584 0.00700000022 0.00516296038
v 0.00723387022 0.00100000005 0.00462855631
v 0.00723387022 0.00700000022 0.00489654345
v 0.00720489584 0.00100000005 0.00436213939
v 0.00723387022 0.00700000022 0.00462855631
v 0.00714728609 0.00100000005 0.00410041725
v 0.00720489584 0.00700000022 0.00436213939
v 0.00706171757 0.00100000005 0.00384645793
v 0.00714728609 0.00700000022 0.00410041725
v 0.00694919238 0.00100000005 0.00360323908
v 0.00706171757 0.00700000022 0.00384645793
v 0.00681103021 0.00100000005 0.00337361195
v 0.00694919238 0.00700000022 0.00360323908
v 0.00664885109 0.00100000005 0.00316026877
v 0.00681103021 0.00700000022 0.00337361195
v 0.00646455633 0.00100000005 0.00296571106
v 0.00664885109 0.00700000022 0.00316026877
v 0.00626030611 0.00100000005 0.00279221963
v 0.00646455633 0.00700000022 0.00296571106
v 0.00603849581 0.00100000005 0.00264182827
v 0.00626030611 0.00700000022 0.00279221963
v 0.00580172567 0.00100000005 0.00251630065
v 0.00603849581 0.00700000022 0.00264182827
v 0.0055527715 0.00100000005 0.00241710828
v 0.00580172567 0.00700000022 0.00251630065
v 0.00529455207 0.00100000005 0.0023454139
v 0.0055527715 0.00700000022 0.00241710828
v 0.00503009465 0.00100000005 0.00230205851
v 0.00529455207 0.00700000022 0.0023454139
v 0.00503009465 0.00700000022 0.00230205851
f 1 2 3
f 4 1 5
f 6 4 7
f 8 6 9
f 10 8 11
f 12 10 13
f 14 12 15
f 16 14 17
f 18 16 19
f 20 18 21
f 22 20 23
f 24 22 25
f 26 24 27
f 28 26 29
f 30 28 31
f 32 30 33
f 34 32 35
f 36 34 37
f 38 36 39
f 40 38 41
f 42 40 43
f 44 42 45
f 46 44 47
f 48 46 49
f 50 48 51
f 52 50 53
f 54 52 55
f 56 54 57
f 58 56 59
f 60 58 61
f 62 60 63
f 64 62 65
f 66 64 67
f 68 66 69
f 70 68 71
f 72 70 73
f 74 72 75
f 76 74 77
f 78 76 79
f 80 78 81
f 82 80 83
f 84 82 85
f 86 84 87
f 88 86 89
f 90 88 91
f 92 90 93
f 94 92 95
f 96 94 97
f 98 96 99
f 100 98 101
f 102 100 103
f 104 102 105
f 106 104 107
f 108 106 109
f 110 108 111
f 112 110 113
f 114 112 115
f 2 114 116
f 116 3 2
f 115 116 114
f 113 115 112
f 111 113 110
f 109 111 108
f 107 109 106
f 105 107 104
f 103 105 102
f 101 103 100
f 99 101 98
f 97 99 96
f 95 97 94
f 93 95 92
f 91 93 90
f 89 91 88
f 87 89 86
f 85 87 84
f 83 85 82
f 81 83 80
f 79 81 78
f 77 79 76
f 75 77 74
f 73 75 72
f 71 73 70
f 69 71 68
f 67 69 66
f 65 67 64
f 63 65 62
f 61 63 60
f 59 61 58
f 57 59 56
f 55 57 54
f 53 55 52
f 51 53 50
f 49 51 48
f 47 49 46
f 45 47 44
f 43 45 42
f 41 43 40
f 39 41 38
f 37 39 36
f 35 37 34
f 33 35 32
f 31 33 30
f 29 31 28
f 27 29 26
f 25 27 24
f 23 25 22
f 21 23 20
f 19 21 18
f 17 19 16
f 15 17 14
f 13 15 12
f 11 13 10
f 9 11 8
f 7 9 6
f 5 7 4
f 3 5 1
f 117 118 119
f 120 121 122
f 120 123 124
f 123 125 126
f 125 127 128
f 117 129 128
f 118 130 119
f 131 132 133
f 131 134 135
f 136 137 138
f 136 139 140
f 124 121 120
f 128 126 125
f 119 129 117
f 141 142 143
f 144 145 146
f 147 148 149
f 150 133 148
f 135 132 131
f 134 151 152
f 153 154 155
f 154 156 157
f 158 159 160
f 161 162 159
f 163 164 165
f 163 166 167
f 140 137 136
f 139 168 122
f 126 124 123
f 118 169 130
f 118 170 171
f 143 118 141
f 172 173 174
f 118 175 176
f 146 118 144
f 177 178 179
f 177 180 149
f 148 147 150
f 152 135 134
f 153 181 182
f 157 155 154
f 156 183 184
f 183 185 186
f 187 188 189
f 188 190 191
f 192 193 194
f 192 195 160
f 159 158 161
f 161 196 165
f 167 164 163
f 166 197 198
f 199 138 198
f 122 140 139
f 128 127 117
f 143 170 118
f 200 173 201
f 173 200 174
f 146 175 118
f 144 202 203
f 144 179 204
f 149 178 177
f 133 150 131
f 205 206 152
f 207 208 206
f 207 209 210
f 211 212 210
f 211 213 214
f 215 216 217
f 155 181 153
f 186 184 183
f 218 187 219
f 191 189 188
f 220 194 221
f 160 193 192
f 165 162 161
f 198 167 166
f 138 199 136
f 171 169 118
f 141 222 223
f 141 224 225
f 174 226 172
f 226 141 227
f 203 145 144
f 179 144 177
f 152 151 205
f 210 208 207
f 214 212 211
f 213 228 229
f 230 231 229
f 232 233 231
f 234 235 236
f 234 237 238
f 217 234 215
f 184 157 156
f 185 218 239
f 189 219 187
f 190 240 221
f 194 220 192
f 165 196 163
f 122 168 120
f 225 222 141
f 141 241 242
f 227 172 226
f 204 202 144
f 206 205 207
f 229 214 213
f 231 230 232
f 243 244 233
f 243 245 246
f 236 247 234
f 217 237 234
f 215 248 249
f 239 186 185
f 221 191 190
f 160 195 158
f 223 142 141
f 242 250 141
f 201 251 200
f 251 252 253
f 118 254 255
f 149 180 147
f 229 228 230
f 246 244 243
f 238 235 234
f 249 256 215
f 219 239 218
f 198 197 199
f 226 241 141
f 251 215 252
f 176 254 118
f 233 232 243
f 257 258 259
f 257 260 261
f 262 263 261
f 262 264 265
f 256 216 215
f 215 251 266
f 221 240 220
f 253 200 251
f 118 267 268
f 210 209 211
f 269 270 246
f 269 271 272
f 273 274 275
f 273 276 277
f 273 182 278
f 261 258 257
f 265 263 262
f 279 280 265
f 281 282 280
f 266 248 215
f 250 224 141
f 255 267 118
f 272 270 269
f 234 283 284
f 234 285 286
f 275 234 273
f 278 276 273
f 287 259 288
f 261 260 262
f 280 279 281
f 234 289 282
f 182 273 153
f 246 245 269
f 286 283 234
f 277 274 273
f 290 291 272
f 290 292 288
f 259 287 257
f 282 281 234
f 268 141 118
f 275 285 234
f 288 291 290
f 265 264 279
f 284 215 234
f 288 292 287
f 272 271 290
f 247 289 234
f 293 294 295
f 293 296 297
f 298 299 300
f 299 301 302
f 303 295 304
f 297 294 293
f 305 306 297
f 305 307 308
f 309 310 311
f 302 300 299
f 295 303 293
f 308 306 305
f 312 313 314
f 311 312 309
f 298 315 316
f 300 315 298
f 317 309 318
f 319 320 321
f 322 323 320
f 297 296 305
f 307 324 325
f 324 326 327
f 324 328 329
f 311 313 312
f 309 330 331
f 299 332 301
f 317 333 334
f 309 335 318
f 309 336 337
f 338 339 340
f 341 342 343
f 341 344 345
f 344 346 347
f 346 348 349
f 350 351 352
f 350 353 354
f 355 356 357
f 355 358 359
f 360 361 359
f 360 362 363
f 364 365 366
f 364 367 368
f 369 370 371
f 369 372 373
f 374 375 376
f 375 377 378
f 320 319 322
f 379 304 323
f 325 308 307
f 329 326 324
f 338 380 381
f 312 382 383
f 331 310 309
f 301 332 384
f 317 385 298
f 317 386 333
f 317 387 388
f 317 389 390
f 337 335 309
f 309 391 392
f 393 338 394
f 338 395 396
f 340 397 338
f 339 398 399
f 398 400 343
f 345 342 341
f 349 347 346
f 401 352 402
f 354 351 350
f 353 403 404
f 403 405 406
f 407 408 391
f 407 409 357
f 359 356 355
f 363 361 360
f 410 366 363
f 368 365 364
f 411 371 412
f 373 370 369
f 374 413 373
f 378 376 375
f 414 415 378
f 414 416 417
f 418 321 419
f 323 322 379
f 327 325 324
f 381 324 338
f 314 382 312
f 309 420 421
f 384 422 301
f 334 385 317
f 390 387 317
f 392 336 309
f 393 423 424
f 394 425 393
f 338 426 427
f 397 395 338
f 343 399 398
f 347 345 344
f 348 428 429
f 430 431 432
f 430 433 434
f 352 401 350
f 406 404 403
f 357 408 407
f 359 358 360
f 366 410 364
f 367 435 412
f 371 411 369
f 376 413 374
f 417 415 414
f 416 436 419
f 321 418 319
f 381 328 324
f 421 330 309
f 309 317 437
f 316 317 298
f 318 389 317
f 424 438 393
f 427 394 338
f 399 340 339
f 429 349 348
f 439 440 441
f 440 442 443
f 444 432 443
f 434 431 430
f 445 446 434
f 445 447 448
f 447 449 402
f 404 354 353
f 357 409 355
f 412 368 367
f 373 372 374
f 419 417 416
f 304 379 303
f 338 450 451
f 437 420 309
f 388 386 317
f 425 423 393
f 343 400 341
f 452 453 429
f 452 454 455
f 456 457 458
f 456 439 459
f 443 441 440
f 432 444 430
f 448 446 445
f 402 449 401
f 460 461 406
f 460 312 462
f 363 362 410
f 378 377 414
f 451 380 338
f 338 393 463
f 422 393 301
f 393 464 465
f 396 426 338
f 455 453 452
f 459 457 456
f 443 442 444
f 402 448 447
f 462 461 460
f 412 435 411
f 463 450 338
f 465 301 393
f 429 428 452
f 466 467 455
f 466 468 458
f 441 459 439
f 406 405 460
f 419 436 418
f 438 464 393
f 458 467 466
f 434 433 445
f 383 462 312
f 458 468 456
f 455 454 466
f 391 309 407
f 469 470 471
f 471 472 469
f 473 474 475
f 475 476 473
f 477 478 479
f 480 479 481
f 482 481 483
f 484 483 485
f 486 485 487
f 488 487 489
f 490 489 491
f 492 491 493
f 494 493 495
f 496 495 497
f 498 497 499
f 500 499 501
f 502 501 503
f 504 503 505
f 506 505 507
f 508 507 509
f 510 509 511
f 512 511 513
f 514 513 515
f 516 515 517
f 518 517 519
f 520 519 521
f 522 521 523
f 524 523 525
f 526 525 527
f 528 527 529
f 530 529 531
f 532 531 533
f 534 533 535
f 535 536 534
f 533 534 532
f 531 532 530
f 529 530 528
f 527 528 526
f 525 526 524
f 523 524 522
f 521 522 520
f 519 520 518
f 517 518 516
f 515 516 514
f 513 514 512
f 511 512 510
f 509 510 508
f 507 508 506
f 505 506 504
f 503 504 502
f 501 502 500
f 499 500 498
f 497 498 496
f 495 496 494
f 493 494 492
f 491 492 490
f 489 490 488
f 487 488 486
f 485 486 484
f 483 484 482
f 481 482 480
f 479 480 477
f 537 538 539
f 540 539 541
f 542 541 543
f 544 543 545
f 546 545 547
f 548 547 549
f 550 549 551
f 552 551 553
f 554 553 555
f 556 555 557
f 558 557 559
f 560 559 561
f 562 561 563
f 564 563 565
f 566 565 567
f 568 567 569
f 570 569 571
f 572 571 573
f 574 573 575
f 576 575 577
f 578 577 579
f 580 579 581
f 582 581 583
f 584 583 585
f 586 585 587
f 588 587 589
f 590 589 591
f 592 591 593
f 594 593 595
f 595 596 594
f 593 594 592
f 591 592 590
f 589 590 588
f 587 588 586
f 585 586 584
f 583 584 582
f 581 582 580
f 579 580 578
f 577 578 576
f 575 576 574
f 573 574 572
f 571 572 570
f 569 570 568
f 567 568 566
f 565 566 564
f 563 564 562
f 561 562 560
f 559 560 558
f 557 558 556
f 555 556 554
f 553 554 552
f 551 552 550
f 549 550 548
f 547 548 546
f 545 546 544
f 543 544 542
f 541 542 540
f 539 540 537
f 597 598 599
f 600 597 601
f 602 600 603
f 604 602 605
f 606 604 607
f 608 606 609
f 610 608 611
f 612 610 613
f 614 612 615
f 616 614 617
f 618 616 619
f 620 618 621
f 622 620 623
f 624 622 625
f 626 624 627
f 628 626 629
f 630 628 631
f 632 630 633
f 634 632 635
f 636 634 637
f 638 636 639
f 640 638 641
f 642 640 643
f 644 642 645
f 646 644 647
f 648 646 649
f 650 648 651
f 652 650 653
f 654 652 655
f 656 654 657
f 658 656 659
f 660 658 661
f 662 660 663
f 664 662 665
f 666 664 667
f 668 666 669
f 670 668 671
f 672 670 673
f 674 672 675
f 676 674 677
f 678 676 679
f 680 678 681
f 682 680 683
f 684 682 685
f 686 684 687
f 688 686 689
f 690 688 691
f 692 690 693
f 694 692 695
f 696 694 697
f 698 696 699
f 700 698 701
f 702 700 703
f 704 702 705
f 706 704 707
f 708 706 709
f 710 708 711
f 598 710 712
f 712 599 598
f 711 712 710
f 709 711 708
f 707 709 706
f 705 707 704
f 703 705 702
f 701 703 700
f 699 701 698
f 697 699 696
f 695 697 694
f 693 695 692
f 691 693 690
f 689 691 688
f 687 689 686
f 685 687 684
f 683 685 682
f 681 683 680
f 679 681 678
f 677 679 676
f 675 677 674
f 673 675 672
f 671 673 670
f 669 671 668
f 667 669 666
f 665 667 664
f 663 665 662
f 661 663 660
f 659 661 658
f 657 659 656
f 655 657 654
f 653 655 652
f 651 653 650
f 649 651 648
f 647 649 646
f 645 647 644
f 643 645 642
f 641 643 640
f 639 641 638
f 637 639 636
f 635 637 634
f 633 635 632
f 631 633 630
f 629 631 628
f 627 629 626
f 625 627 624
f 623 625 622
f 621 623 620
f 619 621 618
f 617 619 616
f 615 617 614
f 613 615 612
f 611 613 610
f 609 611 608
f 607 609 606
f 605 607 604
f 603 605 602
f 601 603 600
f 599 601 597
