# OBJ generated by ONSHAPE BY PTC INC, 1.221 Units = meters
mtllib Hex_nut_grade_A___B_M5x0_8.mtl
g Hex nut grade A & B M5x0.8
usemtl 0.603922_0.647059_0.686275_0.000000_0.000000
o mesh3589
v 0.0025 -6.12323e-19 0.00235 
v 0.00248534 0.000270298 0.00235 
v 0.00205488 0.000223482 0.00160002 
v 0.00236913 0.000798254 0.00235 
v 0.0019588 0.000659996 0.00160002 
v 0.00214214 0.00128888 0.00235 
v 0.00177112 0.00106565 0.00160002 
v 0.00181499 0.00171925 0.00235 
v 0.00150063 0.00142147 0.00160002 
v 0.00140297 0.00206922 0.00235 
v 0.00115997 0.00171083 0.00160002 
v 0.000925345 0.00232244 0.00235 
v 0.000765076 0.00192019 0.00160002 
v 0.000404455 0.00246707 0.00235 
v 0.000334403 0.00203977 0.00160002 
v -0.000135347 0.00249633 0.00235 
v -0.000111905 0.00206397 0.00160002 
v -0.000668821 0.00240887 0.00235 
v -0.000552981 0.00199166 0.00160002 
v -0.00117102 0.00220878 0.00235 
v -0.0009682 0.00182622 0.00160002 
v -0.00161847 0.00190541 0.00235 
v -0.00133815 0.00157539 0.00160002 
v -0.00199023 0.00151294 0.00235 
v -0.00164552 0.0012509 0.00160002 
v -0.00226894 0.00104972 0.00235 
v -0.00187596 0.000867911 0.00160002 
v -0.00244155 0.000537426 0.00235 
v -0.00201867 0.000444344 0.00160002 
v -0.0025 3.06162e-19 0.00235 
v -0.002067 2.53134e-19 0.00160002 
v -0.00244155 -0.000537426 0.00235 
v -0.00201867 -0.000444344 0.00160002 
v -0.00226894 -0.00104972 0.00235 
v -0.00187596 -0.000867911 0.00160002 
v -0.00199023 -0.00151294 0.00235 
v -0.00164552 -0.0012509 0.00160002 
v -0.00161847 -0.00190541 0.00235 
v -0.00133815 -0.00157539 0.00160002 
v -0.00117102 -0.00220878 0.00235 
v -0.0009682 -0.00182622 0.00160002 
v -0.000668821 -0.00240887 0.00235 
v -0.000552981 -0.00199166 0.00160002 
v -0.000135347 -0.00249633 0.00235 
v -0.000111905 -0.00206397 0.00160002 
v 0.000404455 -0.00246707 0.00235 
v 0.000334403 -0.00203977 0.00160002 
v 0.000925345 -0.00232244 0.00235 
v 0.000765076 -0.00192019 0.00160002 
v 0.00140297 -0.00206922 0.00235 
v 0.00115997 -0.00171083 0.00160002 
v 0.00181499 -0.00171925 0.00235 
v 0.00150063 -0.00142147 0.00160002 
v 0.00214214 -0.00128888 0.00235 
v 0.00177112 -0.00106565 0.00160002 
v 0.00236913 -0.000798254 0.00235 
v 0.0019588 -0.000659996 0.00160002 
v 0.00248534 -0.000270298 0.00235 
v 0.00205488 -0.000223482 0.00160002 
v 0.002067 0 0.00160002 
vn -0.866025 0 0.5 
vn -0.860949 -0.0936338 0.5 
vn -0.860949 -0.0936338 0.5 
vn -0.820692 -0.276523 0.5 
vn -0.820692 -0.276523 0.5 
vn -0.74206 -0.446483 0.5 
vn -0.74206 -0.446483 0.5 
vn -0.628731 -0.595565 0.5 
vn -0.628731 -0.595565 0.5 
vn -0.486002 -0.7168 0.5 
vn -0.486002 -0.7168 0.5 
vn -0.320549 -0.804517 0.5 
vn -0.320549 -0.804517 0.5 
vn -0.140107 -0.854617 0.5 
vn -0.140107 -0.854617 0.5 
vn 0.0468857 -0.864755 0.5 
vn 0.0468857 -0.864755 0.5 
vn 0.231686 -0.834459 0.5 
vn 0.231686 -0.834459 0.5 
vn 0.405654 -0.765144 0.5 
vn 0.405654 -0.765144 0.5 
vn 0.560653 -0.660052 0.5 
vn 0.560653 -0.660052 0.5 
vn 0.689437 -0.524096 0.5 
vn 0.689437 -0.524096 0.5 
vn 0.785983 -0.363635 0.5 
vn 0.785983 -0.363635 0.5 
vn 0.845778 -0.18617 0.5 
vn 0.845778 -0.18617 0.5 
vn 0.866025 -1.06058e-16 0.5 
vn 0.866025 -1.06058e-16 0.5 
vn 0.845778 0.18617 0.5 
vn 0.845778 0.18617 0.5 
vn 0.785983 0.363635 0.5 
vn 0.785983 0.363635 0.5 
vn 0.689437 0.524096 0.5 
vn 0.689437 0.524096 0.5 
vn 0.560653 0.660052 0.5 
vn 0.560653 0.660052 0.5 
vn 0.405654 0.765144 0.5 
vn 0.405654 0.765144 0.5 
vn 0.231686 0.834459 0.5 
vn 0.231686 0.834459 0.5 
vn 0.0468857 0.864755 0.5 
vn 0.0468857 0.864755 0.5 
vn -0.140107 0.854617 0.5 
vn -0.140107 0.854617 0.5 
vn -0.320549 0.804517 0.5 
vn -0.320549 0.804517 0.5 
vn -0.486002 0.7168 0.5 
vn -0.486002 0.7168 0.5 
vn -0.628731 0.595565 0.5 
vn -0.628731 0.595565 0.5 
vn -0.74206 0.446483 0.5 
vn -0.74206 0.446483 0.5 
vn -0.820692 0.276523 0.5 
vn -0.820692 0.276523 0.5 
vn -0.860949 0.0936338 0.5 
vn -0.860949 0.0936338 0.5 
vn -0.866025 0 0.5 
f 1//1 2//2 3//3 
f 2//2 4//4 5//5 
f 4//4 6//6 7//7 
f 6//6 8//8 9//9 
f 8//8 10//10 11//11 
f 10//10 12//12 13//13 
f 12//12 14//14 15//15 
f 14//14 16//16 17//17 
f 16//16 18//18 19//19 
f 18//18 20//20 21//21 
f 20//20 22//22 23//23 
f 22//22 24//24 25//25 
f 24//24 26//26 27//27 
f 26//26 28//28 29//29 
f 28//28 30//30 31//31 
f 30//30 32//32 33//33 
f 32//32 34//34 35//35 
f 34//34 36//36 37//37 
f 36//36 38//38 39//39 
f 38//38 40//40 41//41 
f 40//40 42//42 43//43 
f 42//42 44//44 45//45 
f 44//44 46//46 47//47 
f 46//46 48//48 49//49 
f 48//48 50//50 51//51 
f 50//50 52//52 53//53 
f 52//52 54//54 55//55 
f 54//54 56//56 57//57 
f 56//56 58//58 59//59 
f 58//58 1//1 60//60 
f 60//60 59//59 58//58 
f 59//59 57//57 56//56 
f 57//57 55//55 54//54 
f 55//55 53//53 52//52 
f 53//53 51//51 50//50 
f 51//51 49//49 48//48 
f 49//49 47//47 46//46 
f 47//47 45//45 44//44 
f 45//45 43//43 42//42 
f 43//43 41//41 40//40 
f 41//41 39//39 38//38 
f 39//39 37//37 36//36 
f 37//37 35//35 34//34 
f 35//35 33//33 32//32 
f 33//33 31//31 30//30 
f 31//31 29//29 28//28 
f 29//29 27//27 26//26 
f 27//27 25//25 24//24 
f 25//25 23//23 22//22 
f 23//23 21//21 20//20 
f 21//21 19//19 18//18 
f 19//19 17//17 16//16 
f 17//17 15//15 14//14 
f 15//15 13//13 12//12 
f 13//13 11//11 10//10 
f 11//11 9//9 8//8 
f 9//9 7//7 6//6 
f 7//7 5//5 4//4 
f 5//5 3//3 2//2 
f 3//3 60//60 1//1 
o mesh3590
v -0.00201867 -0.000444344 -0.00160002 
v -0.002067 0 -0.00160002 
v -0.002067 2.53134e-19 0.00160002 
v -0.00187596 -0.000867911 -0.00160002 
v -0.00201867 -0.000444344 0.00160002 
v -0.00164552 -0.0012509 -0.00160002 
v -0.00187596 -0.000867911 0.00160002 
v -0.00133815 -0.00157539 -0.00160002 
v -0.00164552 -0.0012509 0.00160002 
v -0.0009682 -0.00182622 -0.00160002 
v -0.00133815 -0.00157539 0.00160002 
v -0.000552981 -0.00199166 -0.00160002 
v -0.0009682 -0.00182622 0.00160002 
v -0.000111905 -0.00206397 -0.00160002 
v -0.000552981 -0.00199166 0.00160002 
v 0.000334403 -0.00203977 -0.00160002 
v -0.000111905 -0.00206397 0.00160002 
v 0.000765076 -0.00192019 -0.00160002 
v 0.000334403 -0.00203977 0.00160002 
v 0.00115997 -0.00171083 -0.00160002 
v 0.000765076 -0.00192019 0.00160002 
v 0.00150063 -0.00142147 -0.00160002 
v 0.00115997 -0.00171083 0.00160002 
v 0.00177112 -0.00106565 -0.00160002 
v 0.00150063 -0.00142147 0.00160002 
v 0.0019588 -0.000659996 -0.00160002 
v 0.00177112 -0.00106565 0.00160002 
v 0.00205488 -0.000223482 -0.00160002 
v 0.0019588 -0.000659996 0.00160002 
v 0.00205488 0.000223482 -0.00160002 
v 0.002067 2.53134e-19 -0.00160002 
v 0.002067 0 0.00160002 
v 0.00205488 -0.000223482 0.00160002 
v 0.0019588 0.000659996 -0.00160002 
v 0.00205488 0.000223482 0.00160002 
v 0.00177112 0.00106565 -0.00160002 
v 0.0019588 0.000659996 0.00160002 
v 0.00150063 0.00142147 -0.00160002 
v 0.00177112 0.00106565 0.00160002 
v 0.00115997 0.00171083 -0.00160002 
v 0.00150063 0.00142147 0.00160002 
v 0.000765076 0.00192019 -0.00160002 
v 0.00115997 0.00171083 0.00160002 
v 0.000334403 0.00203977 -0.00160002 
v 0.000765076 0.00192019 0.00160002 
v -0.000111905 0.00206397 -0.00160002 
v 0.000334403 0.00203977 0.00160002 
v -0.000552981 0.00199166 -0.00160002 
v -0.000111905 0.00206397 0.00160002 
v -0.0009682 0.00182622 -0.00160002 
v -0.000552981 0.00199166 0.00160002 
v -0.00133815 0.00157539 -0.00160002 
v -0.0009682 0.00182622 0.00160002 
v -0.00164552 0.0012509 -0.00160002 
v -0.00133815 0.00157539 0.00160002 
v -0.00187596 0.000867911 -0.00160002 
v -0.00164552 0.0012509 0.00160002 
v -0.00201867 0.000444344 -0.00160002 
v -0.00187596 0.000867911 0.00160002 
v -0.00201867 0.000444344 0.00160002 
vn 0.976621 0.21497 0 
vn 1 2.44929e-16 0 
vn 1 2.44929e-16 0 
vn 0.907575 0.419889 0 
vn 0.976621 0.21497 0 
vn 0.796093 0.605174 0 
vn 0.907575 0.419889 0 
vn 0.647386 0.762162 0 
vn 0.796093 0.605174 0 
vn 0.468408 0.883512 0 
vn 0.647386 0.762162 0 
vn 0.267528 0.96355 0 
vn 0.468408 0.883512 0 
vn 0.0541389 0.998533 0 
vn 0.267528 0.96355 0 
vn -0.161782 0.986827 0 
vn 0.0541389 0.998533 0 
vn -0.370138 0.928977 0 
vn -0.161782 0.986827 0 
vn -0.561187 0.827689 0 
vn -0.370138 0.928977 0 
vn -0.725995 0.687699 0 
vn -0.561187 0.827689 0 
vn -0.856857 0.515554 0 
vn -0.725995 0.687699 0 
vn -0.947653 0.319302 0 
vn -0.856857 0.515554 0 
vn -0.994138 0.108119 0 
vn -0.947653 0.319302 0 
vn -0.994138 -0.108119 0 
vn -1 -1.22465e-16 0 
vn -1 -1.22465e-16 0 
vn -0.994138 0.108119 0 
vn -0.947653 -0.319302 0 
vn -0.994138 -0.108119 0 
vn -0.856857 -0.515554 0 
vn -0.947653 -0.319302 0 
vn -0.725995 -0.687699 0 
vn -0.856857 -0.515554 0 
vn -0.561187 -0.827689 0 
vn -0.725995 -0.687699 0 
vn -0.370138 -0.928977 0 
vn -0.561187 -0.827689 0 
vn -0.161782 -0.986827 0 
vn -0.370138 -0.928977 0 
vn 0.0541389 -0.998533 0 
vn -0.161782 -0.986827 0 
vn 0.267528 -0.96355 0 
vn 0.0541389 -0.998533 0 
vn 0.468408 -0.883512 0 
vn 0.267528 -0.96355 0 
vn 0.647386 -0.762162 0 
vn 0.468408 -0.883512 0 
vn 0.796093 -0.605174 0 
vn 0.647386 -0.762162 0 
vn 0.907575 -0.419889 0 
vn 0.796093 -0.605174 0 
vn 0.976621 -0.21497 0 
vn 0.907575 -0.419889 0 
vn 0.976621 -0.21497 0 
f 61//61 62//62 63//63 
f 64//64 61//61 65//65 
f 66//66 64//64 67//67 
f 68//68 66//66 69//69 
f 70//70 68//68 71//71 
f 72//72 70//70 73//73 
f 74//74 72//72 75//75 
f 76//76 74//74 77//77 
f 78//78 76//76 79//79 
f 80//80 78//78 81//81 
f 82//82 80//80 83//83 
f 84//84 82//82 85//85 
f 86//86 84//84 87//87 
f 88//88 86//86 89//89 
f 90//90 91//91 92//92 
f 93//93 92//92 91//91 
f 91//91 88//88 93//93 
f 94//94 90//90 95//95 
f 96//96 94//94 97//97 
f 98//98 96//96 99//99 
f 100//100 98//98 101//101 
f 102//102 100//100 103//103 
f 104//104 102//102 105//105 
f 106//106 104//104 107//107 
f 108//108 106//106 109//109 
f 110//110 108//108 111//111 
f 112//112 110//110 113//113 
f 114//114 112//112 115//115 
f 116//116 114//114 117//117 
f 118//118 116//116 119//119 
f 62//62 118//118 120//120 
f 120//120 63//63 62//62 
f 119//119 120//120 118//118 
f 117//117 119//119 116//116 
f 115//115 117//117 114//114 
f 113//113 115//115 112//112 
f 111//111 113//113 110//110 
f 109//109 111//111 108//108 
f 107//107 109//109 106//106 
f 105//105 107//107 104//104 
f 103//103 105//105 102//102 
f 101//101 103//103 100//100 
f 99//99 101//101 98//98 
f 97//97 99//99 96//96 
f 95//95 97//97 94//94 
f 92//92 95//95 90//90 
f 89//89 93//93 88//88 
f 87//87 89//89 86//86 
f 85//85 87//87 84//84 
f 83//83 85//85 82//82 
f 81//81 83//83 80//80 
f 79//79 81//81 78//78 
f 77//77 79//79 76//76 
f 75//75 77//77 74//74 
f 73//73 75//75 72//72 
f 71//71 73//73 70//70 
f 69//69 71//71 68//68 
f 67//67 69//69 66//66 
f 65//65 67//67 64//64 
f 63//63 65//65 61//61 
o mesh3591
v -0.0025 0 -0.00235 
v -0.00244155 0.000537426 -0.00235 
v -0.00201867 0.000444344 -0.00160002 
v -0.00226894 0.00104972 -0.00235 
v -0.00187596 0.000867911 -0.00160002 
v -0.00199023 0.00151294 -0.00235 
v -0.00164552 0.0012509 -0.00160002 
v -0.00161847 0.00190541 -0.00235 
v -0.00133815 0.00157539 -0.00160002 
v -0.00117102 0.00220878 -0.00235 
v -0.0009682 0.00182622 -0.00160002 
v -0.000668821 0.00240887 -0.00235 
v -0.000552981 0.00199166 -0.00160002 
v -0.000135347 0.00249633 -0.00235 
v -0.000111905 0.00206397 -0.00160002 
v 0.000404455 0.00246707 -0.00235 
v 0.000334403 0.00203977 -0.00160002 
v 0.000925345 0.00232244 -0.00235 
v 0.000765076 0.00192019 -0.00160002 
v 0.00140297 0.00206922 -0.00235 
v 0.00115997 0.00171083 -0.00160002 
v 0.00181499 0.00171925 -0.00235 
v 0.00150063 0.00142147 -0.00160002 
v 0.00214214 0.00128888 -0.00235 
v 0.00177112 0.00106565 -0.00160002 
v 0.00236913 0.000798254 -0.00235 
v 0.0019588 0.000659996 -0.00160002 
v 0.00248534 0.000270298 -0.00235 
v 0.00205488 0.000223482 -0.00160002 
v 0.0025 9.18485e-19 -0.00235 
v 0.002067 2.53134e-19 -0.00160002 
v 0.00248534 -0.000270298 -0.00235 
v 0.00205488 -0.000223482 -0.00160002 
v 0.00236913 -0.000798254 -0.00235 
v 0.0019588 -0.000659996 -0.00160002 
v 0.00214214 -0.00128888 -0.00235 
v 0.00177112 -0.00106565 -0.00160002 
v 0.00181499 -0.00171925 -0.00235 
v 0.00150063 -0.00142147 -0.00160002 
v 0.00140297 -0.00206922 -0.00235 
v 0.00115997 -0.00171083 -0.00160002 
v 0.000925345 -0.00232244 -0.00235 
v 0.000765076 -0.00192019 -0.00160002 
v 0.000404455 -0.00246707 -0.00235 
v 0.000334403 -0.00203977 -0.00160002 
v -0.000135347 -0.00249633 -0.00235 
v -0.000111905 -0.00206397 -0.00160002 
v -0.000668821 -0.00240887 -0.00235 
v -0.000552981 -0.00199166 -0.00160002 
v -0.00117102 -0.00220878 -0.00235 
v -0.0009682 -0.00182622 -0.00160002 
v -0.00161847 -0.00190541 -0.00235 
v -0.00133815 -0.00157539 -0.00160002 
v -0.00199023 -0.00151294 -0.00235 
v -0.00164552 -0.0012509 -0.00160002 
v -0.00226894 -0.00104972 -0.00235 
v -0.00187596 -0.000867911 -0.00160002 
v -0.00244155 -0.000537426 -0.00235 
v -0.00201867 -0.000444344 -0.00160002 
v -0.002067 0 -0.00160002 
vn 0.866025 0 -0.5 
vn 0.845778 -0.18617 -0.5 
vn 0.845778 -0.18617 -0.5 
vn 0.785983 -0.363635 -0.5 
vn 0.785983 -0.363635 -0.5 
vn 0.689437 -0.524096 -0.5 
vn 0.689437 -0.524096 -0.5 
vn 0.560653 -0.660052 -0.5 
vn 0.560653 -0.660052 -0.5 
vn 0.405654 -0.765144 -0.5 
vn 0.405654 -0.765144 -0.5 
vn 0.231686 -0.834459 -0.5 
vn 0.231686 -0.834459 -0.5 
vn 0.0468857 -0.864755 -0.5 
vn 0.0468857 -0.864755 -0.5 
vn -0.140107 -0.854617 -0.5 
vn -0.140107 -0.854617 -0.5 
vn -0.320549 -0.804517 -0.5 
vn -0.320549 -0.804517 -0.5 
vn -0.486002 -0.7168 -0.5 
vn -0.486002 -0.7168 -0.5 
vn -0.628731 -0.595565 -0.5 
vn -0.628731 -0.595565 -0.5 
vn -0.74206 -0.446483 -0.5 
vn -0.74206 -0.446483 -0.5 
vn -0.820692 -0.276523 -0.5 
vn -0.820692 -0.276523 -0.5 
vn -0.860949 -0.0936338 -0.5 
vn -0.860949 -0.0936338 -0.5 
vn -0.866025 -3.18173e-16 -0.5 
vn -0.866025 -3.18173e-16 -0.5 
vn -0.860949 0.0936338 -0.5 
vn -0.860949 0.0936338 -0.5 
vn -0.820692 0.276523 -0.5 
vn -0.820692 0.276523 -0.5 
vn -0.74206 0.446483 -0.5 
vn -0.74206 0.446483 -0.5 
vn -0.628731 0.595565 -0.5 
vn -0.628731 0.595565 -0.5 
vn -0.486002 0.7168 -0.5 
vn -0.486002 0.7168 -0.5 
vn -0.320549 0.804517 -0.5 
vn -0.320549 0.804517 -0.5 
vn -0.140107 0.854617 -0.5 
vn -0.140107 0.854617 -0.5 
vn 0.0468857 0.864755 -0.5 
vn 0.0468857 0.864755 -0.5 
vn 0.231686 0.834459 -0.5 
vn 0.231686 0.834459 -0.5 
vn 0.405654 0.765144 -0.5 
vn 0.405654 0.765144 -0.5 
vn 0.560653 0.660052 -0.5 
vn 0.560653 0.660052 -0.5 
vn 0.689437 0.524096 -0.5 
vn 0.689437 0.524096 -0.5 
vn 0.785983 0.363635 -0.5 
vn 0.785983 0.363635 -0.5 
vn 0.845778 0.18617 -0.5 
vn 0.845778 0.18617 -0.5 
vn 0.866025 0 -0.5 
f 121//121 122//122 123//123 
f 122//122 124//124 125//125 
f 124//124 126//126 127//127 
f 126//126 128//128 129//129 
f 128//128 130//130 131//131 
f 130//130 132//132 133//133 
f 132//132 134//134 135//135 
f 134//134 136//136 137//137 
f 136//136 138//138 139//139 
f 138//138 140//140 141//141 
f 140//140 142//142 143//143 
f 142//142 144//144 145//145 
f 144//144 146//146 147//147 
f 146//146 148//148 149//149 
f 148//148 150//150 151//151 
f 152//152 153//153 151//151 
f 151//151 150//150 152//152 
f 152//152 154//154 155//155 
f 154//154 156//156 157//157 
f 156//156 158//158 159//159 
f 158//158 160//160 161//161 
f 160//160 162//162 163//163 
f 162//162 164//164 165//165 
f 164//164 166//166 167//167 
f 166//166 168//168 169//169 
f 168//168 170//170 171//171 
f 170//170 172//172 173//173 
f 172//172 174//174 175//175 
f 174//174 176//176 177//177 
f 176//176 178//178 179//179 
f 178//178 121//121 180//180 
f 180//180 179//179 178//178 
f 179//179 177//177 176//176 
f 177//177 175//175 174//174 
f 175//175 173//173 172//172 
f 173//173 171//171 170//170 
f 171//171 169//169 168//168 
f 169//169 167//167 166//166 
f 167//167 165//165 164//164 
f 165//165 163//163 162//162 
f 163//163 161//161 160//160 
f 161//161 159//159 158//158 
f 159//159 157//157 156//156 
f 157//157 155//155 154//154 
f 155//155 153//153 152//152 
f 151//151 149//149 148//148 
f 149//149 147//147 146//146 
f 147//147 145//145 144//144 
f 145//145 143//143 142//142 
f 143//143 141//141 140//140 
f 141//141 139//139 138//138 
f 139//139 137//137 136//136 
f 137//137 135//135 134//134 
f 135//135 133//133 132//132 
f 133//133 131//131 130//130 
f 131//131 129//129 128//128 
f 129//129 127//127 126//126 
f 127//127 125//125 124//124 
f 125//125 123//123 122//122 
f 123//123 180//180 121//121 
o mesh3592
v 0.00397756 -0.000423113 -0.00235 
v 0.00248534 -0.000270298 -0.00235 
v 0.0025 9.18485e-19 -0.00235 
v 0.00379954 0.0012504 -0.00235 
v 0.00397756 0.000423113 -0.00235 
v 0.00248534 0.000270298 -0.00235 
v -0.00379954 0.0012504 -0.00235 
v -0.0034641 0.002 -0.00235 
v -0.00226894 0.00104972 -0.00235 
v -0.00298265 0.0026653 -0.00235 
v -0.00199023 0.00151294 -0.00235 
v -0.00235521 0.00323311 -0.00235 
v -0.00162235 0.00365622 -0.00235 
v -0.00117102 0.00220878 -0.00235 
v -0.000816891 0.0039157 -0.00235 
v -0.000668821 0.00240887 -0.00235 
v 0.000816891 0.0039157 -0.00235 
v 0.00162235 0.00365622 -0.00235 
v 0.000925345 0.00232244 -0.00235 
v 0.00235521 0.00323311 -0.00235 
v 0.00140297 0.00206922 -0.00235 
v 0.00379954 -0.0012504 -0.00235 
v 0.00236913 -0.000798254 -0.00235 
v -0.00397756 0.000423113 -0.00235 
v -0.00244155 0.000537426 -0.00235 
v -0.00161847 0.00190541 -0.00235 
v 0.00298265 0.0026653 -0.00235 
v 0.00181499 0.00171925 -0.00235 
v 0.0034641 0.002 -0.00235 
v 0.00214214 0.00128888 -0.00235 
v 0.00236913 0.000798254 -0.00235 
v 0.0034641 -0.002 -0.00235 
v 0.00214214 -0.00128888 -0.00235 
v 0 0.004 -0.00235 
v -0.000135347 0.00249633 -0.00235 
v 0.000404455 0.00246707 -0.00235 
v 0.00298265 -0.0026653 -0.00235 
v 0.00181499 -0.00171925 -0.00235 
v -0.00235521 -0.00323311 -0.00235 
v -0.00161847 -0.00190541 -0.00235 
v -0.00117102 -0.00220878 -0.00235 
v -0.00298265 -0.0026653 -0.00235 
v -0.00199023 -0.00151294 -0.00235 
v 0.00235521 -0.00323311 -0.00235 
v 0.00140297 -0.00206922 -0.00235 
v 0.00162235 -0.00365622 -0.00235 
v 0.000925345 -0.00232244 -0.00235 
v 0.000816891 -0.0039157 -0.00235 
v 0.000404455 -0.00246707 -0.00235 
v 0 -0.004 -0.00235 
v -0.000135347 -0.00249633 -0.00235 
v -0.000816891 -0.0039157 -0.00235 
v -0.000668821 -0.00240887 -0.00235 
v -0.00162235 -0.00365622 -0.00235 
v -0.0034641 -0.002 -0.00235 
v -0.00226894 -0.00104972 -0.00235 
v -0.00397756 -0.000423113 -0.00235 
v -0.0025 0 -0.00235 
v -0.00244155 -0.000537426 -0.00235 
v -0.00379954 -0.0012504 -0.00235 
vn 0 0 -1 
vn 0 0 -1 
vn 0 0 -1 
vn 0 0 -1 
vn 0 0 -1 
vn 0 0 -1 
vn 0 0 -1 
vn 0 0 -1 
vn 0 0 -1 
vn 0 0 -1 
vn 0 0 -1 
vn 0 0 -1 
vn 0 0 -1 
vn 0 0 -1 
vn 0 0 -1 
vn 0 0 -1 
vn 0 0 -1 
vn 0 0 -1 
vn 0 0 -1 
vn 0 0 -1 
vn 0 0 -1 
vn 0 0 -1 
vn 0 0 -1 
vn 0 0 -1 
vn 0 0 -1 
vn 0 0 -1 
vn 0 0 -1 
vn 0 0 -1 
vn 0 0 -1 
vn 0 0 -1 
vn 0 0 -1 
vn 0 0 -1 
vn 0 0 -1 
vn 0 0 -1 
vn 0 0 -1 
vn 0 0 -1 
vn 0 0 -1 
vn 0 0 -1 
vn 0 0 -1 
vn 0 0 -1 
vn 0 0 -1 
vn 0 0 -1 
vn 0 0 -1 
vn 0 0 -1 
vn 0 0 -1 
vn 0 0 -1 
vn 0 0 -1 
vn 0 0 -1 
vn 0 0 -1 
vn 0 0 -1 
vn 0 0 -1 
vn 0 0 -1 
vn 0 0 -1 
vn 0 0 -1 
vn 0 0 -1 
vn 0 0 -1 
vn 0 0 -1 
vn 0 0 -1 
vn 0 0 -1 
vn 0 0 -1 
f 181//181 182//182 183//183 
f 184//184 185//185 186//186 
f 183//183 185//185 181//181 
f 187//187 188//188 189//189 
f 188//188 190//190 191//191 
f 192//192 193//193 194//194 
f 193//193 195//195 196//196 
f 197//197 198//198 199//199 
f 198//198 200//200 201//201 
f 183//183 186//186 185//185 
f 202//202 203//203 182//182 
f 204//204 187//187 205//205 
f 191//191 189//189 188//188 
f 190//190 192//192 206//206 
f 196//196 194//194 193//193 
f 201//201 199//199 198//198 
f 200//200 207//207 208//208 
f 207//207 209//209 210//210 
f 209//209 184//184 211//211 
f 182//182 181//181 202//202 
f 212//212 213//213 203//203 
f 189//189 205//205 187//187 
f 194//194 206//206 192//192 
f 195//195 214//214 215//215 
f 214//214 197//197 216//216 
f 208//208 201//201 200//200 
f 211//211 210//210 209//209 
f 203//203 202//202 212//212 
f 217//217 218//218 213//213 
f 219//219 220//220 221//221 
f 222//222 223//223 220//220 
f 206//206 191//191 190//190 
f 216//216 215//215 214//214 
f 210//210 208//208 207//207 
f 213//213 212//212 217//217 
f 224//224 225//225 218//218 
f 226//226 227//227 225//225 
f 228//228 229//229 227//227 
f 230//230 231//231 229//229 
f 232//232 233//233 231//231 
f 234//234 221//221 233//233 
f 220//220 219//219 222//222 
f 235//235 236//236 223//223 
f 237//237 238//238 239//239 
f 215//215 196//196 195//195 
f 186//186 211//211 184//184 
f 225//225 224//224 226//226 
f 229//229 228//228 230//230 
f 233//233 232//232 234//234 
f 223//223 222//222 235//235 
f 240//240 239//239 236//236 
f 239//239 240//240 237//237 
f 199//199 216//216 197//197 
f 227//227 226//226 228//228 
f 221//221 234//234 219//219 
f 237//237 204//204 238//238 
f 218//218 217//217 224//224 
f 236//236 235//235 240//240 
f 231//231 230//230 232//232 
f 205//205 238//238 204//204 
o mesh3593
v -0.00235521 -0.00323311 -0.00235 
v -0.0025631 -0.00356058 -0.00209854 
v -0.00304686 -0.00272268 -0.00230028 
v -0.00162235 -0.00365622 -0.00235 
v -0.000816891 -0.0039157 -0.00235 
v -0.000834478 -0.004 -0.00230028 
v -0.001802 -0.004 -0.00209854 
v -0.0023094 -0.004 -0.00199273 
v 0 -0.004 -0.00235 
v -0.0034641 -0.002 -0.00235 
v -0.00298265 -0.0026653 -0.00235 
vn -0.294401 -0.404139 -0.866025 
vn -0.292114 -0.405795 -0.866025 
vn -0.372831 -0.333162 -0.866025 
vn -0.202794 -0.457028 -0.866025 
vn -0.102111 -0.489462 -0.866025 
vn -0.102111 -0.489462 -0.866025 
vn -0.205372 -0.455875 -0.866025 
vn -0.25 -0.433013 -0.866025 
vn -9.18485e-17 -0.5 -0.866025 
vn -0.433013 -0.25 -0.866025 
vn -0.372831 -0.333162 -0.866025 
f 241//241 242//242 243//243 
f 244//244 245//245 246//246 
f 242//242 244//244 247//247 
f 247//247 248//248 242//242 
f 242//242 241//241 244//244 
f 246//246 247//247 244//244 
f 246//246 245//245 249//249 
f 250//250 251//251 243//243 
f 243//243 251//251 241//241 
o mesh3594
v 0.00235521 -0.00323311 -0.00235 
v 0.00298265 -0.0026653 -0.00235 
v 0.00304686 -0.00272268 -0.00230028 
v 0.001802 -0.004 -0.00209854 
v 0.0025631 -0.00356058 -0.00209854 
v 0.0023094 -0.004 -0.00199273 
v 0.00162235 -0.00365622 -0.00235 
v 0.000834478 -0.004 -0.00230028 
v 0 -0.004 -0.00235 
v 0.000816891 -0.0039157 -0.00235 
v 0.0034641 -0.002 -0.00235 
vn 0.294401 -0.404139 -0.866025 
vn 0.372831 -0.333162 -0.866025 
vn 0.372831 -0.333162 -0.866025 
vn 0.205372 -0.455875 -0.866025 
vn 0.292114 -0.405795 -0.866025 
vn 0.25 -0.433013 -0.866025 
vn 0.202794 -0.457028 -0.866025 
vn 0.102111 -0.489462 -0.866025 
vn -9.18485e-17 -0.5 -0.866025 
vn 0.102111 -0.489462 -0.866025 
vn 0.433013 -0.25 -0.866025 
f 252//252 253//253 254//254 
f 255//255 252//252 256//256 
f 256//256 257//257 255//255 
f 258//258 255//255 259//259 
f 260//260 261//261 259//259 
f 259//259 261//261 258//258 
f 255//255 258//258 252//252 
f 254//254 256//256 252//252 
f 254//254 253//253 262//262 
o mesh3595
v 0.00397756 0.000423113 -0.00235 
v 0.00379954 0.0012504 -0.00235 
v 0.00388134 0.00127732 -0.00230028 
v 0.0043651 0.000439422 -0.00209854 
v 0.0046188 4.33681e-18 -0.00199273 
v 0.0043651 -0.000439422 -0.00209854 
v 0.00397756 -0.000423113 -0.00235 
v 0.00388134 -0.00127732 -0.00230028 
v 0.0034641 -0.002 -0.00235 
v 0.00379954 -0.0012504 -0.00235 
v 0.0034641 0.002 -0.00235 
vn 0.497195 0.0528891 -0.866025 
vn 0.474942 0.1563 -0.866025 
vn 0.474942 0.1563 -0.866025 
vn 0.497486 0.0500804 -0.866025 
vn 0.5 1.22236e-14 -0.866025 
vn 0.497486 -0.0500804 -0.866025 
vn 0.497195 -0.0528891 -0.866025 
vn 0.474942 -0.1563 -0.866025 
vn 0.433013 -0.25 -0.866025 
vn 0.474942 -0.1563 -0.866025 
vn 0.433013 0.25 -0.866025 
f 263//263 264//264 265//265 
f 266//266 267//267 268//268 
f 269//269 263//263 266//266 
f 269//269 268//268 270//270 
f 271//271 272//272 270//270 
f 270//270 272//272 269//269 
f 268//268 269//269 266//266 
f 265//265 266//266 263//263 
f 265//265 264//264 273//273 
o mesh3596
v 0.00162235 0.00365622 -0.00235 
v 0.000816891 0.0039157 -0.00235 
v 0.000834478 0.004 -0.00230028 
v 0.001802 0.004 -0.00209854 
v 0.0023094 0.004 -0.00199273 
v 0.0025631 0.00356058 -0.00209854 
v 0.00235521 0.00323311 -0.00235 
v 0.00304686 0.00272268 -0.00230028 
v 0.0034641 0.002 -0.00235 
v 0.00298265 0.0026653 -0.00235 
v 0 0.004 -0.00235 
vn 0.202794 0.457028 -0.866025 
vn 0.102111 0.489462 -0.866025 
vn 0.102111 0.489462 -0.866025 
vn 0.205372 0.455875 -0.866025 
vn 0.25 0.433013 -0.866025 
vn 0.292114 0.405795 -0.866025 
vn 0.294401 0.404139 -0.866025 
vn 0.372831 0.333162 -0.866025 
vn 0.433013 0.25 -0.866025 
vn 0.372831 0.333162 -0.866025 
vn 3.06162e-17 0.5 -0.866025 
f 274//274 275//275 276//276 
f 277//277 278//278 279//279 
f 280//280 274//274 277//277 
f 280//280 279//279 281//281 
f 282//282 283//283 281//281 
f 281//281 283//283 280//280 
f 279//279 280//280 277//277 
f 276//276 277//277 274//274 
f 276//276 275//275 284//284 
o mesh3597
v -0.00235521 0.00323311 -0.00235 
v -0.00298265 0.0026653 -0.00235 
v -0.00304686 0.00272268 -0.00230028 
v -0.0025631 0.00356058 -0.00209854 
v -0.0023094 0.004 -0.00199273 
v -0.001802 0.004 -0.00209854 
v -0.00162235 0.00365622 -0.00235 
v -0.000834478 0.004 -0.00230028 
v 0 0.004 -0.00235 
v -0.000816891 0.0039157 -0.00235 
v -0.0034641 0.002 -0.00235 
vn -0.294401 0.404139 -0.866025 
vn -0.372831 0.333162 -0.866025 
vn -0.372831 0.333162 -0.866025 
vn -0.292114 0.405795 -0.866025 
vn -0.25 0.433013 -0.866025 
vn -0.205372 0.455875 -0.866025 
vn -0.202794 0.457028 -0.866025 
vn -0.102111 0.489462 -0.866025 
vn 3.06162e-17 0.5 -0.866025 
vn -0.102111 0.489462 -0.866025 
vn -0.433013 0.25 -0.866025 
f 285//285 286//286 287//287 
f 288//288 289//289 290//290 
f 291//291 285//285 288//288 
f 291//291 290//290 292//292 
f 293//293 294//294 292//292 
f 292//292 294//294 291//291 
f 290//290 291//291 288//288 
f 287//287 288//288 285//285 
f 287//287 286//286 295//295 
o mesh3598
v -0.00397756 -0.000423113 -0.00235 
v -0.00379954 -0.0012504 -0.00235 
v -0.00388134 -0.00127732 -0.00230028 
v -0.0043651 -0.000439422 -0.00209854 
v -0.0046188 -3.03577e-18 -0.00199273 
v -0.0043651 0.000439422 -0.00209854 
v -0.00397756 0.000423113 -0.00235 
v -0.00388134 0.00127732 -0.00230028 
v -0.0034641 0.002 -0.00235 
v -0.00379954 0.0012504 -0.00235 
v -0.0034641 -0.002 -0.00235 
vn -0.497195 -0.0528891 -0.866025 
vn -0.474942 -0.1563 -0.866025 
vn -0.474942 -0.1563 -0.866025 
vn -0.497486 -0.0500804 -0.866025 
vn -0.5 -1.21512e-14 -0.866025 
vn -0.497486 0.0500804 -0.866025 
vn -0.497195 0.0528891 -0.866025 
vn -0.474942 0.1563 -0.866025 
vn -0.433013 0.25 -0.866025 
vn -0.474942 0.1563 -0.866025 
vn -0.433013 -0.25 -0.866025 
f 296//296 297//297 298//298 
f 299//299 300//300 301//301 
f 302//302 296//296 299//299 
f 302//302 301//301 303//303 
f 304//304 305//305 303//303 
f 303//303 305//305 302//302 
f 301//301 302//302 299//299 
f 298//298 299//299 296//296 
f 298//298 297//297 306//306 
o mesh3599
v -0.00304686 -0.00272268 0.00230028 
v -0.0034641 -0.002 -0.00235 
v -0.00304686 -0.00272268 -0.00230028 
v -0.00388134 -0.00127732 0.00230028 
v -0.0043651 -0.000439422 0.00209854 
v -0.00388134 -0.00127732 -0.00230028 
v -0.0046188 -4.33681e-18 0.00199273 
v -0.0046188 -3.03577e-18 -0.00199273 
v -0.0025631 -0.00356058 0.00209854 
v -0.0034641 -0.002 0.00235 
v -0.0043651 -0.000439422 -0.00209854 
v -0.0025631 -0.00356058 -0.00209854 
v -0.0023094 -0.004 -0.00199273 
v -0.0023094 -0.004 0.00199273 
vn -0.866025 -0.5 0 
vn -0.866025 -0.5 0 
vn -0.866025 -0.5 0 
vn -0.866025 -0.5 0 
vn -0.866025 -0.5 0 
vn -0.866025 -0.5 0 
vn -0.866025 -0.5 0 
vn -0.866025 -0.5 0 
vn -0.866025 -0.5 0 
vn -0.866025 -0.5 0 
vn -0.866025 -0.5 0 
vn -0.866025 -0.5 0 
vn -0.866025 -0.5 0 
vn -0.866025 -0.5 0 
f 307//307 308//308 309//309 
f 310//310 311//311 312//312 
f 311//311 313//313 314//314 
f 309//309 315//315 307//307 
f 308//308 316//316 310//310 
f 314//314 317//317 311//311 
f 312//312 308//308 310//310 
f 315//315 318//318 319//319 
f 307//307 316//316 308//308 
f 315//315 309//309 318//318 
f 319//319 320//320 315//315 
f 317//317 312//312 311//311 
o mesh3600
v -0.00397756 -0.000423113 0.00235 
v -0.0043651 -0.000439422 0.00209854 
v -0.00388134 -0.00127732 0.00230028 
v -0.00397756 0.000423113 0.00235 
v -0.00379954 0.0012504 0.00235 
v -0.00388134 0.00127732 0.00230028 
v -0.0043651 0.000439422 0.00209854 
v -0.0046188 -4.33681e-18 0.00199273 
v -0.0034641 0.002 0.00235 
v -0.0034641 -0.002 0.00235 
v -0.00379954 -0.0012504 0.00235 
vn -0.497195 -0.0528891 0.866025 
vn -0.497486 -0.0500804 0.866025 
vn -0.474942 -0.1563 0.866025 
vn -0.497195 0.0528891 0.866025 
vn -0.474942 0.1563 0.866025 
vn -0.474942 0.1563 0.866025 
vn -0.497486 0.0500804 0.866025 
vn -0.5 -1.2557e-14 0.866025 
vn -0.433013 0.25 0.866025 
vn -0.433013 -0.25 0.866025 
vn -0.474942 -0.1563 0.866025 
f 321//321 322//322 323//323 
f 324//324 325//325 326//326 
f 322//322 324//324 327//327 
f 327//327 328//328 322//322 
f 322//322 321//321 324//324 
f 326//326 327//327 324//324 
f 326//326 325//325 329//329 
f 330//330 331//331 323//323 
f 323//323 331//331 321//321 
o mesh3601
v -0.00235521 -0.00323311 0.00235 
v -0.00298265 -0.0026653 0.00235 
v -0.00304686 -0.00272268 0.00230028 
v -0.001802 -0.004 0.00209854 
v -0.0025631 -0.00356058 0.00209854 
v -0.0023094 -0.004 0.00199273 
v -0.00162235 -0.00365622 0.00235 
v -0.000834478 -0.004 0.00230028 
v 0 -0.004 0.00235 
v -0.000816891 -0.0039157 0.00235 
v -0.0034641 -0.002 0.00235 
vn -0.294401 -0.404139 0.866025 
vn -0.372831 -0.333162 0.866025 
vn -0.372831 -0.333162 0.866025 
vn -0.205372 -0.455875 0.866025 
vn -0.292114 -0.405795 0.866025 
vn -0.25 -0.433013 0.866025 
vn -0.202794 -0.457028 0.866025 
vn -0.102111 -0.489462 0.866025 
vn 9.18485e-17 -0.5 0.866025 
vn -0.102111 -0.489462 0.866025 
vn -0.433013 -0.25 0.866025 
f 332//332 333//333 334//334 
f 335//335 332//332 336//336 
f 336//336 337//337 335//335 
f 338//338 335//335 339//339 
f 340//340 341//341 339//339 
f 339//339 341//341 338//338 
f 335//335 338//338 332//332 
f 334//334 336//336 332//332 
f 334//334 333//333 342//342 
o mesh3602
v -0.00304686 0.00272268 -0.00230028 
v -0.0034641 0.002 0.00235 
v -0.00304686 0.00272268 0.00230028 
v -0.00388134 0.00127732 0.00230028 
v -0.0034641 0.002 -0.00235 
v -0.00388134 0.00127732 -0.00230028 
v -0.0025631 0.00356058 -0.00209854 
v -0.0043651 0.000439422 0.00209854 
v -0.0025631 0.00356058 0.00209854 
v -0.0023094 0.004 0.00199273 
v -0.0043651 0.000439422 -0.00209854 
v -0.0046188 -3.03577e-18 -0.00199273 
v -0.0023094 0.004 -0.00199273 
v -0.0046188 -4.33681e-18 0.00199273 
vn -0.866025 0.5 0 
vn -0.866025 0.5 0 
vn -0.866025 0.5 0 
vn -0.866025 0.5 0 
vn -0.866025 0.5 0 
vn -0.866025 0.5 0 
vn -0.866025 0.5 0 
vn -0.866025 0.5 0 
vn -0.866025 0.5 0 
vn -0.866025 0.5 0 
vn -0.866025 0.5 0 
vn -0.866025 0.5 0 
vn -0.866025 0.5 0 
vn -0.866025 0.5 0 
f 343//343 344//344 345//345 
f 346//346 347//347 348//348 
f 345//345 349//349 343//343 
f 348//348 350//350 346//346 
f 349//349 351//351 352//352 
f 346//346 344//344 347//347 
f 349//349 345//345 351//351 
f 350//350 353//353 354//354 
f 352//352 355//355 349//349 
f 350//350 348//348 353//353 
f 354//354 356//356 350//350 
f 343//343 347//347 344//344 
o mesh3603
v -0.00235521 0.00323311 0.00235 
v -0.0025631 0.00356058 0.00209854 
v -0.00304686 0.00272268 0.00230028 
v -0.00162235 0.00365622 0.00235 
v -0.000816891 0.0039157 0.00235 
v -0.000834478 0.004 0.00230028 
v -0.001802 0.004 0.00209854 
v -0.0023094 0.004 0.00199273 
v 0 0.004 0.00235 
v -0.0034641 0.002 0.00235 
v -0.00298265 0.0026653 0.00235 
vn -0.294401 0.404139 0.866025 
vn -0.292114 0.405795 0.866025 
vn -0.372831 0.333162 0.866025 
vn -0.202794 0.457028 0.866025 
vn -0.102111 0.489462 0.866025 
vn -0.102111 0.489462 0.866025 
vn -0.205372 0.455875 0.866025 
vn -0.25 0.433013 0.866025 
vn -3.06162e-17 0.5 0.866025 
vn -0.433013 0.25 0.866025 
vn -0.372831 0.333162 0.866025 
f 357//357 358//358 359//359 
f 360//360 361//361 362//362 
f 358//358 360//360 363//363 
f 363//363 364//364 358//358 
f 358//358 357//357 360//360 
f 362//362 363//363 360//360 
f 362//362 361//361 365//365 
f 366//366 367//367 359//359 
f 359//359 367//367 357//357 
o mesh3604
v 0.000834478 0.004 -0.00230028 
v 0 0.004 0.00235 
v 0.000834478 0.004 0.00230028 
v -0.000834478 0.004 0.00230028 
v 0 0.004 -0.00235 
v -0.000834478 0.004 -0.00230028 
v 0.001802 0.004 -0.00209854 
v -0.001802 0.004 0.00209854 
v -0.001802 0.004 -0.00209854 
v -0.0023094 0.004 -0.00199273 
v 0.001802 0.004 0.00209854 
v 0.0023094 0.004 0.00199273 
v -0.0023094 0.004 0.00199273 
v 0.0023094 0.004 -0.00199273 
vn 0 1 0 
vn 0 1 0 
vn 0 1 0 
vn 0 1 0 
vn 0 1 0 
vn 0 1 0 
vn 0 1 0 
vn 0 1 0 
vn 0 1 0 
vn 0 1 0 
vn 0 1 0 
vn 0 1 0 
vn 0 1 0 
vn 0 1 0 
f 368//368 369//369 370//370 
f 371//371 372//372 373//373 
f 370//370 374//374 368//368 
f 373//373 375//375 371//371 
f 375//375 376//376 377//377 
f 371//371 369//369 372//372 
f 375//375 373//373 376//376 
f 374//374 378//378 379//379 
f 377//377 380//380 375//375 
f 374//374 370//370 378//378 
f 379//379 381//381 374//374 
f 368//368 372//372 369//369 
o mesh3605
v 0.00162235 0.00365622 0.00235 
v 0.001802 0.004 0.00209854 
v 0.000834478 0.004 0.00230028 
v 0.00235521 0.00323311 0.00235 
v 0.00298265 0.0026653 0.00235 
v 0.00304686 0.00272268 0.00230028 
v 0.0025631 0.00356058 0.00209854 
v 0.0023094 0.004 0.00199273 
v 0.0034641 0.002 0.00235 
v 0 0.004 0.00235 
v 0.000816891 0.0039157 0.00235 
vn 0.202794 0.457028 0.866025 
vn 0.205372 0.455875 0.866025 
vn 0.102111 0.489462 0.866025 
vn 0.294401 0.404139 0.866025 
vn 0.372831 0.333162 0.866025 
vn 0.372831 0.333162 0.866025 
vn 0.292114 0.405795 0.866025 
vn 0.25 0.433013 0.866025 
vn 0.433013 0.25 0.866025 
vn -3.06162e-17 0.5 0.866025 
vn 0.102111 0.489462 0.866025 
f 382//382 383//383 384//384 
f 385//385 386//386 387//387 
f 383//383 385//385 388//388 
f 388//388 389//389 383//383 
f 383//383 382//382 385//385 
f 387//387 388//388 385//385 
f 387//387 386//386 390//390 
f 391//391 392//392 384//384 
f 384//384 392//392 382//382 
o mesh3606
v 0.00304686 0.00272268 0.00230028 
v 0.0034641 0.002 -0.00235 
v 0.00304686 0.00272268 -0.00230028 
v 0.00388134 0.00127732 -0.00230028 
v 0.0034641 0.002 0.00235 
v 0.00388134 0.00127732 0.00230028 
v 0.0025631 0.00356058 0.00209854 
v 0.0043651 0.000439422 -0.00209854 
v 0.0043651 0.000439422 0.00209854 
v 0.0046188 -6.50521e-18 0.00199273 
v 0.0025631 0.00356058 -0.00209854 
v 0.0023094 0.004 -0.00199273 
v 0.0046188 4.33681e-18 -0.00199273 
v 0.0023094 0.004 0.00199273 
vn 0.866025 0.5 0 
vn 0.866025 0.5 0 
vn 0.866025 0.5 0 
vn 0.866025 0.5 0 
vn 0.866025 0.5 0 
vn 0.866025 0.5 0 
vn 0.866025 0.5 0 
vn 0.866025 0.5 0 
vn 0.866025 0.5 0 
vn 0.866025 0.5 0 
vn 0.866025 0.5 0 
vn 0.866025 0.5 0 
vn 0.866025 0.5 0 
vn 0.866025 0.5 0 
f 393//393 394//394 395//395 
f 396//396 397//397 398//398 
f 395//395 399//399 393//393 
f 398//398 400//400 396//396 
f 400//400 401//401 402//402 
f 396//396 394//394 397//397 
f 400//400 398//398 401//401 
f 399//399 403//403 404//404 
f 402//402 405//405 400//400 
f 399//399 395//395 403//403 
f 404//404 406//406 399//399 
f 393//393 397//397 394//394 
o mesh3607
v 0.00397756 -0.000423113 0.00235 
v 0.00379954 -0.0012504 0.00235 
v 0.00388134 -0.00127732 0.00230028 
v 0.0043651 -0.000439422 0.00209854 
v 0.0046188 -6.50521e-18 0.00199273 
v 0.0043651 0.000439422 0.00209854 
v 0.00397756 0.000423113 0.00235 
v 0.00388134 0.00127732 0.00230028 
v 0.0034641 0.002 0.00235 
v 0.00379954 0.0012504 0.00235 
v 0.0034641 -0.002 0.00235 
vn 0.497195 -0.0528891 0.866025 
vn 0.474942 -0.1563 0.866025 
vn 0.474942 -0.1563 0.866025 
vn 0.497486 -0.0500804 0.866025 
vn 0.5 -6.04901e-16 0.866025 
vn 0.497486 0.0500804 0.866025 
vn 0.497195 0.0528891 0.866025 
vn 0.474942 0.1563 0.866025 
vn 0.433013 0.25 0.866025 
vn 0.474942 0.1563 0.866025 
vn 0.433013 -0.25 0.866025 
f 407//407 408//408 409//409 
f 410//410 411//411 412//412 
f 413//413 407//407 410//410 
f 413//413 412//412 414//414 
f 415//415 416//416 414//414 
f 414//414 416//416 413//413 
f 412//412 413//413 410//410 
f 409//409 410//410 407//407 
f 409//409 408//408 417//417 
o mesh3608
v -0.00397756 -0.000423113 0.00235 
v -0.00379954 -0.0012504 0.00235 
v -0.00244155 -0.000537426 0.00235 
v -0.0025 3.06162e-19 0.00235 
v -0.00397756 0.000423113 0.00235 
v -0.0034641 -0.002 0.00235 
v -0.00226894 -0.00104972 0.00235 
v -0.00244155 0.000537426 0.00235 
v 0.00235521 0.00323311 0.00235 
v 0.00140297 0.00206922 0.00235 
v 0.00181499 0.00171925 0.00235 
v 0.00162235 0.00365622 0.00235 
v 0.000925345 0.00232244 0.00235 
v -0.00298265 -0.0026653 0.00235 
v -0.00199023 -0.00151294 0.00235 
v 0 -0.004 0.00235 
v 0.000816891 -0.0039157 0.00235 
v 0.000404455 -0.00246707 0.00235 
v 0.00162235 -0.00365622 0.00235 
v 0.000925345 -0.00232244 0.00235 
v 0.00298265 0.0026653 0.00235 
v 0.00214214 0.00128888 0.00235 
v -0.00235521 -0.00323311 0.00235 
v -0.00161847 -0.00190541 0.00235 
v -0.00162235 -0.00365622 0.00235 
v -0.00117102 -0.00220878 0.00235 
v -0.000816891 -0.0039157 0.00235 
v -0.000668821 -0.00240887 0.00235 
v 0.00235521 -0.00323311 0.00235 
v 0.00140297 -0.00206922 0.00235 
v 0.00397756 0.000423113 0.00235 
v 0.00248534 0.000270298 0.00235 
v 0.0025 -6.12323e-19 0.00235 
v 0.00379954 0.0012504 0.00235 
v 0.00236913 0.000798254 0.00235 
v 0.000816891 0.0039157 0.00235 
v 0.000404455 0.00246707 0.00235 
v 0 0.004 0.00235 
v -0.000135347 0.00249633 0.00235 
v -0.000816891 0.0039157 0.00235 
v -0.000668821 0.00240887 0.00235 
v -0.00162235 0.00365622 0.00235 
v -0.00117102 0.00220878 0.00235 
v -0.00235521 0.00323311 0.00235 
v -0.00161847 0.00190541 0.00235 
v -0.000135347 -0.00249633 0.00235 
v 0.00298265 -0.0026653 0.00235 
v 0.00181499 -0.00171925 0.00235 
v 0.0034641 -0.002 0.00235 
v 0.00214214 -0.00128888 0.00235 
v 0.0034641 0.002 0.00235 
v -0.00298265 0.0026653 0.00235 
v -0.00199023 0.00151294 0.00235 
v -0.0034641 0.002 0.00235 
v -0.00226894 0.00104972 0.00235 
v -0.00379954 0.0012504 0.00235 
v 0.00379954 -0.0012504 0.00235 
v 0.00236913 -0.000798254 0.00235 
v 0.00397756 -0.000423113 0.00235 
v 0.00248534 -0.000270298 0.00235 
vn 0 0 1 
vn 0 0 1 
vn 0 0 1 
vn 0 0 1 
vn 0 0 1 
vn 0 0 1 
vn 0 0 1 
vn 0 0 1 
vn 0 0 1 
vn 0 0 1 
vn 0 0 1 
vn 0 0 1 
vn 0 0 1 
vn 0 0 1 
vn 0 0 1 
vn 0 0 1 
vn 0 0 1 
vn 0 0 1 
vn 0 0 1 
vn 0 0 1 
vn 0 0 1 
vn 0 0 1 
vn 0 0 1 
vn 0 0 1 
vn 0 0 1 
vn 0 0 1 
vn 0 0 1 
vn 0 0 1 
vn 0 0 1 
vn 0 0 1 
vn 0 0 1 
vn 0 0 1 
vn 0 0 1 
vn 0 0 1 
vn 0 0 1 
vn 0 0 1 
vn 0 0 1 
vn 0 0 1 
vn 0 0 1 
vn 0 0 1 
vn 0 0 1 
vn 0 0 1 
vn 0 0 1 
vn 0 0 1 
vn 0 0 1 
vn 0 0 1 
vn 0 0 1 
vn 0 0 1 
vn 0 0 1 
vn 0 0 1 
vn 0 0 1 
vn 0 0 1 
vn 0 0 1 
vn 0 0 1 
vn 0 0 1 
vn 0 0 1 
vn 0 0 1 
vn 0 0 1 
vn 0 0 1 
vn 0 0 1 
f 418//418 419//419 420//420 
f 421//421 422//422 418//418 
f 419//419 423//423 424//424 
f 422//422 421//421 425//425 
f 424//424 420//420 419//419 
f 426//426 427//427 428//428 
f 429//429 430//430 427//427 
f 420//420 421//421 418//418 
f 423//423 431//431 432//432 
f 433//433 434//434 435//435 
f 434//434 436//436 437//437 
f 438//438 428//428 439//439 
f 427//427 426//426 429//429 
f 432//432 424//424 423//423 
f 431//431 440//440 441//441 
f 440//440 442//442 443//443 
f 442//442 444//444 445//445 
f 437//437 435//435 434//434 
f 436//436 446//446 447//447 
f 448//448 449//449 450//450 
f 451//451 452//452 449//449 
f 428//428 438//438 426//426 
f 453//453 454//454 430//430 
f 455//455 456//456 454//454 
f 457//457 458//458 456//456 
f 459//459 460//460 458//458 
f 461//461 462//462 460//460 
f 441//441 432//432 431//431 
f 445//445 443//443 442//442 
f 444//444 433//433 463//463 
f 447//447 437//437 436//436 
f 446//446 464//464 465//465 
f 464//464 466//466 467//467 
f 449//449 448//448 451//451 
f 468//468 439//439 452//452 
f 430//430 429//429 453//453 
f 456//456 455//455 457//457 
f 460//460 459//459 461//461 
f 469//469 470//470 462//462 
f 471//471 472//472 470//470 
f 473//473 425//425 472//472 
f 443//443 441//441 440//440 
f 435//435 463//463 433//433 
f 467//467 465//465 464//464 
f 466//466 474//474 475//475 
f 452//452 451//451 468//468 
f 454//454 453//453 455//455 
f 462//462 461//461 469//469 
f 472//472 471//471 473//473 
f 463//463 445//445 444//444 
f 475//475 467//467 466//466 
f 474//474 476//476 477//477 
f 439//439 468//468 438//438 
f 470//470 469//469 471//471 
f 465//465 447//447 446//446 
f 476//476 450//450 477//477 
f 458//458 457//457 459//459 
f 477//477 475//475 474//474 
f 425//425 473//473 422//422 
f 450//450 476//476 448//448 
o mesh3609
v 0.00304686 -0.00272268 -0.00230028 
v 0.0034641 -0.002 0.00235 
v 0.00304686 -0.00272268 0.00230028 
v 0.00388134 -0.00127732 0.00230028 
v 0.0034641 -0.002 -0.00235 
v 0.00388134 -0.00127732 -0.00230028 
v 0.0025631 -0.00356058 -0.00209854 
v 0.0043651 -0.000439422 0.00209854 
v 0.0025631 -0.00356058 0.00209854 
v 0.0023094 -0.004 0.00199273 
v 0.0043651 -0.000439422 -0.00209854 
v 0.0046188 4.33681e-18 -0.00199273 
v 0.0023094 -0.004 -0.00199273 
v 0.0046188 -6.50521e-18 0.00199273 
vn 0.866025 -0.5 0 
vn 0.866025 -0.5 0 
vn 0.866025 -0.5 0 
vn 0.866025 -0.5 0 
vn 0.866025 -0.5 0 
vn 0.866025 -0.5 0 
vn 0.866025 -0.5 0 
vn 0.866025 -0.5 0 
vn 0.866025 -0.5 0 
vn 0.866025 -0.5 0 
vn 0.866025 -0.5 0 
vn 0.866025 -0.5 0 
vn 0.866025 -0.5 0 
vn 0.866025 -0.5 0 
f 478//478 479//479 480//480 
f 481//481 482//482 483//483 
f 480//480 484//484 478//478 
f 483//483 485//485 481//481 
f 484//484 486//486 487//487 
f 481//481 479//479 482//482 
f 484//484 480//480 486//486 
f 485//485 488//488 489//489 
f 487//487 490//490 484//484 
f 485//485 483//483 488//488 
f 489//489 491//491 485//485 
f 478//478 482//482 479//479 
o mesh3610
v 0.000834478 -0.004 -0.00230028 
v 0.001802 -0.004 -0.00209854 
v 0.000834478 -0.004 0.00230028 
v -0.000834478 -0.004 -0.00230028 
v 0 -0.004 0.00235 
v -0.000834478 -0.004 0.00230028 
v 0.0023094 -0.004 -0.00199273 
v 0.0023094 -0.004 0.00199273 
v 0 -0.004 -0.00235 
v -0.001802 -0.004 -0.00209854 
v 0.001802 -0.004 0.00209854 
v -0.001802 -0.004 0.00209854 
v -0.0023094 -0.004 0.00199273 
v -0.0023094 -0.004 -0.00199273 
vn 0 -1 0 
vn 0 -1 0 
vn 0 -1 0 
vn 0 -1 0 
vn 0 -1 0 
vn 0 -1 0 
vn 0 -1 0 
vn 0 -1 0 
vn 0 -1 0 
vn 0 -1 0 
vn 0 -1 0 
vn 0 -1 0 
vn 0 -1 0 
vn 0 -1 0 
f 492//492 493//493 494//494 
f 495//495 496//496 497//497 
f 493//493 498//498 499//499 
f 496//496 500//500 492//492 
f 497//497 501//501 495//495 
f 499//499 502//502 493//493 
f 495//495 500//500 496//496 
f 501//501 503//503 504//504 
f 494//494 496//496 492//492 
f 501//501 497//497 503//503 
f 504//504 505//505 501//501 
f 502//502 494//494 493//493 
o mesh3611
v 0.00162235 -0.00365622 0.00235 
v 0.000816891 -0.0039157 0.00235 
v 0.000834478 -0.004 0.00230028 
v 0.001802 -0.004 0.00209854 
v 0.0023094 -0.004 0.00199273 
v 0.0025631 -0.00356058 0.00209854 
v 0.00235521 -0.00323311 0.00235 
v 0.00304686 -0.00272268 0.00230028 
v 0.0034641 -0.002 0.00235 
v 0.00298265 -0.0026653 0.00235 
v 0 -0.004 0.00235 
vn 0.202794 -0.457028 0.866025 
vn 0.102111 -0.489462 0.866025 
vn 0.102111 -0.489462 0.866025 
vn 0.205372 -0.455875 0.866025 
vn 0.25 -0.433013 0.866025 
vn 0.292114 -0.405795 0.866025 
vn 0.294401 -0.404139 0.866025 
vn 0.372831 -0.333162 0.866025 
vn 0.433013 -0.25 0.866025 
vn 0.372831 -0.333162 0.866025 
vn 9.18485e-17 -0.5 0.866025 
f 506//506 507//507 508//508 
f 509//509 510//510 511//511 
f 512//512 506//506 509//509 
f 512//512 511//511 513//513 
f 514//514 515//515 513//513 
f 513//513 515//515 512//512 
f 511//511 512//512 509//509 
f 508//508 509//509 506//506 
f 508//508 507//507 516//516 
