# OBJ generated by ONSHAPE BY PTC INC, 1.221 Units = meters
mtllib Part_1_4.mtl
g Part 1
usemtl 0.615686_0.811765_0.929412_0.000000_0.000000
o mesh300
v -0.0368593 0.0267395 0.00672824 
v -0.0364616 0.0285463 0.00672824 
v -0.0360825 0.0284186 0.00672824 
v -0.0357397 0.0282123 0.00672824 
v -0.0354493 0.0279372 0.00672824 
v -0.0352248 0.0276061 0.00672824 
v -0.0350767 0.0272345 0.00672824 
v -0.035012 0.0268397 0.00672824 
v -0.0350337 0.0264402 0.00672824 
v -0.0351407 0.0260548 0.00672824 
v -0.0353281 0.0257013 0.00672824 
v -0.0355871 0.0253965 0.00672824 
v -0.0359055 0.0251544 0.00672824 
v -0.0362686 0.0249864 0.00672824 
v -0.0366593 0.0249004 0.00672824 
v -0.0370593 0.0249004 0.00672824 
v -0.03745 0.0249864 0.00672824 
v -0.0378131 0.0251544 0.00672824 
v -0.0381315 0.0253965 0.00672824 
v -0.0383905 0.0257013 0.00672824 
v -0.0385779 0.0260548 0.00672824 
v -0.0386849 0.0264402 0.00672824 
v -0.0387066 0.0268397 0.00672824 
v -0.0386419 0.0272345 0.00672824 
v -0.0384938 0.0276061 0.00672824 
v -0.0382693 0.0279372 0.00672824 
v -0.0379789 0.0282123 0.00672824 
v -0.0376361 0.0284186 0.00672824 
v -0.037257 0.0285463 0.00672824 
v -0.0368593 0.0285895 0.00672824 
vn -9.06341e-17 5.50839e-10 -1 
vn -9.06341e-17 5.50839e-10 -1 
vn -9.06341e-17 5.50839e-10 -1 
vn -9.06341e-17 5.50839e-10 -1 
vn -9.06341e-17 5.50839e-10 -1 
vn -9.06341e-17 5.50839e-10 -1 
vn -9.06341e-17 5.50839e-10 -1 
vn -9.06341e-17 5.50839e-10 -1 
vn -9.06341e-17 5.50839e-10 -1 
vn -9.06341e-17 5.50839e-10 -1 
vn -9.06341e-17 5.50839e-10 -1 
vn -9.06341e-17 5.50839e-10 -1 
vn -9.06341e-17 5.50839e-10 -1 
vn -9.06341e-17 5.50839e-10 -1 
vn -9.06341e-17 5.50839e-10 -1 
vn -9.06341e-17 5.50839e-10 -1 
vn -9.06341e-17 5.50839e-10 -1 
vn -9.06341e-17 5.50839e-10 -1 
vn -9.06341e-17 5.50839e-10 -1 
vn -9.06341e-17 5.50839e-10 -1 
vn -9.06341e-17 5.50839e-10 -1 
vn -9.06341e-17 5.50839e-10 -1 
vn -9.06341e-17 5.50839e-10 -1 
vn -9.06341e-17 5.50839e-10 -1 
vn -9.06341e-17 5.50839e-10 -1 
vn -9.06341e-17 5.50839e-10 -1 
vn -9.06341e-17 5.50839e-10 -1 
vn -9.06341e-17 5.50839e-10 -1 
vn -9.06341e-17 5.50839e-10 -1 
vn -9.06341e-17 5.50839e-10 -1 
f 1//1 2//2 3//3 
f 3//3 4//4 1//1 
f 4//4 5//5 1//1 
f 5//5 6//6 1//1 
f 6//6 7//7 1//1 
f 7//7 8//8 1//1 
f 8//8 9//9 1//1 
f 9//9 10//10 1//1 
f 10//10 11//11 1//1 
f 11//11 12//12 1//1 
f 12//12 13//13 1//1 
f 13//13 14//14 1//1 
f 14//14 15//15 1//1 
f 15//15 16//16 1//1 
f 16//16 17//17 1//1 
f 17//17 18//18 1//1 
f 18//18 19//19 1//1 
f 19//19 20//20 1//1 
f 20//20 21//21 1//1 
f 21//21 22//22 1//1 
f 22//22 23//23 1//1 
f 23//23 24//24 1//1 
f 24//24 25//25 1//1 
f 25//25 26//26 1//1 
f 26//26 27//27 1//1 
f 27//27 28//28 1//1 
f 28//28 29//29 1//1 
f 29//29 30//30 1//1 
f 30//30 2//2 1//1 
o mesh301
v -0.037257 0.0285463 -0.00792795 
v -0.0368593 0.0285895 -0.00792795 
v -0.0368593 0.0285895 0.00672824 
v -0.0376361 0.0284186 -0.00792795 
v -0.037257 0.0285463 0.00672824 
v -0.0379789 0.0282123 -0.00792795 
v -0.0376361 0.0284186 0.00672824 
v -0.0382693 0.0279372 -0.00792795 
v -0.0379789 0.0282123 0.00672824 
v -0.0384938 0.0276061 -0.00792795 
v -0.0382693 0.0279372 0.00672824 
v -0.0386419 0.0272345 -0.00792795 
v -0.0384938 0.0276061 0.00672824 
v -0.0387066 0.0268397 -0.00792795 
v -0.0386419 0.0272345 0.00672824 
v -0.0386849 0.0264402 -0.00792795 
v -0.0387066 0.0268397 0.00672824 
v -0.0385779 0.0260548 -0.00792795 
v -0.0386849 0.0264402 0.00672824 
v -0.0383905 0.0257013 -0.00792795 
v -0.0385779 0.0260548 0.00672824 
v -0.0381315 0.0253965 -0.00792795 
v -0.0383905 0.0257013 0.00672824 
v -0.0378131 0.0251544 -0.00792795 
v -0.0381315 0.0253965 0.00672824 
v -0.03745 0.0249864 -0.00792795 
v -0.0378131 0.0251544 0.00672824 
v -0.0370593 0.0249004 -0.00792795 
v -0.03745 0.0249864 0.00672824 
v -0.0366593 0.0249004 -0.00792795 
v -0.0370593 0.0249004 0.00672824 
v -0.0362686 0.0249864 -0.00792795 
v -0.0366593 0.0249004 0.00672824 
v -0.0359055 0.0251544 -0.00792795 
v -0.0362686 0.0249864 0.00672824 
v -0.0355871 0.0253965 -0.00792795 
v -0.0359055 0.0251544 0.00672824 
v -0.0353281 0.0257013 -0.00792795 
v -0.0355871 0.0253965 0.00672824 
v -0.0351407 0.0260548 -0.00792795 
v -0.0353281 0.0257013 0.00672824 
v -0.0350337 0.0264402 -0.00792795 
v -0.0351407 0.0260548 0.00672824 
v -0.035012 0.0268397 0.00672824 
v -0.035012 0.0268397 -0.00792795 
v -0.0350321 0.02645 -0.00792795 
v -0.0350337 0.0264402 0.00672824 
v -0.0350767 0.0272345 -0.00792795 
v -0.0352248 0.0276061 -0.00792795 
v -0.0350767 0.0272345 0.00672824 
v -0.0354493 0.0279372 -0.00792795 
v -0.0352248 0.0276061 0.00672824 
v -0.0357397 0.0282123 -0.00792795 
v -0.0354493 0.0279372 0.00672824 
v -0.0360825 0.0284186 -0.00792795 
v -0.0357397 0.0282123 0.00672824 
v -0.0364616 0.0285463 -0.00792795 
v -0.0360825 0.0284186 0.00672824 
v -0.0364616 0.0285463 0.00672824 
vn 0.21497 -0.976621 -5.37961e-10 
vn 2.44929e-16 -1 -5.50839e-10 
vn 2.44929e-16 -1 -5.50839e-10 
vn 0.419889 -0.907575 -4.99928e-10 
vn 0.21497 -0.976621 -5.37961e-10 
vn 0.605174 -0.796093 -4.38519e-10 
vn 0.419889 -0.907575 -4.99928e-10 
vn 0.762162 -0.647386 -3.56606e-10 
vn 0.605174 -0.796093 -4.38519e-10 
vn 0.883512 -0.468408 -2.58018e-10 
vn 0.762162 -0.647386 -3.56606e-10 
vn 0.96355 -0.267528 -1.47365e-10 
vn 0.883512 -0.468408 -2.58018e-10 
vn 0.998533 -0.0541389 -2.9822e-11 
vn 0.96355 -0.267528 -1.47365e-10 
vn 0.986827 0.161782 8.91156e-11 
vn 0.998533 -0.0541389 -2.9822e-11 
vn 0.928977 0.370138 2.03886e-10 
vn 0.986827 0.161782 8.91156e-11 
vn 0.827689 0.561187 3.09123e-10 
vn 0.928977 0.370138 2.03886e-10 
vn 0.687699 0.725995 3.99906e-10 
vn 0.827689 0.561187 3.09123e-10 
vn 0.515554 0.856857 4.7199e-10 
vn 0.687699 0.725995 3.99906e-10 
vn 0.319302 0.947653 5.22004e-10 
vn 0.515554 0.856857 4.7199e-10 
vn 0.108119 0.994138 5.4761e-10 
vn 0.319302 0.947653 5.22004e-10 
vn -0.108119 0.994138 5.4761e-10 
vn 0.108119 0.994138 5.4761e-10 
vn -0.319302 0.947653 5.22004e-10 
vn -0.108119 0.994138 5.4761e-10 
vn -0.515554 0.856857 4.7199e-10 
vn -0.319302 0.947653 5.22004e-10 
vn -0.687699 0.725995 3.99907e-10 
vn -0.515554 0.856857 4.7199e-10 
vn -0.827689 0.561187 3.09124e-10 
vn -0.687699 0.725995 3.99907e-10 
vn -0.928977 0.370138 2.03887e-10 
vn -0.827689 0.561187 3.09124e-10 
vn -0.986827 0.161782 8.9116e-11 
vn -0.928977 0.370138 2.03887e-10 
vn -0.998533 -0.0541389 -2.98216e-11 
vn -0.998533 -0.0541389 -2.98216e-11 
vn -0.987674 0.156528 8.62218e-11 
vn -0.986827 0.161782 8.9116e-11 
vn -0.96355 -0.267528 -1.47365e-10 
vn -0.883512 -0.468408 -2.58017e-10 
vn -0.96355 -0.267528 -1.47365e-10 
vn -0.762162 -0.647386 -3.56605e-10 
vn -0.883512 -0.468408 -2.58017e-10 
vn -0.605174 -0.796093 -4.38519e-10 
vn -0.762162 -0.647386 -3.56605e-10 
vn -0.419889 -0.907575 -4.99928e-10 
vn -0.605174 -0.796093 -4.38519e-10 
vn -0.21497 -0.976621 -5.3796e-10 
vn -0.419889 -0.907575 -4.99928e-10 
vn -0.21497 -0.976621 -5.3796e-10 
f 31//31 32//32 33//33 
f 34//34 31//31 35//35 
f 36//36 34//34 37//37 
f 38//38 36//36 39//39 
f 40//40 38//38 41//41 
f 42//42 40//40 43//43 
f 44//44 42//42 45//45 
f 46//46 44//44 47//47 
f 48//48 46//46 49//49 
f 50//50 48//48 51//51 
f 52//52 50//50 53//53 
f 54//54 52//52 55//55 
f 56//56 54//54 57//57 
f 58//58 56//56 59//59 
f 60//60 58//58 61//61 
f 62//62 60//60 63//63 
f 64//64 62//62 65//65 
f 66//66 64//64 67//67 
f 68//68 66//66 69//69 
f 70//70 68//68 71//71 
f 72//72 70//70 73//73 
f 74//74 75//75 76//76 
f 76//76 77//77 74//74 
f 78//78 75//75 74//74 
f 79//79 78//78 80//80 
f 81//81 79//79 82//82 
f 83//83 81//81 84//84 
f 85//85 83//83 86//86 
f 87//87 85//85 88//88 
f 32//32 87//87 89//89 
f 89//89 33//33 32//32 
f 88//88 89//89 87//87 
f 86//86 88//88 85//85 
f 84//84 86//86 83//83 
f 82//82 84//84 81//81 
f 80//80 82//82 79//79 
f 74//74 80//80 78//78 
f 76//76 72//72 77//77 
f 73//73 77//77 72//72 
f 71//71 73//73 70//70 
f 69//69 71//71 68//68 
f 67//67 69//69 66//66 
f 65//65 67//67 64//64 
f 63//63 65//65 62//62 
f 61//61 63//63 60//60 
f 59//59 61//61 58//58 
f 57//57 59//59 56//56 
f 55//55 57//57 54//54 
f 53//53 55//55 52//52 
f 51//51 53//53 50//50 
f 49//49 51//51 48//48 
f 47//47 49//49 46//46 
f 45//45 47//47 44//44 
f 43//43 45//45 42//42 
f 41//41 43//43 40//40 
f 39//39 41//41 38//38 
f 37//37 39//39 36//36 
f 35//35 37//37 34//34 
f 33//33 35//35 31//31 
o mesh302
v -0.0180559 0.0225164 -0.00792795 
v -0.0350337 0.0264402 -0.00792795 
v -0.0350321 0.02645 -0.00792795 
v -0.0181716 0.0220996 -0.00792795 
v -0.0351407 0.0260548 -0.00792795 
v -0.0153581 0.0199609 -0.00792795 
v -0.0149876 0.0201839 -0.00792795 
v -0.0132646 0.0181323 -0.00792795 
v -0.035012 0.0268397 -0.00792795 
v -0.0352248 0.0276061 -0.00792795 
v -0.0281276 0.0327476 -0.00792795 
v -0.0178533 0.0228985 -0.00792795 
v -0.0136092 0.0175701 -0.00792795 
v -0.0138568 0.0173501 -0.00792795 
v -0.0134092 0.0178342 -0.00792795 
v -0.0147838 0.0170287 -0.00792795 
v -0.0151145 0.0170482 -0.00792795 
v -0.0141426 0.0171826 -0.00792795 
v -0.0144557 0.0170741 -0.00792795 
v -0.0359055 0.0251544 -0.00792795 
v -0.0174082 0.0201839 -0.00792795 
v -0.0350767 0.0272345 -0.00792795 
v -0.0175733 0.0232281 -0.00792795 
v -0.0355871 0.0253965 -0.00792795 
v -0.0353281 0.0257013 -0.00792795 
v -0.0166278 0.0198228 -0.00792795 
v -0.0161979 0.0197761 -0.00792795 
v -0.0170377 0.0199609 -0.00792795 
v -0.0131809 0.0184528 -0.00792795 
v -0.0146736 0.0204813 -0.00792795 
v -0.0144309 0.0208393 -0.00792795 
v -0.015768 0.0198228 -0.00792795 
v -0.0179649 0.0208393 -0.00792795 
v -0.0177222 0.0204813 -0.00792795 
v -0.018195 0.0216678 -0.00792795 
v -0.018125 0.021241 -0.00792795 
v -0.0202573 0.0307601 -0.00792795 
v -0.0168365 0.0236714 -0.00792795 
v -0.017229 0.0234898 -0.00792795 
v -0.0440754 0.0244101 -0.00792795 
v -0.0437049 0.0241872 -0.00792795 
v -0.0453572 0.0218411 -0.00792795 
v -0.04646 0.022517 -0.00792795 
v -0.0466275 0.0228029 -0.00792795 
v -0.0459758 0.0220694 -0.00792795 
v -0.0462399 0.0222694 -0.00792795 
v -0.0443894 0.0247076 -0.00792795 
v -0.0467813 0.0234441 -0.00792795 
v -0.0467618 0.0237748 -0.00792795 
v -0.0362268 0.033291 -0.00792795 
v -0.0360825 0.0284186 -0.00792795 
v -0.0364616 0.0285463 -0.00792795 
v -0.0357397 0.0282123 -0.00792795 
v -0.0366593 0.0249004 -0.00792795 
v -0.0362686 0.0249864 -0.00792795 
v -0.0164141 0.0237644 -0.00792795 
v -0.0128711 0.0273929 -0.00792795 
v -0.0159817 0.0237644 -0.00792795 
v -0.0456777 0.0219248 -0.00792795 
v -0.046736 0.0231159 -0.00792795 
v -0.0354493 0.0279372 -0.00792795 
v -0.0370593 0.0249004 -0.00792795 
v -0.0151668 0.0234898 -0.00792795 
v -0.012362 0.0269467 -0.00792795 
v -0.0121845 0.0266564 -0.00792795 
v -0.012594 0.0271956 -0.00792795 
v -0.0142708 0.021241 -0.00792795 
v -0.0142008 0.0216678 -0.00792795 
v -0.03745 0.0249864 -0.00792795 
v -0.0383905 0.0257013 -0.00792795 
v -0.0420253 0.0241872 -0.00792795 
v -0.043295 0.0240491 -0.00792795 
v -0.0428651 0.0240023 -0.00792795 
v -0.0447922 0.0254673 -0.00792795 
v -0.0446321 0.0250655 -0.00792795 
v -0.0386849 0.0264402 -0.00792795 
v -0.0410981 0.0250655 -0.00792795 
v -0.040938 0.0254673 -0.00792795 
v -0.0120688 0.0263365 -0.00792795 
v -0.0120195 0.0259998 -0.00792795 
v -0.0148225 0.0232281 -0.00792795 
v -0.0120387 0.0256601 -0.00792795 
v -0.0142242 0.0220996 -0.00792795 
v -0.0143399 0.0225164 -0.00792795 
v -0.0378131 0.0251544 -0.00792795 
v -0.0381315 0.0253965 -0.00792795 
v -0.0416547 0.0244101 -0.00792795 
v -0.0424351 0.0240491 -0.00792795 
v -0.0386419 0.0272345 -0.00792795 
v -0.0387066 0.0268397 -0.00792795 
v -0.0435037 0.0278976 -0.00792795 
v -0.0438962 0.027716 -0.00792795 
v -0.0456196 0.030982 -0.00792795 
v -0.0145425 0.0228985 -0.00792795 
v -0.0368593 0.0285895 -0.00792795 
v -0.0385779 0.0260548 -0.00792795 
v -0.0413408 0.0247076 -0.00792795 
v -0.044723 0.0267426 -0.00792795 
v -0.0448387 0.0263259 -0.00792795 
v -0.0453818 0.0316159 -0.00792795 
v -0.0451728 0.0318845 -0.00792795 
v -0.0455328 0.031311 -0.00792795 
v -0.0430813 0.0279906 -0.00792795 
v -0.0449143 0.0321057 -0.00792795 
v -0.0414897 0.0274543 -0.00792795 
v -0.0376361 0.0284186 -0.00792795 
v -0.0155593 0.0236714 -0.00792795 
v -0.0384938 0.0276061 -0.00792795 
v -0.0445205 0.0271247 -0.00792795 
v -0.0442405 0.0274543 -0.00792795 
v -0.0446167 0.0322706 -0.00792795 
v -0.037257 0.0285463 -0.00792795 
v -0.0412097 0.0271247 -0.00792795 
v -0.0379789 0.0282123 -0.00792795 
v -0.0382693 0.0279372 -0.00792795 
v -0.0448622 0.0258941 -0.00792795 
v -0.0442921 0.0323726 -0.00792795 
v -0.0422265 0.0278976 -0.00792795 
v -0.041834 0.027716 -0.00792795 
v -0.0408914 0.0263259 -0.00792795 
v -0.0410071 0.0267426 -0.00792795 
v -0.0426488 0.0279906 -0.00792795 
v -0.040868 0.0258941 -0.00792795 
vn -1.75246e-16 5.50839e-10 -1 
vn -1.75246e-16 5.50839e-10 -1 
vn -1.75246e-16 5.50839e-10 -1 
vn -1.75246e-16 5.50839e-10 -1 
vn -1.75246e-16 5.50839e-10 -1 
vn -1.75246e-16 5.50839e-10 -1 
vn -1.75246e-16 5.50839e-10 -1 
vn -1.75246e-16 5.50839e-10 -1 
vn -1.75246e-16 5.50839e-10 -1 
vn -1.75246e-16 5.50839e-10 -1 
vn -1.75246e-16 5.50839e-10 -1 
vn -1.75246e-16 5.50839e-10 -1 
vn -1.75246e-16 5.50839e-10 -1 
vn -1.75246e-16 5.50839e-10 -1 
vn -1.75246e-16 5.50839e-10 -1 
vn -1.75246e-16 5.50839e-10 -1 
vn -1.75246e-16 5.50839e-10 -1 
vn -1.75246e-16 5.50839e-10 -1 
vn -1.75246e-16 5.50839e-10 -1 
vn -1.75246e-16 5.50839e-10 -1 
vn -1.75246e-16 5.50839e-10 -1 
vn -1.75246e-16 5.50839e-10 -1 
vn -1.75246e-16 5.50839e-10 -1 
vn -1.75246e-16 5.50839e-10 -1 
vn -1.75246e-16 5.50839e-10 -1 
vn -1.75246e-16 5.50839e-10 -1 
vn -1.75246e-16 5.50839e-10 -1 
vn -1.75246e-16 5.50839e-10 -1 
vn -1.75246e-16 5.50839e-10 -1 
vn -1.75246e-16 5.50839e-10 -1 
vn -1.75246e-16 5.50839e-10 -1 
vn -1.75246e-16 5.50839e-10 -1 
vn -1.75246e-16 5.50839e-10 -1 
vn -1.75246e-16 5.50839e-10 -1 
vn -1.75246e-16 5.50839e-10 -1 
vn -1.75246e-16 5.50839e-10 -1 
vn -1.75246e-16 5.50839e-10 -1 
vn -1.75246e-16 5.50839e-10 -1 
vn -1.75246e-16 5.50839e-10 -1 
vn -1.75246e-16 5.50839e-10 -1 
vn -1.75246e-16 5.50839e-10 -1 
vn -1.75246e-16 5.50839e-10 -1 
vn -1.75246e-16 5.50839e-10 -1 
vn -1.75246e-16 5.50839e-10 -1 
vn -1.75246e-16 5.50839e-10 -1 
vn -1.75246e-16 5.50839e-10 -1 
vn -1.75246e-16 5.50839e-10 -1 
vn -1.75246e-16 5.50839e-10 -1 
vn -1.75246e-16 5.50839e-10 -1 
vn -1.75246e-16 5.50839e-10 -1 
vn -1.75246e-16 5.50839e-10 -1 
vn -1.75246e-16 5.50839e-10 -1 
vn -1.75246e-16 5.50839e-10 -1 
vn -1.75246e-16 5.50839e-10 -1 
vn -1.75246e-16 5.50839e-10 -1 
vn -1.75246e-16 5.50839e-10 -1 
vn -1.75246e-16 5.50839e-10 -1 
vn -1.75246e-16 5.50839e-10 -1 
vn -1.75246e-16 5.50839e-10 -1 
vn -1.75246e-16 5.50839e-10 -1 
vn -1.75246e-16 5.50839e-10 -1 
vn -1.75246e-16 5.50839e-10 -1 
vn -1.75246e-16 5.50839e-10 -1 
vn -1.75246e-16 5.50839e-10 -1 
vn -1.75246e-16 5.50839e-10 -1 
vn -1.75246e-16 5.50839e-10 -1 
vn -1.75246e-16 5.50839e-10 -1 
vn -1.75246e-16 5.50839e-10 -1 
vn -1.75246e-16 5.50839e-10 -1 
vn -1.75246e-16 5.50839e-10 -1 
vn -1.75246e-16 5.50839e-10 -1 
vn -1.75246e-16 5.50839e-10 -1 
vn -1.75246e-16 5.50839e-10 -1 
vn -1.75246e-16 5.50839e-10 -1 
vn -1.75246e-16 5.50839e-10 -1 
vn -1.75246e-16 5.50839e-10 -1 
vn -1.75246e-16 5.50839e-10 -1 
vn -1.75246e-16 5.50839e-10 -1 
vn -1.75246e-16 5.50839e-10 -1 
vn -1.75246e-16 5.50839e-10 -1 
vn -1.75246e-16 5.50839e-10 -1 
vn -1.75246e-16 5.50839e-10 -1 
vn -1.75246e-16 5.50839e-10 -1 
vn -1.75246e-16 5.50839e-10 -1 
vn -1.75246e-16 5.50839e-10 -1 
vn -1.75246e-16 5.50839e-10 -1 
vn -1.75246e-16 5.50839e-10 -1 
vn -1.75246e-16 5.50839e-10 -1 
vn -1.75246e-16 5.50839e-10 -1 
vn -1.75246e-16 5.50839e-10 -1 
vn -1.75246e-16 5.50839e-10 -1 
vn -1.75246e-16 5.50839e-10 -1 
vn -1.75246e-16 5.50839e-10 -1 
vn -1.75246e-16 5.50839e-10 -1 
vn -1.75246e-16 5.50839e-10 -1 
vn -1.75246e-16 5.50839e-10 -1 
vn -1.75246e-16 5.50839e-10 -1 
vn -1.75246e-16 5.50839e-10 -1 
vn -1.75246e-16 5.50839e-10 -1 
vn -1.75246e-16 5.50839e-10 -1 
vn -1.75246e-16 5.50839e-10 -1 
vn -1.75246e-16 5.50839e-10 -1 
vn -1.75246e-16 5.50839e-10 -1 
vn -1.75246e-16 5.50839e-10 -1 
vn -1.75246e-16 5.50839e-10 -1 
vn -1.75246e-16 5.50839e-10 -1 
vn -1.75246e-16 5.50839e-10 -1 
vn -1.75246e-16 5.50839e-10 -1 
vn -1.75246e-16 5.50839e-10 -1 
vn -1.75246e-16 5.50839e-10 -1 
vn -1.75246e-16 5.50839e-10 -1 
vn -1.75246e-16 5.50839e-10 -1 
vn -1.75246e-16 5.50839e-10 -1 
vn -1.75246e-16 5.50839e-10 -1 
vn -1.75246e-16 5.50839e-10 -1 
vn -1.75246e-16 5.50839e-10 -1 
vn -1.75246e-16 5.50839e-10 -1 
vn -1.75246e-16 5.50839e-10 -1 
vn -1.75246e-16 5.50839e-10 -1 
vn -1.75246e-16 5.50839e-10 -1 
vn -1.75246e-16 5.50839e-10 -1 
vn -1.75246e-16 5.50839e-10 -1 
vn -1.75246e-16 5.50839e-10 -1 
f 90//90 91//91 92//92 
f 93//93 94//94 91//91 
f 91//91 90//90 93//93 
f 95//95 96//96 97//97 
f 92//92 98//98 90//90 
f 99//99 100//100 101//101 
f 95//95 102//102 103//103 
f 97//97 104//104 95//95 
f 95//95 105//105 106//106 
f 95//95 107//107 108//108 
f 106//106 109//109 110//110 
f 98//98 111//111 90//90 
f 100//100 112//112 101//101 
f 93//93 113//113 114//114 
f 104//104 102//102 95//95 
f 108//108 105//105 95//95 
f 106//106 115//115 116//116 
f 110//110 117//117 106//106 
f 101//101 90//90 99//99 
f 93//93 109//109 113//113 
f 118//118 119//119 120//120 
f 96//96 119//119 118//118 
f 106//106 121//121 95//95 
f 117//117 115//115 106//106 
f 109//109 122//122 123//123 
f 109//109 124//124 125//125 
f 114//114 94//94 93//93 
f 118//118 97//97 96//96 
f 116//116 121//121 106//106 
f 125//125 122//122 109//109 
f 111//111 99//99 90//90 
f 112//112 100//100 126//126 
f 103//103 107//107 95//95 
f 93//93 124//124 109//109 
f 126//126 127//127 128//128 
f 129//129 130//130 131//131 
f 129//129 132//132 133//133 
f 129//129 134//134 135//135 
f 136//136 137//137 138//138 
f 139//139 140//140 141//141 
f 100//100 142//142 140//140 
f 123//123 110//110 109//109 
f 106//106 143//143 144//144 
f 126//126 145//145 127//127 
f 126//126 146//146 147//147 
f 131//131 148//148 129//129 
f 135//135 132//132 129//129 
f 136//136 149//149 137//137 
f 140//140 139//139 100//100 
f 100//100 99//99 150//150 
f 144//144 109//109 106//106 
f 147//147 145//145 126//126 
f 131//131 151//151 143//143 
f 133//133 136//136 129//129 
f 136//136 133//133 149//149 
f 152//152 153//153 154//154 
f 152//152 146//146 155//155 
f 118//118 156//156 157//157 
f 150//150 142//142 100//100 
f 126//126 128//128 112//112 
f 131//131 158//158 151//151 
f 159//159 131//131 160//160 
f 131//131 161//161 162//162 
f 148//148 134//134 129//129 
f 138//138 163//163 164//164 
f 165//165 166//166 167//167 
f 152//152 168//168 169//169 
f 155//155 153//153 152//152 
f 170//170 169//169 171//171 
f 171//171 172//172 173//173 
f 157//157 171//171 118//118 
f 120//120 156//156 118//118 
f 131//131 174//174 158//158 
f 131//131 159//159 175//175 
f 160//160 176//176 159//159 
f 162//162 177//177 131//131 
f 138//138 164//164 136//136 
f 167//167 178//178 179//179 
f 180//180 181//181 182//182 
f 154//154 168//168 152//152 
f 173//173 183//183 171//171 
f 141//141 184//184 139//139 
f 175//175 174//174 131//131 
f 176//176 165//165 185//185 
f 130//130 161//161 131//131 
f 165//165 186//186 166//166 
f 182//182 187//187 188//188 
f 180//180 189//189 190//190 
f 182//182 191//191 180//180 
f 192//192 180//180 193//193 
f 194//194 139//139 195//195 
f 146//146 152//152 196//196 
f 171//171 183//183 170//170 
f 143//143 106//106 131//131 
f 177//177 160//160 131//131 
f 167//167 197//197 178//178 
f 182//182 198//198 187//187 
f 182//182 181//181 199//199 
f 191//191 189//189 180//180 
f 193//193 200//200 192//192 
f 139//139 201//201 195//195 
f 202//202 195//195 203//203 
f 169//169 170//170 152//152 
f 176//176 185//185 159//159 
f 165//165 176//176 186//186 
f 167//167 203//203 204//204 
f 138//138 188//188 205//205 
f 199//199 198//198 182//182 
f 200//200 206//206 192//192 
f 206//206 139//139 207//207 
f 139//139 194//194 208//208 
f 139//139 184//184 201//201 
f 203//203 209//209 210//210 
f 157//157 172//172 171//171 
f 204//204 197//197 167//167 
f 188//188 138//138 182//182 
f 206//206 211//211 192//192 
f 208//208 207//207 139//139 
f 203//203 210//210 202//202 
f 167//167 179//179 165//165 
f 190//190 193//193 180//180 
f 195//195 202//202 194//194 
f 203//203 167//167 212//212 
f 205//205 163//163 138//138 
f 212//212 209//209 203//203 
f 207//207 211//211 206//206 
f 196//196 147//147 146//146 
o mesh303
v -0.0456196 0.030982 -0.00392795 
v -0.0456196 0.030982 -0.00792795 
v -0.0467618 0.0237748 -0.00792795 
v -0.0467618 0.0237748 -0.00392795 
vn -0.987674 0.156528 8.62218e-11 
vn -0.987674 0.156528 8.62218e-11 
vn -0.987674 0.156528 8.62218e-11 
vn -0.987674 0.156528 8.62218e-11 
f 213//213 214//214 215//215 
f 215//215 216//216 213//213 
o mesh304
v -0.0131809 0.0184528 -0.00392795 
v -0.0131809 0.0184528 -0.00792795 
v -0.0120387 0.0256601 -0.00792795 
v -0.0120387 0.0256601 -0.00392795 
vn 0.987674 -0.156528 -8.62218e-11 
vn 0.987674 -0.156528 -8.62218e-11 
vn 0.987674 -0.156528 -8.62218e-11 
vn 0.987674 -0.156528 -8.62218e-11 
f 217//217 218//218 219//219 
f 219//219 220//220 217//217 
o mesh305
v -0.0442921 0.0323726 -0.00792795 
v -0.0442921 0.0323726 -0.00392795 
v -0.0362268 0.033291 -0.00392795 
v -0.0362268 0.033291 -0.00792795 
v -0.0281276 0.0327476 -0.00392795 
v -0.0281276 0.0327476 -0.00792795 
v -0.0202573 0.0307601 -0.00392795 
v -0.0202573 0.0307601 -0.00792795 
v -0.0128711 0.0273929 -0.00392795 
v -0.0128711 0.0273929 -0.00792795 
vn -0.20217 0.979351 5.39464e-10 
vn -0.20217 0.979351 5.39464e-10 
vn -0.0231972 0.999731 5.50691e-10 
vn -0.0231972 0.999731 5.50691e-10 
vn 0.156528 0.987674 5.44049e-10 
vn 0.156528 0.987674 5.44049e-10 
vn 0.331174 0.94357 5.19755e-10 
vn 0.331174 0.94357 5.19755e-10 
vn 0.495075 0.86885 4.78596e-10 
vn 0.495075 0.86885 4.78596e-10 
f 221//221 222//222 223//223 
f 224//224 223//223 225//225 
f 226//226 225//225 227//227 
f 228//228 227//227 229//229 
f 229//229 230//230 228//228 
f 227//227 228//228 226//226 
f 225//225 226//226 224//224 
f 223//223 224//224 221//221 
o mesh306
v -0.0467618 0.0237748 -0.00392795 
v -0.0467618 0.0237748 -0.00792795 
v -0.0467813 0.0234441 -0.00792795 
v -0.0467813 0.0234441 -0.00392795 
v -0.046736 0.0231159 -0.00792795 
v -0.046736 0.0231159 -0.00392795 
v -0.0466275 0.0228029 -0.00792795 
v -0.0466275 0.0228029 -0.00392795 
v -0.04646 0.022517 -0.00792795 
v -0.04646 0.022517 -0.00392795 
v -0.0462399 0.0222694 -0.00792795 
v -0.0462399 0.0222694 -0.00392795 
v -0.0459758 0.0220694 -0.00792795 
v -0.0459758 0.0220694 -0.00392795 
v -0.0456777 0.0219248 -0.00792795 
v -0.0456777 0.0219248 -0.00392795 
v -0.0453572 0.0218411 -0.00792795 
v -0.0453572 0.0218411 -0.00392795 
vn -0.987674 0.156528 8.62218e-11 
vn -0.987674 0.156528 8.62218e-11 
vn -0.999233 -0.0391654 -2.15737e-11 
vn -0.999233 -0.0391654 -2.15737e-11 
vn -0.972392 -0.233353 -1.2854e-10 
vn -0.972392 -0.233353 -1.2854e-10 
vn -0.908183 -0.418574 -2.30567e-10 
vn -0.908183 -0.418574 -2.30567e-10 
vn -0.809073 -0.587709 -3.23733e-10 
vn -0.809073 -0.587709 -3.23733e-10 
vn -0.67887 -0.734258 -4.04458e-10 
vn -0.67887 -0.734258 -4.04458e-10 
vn -0.522579 -0.852591 -4.6964e-10 
vn -0.522579 -0.852591 -4.6964e-10 
vn -0.346206 -0.938159 -5.16774e-10 
vn -0.346206 -0.938159 -5.16774e-10 
vn -0.156528 -0.987674 -5.44049e-10 
vn -0.156528 -0.987674 -5.44049e-10 
f 231//231 232//232 233//233 
f 234//234 233//233 235//235 
f 236//236 235//235 237//237 
f 238//238 237//237 239//239 
f 240//240 239//239 241//241 
f 242//242 241//241 243//243 
f 244//244 243//243 245//245 
f 246//246 245//245 247//247 
f 247//247 248//248 246//246 
f 245//245 246//246 244//244 
f 243//243 244//244 242//242 
f 241//241 242//242 240//240 
f 239//239 240//240 238//238 
f 237//237 238//238 236//236 
f 235//235 236//236 234//234 
f 233//233 234//234 231//231 
o mesh307
v -0.0456196 0.030982 -0.00792795 
v -0.0456196 0.030982 -0.00392795 
v -0.0455328 0.031311 -0.00392795 
v -0.0455328 0.031311 -0.00792795 
v -0.0453818 0.0316159 -0.00392795 
v -0.0453818 0.0316159 -0.00792795 
v -0.0451728 0.0318845 -0.00392795 
v -0.0451728 0.0318845 -0.00792795 
v -0.0449143 0.0321057 -0.00392795 
v -0.0449143 0.0321057 -0.00792795 
v -0.0446167 0.0322706 -0.00392795 
v -0.0446167 0.0322706 -0.00792795 
v -0.0442921 0.0323726 -0.00392795 
v -0.0442921 0.0323726 -0.00792795 
vn -0.987674 0.156528 8.62218e-11 
vn -0.987674 0.156528 8.62218e-11 
vn -0.936302 0.351197 1.93453e-10 
vn -0.936302 0.351197 1.93453e-10 
vn -0.846977 0.53163 2.92843e-10 
vn -0.846977 0.53163 2.92843e-10 
vn -0.723319 0.690514 3.80362e-10 
vn -0.723319 0.690514 3.80362e-10 
vn -0.570342 0.821407 4.52463e-10 
vn -0.570342 0.821407 4.52463e-10 
vn -0.394246 0.919005 5.06224e-10 
vn -0.394246 0.919005 5.06224e-10 
vn -0.20217 0.979351 5.39464e-10 
vn -0.20217 0.979351 5.39464e-10 
f 249//249 250//250 251//251 
f 252//252 251//251 253//253 
f 254//254 253//253 255//255 
f 256//256 255//255 257//257 
f 258//258 257//257 259//259 
f 260//260 259//259 261//261 
f 261//261 262//262 260//260 
f 259//259 260//260 258//258 
f 257//257 258//258 256//256 
f 255//255 256//256 254//254 
f 253//253 254//254 252//252 
f 251//251 252//252 249//249 
o mesh308
v -0.0128711 0.0273929 -0.00792795 
v -0.0128711 0.0273929 -0.00392795 
v -0.012594 0.0271956 -0.00392795 
v -0.012594 0.0271956 -0.00792795 
v -0.012362 0.0269467 -0.00392795 
v -0.012362 0.0269467 -0.00792795 
v -0.0121845 0.0266564 -0.00392795 
v -0.0121845 0.0266564 -0.00792795 
v -0.0120688 0.0263365 -0.00392795 
v -0.0120688 0.0263365 -0.00792795 
v -0.0120195 0.0259998 -0.00392795 
v -0.0120195 0.0259998 -0.00792795 
v -0.0120387 0.0256601 -0.00392795 
v -0.0120387 0.0256601 -0.00792795 
vn 0.495075 0.86885 4.78596e-10 
vn 0.495075 0.86885 4.78596e-10 
vn 0.659081 0.752072 4.1427e-10 
vn 0.659081 0.752072 4.1427e-10 
vn 0.796371 0.604809 3.33152e-10 
vn 0.796371 0.604809 3.33152e-10 
vn 0.90138 0.433029 2.38529e-10 
vn 0.90138 0.433029 2.38529e-10 
vn 0.969851 0.243697 1.34237e-10 
vn 0.969851 0.243697 1.34237e-10 
vn 0.99901 0.0444861 2.45045e-11 
vn 0.99901 0.0444861 2.45045e-11 
vn 0.987674 -0.156528 -8.62218e-11 
vn 0.987674 -0.156528 -8.62218e-11 
f 263//263 264//264 265//265 
f 266//266 265//265 267//267 
f 268//268 267//267 269//269 
f 270//270 269//269 271//271 
f 272//272 271//271 273//273 
f 274//274 273//273 275//275 
f 275//275 276//276 274//274 
f 273//273 274//274 272//272 
f 271//271 272//272 270//270 
f 269//269 270//270 268//268 
f 267//267 268//268 266//266 
f 265//265 266//266 263//263 
o mesh309
v -0.0131809 0.0184528 -0.00792795 
v -0.0131809 0.0184528 -0.00392795 
v -0.0132646 0.0181323 -0.00392795 
v -0.0132646 0.0181323 -0.00792795 
v -0.0134092 0.0178342 -0.00392795 
v -0.0134092 0.0178342 -0.00792795 
v -0.0136092 0.0175701 -0.00392795 
v -0.0136092 0.0175701 -0.00792795 
v -0.0138568 0.0173501 -0.00392795 
v -0.0138568 0.0173501 -0.00792795 
v -0.0141426 0.0171826 -0.00392795 
v -0.0141426 0.0171826 -0.00792795 
v -0.0144557 0.0170741 -0.00392795 
v -0.0144557 0.0170741 -0.00792795 
v -0.0147838 0.0170287 -0.00392795 
v -0.0147838 0.0170287 -0.00792795 
v -0.0151145 0.0170482 -0.00392795 
v -0.0151145 0.0170482 -0.00792795 
vn 0.987674 -0.156528 -8.62218e-11 
vn 0.987674 -0.156528 -8.62218e-11 
vn 0.938159 -0.346206 -1.90704e-10 
vn 0.938159 -0.346206 -1.90704e-10 
vn 0.852591 -0.522579 -2.87857e-10 
vn 0.852591 -0.522579 -2.87857e-10 
vn 0.734258 -0.67887 -3.73948e-10 
vn 0.734258 -0.67887 -3.73948e-10 
vn 0.587709 -0.809073 -4.45669e-10 
vn 0.587709 -0.809073 -4.45669e-10 
vn 0.418574 -0.908183 -5.00263e-10 
vn 0.418574 -0.908183 -5.00263e-10 
vn 0.233353 -0.972392 -5.35632e-10 
vn 0.233353 -0.972392 -5.35632e-10 
vn 0.0391654 -0.999233 -5.50417e-10 
vn 0.0391654 -0.999233 -5.50417e-10 
vn -0.156528 -0.987674 -5.44049e-10 
vn -0.156528 -0.987674 -5.44049e-10 
f 277//277 278//278 279//279 
f 280//280 279//279 281//281 
f 282//282 281//281 283//283 
f 284//284 283//283 285//285 
f 286//286 285//285 287//287 
f 288//288 287//287 289//289 
f 290//290 289//289 291//291 
f 292//292 291//291 293//293 
f 293//293 294//294 292//292 
f 291//291 292//292 290//290 
f 289//289 290//290 288//288 
f 287//287 288//288 286//286 
f 285//285 286//286 284//284 
f 283//283 284//284 282//282 
f 281//281 282//282 280//280 
f 279//279 280//280 277//277 
o mesh310
v -0.043295 0.0240491 -0.00392795 
v -0.0428651 0.0240023 -0.00392795 
v -0.0428651 0.0240023 -0.00792795 
v -0.0437049 0.0241872 -0.00392795 
v -0.043295 0.0240491 -0.00792795 
v -0.0440754 0.0244101 -0.00392795 
v -0.0437049 0.0241872 -0.00792795 
v -0.0443894 0.0247076 -0.00392795 
v -0.0440754 0.0244101 -0.00792795 
v -0.0446321 0.0250655 -0.00392795 
v -0.0443894 0.0247076 -0.00792795 
v -0.0447922 0.0254673 -0.00392795 
v -0.0446321 0.0250655 -0.00792795 
v -0.0448622 0.0258941 -0.00392795 
v -0.0447922 0.0254673 -0.00792795 
v -0.0448387 0.0263259 -0.00392795 
v -0.0448622 0.0258941 -0.00792795 
v -0.044723 0.0267426 -0.00392795 
v -0.0448387 0.0263259 -0.00792795 
v -0.0445205 0.0271247 -0.00392795 
v -0.044723 0.0267426 -0.00792795 
v -0.0442405 0.0274543 -0.00392795 
v -0.0445205 0.0271247 -0.00792795 
v -0.0438962 0.027716 -0.00392795 
v -0.0442405 0.0274543 -0.00792795 
v -0.0435037 0.0278976 -0.00392795 
v -0.0438962 0.027716 -0.00792795 
v -0.0430813 0.0279906 -0.00392795 
v -0.0435037 0.0278976 -0.00792795 
v -0.0426488 0.0279906 -0.00392795 
v -0.0430813 0.0279906 -0.00792795 
v -0.0422265 0.0278976 -0.00392795 
v -0.0426488 0.0279906 -0.00792795 
v -0.041834 0.027716 -0.00392795 
v -0.0422265 0.0278976 -0.00792795 
v -0.0414897 0.0274543 -0.00392795 
v -0.041834 0.027716 -0.00792795 
v -0.0412097 0.0271247 -0.00392795 
v -0.0414897 0.0274543 -0.00792795 
v -0.0410071 0.0267426 -0.00392795 
v -0.0412097 0.0271247 -0.00792795 
v -0.0408914 0.0263259 -0.00392795 
v -0.0410071 0.0267426 -0.00792795 
v -0.040868 0.0258941 -0.00392795 
v -0.0408914 0.0263259 -0.00792795 
v -0.040938 0.0254673 -0.00392795 
v -0.040868 0.0258941 -0.00792795 
v -0.0410981 0.0250655 -0.00392795 
v -0.040938 0.0254673 -0.00792795 
v -0.0413408 0.0247076 -0.00392795 
v -0.0410981 0.0250655 -0.00792795 
v -0.0416547 0.0244101 -0.00392795 
v -0.0413408 0.0247076 -0.00792795 
v -0.0420253 0.0241872 -0.00392795 
v -0.0416547 0.0244101 -0.00792795 
v -0.0424351 0.0240491 -0.00392795 
v -0.0420253 0.0241872 -0.00792795 
v -0.0424351 0.0240491 -0.00792795 
vn 0.21497 0.976621 5.3796e-10 
vn 2.44929e-16 1 5.50839e-10 
vn 2.44929e-16 1 5.50839e-10 
vn 0.419889 0.907575 4.99928e-10 
vn 0.21497 0.976621 5.3796e-10 
vn 0.605174 0.796093 4.38519e-10 
vn 0.419889 0.907575 4.99928e-10 
vn 0.762162 0.647386 3.56605e-10 
vn 0.605174 0.796093 4.38519e-10 
vn 0.883512 0.468408 2.58017e-10 
vn 0.762162 0.647386 3.56605e-10 
vn 0.96355 0.267528 1.47365e-10 
vn 0.883512 0.468408 2.58017e-10 
vn 0.998533 0.0541389 2.98216e-11 
vn 0.96355 0.267528 1.47365e-10 
vn 0.986827 -0.161782 -8.9116e-11 
vn 0.998533 0.0541389 2.98216e-11 
vn 0.928977 -0.370138 -2.03887e-10 
vn 0.986827 -0.161782 -8.9116e-11 
vn 0.827689 -0.561187 -3.09124e-10 
vn 0.928977 -0.370138 -2.03887e-10 
vn 0.687699 -0.725995 -3.99907e-10 
vn 0.827689 -0.561187 -3.09124e-10 
vn 0.515554 -0.856857 -4.7199e-10 
vn 0.687699 -0.725995 -3.99907e-10 
vn 0.319302 -0.947653 -5.22004e-10 
vn 0.515554 -0.856857 -4.7199e-10 
vn 0.108119 -0.994138 -5.4761e-10 
vn 0.319302 -0.947653 -5.22004e-10 
vn -0.108119 -0.994138 -5.4761e-10 
vn 0.108119 -0.994138 -5.4761e-10 
vn -0.319302 -0.947653 -5.22004e-10 
vn -0.108119 -0.994138 -5.4761e-10 
vn -0.515554 -0.856857 -4.7199e-10 
vn -0.319302 -0.947653 -5.22004e-10 
vn -0.687699 -0.725995 -3.99906e-10 
vn -0.515554 -0.856857 -4.7199e-10 
vn -0.827689 -0.561187 -3.09123e-10 
vn -0.687699 -0.725995 -3.99906e-10 
vn -0.928977 -0.370138 -2.03886e-10 
vn -0.827689 -0.561187 -3.09123e-10 
vn -0.986827 -0.161782 -8.91156e-11 
vn -0.928977 -0.370138 -2.03886e-10 
vn -0.998533 0.0541389 2.9822e-11 
vn -0.986827 -0.161782 -8.91156e-11 
vn -0.96355 0.267528 1.47365e-10 
vn -0.998533 0.0541389 2.9822e-11 
vn -0.883512 0.468408 2.58018e-10 
vn -0.96355 0.267528 1.47365e-10 
vn -0.762162 0.647386 3.56606e-10 
vn -0.883512 0.468408 2.58018e-10 
vn -0.605174 0.796093 4.38519e-10 
vn -0.762162 0.647386 3.56606e-10 
vn -0.419889 0.907575 4.99928e-10 
vn -0.605174 0.796093 4.38519e-10 
vn -0.21497 0.976621 5.37961e-10 
vn -0.419889 0.907575 4.99928e-10 
vn -0.21497 0.976621 5.37961e-10 
f 295//295 296//296 297//297 
f 298//298 295//295 299//299 
f 300//300 298//298 301//301 
f 302//302 300//300 303//303 
f 304//304 302//302 305//305 
f 306//306 304//304 307//307 
f 308//308 306//306 309//309 
f 310//310 308//308 311//311 
f 312//312 310//310 313//313 
f 314//314 312//312 315//315 
f 316//316 314//314 317//317 
f 318//318 316//316 319//319 
f 320//320 318//318 321//321 
f 322//322 320//320 323//323 
f 324//324 322//322 325//325 
f 326//326 324//324 327//327 
f 328//328 326//326 329//329 
f 330//330 328//328 331//331 
f 332//332 330//330 333//333 
f 334//334 332//332 335//335 
f 336//336 334//334 337//337 
f 338//338 336//336 339//339 
f 340//340 338//338 341//341 
f 342//342 340//340 343//343 
f 344//344 342//342 345//345 
f 346//346 344//344 347//347 
f 348//348 346//346 349//349 
f 350//350 348//348 351//351 
f 296//296 350//350 352//352 
f 352//352 297//297 296//296 
f 351//351 352//352 350//350 
f 349//349 351//351 348//348 
f 347//347 349//349 346//346 
f 345//345 347//347 344//344 
f 343//343 345//345 342//342 
f 341//341 343//343 340//340 
f 339//339 341//341 338//338 
f 337//337 339//339 336//336 
f 335//335 337//337 334//334 
f 333//333 335//335 332//332 
f 331//331 333//333 330//330 
f 329//329 331//331 328//328 
f 327//327 329//329 326//326 
f 325//325 327//327 324//324 
f 323//323 325//325 322//322 
f 321//321 323//323 320//320 
f 319//319 321//321 318//318 
f 317//317 319//319 316//316 
f 315//315 317//317 314//314 
f 313//313 315//315 312//312 
f 311//311 313//313 310//310 
f 309//309 311//311 308//308 
f 307//307 309//309 306//306 
f 305//305 307//307 304//304 
f 303//303 305//305 302//302 
f 301//301 303//303 300//300 
f 299//299 301//301 298//298 
f 297//297 299//299 295//295 
o mesh311
v -0.0166278 0.0198228 -0.00392795 
v -0.0161979 0.0197761 -0.00392795 
v -0.0161979 0.0197761 -0.00792795 
v -0.0170377 0.0199609 -0.00392795 
v -0.0166278 0.0198228 -0.00792795 
v -0.0174082 0.0201839 -0.00392795 
v -0.0170377 0.0199609 -0.00792795 
v -0.0177222 0.0204813 -0.00392795 
v -0.0174082 0.0201839 -0.00792795 
v -0.0179649 0.0208393 -0.00392795 
v -0.0177222 0.0204813 -0.00792795 
v -0.018125 0.021241 -0.00392795 
v -0.0179649 0.0208393 -0.00792795 
v -0.018195 0.0216678 -0.00392795 
v -0.018125 0.021241 -0.00792795 
v -0.0181716 0.0220996 -0.00392795 
v -0.018195 0.0216678 -0.00792795 
v -0.0180559 0.0225164 -0.00392795 
v -0.0181716 0.0220996 -0.00792795 
v -0.0178533 0.0228985 -0.00392795 
v -0.0180559 0.0225164 -0.00792795 
v -0.0175733 0.0232281 -0.00392795 
v -0.0178533 0.0228985 -0.00792795 
v -0.017229 0.0234898 -0.00392795 
v -0.0175733 0.0232281 -0.00792795 
v -0.0168365 0.0236714 -0.00392795 
v -0.017229 0.0234898 -0.00792795 
v -0.0164141 0.0237644 -0.00392795 
v -0.0168365 0.0236714 -0.00792795 
v -0.0159817 0.0237644 -0.00392795 
v -0.0164141 0.0237644 -0.00792795 
v -0.0155593 0.0236714 -0.00392795 
v -0.0159817 0.0237644 -0.00792795 
v -0.0151668 0.0234898 -0.00392795 
v -0.0155593 0.0236714 -0.00792795 
v -0.0148225 0.0232281 -0.00392795 
v -0.0151668 0.0234898 -0.00792795 
v -0.0145425 0.0228985 -0.00392795 
v -0.0148225 0.0232281 -0.00792795 
v -0.0143399 0.0225164 -0.00392795 
v -0.0145425 0.0228985 -0.00792795 
v -0.0142242 0.0220996 -0.00392795 
v -0.0143399 0.0225164 -0.00792795 
v -0.0142008 0.0216678 -0.00392795 
v -0.0142242 0.0220996 -0.00792795 
v -0.0142708 0.021241 -0.00392795 
v -0.0142008 0.0216678 -0.00792795 
v -0.0144309 0.0208393 -0.00392795 
v -0.0142708 0.021241 -0.00792795 
v -0.0146736 0.0204813 -0.00392795 
v -0.0144309 0.0208393 -0.00792795 
v -0.0149876 0.0201839 -0.00392795 
v -0.0146736 0.0204813 -0.00792795 
v -0.0153581 0.0199609 -0.00392795 
v -0.0149876 0.0201839 -0.00792795 
v -0.015768 0.0198228 -0.00392795 
v -0.0153581 0.0199609 -0.00792795 
v -0.015768 0.0198228 -0.00792795 
vn 0.21497 0.976621 5.3796e-10 
vn 2.44929e-16 1 5.50839e-10 
vn 2.44929e-16 1 5.50839e-10 
vn 0.419889 0.907575 4.99928e-10 
vn 0.21497 0.976621 5.3796e-10 
vn 0.605174 0.796093 4.38519e-10 
vn 0.419889 0.907575 4.99928e-10 
vn 0.762162 0.647386 3.56605e-10 
vn 0.605174 0.796093 4.38519e-10 
vn 0.883512 0.468408 2.58017e-10 
vn 0.762162 0.647386 3.56605e-10 
vn 0.96355 0.267528 1.47365e-10 
vn 0.883512 0.468408 2.58017e-10 
vn 0.998533 0.0541389 2.98216e-11 
vn 0.96355 0.267528 1.47365e-10 
vn 0.986827 -0.161782 -8.9116e-11 
vn 0.998533 0.0541389 2.98216e-11 
vn 0.928977 -0.370138 -2.03887e-10 
vn 0.986827 -0.161782 -8.9116e-11 
vn 0.827689 -0.561187 -3.09124e-10 
vn 0.928977 -0.370138 -2.03887e-10 
vn 0.687699 -0.725995 -3.99907e-10 
vn 0.827689 -0.561187 -3.09124e-10 
vn 0.515554 -0.856857 -4.7199e-10 
vn 0.687699 -0.725995 -3.99907e-10 
vn 0.319302 -0.947653 -5.22004e-10 
vn 0.515554 -0.856857 -4.7199e-10 
vn 0.108119 -0.994138 -5.4761e-10 
vn 0.319302 -0.947653 -5.22004e-10 
vn -0.108119 -0.994138 -5.4761e-10 
vn 0.108119 -0.994138 -5.4761e-10 
vn -0.319302 -0.947653 -5.22004e-10 
vn -0.108119 -0.994138 -5.4761e-10 
vn -0.515554 -0.856857 -4.7199e-10 
vn -0.319302 -0.947653 -5.22004e-10 
vn -0.687699 -0.725995 -3.99906e-10 
vn -0.515554 -0.856857 -4.7199e-10 
vn -0.827689 -0.561187 -3.09123e-10 
vn -0.687699 -0.725995 -3.99906e-10 
vn -0.928977 -0.370138 -2.03886e-10 
vn -0.827689 -0.561187 -3.09123e-10 
vn -0.986827 -0.161782 -8.91156e-11 
vn -0.928977 -0.370138 -2.03886e-10 
vn -0.998533 0.0541389 2.9822e-11 
vn -0.986827 -0.161782 -8.91156e-11 
vn -0.96355 0.267528 1.47365e-10 
vn -0.998533 0.0541389 2.9822e-11 
vn -0.883512 0.468408 2.58018e-10 
vn -0.96355 0.267528 1.47365e-10 
vn -0.762162 0.647386 3.56606e-10 
vn -0.883512 0.468408 2.58018e-10 
vn -0.605174 0.796093 4.38519e-10 
vn -0.762162 0.647386 3.56606e-10 
vn -0.419889 0.907575 4.99928e-10 
vn -0.605174 0.796093 4.38519e-10 
vn -0.21497 0.976621 5.37961e-10 
vn -0.419889 0.907575 4.99928e-10 
vn -0.21497 0.976621 5.37961e-10 
f 353//353 354//354 355//355 
f 356//356 353//353 357//357 
f 358//358 356//356 359//359 
f 360//360 358//358 361//361 
f 362//362 360//360 363//363 
f 364//364 362//362 365//365 
f 366//366 364//364 367//367 
f 368//368 366//366 369//369 
f 370//370 368//368 371//371 
f 372//372 370//370 373//373 
f 374//374 372//372 375//375 
f 376//376 374//374 377//377 
f 378//378 376//376 379//379 
f 380//380 378//378 381//381 
f 382//382 380//380 383//383 
f 384//384 382//382 385//385 
f 386//386 384//384 387//387 
f 388//388 386//386 389//389 
f 390//390 388//388 391//391 
f 392//392 390//390 393//393 
f 394//394 392//392 395//395 
f 396//396 394//394 397//397 
f 398//398 396//396 399//399 
f 400//400 398//398 401//401 
f 402//402 400//400 403//403 
f 404//404 402//402 405//405 
f 406//406 404//404 407//407 
f 408//408 406//406 409//409 
f 354//354 408//408 410//410 
f 410//410 355//355 354//354 
f 409//409 410//410 408//408 
f 407//407 409//409 406//406 
f 405//405 407//407 404//404 
f 403//403 405//405 402//402 
f 401//401 403//403 400//400 
f 399//399 401//401 398//398 
f 397//397 399//399 396//396 
f 395//395 397//397 394//394 
f 393//393 395//395 392//392 
f 391//391 393//393 390//390 
f 389//389 391//391 388//388 
f 387//387 389//389 386//386 
f 385//385 387//387 384//384 
f 383//383 385//385 382//382 
f 381//381 383//383 380//380 
f 379//379 381//381 378//378 
f 377//377 379//379 376//376 
f 375//375 377//377 374//374 
f 373//373 375//375 372//372 
f 371//371 373//373 370//370 
f 369//369 371//371 368//368 
f 367//367 369//369 366//366 
f 365//365 367//367 364//364 
f 363//363 365//365 362//362 
f 361//361 363//363 360//360 
f 359//359 361//361 358//358 
f 357//357 359//359 356//356 
f 355//355 357//357 353//353 
o mesh312
v -0.0153581 0.0199609 -0.00392795 
v -0.0134092 0.0178342 -0.00392795 
v -0.0132646 0.0181323 -0.00392795 
v -0.018545 0.0293265 -0.00392795 
v -0.0180559 0.0225164 -0.00392795 
v -0.0178533 0.0228985 -0.00392795 
v -0.0203591 0.0178794 -0.00392795 
v -0.0181716 0.0220996 -0.00392795 
v -0.0435037 0.0278976 -0.00392795 
v -0.0455328 0.031311 -0.00392795 
v -0.0456196 0.030982 -0.00392795 
v -0.0147838 0.0170287 -0.00392795 
v -0.0144557 0.0170741 -0.00392795 
v -0.015768 0.0198228 -0.00392795 
v -0.0151145 0.0170482 -0.00392795 
v -0.0136092 0.0175701 -0.00392795 
v -0.0141426 0.0171826 -0.00392795 
v -0.0138568 0.0173501 -0.00392795 
v -0.0151668 0.0234898 -0.00392795 
v -0.0120688 0.0263365 -0.00392795 
v -0.0121845 0.0266564 -0.00392795 
v -0.0128711 0.0273929 -0.00392795 
v -0.0159817 0.0237644 -0.00392795 
v -0.0179649 0.0208393 -0.00392795 
v -0.018125 0.021241 -0.00392795 
v -0.0174082 0.0201839 -0.00392795 
v -0.0177222 0.0204813 -0.00392795 
v -0.0166278 0.0198228 -0.00392795 
v -0.0430813 0.0279906 -0.00392795 
v -0.0446167 0.0322706 -0.00392795 
v -0.0449143 0.0321057 -0.00392795 
v -0.0453818 0.0316159 -0.00392795 
v -0.0451728 0.0318845 -0.00392795 
v -0.012362 0.0269467 -0.00392795 
v -0.0148225 0.0232281 -0.00392795 
v -0.0120195 0.0259998 -0.00392795 
v -0.0155593 0.0236714 -0.00392795 
v -0.0175733 0.0232281 -0.00392795 
v -0.017229 0.0234898 -0.00392795 
v -0.018195 0.0216678 -0.00392795 
v -0.0170377 0.0199609 -0.00392795 
v -0.0382985 0.032457 -0.00392795 
v -0.0412097 0.0271247 -0.00392795 
v -0.0410071 0.0267426 -0.00392795 
v -0.041834 0.027716 -0.00392795 
v -0.0414897 0.0274543 -0.00392795 
v -0.0442921 0.0323726 -0.00392795 
v -0.0426488 0.0279906 -0.00392795 
v -0.0467618 0.0237748 -0.00392795 
v -0.0448387 0.0263259 -0.00392795 
v -0.0443894 0.0247076 -0.00392795 
v -0.0446321 0.0250655 -0.00392795 
v -0.0440754 0.0244101 -0.00392795 
v -0.04646 0.022517 -0.00392795 
v -0.0462399 0.0222694 -0.00392795 
v -0.0466275 0.0228029 -0.00392795 
v -0.0456777 0.0219248 -0.00392795 
v -0.0453572 0.0218411 -0.00392795 
v -0.0149876 0.0201839 -0.00392795 
v -0.0131809 0.0184528 -0.00392795 
v -0.0142708 0.021241 -0.00392795 
v -0.0144309 0.0208393 -0.00392795 
v -0.0120387 0.0256601 -0.00392795 
v -0.0145425 0.0228985 -0.00392795 
v -0.0143399 0.0225164 -0.00392795 
v -0.0164141 0.0237644 -0.00392795 
v -0.0168365 0.0236714 -0.00392795 
v -0.0161979 0.0197761 -0.00392795 
v -0.0401126 0.02101 -0.00392795 
v -0.0413408 0.0247076 -0.00392795 
v -0.0416547 0.0244101 -0.00392795 
v -0.040938 0.0254673 -0.00392795 
v -0.0410981 0.0250655 -0.00392795 
v -0.0422265 0.0278976 -0.00392795 
v -0.0438962 0.027716 -0.00392795 
v -0.0445205 0.0271247 -0.00392795 
v -0.0442405 0.0274543 -0.00392795 
v -0.044723 0.0267426 -0.00392795 
v -0.0467813 0.0234441 -0.00392795 
v -0.0459758 0.0220694 -0.00392795 
v -0.0146736 0.0204813 -0.00392795 
v -0.0142008 0.0216678 -0.00392795 
v -0.012594 0.0271956 -0.00392795 
v -0.0202573 0.0307601 -0.00392795 
v -0.0281276 0.0327476 -0.00392795 
v -0.0420253 0.0241872 -0.00392795 
v -0.0424351 0.0240491 -0.00392795 
v -0.040868 0.0258941 -0.00392795 
v -0.0447922 0.0254673 -0.00392795 
v -0.0448622 0.0258941 -0.00392795 
v -0.046736 0.0231159 -0.00392795 
v -0.0437049 0.0241872 -0.00392795 
v -0.0142242 0.0220996 -0.00392795 
v -0.0408914 0.0263259 -0.00392795 
v -0.043295 0.0240491 -0.00392795 
v -0.0362268 0.033291 -0.00392795 
v -0.0428651 0.0240023 -0.00392795 
vn 1.75246e-16 -5.50839e-10 1 
vn 1.75246e-16 -5.50839e-10 1 
vn 1.75246e-16 -5.50839e-10 1 
vn 1.75246e-16 -5.50839e-10 1 
vn 1.75246e-16 -5.50839e-10 1 
vn 1.75246e-16 -5.50839e-10 1 
vn 1.75246e-16 -5.50839e-10 1 
vn 1.75246e-16 -5.50839e-10 1 
vn 1.75246e-16 -5.50839e-10 1 
vn 1.75246e-16 -5.50839e-10 1 
vn 1.75246e-16 -5.50839e-10 1 
vn 1.75246e-16 -5.50839e-10 1 
vn 1.75246e-16 -5.50839e-10 1 
vn 1.75246e-16 -5.50839e-10 1 
vn 1.75246e-16 -5.50839e-10 1 
vn 1.75246e-16 -5.50839e-10 1 
vn 1.75246e-16 -5.50839e-10 1 
vn 1.75246e-16 -5.50839e-10 1 
vn 1.75246e-16 -5.50839e-10 1 
vn 1.75246e-16 -5.50839e-10 1 
vn 1.75246e-16 -5.50839e-10 1 
vn 1.75246e-16 -5.50839e-10 1 
vn 1.75246e-16 -5.50839e-10 1 
vn 1.75246e-16 -5.50839e-10 1 
vn 1.75246e-16 -5.50839e-10 1 
vn 1.75246e-16 -5.50839e-10 1 
vn 1.75246e-16 -5.50839e-10 1 
vn 1.75246e-16 -5.50839e-10 1 
vn 1.75246e-16 -5.50839e-10 1 
vn 1.75246e-16 -5.50839e-10 1 
vn 1.75246e-16 -5.50839e-10 1 
vn 1.75246e-16 -5.50839e-10 1 
vn 1.75246e-16 -5.50839e-10 1 
vn 1.75246e-16 -5.50839e-10 1 
vn 1.75246e-16 -5.50839e-10 1 
vn 1.75246e-16 -5.50839e-10 1 
vn 1.75246e-16 -5.50839e-10 1 
vn 1.75246e-16 -5.50839e-10 1 
vn 1.75246e-16 -5.50839e-10 1 
vn 1.75246e-16 -5.50839e-10 1 
vn 1.75246e-16 -5.50839e-10 1 
vn 1.75246e-16 -5.50839e-10 1 
vn 1.75246e-16 -5.50839e-10 1 
vn 1.75246e-16 -5.50839e-10 1 
vn 1.75246e-16 -5.50839e-10 1 
vn 1.75246e-16 -5.50839e-10 1 
vn 1.75246e-16 -5.50839e-10 1 
vn 1.75246e-16 -5.50839e-10 1 
vn 1.75246e-16 -5.50839e-10 1 
vn 1.75246e-16 -5.50839e-10 1 
vn 1.75246e-16 -5.50839e-10 1 
vn 1.75246e-16 -5.50839e-10 1 
vn 1.75246e-16 -5.50839e-10 1 
vn 1.75246e-16 -5.50839e-10 1 
vn 1.75246e-16 -5.50839e-10 1 
vn 1.75246e-16 -5.50839e-10 1 
vn 1.75246e-16 -5.50839e-10 1 
vn 1.75246e-16 -5.50839e-10 1 
vn 1.75246e-16 -5.50839e-10 1 
vn 1.75246e-16 -5.50839e-10 1 
vn 1.75246e-16 -5.50839e-10 1 
vn 1.75246e-16 -5.50839e-10 1 
vn 1.75246e-16 -5.50839e-10 1 
vn 1.75246e-16 -5.50839e-10 1 
vn 1.75246e-16 -5.50839e-10 1 
vn 1.75246e-16 -5.50839e-10 1 
vn 1.75246e-16 -5.50839e-10 1 
vn 1.75246e-16 -5.50839e-10 1 
vn 1.75246e-16 -5.50839e-10 1 
vn 1.75246e-16 -5.50839e-10 1 
vn 1.75246e-16 -5.50839e-10 1 
vn 1.75246e-16 -5.50839e-10 1 
vn 1.75246e-16 -5.50839e-10 1 
vn 1.75246e-16 -5.50839e-10 1 
vn 1.75246e-16 -5.50839e-10 1 
vn 1.75246e-16 -5.50839e-10 1 
vn 1.75246e-16 -5.50839e-10 1 
vn 1.75246e-16 -5.50839e-10 1 
vn 1.75246e-16 -5.50839e-10 1 
vn 1.75246e-16 -5.50839e-10 1 
vn 1.75246e-16 -5.50839e-10 1 
vn 1.75246e-16 -5.50839e-10 1 
vn 1.75246e-16 -5.50839e-10 1 
vn 1.75246e-16 -5.50839e-10 1 
vn 1.75246e-16 -5.50839e-10 1 
vn 1.75246e-16 -5.50839e-10 1 
vn 1.75246e-16 -5.50839e-10 1 
vn 1.75246e-16 -5.50839e-10 1 
vn 1.75246e-16 -5.50839e-10 1 
vn 1.75246e-16 -5.50839e-10 1 
vn 1.75246e-16 -5.50839e-10 1 
vn 1.75246e-16 -5.50839e-10 1 
vn 1.75246e-16 -5.50839e-10 1 
vn 1.75246e-16 -5.50839e-10 1 
vn 1.75246e-16 -5.50839e-10 1 
vn 1.75246e-16 -5.50839e-10 1 
vn 1.75246e-16 -5.50839e-10 1 
f 411//411 412//412 413//413 
f 414//414 415//415 416//416 
f 414//414 417//417 418//418 
f 419//419 420//420 421//421 
f 411//411 422//422 423//423 
f 411//411 424//424 425//425 
f 411//411 426//426 412//412 
f 411//411 427//427 428//428 
f 429//429 430//430 431//431 
f 432//432 414//414 433//433 
f 418//418 415//415 414//414 
f 417//417 434//434 435//435 
f 417//417 436//436 437//437 
f 417//417 425//425 438//438 
f 439//439 440//440 441//441 
f 419//419 442//442 420//420 
f 419//419 441//441 443//443 
f 425//425 422//422 411//411 
f 428//428 426//426 411//411 
f 431//431 444//444 429//429 
f 429//429 445//445 446//446 
f 433//433 447//447 432//432 
f 414//414 448//448 449//449 
f 417//417 450//450 418//418 
f 437//437 434//434 417//417 
f 438//438 451//451 417//417 
f 452//452 453//453 454//454 
f 452//452 455//455 456//456 
f 452//452 457//457 458//458 
f 439//439 457//457 440//440 
f 443//443 442//442 419//419 
f 421//421 459//459 460//460 
f 461//461 462//462 459//459 
f 463//463 464//464 465//465 
f 463//463 461//461 466//466 
f 463//463 467//467 468//468 
f 413//413 469//469 411//411 
f 469//469 413//413 470//470 
f 470//470 471//471 472//472 
f 473//473 474//474 475//475 
f 445//445 474//474 473//473 
f 446//446 430//430 429//429 
f 414//414 476//476 433//433 
f 449//449 477//477 414//414 
f 435//435 450//450 417//417 
f 425//425 478//478 438//438 
f 479//479 480//480 481//481 
f 479//479 482//482 483//483 
f 456//456 453//453 452//452 
f 458//458 484//484 452//452 
f 421//421 485//485 419//419 
f 421//421 486//486 487//487 
f 460//460 488//488 421//421 
f 459//459 489//489 461//461 
f 466//466 464//464 463//463 
f 463//463 490//490 467//467 
f 423//423 427//427 411//411 
f 472//472 491//491 470//470 
f 470//470 473//473 492//492 
f 473//473 446//446 445//445 
f 444//444 493//493 429//429 
f 477//477 476//476 414//414 
f 451//451 436//436 417//417 
f 414//414 494//494 495//495 
f 479//479 496//496 497//497 
f 483//483 480//480 479//479 
f 479//479 452//452 498//498 
f 484//484 455//455 452//452 
f 441//441 419//419 439//439 
f 488//488 486//486 421//421 
f 459//459 499//499 500//500 
f 489//489 501//501 461//461 
f 468//468 502//502 463//463 
f 470//470 491//491 469//469 
f 473//473 503//503 492//492 
f 493//493 432//432 429//429 
f 416//416 448//448 414//414 
f 495//495 452//452 414//414 
f 481//481 496//496 479//479 
f 452//452 504//504 498//498 
f 439//439 458//458 457//457 
f 500//500 460//460 459//459 
f 501//501 466//466 461//461 
f 468//468 505//505 502//502 
f 492//492 471//471 470//470 
f 447//447 429//429 432//432 
f 506//506 457//457 452//452 
f 498//498 482//482 479//479 
f 487//487 485//485 421//421 
f 465//465 490//490 463//463 
f 468//468 479//479 507//507 
f 475//475 503//503 473//473 
f 495//495 506//506 452//452 
f 454//454 504//504 452//452 
f 507//507 505//505 468//468 
f 414//414 432//432 494//494 
f 462//462 499//499 459//459 
f 497//497 507//507 479//479 
f 424//424 478//478 425//425 
o mesh313
v -0.0453572 0.0218411 -0.00792795 
v -0.0203591 0.0178794 -0.00392795 
v -0.0401126 0.02101 -0.00392795 
v -0.0203591 0.0178794 0.0100383 
v -0.0401126 0.02101 0.0100383 
v -0.0151145 0.0170482 -0.00792795 
v -0.0151145 0.0170482 -0.00392795 
v -0.0453572 0.0218411 -0.00392795 
vn -0.156528 -0.987674 -5.44049e-10 
vn -0.156528 -0.987674 -5.44049e-10 
vn -0.156528 -0.987674 -5.44049e-10 
vn -0.156528 -0.987674 -5.44049e-10 
vn -0.156528 -0.987674 -5.44049e-10 
vn -0.156528 -0.987674 -5.44049e-10 
vn -0.156528 -0.987674 -5.44049e-10 
vn -0.156528 -0.987674 -5.44049e-10 
f 508//508 509//509 510//510 
f 511//511 512//512 510//510 
f 510//510 509//509 511//511 
f 513//513 514//514 509//509 
f 509//509 508//508 513//513 
f 510//510 515//515 508//508 
o mesh314
v -0.0185966 0.0290009 -0.00389548 
v -0.018545 0.0293265 -0.00392795 
v -0.0382985 0.032457 -0.00392795 
v -0.0186462 0.0286877 -0.00379931 
v -0.0383501 0.0321314 -0.00389548 
v -0.0186919 0.0283992 -0.00364314 
v -0.0383997 0.0318183 -0.00379931 
v -0.018732 0.0281462 -0.00343298 
v -0.0384454 0.0315297 -0.00364314 
v -0.0187649 0.0279387 -0.00317689 
v -0.0384855 0.0312768 -0.00343298 
v -0.0187894 0.0277844 -0.00288472 
v -0.0385184 0.0310692 -0.00317689 
v -0.0188044 0.0276894 -0.00256769 
v -0.0385428 0.030915 -0.00288472 
v -0.0188095 0.0276574 -0.002238 
v -0.0385579 0.03082 -0.00256769 
v -0.038563 0.0307879 -0.002238 
vn 0.0305371 0.192686 0.980785 
vn 9.85471e-16 -5.50834e-10 1 
vn 9.85471e-16 -5.50834e-10 1 
vn 0.0599006 0.377966 0.92388 
vn 0.0305371 0.192686 0.980785 
vn 0.0869622 0.548722 0.83147 
vn 0.0599006 0.377966 0.92388 
vn 0.110682 0.698391 0.707107 
vn 0.0869622 0.548722 0.83147 
vn 0.130148 0.821221 0.55557 
vn 0.110682 0.698391 0.707107 
vn 0.144613 0.912491 0.382683 
vn 0.130148 0.821221 0.55557 
vn 0.15352 0.968696 0.19509 
vn 0.144613 0.912491 0.382683 
vn 0.156528 0.987674 5.4405e-10 
vn 0.15352 0.968696 0.19509 
vn 0.156528 0.987674 5.4405e-10 
f 516//516 517//517 518//518 
f 519//519 516//516 520//520 
f 521//521 519//519 522//522 
f 523//523 521//521 524//524 
f 525//525 523//523 526//526 
f 527//527 525//525 528//528 
f 529//529 527//527 530//530 
f 531//531 529//529 532//532 
f 532//532 533//533 531//531 
f 530//530 532//532 529//529 
f 528//528 530//530 527//527 
f 526//526 528//528 525//525 
f 524//524 526//526 523//523 
f 522//522 524//524 521//521 
f 520//520 522//522 519//519 
f 518//518 520//520 516//516 
o mesh315
v -0.038563 0.0307879 -0.002238 
v -0.038563 0.0307879 0.00503829 
v -0.0188095 0.0276574 0.00503829 
v -0.0188095 0.0276574 -0.002238 
vn 0.156528 0.987674 5.4405e-10 
vn 0.156528 0.987674 5.4405e-10 
vn 0.156528 0.987674 5.4405e-10 
vn 0.156528 0.987674 5.4405e-10 
f 534//534 535//535 536//536 
f 536//536 537//537 534//534 
o mesh316
v -0.0200946 0.0195485 0.0117282 
v -0.0398481 0.0226791 0.0117282 
v -0.0398997 0.0223534 0.0116958 
v -0.0201462 0.0192229 0.0116958 
v -0.0399493 0.0220403 0.0115996 
v -0.0201958 0.0189098 0.0115996 
v -0.039995 0.0217518 0.0114434 
v -0.0202416 0.0186212 0.0114434 
v -0.0400351 0.0214988 0.0112333 
v -0.0202817 0.0183683 0.0112333 
v -0.040068 0.0212913 0.0109772 
v -0.0203146 0.0181607 0.0109772 
v -0.0400925 0.021137 0.010685 
v -0.020339 0.0180065 0.010685 
v -0.0401075 0.021042 0.010368 
v -0.0203541 0.0179115 0.010368 
v -0.0401126 0.02101 0.0100383 
v -0.0203591 0.0178794 0.0100383 
vn -6.55869e-16 -5.50844e-10 1 
vn -6.55869e-16 -5.50844e-10 1 
vn -0.0305371 -0.192686 0.980785 
vn -0.0305371 -0.192686 0.980785 
vn -0.0599006 -0.377966 0.92388 
vn -0.0599006 -0.377966 0.92388 
vn -0.0869622 -0.548722 0.83147 
vn -0.0869622 -0.548722 0.83147 
vn -0.110682 -0.698391 0.707107 
vn -0.110682 -0.698391 0.707107 
vn -0.130148 -0.821221 0.55557 
vn -0.130148 -0.821221 0.55557 
vn -0.144613 -0.912491 0.382683 
vn -0.144613 -0.912491 0.382683 
vn -0.15352 -0.968696 0.19509 
vn -0.15352 -0.968696 0.19509 
vn -0.156528 -0.987674 -5.44051e-10 
vn -0.156528 -0.987674 -5.44051e-10 
f 538//538 539//539 540//540 
f 541//541 540//540 542//542 
f 543//543 542//542 544//544 
f 545//545 544//544 546//546 
f 547//547 546//546 548//548 
f 549//549 548//548 550//550 
f 551//551 550//550 552//552 
f 553//553 552//552 554//554 
f 554//554 555//555 553//553 
f 552//552 553//553 551//551 
f 550//550 551//551 549//549 
f 548//548 549//549 547//547 
f 546//546 547//547 545//545 
f 544//544 545//545 543//543 
f 542//542 543//543 541//541 
f 540//540 541//541 538//538 
o mesh317
v -0.0200946 0.0195485 0.0117282 
v -0.019074 0.0259882 0.0117282 
v -0.0388275 0.0291188 0.0117282 
v -0.0398481 0.0226791 0.0117282 
vn 6.39902e-17 -5.50839e-10 1 
vn 6.39902e-17 -5.50839e-10 1 
vn 6.39902e-17 -5.50839e-10 1 
vn 6.39902e-17 -5.50839e-10 1 
f 556//556 557//557 558//558 
f 558//558 559//559 556//556 
o mesh318
v -0.0188146 0.0276253 0.0130885 
v -0.0188095 0.0276574 0.0134182 
v -0.038563 0.0307879 0.0134182 
v -0.0188296 0.0275303 0.0127715 
v -0.0385681 0.0307558 0.0130885 
v -0.0188541 0.0273761 0.0124793 
v -0.0385831 0.0306609 0.0127715 
v -0.018887 0.0271685 0.0122232 
v -0.0386076 0.0305066 0.0124793 
v -0.0189271 0.0269156 0.012013 
v -0.0386405 0.030299 0.0122232 
v -0.0189728 0.026627 0.0118569 
v -0.0386805 0.0300461 0.012013 
v -0.0190224 0.0263139 0.0117607 
v -0.0387263 0.0297575 0.0118569 
v -0.019074 0.0259882 0.0117282 
v -0.0387759 0.0294444 0.0117607 
v -0.0388275 0.0291188 0.0117282 
vn -0.15352 -0.968696 0.19509 
vn -0.156528 -0.987674 -5.44051e-10 
vn -0.156528 -0.987674 -5.44051e-10 
vn -0.144613 -0.912491 0.382683 
vn -0.15352 -0.968696 0.19509 
vn -0.130148 -0.821221 0.55557 
vn -0.144613 -0.912491 0.382683 
vn -0.110682 -0.698391 0.707107 
vn -0.130148 -0.821221 0.55557 
vn -0.0869622 -0.548722 0.83147 
vn -0.110682 -0.698391 0.707107 
vn -0.0599006 -0.377966 0.92388 
vn -0.0869622 -0.548722 0.83147 
vn -0.0305371 -0.192686 0.980785 
vn -0.0599006 -0.377966 0.92388 
vn 9.27327e-16 -5.50834e-10 1 
vn -0.0305371 -0.192686 0.980785 
vn 9.27327e-16 -5.50834e-10 1 
f 560//560 561//561 562//562 
f 563//563 560//560 564//564 
f 565//565 563//563 566//566 
f 567//567 565//565 568//568 
f 569//569 567//567 570//570 
f 571//571 569//569 572//572 
f 573//573 571//571 574//574 
f 575//575 573//573 576//576 
f 576//576 577//577 575//575 
f 574//574 576//576 573//573 
f 572//572 574//574 571//571 
f 570//570 572//572 569//569 
f 568//568 570//570 567//567 
f 566//566 568//568 565//565 
f 564//564 566//566 563//563 
f 562//562 564//564 560//560 
o mesh319
v -0.0383501 0.0321314 0.00669577 
v -0.0382985 0.032457 0.00672824 
v -0.018545 0.0293265 0.00672824 
v -0.0383997 0.0318183 0.0065996 
v -0.0185966 0.0290009 0.00669577 
v -0.0384454 0.0315297 0.00644343 
v -0.0186462 0.0286877 0.0065996 
v -0.0384855 0.0312768 0.00623327 
v -0.0186919 0.0283992 0.00644343 
v -0.0385184 0.0310692 0.00597718 
v -0.018732 0.0281462 0.00623327 
v -0.0385428 0.030915 0.00568501 
v -0.0187649 0.0279387 0.00597718 
v -0.0385579 0.03082 0.00536798 
v -0.0187894 0.0277844 0.00568501 
v -0.038563 0.0307879 0.00503829 
v -0.0188044 0.0276894 0.00536798 
v -0.0188095 0.0276574 0.00503829 
vn 0.0305371 0.192686 -0.980785 
vn 5.78882e-16 5.50843e-10 -1 
vn 5.78882e-16 5.50843e-10 -1 
vn 0.0599006 0.377966 -0.92388 
vn 0.0305371 0.192686 -0.980785 
vn 0.0869622 0.548722 -0.83147 
vn 0.0599006 0.377966 -0.92388 
vn 0.110682 0.698391 -0.707107 
vn 0.0869622 0.548722 -0.83147 
vn 0.130148 0.821221 -0.55557 
vn 0.110682 0.698391 -0.707107 
vn 0.144613 0.912491 -0.382683 
vn 0.130148 0.821221 -0.55557 
vn 0.15352 0.968696 -0.19509 
vn 0.144613 0.912491 -0.382683 
vn 0.156528 0.987674 -1.86718e-27 
vn 0.15352 0.968696 -0.19509 
vn 0.156528 0.987674 -1.86718e-27 
f 578//578 579//579 580//580 
f 581//581 578//578 582//582 
f 583//583 581//581 584//584 
f 585//585 583//583 586//586 
f 587//587 585//585 588//588 
f 589//589 587//587 590//590 
f 591//591 589//589 592//592 
f 593//593 591//591 594//594 
f 594//594 595//595 593//593 
f 592//592 594//594 591//591 
f 590//590 592//592 589//589 
f 588//588 590//590 587//587 
f 586//586 588//588 585//585 
f 584//584 586//586 583//583 
f 582//582 584//584 581//581 
f 580//580 582//582 578//578 
o mesh320
v -0.0181349 0.0319143 0.00672824 
v -0.018545 0.0293265 0.00672824 
v -0.0382985 0.032457 0.00672824 
v -0.0378883 0.0350448 0.00672824 
vn -9.06341e-17 5.50839e-10 -1 
vn -9.06341e-17 5.50839e-10 -1 
vn -9.06341e-17 5.50839e-10 -1 
vn -9.06341e-17 5.50839e-10 -1 
f 596//596 597//597 598//598 
f 598//598 599//599 596//596 
o mesh321
v -0.0181349 0.0319143 0.00672824 
v -0.0378883 0.0350448 0.00672824 
v -0.0378367 0.0353705 0.00676071 
v -0.0180833 0.0322399 0.00676071 
v -0.0377871 0.0356836 0.00685688 
v -0.0180336 0.032553 0.00685688 
v -0.0377414 0.0359722 0.00701305 
v -0.0179879 0.0328416 0.00701305 
v -0.0377013 0.0362251 0.00722321 
v -0.0179478 0.0330945 0.00722321 
v -0.0376684 0.0364327 0.0074793 
v -0.0179149 0.0333021 0.0074793 
v -0.0376439 0.0365869 0.00777147 
v -0.0178905 0.0334564 0.00777147 
v -0.0376289 0.0366819 0.0080885 
v -0.0178754 0.0335513 0.0080885 
v -0.0376238 0.036714 0.00841819 
v -0.0178703 0.0335834 0.00841819 
vn -9.06341e-17 5.50839e-10 -1 
vn -9.06341e-17 5.50839e-10 -1 
vn 0.0305371 0.192686 -0.980785 
vn 0.0305371 0.192686 -0.980785 
vn 0.0599006 0.377966 -0.92388 
vn 0.0599006 0.377966 -0.92388 
vn 0.0869622 0.548722 -0.83147 
vn 0.0869622 0.548722 -0.83147 
vn 0.110682 0.698391 -0.707107 
vn 0.110682 0.698391 -0.707107 
vn 0.130148 0.821221 -0.55557 
vn 0.130148 0.821221 -0.55557 
vn 0.144613 0.912491 -0.382683 
vn 0.144613 0.912491 -0.382683 
vn 0.15352 0.968696 -0.19509 
vn 0.15352 0.968696 -0.19509 
vn 0.156528 0.987674 5.44051e-10 
vn 0.156528 0.987674 5.44051e-10 
f 600//600 601//601 602//602 
f 603//603 602//602 604//604 
f 605//605 604//604 606//606 
f 607//607 606//606 608//608 
f 609//609 608//608 610//610 
f 611//611 610//610 612//612 
f 613//613 612//612 614//614 
f 615//615 614//614 616//616 
f 616//616 617//617 615//615 
f 614//614 615//615 613//613 
f 612//612 613//613 611//611 
f 610//610 611//611 609//609 
f 608//608 609//609 607//607 
f 606//606 607//607 605//605 
f 604//604 605//605 603//603 
f 602//602 603//603 600//600 
o mesh322
v -0.0200946 0.0195485 0.0117282 
v -0.0201958 0.0189098 0.0115996 
v -0.0202416 0.0186212 0.0114434 
v -0.0202817 0.0183683 0.0112333 
v -0.0203146 0.0181607 0.0109772 
v -0.0201462 0.0192229 0.0116958 
v -0.0190224 0.0263139 0.0117607 
v -0.0187894 0.0277844 0.00568501 
v -0.0187649 0.0279387 0.00597718 
v -0.018887 0.0271685 0.0122232 
v -0.0179149 0.0333021 0.0074793 
v -0.0178905 0.0334564 0.00777147 
v -0.0179879 0.0328416 0.00701305 
v -0.0179478 0.0330945 0.00722321 
v -0.020339 0.0180065 0.010685 
v -0.018732 0.0281462 0.00623327 
v -0.0178703 0.0335834 0.046072 
v -0.0188095 0.0276574 0.046072 
v -0.0188095 0.0276574 0.0134182 
v -0.0203591 0.0178794 -0.00392795 
v -0.0188095 0.0276574 -0.002238 
v -0.0188095 0.0276574 0.00503829 
v -0.0203541 0.0179115 0.010368 
v -0.0188044 0.0276894 0.00536798 
v -0.019074 0.0259882 0.0117282 
v -0.0186919 0.0283992 0.00644343 
v -0.0186462 0.0286877 0.0065996 
v -0.0185966 0.0290009 0.00669577 
v -0.0189271 0.0269156 0.012013 
v -0.0189728 0.026627 0.0118569 
v -0.0181349 0.0319143 0.00672824 
v -0.0180833 0.0322399 0.00676071 
v -0.018545 0.0293265 0.00672824 
v -0.0178754 0.0335513 0.0080885 
v -0.0178703 0.0335834 0.00841819 
v -0.0180336 0.032553 0.00685688 
v -0.0188044 0.0276894 -0.00256769 
v -0.0203591 0.0178794 0.0100383 
v -0.0188146 0.0276253 0.0130885 
v -0.018545 0.0293265 -0.00392795 
v -0.0185966 0.0290009 -0.00389548 
v -0.0188541 0.0273761 0.0124793 
v -0.0188296 0.0275303 0.0127715 
v -0.0187894 0.0277844 -0.00288472 
v -0.0186919 0.0283992 -0.00364314 
v -0.018732 0.0281462 -0.00343298 
v -0.0186462 0.0286877 -0.00379931 
v -0.0187649 0.0279387 -0.00317689 
vn 0.987674 -0.156528 -8.62218e-11 
vn 0.987674 -0.156528 -8.62218e-11 
vn 0.987674 -0.156528 -8.62218e-11 
vn 0.987674 -0.156528 -8.62218e-11 
vn 0.987674 -0.156528 -8.62218e-11 
vn 0.987674 -0.156528 -8.62218e-11 
vn 0.987674 -0.156528 -8.62218e-11 
vn 0.987674 -0.156528 -8.62218e-11 
vn 0.987674 -0.156528 -8.62218e-11 
vn 0.987674 -0.156528 -8.62218e-11 
vn 0.987674 -0.156528 -8.62218e-11 
vn 0.987674 -0.156528 -8.62218e-11 
vn 0.987674 -0.156528 -8.62218e-11 
vn 0.987674 -0.156528 -8.62218e-11 
vn 0.987674 -0.156528 -8.62218e-11 
vn 0.987674 -0.156528 -8.62218e-11 
vn 0.987674 -0.156528 -8.62218e-11 
vn 0.987674 -0.156528 -8.62218e-11 
vn 0.987674 -0.156528 -8.62218e-11 
vn 0.987674 -0.156528 -8.62218e-11 
vn 0.987674 -0.156528 -8.62218e-11 
vn 0.987674 -0.156528 -8.62218e-11 
vn 0.987674 -0.156528 -8.62218e-11 
vn 0.987674 -0.156528 -8.62218e-11 
vn 0.987674 -0.156528 -8.62218e-11 
vn 0.987674 -0.156528 -8.62218e-11 
vn 0.987674 -0.156528 -8.62218e-11 
vn 0.987674 -0.156528 -8.62218e-11 
vn 0.987674 -0.156528 -8.62218e-11 
vn 0.987674 -0.156528 -8.62218e-11 
vn 0.987674 -0.156528 -8.62218e-11 
vn 0.987674 -0.156528 -8.62218e-11 
vn 0.987674 -0.156528 -8.62218e-11 
vn 0.987674 -0.156528 -8.62218e-11 
vn 0.987674 -0.156528 -8.62218e-11 
vn 0.987674 -0.156528 -8.62218e-11 
vn 0.987674 -0.156528 -8.62218e-11 
vn 0.987674 -0.156528 -8.62218e-11 
vn 0.987674 -0.156528 -8.62218e-11 
vn 0.987674 -0.156528 -8.62218e-11 
vn 0.987674 -0.156528 -8.62218e-11 
vn 0.987674 -0.156528 -8.62218e-11 
vn 0.987674 -0.156528 -8.62218e-11 
vn 0.987674 -0.156528 -8.62218e-11 
vn 0.987674 -0.156528 -8.62218e-11 
vn 0.987674 -0.156528 -8.62218e-11 
vn 0.987674 -0.156528 -8.62218e-11 
vn 0.987674 -0.156528 -8.62218e-11 
f 618//618 619//619 620//620 
f 618//618 621//621 622//622 
f 618//618 623//623 619//619 
f 620//620 621//621 618//618 
f 624//624 625//625 626//626 
f 627//627 628//628 629//629 
f 627//627 630//630 631//631 
f 622//622 632//632 618//618 
f 626//626 633//633 624//624 
f 631//631 628//628 627//627 
f 634//634 635//635 636//636 
f 637//637 638//638 639//639 
f 632//632 640//640 618//618 
f 641//641 642//642 618//618 
f 624//624 643//643 644//644 
f 624//624 641//641 625//625 
f 645//645 646//646 647//647 
f 627//627 648//648 649//649 
f 627//627 646//646 650//650 
f 627//627 651//651 652//652 
f 627//627 653//653 630//630 
f 636//636 652//652 634//634 
f 637//637 654//654 638//638 
f 618//618 655//655 641//641 
f 633//633 643//643 624//624 
f 647//647 644//644 645//645 
f 650//650 648//648 627//627 
f 629//629 651//651 627//627 
f 636//636 656//656 652//652 
f 639//639 655//655 637//637 
f 637//637 657//657 658//658 
f 641//641 624//624 642//642 
f 645//645 650//650 646//646 
f 652//652 659//659 627//627 
f 656//656 660//660 652//652 
f 637//637 661//661 654//654 
f 637//637 662//662 663//663 
f 658//658 664//664 637//637 
f 644//644 647//647 624//624 
f 660//660 659//659 652//652 
f 637//637 665//665 661//661 
f 664//664 662//662 637//637 
f 649//649 653//653 627//627 
f 663//663 665//665 637//637 
f 639//639 641//641 655//655 
f 640//640 655//655 618//618 
o mesh323
v -0.0400351 0.0214988 0.0112333 
v -0.039995 0.0217518 0.0114434 
v -0.0399493 0.0220403 0.0115996 
v -0.0398997 0.0223534 0.0116958 
v -0.0400925 0.021137 0.010685 
v -0.040068 0.0212913 0.0109772 
v -0.0386405 0.030299 0.0122232 
v -0.0377013 0.0362251 0.00722321 
v -0.0377414 0.0359722 0.00701305 
v -0.0376439 0.0365869 0.00777147 
v -0.0376684 0.0364327 0.0074793 
v -0.0386076 0.0305066 0.0124793 
v -0.0376238 0.036714 0.00841819 
v -0.0387759 0.0294444 0.0117607 
v -0.0385184 0.0310692 0.00597718 
v -0.0385428 0.030915 0.00568501 
v -0.0387263 0.0297575 0.0118569 
v -0.0383997 0.0318183 0.0065996 
v -0.0401126 0.02101 0.0100383 
v -0.0401075 0.021042 0.010368 
v -0.0401126 0.02101 -0.00392795 
v -0.038563 0.0307879 0.00503829 
v -0.0376289 0.0366819 0.0080885 
v -0.0378883 0.0350448 0.00672824 
v -0.0382985 0.032457 0.00672824 
v -0.0377871 0.0356836 0.00685688 
v -0.0378367 0.0353705 0.00676071 
v -0.0383501 0.0321314 0.00669577 
v -0.0384855 0.0312768 0.00623327 
v -0.0384454 0.0315297 0.00644343 
v -0.0385428 0.030915 -0.00288472 
v -0.0385184 0.0310692 -0.00317689 
v -0.038563 0.0307879 -0.002238 
v -0.0376238 0.036714 0.046072 
v -0.038563 0.0307879 0.0134182 
v -0.0386805 0.0300461 0.012013 
v -0.0385579 0.03082 0.00536798 
v -0.0398481 0.0226791 0.0117282 
v -0.0384855 0.0312768 -0.00343298 
v -0.0385681 0.0307558 0.0130885 
v -0.0384454 0.0315297 -0.00364314 
v -0.0385579 0.03082 -0.00256769 
v -0.0385831 0.0306609 0.0127715 
v -0.0388275 0.0291188 0.0117282 
v -0.0383997 0.0318183 -0.00379931 
v -0.0383501 0.0321314 -0.00389548 
v -0.038563 0.0307879 0.046072 
v -0.0382985 0.032457 -0.00392795 
vn -0.987674 0.156528 8.62217e-11 
vn -0.987674 0.156528 8.62217e-11 
vn -0.987674 0.156528 8.62217e-11 
vn -0.987674 0.156528 8.62217e-11 
vn -0.987674 0.156528 8.62217e-11 
vn -0.987674 0.156528 8.62217e-11 
vn -0.987674 0.156528 8.62217e-11 
vn -0.987674 0.156528 8.62217e-11 
vn -0.987674 0.156528 8.62217e-11 
vn -0.987674 0.156528 8.62217e-11 
vn -0.987674 0.156528 8.62217e-11 
vn -0.987674 0.156528 8.62217e-11 
vn -0.987674 0.156528 8.62217e-11 
vn -0.987674 0.156528 8.62217e-11 
vn -0.987674 0.156528 8.62217e-11 
vn -0.987674 0.156528 8.62217e-11 
vn -0.987674 0.156528 8.62217e-11 
vn -0.987674 0.156528 8.62217e-11 
vn -0.987674 0.156528 8.62217e-11 
vn -0.987674 0.156528 8.62217e-11 
vn -0.987674 0.156528 8.62217e-11 
vn -0.987674 0.156528 8.62217e-11 
vn -0.987674 0.156528 8.62217e-11 
vn -0.987674 0.156528 8.62217e-11 
vn -0.987674 0.156528 8.62217e-11 
vn -0.987674 0.156528 8.62217e-11 
vn -0.987674 0.156528 8.62217e-11 
vn -0.987674 0.156528 8.62217e-11 
vn -0.987674 0.156528 8.62217e-11 
vn -0.987674 0.156528 8.62217e-11 
vn -0.987674 0.156528 8.62217e-11 
vn -0.987674 0.156528 8.62217e-11 
vn -0.987674 0.156528 8.62217e-11 
vn -0.987674 0.156528 8.62217e-11 
vn -0.987674 0.156528 8.62217e-11 
vn -0.987674 0.156528 8.62217e-11 
vn -0.987674 0.156528 8.62217e-11 
vn -0.987674 0.156528 8.62217e-11 
vn -0.987674 0.156528 8.62217e-11 
vn -0.987674 0.156528 8.62217e-11 
vn -0.987674 0.156528 8.62217e-11 
vn -0.987674 0.156528 8.62217e-11 
vn -0.987674 0.156528 8.62217e-11 
vn -0.987674 0.156528 8.62217e-11 
vn -0.987674 0.156528 8.62217e-11 
vn -0.987674 0.156528 8.62217e-11 
vn -0.987674 0.156528 8.62217e-11 
vn -0.987674 0.156528 8.62217e-11 
f 666//666 667//667 668//668 
f 669//669 670//670 671//671 
f 672//672 673//673 674//674 
f 672//672 675//675 676//676 
f 672//672 677//677 678//678 
f 679//679 680//680 681//681 
f 679//679 682//682 683//683 
f 671//671 666//666 669//669 
f 669//669 684//684 685//685 
f 686//686 684//684 687//687 
f 676//676 673//673 672//672 
f 678//678 688//688 672//672 
f 672//672 689//689 690//690 
f 672//672 691//691 692//692 
f 693//693 683//683 682//682 
f 679//679 694//694 680//680 
f 683//683 695//695 679//679 
f 685//685 670//670 669//669 
f 686//686 696//696 697//697 
f 687//687 698//698 686//686 
f 699//699 678//678 700//700 
f 688//688 675//675 672//672 
f 692//692 689//689 672//672 
f 701//701 690//690 693//693 
f 695//695 694//694 679//679 
f 702//702 684//684 703//703 
f 668//668 669//669 666//666 
f 697//697 704//704 686//686 
f 684//684 702//702 687//687 
f 678//678 705//705 700//700 
f 690//690 701//701 672//672 
f 681//681 702//702 679//679 
f 669//669 703//703 684//684 
f 704//704 706//706 686//686 
f 698//698 707//707 686//686 
f 678//678 708//708 705//705 
f 682//682 701//701 693//693 
f 703//703 709//709 702//702 
f 686//686 710//710 711//711 
f 707//707 696//696 686//686 
f 678//678 677//677 708//708 
f 709//709 679//679 702//702 
f 706//706 710//710 686//686 
f 674//674 691//691 672//672 
f 700//700 712//712 699//699 
f 711//711 713//713 686//686 
o mesh324
v -0.0188095 0.0276574 0.046072 
v -0.0178703 0.0335834 0.046072 
v -0.0180862 0.0336176 0.0481512 
v -0.0190253 0.0276916 0.0481512 
v -0.0187242 0.0337187 0.0501394 
v -0.0196634 0.0277927 0.0501394 
v -0.0197566 0.0338823 0.0519499 
v -0.0206958 0.0279563 0.0519499 
v -0.0211383 0.0341013 0.0535035 
v -0.0220774 0.0281753 0.0535035 
v -0.0228087 0.034366 0.0547323 
v -0.0237479 0.02844 0.0547323 
v -0.024695 0.034665 0.0555826 
v -0.0256342 0.0287389 0.0555826 
v -0.0267147 0.0349851 0.0560173 
v -0.0276538 0.029059 0.0560173 
v -0.0287795 0.0353123 0.0560173 
v -0.0297186 0.0293863 0.0560173 
v -0.0307992 0.0356324 0.0555826 
v -0.0317383 0.0297063 0.0555826 
v -0.0326854 0.0359313 0.0547323 
v -0.0336246 0.0300053 0.0547323 
v -0.0343559 0.0361961 0.0535035 
v -0.0352951 0.03027 0.0535035 
v -0.0357375 0.036415 0.0519499 
v -0.0366767 0.030489 0.0519499 
v -0.0367699 0.0365786 0.0501394 
v -0.0377091 0.0306526 0.0501394 
v -0.037408 0.0366798 0.0481512 
v -0.0383471 0.0307537 0.0481512 
v -0.0376238 0.036714 0.046072 
v -0.038563 0.0307879 0.046072 
vn 0.987674 -0.156528 0 
vn 0.987674 -0.156528 0 
vn 0.966091 -0.153107 0.207912 
vn 0.966091 -0.153107 0.207912 
vn 0.902285 -0.142995 0.406737 
vn 0.902285 -0.142995 0.406737 
vn 0.799045 -0.126634 0.587785 
vn 0.799045 -0.126634 0.587785 
vn 0.660883 -0.104738 0.743145 
vn 0.660883 -0.104738 0.743145 
vn 0.493837 -0.0782639 0.866025 
vn 0.493837 -0.0782639 0.866025 
vn 0.305208 -0.0483698 0.951057 
vn 0.305208 -0.0483698 0.951057 
vn 0.10324 -0.0163616 0.994522 
vn 0.10324 -0.0163616 0.994522 
vn -0.10324 0.0163616 0.994522 
vn -0.10324 0.0163616 0.994522 
vn -0.305208 0.0483698 0.951057 
vn -0.305208 0.0483698 0.951057 
vn -0.493837 0.0782639 0.866025 
vn -0.493837 0.0782639 0.866025 
vn -0.660883 0.104738 0.743145 
vn -0.660883 0.104738 0.743145 
vn -0.799045 0.126634 0.587785 
vn -0.799045 0.126634 0.587785 
vn -0.902285 0.142995 0.406737 
vn -0.902285 0.142995 0.406737 
vn -0.966091 0.153107 0.207912 
vn -0.966091 0.153107 0.207912 
vn -0.987674 0.156528 8.62209e-11 
vn -0.987674 0.156528 8.62209e-11 
f 714//714 715//715 716//716 
f 717//717 716//716 718//718 
f 719//719 718//718 720//720 
f 721//721 720//720 722//722 
f 723//723 722//722 724//724 
f 725//725 724//724 726//726 
f 727//727 726//726 728//728 
f 729//729 728//728 730//730 
f 731//731 730//730 732//732 
f 733//733 732//732 734//734 
f 735//735 734//734 736//736 
f 737//737 736//736 738//738 
f 739//739 738//738 740//740 
f 741//741 740//740 742//742 
f 743//743 742//742 744//744 
f 744//744 745//745 743//743 
f 742//742 743//743 741//741 
f 740//740 741//741 739//739 
f 738//738 739//739 737//737 
f 736//736 737//737 735//735 
f 734//734 735//735 733//733 
f 732//732 733//733 731//731 
f 730//730 731//731 729//729 
f 728//728 729//729 727//727 
f 726//726 727//727 725//725 
f 724//724 725//725 723//723 
f 722//722 723//723 721//721 
f 720//720 721//721 719//719 
f 718//718 719//719 717//717 
f 716//716 717//717 714//714 
o mesh325
v -0.0326854 0.0359313 0.0547323 
v -0.0307992 0.0356324 0.0555826 
v -0.0297577 0.0354673 0.0511814 
v -0.0287795 0.0353123 0.0560173 
v -0.0286259 0.035288 0.0514996 
v -0.0267147 0.0349851 0.0560173 
v -0.027453 0.0351021 0.051564 
v -0.0197566 0.0338823 0.0519499 
v -0.0187242 0.0337187 0.0501394 
v -0.0228169 0.0343674 0.0483814 
v -0.0180862 0.0336176 0.0481512 
v -0.0224419 0.0343079 0.0472544 
v -0.0178703 0.0335834 0.046072 
v -0.0228169 0.0343674 0.0437627 
v -0.0224419 0.0343079 0.0448897 
v -0.0178703 0.0335834 0.00841819 
v -0.0234225 0.0344633 0.0427436 
v -0.0252026 0.0347454 0.0412127 
v -0.0242303 0.0345913 0.0418802 
v -0.027453 0.0351021 0.0405801 
v -0.0262938 0.0349184 0.0407725 
v -0.0343559 0.0361961 0.0535035 
v -0.0307956 0.0356318 0.0506243 
v -0.024695 0.034665 0.0555826 
v -0.0262938 0.0349184 0.0513716 
v -0.0228087 0.034366 0.0547323 
v -0.0252026 0.0347454 0.0509314 
v -0.0223149 0.0342878 0.046072 
v -0.0367699 0.0365786 0.0501394 
v -0.0357375 0.036415 0.0519499 
v -0.0324017 0.0358864 0.0489076 
v -0.0316908 0.0357737 0.0498544 
v -0.0211383 0.0341013 0.0535035 
v -0.0242303 0.0345913 0.0502639 
v -0.0234225 0.0344633 0.0494005 
v -0.0376238 0.036714 0.00841819 
v -0.0286259 0.035288 0.0406445 
v -0.0324017 0.0358864 0.0432365 
v -0.0316908 0.0357737 0.0422897 
v -0.0297577 0.0354673 0.0409627 
v -0.0307956 0.0356318 0.0415198 
v -0.0376238 0.036714 0.046072 
v -0.037408 0.0366798 0.0481512 
v -0.0331474 0.0360045 0.0466667 
v -0.0328949 0.0359645 0.0478282 
v -0.0328949 0.0359645 0.0443159 
v -0.0331793 0.0360096 0.046072 
v -0.0331474 0.0360045 0.0454774 
vn 0.156528 0.987674 5.44049e-10 
vn 0.156528 0.987674 5.44049e-10 
vn 0.156528 0.987674 5.44049e-10 
vn 0.156528 0.987674 5.44049e-10 
vn 0.156528 0.987674 5.44049e-10 
vn 0.156528 0.987674 5.44049e-10 
vn 0.156528 0.987674 5.44049e-10 
vn 0.156528 0.987674 5.44049e-10 
vn 0.156528 0.987674 5.44049e-10 
vn 0.156528 0.987674 5.44049e-10 
vn 0.156528 0.987674 5.44049e-10 
vn 0.156528 0.987674 5.44049e-10 
vn 0.156528 0.987674 5.44049e-10 
vn 0.156528 0.987674 5.44049e-10 
vn 0.156528 0.987674 5.44049e-10 
vn 0.156528 0.987674 5.44049e-10 
vn 0.156528 0.987674 5.44049e-10 
vn 0.156528 0.987674 5.44049e-10 
vn 0.156528 0.987674 5.44049e-10 
vn 0.156528 0.987674 5.44049e-10 
vn 0.156528 0.987674 5.44049e-10 
vn 0.156528 0.987674 5.44049e-10 
vn 0.156528 0.987674 5.44049e-10 
vn 0.156528 0.987674 5.44049e-10 
vn 0.156528 0.987674 5.44049e-10 
vn 0.156528 0.987674 5.44049e-10 
vn 0.156528 0.987674 5.44049e-10 
vn 0.156528 0.987674 5.44049e-10 
vn 0.156528 0.987674 5.44049e-10 
vn 0.156528 0.987674 5.44049e-10 
vn 0.156528 0.987674 5.44049e-10 
vn 0.156528 0.987674 5.44049e-10 
vn 0.156528 0.987674 5.44049e-10 
vn 0.156528 0.987674 5.44049e-10 
vn 0.156528 0.987674 5.44049e-10 
vn 0.156528 0.987674 5.44049e-10 
vn 0.156528 0.987674 5.44049e-10 
vn 0.156528 0.987674 5.44049e-10 
vn 0.156528 0.987674 5.44049e-10 
vn 0.156528 0.987674 5.44049e-10 
vn 0.156528 0.987674 5.44049e-10 
vn 0.156528 0.987674 5.44049e-10 
vn 0.156528 0.987674 5.44049e-10 
vn 0.156528 0.987674 5.44049e-10 
vn 0.156528 0.987674 5.44049e-10 
vn 0.156528 0.987674 5.44049e-10 
vn 0.156528 0.987674 5.44049e-10 
vn 0.156528 0.987674 5.44049e-10 
f 746//746 747//747 748//748 
f 747//747 749//749 750//750 
f 750//750 748//748 747//747 
f 749//749 751//751 752//752 
f 753//753 754//754 755//755 
f 754//754 756//756 757//757 
f 758//758 759//759 760//760 
f 761//761 762//762 759//759 
f 761//761 763//763 764//764 
f 761//761 765//765 766//766 
f 767//767 746//746 768//768 
f 752//752 750//750 749//749 
f 751//751 769//769 770//770 
f 769//769 771//771 772//772 
f 757//757 755//755 754//754 
f 756//756 758//758 773//773 
f 759//759 758//758 761//761 
f 766//766 763//763 761//761 
f 774//774 775//775 776//776 
f 775//775 767//767 777//777 
f 748//748 768//768 746//746 
f 772//772 770//770 769//769 
f 771//771 778//778 779//779 
f 778//778 753//753 780//780 
f 773//773 757//757 756//756 
f 764//764 762//762 761//761 
f 777//777 776//776 775//775 
f 770//770 752//752 751//751 
f 780//780 779//779 778//778 
f 760//760 773//773 758//758 
f 781//781 782//782 765//765 
f 781//781 783//783 784//784 
f 768//768 777//777 767//767 
f 755//755 780//780 753//753 
f 781//781 785//785 782//782 
f 784//784 786//786 781//781 
f 787//787 788//788 789//789 
f 788//788 774//774 790//790 
f 779//779 772//772 771//771 
f 786//786 785//785 781//781 
f 790//790 789//789 788//788 
f 765//765 761//761 781//781 
f 787//787 791//791 783//783 
f 787//787 792//792 793//793 
f 776//776 790//790 774//774 
f 793//793 791//791 787//787 
f 783//783 781//781 787//787 
f 789//789 792//792 787//787 
o mesh326
v -0.0352951 0.03027 0.0535035 
v -0.03263 0.0298477 0.0498544 
v -0.0317347 0.0297058 0.0506243 
v -0.0366767 0.030489 0.0519499 
v -0.0333409 0.0299603 0.0489076 
v -0.038563 0.0307879 0.046072 
v -0.0341184 0.0300835 0.046072 
v -0.0340866 0.0300785 0.0466667 
v -0.0336246 0.0300053 0.0547323 
v -0.0306969 0.0295413 0.0511814 
v -0.0340866 0.0300785 0.0454774 
v -0.0377091 0.0306526 0.0501394 
v -0.0338341 0.0300385 0.0478282 
v -0.0383471 0.0307537 0.0481512 
v -0.0338341 0.0300385 0.0443159 
v -0.038563 0.0307879 0.0134182 
v -0.0333409 0.0299603 0.0432365 
v -0.0306969 0.0295413 0.0409627 
v -0.0317347 0.0297058 0.0415198 
v -0.0188095 0.0276574 0.0134182 
v -0.0283922 0.029176 0.0405801 
v -0.0196634 0.0277927 0.0501394 
v -0.0237561 0.0284413 0.0483814 
v -0.023381 0.0283819 0.0472544 
v -0.0206958 0.0279563 0.0519499 
v -0.0243617 0.0285373 0.0494005 
v -0.0220774 0.0281753 0.0535035 
v -0.0251695 0.0286653 0.0502639 
v -0.0237479 0.02844 0.0547323 
v -0.0261418 0.0288194 0.0509314 
v -0.03263 0.0298477 0.0422897 
v -0.0295651 0.0293619 0.0406445 
v -0.027233 0.0289923 0.0407725 
v -0.0188095 0.0276574 0.046072 
v -0.0237561 0.0284413 0.0437627 
v -0.0190253 0.0276916 0.0481512 
v -0.023254 0.0283617 0.046072 
v -0.0256342 0.0287389 0.0555826 
v -0.027233 0.0289923 0.0513716 
v -0.0276538 0.029059 0.0560173 
v -0.0283922 0.029176 0.051564 
v -0.0297186 0.0293863 0.0560173 
v -0.0295651 0.0293619 0.0514996 
v -0.0251695 0.0286653 0.0418802 
v -0.0261418 0.0288194 0.0412127 
v -0.0243617 0.0285373 0.0427436 
v -0.0317383 0.0297063 0.0555826 
v -0.023381 0.0283819 0.0448897 
vn -0.156528 -0.987674 -5.44049e-10 
vn -0.156528 -0.987674 -5.44049e-10 
vn -0.156528 -0.987674 -5.44049e-10 
vn -0.156528 -0.987674 -5.44049e-10 
vn -0.156528 -0.987674 -5.44049e-10 
vn -0.156528 -0.987674 -5.44049e-10 
vn -0.156528 -0.987674 -5.44049e-10 
vn -0.156528 -0.987674 -5.44049e-10 
vn -0.156528 -0.987674 -5.44049e-10 
vn -0.156528 -0.987674 -5.44049e-10 
vn -0.156528 -0.987674 -5.44049e-10 
vn -0.156528 -0.987674 -5.44049e-10 
vn -0.156528 -0.987674 -5.44049e-10 
vn -0.156528 -0.987674 -5.44049e-10 
vn -0.156528 -0.987674 -5.44049e-10 
vn -0.156528 -0.987674 -5.44049e-10 
vn -0.156528 -0.987674 -5.44049e-10 
vn -0.156528 -0.987674 -5.44049e-10 
vn -0.156528 -0.987674 -5.44049e-10 
vn -0.156528 -0.987674 -5.44049e-10 
vn -0.156528 -0.987674 -5.44049e-10 
vn -0.156528 -0.987674 -5.44049e-10 
vn -0.156528 -0.987674 -5.44049e-10 
vn -0.156528 -0.987674 -5.44049e-10 
vn -0.156528 -0.987674 -5.44049e-10 
vn -0.156528 -0.987674 -5.44049e-10 
vn -0.156528 -0.987674 -5.44049e-10 
vn -0.156528 -0.987674 -5.44049e-10 
vn -0.156528 -0.987674 -5.44049e-10 
vn -0.156528 -0.987674 -5.44049e-10 
vn -0.156528 -0.987674 -5.44049e-10 
vn -0.156528 -0.987674 -5.44049e-10 
vn -0.156528 -0.987674 -5.44049e-10 
vn -0.156528 -0.987674 -5.44049e-10 
vn -0.156528 -0.987674 -5.44049e-10 
vn -0.156528 -0.987674 -5.44049e-10 
vn -0.156528 -0.987674 -5.44049e-10 
vn -0.156528 -0.987674 -5.44049e-10 
vn -0.156528 -0.987674 -5.44049e-10 
vn -0.156528 -0.987674 -5.44049e-10 
vn -0.156528 -0.987674 -5.44049e-10 
vn -0.156528 -0.987674 -5.44049e-10 
vn -0.156528 -0.987674 -5.44049e-10 
vn -0.156528 -0.987674 -5.44049e-10 
vn -0.156528 -0.987674 -5.44049e-10 
vn -0.156528 -0.987674 -5.44049e-10 
vn -0.156528 -0.987674 -5.44049e-10 
vn -0.156528 -0.987674 -5.44049e-10 
f 794//794 795//795 796//796 
f 797//797 798//798 795//795 
f 799//799 800//800 801//801 
f 802//802 796//796 803//803 
f 795//795 794//794 797//797 
f 799//799 804//804 800//800 
f 796//796 802//802 794//794 
f 805//805 806//806 798//798 
f 807//807 801//801 806//806 
f 799//799 808//808 804//804 
f 798//798 797//797 805//805 
f 801//801 807//807 799//799 
f 799//799 809//809 810//810 
f 809//809 811//811 812//812 
f 809//809 813//813 814//814 
f 815//815 816//816 817//817 
f 818//818 819//819 816//816 
f 820//820 821//821 819//819 
f 822//822 823//823 821//821 
f 806//806 805//805 807//807 
f 809//809 824//824 810//810 
f 809//809 825//825 811//811 
f 813//813 826//826 814//814 
f 813//813 827//827 828//828 
f 829//829 817//817 830//830 
f 816//816 815//815 818//818 
f 821//821 820//820 822//822 
f 831//831 832//832 823//823 
f 833//833 834//834 832//832 
f 835//835 836//836 834//834 
f 810//810 808//808 799//799 
f 814//814 825//825 809//809 
f 813//813 837//837 838//838 
f 828//828 839//839 813//813 
f 817//817 829//829 815//815 
f 823//823 822//822 831//831 
f 834//834 833//833 835//835 
f 840//840 803//803 836//836 
f 812//812 824//824 809//809 
f 839//839 837//837 813//813 
f 819//819 818//818 820//820 
f 836//836 835//835 840//840 
f 838//838 826//826 813//813 
f 827//827 830//830 841//841 
f 832//832 831//831 833//833 
f 841//841 828//828 827//827 
f 803//803 840//840 802//802 
f 830//830 827//827 829//829 
o mesh327
v -0.023381 0.0283819 0.0448897 
v -0.023254 0.0283617 0.046072 
v -0.0223149 0.0342878 0.046072 
v -0.0237561 0.0284413 0.0437627 
v -0.0224419 0.0343079 0.0448897 
v -0.0243617 0.0285373 0.0427436 
v -0.0228169 0.0343674 0.0437627 
v -0.0251695 0.0286653 0.0418802 
v -0.0234225 0.0344633 0.0427436 
v -0.0261418 0.0288194 0.0412127 
v -0.0242303 0.0345913 0.0418802 
v -0.027233 0.0289923 0.0407725 
v -0.0252026 0.0347454 0.0412127 
v -0.0283922 0.029176 0.0405801 
v -0.0262938 0.0349184 0.0407725 
v -0.0295651 0.0293619 0.0406445 
v -0.027453 0.0351021 0.0405801 
v -0.0306969 0.0295413 0.0409627 
v -0.0286259 0.035288 0.0406445 
v -0.0317347 0.0297058 0.0415198 
v -0.0297577 0.0354673 0.0409627 
v -0.03263 0.0298477 0.0422897 
v -0.0307956 0.0356318 0.0415198 
v -0.0333409 0.0299603 0.0432365 
v -0.0316908 0.0357737 0.0422897 
v -0.0338341 0.0300385 0.0443159 
v -0.0324017 0.0358864 0.0432365 
v -0.0340866 0.0300785 0.0454774 
v -0.0328949 0.0359645 0.0443159 
v -0.0331474 0.0360045 0.0454774 
v -0.0331793 0.0360096 0.046072 
v -0.0341184 0.0300835 0.046072 
v -0.0331474 0.0360045 0.0466667 
v -0.0340866 0.0300785 0.0466667 
v -0.0338341 0.0300385 0.0478282 
v -0.0333409 0.0299603 0.0489076 
v -0.0328949 0.0359645 0.0478282 
v -0.03263 0.0298477 0.0498544 
v -0.0324017 0.0358864 0.0489076 
v -0.0317347 0.0297058 0.0506243 
v -0.0316908 0.0357737 0.0498544 
v -0.0306969 0.0295413 0.0511814 
v -0.0307956 0.0356318 0.0506243 
v -0.0295651 0.0293619 0.0514996 
v -0.0297577 0.0354673 0.0511814 
v -0.0283922 0.029176 0.051564 
v -0.0286259 0.035288 0.0514996 
v -0.027233 0.0289923 0.0513716 
v -0.027453 0.0351021 0.051564 
v -0.0261418 0.0288194 0.0509314 
v -0.0262938 0.0349184 0.0513716 
v -0.0251695 0.0286653 0.0502639 
v -0.0252026 0.0347454 0.0509314 
v -0.0243617 0.0285373 0.0494005 
v -0.0242303 0.0345913 0.0502639 
v -0.0237561 0.0284413 0.0483814 
v -0.0234225 0.0344633 0.0494005 
v -0.023381 0.0283819 0.0472544 
v -0.0228169 0.0343674 0.0483814 
v -0.0224419 0.0343079 0.0472544 
vn -0.964582 0.152868 0.21497 
vn -0.987674 0.156528 2.44929e-16 
vn -0.987674 0.156528 2.44929e-16 
vn -0.896388 0.142061 0.419889 
vn -0.964582 0.152868 0.21497 
vn -0.78628 0.124611 0.605174 
vn -0.896388 0.142061 0.419889 
vn -0.639406 0.101334 0.762162 
vn -0.78628 0.124611 0.605174 
vn -0.462635 0.073319 0.883512 
vn -0.639406 0.101334 0.762162 
vn -0.264231 0.0418756 0.96355 
vn -0.462635 0.073319 0.883512 
vn -0.0534716 0.00847424 0.998533 
vn -0.264231 0.0418756 0.96355 
vn 0.159788 -0.0253234 0.986827 
vn -0.0534716 0.00847424 0.998533 
vn 0.365576 -0.0579369 0.928977 
vn 0.159788 -0.0253234 0.986827 
vn 0.55427 -0.0878414 0.827689 
vn 0.365576 -0.0579369 0.928977 
vn 0.717047 -0.113638 0.687699 
vn 0.55427 -0.0878414 0.827689 
vn 0.846295 -0.134122 0.515554 
vn 0.717047 -0.113638 0.687699 
vn 0.935972 -0.148334 0.319302 
vn 0.846295 -0.134122 0.515554 
vn 0.981884 -0.15561 0.108119 
vn 0.935972 -0.148334 0.319302 
vn 0.981884 -0.15561 0.108119 
vn 0.987674 -0.156528 -1.22465e-16 
vn 0.987674 -0.156528 -1.22465e-16 
vn 0.981884 -0.15561 -0.108119 
vn 0.981884 -0.15561 -0.108119 
vn 0.935972 -0.148334 -0.319302 
vn 0.846295 -0.134122 -0.515554 
vn 0.935972 -0.148334 -0.319302 
vn 0.717047 -0.113638 -0.687699 
vn 0.846295 -0.134122 -0.515554 
vn 0.55427 -0.0878414 -0.827689 
vn 0.717047 -0.113638 -0.687699 
vn 0.365576 -0.0579369 -0.928977 
vn 0.55427 -0.0878414 -0.827689 
vn 0.159788 -0.0253234 -0.986827 
vn 0.365576 -0.0579369 -0.928977 
vn -0.0534716 0.00847425 -0.998533 
vn 0.159788 -0.0253234 -0.986827 
vn -0.264231 0.0418756 -0.96355 
vn -0.0534716 0.00847425 -0.998533 
vn -0.462635 0.073319 -0.883512 
vn -0.264231 0.0418756 -0.96355 
vn -0.639406 0.101334 -0.762162 
vn -0.462635 0.073319 -0.883512 
vn -0.78628 0.124611 -0.605174 
vn -0.639406 0.101334 -0.762162 
vn -0.896388 0.142061 -0.419889 
vn -0.78628 0.124611 -0.605174 
vn -0.964582 0.152868 -0.21497 
vn -0.896388 0.142061 -0.419889 
vn -0.964582 0.152868 -0.21497 
f 842//842 843//843 844//844 
f 845//845 842//842 846//846 
f 847//847 845//845 848//848 
f 849//849 847//847 850//850 
f 851//851 849//849 852//852 
f 853//853 851//851 854//854 
f 855//855 853//853 856//856 
f 857//857 855//855 858//858 
f 859//859 857//857 860//860 
f 861//861 859//859 862//862 
f 863//863 861//861 864//864 
f 865//865 863//863 866//866 
f 867//867 865//865 868//868 
f 869//869 867//867 870//870 
f 871//871 872//872 873//873 
f 874//874 875//875 873//873 
f 873//873 872//872 874//874 
f 876//876 875//875 874//874 
f 877//877 876//876 878//878 
f 879//879 877//877 880//880 
f 881//881 879//879 882//882 
f 883//883 881//881 884//884 
f 885//885 883//883 886//886 
f 887//887 885//885 888//888 
f 889//889 887//887 890//890 
f 891//891 889//889 892//892 
f 893//893 891//891 894//894 
f 895//895 893//893 896//896 
f 897//897 895//895 898//898 
f 899//899 897//897 900//900 
f 843//843 899//899 901//901 
f 901//901 844//844 843//843 
f 900//900 901//901 899//899 
f 898//898 900//900 897//897 
f 896//896 898//898 895//895 
f 894//894 896//896 893//893 
f 892//892 894//894 891//891 
f 890//890 892//892 889//889 
f 888//888 890//890 887//887 
f 886//886 888//888 885//885 
f 884//884 886//886 883//883 
f 882//882 884//884 881//881 
f 880//880 882//882 879//879 
f 878//878 880//880 877//877 
f 874//874 878//878 876//876 
f 873//873 869//869 871//871 
f 870//870 871//871 869//869 
f 868//868 870//870 867//867 
f 866//866 868//868 865//865 
f 864//864 866//866 863//863 
f 862//862 864//864 861//861 
f 860//860 862//862 859//859 
f 858//858 860//860 857//857 
f 856//856 858//858 855//855 
f 854//854 856//856 853//853 
f 852//852 854//854 851//851 
f 850//850 852//852 849//849 
f 848//848 850//850 847//847 
f 846//846 848//848 845//845 
f 844//844 846//846 842//842 
