# OBJ generated by ONSHAPE BY PTC INC, 1.221 Units = meters
mtllib Part_1_9.mtl
g Part 1
usemtl 0.615686_0.811765_0.929412_0.000000_0.000000
o mesh1529
v -0.0621219 -0.0570565 0.0877807 
v -0.062333 -0.0570085 0.0882701 
v -0.0603081 -0.0580987 0.0892505 
v -0.0618657 -0.0570003 0.0873141 
v -0.0600969 -0.0581467 0.088761 
v -0.0615766 -0.0568426 0.0868923 
v -0.0598408 -0.0580905 0.0882945 
v -0.061268 -0.0565907 0.0865348 
v -0.0595517 -0.0579328 0.0878726 
v -0.0609543 -0.0562565 0.0862586 
v -0.059243 -0.057681 0.0875152 
v -0.0606502 -0.0558556 0.0860763 
v -0.0589293 -0.0573468 0.0872389 
v -0.0603699 -0.0554067 0.0859967 
v -0.0586253 -0.0569458 0.0870567 
v -0.0601266 -0.0549308 0.0860233 
v -0.058345 -0.0564969 0.086977 
v -0.0599315 -0.0544501 0.086155 
v -0.0581016 -0.056021 0.0870037 
v -0.0597939 -0.0539872 0.0863857 
v -0.0579066 -0.0555403 0.0871354 
v -0.0597202 -0.0535636 0.0867044 
v -0.057769 -0.0550774 0.087366 
v -0.0597138 -0.0531992 0.0870963 
v -0.0576953 -0.0546538 0.0876847 
v -0.0597749 -0.052911 0.0875431 
v -0.0576888 -0.0542894 0.0880767 
v -0.0599009 -0.0527126 0.0880239 
v -0.05775 -0.0540013 0.0885235 
v -0.0599864 -0.0526501 0.0882701 
v -0.0579615 -0.0537403 0.0892505 
v -0.0580607 -0.0537033 0.0894966 
v -0.0578759 -0.0538028 0.0890043 
v -0.0603207 -0.0526172 0.0889971 
v -0.0600857 -0.0526131 0.0885163 
v -0.0605949 -0.0527248 0.0894439 
v -0.0582957 -0.0537075 0.0899774 
v -0.0608956 -0.0529308 0.0898358 
v -0.05857 -0.053815 0.0904243 
v -0.0612086 -0.0532255 0.0901546 
v -0.0588706 -0.054021 0.0908162 
v -0.0615193 -0.0535952 0.0903852 
v -0.0591836 -0.0543157 0.0911349 
v -0.0618132 -0.0540227 0.0905169 
v -0.0594944 -0.0546855 0.0913655 
v -0.0620765 -0.0544878 0.0905435 
v -0.0597883 -0.0551129 0.0914972 
v -0.062297 -0.0549689 0.0904639 
v -0.0600516 -0.0555781 0.0915239 
v -0.0624643 -0.0554435 0.0902817 
v -0.0602721 -0.0560592 0.0914442 
v -0.0625706 -0.0558894 0.0900054 
v -0.0604394 -0.0565338 0.091262 
v -0.0626109 -0.0562857 0.0896479 
v -0.0605457 -0.0569796 0.0909857 
v -0.0625834 -0.0566139 0.0892261 
v -0.060586 -0.0573759 0.0906283 
v -0.0624893 -0.0568586 0.0887595 
v -0.0605585 -0.0577041 0.0902064 
v -0.0604644 -0.0579489 0.0897399 
vn 0.388756 0.899868 0.197752 
vn 0.474064 0.880491 3.94255e-16 
vn 0.474064 0.880491 3.94255e-16 
vn 0.28527 0.877169 0.386258 
vn 0.388756 0.899868 0.197752 
vn 0.168446 0.813454 0.556703 
vn 0.28527 0.877169 0.386258 
vn 0.0437451 0.711704 0.701116 
vn 0.168446 0.813454 0.556703 
vn -0.0830012 0.576674 0.812747 
vn 0.0437451 0.711704 0.701116 
vn -0.205866 0.41468 0.886374 
vn -0.0830012 0.576674 0.812747 
vn -0.319106 0.233296 0.918556 
vn -0.205866 0.41468 0.886374 
vn -0.417424 0.0410038 0.907786 
vn -0.319106 0.233296 0.918556 
vn -0.496224 -0.153206 0.85457 
vn -0.417424 0.0410038 0.907786 
vn -0.551821 -0.340252 0.761395 
vn -0.496224 -0.153206 0.85457 
vn -0.581615 -0.511389 0.632618 
vn -0.551821 -0.340252 0.761395 
vn -0.584214 -0.658613 0.47426 
vn -0.581615 -0.511389 0.632618 
vn -0.559496 -0.775041 0.293727 
vn -0.584214 -0.658613 0.47426 
vn -0.508616 -0.85523 0.0994592 
vn -0.559496 -0.775041 0.293727 
vn -0.474064 -0.880491 -7.62227e-15 
vn -0.474064 -0.880491 -7.62227e-15 
vn -0.433954 -0.895428 -0.0994592 
vn -0.508616 -0.85523 0.0994592 
vn -0.339 -0.893758 -0.293727 
vn -0.433954 -0.895428 -0.0994592 
vn -0.228196 -0.850296 -0.47426 
vn -0.339 -0.893758 -0.293727 
vn -0.106721 -0.767076 -0.632618 
vn -0.228196 -0.850296 -0.47426 
vn 0.0197438 -0.647988 -0.761395 
vn -0.106721 -0.767076 -0.632618 
vn 0.145286 -0.4986 -0.85457 
vn 0.0197438 -0.647988 -0.761395 
vn 0.264034 -0.325899 -0.907786 
vn 0.145286 -0.4986 -0.85457 
vn 0.370436 -0.137959 -0.918556 
vn 0.264034 -0.325899 -0.907786 
vn 0.459517 0.056432 -0.886374 
vn 0.370436 -0.137959 -0.918556 
vn 0.527112 0.248184 -0.812747 
vn 0.459517 0.056432 -0.886374 
vn 0.57006 0.428331 -0.701116 
vn 0.527112 0.248184 -0.812747 
vn 0.586352 0.58845 -0.556703 
vn 0.57006 0.428331 -0.701116 
vn 0.575227 0.721054 -0.386258 
vn 0.586352 0.58845 -0.556703 
vn 0.537205 0.819942 -0.197752 
vn 0.575227 0.721054 -0.386258 
vn 0.537205 0.819942 -0.197752 
f 1//1 2//2 3//3 
f 4//4 1//1 5//5 
f 6//6 4//4 7//7 
f 8//8 6//6 9//9 
f 10//10 8//8 11//11 
f 12//12 10//10 13//13 
f 14//14 12//12 15//15 
f 16//16 14//14 17//17 
f 18//18 16//16 19//19 
f 20//20 18//18 21//21 
f 22//22 20//20 23//23 
f 24//24 22//22 25//25 
f 26//26 24//24 27//27 
f 28//28 26//26 29//29 
f 30//30 31//31 32//32 
f 31//31 30//30 28//28 
f 28//28 33//33 31//31 
f 34//34 35//35 32//32 
f 36//36 34//34 37//37 
f 38//38 36//36 39//39 
f 40//40 38//38 41//41 
f 42//42 40//40 43//43 
f 44//44 42//42 45//45 
f 46//46 44//44 47//47 
f 48//48 46//46 49//49 
f 50//50 48//48 51//51 
f 52//52 50//50 53//53 
f 54//54 52//52 55//55 
f 56//56 54//54 57//57 
f 58//58 56//56 59//59 
f 2//2 58//58 60//60 
f 60//60 3//3 2//2 
f 59//59 60//60 58//58 
f 57//57 59//59 56//56 
f 55//55 57//57 54//54 
f 53//53 55//55 52//52 
f 51//51 53//53 50//50 
f 49//49 51//51 48//48 
f 47//47 49//49 46//46 
f 45//45 47//47 44//44 
f 43//43 45//45 42//42 
f 41//41 43//43 40//40 
f 39//39 41//41 38//38 
f 37//37 39//39 36//36 
f 32//32 37//37 34//34 
f 32//32 35//35 30//30 
f 29//29 33//33 28//28 
f 27//27 29//29 26//26 
f 25//25 27//27 24//24 
f 23//23 25//25 22//22 
f 21//21 23//23 20//20 
f 19//19 21//21 18//18 
f 17//17 19//19 16//16 
f 15//15 17//17 14//14 
f 13//13 15//15 12//12 
f 11//11 13//13 10//10 
f 9//9 11//11 8//8 
f 7//7 9//9 6//6 
f 5//5 7//7 4//4 
f 3//3 5//5 1//1 
o mesh1530
v -0.0618422 -0.0622183 0.0878379 
v -0.0611414 -0.0620635 0.0865625 
v -0.0598408 -0.0580905 0.0882945 
v -0.0603529 -0.0616402 0.0854047 
v -0.0595517 -0.0579328 0.0878726 
v -0.0624246 -0.0620978 0.0891749 
v -0.0605585 -0.0577041 0.0902064 
v -0.060586 -0.0573759 0.0906283 
v -0.0600969 -0.0581467 0.088761 
v -0.0748014 -0.055904 0.121627 
v -0.0570364 -0.0577875 0.0828389 
v -0.058345 -0.0564969 0.086977 
v -0.0586253 -0.0569458 0.0870567 
v -0.0563486 -0.0564959 0.0828547 
v -0.0581016 -0.056021 0.0870037 
v -0.0734226 -0.0527429 0.122295 
v -0.0600516 -0.0555781 0.0915239 
v -0.0597883 -0.0551129 0.0914972 
v -0.0602721 -0.0560592 0.0914442 
v -0.0604644 -0.0579489 0.0897399 
v -0.0603081 -0.0580987 0.0892505 
v -0.0595112 -0.0609669 0.0844149 
v -0.059243 -0.057681 0.0875152 
v -0.058653 -0.0600729 0.0836365 
v -0.0589293 -0.0573468 0.0872389 
v -0.0557826 -0.0551791 0.08315 
v -0.0579066 -0.0555403 0.0871354 
v -0.0605457 -0.0569796 0.0909857 
v -0.0604394 -0.0565338 0.091262 
v -0.0578159 -0.0589975 0.0831034 
v -0.0553631 -0.0538947 0.083712 
v -0.057769 -0.0550774 0.087366 
v -0.0551179 -0.0527429 0.0844863 
v -0.0576953 -0.0546538 0.0876847 
v -0.0582957 -0.0537075 0.0899774 
v -0.0579615 -0.0537403 0.0892505 
v -0.0578759 -0.0538028 0.0890043 
v -0.0580607 -0.0537033 0.0894966 
v -0.0588706 -0.054021 0.0908162 
v -0.05857 -0.053815 0.0904243 
v -0.05775 -0.0540013 0.0885235 
v -0.0594944 -0.0546855 0.0913655 
v -0.0591836 -0.0543157 0.0911349 
v -0.0576888 -0.0542894 0.0880767 
v -0.0701679 -0.0505803 0.117977 
v -0.0551085 -0.0526987 0.084516 
v -0.0550298 -0.0516435 0.0855269 
v -0.0699246 -0.0501043 0.118004 
v -0.0554062 -0.0501318 0.0879856 
v -0.0558449 -0.0497412 0.089326 
v -0.0706936 -0.0481043 0.121816 
v -0.0703929 -0.0478984 0.121424 
v -0.0690572 -0.0431293 0.123969 
v -0.0716638 -0.0521738 0.119295 
v -0.0719199 -0.05223 0.119761 
v -0.071066 -0.0517643 0.118515 
v -0.0713746 -0.0520162 0.118873 
v -0.0551305 -0.0507752 0.0867005 
v -0.0701187 -0.0477908 0.120977 
v -0.0698837 -0.0477867 0.120497 
v -0.0691842 -0.0430256 0.124347 
v -0.0716112 -0.0491963 0.122497 
v -0.0713173 -0.0487688 0.122366 
v -0.072095 -0.0501425 0.122444 
v -0.0723686 -0.051063 0.121986 
v -0.0722623 -0.0506171 0.122262 
v -0.0707523 -0.0514301 0.118239 
v -0.0710066 -0.0483991 0.122135 
v -0.0697296 -0.0496237 0.118135 
v -0.0718745 -0.0496614 0.122524 
v -0.072131 -0.0521821 0.12025 
v -0.0704482 -0.0510292 0.118057 
v -0.0696989 -0.0478862 0.120004 
v -0.069573 -0.0480846 0.119524 
v -0.0722873 -0.0520322 0.12074 
v -0.0723814 -0.0517875 0.121206 
v -0.0695118 -0.0483728 0.119077 
v -0.0697844 -0.0478236 0.12025 
v -0.0724089 -0.0514593 0.121628 
v -0.0695182 -0.0487372 0.118685 
v -0.069592 -0.0491607 0.118366 
v -0.063345 -0.0309537 0.125711 
v -0.0633118 -0.0307745 0.125841 
v -0.0633065 -0.0306199 0.126002 
v -0.0633411 -0.0309402 0.125718 
v -0.0633305 -0.0304825 0.126205 
v -0.0635006 -0.031401 0.125535 
v -0.0634058 -0.0311611 0.125606 
v -0.0669904 -0.037996 0.125409 
v -0.0633309 -0.03048 0.126208 
v -0.0633878 -0.0303648 0.126454 
v -0.0633072 -0.0306163 0.126008 
v -0.0634041 -0.0311554 0.125608 
v -0.0636963 -0.0318076 0.125487 
v -0.0635137 -0.0314342 0.125525 
v -0.0637091 -0.0318336 0.125484 
v -0.0633935 -0.0303601 0.126471 
v -0.0635302 -0.0302459 0.12688 
v -0.0811181 -0.0527429 0.13819 
v -0.0764413 -0.0532265 0.127992 
v -0.0763133 -0.0532556 0.127695 
v -0.0759828 -0.053126 0.127157 
v -0.0761581 -0.0532216 0.127412 
v -0.076536 -0.0531357 0.128288 
v -0.076593 -0.0529874 0.128571 
v -0.0757958 -0.0529734 0.12694 
v -0.0766097 -0.0527885 0.128827 
v -0.0756057 -0.0527708 0.126773 
v -0.0755845 -0.0527429 0.12676 
v -0.0791122 -0.0492887 0.137888 
v -0.0691949 -0.0430168 0.124379 
v -0.080795 -0.0504416 0.140082 
v -0.0826642 -0.0514397 0.142832 
v -0.0826643 -0.0514402 0.142832 
v -0.0692435 -0.0424227 0.12514 
v -0.0692432 -0.0424219 0.12514 
v -0.0692579 -0.0428909 0.124649 
v -0.0692795 -0.0427578 0.124841 
v -0.069257 -0.0428927 0.124645 
v -0.0826801 -0.0515641 0.142727 
v -0.0826802 -0.0515646 0.142726 
v -0.0826302 -0.0513059 0.142911 
v -0.0764195 -0.0519904 0.129321 
v -0.0762858 -0.0516989 0.12937 
v -0.0798154 -0.0506641 0.137811 
v -0.0652833 -0.0316542 0.128935 
v -0.0651829 -0.0301474 0.130403 
v -0.0652741 -0.030252 0.130476 
v -0.0665051 -0.0338124 0.129059 
v -0.0791007 -0.0486365 0.138589 
v -0.0790636 -0.0488112 0.138318 
v -0.069179 -0.0422062 0.125247 
v -0.0663367 -0.0342504 0.128224 
v -0.0691829 -0.0422196 0.12524 
v -0.0692814 -0.042746 0.124858 
v -0.0692757 -0.0426006 0.125008 
v -0.0662087 -0.0342795 0.127927 
v -0.0690876 -0.0419743 0.125316 
v -0.0690811 -0.0419578 0.125321 
v -0.0660535 -0.0342454 0.127644 
v -0.0688784 -0.0415415 0.125365 
v -0.0688911 -0.0415676 0.125363 
v -0.0807306 -0.0501713 0.140249 
v -0.0806292 -0.0498837 0.140359 
v -0.0817706 -0.0499407 0.142654 
v -0.0826774 -0.051684 0.142588 
v -0.0826774 -0.0516846 0.142587 
v -0.0800056 -0.0508666 0.137978 
v -0.0646337 -0.0297685 0.129691 
v -0.0647057 -0.0297812 0.129825 
v -0.064509 -0.0297737 0.129427 
v -0.0645745 -0.0297581 0.12958 
v -0.0650761 -0.030042 0.1303 
v -0.0649162 -0.0299033 0.130124 
v -0.0649954 -0.0299624 0.130222 
v -0.0664314 -0.0341596 0.12852 
v -0.0790675 -0.049032 0.138081 
v -0.0664884 -0.0340113 0.128803 
v -0.0821844 -0.0504743 0.142915 
v -0.08258 -0.0511654 0.142963 
v -0.0826291 -0.0513012 0.142914 
v -0.0825048 -0.0509996 0.142992 
v -0.0825289 -0.0520002 0.14193 
v -0.0823486 -0.0521271 0.141416 
v -0.0765208 -0.0522781 0.129211 
v -0.0791956 -0.0495693 0.137748 
v -0.0793138 -0.0498606 0.137668 
v -0.0750792 -0.0505627 0.128141 
v -0.0651171 -0.031589 0.128664 
v -0.0644417 -0.0297898 0.12927 
v -0.0647687 -0.0298119 0.129921 
v -0.0648408 -0.029847 0.130031 
v -0.0792288 -0.0484783 0.13903 
v -0.079177 -0.0485162 0.138881 
v -0.0656912 -0.0339972 0.127172 
v -0.0658782 -0.0341499 0.127389 
v -0.0635958 -0.0302131 0.127052 
v -0.0648812 -0.0326999 0.126942 
v -0.0649994 -0.0329912 0.126862 
v -0.0794613 -0.050149 0.137652 
v -0.0761262 -0.0514169 0.129353 
v -0.0823896 -0.0507899 0.142988 
v -0.0825017 -0.0509928 0.142994 
v -0.0823829 -0.0507776 0.142987 
v -0.082578 -0.05116 0.142965 
v -0.0825296 -0.0519992 0.141932 
v -0.0826411 -0.051831 0.142349 
v -0.082641 -0.0518317 0.142348 
v -0.080651 -0.0511198 0.13903 
v -0.0807457 -0.051029 0.139326 
v -0.0801926 -0.0510193 0.138195 
v -0.0803678 -0.0511148 0.13845 
v -0.0766051 -0.0527429 0.128868 
v -0.0765853 -0.0525483 0.129043 
v -0.0664807 -0.0335722 0.129275 
v -0.0664162 -0.033302 0.129443 
v -0.0655011 -0.0337947 0.127005 
v -0.0651469 -0.0332796 0.126846 
v -0.0653168 -0.0335517 0.126894 
v -0.0647978 -0.0324193 0.127082 
v -0.0759481 -0.0511579 0.129274 
v -0.0757598 -0.0509338 0.129134 
v -0.0804956 -0.0495921 0.140408 
v -0.0808028 -0.0508807 0.139609 
v -0.0805231 -0.0511489 0.138733 
v -0.0748578 -0.0511387 0.127043 
v -0.0749024 -0.0513954 0.12685 
v -0.0750191 -0.0505851 0.127992 
v -0.0649746 -0.0315865 0.128373 
v -0.0654655 -0.0317791 0.129173 
v -0.0660216 -0.0324408 0.129585 
v -0.0658435 -0.0321818 0.129506 
v -0.0647493 -0.0319418 0.127512 
v -0.0647532 -0.0321626 0.127275 
v -0.0649145 -0.0316089 0.128224 
v -0.0799696 -0.0488271 0.140172 
v -0.0755701 -0.0507552 0.128941 
v -0.0753879 -0.0506304 0.128703 
v -0.0796311 -0.0504211 0.1377 
v -0.0808195 -0.0506817 0.139865 
v -0.075104 -0.0519673 0.12663 
v -0.0752515 -0.0522557 0.126614 
v -0.0748539 -0.0509179 0.12728 
v -0.0749673 -0.050623 0.127843 
v -0.0656552 -0.0319577 0.129366 
v -0.0661812 -0.0327227 0.129602 
v -0.0647863 -0.0317671 0.127783 
v -0.0648627 -0.0316468 0.128075 
v -0.0794314 -0.0484584 0.13947 
v -0.079289 -0.0484559 0.139179 
v -0.0797799 -0.0486485 0.139979 
v -0.080336 -0.0493102 0.140392 
v -0.0801579 -0.0490512 0.140312 
v -0.0752217 -0.0505652 0.128432 
v -0.0754214 -0.0525278 0.126662 
v -0.0749858 -0.051676 0.12671 
v -0.0748909 -0.0507432 0.127551 
v -0.0663149 -0.0330143 0.129553 
v -0.0795976 -0.0485236 0.139741 
vn 0.809967 -0.436093 0.392142 
vn 0.809967 -0.436093 0.392142 
vn 0.809967 -0.436093 0.392142 
vn 0.809967 -0.436093 0.392142 
vn 0.809967 -0.436093 0.392142 
vn 0.809967 -0.436093 0.392142 
vn 0.809967 -0.436093 0.392142 
vn 0.809967 -0.436093 0.392142 
vn 0.809967 -0.436093 0.392142 
vn 0.809967 -0.436093 0.392142 
vn 0.809967 -0.436093 0.392142 
vn 0.809967 -0.436093 0.392142 
vn 0.809967 -0.436093 0.392142 
vn 0.809967 -0.436093 0.392142 
vn 0.809967 -0.436093 0.392142 
vn 0.809967 -0.436093 0.392142 
vn 0.809967 -0.436093 0.392142 
vn 0.809967 -0.436093 0.392142 
vn 0.809967 -0.436093 0.392142 
vn 0.809967 -0.436093 0.392142 
vn 0.809967 -0.436093 0.392142 
vn 0.809967 -0.436093 0.392142 
vn 0.809967 -0.436093 0.392142 
vn 0.809967 -0.436093 0.392142 
vn 0.809967 -0.436093 0.392142 
vn 0.809967 -0.436093 0.392142 
vn 0.809967 -0.436093 0.392142 
vn 0.809967 -0.436093 0.392142 
vn 0.809967 -0.436093 0.392142 
vn 0.809967 -0.436093 0.392142 
vn 0.809967 -0.436093 0.392142 
vn 0.809967 -0.436093 0.392142 
vn 0.809967 -0.436093 0.392142 
vn 0.809967 -0.436093 0.392142 
vn 0.809967 -0.436093 0.392142 
vn 0.809967 -0.436093 0.392142 
vn 0.809967 -0.436093 0.392142 
vn 0.809967 -0.436093 0.392142 
vn 0.809967 -0.436093 0.392142 
vn 0.809967 -0.436093 0.392142 
vn 0.809967 -0.436093 0.392142 
vn 0.809967 -0.436093 0.392142 
vn 0.809967 -0.436093 0.392142 
vn 0.809967 -0.436093 0.392142 
vn 0.809967 -0.436093 0.392142 
vn 0.809967 -0.436093 0.392142 
vn 0.809967 -0.436093 0.392142 
vn 0.809967 -0.436093 0.392142 
vn 0.809967 -0.436093 0.392142 
vn 0.809967 -0.436093 0.392142 
vn 0.809967 -0.436093 0.392142 
vn 0.809967 -0.436093 0.392142 
vn 0.809967 -0.436093 0.392142 
vn 0.809967 -0.436093 0.392142 
vn 0.809967 -0.436093 0.392142 
vn 0.809967 -0.436093 0.392142 
vn 0.809967 -0.436093 0.392142 
vn 0.809967 -0.436093 0.392142 
vn 0.809967 -0.436093 0.392142 
vn 0.809967 -0.436093 0.392142 
vn 0.809967 -0.436093 0.392142 
vn 0.809967 -0.436093 0.392142 
vn 0.809967 -0.436093 0.392142 
vn 0.809967 -0.436093 0.392142 
vn 0.809967 -0.436093 0.392142 
vn 0.809967 -0.436093 0.392142 
vn 0.809967 -0.436093 0.392142 
vn 0.809967 -0.436093 0.392142 
vn 0.809967 -0.436093 0.392142 
vn 0.809967 -0.436093 0.392142 
vn 0.809967 -0.436093 0.392142 
vn 0.809967 -0.436093 0.392142 
vn 0.809967 -0.436093 0.392142 
vn 0.809967 -0.436093 0.392142 
vn 0.809967 -0.436093 0.392142 
vn 0.809967 -0.436093 0.392142 
vn 0.809967 -0.436093 0.392142 
vn 0.809967 -0.436093 0.392142 
vn 0.809967 -0.436093 0.392142 
vn 0.809967 -0.436093 0.392142 
vn 0.809967 -0.436093 0.392142 
vn 0.809967 -0.436093 0.392142 
vn 0.809967 -0.436093 0.392142 
vn 0.809967 -0.436093 0.392142 
vn 0.809967 -0.436093 0.392142 
vn 0.809967 -0.436093 0.392142 
vn 0.809967 -0.436093 0.392142 
vn 0.809967 -0.436093 0.392142 
vn 0.809967 -0.436093 0.392142 
vn 0.809967 -0.436093 0.392142 
vn 0.809967 -0.436093 0.392142 
vn 0.809967 -0.436093 0.392142 
vn 0.809967 -0.436093 0.392142 
vn 0.809967 -0.436093 0.392142 
vn 0.809967 -0.436093 0.392142 
vn 0.809967 -0.436093 0.392142 
vn 0.809967 -0.436093 0.392142 
vn 0.809967 -0.436093 0.392142 
vn 0.809967 -0.436093 0.392142 
vn 0.809967 -0.436093 0.392142 
vn 0.809967 -0.436093 0.392142 
vn 0.809967 -0.436093 0.392142 
vn 0.809967 -0.436093 0.392142 
vn 0.809967 -0.436093 0.392142 
vn 0.809967 -0.436093 0.392142 
vn 0.809967 -0.436093 0.392142 
vn 0.809967 -0.436093 0.392142 
vn 0.809967 -0.436093 0.392142 
vn 0.809967 -0.436093 0.392142 
vn 0.809967 -0.436093 0.392142 
vn 0.809967 -0.436093 0.392142 
vn 0.809967 -0.436093 0.392142 
vn 0.809967 -0.436093 0.392142 
vn 0.809967 -0.436093 0.392142 
vn 0.809967 -0.436093 0.392142 
vn 0.809967 -0.436093 0.392142 
vn 0.809967 -0.436093 0.392142 
vn 0.809967 -0.436093 0.392142 
vn 0.809967 -0.436093 0.392142 
vn 0.809967 -0.436093 0.392142 
vn 0.809967 -0.436093 0.392142 
vn 0.809967 -0.436093 0.392142 
vn 0.809967 -0.436093 0.392142 
vn 0.809967 -0.436093 0.392142 
vn 0.809967 -0.436093 0.392142 
vn 0.809967 -0.436093 0.392142 
vn 0.809967 -0.436093 0.392142 
vn 0.809967 -0.436093 0.392142 
vn 0.809967 -0.436093 0.392142 
vn 0.809967 -0.436093 0.392142 
vn 0.809967 -0.436093 0.392142 
vn 0.809967 -0.436093 0.392142 
vn 0.809967 -0.436093 0.392142 
vn 0.809967 -0.436093 0.392142 
vn 0.809967 -0.436093 0.392142 
vn 0.809967 -0.436093 0.392142 
vn 0.809967 -0.436093 0.392142 
vn 0.809967 -0.436093 0.392142 
vn 0.809967 -0.436093 0.392142 
vn 0.809967 -0.436093 0.392142 
vn 0.809967 -0.436093 0.392142 
vn 0.809967 -0.436093 0.392142 
vn 0.809967 -0.436093 0.392142 
vn 0.809967 -0.436093 0.392142 
vn 0.809967 -0.436093 0.392142 
vn 0.809967 -0.436093 0.392142 
vn 0.809967 -0.436093 0.392142 
vn 0.809967 -0.436093 0.392142 
vn 0.809967 -0.436093 0.392142 
vn 0.809967 -0.436093 0.392142 
vn 0.809967 -0.436093 0.392142 
vn 0.809967 -0.436093 0.392142 
vn 0.809967 -0.436093 0.392142 
vn 0.809967 -0.436093 0.392142 
vn 0.809967 -0.436093 0.392142 
vn 0.809967 -0.436093 0.392142 
vn 0.809967 -0.436093 0.392142 
vn 0.809967 -0.436093 0.392142 
vn 0.809967 -0.436093 0.392142 
vn 0.809967 -0.436093 0.392142 
vn 0.809967 -0.436093 0.392142 
vn 0.809967 -0.436093 0.392142 
vn 0.809967 -0.436093 0.392142 
vn 0.809967 -0.436093 0.392142 
vn 0.809967 -0.436093 0.392142 
vn 0.809967 -0.436093 0.392142 
vn 0.809967 -0.436093 0.392142 
vn 0.809967 -0.436093 0.392142 
vn 0.809967 -0.436093 0.392142 
vn 0.809967 -0.436093 0.392142 
vn 0.809967 -0.436093 0.392142 
vn 0.809967 -0.436093 0.392142 
vn 0.809967 -0.436093 0.392142 
vn 0.809967 -0.436093 0.392142 
vn 0.809967 -0.436093 0.392142 
vn 0.809967 -0.436093 0.392142 
vn 0.809967 -0.436093 0.392142 
vn 0.809967 -0.436093 0.392142 
vn 0.809967 -0.436093 0.392142 
vn 0.809967 -0.436093 0.392142 
vn 0.809967 -0.436093 0.392142 
vn 0.809967 -0.436093 0.392142 
vn 0.809967 -0.436093 0.392142 
vn 0.809967 -0.436093 0.392142 
vn 0.809967 -0.436093 0.392142 
vn 0.809967 -0.436093 0.392142 
vn 0.809967 -0.436093 0.392142 
vn 0.809967 -0.436093 0.392142 
vn 0.809967 -0.436093 0.392142 
vn 0.809967 -0.436093 0.392142 
vn 0.809967 -0.436093 0.392142 
vn 0.809967 -0.436093 0.392142 
vn 0.809967 -0.436093 0.392142 
vn 0.809967 -0.436093 0.392142 
vn 0.809967 -0.436093 0.392142 
vn 0.809967 -0.436093 0.392142 
vn 0.809967 -0.436093 0.392142 
vn 0.809967 -0.436093 0.392142 
vn 0.809967 -0.436093 0.392142 
vn 0.809967 -0.436093 0.392142 
vn 0.809967 -0.436093 0.392142 
vn 0.809967 -0.436093 0.392142 
vn 0.809967 -0.436093 0.392142 
vn 0.809967 -0.436093 0.392142 
vn 0.809967 -0.436093 0.392142 
vn 0.809967 -0.436093 0.392142 
vn 0.809967 -0.436093 0.392142 
vn 0.809967 -0.436093 0.392142 
vn 0.809967 -0.436093 0.392142 
vn 0.809967 -0.436093 0.392142 
vn 0.809967 -0.436093 0.392142 
vn 0.809967 -0.436093 0.392142 
vn 0.809967 -0.436093 0.392142 
vn 0.809967 -0.436093 0.392142 
vn 0.809967 -0.436093 0.392142 
vn 0.809967 -0.436093 0.392142 
vn 0.809967 -0.436093 0.392142 
vn 0.809967 -0.436093 0.392142 
vn 0.809967 -0.436093 0.392142 
vn 0.809967 -0.436093 0.392142 
vn 0.809967 -0.436093 0.392142 
vn 0.809967 -0.436093 0.392142 
vn 0.809967 -0.436093 0.392142 
vn 0.809967 -0.436093 0.392142 
vn 0.809967 -0.436093 0.392142 
vn 0.809967 -0.436093 0.392142 
vn 0.809967 -0.436093 0.392142 
vn 0.809967 -0.436093 0.392142 
vn 0.809967 -0.436093 0.392142 
vn 0.809967 -0.436093 0.392142 
vn 0.809967 -0.436093 0.392142 
vn 0.809967 -0.436093 0.392142 
vn 0.809967 -0.436093 0.392142 
vn 0.809967 -0.436093 0.392142 
vn 0.809967 -0.436093 0.392142 
vn 0.809967 -0.436093 0.392142 
vn 0.809967 -0.436093 0.392142 
vn 0.809967 -0.436093 0.392142 
vn 0.809967 -0.436093 0.392142 
f 61//61 62//62 63//63 
f 64//64 65//65 63//63 
f 66//66 67//67 68//68 
f 66//66 61//61 69//69 
f 63//63 62//62 64//64 
f 68//68 70//70 66//66 
f 63//63 69//69 61//61 
f 71//71 72//72 73//73 
f 74//74 75//75 72//72 
f 76//76 77//77 78//78 
f 70//70 79//79 77//77 
f 66//66 80//80 67//67 
f 69//69 81//81 66//66 
f 82//82 83//83 65//65 
f 84//84 85//85 83//83 
f 72//72 71//71 74//74 
f 86//86 87//87 75//75 
f 77//77 76//76 70//70 
f 70//70 88//88 89//89 
f 81//81 80//80 66//66 
f 83//83 82//82 84//84 
f 90//90 73//73 85//85 
f 75//75 74//74 86//86 
f 91//91 92//92 87//87 
f 93//93 94//94 92//92 
f 93//93 76//76 95//95 
f 89//89 79//79 70//70 
f 65//65 64//64 82//82 
f 73//73 90//90 71//71 
f 92//92 91//91 93//93 
f 93//93 96//96 97//97 
f 95//95 98//98 93//93 
f 76//76 99//99 100//100 
f 68//68 88//88 70//70 
f 87//87 86//86 91//91 
f 97//97 101//101 93//93 
f 100//100 95//95 76//76 
f 76//76 102//102 103//103 
f 85//85 84//84 90//90 
f 101//101 104//104 93//93 
f 103//103 99//99 76//76 
f 104//104 94//94 93//93 
f 78//78 102//102 76//76 
f 105//105 106//106 107//107 
f 108//108 109//109 110//110 
f 111//111 112//112 113//113 
f 93//93 114//114 115//115 
f 93//93 116//116 117//117 
f 105//105 93//93 106//106 
f 108//108 118//118 109//109 
f 113//113 119//119 120//120 
f 113//113 121//121 111//111 
f 121//121 122//122 123//123 
f 121//121 76//76 124//124 
f 76//76 125//125 126//126 
f 115//115 76//76 93//93 
f 93//93 127//127 116//116 
f 107//107 108//108 105//105 
f 108//108 107//107 118//118 
f 112//112 119//119 113//113 
f 123//123 128//128 121//121 
f 126//126 124//124 76//76 
f 117//117 114//114 93//93 
f 110//110 129//129 108//108 
f 128//128 111//111 121//121 
f 124//124 130//130 121//121 
f 115//115 131//131 76//76 
f 105//105 132//132 93//93 
f 113//113 133//133 134//134 
f 130//130 122//122 121//121 
f 76//76 135//135 136//136 
f 132//132 127//127 93//93 
f 110//110 134//134 137//137 
f 113//113 138//138 133//133 
f 76//76 139//139 125//125 
f 131//131 135//135 76//76 
f 110//110 140//140 141//141 
f 134//134 110//110 113//113 
f 136//136 139//139 76//76 
f 137//137 140//140 110//110 
f 141//141 129//129 110//110 
f 142//142 143//143 144//144 
f 142//142 145//145 143//143 
f 146//146 147//147 148//148 
f 149//149 150//150 151//151 
f 144//144 152//152 142//142 
f 148//148 153//153 146//146 
f 146//146 154//154 155//155 
f 146//146 149//149 156//156 
f 149//149 157//157 158//158 
f 149//149 146//146 150//150 
f 153//153 142//142 146//146 
f 156//156 154//154 146//146 
f 151//151 157//157 149//149 
f 155//155 147//147 146//146 
f 152//152 146//146 142//142 
f 159//159 70//70 160//160 
f 70//70 161//161 160//160 
f 70//70 162//162 163//163 
f 159//159 164//164 165//165 
f 163//163 161//161 70//70 
f 160//160 164//164 159//159 
f 70//70 166//166 162//162 
f 165//165 167//167 159//159 
f 70//70 168//168 166//166 
f 70//70 76//76 169//169 
f 169//169 168//168 70//70 
f 170//170 121//121 171//171 
f 172//172 173//173 174//174 
f 170//170 175//175 176//176 
f 170//170 177//177 178//178 
f 171//171 179//179 170//170 
f 172//172 180//180 181//181 
f 172//172 182//182 173//173 
f 183//183 184//184 185//185 
f 186//186 187//187 188//188 
f 189//189 190//190 191//191 
f 170//170 192//192 193//193 
f 176//176 194//194 170//170 
f 170//170 195//195 196//196 
f 179//179 177//177 170//170 
f 197//197 198//198 199//199 
f 200//200 201//201 149//149 
f 200//200 199//199 202//202 
f 203//203 204//204 205//205 
f 172//172 206//206 207//207 
f 174//174 180//180 172//172 
f 185//185 208//208 183//183 
f 186//186 209//209 210//210 
f 186//186 211//211 212//212 
f 186//186 213//213 187//187 
f 186//186 214//214 215//215 
f 216//216 191//191 217//217 
f 191//191 216//216 218//218 
f 194//194 192//192 170//170 
f 178//178 195//195 170//170 
f 197//197 192//192 198//198 
f 202//202 201//201 200//200 
f 205//205 219//219 203//203 
f 181//181 206//206 172//172 
f 172//172 220//220 221//221 
f 172//172 203//203 222//222 
f 172//172 223//223 224//224 
f 208//208 225//225 183//183 
f 226//226 227//227 228//228 
f 212//212 209//209 186//186 
f 186//186 229//229 230//230 
f 215//215 213//213 186//186 
f 186//186 231//231 232//232 
f 191//191 218//218 189//189 
f 189//189 233//233 234//234 
f 196//196 175//175 170//170 
f 199//199 200//200 197//197 
f 149//149 235//235 236//236 
f 237//237 238//238 239//239 
f 227//227 240//240 241//241 
f 203//203 242//242 243//243 
f 219//219 244//244 203//203 
f 221//221 182//182 172//172 
f 222//222 245//245 172//172 
f 172//172 246//246 223//223 
f 172//172 247//247 248//248 
f 159//159 249//249 250//250 
f 159//159 251//251 252//252 
f 159//159 253//253 208//208 
f 208//208 254//254 225//225 
f 228//228 121//121 226//226 
f 230//230 211//211 186//186 
f 232//232 214//214 186//186 
f 233//233 255//255 256//256 
f 234//234 190//190 189//189 
f 197//197 193//193 192//192 
f 149//149 257//257 235//235 
f 149//149 258//258 259//259 
f 237//237 260//260 238//238 
f 227//227 261//261 262//262 
f 241//241 261//261 227//227 
f 205//205 204//204 263//263 
f 244//244 242//242 203//203 
f 245//245 220//220 172//172 
f 248//248 246//246 172//172 
f 224//224 250//250 264//264 
f 159//159 265//265 249//249 
f 208//208 251//251 159//159 
f 208//208 253//253 254//254 
f 121//121 266//266 267//267 
f 228//228 268//268 121//121 
f 230//230 229//229 269//269 
f 188//188 270//270 186//186 
f 188//188 271//271 272//272 
f 233//233 189//189 255//255 
f 193//193 216//216 170//170 
f 259//259 257//257 149//149 
f 239//239 149//149 237//237 
f 237//237 273//273 274//274 
f 237//237 230//230 275//275 
f 188//188 205//205 276//276 
f 227//227 277//277 278//278 
f 240//240 279//279 241//241 
f 243//243 222//222 203//203 
f 224//224 280//280 172//172 
f 250//250 224//224 159//159 
f 184//184 241//241 185//185 
f 76//76 281//281 282//282 
f 121//121 283//283 266//266 
f 268//268 284//284 121//121 
f 210//210 231//231 186//186 
f 272//272 285//285 188//188 
f 188//188 233//233 286//286 
f 217//217 170//170 216//216 
f 239//239 258//258 149//149 
f 237//237 287//287 273//273 
f 275//275 288//288 237//237 
f 188//188 289//289 290//290 
f 276//276 291//291 188//188 
f 205//205 292//292 293//293 
f 278//278 294//294 227//227 
f 262//262 277//277 227//227 
f 207//207 247//247 172//172 
f 252//252 265//265 159//159 
f 282//282 295//295 76//76 
f 76//76 267//267 296//296 
f 121//121 297//297 283//283 
f 121//121 170//170 226//226 
f 285//285 270//270 188//188 
f 233//233 298//298 286//286 
f 149//149 236//236 200//200 
f 288//288 287//287 237//237 
f 188//188 299//299 289//289 
f 293//293 276//276 205//205 
f 279//279 185//185 241//241 
f 264//264 280//280 224//224 
f 296//296 281//281 76//76 
f 284//284 297//297 121//121 
f 286//286 271//271 188//188 
f 274//274 260//260 237//237 
f 291//291 299//299 188//188 
f 263//263 292//292 205//205 
f 267//267 76//76 121//121 
f 256//256 298//298 233//233 
f 294//294 228//228 227//227 
f 269//269 275//275 230//230 
f 295//295 169//169 76//76 
f 290//290 233//233 188//188 
f 167//167 253//253 159//159 
f 158//158 237//237 149//149 
f 120//120 138//138 113//113 
f 98//98 96//96 93//93 
o mesh1531
v -0.0653329 -0.0295271 0.125028 
v -0.0653367 -0.0296843 0.124861 
v -0.0653689 -0.0298623 0.12473 
v -0.065331 -0.029539 0.125011 
v -0.0653691 -0.029863 0.124729 
v -0.0653554 -0.0293923 0.125224 
v -0.0653545 -0.0293941 0.12522 
v -0.0656207 -0.0291229 0.126072 
v -0.0655248 -0.0303107 0.124553 
v -0.0655312 -0.0303271 0.124548 
v -0.0654294 -0.0300653 0.124629 
v -0.0654334 -0.0300787 0.124622 
v -0.0655552 -0.0291557 0.1259 
v -0.0654175 -0.0292682 0.125491 
v -0.0657213 -0.0307173 0.124506 
v -0.065734 -0.0307434 0.124504 
v -0.0721928 -0.04949 0.116997 
v -0.0719495 -0.0490141 0.117023 
v -0.0570547 -0.0505533 0.0845465 
v -0.0710821 -0.0420391 0.122989 
v -0.0717238 -0.0467959 0.119024 
v -0.0718093 -0.0467334 0.11927 
v -0.0717545 -0.0485334 0.117155 
v -0.0578698 -0.048651 0.0883456 
v -0.0571334 -0.0516085 0.0835356 
v -0.0727185 -0.0470141 0.120836 
v -0.0712084 -0.0419336 0.123367 
v -0.0719086 -0.0466964 0.119516 
v -0.0715979 -0.0469944 0.118543 
v -0.0574311 -0.0490415 0.0870053 
v -0.0571428 -0.0516526 0.0835059 
v -0.0724731 -0.049939 0.117076 
v -0.0721436 -0.0467006 0.119997 
v -0.0724178 -0.0468081 0.120444 
v -0.0716169 -0.0480705 0.117386 
v -0.0715431 -0.0476469 0.117704 
v -0.0571554 -0.049685 0.0857202 
v -0.0727772 -0.0503399 0.117259 
v -0.0738995 -0.0485712 0.121544 
v -0.0741199 -0.0490523 0.121464 
v -0.0736887 -0.0510836 0.118314 
v -0.0733995 -0.0509259 0.117892 
v -0.0754475 -0.0516526 0.121314 
v -0.0742872 -0.0495269 0.121282 
v -0.0743935 -0.0499727 0.121005 
v -0.0736361 -0.048106 0.121517 
v -0.0730315 -0.0473089 0.121155 
v -0.0715367 -0.0472826 0.118096 
v -0.0730909 -0.0506741 0.117535 
v -0.0739448 -0.0511398 0.118781 
v -0.0744339 -0.050369 0.120648 
v -0.0733422 -0.0476786 0.121385 
v -0.0744063 -0.0506972 0.120226 
v -0.0743122 -0.050942 0.11976 
v -0.0741559 -0.0510918 0.11927 
v -0.0644496 -0.0610076 0.0881946 
v -0.0768263 -0.0548137 0.120647 
v -0.0626109 -0.0562857 0.0896479 
v -0.0620765 -0.0544878 0.0905435 
v -0.0615193 -0.0535952 0.0903852 
v -0.0618132 -0.0540227 0.0905169 
v -0.0599009 -0.0527126 0.0880239 
v -0.0599864 -0.0526501 0.0882701 
v -0.0583736 -0.0554057 0.0818744 
v -0.0590613 -0.0566973 0.0818586 
v -0.0603699 -0.0554067 0.0859967 
v -0.0598408 -0.0579072 0.082123 
v -0.0606502 -0.0558556 0.0860763 
v -0.0615361 -0.0598766 0.0834345 
v -0.0623778 -0.0605499 0.0844243 
v -0.0615766 -0.0568426 0.0868923 
v -0.0631663 -0.0609733 0.0855822 
v -0.0618657 -0.0570003 0.0873141 
v -0.0625706 -0.0558894 0.0900054 
v -0.0600857 -0.0526131 0.0885163 
v -0.0603207 -0.0526172 0.0889971 
v -0.0597749 -0.052911 0.0875431 
v -0.0573881 -0.0528044 0.0827316 
v -0.0578076 -0.0540889 0.0821697 
v -0.0599315 -0.0544501 0.086155 
v -0.0601266 -0.0549308 0.0860233 
v -0.0606779 -0.0589827 0.0826561 
v -0.0609543 -0.0562565 0.0862586 
v -0.061268 -0.0565907 0.0865348 
v -0.0625834 -0.0566139 0.0892261 
v -0.062297 -0.0549689 0.0904639 
v -0.0624643 -0.0554435 0.0902817 
v -0.0612086 -0.0532255 0.0901546 
v -0.0597202 -0.0535636 0.0867044 
v -0.0597138 -0.0531992 0.0870963 
v -0.0597939 -0.0539872 0.0863857 
v -0.0638671 -0.061128 0.0868575 
v -0.0621219 -0.0570565 0.0877807 
v -0.0624893 -0.0568586 0.0887595 
v -0.0605949 -0.0527248 0.0894439 
v -0.0608956 -0.0529308 0.0898358 
v -0.062333 -0.0570085 0.0882701 
v -0.0776306 -0.0516806 0.125792 
v -0.0776094 -0.0516526 0.12578 
v -0.0778207 -0.0518831 0.12596 
v -0.0780078 -0.0520357 0.126176 
v -0.0784662 -0.0521363 0.127011 
v -0.0783382 -0.0521654 0.126715 
v -0.083143 -0.0516526 0.137209 
v -0.0785609 -0.0520455 0.127308 
v -0.078183 -0.0521313 0.126432 
v -0.0786179 -0.0518971 0.127591 
v -0.07863 -0.0516526 0.127888 
v -0.0786346 -0.0516982 0.127846 
v -0.0812538 -0.0473881 0.13805 
v -0.06853 -0.0327221 0.128078 
v -0.077595 -0.049665 0.12796 
v -0.0771042 -0.0494724 0.127161 
v -0.0712066 -0.0411238 0.124263 
v -0.0712083 -0.0411296 0.124261 
v -0.0828199 -0.0493513 0.139101 
v -0.0847008 -0.0505918 0.141606 
v -0.0847042 -0.0505743 0.141633 
v -0.0846632 -0.0507366 0.141368 
v -0.0846778 -0.0507088 0.141429 
v -0.0777847 -0.0498436 0.128154 
v -0.0682336 -0.0331892 0.126947 
v -0.0680784 -0.0331552 0.126664 
v -0.0709033 -0.0404513 0.124385 
v -0.0769159 -0.049653 0.126571 
v -0.0713052 -0.0416686 0.123861 
v -0.0712819 -0.0418025 0.123664 
v -0.0769922 -0.0495327 0.126862 
v -0.0713058 -0.0416651 0.123867 
v -0.0712674 -0.0413313 0.124158 
v -0.0683616 -0.0331602 0.127243 
v -0.0846539 -0.050215 0.141929 
v -0.0846455 -0.0501846 0.141945 
v -0.0846878 -0.0503484 0.14185 
v -0.0846843 -0.0503256 0.141868 
v -0.0847034 -0.0504722 0.141745 
v -0.0847032 -0.050449 0.14177 
v -0.0837955 -0.0488504 0.141673 
v -0.0818048 -0.0475582 0.138998 
v -0.0813139 -0.0473657 0.138199 
v -0.0673082 -0.030564 0.127955 
v -0.0665244 -0.0286777 0.128434 
v -0.0664666 -0.0286995 0.12829 
v -0.0667924 -0.0287172 0.128943 
v -0.0666617 -0.0286731 0.128722 
v -0.0668876 -0.0305566 0.127094 
v -0.0669394 -0.0305187 0.127243 
v -0.0710987 -0.0408507 0.124344 
v -0.0711118 -0.0408839 0.124335 
v -0.0709161 -0.0404774 0.124382 
v -0.077044 -0.0494948 0.127011 
v -0.0712713 -0.0413447 0.124152 
v -0.0713006 -0.0415104 0.124028 
v -0.0845897 -0.050038 0.141993 
v -0.0845289 -0.0499095 0.14201 
v -0.077973 -0.0500677 0.128293 
v -0.0812019 -0.047426 0.1379 
v -0.0816226 -0.0474334 0.138761 
v -0.0814564 -0.0473682 0.13849 
v -0.0684563 -0.0330694 0.12754 
v -0.0772466 -0.0494749 0.127452 
v -0.0774128 -0.0495401 0.127723 
v -0.067299 -0.0291618 0.129495 
v -0.0680465 -0.0313506 0.128605 
v -0.0674904 -0.0306888 0.128192 
v -0.0665309 -0.0286775 0.128447 
v -0.0666567 -0.0286732 0.128712 
v -0.0690154 -0.0369057 0.124428 
v -0.0673417 -0.0324615 0.125914 
v -0.0671718 -0.0321894 0.125866 
v -0.0679032 -0.0330596 0.126408 
v -0.0712815 -0.0418049 0.123661 
v -0.0845484 -0.0508984 0.140951 
v -0.0845991 -0.0508583 0.1411 
v -0.0828444 -0.0495915 0.138885 
v -0.0843735 -0.0510369 0.140436 
v -0.0846038 -0.050075 0.141981 
v -0.0827555 -0.0490811 0.139269 
v -0.0841165 -0.0492557 0.141886 
v -0.0844131 -0.0497008 0.142003 
v -0.0843715 -0.049628 0.141998 
v -0.0845116 -0.0498732 0.142015 
v -0.0685133 -0.032921 0.127823 
v -0.0682061 -0.0316325 0.128621 
v -0.0669402 -0.0288077 0.129148 
v -0.0669388 -0.0288065 0.129146 
v -0.0671008 -0.0289463 0.129326 
v -0.0669996 -0.0304963 0.127393 
v -0.0668228 -0.0313291 0.126101 
v -0.0667781 -0.0310724 0.126294 
v -0.0670244 -0.0319009 0.125882 
v -0.067526 -0.0327045 0.126024 
v -0.0768788 -0.0498276 0.1263 
v -0.0712246 -0.0419201 0.123415 
v -0.0712189 -0.0419249 0.123398 
v -0.0813387 -0.0487703 0.136688 
v -0.0781511 -0.0503267 0.128373 
v -0.0783107 -0.0506086 0.128389 
v -0.0822175 -0.049929 0.137214 
v -0.0820305 -0.0497764 0.136998 
v -0.0842072 -0.0493882 0.141926 
v -0.0819945 -0.0477369 0.139192 
v -0.0684412 -0.0322117 0.128462 
v -0.0685056 -0.0324819 0.128295 
v -0.0683398 -0.0319241 0.128573 
v -0.066798 -0.0287191 0.128953 
v -0.0668112 -0.0306769 0.126803 
v -0.0667742 -0.0308515 0.126532 
v -0.0669062 -0.0316096 0.125962 
v -0.0677161 -0.032907 0.126192 
v -0.0812205 -0.048479 0.136768 
v -0.0814862 -0.0490588 0.136672 
v -0.0784444 -0.0509002 0.128341 
v -0.0676801 -0.0308675 0.128385 
v -0.0678684 -0.0310915 0.128525 
v -0.067142 -0.0304988 0.127684 
v -0.0768827 -0.0500485 0.126062 
v -0.0769274 -0.0503052 0.125869 
v -0.0772764 -0.0511655 0.125634 
v -0.077129 -0.0508771 0.12565 
v -0.0811371 -0.0481985 0.136907 
v -0.0816561 -0.0493309 0.13672 
v -0.0823928 -0.0500246 0.13747 
v -0.082676 -0.0500296 0.13805 
v -0.082548 -0.0500586 0.137753 
v -0.0828277 -0.0497904 0.138629 
v -0.0826541 -0.0487935 0.139379 
v -0.0821828 -0.0479609 0.139331 
v -0.0770108 -0.0505858 0.12573 
v -0.0774463 -0.0514376 0.125682 
v -0.0810924 -0.0479418 0.137101 
v -0.0785458 -0.0511878 0.128231 
v -0.0818404 -0.0495738 0.13683 
v -0.0827707 -0.0499387 0.138346 
v -0.0810885 -0.0477209 0.137338 
v -0.0786102 -0.0514581 0.128063 
v -0.0823609 -0.04822 0.139411 
v -0.0825205 -0.0485019 0.139427 
v -0.0811256 -0.0475463 0.137609 
vn -0.809967 0.436093 -0.392142 
vn -0.809967 0.436093 -0.392142 
vn -0.809967 0.436093 -0.392142 
vn -0.809967 0.436093 -0.392142 
vn -0.809967 0.436093 -0.392142 
vn -0.809967 0.436093 -0.392142 
vn -0.809967 0.436093 -0.392142 
vn -0.809967 0.436093 -0.392142 
vn -0.809967 0.436093 -0.392142 
vn -0.809967 0.436093 -0.392142 
vn -0.809967 0.436093 -0.392142 
vn -0.809967 0.436093 -0.392142 
vn -0.809967 0.436093 -0.392142 
vn -0.809967 0.436093 -0.392142 
vn -0.809967 0.436093 -0.392142 
vn -0.809967 0.436093 -0.392142 
vn -0.809967 0.436093 -0.392142 
vn -0.809967 0.436093 -0.392142 
vn -0.809967 0.436093 -0.392142 
vn -0.809967 0.436093 -0.392142 
vn -0.809967 0.436093 -0.392142 
vn -0.809967 0.436093 -0.392142 
vn -0.809967 0.436093 -0.392142 
vn -0.809967 0.436093 -0.392142 
vn -0.809967 0.436093 -0.392142 
vn -0.809967 0.436093 -0.392142 
vn -0.809967 0.436093 -0.392142 
vn -0.809967 0.436093 -0.392142 
vn -0.809967 0.436093 -0.392142 
vn -0.809967 0.436093 -0.392142 
vn -0.809967 0.436093 -0.392142 
vn -0.809967 0.436093 -0.392142 
vn -0.809967 0.436093 -0.392142 
vn -0.809967 0.436093 -0.392142 
vn -0.809967 0.436093 -0.392142 
vn -0.809967 0.436093 -0.392142 
vn -0.809967 0.436093 -0.392142 
vn -0.809967 0.436093 -0.392142 
vn -0.809967 0.436093 -0.392142 
vn -0.809967 0.436093 -0.392142 
vn -0.809967 0.436093 -0.392142 
vn -0.809967 0.436093 -0.392142 
vn -0.809967 0.436093 -0.392142 
vn -0.809967 0.436093 -0.392142 
vn -0.809967 0.436093 -0.392142 
vn -0.809967 0.436093 -0.392142 
vn -0.809967 0.436093 -0.392142 
vn -0.809967 0.436093 -0.392142 
vn -0.809967 0.436093 -0.392142 
vn -0.809967 0.436093 -0.392142 
vn -0.809967 0.436093 -0.392142 
vn -0.809967 0.436093 -0.392142 
vn -0.809967 0.436093 -0.392142 
vn -0.809967 0.436093 -0.392142 
vn -0.809967 0.436093 -0.392142 
vn -0.809967 0.436093 -0.392142 
vn -0.809967 0.436093 -0.392142 
vn -0.809967 0.436093 -0.392142 
vn -0.809967 0.436093 -0.392142 
vn -0.809967 0.436093 -0.392142 
vn -0.809967 0.436093 -0.392142 
vn -0.809967 0.436093 -0.392142 
vn -0.809967 0.436093 -0.392142 
vn -0.809967 0.436093 -0.392142 
vn -0.809967 0.436093 -0.392142 
vn -0.809967 0.436093 -0.392142 
vn -0.809967 0.436093 -0.392142 
vn -0.809967 0.436093 -0.392142 
vn -0.809967 0.436093 -0.392142 
vn -0.809967 0.436093 -0.392142 
vn -0.809967 0.436093 -0.392142 
vn -0.809967 0.436093 -0.392142 
vn -0.809967 0.436093 -0.392142 
vn -0.809967 0.436093 -0.392142 
vn -0.809967 0.436093 -0.392142 
vn -0.809967 0.436093 -0.392142 
vn -0.809967 0.436093 -0.392142 
vn -0.809967 0.436093 -0.392142 
vn -0.809967 0.436093 -0.392142 
vn -0.809967 0.436093 -0.392142 
vn -0.809967 0.436093 -0.392142 
vn -0.809967 0.436093 -0.392142 
vn -0.809967 0.436093 -0.392142 
vn -0.809967 0.436093 -0.392142 
vn -0.809967 0.436093 -0.392142 
vn -0.809967 0.436093 -0.392142 
vn -0.809967 0.436093 -0.392142 
vn -0.809967 0.436093 -0.392142 
vn -0.809967 0.436093 -0.392142 
vn -0.809967 0.436093 -0.392142 
vn -0.809967 0.436093 -0.392142 
vn -0.809967 0.436093 -0.392142 
vn -0.809967 0.436093 -0.392142 
vn -0.809967 0.436093 -0.392142 
vn -0.809967 0.436093 -0.392142 
vn -0.809967 0.436093 -0.392142 
vn -0.809967 0.436093 -0.392142 
vn -0.809967 0.436093 -0.392142 
vn -0.809967 0.436093 -0.392142 
vn -0.809967 0.436093 -0.392142 
vn -0.809967 0.436093 -0.392142 
vn -0.809967 0.436093 -0.392142 
vn -0.809967 0.436093 -0.392142 
vn -0.809967 0.436093 -0.392142 
vn -0.809967 0.436093 -0.392142 
vn -0.809967 0.436093 -0.392142 
vn -0.809967 0.436093 -0.392142 
vn -0.809967 0.436093 -0.392142 
vn -0.809967 0.436093 -0.392142 
vn -0.809967 0.436093 -0.392142 
vn -0.809967 0.436093 -0.392142 
vn -0.809967 0.436093 -0.392142 
vn -0.809967 0.436093 -0.392142 
vn -0.809967 0.436093 -0.392142 
vn -0.809967 0.436093 -0.392142 
vn -0.809967 0.436093 -0.392142 
vn -0.809967 0.436093 -0.392142 
vn -0.809967 0.436093 -0.392142 
vn -0.809967 0.436093 -0.392142 
vn -0.809967 0.436093 -0.392142 
vn -0.809967 0.436093 -0.392142 
vn -0.809967 0.436093 -0.392142 
vn -0.809967 0.436093 -0.392142 
vn -0.809967 0.436093 -0.392142 
vn -0.809967 0.436093 -0.392142 
vn -0.809967 0.436093 -0.392142 
vn -0.809967 0.436093 -0.392142 
vn -0.809967 0.436093 -0.392142 
vn -0.809967 0.436093 -0.392142 
vn -0.809967 0.436093 -0.392142 
vn -0.809967 0.436093 -0.392142 
vn -0.809967 0.436093 -0.392142 
vn -0.809967 0.436093 -0.392142 
vn -0.809967 0.436093 -0.392142 
vn -0.809967 0.436093 -0.392142 
vn -0.809967 0.436093 -0.392142 
vn -0.809967 0.436093 -0.392142 
vn -0.809967 0.436093 -0.392142 
vn -0.809967 0.436093 -0.392142 
vn -0.809967 0.436093 -0.392142 
vn -0.809967 0.436093 -0.392142 
vn -0.809967 0.436093 -0.392142 
vn -0.809967 0.436093 -0.392142 
vn -0.809967 0.436093 -0.392142 
vn -0.809967 0.436093 -0.392142 
vn -0.809967 0.436093 -0.392142 
vn -0.809967 0.436093 -0.392142 
vn -0.809967 0.436093 -0.392142 
vn -0.809967 0.436093 -0.392142 
vn -0.809967 0.436093 -0.392142 
vn -0.809967 0.436093 -0.392142 
vn -0.809967 0.436093 -0.392142 
vn -0.809967 0.436093 -0.392142 
vn -0.809967 0.436093 -0.392142 
vn -0.809967 0.436093 -0.392142 
vn -0.809967 0.436093 -0.392142 
vn -0.809967 0.436093 -0.392142 
vn -0.809967 0.436093 -0.392142 
vn -0.809967 0.436093 -0.392142 
vn -0.809967 0.436093 -0.392142 
vn -0.809967 0.436093 -0.392142 
vn -0.809967 0.436093 -0.392142 
vn -0.809967 0.436093 -0.392142 
vn -0.809967 0.436093 -0.392142 
vn -0.809967 0.436093 -0.392142 
vn -0.809967 0.436093 -0.392142 
vn -0.809967 0.436093 -0.392142 
vn -0.809967 0.436093 -0.392142 
vn -0.809967 0.436093 -0.392142 
vn -0.809967 0.436093 -0.392142 
vn -0.809967 0.436093 -0.392142 
vn -0.809967 0.436093 -0.392142 
vn -0.809967 0.436093 -0.392142 
vn -0.809967 0.436093 -0.392142 
vn -0.809967 0.436093 -0.392142 
vn -0.809967 0.436093 -0.392142 
vn -0.809967 0.436093 -0.392142 
vn -0.809967 0.436093 -0.392142 
vn -0.809967 0.436093 -0.392142 
vn -0.809967 0.436093 -0.392142 
vn -0.809967 0.436093 -0.392142 
vn -0.809967 0.436093 -0.392142 
vn -0.809967 0.436093 -0.392142 
vn -0.809967 0.436093 -0.392142 
vn -0.809967 0.436093 -0.392142 
vn -0.809967 0.436093 -0.392142 
vn -0.809967 0.436093 -0.392142 
vn -0.809967 0.436093 -0.392142 
vn -0.809967 0.436093 -0.392142 
vn -0.809967 0.436093 -0.392142 
vn -0.809967 0.436093 -0.392142 
vn -0.809967 0.436093 -0.392142 
vn -0.809967 0.436093 -0.392142 
vn -0.809967 0.436093 -0.392142 
vn -0.809967 0.436093 -0.392142 
vn -0.809967 0.436093 -0.392142 
vn -0.809967 0.436093 -0.392142 
vn -0.809967 0.436093 -0.392142 
vn -0.809967 0.436093 -0.392142 
vn -0.809967 0.436093 -0.392142 
vn -0.809967 0.436093 -0.392142 
vn -0.809967 0.436093 -0.392142 
vn -0.809967 0.436093 -0.392142 
vn -0.809967 0.436093 -0.392142 
vn -0.809967 0.436093 -0.392142 
vn -0.809967 0.436093 -0.392142 
vn -0.809967 0.436093 -0.392142 
vn -0.809967 0.436093 -0.392142 
vn -0.809967 0.436093 -0.392142 
vn -0.809967 0.436093 -0.392142 
vn -0.809967 0.436093 -0.392142 
vn -0.809967 0.436093 -0.392142 
vn -0.809967 0.436093 -0.392142 
vn -0.809967 0.436093 -0.392142 
vn -0.809967 0.436093 -0.392142 
vn -0.809967 0.436093 -0.392142 
vn -0.809967 0.436093 -0.392142 
vn -0.809967 0.436093 -0.392142 
vn -0.809967 0.436093 -0.392142 
vn -0.809967 0.436093 -0.392142 
vn -0.809967 0.436093 -0.392142 
vn -0.809967 0.436093 -0.392142 
vn -0.809967 0.436093 -0.392142 
vn -0.809967 0.436093 -0.392142 
vn -0.809967 0.436093 -0.392142 
vn -0.809967 0.436093 -0.392142 
vn -0.809967 0.436093 -0.392142 
vn -0.809967 0.436093 -0.392142 
vn -0.809967 0.436093 -0.392142 
vn -0.809967 0.436093 -0.392142 
vn -0.809967 0.436093 -0.392142 
vn -0.809967 0.436093 -0.392142 
vn -0.809967 0.436093 -0.392142 
vn -0.809967 0.436093 -0.392142 
vn -0.809967 0.436093 -0.392142 
vn -0.809967 0.436093 -0.392142 
vn -0.809967 0.436093 -0.392142 
vn -0.809967 0.436093 -0.392142 
vn -0.809967 0.436093 -0.392142 
f 300//300 301//301 302//302 
f 300//300 303//303 301//301 
f 304//304 305//305 306//306 
f 307//307 308//308 309//309 
f 307//307 310//310 311//311 
f 306//306 300//300 304//304 
f 310//310 312//312 313//313 
f 307//307 314//314 315//315 
f 311//311 308//308 307//307 
f 302//302 304//304 300//300 
f 310//310 307//307 312//312 
f 309//309 314//314 307//307 
f 313//313 305//305 310//310 
f 304//304 310//310 305//305 
f 316//316 317//317 318//318 
f 319//319 320//320 321//321 
f 317//317 322//322 323//323 
f 318//318 324//324 316//316 
f 325//325 326//326 319//319 
f 321//321 327//327 319//319 
f 319//319 323//323 328//328 
f 323//323 329//329 317//317 
f 330//330 331//331 316//316 
f 319//319 332//332 333//333 
f 328//328 320//320 319//319 
f 323//323 334//334 335//335 
f 329//329 336//336 317//317 
f 330//330 337//337 331//331 
f 326//326 338//338 339//339 
f 327//327 332//332 319//319 
f 323//323 322//322 334//334 
f 324//324 330//330 316//316 
f 330//330 340//340 341//341 
f 342//342 343//343 344//344 
f 326//326 345//345 338//338 
f 326//326 325//325 346//346 
f 323//323 347//347 328//328 
f 336//336 318//318 317//317 
f 341//341 348//348 330//330 
f 330//330 342//342 349//349 
f 344//344 350//350 342//342 
f 339//339 342//342 326//326 
f 346//346 351//351 326//326 
f 335//335 347//347 323//323 
f 349//349 340//340 330//330 
f 342//342 352//352 353//353 
f 339//339 343//343 342//342 
f 319//319 333//333 325//325 
f 342//342 354//354 349//349 
f 350//350 352//352 342//342 
f 348//348 337//337 330//330 
f 351//351 345//345 326//326 
f 355//355 356//356 357//357 
f 356//356 342//342 358//358 
f 342//342 359//359 360//360 
f 330//330 361//361 362//362 
f 363//363 364//364 365//365 
f 364//364 366//366 367//367 
f 368//368 369//369 370//370 
f 369//369 371//371 372//372 
f 356//356 373//373 357//357 
f 360//360 358//358 342//342 
f 330//330 374//374 375//375 
f 330//330 376//376 361//361 
f 377//377 378//378 379//379 
f 378//378 363//363 380//380 
f 367//367 365//365 364//364 
f 366//366 381//381 382//382 
f 381//381 368//368 383//383 
f 372//372 370//370 369//369 
f 357//357 384//384 355//355 
f 356//356 385//385 386//386 
f 342//342 387//387 359//359 
f 362//362 374//374 330//330 
f 330//330 388//388 389//389 
f 330//330 377//377 390//390 
f 380//380 379//379 378//378 
f 382//382 367//367 366//366 
f 370//370 383//383 368//368 
f 391//391 392//392 372//372 
f 384//384 393//393 355//355 
f 358//358 385//385 356//356 
f 342//342 394//394 395//395 
f 375//375 342//342 330//330 
f 390//390 388//388 330//330 
f 365//365 380//380 363//363 
f 372//372 371//371 391//391 
f 355//355 396//396 392//392 
f 386//386 373//373 356//356 
f 375//375 394//394 342//342 
f 379//379 390//390 377//377 
f 392//392 391//391 355//355 
f 395//395 387//387 342//342 
f 383//383 382//382 381//381 
f 389//389 376//376 330//330 
f 356//356 397//397 398//398 
f 356//356 399//399 397//397 
f 356//356 400//400 399//399 
f 356//356 401//401 402//402 
f 403//403 404//404 401//401 
f 356//356 405//405 400//400 
f 401//401 356//356 403//403 
f 402//402 405//405 356//356 
f 403//403 406//406 404//404 
f 403//403 407//407 408//408 
f 408//408 406//406 403//403 
f 409//409 410//410 411//411 
f 412//412 413//413 414//414 
f 415//415 416//416 417//417 
f 415//415 418//418 419//419 
f 411//411 420//420 409//409 
f 421//421 422//422 423//423 
f 424//424 425//425 426//426 
f 427//427 428//428 425//425 
f 414//414 429//429 412//412 
f 430//430 421//421 413//413 
f 415//415 431//431 432//432 
f 415//415 433//433 434//434 
f 415//415 435//435 436//436 
f 419//419 416//416 415//415 
f 437//437 410//410 438//438 
f 409//409 439//439 410//410 
f 440//440 441//441 442//442 
f 440//440 443//443 444//444 
f 307//307 445//445 446//446 
f 421//421 447//447 448//448 
f 423//423 449//449 421//421 
f 428//428 427//427 450//450 
f 425//425 424//424 427//427 
f 412//412 451//451 452//452 
f 413//413 412//412 430//430 
f 415//415 453//453 454//454 
f 434//434 431//431 415//415 
f 417//417 435//435 415//415 
f 420//420 455//455 456//456 
f 410//410 457//457 438//438 
f 439//439 458//458 410//410 
f 459//459 460//460 461//461 
f 459//459 430//430 412//412 
f 437//437 462//462 463//463 
f 440//440 464//464 462//462 
f 440//440 465//465 441//441 
f 444//444 466//466 440//440 
f 446//446 442//442 307//307 
f 467//467 468//468 469//469 
f 422//422 470//470 467//467 
f 449//449 447//447 421//421 
f 426//426 471//471 424//424 
f 429//429 451//451 412//412 
f 415//415 472//472 473//473 
f 415//415 474//474 475//475 
f 415//415 476//476 453//453 
f 436//436 433//433 415//415 
f 477//477 478//478 437//437 
f 477//477 479//479 480//480 
f 477//477 454//454 481//481 
f 456//456 409//409 420//420 
f 458//458 457//457 410//410 
f 412//412 460//460 459//459 
f 411//411 410//410 482//482 
f 463//463 483//483 437//437 
f 440//440 484//484 485//485 
f 462//462 486//486 440//440 
f 466//466 465//465 440//440 
f 446//446 487//487 442//442 
f 307//307 488//488 489//489 
f 307//307 467//467 490//490 
f 467//467 491//491 468//468 
f 448//448 413//413 421//421 
f 452//452 428//428 412//412 
f 492//492 493//493 494//494 
f 493//493 492//492 424//424 
f 495//495 496//496 497//497 
f 403//403 498//498 499//499 
f 475//475 472//472 415//415 
f 432//432 476//476 415//415 
f 477//477 500//500 478//478 
f 481//481 479//479 477//477 
f 438//438 501//501 437//437 
f 482//482 459//459 411//411 
f 437//437 502//502 503//503 
f 483//483 504//504 437//437 
f 486//486 484//484 440//440 
f 440//440 505//505 443//443 
f 307//307 506//506 445//445 
f 489//489 507//507 307//307 
f 490//490 508//508 307//307 
f 467//467 509//509 491//491 
f 450//450 412//412 428//428 
f 424//424 471//471 493//493 
f 496//496 495//495 510//510 
f 497//497 511//511 495//495 
f 499//499 512//512 403//403 
f 454//454 477//477 415//415 
f 480//480 500//500 477//477 
f 461//461 411//411 459//459 
f 504//504 502//502 437//437 
f 462//462 513//513 514//514 
f 442//442 515//515 440//440 
f 507//507 506//506 307//307 
f 469//469 490//490 467//467 
f 467//467 423//423 422//422 
f 326//326 516//516 492//492 
f 326//326 342//342 517//517 
f 342//342 518//518 519//519 
f 510//510 520//520 496//496 
f 512//512 521//521 511//511 
f 403//403 522//522 498//498 
f 403//403 523//523 524//524 
f 475//475 474//474 525//525 
f 437//437 526//526 477//477 
f 437//437 501//501 527//527 
f 503//503 410//410 437//437 
f 462//462 464//464 513//513 
f 487//487 515//515 442//442 
f 470//470 509//509 467//467 
f 517//517 516//516 326//326 
f 519//519 528//528 342//342 
f 342//342 398//398 529//529 
f 520//520 530//530 496//496 
f 403//403 512//512 531//531 
f 512//512 532//532 521//521 
f 524//524 522//522 403//403 
f 403//403 475//475 533//533 
f 473//473 418//418 415//415 
f 455//455 496//496 456//456 
f 485//485 505//505 440//440 
f 494//494 326//326 492//492 
f 529//529 518//518 342//342 
f 530//530 534//534 496//496 
f 531//531 535//535 403//403 
f 499//499 532//532 512//512 
f 525//525 533//533 475//475 
f 437//437 536//536 537//537 
f 514//514 463//463 462//462 
f 528//528 517//517 342//342 
f 534//534 538//538 496//496 
f 497//497 512//512 511//511 
f 537//537 526//526 437//437 
f 508//508 488//488 307//307 
f 535//535 407//407 403//403 
f 527//527 536//536 437//437 
f 533//533 523//523 403//403 
f 538//538 456//456 496//496 
f 398//398 342//342 356//356 
f 393//393 396//396 355//355 
f 353//353 354//354 342//342 
f 315//315 467//467 307//307 
o mesh1532
v -0.0837955 -0.0488504 0.141673 
v -0.0817706 -0.0499407 0.142654 
v -0.0652741 -0.030252 0.130476 
v -0.067299 -0.0291618 0.129495 
vn -0.0847778 0.574557 0.814062 
vn -0.0847778 0.574557 0.814062 
vn -0.0847778 0.574557 0.814062 
vn -0.0847778 0.574557 0.814062 
f 539//539 540//540 541//541 
f 541//541 542//542 539//539 
o mesh1533
v -0.0644496 -0.0610076 0.0881946 
v -0.0624246 -0.0620978 0.0891749 
v -0.0748014 -0.055904 0.121627 
v -0.0768263 -0.0548137 0.120647 
v -0.0811181 -0.0527429 0.13819 
v -0.083143 -0.0516526 0.137209 
v -0.0823486 -0.0521271 0.141416 
v -0.0843735 -0.0510369 0.140436 
vn -0.469981 -0.88261 -0.0107891 
vn -0.469981 -0.88261 -0.0107891 
vn -0.469981 -0.88261 -0.0107891 
vn -0.469981 -0.88261 -0.0107891 
vn -0.469981 -0.88261 -0.0107891 
vn -0.469981 -0.88261 -0.0107891 
vn -0.469981 -0.88261 -0.0107891 
vn -0.469981 -0.88261 -0.0107891 
f 543//543 544//544 545//545 
f 546//546 545//545 547//547 
f 547//547 548//548 546//546 
f 549//549 550//550 548//548 
f 548//548 547//547 549//549 
f 545//545 546//546 543//543 
o mesh1534
v -0.0578698 -0.048651 0.0883456 
v -0.0558449 -0.0497412 0.089326 
v -0.0554062 -0.0501318 0.0879856 
v -0.0574311 -0.0490415 0.0870053 
v -0.0551305 -0.0507752 0.0867005 
v -0.0571554 -0.049685 0.0857202 
v -0.0550298 -0.0516435 0.0855269 
v -0.0570547 -0.0505533 0.0845465 
v -0.0551085 -0.0526987 0.084516 
v -0.0573881 -0.0528044 0.0827316 
v -0.0571428 -0.0516526 0.0835059 
v -0.0551179 -0.0527429 0.0844863 
v -0.0571334 -0.0516085 0.0835356 
v -0.0553631 -0.0538947 0.083712 
v -0.0557826 -0.0551791 0.08315 
v -0.0578076 -0.0540889 0.0821697 
v -0.0563486 -0.0564959 0.0828547 
v -0.0583736 -0.0554057 0.0818744 
v -0.0570364 -0.0577875 0.0828389 
v -0.0590613 -0.0566973 0.0818586 
v -0.0578159 -0.0589975 0.0831034 
v -0.0598408 -0.0579072 0.082123 
v -0.058653 -0.0600729 0.0836365 
v -0.0606779 -0.0589827 0.0826561 
v -0.0595112 -0.0609669 0.0844149 
v -0.0615361 -0.0598766 0.0834345 
v -0.0603529 -0.0616402 0.0854047 
v -0.0623778 -0.0605499 0.0844243 
v -0.0611414 -0.0620635 0.0865625 
v -0.0631663 -0.0609733 0.0855822 
v -0.0618422 -0.0622183 0.0878379 
v -0.0638671 -0.061128 0.0868575 
v -0.0624246 -0.0620978 0.0891749 
v -0.0644496 -0.0610076 0.0881946 
vn 0.469981 0.88261 0.0107892 
vn 0.469981 0.88261 0.0107892 
vn 0.532649 0.826822 -0.180692 
vn 0.532649 0.826822 -0.180692 
vn 0.572038 0.734898 -0.364277 
vn 0.572038 0.734898 -0.364277 
vn 0.586426 0.610855 -0.531941 
vn 0.586426 0.610855 -0.531941 
vn 0.575184 0.460115 -0.676356 
vn 0.538804 0.289265 -0.791211 
vn 0.574287 0.454157 -0.681128 
vn 0.574287 0.454157 -0.681128 
vn 0.575184 0.460115 -0.676356 
vn 0.538804 0.289265 -0.791211 
vn 0.478876 0.105774 -0.871487 
vn 0.478876 0.105774 -0.871487 
vn 0.398018 -0.082341 -0.913675 
vn 0.398018 -0.082341 -0.913675 
vn 0.299765 -0.266857 -0.91593 
vn 0.299765 -0.266857 -0.91593 
vn 0.188411 -0.43971 -0.878155 
vn 0.188411 -0.43971 -0.878155 
vn 0.0688228 -0.593345 -0.802001 
vn 0.0688228 -0.593345 -0.802001 
vn -0.0537737 -0.721049 -0.690795 
vn -0.0537737 -0.721049 -0.690795 
vn -0.17402 -0.817239 -0.549398 
vn -0.17402 -0.817239 -0.549398 
vn -0.286661 -0.877712 -0.38399 
vn -0.286661 -0.877712 -0.38399 
vn -0.386773 -0.899824 -0.201799 
vn -0.386773 -0.899824 -0.201799 
vn -0.469981 -0.88261 -0.0107891 
vn -0.469981 -0.88261 -0.0107891 
f 551//551 552//552 553//553 
f 554//554 553//553 555//555 
f 556//556 555//555 557//557 
f 558//558 557//557 559//559 
f 560//560 561//561 562//562 
f 563//563 559//559 562//562 
f 562//562 561//561 563//563 
f 560//560 564//564 565//565 
f 566//566 565//565 567//567 
f 568//568 567//567 569//569 
f 570//570 569//569 571//571 
f 572//572 571//571 573//573 
f 574//574 573//573 575//575 
f 576//576 575//575 577//577 
f 578//578 577//577 579//579 
f 580//580 579//579 581//581 
f 582//582 581//581 583//583 
f 583//583 584//584 582//582 
f 581//581 582//582 580//580 
f 579//579 580//580 578//578 
f 577//577 578//578 576//576 
f 575//575 576//576 574//574 
f 573//573 574//574 572//572 
f 571//571 572//572 570//570 
f 569//569 570//570 568//568 
f 567//567 568//568 566//566 
f 565//565 566//566 560//560 
f 562//562 564//564 560//560 
f 559//559 563//563 558//558 
f 557//557 558//558 556//556 
f 555//555 556//556 554//554 
f 553//553 554//554 551//551 
o mesh1535
v -0.0558449 -0.0497412 0.089326 
v -0.0578698 -0.048651 0.0883456 
v -0.0710821 -0.0420391 0.122989 
v -0.0690572 -0.0431293 0.123969 
vn 0.469981 0.88261 0.0107892 
vn 0.469981 0.88261 0.0107892 
vn 0.469981 0.88261 0.0107892 
vn 0.469981 0.88261 0.0107892 
f 585//585 586//586 587//587 
f 587//587 588//588 585//585 
o mesh1536
v -0.0688784 -0.0415415 0.125365 
v -0.0709033 -0.0404513 0.124385 
v -0.0690154 -0.0369057 0.124428 
v -0.065734 -0.0307434 0.124504 
v -0.0637091 -0.0318336 0.125484 
v -0.0669904 -0.037996 0.125409 
vn 0.350814 -0.175561 -0.919841 
vn 0.350814 -0.175561 -0.919841 
vn 0.350814 -0.175561 -0.919841 
vn 0.350814 -0.175561 -0.919841 
vn 0.350814 -0.175561 -0.919841 
vn 0.350814 -0.175561 -0.919841 
f 589//589 590//590 591//591 
f 592//592 593//593 594//594 
f 594//594 591//591 592//592 
f 591//591 594//594 589//589 
o mesh1537
v -0.0656207 -0.0291229 0.126072 
v -0.0664666 -0.0286995 0.12829 
v -0.0644417 -0.0297898 0.12927 
v -0.0635958 -0.0302131 0.127052 
v -0.0635302 -0.0302459 0.12688 
v -0.0655552 -0.0291557 0.1259 
vn 0.469981 0.88261 0.0107891 
vn 0.469981 0.88261 0.0107891 
vn 0.469981 0.88261 0.0107891 
vn 0.469981 0.88261 0.0107891 
vn 0.469981 0.88261 0.0107891 
vn 0.469981 0.88261 0.0107891 
f 595//595 596//596 597//597 
f 595//595 598//598 599//599 
f 599//599 600//600 595//595 
f 597//597 598//598 595//595 
o mesh1538
v -0.0817706 -0.0499407 0.142654 
v -0.0837955 -0.0488504 0.141673 
v -0.0841165 -0.0492557 0.141886 
v -0.0821844 -0.0504743 0.142915 
v -0.0844131 -0.0497008 0.142003 
v -0.0823896 -0.0507899 0.142988 
v -0.0823829 -0.0507776 0.142987 
v -0.0842072 -0.0493882 0.141926 
v -0.0843715 -0.049628 0.141998 
v -0.0845289 -0.0499095 0.14201 
v -0.0825048 -0.0509996 0.142992 
v -0.0825017 -0.0509928 0.142994 
v -0.0845116 -0.0498732 0.142015 
v -0.0846038 -0.050075 0.141981 
v -0.08258 -0.0511654 0.142963 
v -0.082578 -0.05116 0.142965 
v -0.0845897 -0.050038 0.141993 
v -0.0846539 -0.050215 0.141929 
v -0.0826302 -0.0513059 0.142911 
v -0.0826291 -0.0513012 0.142914 
v -0.0846455 -0.0501846 0.141945 
v -0.0846843 -0.0503256 0.141868 
v -0.0826642 -0.0514397 0.142832 
v -0.0826643 -0.0514402 0.142832 
v -0.0846878 -0.0503484 0.14185 
v -0.0847032 -0.050449 0.14177 
v -0.0826801 -0.0515641 0.142727 
v -0.0847034 -0.0504722 0.141745 
v -0.0826802 -0.0515646 0.142726 
v -0.0847042 -0.0505743 0.141633 
v -0.0826774 -0.051684 0.142588 
v -0.0847008 -0.0505918 0.141606 
v -0.0826774 -0.0516846 0.142587 
v -0.0846778 -0.0507088 0.141429 
v -0.0826411 -0.051831 0.142349 
v -0.0846632 -0.0507366 0.141368 
v -0.082641 -0.0518317 0.142348 
v -0.0845991 -0.0508583 0.1411 
v -0.0825296 -0.0519992 0.141932 
v -0.0845484 -0.0508984 0.140951 
v -0.0843735 -0.0510369 0.140436 
v -0.0823486 -0.0521271 0.141416 
v -0.0825289 -0.0520002 0.14193 
vn -0.0847778 0.574557 0.814062 
vn -0.0847778 0.574557 0.814062 
vn -0.159141 0.480126 0.862643 
vn -0.190832 0.436281 0.879342 
vn -0.292723 0.278788 0.914653 
vn -0.292723 0.278788 0.914653 
vn -0.288121 0.286506 0.913729 
vn -0.190832 0.436281 0.879342 
vn -0.26627 0.322311 0.908414 
vn -0.38202 0.115016 0.916969 
vn -0.38202 0.115016 0.916969 
vn -0.378906 0.121241 0.917459 
vn -0.36554 0.147485 0.919037 
vn -0.460252 -0.058244 0.885876 
vn -0.460252 -0.058244 0.885876 
vn -0.457643 -0.0518257 0.887625 
vn -0.442644 -0.0159373 0.896556 
vn -0.522119 -0.231662 0.820807 
vn -0.522119 -0.231662 0.820807 
vn -0.52018 -0.22539 0.823779 
vn -0.509384 -0.191732 0.838908 
vn -0.559506 -0.374151 0.73957 
vn -0.565734 -0.404729 0.718429 
vn -0.56585 -0.405337 0.717994 
vn -0.565734 -0.404729 0.718429 
vn -0.583 -0.526035 0.619192 
vn -0.585046 -0.554166 0.592133 
vn -0.585046 -0.554166 0.592133 
vn -0.585079 -0.554749 0.591553 
vn -0.584414 -0.656165 0.477397 
vn -0.582762 -0.673586 0.45461 
vn -0.582762 -0.673586 0.45461 
vn -0.582711 -0.674041 0.454 
vn -0.564798 -0.760124 0.321269 
vn -0.557751 -0.779471 0.285199 
vn -0.557751 -0.779471 0.285199 
vn -0.557616 -0.779807 0.284544 
vn -0.526843 -0.8348 0.159828 
vn -0.511664 -0.852232 0.109088 
vn -0.511664 -0.852232 0.109088 
vn -0.469981 -0.88261 -0.0107891 
vn -0.469981 -0.88261 -0.0107891 
vn -0.511417 -0.852481 0.108302 
f 601//601 602//602 603//603 
f 603//603 604//604 601//601 
f 605//605 606//606 607//607 
f 604//604 608//608 609//609 
f 609//609 607//607 604//604 
f 610//610 611//611 612//612 
f 612//612 605//605 613//613 
f 612//612 613//613 610//610 
f 614//614 615//615 616//616 
f 611//611 610//610 617//617 
f 617//617 616//616 611//611 
f 618//618 619//619 620//620 
f 620//620 614//614 621//621 
f 620//620 621//621 618//618 
f 619//619 618//618 622//622 
f 622//622 623//623 619//619 
f 624//624 625//625 626//626 
f 626//626 627//627 624//624 
f 626//626 628//628 627//627 
f 629//629 628//628 630//630 
f 630//630 631//631 629//629 
f 630//630 632//632 631//631 
f 633//633 632//632 634//634 
f 634//634 635//635 633//633 
f 634//634 636//636 635//635 
f 637//637 636//636 638//638 
f 638//638 639//639 637//637 
f 638//638 640//640 639//639 
f 641//641 642//642 643//643 
f 643//643 640//640 641//641 
f 643//643 639//639 640//640 
f 637//637 635//635 636//636 
f 633//633 631//631 632//632 
f 629//629 627//627 628//628 
f 624//624 623//623 625//625 
f 622//622 625//625 623//623 
f 620//620 615//615 614//614 
f 616//616 617//617 614//614 
f 612//612 606//606 605//605 
f 607//607 609//609 605//605 
f 603//603 608//608 604//604 
o mesh1539
v -0.0635302 -0.0302459 0.12688 
v -0.0633935 -0.0303601 0.126471 
v -0.0654175 -0.0292682 0.125491 
v -0.0653554 -0.0293923 0.125224 
v -0.0633878 -0.0303648 0.126454 
v -0.0633309 -0.03048 0.126208 
v -0.0633072 -0.0306163 0.126008 
v -0.0653329 -0.0295271 0.125028 
v -0.0653545 -0.0293941 0.12522 
v -0.0633305 -0.0304825 0.126205 
v -0.0633065 -0.0306199 0.126002 
v -0.0633118 -0.0307745 0.125841 
v -0.0653367 -0.0296843 0.124861 
v -0.065331 -0.029539 0.125011 
v -0.063345 -0.0309537 0.125711 
v -0.0653691 -0.029863 0.124729 
v -0.0653689 -0.0298623 0.12473 
v -0.0633411 -0.0309402 0.125718 
v -0.0634041 -0.0311554 0.125608 
v -0.0654294 -0.0300653 0.124629 
v -0.0634058 -0.0311611 0.125606 
v -0.0635006 -0.031401 0.125535 
v -0.0655248 -0.0303107 0.124553 
v -0.0654334 -0.0300787 0.124622 
v -0.0657213 -0.0307173 0.124506 
v -0.0655312 -0.0303271 0.124548 
v -0.0635137 -0.0314342 0.125525 
v -0.0636963 -0.0318076 0.125487 
v -0.0637091 -0.0318336 0.125484 
v -0.065734 -0.0307434 0.124504 
v -0.0655552 -0.0291557 0.1259 
vn 0.469981 0.88261 0.0107891 
vn 0.527748 0.833611 -0.163018 
vn 0.527748 0.833611 -0.163018 
vn 0.566465 0.754899 -0.330522 
vn 0.530311 0.830135 -0.172178 
vn 0.565972 0.756476 -0.327749 
vn 0.585123 0.646266 -0.489869 
vn 0.585123 0.646266 -0.489869 
vn 0.566948 0.753327 -0.333269 
vn 0.566465 0.754899 -0.330522 
vn 0.585335 0.642777 -0.494187 
vn 0.58039 0.49996 -0.642797 
vn 0.58039 0.49996 -0.642797 
vn 0.585764 0.634465 -0.504317 
vn 0.550619 0.335247 -0.764479 
vn 0.550619 0.335247 -0.764479 
vn 0.550774 0.335891 -0.764084 
vn 0.553369 0.346807 -0.757303 
vn 0.502364 0.170875 -0.847604 
vn 0.502364 0.170875 -0.847604 
vn 0.500863 0.166507 -0.84936 
vn 0.441142 0.0124314 -0.897351 
vn 0.441142 0.0124314 -0.897351 
vn 0.49889 0.160818 -0.851614 
vn 0.355445 -0.166822 -0.91969 
vn 0.437195 0.00329418 -0.899361 
vn 0.433214 -0.00581921 -0.901272 
vn 0.355445 -0.166822 -0.91969 
vn 0.350814 -0.175561 -0.919841 
vn 0.350814 -0.175561 -0.919841 
vn 0.469981 0.88261 0.0107891 
f 644//644 645//645 646//646 
f 647//647 646//646 648//648 
f 646//646 645//645 648//648 
f 648//648 649//649 647//647 
f 650//650 651//651 652//652 
f 652//652 653//653 650//650 
f 651//651 650//650 654//654 
f 655//655 656//656 657//657 
f 657//657 654//654 655//655 
f 658//658 659//659 660//660 
f 656//656 655//655 661//661 
f 661//661 660//660 656//656 
f 658//658 662//662 663//663 
f 663//663 662//662 664//664 
f 665//665 666//666 667//667 
f 667//667 664//664 665//665 
f 668//668 669//669 670//670 
f 669//669 665//665 670//670 
f 670//670 671//671 668//668 
f 672//672 673//673 668//668 
f 668//668 671//671 672//672 
f 669//669 666//666 665//665 
f 664//664 667//667 663//663 
f 663//663 659//659 658//658 
f 660//660 661//661 658//658 
f 654//654 657//657 651//651 
f 652//652 647//647 653//653 
f 649//649 653//653 647//647 
f 646//646 674//674 644//644 
o mesh1540
v -0.0709033 -0.0404513 0.124385 
v -0.0688784 -0.0415415 0.125365 
v -0.0688911 -0.0415676 0.125363 
v -0.0690811 -0.0419578 0.125321 
v -0.0710987 -0.0408507 0.124344 
v -0.0711118 -0.0408839 0.124335 
v -0.0709161 -0.0404774 0.124382 
v -0.0691829 -0.0422196 0.12524 
v -0.0712083 -0.0411296 0.124261 
v -0.0712066 -0.0411238 0.124263 
v -0.0690876 -0.0419743 0.125316 
v -0.069179 -0.0422062 0.125247 
v -0.0712674 -0.0413313 0.124158 
v -0.0692432 -0.0424219 0.12514 
v -0.0692435 -0.0424227 0.12514 
v -0.0713006 -0.0415104 0.124028 
v -0.0712713 -0.0413447 0.124152 
v -0.0692795 -0.0427578 0.124841 
v -0.0713052 -0.0416686 0.123861 
v -0.0713058 -0.0416651 0.123867 
v -0.0692757 -0.0426006 0.125008 
v -0.0692814 -0.042746 0.124858 
v -0.0692579 -0.0428909 0.124649 
v -0.0712819 -0.0418025 0.123664 
v -0.069257 -0.0428927 0.124645 
v -0.0691949 -0.0430168 0.124379 
v -0.0712246 -0.0419201 0.123415 
v -0.0712189 -0.0419249 0.123398 
v -0.0712815 -0.0418049 0.123661 
v -0.0691842 -0.0430256 0.124347 
v -0.0712084 -0.0419336 0.123367 
v -0.0710821 -0.0420391 0.122989 
v -0.0690572 -0.0431293 0.123969 
vn 0.350814 -0.175561 -0.919841 
vn 0.350814 -0.175561 -0.919841 
vn 0.355445 -0.166822 -0.91969 
vn 0.437195 0.0032942 -0.899361 
vn 0.433214 -0.00581921 -0.901272 
vn 0.441142 0.0124314 -0.897351 
vn 0.355445 -0.166822 -0.91969 
vn 0.502364 0.170875 -0.847604 
vn 0.502364 0.170875 -0.847604 
vn 0.500863 0.166507 -0.84936 
vn 0.441142 0.0124314 -0.897351 
vn 0.49889 0.160818 -0.851614 
vn 0.550619 0.335247 -0.764479 
vn 0.550619 0.335247 -0.764479 
vn 0.550774 0.335891 -0.764084 
vn 0.58039 0.49996 -0.642797 
vn 0.553369 0.346807 -0.757303 
vn 0.585123 0.646266 -0.489869 
vn 0.585123 0.646266 -0.489869 
vn 0.585335 0.642777 -0.494187 
vn 0.58039 0.49996 -0.642797 
vn 0.585764 0.634465 -0.504317 
vn 0.566948 0.753327 -0.333269 
vn 0.566465 0.754899 -0.330522 
vn 0.566465 0.754899 -0.330522 
vn 0.527748 0.833611 -0.163018 
vn 0.530311 0.830135 -0.172178 
vn 0.527748 0.833611 -0.163018 
vn 0.565972 0.756476 -0.327749 
vn 0.523003 0.839645 -0.146508 
vn 0.523095 0.839533 -0.146822 
vn 0.469981 0.88261 0.0107892 
vn 0.469981 0.88261 0.0107892 
f 675//675 676//676 677//677 
f 677//677 678//678 679//679 
f 678//678 680//680 679//679 
f 679//679 681//681 677//677 
f 682//682 683//683 684//684 
f 684//684 685//685 686//686 
f 684//684 686//686 682//682 
f 687//687 683//683 682//682 
f 687//687 688//688 689//689 
f 689//689 690//690 691//691 
f 689//689 691//691 687//687 
f 692//692 693//693 694//694 
f 694//694 695//695 696//696 
f 694//694 696//696 692//692 
f 693//693 692//692 697//697 
f 697//697 698//698 693//693 
f 699//699 700//700 701//701 
f 700//700 702//702 701//701 
f 701//701 703//703 699//699 
f 700//700 704//704 705//705 
f 706//706 705//705 704//704 
f 704//704 707//707 706//706 
f 705//705 702//702 700//700 
f 703//703 698//698 699//699 
f 697//697 699//699 698//698 
f 694//694 690//690 695//695 
f 689//689 695//695 690//690 
f 682//682 688//688 687//687 
f 684//684 680//680 685//685 
f 678//678 685//685 680//680 
f 677//677 681//681 675//675 
o mesh1541
v -0.0671008 -0.0289463 0.129326 
v -0.067299 -0.0291618 0.129495 
v -0.0651829 -0.0301474 0.130403 
v -0.0652741 -0.030252 0.130476 
v -0.0669402 -0.0288077 0.129148 
v -0.0649954 -0.0299624 0.130222 
v -0.0650761 -0.030042 0.1303 
v -0.0649162 -0.0299033 0.130124 
v -0.066798 -0.0287191 0.128953 
v -0.0669388 -0.0288065 0.129146 
v -0.0647687 -0.0298119 0.129921 
v -0.0667924 -0.0287172 0.128943 
v -0.0648408 -0.029847 0.130031 
v -0.0646337 -0.0297685 0.129691 
v -0.0666567 -0.0286732 0.128712 
v -0.0666617 -0.0286731 0.128722 
v -0.0647057 -0.0297812 0.129825 
v -0.0665309 -0.0286775 0.128447 
v -0.0645745 -0.0297581 0.12958 
v -0.0644417 -0.0297898 0.12927 
v -0.0664666 -0.0286995 0.12829 
v -0.0665244 -0.0286777 0.128434 
v -0.064509 -0.0297737 0.129427 
vn 0.0279523 0.696588 0.716927 
vn -0.0847778 0.574557 0.814062 
vn -0.0367302 0.62961 0.776043 
vn -0.0847778 0.574557 0.814062 
vn 0.140876 0.793738 0.591722 
vn 0.082444 0.746668 0.660068 
vn 0.0279523 0.696588 0.716927 
vn 0.140876 0.793738 0.591722 
vn 0.250187 0.861678 0.441495 
vn 0.141909 0.794506 0.590442 
vn 0.254744 0.86388 0.434532 
vn 0.254744 0.86388 0.434532 
vn 0.197676 0.832519 0.51753 
vn 0.355717 0.896912 0.262706 
vn 0.355717 0.896912 0.262706 
vn 0.351871 0.896279 0.269947 
vn 0.301587 0.883174 0.359234 
vn 0.43615 0.894914 0.09435 
vn 0.39408 0.899896 0.186786 
vn 0.469981 0.88261 0.0107891 
vn 0.469981 0.88261 0.0107891 
vn 0.439515 0.894065 0.0864556 
vn 0.43615 0.894914 0.09435 
f 708//708 709//709 710//710 
f 709//709 711//711 710//710 
f 712//712 708//708 713//713 
f 708//708 714//714 713//713 
f 715//715 716//716 717//717 
f 718//718 719//719 716//716 
f 716//716 715//715 720//720 
f 716//716 720//720 718//718 
f 721//721 722//722 723//723 
f 723//723 724//724 721//721 
f 719//719 718//718 724//724 
f 725//725 722//722 726//726 
f 722//722 721//721 726//726 
f 727//727 728//728 729//729 
f 729//729 730//730 727//727 
f 729//729 725//725 730//730 
f 726//726 730//730 725//725 
f 723//723 719//719 724//724 
f 717//717 712//712 715//715 
f 713//713 715//715 712//712 
f 710//710 714//714 708//708 
o mesh1542
v -0.0682336 -0.0331892 0.126947 
v -0.0683616 -0.0331602 0.127243 
v -0.0663367 -0.0342504 0.128224 
v -0.0680784 -0.0331552 0.126664 
v -0.0662087 -0.0342795 0.127927 
v -0.0679032 -0.0330596 0.126408 
v -0.0660535 -0.0342454 0.127644 
v -0.0677161 -0.032907 0.126192 
v -0.0658782 -0.0341499 0.127389 
v -0.067526 -0.0327045 0.126024 
v -0.0656912 -0.0339972 0.127172 
v -0.0673417 -0.0324615 0.125914 
v -0.0655011 -0.0337947 0.127005 
v -0.0671718 -0.0321894 0.125866 
v -0.0653168 -0.0335517 0.126894 
v -0.0670244 -0.0319009 0.125882 
v -0.0651469 -0.0332796 0.126846 
v -0.0669062 -0.0316096 0.125962 
v -0.0649994 -0.0329912 0.126862 
v -0.0668228 -0.0313291 0.126101 
v -0.0648812 -0.0326999 0.126942 
v -0.0667781 -0.0310724 0.126294 
v -0.0647978 -0.0324193 0.127082 
v -0.0667742 -0.0308515 0.126532 
v -0.0647532 -0.0321626 0.127275 
v -0.0668112 -0.0306769 0.126803 
v -0.0647493 -0.0319418 0.127512 
v -0.0668876 -0.0305566 0.127094 
v -0.0647863 -0.0317671 0.127783 
v -0.0649145 -0.0316089 0.128224 
v -0.0649746 -0.0315865 0.128373 
v -0.0669996 -0.0304963 0.127393 
v -0.0648627 -0.0316468 0.128075 
v -0.0669394 -0.0305187 0.127243 
v -0.067142 -0.0304988 0.127684 
v -0.0673082 -0.030564 0.127955 
v -0.0651171 -0.031589 0.128664 
v -0.0674904 -0.0306888 0.128192 
v -0.0652833 -0.0316542 0.128935 
v -0.0676801 -0.0308675 0.128385 
v -0.0654655 -0.0317791 0.129173 
v -0.0678684 -0.0310915 0.128525 
v -0.0656552 -0.0319577 0.129366 
v -0.0680465 -0.0313506 0.128605 
v -0.0658435 -0.0321818 0.129506 
v -0.0682061 -0.0316325 0.128621 
v -0.0660216 -0.0324408 0.129585 
v -0.0683398 -0.0319241 0.128573 
v -0.0661812 -0.0327227 0.129602 
v -0.0684412 -0.0322117 0.128462 
v -0.0663149 -0.0330143 0.129553 
v -0.0685056 -0.0324819 0.128295 
v -0.0664162 -0.033302 0.129443 
v -0.06853 -0.0327221 0.128078 
v -0.0664807 -0.0335722 0.129275 
v -0.0685133 -0.032921 0.127823 
v -0.0665051 -0.0338124 0.129059 
v -0.0684563 -0.0330694 0.12754 
v -0.0664884 -0.0340113 0.128803 
v -0.0664314 -0.0341596 0.12852 
vn 0.388756 0.899868 0.197752 
vn 0.474064 0.880491 4.15611e-16 
vn 0.474064 0.880491 4.15611e-16 
vn 0.28527 0.877169 0.386258 
vn 0.388756 0.899868 0.197752 
vn 0.168446 0.813454 0.556703 
vn 0.28527 0.877169 0.386258 
vn 0.0437451 0.711704 0.701116 
vn 0.168446 0.813454 0.556703 
vn -0.0830012 0.576674 0.812747 
vn 0.0437451 0.711704 0.701116 
vn -0.205866 0.41468 0.886374 
vn -0.0830012 0.576674 0.812747 
vn -0.319106 0.233296 0.918556 
vn -0.205866 0.41468 0.886374 
vn -0.417424 0.0410038 0.907786 
vn -0.319106 0.233296 0.918556 
vn -0.496224 -0.153206 0.85457 
vn -0.417424 0.0410038 0.907786 
vn -0.551821 -0.340252 0.761395 
vn -0.496224 -0.153206 0.85457 
vn -0.581615 -0.511389 0.632618 
vn -0.551821 -0.340252 0.761395 
vn -0.584214 -0.658613 0.47426 
vn -0.581615 -0.511389 0.632618 
vn -0.559496 -0.775041 0.293727 
vn -0.584214 -0.658613 0.47426 
vn -0.508616 -0.85523 0.0994592 
vn -0.559496 -0.775041 0.293727 
vn -0.474064 -0.880491 -2.55097e-16 
vn -0.433954 -0.895428 -0.0994592 
vn -0.433954 -0.895428 -0.0994592 
vn -0.508616 -0.85523 0.0994592 
vn -0.474064 -0.880491 -6.18718e-14 
vn -0.339 -0.893758 -0.293727 
vn -0.228196 -0.850296 -0.47426 
vn -0.339 -0.893758 -0.293727 
vn -0.106721 -0.767076 -0.632618 
vn -0.228196 -0.850296 -0.47426 
vn 0.0197438 -0.647988 -0.761395 
vn -0.106721 -0.767076 -0.632618 
vn 0.145286 -0.4986 -0.85457 
vn 0.0197438 -0.647988 -0.761395 
vn 0.264034 -0.325899 -0.907786 
vn 0.145286 -0.4986 -0.85457 
vn 0.370436 -0.137959 -0.918556 
vn 0.264034 -0.325899 -0.907786 
vn 0.459517 0.056432 -0.886374 
vn 0.370436 -0.137959 -0.918556 
vn 0.527112 0.248184 -0.812747 
vn 0.459517 0.056432 -0.886374 
vn 0.57006 0.428331 -0.701116 
vn 0.527112 0.248184 -0.812747 
vn 0.586352 0.58845 -0.556703 
vn 0.57006 0.428331 -0.701116 
vn 0.575227 0.721054 -0.386258 
vn 0.586352 0.58845 -0.556703 
vn 0.537205 0.819942 -0.197752 
vn 0.575227 0.721054 -0.386258 
vn 0.537205 0.819942 -0.197752 
f 731//731 732//732 733//733 
f 734//734 731//731 735//735 
f 736//736 734//734 737//737 
f 738//738 736//736 739//739 
f 740//740 738//738 741//741 
f 742//742 740//740 743//743 
f 744//744 742//742 745//745 
f 746//746 744//744 747//747 
f 748//748 746//746 749//749 
f 750//750 748//748 751//751 
f 752//752 750//750 753//753 
f 754//754 752//752 755//755 
f 756//756 754//754 757//757 
f 758//758 756//756 759//759 
f 760//760 761//761 762//762 
f 758//758 763//763 760//760 
f 760//760 764//764 758//758 
f 765//765 762//762 761//761 
f 766//766 765//765 767//767 
f 768//768 766//766 769//769 
f 770//770 768//768 771//771 
f 772//772 770//770 773//773 
f 774//774 772//772 775//775 
f 776//776 774//774 777//777 
f 778//778 776//776 779//779 
f 780//780 778//778 781//781 
f 782//782 780//780 783//783 
f 784//784 782//782 785//785 
f 786//786 784//784 787//787 
f 788//788 786//786 789//789 
f 732//732 788//788 790//790 
f 790//790 733//733 732//732 
f 789//789 790//790 788//788 
f 787//787 789//789 786//786 
f 785//785 787//787 784//784 
f 783//783 785//785 782//782 
f 781//781 783//783 780//780 
f 779//779 781//781 778//778 
f 777//777 779//779 776//776 
f 775//775 777//777 774//774 
f 773//773 775//775 772//772 
f 771//771 773//773 770//770 
f 769//769 771//771 768//768 
f 767//767 769//769 766//766 
f 761//761 767//767 765//765 
f 762//762 764//764 760//760 
f 759//759 763//763 758//758 
f 757//757 759//759 756//756 
f 755//755 757//757 754//754 
f 753//753 755//755 752//752 
f 751//751 753//753 750//750 
f 749//749 751//751 748//748 
f 747//747 749//749 746//746 
f 745//745 747//747 744//744 
f 743//743 745//745 742//742 
f 741//741 743//743 740//740 
f 739//739 741//741 738//738 
f 737//737 739//739 736//736 
f 735//735 737//737 734//734 
f 733//733 735//735 731//731 
o mesh1543
v -0.0783382 -0.0521654 0.126715 
v -0.0784662 -0.0521363 0.127011 
v -0.0764413 -0.0532265 0.127992 
v -0.078183 -0.0521313 0.126432 
v -0.0763133 -0.0532556 0.127695 
v -0.0780078 -0.0520357 0.126176 
v -0.0761581 -0.0532216 0.127412 
v -0.0778207 -0.0518831 0.12596 
v -0.0759828 -0.053126 0.127157 
v -0.0776306 -0.0516806 0.125792 
v -0.0757958 -0.0529734 0.12694 
v -0.0755845 -0.0527429 0.12676 
v -0.0754214 -0.0525278 0.126662 
v -0.0774463 -0.0514376 0.125682 
v -0.0776094 -0.0516526 0.12578 
v -0.0756057 -0.0527708 0.126773 
v -0.0772764 -0.0511655 0.125634 
v -0.077129 -0.0508771 0.12565 
v -0.0752515 -0.0522557 0.126614 
v -0.0770108 -0.0505858 0.12573 
v -0.075104 -0.0519673 0.12663 
v -0.0769274 -0.0503052 0.125869 
v -0.0749858 -0.051676 0.12671 
v -0.0768827 -0.0500485 0.126062 
v -0.0749024 -0.0513954 0.12685 
v -0.0768788 -0.0498276 0.1263 
v -0.0748578 -0.0511387 0.127043 
v -0.0769159 -0.049653 0.126571 
v -0.0748539 -0.0509179 0.12728 
v -0.0769922 -0.0495327 0.126862 
v -0.0748909 -0.0507432 0.127551 
v -0.0750191 -0.0505851 0.127992 
v -0.0750792 -0.0505627 0.128141 
v -0.0771042 -0.0494724 0.127161 
v -0.0749673 -0.050623 0.127843 
v -0.077044 -0.0494948 0.127011 
v -0.0772466 -0.0494749 0.127452 
v -0.0774128 -0.0495401 0.127723 
v -0.0752217 -0.0505652 0.128432 
v -0.077595 -0.049665 0.12796 
v -0.0753879 -0.0506304 0.128703 
v -0.0777847 -0.0498436 0.128154 
v -0.0755701 -0.0507552 0.128941 
v -0.077973 -0.0500677 0.128293 
v -0.0757598 -0.0509338 0.129134 
v -0.0781511 -0.0503267 0.128373 
v -0.0759481 -0.0511579 0.129274 
v -0.0783107 -0.0506086 0.128389 
v -0.0761262 -0.0514169 0.129353 
v -0.0784444 -0.0509002 0.128341 
v -0.0762858 -0.0516989 0.12937 
v -0.0785458 -0.0511878 0.128231 
v -0.0764195 -0.0519904 0.129321 
v -0.0786102 -0.0514581 0.128063 
v -0.0765208 -0.0522781 0.129211 
v -0.0766051 -0.0527429 0.128868 
v -0.0766097 -0.0527885 0.128827 
v -0.0786346 -0.0516982 0.127846 
v -0.07863 -0.0516526 0.127888 
v -0.0765853 -0.0525483 0.129043 
v -0.0786179 -0.0518971 0.127591 
v -0.0785609 -0.0520455 0.127308 
v -0.076593 -0.0529874 0.128571 
v -0.076536 -0.0531357 0.128288 
vn 0.388756 0.899868 0.197752 
vn 0.474064 0.880491 4.15611e-16 
vn 0.474064 0.880491 4.15611e-16 
vn 0.28527 0.877169 0.386258 
vn 0.388756 0.899868 0.197752 
vn 0.168446 0.813454 0.556703 
vn 0.28527 0.877169 0.386258 
vn 0.0437451 0.711704 0.701116 
vn 0.168446 0.813454 0.556703 
vn -0.0830012 0.576674 0.812747 
vn 0.0437451 0.711704 0.701116 
vn -0.0973546 0.559387 0.823169 
vn -0.205866 0.41468 0.886374 
vn -0.205866 0.41468 0.886374 
vn -0.0973546 0.559387 0.823169 
vn -0.0830012 0.576674 0.812747 
vn -0.319106 0.233296 0.918556 
vn -0.417424 0.0410038 0.907786 
vn -0.319106 0.233296 0.918556 
vn -0.496224 -0.153206 0.85457 
vn -0.417424 0.0410038 0.907786 
vn -0.551821 -0.340252 0.761395 
vn -0.496224 -0.153206 0.85457 
vn -0.581615 -0.511389 0.632618 
vn -0.551821 -0.340252 0.761395 
vn -0.584214 -0.658613 0.47426 
vn -0.581615 -0.511389 0.632618 
vn -0.559496 -0.775041 0.293727 
vn -0.584214 -0.658613 0.47426 
vn -0.508616 -0.85523 0.0994592 
vn -0.559496 -0.775041 0.293727 
vn -0.474064 -0.880491 -2.55097e-16 
vn -0.433954 -0.895428 -0.0994592 
vn -0.433954 -0.895428 -0.0994592 
vn -0.508616 -0.85523 0.0994592 
vn -0.474064 -0.880491 -7.74843e-14 
vn -0.339 -0.893758 -0.293727 
vn -0.228196 -0.850296 -0.47426 
vn -0.339 -0.893758 -0.293727 
vn -0.106721 -0.767076 -0.632618 
vn -0.228196 -0.850296 -0.47426 
vn 0.0197438 -0.647988 -0.761395 
vn -0.106721 -0.767076 -0.632618 
vn 0.145286 -0.4986 -0.85457 
vn 0.0197438 -0.647988 -0.761395 
vn 0.264034 -0.325899 -0.907786 
vn 0.145286 -0.4986 -0.85457 
vn 0.370436 -0.137959 -0.918556 
vn 0.264034 -0.325899 -0.907786 
vn 0.459517 0.056432 -0.886374 
vn 0.370436 -0.137959 -0.918556 
vn 0.527112 0.248184 -0.812747 
vn 0.459517 0.056432 -0.886374 
vn 0.57006 0.428331 -0.701116 
vn 0.527112 0.248184 -0.812747 
vn 0.585368 0.560073 -0.586228 
vn 0.586352 0.58845 -0.556703 
vn 0.586352 0.58845 -0.556703 
vn 0.585368 0.560073 -0.586228 
vn 0.57006 0.428331 -0.701116 
vn 0.575227 0.721054 -0.386258 
vn 0.537205 0.819942 -0.197752 
vn 0.575227 0.721054 -0.386258 
vn 0.537205 0.819942 -0.197752 
f 791//791 792//792 793//793 
f 794//794 791//791 795//795 
f 796//796 794//794 797//797 
f 798//798 796//796 799//799 
f 800//800 798//798 801//801 
f 802//802 803//803 804//804 
f 802//802 805//805 800//800 
f 800//800 806//806 802//802 
f 807//807 804//804 803//803 
f 808//808 807//807 809//809 
f 810//810 808//808 811//811 
f 812//812 810//810 813//813 
f 814//814 812//812 815//815 
f 816//816 814//814 817//817 
f 818//818 816//816 819//819 
f 820//820 818//818 821//821 
f 822//822 823//823 824//824 
f 820//820 825//825 822//822 
f 822//822 826//826 820//820 
f 827//827 824//824 823//823 
f 828//828 827//827 829//829 
f 830//830 828//828 831//831 
f 832//832 830//830 833//833 
f 834//834 832//832 835//835 
f 836//836 834//834 837//837 
f 838//838 836//836 839//839 
f 840//840 838//838 841//841 
f 842//842 840//840 843//843 
f 844//844 842//842 845//845 
f 846//846 847//847 848//848 
f 846//846 849//849 844//844 
f 844//844 850//850 846//846 
f 851//851 848//848 847//847 
f 852//852 851//851 853//853 
f 792//792 852//852 854//854 
f 854//854 793//793 792//792 
f 853//853 854//854 852//852 
f 847//847 853//853 851//851 
f 848//848 849//849 846//846 
f 845//845 850//850 844//844 
f 843//843 845//845 842//842 
f 841//841 843//843 840//840 
f 839//839 841//841 838//838 
f 837//837 839//839 836//836 
f 835//835 837//837 834//834 
f 833//833 835//835 832//832 
f 831//831 833//833 830//830 
f 829//829 831//831 828//828 
f 823//823 829//829 827//827 
f 824//824 826//826 822//822 
f 821//821 825//825 820//820 
f 819//819 821//821 818//818 
f 817//817 819//819 816//816 
f 815//815 817//817 814//814 
f 813//813 815//815 812//812 
f 811//811 813//813 810//810 
f 809//809 811//811 808//808 
f 803//803 809//809 807//807 
f 804//804 805//805 802//802 
f 801//801 806//806 800//800 
f 799//799 801//801 798//798 
f 797//797 799//799 796//796 
f 795//795 797//797 794//794 
f 793//793 795//795 791//791 
o mesh1544
v -0.082548 -0.0500586 0.137753 
v -0.082676 -0.0500296 0.13805 
v -0.080651 -0.0511198 0.13903 
v -0.0823928 -0.0500246 0.13747 
v -0.0805231 -0.0511489 0.138733 
v -0.0822175 -0.049929 0.137214 
v -0.0803678 -0.0511148 0.13845 
v -0.0820305 -0.0497764 0.136998 
v -0.0801926 -0.0510193 0.138195 
v -0.0818404 -0.0495738 0.13683 
v -0.0800056 -0.0508666 0.137978 
v -0.0816561 -0.0493309 0.13672 
v -0.0798154 -0.0506641 0.137811 
v -0.0814862 -0.0490588 0.136672 
v -0.0796311 -0.0504211 0.1377 
v -0.0813387 -0.0487703 0.136688 
v -0.0794613 -0.050149 0.137652 
v -0.0812205 -0.048479 0.136768 
v -0.0793138 -0.0498606 0.137668 
v -0.0811371 -0.0481985 0.136907 
v -0.0791956 -0.0495693 0.137748 
v -0.0810924 -0.0479418 0.137101 
v -0.0791122 -0.0492887 0.137888 
v -0.0810885 -0.0477209 0.137338 
v -0.0790675 -0.049032 0.138081 
v -0.0811256 -0.0475463 0.137609 
v -0.0790636 -0.0488112 0.138318 
v -0.0812019 -0.047426 0.1379 
v -0.0791007 -0.0486365 0.138589 
v -0.079177 -0.0485162 0.138881 
v -0.0792288 -0.0484783 0.13903 
v -0.0812538 -0.0473881 0.13805 
v -0.0813139 -0.0473657 0.138199 
v -0.079289 -0.0484559 0.139179 
v -0.0814564 -0.0473682 0.13849 
v -0.0816226 -0.0474334 0.138761 
v -0.0794314 -0.0484584 0.13947 
v -0.0818048 -0.0475582 0.138998 
v -0.0795976 -0.0485236 0.139741 
v -0.0819945 -0.0477369 0.139192 
v -0.0797799 -0.0486485 0.139979 
v -0.0821828 -0.0479609 0.139331 
v -0.0799696 -0.0488271 0.140172 
v -0.0823609 -0.04822 0.139411 
v -0.0801579 -0.0490512 0.140312 
v -0.0825205 -0.0485019 0.139427 
v -0.080336 -0.0493102 0.140392 
v -0.0826541 -0.0487935 0.139379 
v -0.0804956 -0.0495921 0.140408 
v -0.0827555 -0.0490811 0.139269 
v -0.0806292 -0.0498837 0.140359 
v -0.0828199 -0.0493513 0.139101 
v -0.0807306 -0.0501713 0.140249 
v -0.0828444 -0.0495915 0.138885 
v -0.080795 -0.0504416 0.140082 
v -0.0828277 -0.0497904 0.138629 
v -0.0808195 -0.0506817 0.139865 
v -0.0827707 -0.0499387 0.138346 
v -0.0808028 -0.0508807 0.139609 
v -0.0807457 -0.051029 0.139326 
vn 0.388756 0.899868 0.197752 
vn 0.474064 0.880491 4.15611e-16 
vn 0.474064 0.880491 4.15611e-16 
vn 0.28527 0.877169 0.386258 
vn 0.388756 0.899868 0.197752 
vn 0.168446 0.813454 0.556703 
vn 0.28527 0.877169 0.386258 
vn 0.0437451 0.711704 0.701116 
vn 0.168446 0.813454 0.556703 
vn -0.0830012 0.576674 0.812747 
vn 0.0437451 0.711704 0.701116 
vn -0.205866 0.41468 0.886374 
vn -0.0830012 0.576674 0.812747 
vn -0.319106 0.233296 0.918556 
vn -0.205866 0.41468 0.886374 
vn -0.417424 0.0410038 0.907786 
vn -0.319106 0.233296 0.918556 
vn -0.496224 -0.153206 0.85457 
vn -0.417424 0.0410038 0.907786 
vn -0.551821 -0.340252 0.761395 
vn -0.496224 -0.153206 0.85457 
vn -0.581615 -0.511389 0.632618 
vn -0.551821 -0.340252 0.761395 
vn -0.584214 -0.658613 0.47426 
vn -0.581615 -0.511389 0.632618 
vn -0.559496 -0.775041 0.293727 
vn -0.584214 -0.658613 0.47426 
vn -0.508616 -0.85523 0.0994592 
vn -0.559496 -0.775041 0.293727 
vn -0.508616 -0.85523 0.0994592 
vn -0.474064 -0.880491 -2.55097e-16 
vn -0.474064 -0.880491 -2.55097e-16 
vn -0.433954 -0.895428 -0.0994592 
vn -0.433954 -0.895428 -0.0994592 
vn -0.339 -0.893758 -0.293727 
vn -0.228196 -0.850296 -0.47426 
vn -0.339 -0.893758 -0.293727 
vn -0.106721 -0.767076 -0.632618 
vn -0.228196 -0.850296 -0.47426 
vn 0.0197438 -0.647988 -0.761395 
vn -0.106721 -0.767076 -0.632618 
vn 0.145286 -0.4986 -0.85457 
vn 0.0197438 -0.647988 -0.761395 
vn 0.264034 -0.325899 -0.907786 
vn 0.145286 -0.4986 -0.85457 
vn 0.370436 -0.137959 -0.918556 
vn 0.264034 -0.325899 -0.907786 
vn 0.459517 0.056432 -0.886374 
vn 0.370436 -0.137959 -0.918556 
vn 0.527112 0.248184 -0.812747 
vn 0.459517 0.056432 -0.886374 
vn 0.57006 0.428331 -0.701116 
vn 0.527112 0.248184 -0.812747 
vn 0.586352 0.58845 -0.556703 
vn 0.57006 0.428331 -0.701116 
vn 0.575227 0.721054 -0.386258 
vn 0.586352 0.58845 -0.556703 
vn 0.537205 0.819942 -0.197752 
vn 0.575227 0.721054 -0.386258 
vn 0.537205 0.819942 -0.197752 
f 855//855 856//856 857//857 
f 858//858 855//855 859//859 
f 860//860 858//858 861//861 
f 862//862 860//860 863//863 
f 864//864 862//862 865//865 
f 866//866 864//864 867//867 
f 868//868 866//866 869//869 
f 870//870 868//868 871//871 
f 872//872 870//870 873//873 
f 874//874 872//872 875//875 
f 876//876 874//874 877//877 
f 878//878 876//876 879//879 
f 880//880 878//878 881//881 
f 882//882 880//880 883//883 
f 884//884 885//885 886//886 
f 887//887 886//886 885//885 
f 885//885 888//888 887//887 
f 889//889 887//887 888//888 
f 890//890 889//889 891//891 
f 892//892 890//890 893//893 
f 894//894 892//892 895//895 
f 896//896 894//894 897//897 
f 898//898 896//896 899//899 
f 900//900 898//898 901//901 
f 902//902 900//900 903//903 
f 904//904 902//902 905//905 
f 906//906 904//904 907//907 
f 908//908 906//906 909//909 
f 910//910 908//908 911//911 
f 912//912 910//910 913//913 
f 856//856 912//912 914//914 
f 914//914 857//857 856//856 
f 913//913 914//914 912//912 
f 911//911 913//913 910//910 
f 909//909 911//911 908//908 
f 907//907 909//909 906//906 
f 905//905 907//907 904//904 
f 903//903 905//905 902//902 
f 901//901 903//903 900//900 
f 899//899 901//901 898//898 
f 897//897 899//899 896//896 
f 895//895 897//897 894//894 
f 893//893 895//895 892//892 
f 891//891 893//893 890//890 
f 888//888 891//891 889//889 
f 886//886 882//882 884//884 
f 883//883 884//884 882//882 
f 881//881 883//883 880//880 
f 879//879 881//881 878//878 
f 877//877 879//879 876//876 
f 875//875 877//877 874//874 
f 873//873 875//875 872//872 
f 871//871 873//873 870//870 
f 869//869 871//871 868//868 
f 867//867 869//869 866//866 
f 865//865 867//867 864//864 
f 863//863 865//865 862//862 
f 861//861 863//863 860//860 
f 859//859 861//861 858//858 
f 857//857 859//859 855//855 
o mesh1545
v -0.0739448 -0.0511398 0.118781 
v -0.0741559 -0.0510918 0.11927 
v -0.072131 -0.0521821 0.12025 
v -0.0736887 -0.0510836 0.118314 
v -0.0719199 -0.05223 0.119761 
v -0.0733995 -0.0509259 0.117892 
v -0.0716638 -0.0521738 0.119295 
v -0.0730909 -0.0506741 0.117535 
v -0.0713746 -0.0520162 0.118873 
v -0.0727772 -0.0503399 0.117259 
v -0.071066 -0.0517643 0.118515 
v -0.0724731 -0.049939 0.117076 
v -0.0707523 -0.0514301 0.118239 
v -0.0721928 -0.04949 0.116997 
v -0.0704482 -0.0510292 0.118057 
v -0.0719495 -0.0490141 0.117023 
v -0.0701679 -0.0505803 0.117977 
v -0.0717545 -0.0485334 0.117155 
v -0.0699246 -0.0501043 0.118004 
v -0.0716169 -0.0480705 0.117386 
v -0.0697296 -0.0496237 0.118135 
v -0.0715431 -0.0476469 0.117704 
v -0.069592 -0.0491607 0.118366 
v -0.0715367 -0.0472826 0.118096 
v -0.0695182 -0.0487372 0.118685 
v -0.0715979 -0.0469944 0.118543 
v -0.0695118 -0.0483728 0.119077 
v -0.0717238 -0.0467959 0.119024 
v -0.069573 -0.0480846 0.119524 
v -0.0696989 -0.0478862 0.120004 
v -0.0697844 -0.0478236 0.12025 
v -0.0698837 -0.0477867 0.120497 
v -0.0719086 -0.0466964 0.119516 
v -0.0718093 -0.0467334 0.11927 
v -0.0721436 -0.0467006 0.119997 
v -0.0724178 -0.0468081 0.120444 
v -0.0701187 -0.0477908 0.120977 
v -0.0727185 -0.0470141 0.120836 
v -0.0703929 -0.0478984 0.121424 
v -0.0730315 -0.0473089 0.121155 
v -0.0706936 -0.0481043 0.121816 
v -0.0733422 -0.0476786 0.121385 
v -0.0710066 -0.0483991 0.122135 
v -0.0736361 -0.048106 0.121517 
v -0.0713173 -0.0487688 0.122366 
v -0.0738995 -0.0485712 0.121544 
v -0.0716112 -0.0491963 0.122497 
v -0.0741199 -0.0490523 0.121464 
v -0.0718745 -0.0496614 0.122524 
v -0.0742872 -0.0495269 0.121282 
v -0.072095 -0.0501425 0.122444 
v -0.0743935 -0.0499727 0.121005 
v -0.0722623 -0.0506171 0.122262 
v -0.0744339 -0.050369 0.120648 
v -0.0723686 -0.051063 0.121986 
v -0.0744063 -0.0506972 0.120226 
v -0.0724089 -0.0514593 0.121628 
v -0.0743122 -0.050942 0.11976 
v -0.0723814 -0.0517875 0.121206 
v -0.0722873 -0.0520322 0.12074 
vn 0.388756 0.899868 0.197752 
vn 0.474064 0.880491 3.94255e-16 
vn 0.474064 0.880491 3.94255e-16 
vn 0.28527 0.877169 0.386258 
vn 0.388756 0.899868 0.197752 
vn 0.168446 0.813454 0.556703 
vn 0.28527 0.877169 0.386258 
vn 0.0437451 0.711704 0.701116 
vn 0.168446 0.813454 0.556703 
vn -0.0830012 0.576674 0.812747 
vn 0.0437451 0.711704 0.701116 
vn -0.205866 0.41468 0.886374 
vn -0.0830012 0.576674 0.812747 
vn -0.319106 0.233296 0.918556 
vn -0.205866 0.41468 0.886374 
vn -0.417424 0.0410038 0.907786 
vn -0.319106 0.233296 0.918556 
vn -0.496224 -0.153206 0.85457 
vn -0.417424 0.0410038 0.907786 
vn -0.551821 -0.340252 0.761395 
vn -0.496224 -0.153206 0.85457 
vn -0.581615 -0.511389 0.632618 
vn -0.551821 -0.340252 0.761395 
vn -0.584214 -0.658613 0.47426 
vn -0.581615 -0.511389 0.632618 
vn -0.559496 -0.775041 0.293727 
vn -0.584214 -0.658613 0.47426 
vn -0.508616 -0.85523 0.0994592 
vn -0.559496 -0.775041 0.293727 
vn -0.508616 -0.85523 0.0994592 
vn -0.474064 -0.880491 -1.71782e-16 
vn -0.433954 -0.895428 -0.0994592 
vn -0.433954 -0.895428 -0.0994592 
vn -0.474064 -0.880491 -1.71782e-16 
vn -0.339 -0.893758 -0.293727 
vn -0.228196 -0.850296 -0.47426 
vn -0.339 -0.893758 -0.293727 
vn -0.106721 -0.767076 -0.632618 
vn -0.228196 -0.850296 -0.47426 
vn 0.0197438 -0.647988 -0.761395 
vn -0.106721 -0.767076 -0.632618 
vn 0.145286 -0.4986 -0.85457 
vn 0.0197438 -0.647988 -0.761395 
vn 0.264034 -0.325899 -0.907786 
vn 0.145286 -0.4986 -0.85457 
vn 0.370436 -0.137959 -0.918556 
vn 0.264034 -0.325899 -0.907786 
vn 0.459517 0.056432 -0.886374 
vn 0.370436 -0.137959 -0.918556 
vn 0.527112 0.248184 -0.812747 
vn 0.459517 0.056432 -0.886374 
vn 0.57006 0.428331 -0.701116 
vn 0.527112 0.248184 -0.812747 
vn 0.586352 0.58845 -0.556703 
vn 0.57006 0.428331 -0.701116 
vn 0.575227 0.721054 -0.386258 
vn 0.586352 0.58845 -0.556703 
vn 0.537205 0.819942 -0.197752 
vn 0.575227 0.721054 -0.386258 
vn 0.537205 0.819942 -0.197752 
f 915//915 916//916 917//917 
f 918//918 915//915 919//919 
f 920//920 918//918 921//921 
f 922//922 920//920 923//923 
f 924//924 922//922 925//925 
f 926//926 924//924 927//927 
f 928//928 926//926 929//929 
f 930//930 928//928 931//931 
f 932//932 930//930 933//933 
f 934//934 932//932 935//935 
f 936//936 934//934 937//937 
f 938//938 936//936 939//939 
f 940//940 938//938 941//941 
f 942//942 940//940 943//943 
f 942//942 944//944 945//945 
f 946//946 947//947 948//948 
f 948//948 945//945 946//946 
f 949//949 947//947 946//946 
f 950//950 949//949 951//951 
f 952//952 950//950 953//953 
f 954//954 952//952 955//955 
f 956//956 954//954 957//957 
f 958//958 956//956 959//959 
f 960//960 958//958 961//961 
f 962//962 960//960 963//963 
f 964//964 962//962 965//965 
f 966//966 964//964 967//967 
f 968//968 966//966 969//969 
f 970//970 968//968 971//971 
f 972//972 970//970 973//973 
f 916//916 972//972 974//974 
f 974//974 917//917 916//916 
f 973//973 974//974 972//972 
f 971//971 973//973 970//970 
f 969//969 971//971 968//968 
f 967//967 969//969 966//966 
f 965//965 967//967 964//964 
f 963//963 965//965 962//962 
f 961//961 963//963 960//960 
f 959//959 961//961 958//958 
f 957//957 959//959 956//956 
f 955//955 957//957 954//954 
f 953//953 955//955 952//952 
f 951//951 953//953 950//950 
f 946//946 951//951 949//949 
f 945//945 948//948 942//942 
f 943//943 944//944 942//942 
f 941//941 943//943 940//940 
f 939//939 941//941 938//938 
f 937//937 939//939 936//936 
f 935//935 937//937 934//934 
f 933//933 935//935 932//932 
f 931//931 933//933 930//930 
f 929//929 931//931 928//928 
f 927//927 929//929 926//926 
f 925//925 927//927 924//924 
f 923//923 925//925 922//922 
f 921//921 923//923 920//920 
f 919//919 921//921 918//918 
f 917//917 919//919 915//915 
