# OBJ generated by ONSHAPE BY PTC INC, 1.221 Units = meters
mtllib Part_1_8.mtl
g Part 1
usemtl 0.662745_0.376471_0.003922_0.000000_0.000000
o mesh623
v -0.348175 -0.255462 0.0127 
v -0.348175 -0.255462 0 
v 0.330069 -0.255462 0 
v 0.330069 -0.255462 0.0127 
vn 0 -1 0 
vn 0 -1 0 
vn 0 -1 0 
vn 0 -1 0 
f 1//1 2//2 3//3 
f 3//3 4//4 1//1 
o mesh624
v -0.348175 0.255462 0.0127 
v -0.348175 0.255462 0 
v -0.348175 -0.255462 0 
v -0.348175 -0.255462 0.0127 
vn -1 0 0 
vn -1 0 0 
vn -1 0 0 
vn -1 0 0 
f 5//5 6//6 7//7 
f 7//7 8//8 5//5 
o mesh625
v -0.348175 0.255462 0.0127 
v 0.347567 -0.243154 0.0127 
v 0.347903 -0.241521 0.0127 
v 0.348171 -0.237711 0.0127 
v 0.348175 -0.237355 0.0127 
v 0.348166 -0.238147 0.0127 
v 0.346615 -0.246316 0.0127 
v 0.347305 -0.244424 0.0127 
v 0.34533 -0.24882 0.0127 
v 0.341858 -0.252428 0.0127 
v 0.343649 -0.250935 0.0127 
v 0.338942 -0.253935 0.0127 
v 0.339617 -0.253693 0.0127 
v 0.341503 -0.252628 0.0127 
v 0.33548 -0.254922 0.0127 
v 0.330069 -0.255462 0.0127 
v 0.333762 -0.255251 0.0127 
v 0.346375 -0.246973 0.0127 
v 0.345166 -0.249109 0.0127 
v 0.336995 -0.254631 0.0127 
v -0.348175 -0.255462 0.0127 
v 0.348175 0.255462 0.0127 
vn 0 0 1 
vn 0 0 1 
vn 0 0 1 
vn 0 0 1 
vn 0 0 1 
vn 0 0 1 
vn 0 0 1 
vn 0 0 1 
vn 0 0 1 
vn 0 0 1 
vn 0 0 1 
vn 0 0 1 
vn 0 0 1 
vn 0 0 1 
vn 0 0 1 
vn 0 0 1 
vn 0 0 1 
vn 0 0 1 
vn 0 0 1 
vn 0 0 1 
vn 0 0 1 
vn 0 0 1 
f 9//9 10//10 11//11 
f 9//9 12//12 13//13 
f 11//11 14//14 9//9 
f 9//9 15//15 16//16 
f 14//14 12//12 9//9 
f 9//9 17//17 15//15 
f 9//9 18//18 19//19 
f 9//9 20//20 21//21 
f 16//16 10//10 9//9 
f 9//9 22//22 18//18 
f 9//9 23//23 20//20 
f 9//9 24//24 25//25 
f 17//17 26//26 15//15 
f 19//19 27//27 9//9 
f 23//23 28//28 20//20 
f 9//9 29//29 24//24 
f 27//27 17//17 9//9 
f 25//25 23//23 9//9 
f 21//21 22//22 9//9 
f 13//13 30//30 9//9 
o mesh626
v -0.348175 0.255462 0 
v 0.335481 -0.254933 0 
v 0.334234 -0.25519 0 
v 0.338941 -0.253934 0 
v 0.337137 -0.254592 0 
v 0.33086 -0.255453 0 
v 0.341505 -0.252632 0 
v 0.345142 -0.249144 0 
v 0.343649 -0.250935 0 
v 0.346617 -0.246317 0 
v 0.346407 -0.246904 0 
v 0.330069 -0.255462 0 
v 0.339687 -0.253662 0 
v 0.345326 -0.248817 0 
v 0.347561 -0.243154 0 
v 0.348155 -0.23771 0 
v 0.347965 -0.241048 0 
v 0.348175 0.255462 0 
v 0.348175 -0.237355 0 
v 0.341822 -0.252453 0 
v 0.347344 -0.244282 0 
v -0.348175 -0.255462 0 
vn 0 0 -1 
vn 0 0 -1 
vn 0 0 -1 
vn 0 0 -1 
vn 0 0 -1 
vn 0 0 -1 
vn 0 0 -1 
vn 0 0 -1 
vn 0 0 -1 
vn 0 0 -1 
vn 0 0 -1 
vn 0 0 -1 
vn 0 0 -1 
vn 0 0 -1 
vn 0 0 -1 
vn 0 0 -1 
vn 0 0 -1 
vn 0 0 -1 
vn 0 0 -1 
vn 0 0 -1 
vn 0 0 -1 
vn 0 0 -1 
f 31//31 32//32 33//33 
f 31//31 34//34 35//35 
f 33//33 36//36 31//31 
f 31//31 37//37 34//34 
f 31//31 38//38 39//39 
f 31//31 40//40 41//41 
f 36//36 42//42 31//31 
f 37//37 43//43 34//34 
f 31//31 44//44 38//38 
f 31//31 45//45 40//40 
f 31//31 46//46 47//47 
f 31//31 48//48 49//49 
f 35//35 32//32 31//31 
f 39//39 50//50 31//31 
f 45//45 51//51 40//40 
f 49//49 46//46 31//31 
f 50//50 37//37 31//31 
f 47//47 45//45 31//31 
f 41//41 44//44 31//31 
f 42//42 52//52 31//31 
o mesh627
v 0.348175 0.255462 0 
v 0.348175 0.255462 0.0127 
v 0.348175 -0.237355 0.0127 
v 0.348175 -0.237355 0 
vn 1 0 0 
vn 1 0 0 
vn 1 0 0 
vn 1 0 0 
f 53//53 54//54 55//55 
f 55//55 56//56 53//53 
o mesh628
v 0.348175 0.255462 0.0127 
v 0.348175 0.255462 0 
v -0.348175 0.255462 0 
v -0.348175 0.255462 0.0127 
vn 0 1 0 
vn 0 1 0 
vn 0 1 0 
vn 0 1 0 
f 57//57 58//58 59//59 
f 59//59 60//60 57//57 
o mesh629
v 0.33548 -0.254922 0.0127 
v 0.333762 -0.255251 0.0127 
v 0.334234 -0.25519 0 
v 0.330069 -0.255462 0.0127 
v 0.33086 -0.255453 0 
v 0.330069 -0.255462 0 
v 0.338942 -0.253935 0.0127 
v 0.336995 -0.254631 0.0127 
v 0.337137 -0.254592 0 
v 0.335481 -0.254933 0 
v 0.341503 -0.252628 0.0127 
v 0.339617 -0.253693 0.0127 
v 0.339687 -0.253662 0 
v 0.338941 -0.253934 0 
v 0.343649 -0.250935 0 
v 0.343649 -0.250935 0.0127 
v 0.341858 -0.252428 0.0127 
v 0.341505 -0.252632 0 
v 0.341822 -0.252453 0 
v 0.345326 -0.248817 0 
v 0.34533 -0.24882 0.0127 
v 0.345166 -0.249109 0.0127 
v 0.345142 -0.249144 0 
v 0.346615 -0.246316 0.0127 
v 0.346375 -0.246973 0.0127 
v 0.346407 -0.246904 0 
v 0.347567 -0.243154 0.0127 
v 0.347305 -0.244424 0.0127 
v 0.347344 -0.244282 0 
v 0.346617 -0.246317 0 
v 0.348166 -0.238147 0.0127 
v 0.347903 -0.241521 0.0127 
v 0.347965 -0.241048 0 
v 0.348155 -0.23771 0 
v 0.348171 -0.237711 0.0127 
v 0.347561 -0.243154 0 
v 0.348175 -0.237355 0.0127 
v 0.348175 -0.237355 0 
vn 0.191174 -0.981556 0 
vn 0.119946 -0.99278 0 
vn 0.138309 -0.990389 0 
vn 4.59869e-15 -1 0 
vn 0.0225964 -0.999745 0 
vn 4.59869e-15 -1 0 
vn 0.372554 -0.928011 0 
vn 0.263007 -0.964794 0 
vn 0.270314 -0.962772 0 
vn 0.191174 -0.981556 0 
vn 0.544555 -0.838725 0 
vn 0.413803 -0.910366 0 
vn 0.418277 -0.908319 0 
vn 0.372554 -0.928011 0 
vn 0.707107 -0.707107 0 
vn 0.707107 -0.707107 0 
vn 0.569583 -0.821934 0 
vn 0.544555 -0.838725 0 
vn 0.566927 -0.823768 0 
vn 0.837448 -0.546517 0 
vn 0.837448 -0.546517 0 
vn 0.823768 -0.566927 0 
vn 0.821934 -0.569583 0 
vn 0.92586 -0.377867 0 
vn 0.908319 -0.418277 0 
vn 0.910366 -0.413803 0 
vn 0.977977 -0.208712 0 
vn 0.962772 -0.270314 0 
vn 0.964794 -0.263007 0 
vn 0.92586 -0.377867 0 
vn 0.999745 -0.0225964 0 
vn 0.990389 -0.138309 0 
vn 0.99278 -0.119946 0 
vn 0.99995 -0.00998443 0 
vn 0.99995 -0.00998443 0 
vn 0.977977 -0.208712 0 
vn 1 4.59869e-14 0 
vn 1 4.59869e-14 0 
f 61//61 62//62 63//63 
f 62//62 64//64 65//65 
f 65//65 63//63 62//62 
f 64//64 66//66 65//65 
f 67//67 68//68 69//69 
f 70//70 69//69 68//68 
f 68//68 61//61 70//70 
f 71//71 72//72 73//73 
f 74//74 73//73 72//72 
f 72//72 67//67 74//74 
f 75//75 76//76 77//77 
f 71//71 78//78 79//79 
f 79//79 77//77 71//71 
f 80//80 81//81 82//82 
f 76//76 75//75 83//83 
f 83//83 82//82 76//76 
f 84//84 85//85 86//86 
f 80//80 86//86 85//85 
f 85//85 81//81 80//80 
f 87//87 88//88 89//89 
f 90//90 89//89 88//88 
f 88//88 84//84 90//90 
f 91//91 92//92 93//93 
f 94//94 95//95 91//91 
f 96//96 93//93 92//92 
f 92//92 87//87 96//96 
f 97//97 95//95 94//94 
f 94//94 98//98 97//97 
f 93//93 94//94 91//91 
f 89//89 96//96 87//87 
f 86//86 90//90 84//84 
f 82//82 83//83 80//80 
f 77//77 79//79 75//75 
f 73//73 78//78 71//71 
f 69//69 74//74 67//67 
f 63//63 70//70 61//61 
