# OBJ generated by ONSHAPE BY PTC INC, 1.221 Units = meters
mtllib Part_11.mtl
g Part 11
usemtl 0.498039_0.498039_0.498039_0.000000_0.000000
o mesh630
v 0.0563986 0.0269973 0.283207 
v 0.0564064 0.0272857 0.283251 
v 0.0707638 0.0301871 0.26205 
v 0.0563389 0.0267224 0.283129 
v 0.070756 0.0298987 0.262005 
v 0.0562301 0.0264739 0.283021 
v 0.0706963 0.0296238 0.261927 
v 0.0560773 0.0262633 0.282888 
v 0.0705874 0.0293753 0.261819 
v 0.0558875 0.0261005 0.282738 
v 0.0704346 0.0291647 0.261687 
v 0.0556698 0.0259931 0.282576 
v 0.0702449 0.0290019 0.261536 
v 0.0554343 0.0259462 0.28241 
v 0.0700272 0.0288945 0.261374 
v 0.0551919 0.0259619 0.282248 
v 0.0697916 0.0288476 0.261208 
v 0.0549541 0.0260395 0.282097 
v 0.0695493 0.0288633 0.261046 
v 0.0547319 0.0261754 0.281965 
v 0.0693114 0.0289409 0.260896 
v 0.0545357 0.0263632 0.281858 
v 0.0690892 0.0290768 0.260764 
v 0.0543748 0.0265941 0.281781 
v 0.0688931 0.0292646 0.260657 
v 0.0542566 0.0268573 0.281737 
v 0.0687321 0.0294955 0.260579 
v 0.0541866 0.0271406 0.281728 
v 0.0686139 0.0297587 0.260535 
v 0.0541682 0.0274307 0.281755 
v 0.0685439 0.030042 0.260527 
v 0.0542021 0.027714 0.281817 
v 0.0685255 0.0303321 0.260554 
v 0.0542869 0.0279772 0.281911 
v 0.0685595 0.0306154 0.260616 
v 0.0544185 0.0282082 0.282031 
v 0.0686442 0.0308786 0.260709 
v 0.0545908 0.0283959 0.282174 
v 0.0687759 0.0311096 0.26083 
v 0.0547957 0.0285318 0.282331 
v 0.0689481 0.0312973 0.260972 
v 0.0550237 0.0286094 0.282496 
v 0.0691531 0.0314332 0.26113 
v 0.0552641 0.0286251 0.282661 
v 0.069381 0.0315108 0.261295 
v 0.0555056 0.0285782 0.282818 
v 0.0696214 0.0315265 0.26146 
v 0.0557369 0.0284708 0.28296 
v 0.0698629 0.0314796 0.261617 
v 0.0559473 0.028308 0.28308 
v 0.0700943 0.0313722 0.261759 
v 0.0561269 0.0280975 0.283173 
v 0.0703047 0.0312094 0.261879 
v 0.0562673 0.0278489 0.283234 
v 0.0704843 0.0309989 0.261972 
v 0.056362 0.027574 0.283261 
v 0.0706247 0.0307503 0.262033 
v 0.0707193 0.0304754 0.262059 
vn -0.82222 0.213604 -0.527567 
vn -0.828007 2.20856e-16 -0.560717 
vn -0.828007 2.20856e-16 -0.560717 
vn -0.777988 0.417219 -0.469748 
vn -0.82222 0.213604 -0.527567 
vn -0.697377 0.601326 -0.389965 
vn -0.777988 0.417219 -0.469748 
vn -0.584157 0.757316 -0.291947 
vn -0.697377 0.601326 -0.389965 
vn -0.443624 0.877894 -0.180278 
vn -0.584157 0.757316 -0.291947 
vn -0.282346 0.957423 -0.0601791 
vn -0.443624 0.877894 -0.180278 
vn -0.107867 0.992184 0.0627334 
vn -0.282346 0.957423 -0.0601791 
vn 0.0716562 0.980552 0.182713 
vn -0.107867 0.992184 0.0627334 
vn 0.247829 0.92307 0.294148 
vn 0.0716562 0.980552 0.182713 
vn 0.412413 0.822426 0.39183 
vn 0.247829 0.92307 0.294148 
vn 0.557714 0.683327 0.47119 
vn 0.412413 0.822426 0.39183 
vn 0.676936 0.512276 0.528518 
vn 0.557714 0.683327 0.47119 
vn 0.764506 0.317271 0.561133 
vn 0.676936 0.512276 0.528518 
vn 0.816328 0.107432 0.56751 
vn 0.764506 0.317271 0.561133 
vn 0.829979 -0.107432 0.547351 
vn 0.816328 0.107432 0.56751 
vn 0.804822 -0.317271 0.501598 
vn 0.829979 -0.107432 0.547351 
vn 0.742032 -0.512276 0.432391 
vn 0.804822 -0.317271 0.501598 
vn 0.644545 -0.683327 0.342966 
vn 0.742032 -0.512276 0.432391 
vn 0.516921 -0.822426 0.237505 
vn 0.644545 -0.683327 0.342966 
vn 0.365125 -0.92307 0.120937 
vn 0.516921 -0.822426 0.237505 
vn 0.196257 -0.980552 -0.00128466 
vn 0.365125 -0.92307 0.120937 
vn 0.0182121 -0.992184 -0.123447 
vn 0.196257 -0.980552 -0.00128466 
vn -0.160684 -0.957423 -0.239836 
vn 0.0182121 -0.992184 -0.123447 
vn -0.332068 -0.877894 -0.345012 
vn -0.160684 -0.957423 -0.239836 
vn -0.487924 -0.757316 -0.434055 
vn -0.332068 -0.877894 -0.345012 
vn -0.620965 -0.601326 -0.502802 
vn -0.487924 -0.757316 -0.434055 
vn -0.724971 -0.417219 -0.548038 
vn -0.620965 -0.601326 -0.502802 
vn -0.795077 -0.213604 -0.567649 
vn -0.724971 -0.417219 -0.548038 
vn -0.795077 -0.213604 -0.567649 
f 1//1 2//2 3//3 
f 4//4 1//1 5//5 
f 6//6 4//4 7//7 
f 8//8 6//6 9//9 
f 10//10 8//8 11//11 
f 12//12 10//10 13//13 
f 14//14 12//12 15//15 
f 16//16 14//14 17//17 
f 18//18 16//16 19//19 
f 20//20 18//18 21//21 
f 22//22 20//20 23//23 
f 24//24 22//22 25//25 
f 26//26 24//24 27//27 
f 28//28 26//26 29//29 
f 30//30 28//28 31//31 
f 32//32 30//30 33//33 
f 34//34 32//32 35//35 
f 36//36 34//34 37//37 
f 38//38 36//36 39//39 
f 40//40 38//38 41//41 
f 42//42 40//40 43//43 
f 44//44 42//42 45//45 
f 46//46 44//44 47//47 
f 48//48 46//46 49//49 
f 50//50 48//48 51//51 
f 52//52 50//50 53//53 
f 54//54 52//52 55//55 
f 56//56 54//54 57//57 
f 2//2 56//56 58//58 
f 58//58 3//3 2//2 
f 57//57 58//58 56//56 
f 55//55 57//57 54//54 
f 53//53 55//55 52//52 
f 51//51 53//53 50//50 
f 49//49 51//51 48//48 
f 47//47 49//49 46//46 
f 45//45 47//47 44//44 
f 43//43 45//45 42//42 
f 41//41 43//43 40//40 
f 39//39 41//41 38//38 
f 37//37 39//39 36//36 
f 35//35 37//37 34//34 
f 33//33 35//35 32//32 
f 31//31 33//33 30//30 
f 29//29 31//31 28//28 
f 27//27 29//29 26//26 
f 25//25 27//27 24//24 
f 23//23 25//25 22//22 
f 21//21 23//23 20//20 
f 19//19 21//21 18//18 
f 17//17 19//19 16//16 
f 15//15 17//17 14//14 
f 13//13 15//15 12//12 
f 11//11 13//13 10//10 
f 9//9 11//11 8//8 
f 7//7 9//9 6//6 
f 5//5 7//7 4//4 
f 3//3 5//5 1//1 
o mesh631
v 0.024242 0.0231039 0.260898 
v 0.0244961 0.0219822 0.260916 
v 0.0389228 0.023827 0.270938 
v 0.0238354 0.0229598 0.260603 
v 0.0242681 0.0219046 0.260751 
v 0.0547696 0.0297311 0.282478 
v 0.0406835 0.0249944 0.27229 
v 0.0544185 0.0282082 0.282031 
v 0.0234693 0.022715 0.260321 
v 0.0240632 0.0217687 0.260594 
v 0.0542869 0.0279772 0.281911 
v 0.039111 0.0232805 0.270991 
v 0.0389927 0.0235437 0.270947 
v 0.0545908 0.0283959 0.282174 
v 0.0542566 0.0268573 0.281737 
v 0.0541866 0.0271406 0.281728 
v 0.0410982 0.0242604 0.272471 
v 0.0562142 0.0249844 0.282806 
v 0.0558875 0.0261005 0.282738 
v 0.0556698 0.0259931 0.282576 
v 0.0565804 0.0252291 0.283088 
v 0.05689 0.0255637 0.283343 
v 0.0560773 0.0262633 0.282888 
v 0.0572889 0.0264408 0.283733 
v 0.0573607 0.026945 0.283851 
v 0.0563986 0.0269973 0.283207 
v 0.057342 0.027464 0.283909 
v 0.0564064 0.0272857 0.283251 
v 0.0231596 0.0223804 0.260066 
v 0.0238909 0.0215809 0.260451 
v 0.0229199 0.0219705 0.259847 
v 0.0237593 0.02135 0.260331 
v 0.0227607 0.0215033 0.259675 
v 0.0236745 0.0210868 0.260237 
v 0.0560503 0.0295206 0.283316 
v 0.0556321 0.0296972 0.283057 
v 0.0555056 0.0285782 0.282818 
v 0.0551989 0.0297684 0.282773 
v 0.0552641 0.0286251 0.282661 
v 0.0550237 0.0286094 0.282496 
v 0.0547957 0.0285318 0.282331 
v 0.0411426 0.0239721 0.272461 
v 0.0543748 0.0265941 0.281781 
v 0.0558076 0.0248402 0.282511 
v 0.0549541 0.0260395 0.282097 
v 0.0554343 0.0259462 0.28241 
v 0.0551919 0.0259619 0.282248 
v 0.0571297 0.0259736 0.283562 
v 0.0562301 0.0264739 0.283021 
v 0.0563389 0.0267224 0.283129 
v 0.0400002 0.0253115 0.271871 
v 0.0402417 0.0252646 0.272028 
v 0.0395319 0.0252182 0.271541 
v 0.0397599 0.0252958 0.271706 
v 0.0410035 0.0245353 0.272444 
v 0.0547319 0.0261754 0.281965 
v 0.0404731 0.0251572 0.27217 
v 0.0391547 0.0248946 0.271241 
v 0.039327 0.0250823 0.271384 
v 0.0389043 0.0241171 0.270965 
v 0.0389383 0.0244004 0.271027 
v 0.0226889 0.0209991 0.259558 
v 0.0236405 0.0208035 0.260176 
v 0.0227077 0.0204801 0.2595 
v 0.023659 0.0205134 0.260148 
v 0.0541682 0.0274307 0.281755 
v 0.0542021 0.027714 0.281817 
v 0.0408631 0.0247839 0.272383 
v 0.0390231 0.0246636 0.271121 
v 0.0230097 0.0194878 0.259568 
v 0.0238471 0.0199669 0.260201 
v 0.0237289 0.0202301 0.260157 
v 0.0232797 0.0190578 0.259692 
v 0.0240081 0.019736 0.260278 
v 0.0248507 0.0181757 0.260635 
v 0.0249066 0.019319 0.26083 
v 0.0246643 0.0193347 0.260668 
v 0.02528 0.018213 0.260931 
v 0.0251422 0.0193659 0.260996 
v 0.040406 0.0226795 0.271786 
v 0.0401704 0.0226326 0.27162 
v 0.0567699 0.0288863 0.283717 
v 0.0564352 0.0292463 0.283539 
v 0.0559473 0.028308 0.28308 
v 0.0557369 0.0284708 0.28296 
v 0.0228162 0.0199689 0.259503 
v 0.0244176 0.0182469 0.260352 
v 0.0244264 0.0194123 0.260517 
v 0.0255496 0.0196361 0.261309 
v 0.0253599 0.0194733 0.261158 
v 0.0257025 0.0198467 0.261441 
v 0.025871 0.0203701 0.261627 
v 0.0408134 0.0229497 0.272099 
v 0.0406237 0.0227869 0.271948 
v 0.0410751 0.0234088 0.272339 
v 0.0409663 0.0231603 0.272231 
v 0.0258788 0.0206585 0.261671 
v 0.0392719 0.0230496 0.271068 
v 0.0572335 0.0279753 0.283906 
v 0.056362 0.027574 0.283261 
v 0.05704 0.0284564 0.283841 
v 0.0562673 0.0278489 0.283234 
v 0.0561269 0.0280975 0.283173 
v 0.0545357 0.0263632 0.281858 
v 0.0236145 0.0186978 0.25987 
v 0.0242042 0.0195482 0.260385 
v 0.0239994 0.0184235 0.260093 
v 0.0411348 0.0236837 0.272417 
v 0.0394681 0.0228618 0.271175 
v 0.0247364 0.0219979 0.261081 
v 0.0258113 0.0200952 0.261549 
v 0.0396902 0.0227259 0.271307 
v 0.0399281 0.0226483 0.271458 
v 0.0249779 0.021951 0.261238 
v 0.0255993 0.0214702 0.261593 
v 0.0257397 0.0212217 0.261654 
v 0.0252093 0.0218436 0.26138 
v 0.0258344 0.0209468 0.261681 
v 0.0254197 0.0216808 0.2615 
vn -0.557152 -0.112592 0.822742 
vn -0.557152 -0.112592 0.822742 
vn -0.557152 -0.112592 0.822742 
vn -0.557152 -0.112592 0.822742 
vn -0.557152 -0.112592 0.822742 
vn -0.557152 -0.112592 0.822742 
vn -0.557152 -0.112592 0.822742 
vn -0.557152 -0.112592 0.822742 
vn -0.557152 -0.112592 0.822742 
vn -0.557152 -0.112592 0.822742 
vn -0.557152 -0.112592 0.822742 
vn -0.557152 -0.112592 0.822742 
vn -0.557152 -0.112592 0.822742 
vn -0.557152 -0.112592 0.822742 
vn -0.557152 -0.112592 0.822742 
vn -0.557152 -0.112592 0.822742 
vn -0.557152 -0.112592 0.822742 
vn -0.557152 -0.112592 0.822742 
vn -0.557152 -0.112592 0.822742 
vn -0.557152 -0.112592 0.822742 
vn -0.557152 -0.112592 0.822742 
vn -0.557152 -0.112592 0.822742 
vn -0.557152 -0.112592 0.822742 
vn -0.557152 -0.112592 0.822742 
vn -0.557152 -0.112592 0.822742 
vn -0.557152 -0.112592 0.822742 
vn -0.557152 -0.112592 0.822742 
vn -0.557152 -0.112592 0.822742 
vn -0.557152 -0.112592 0.822742 
vn -0.557152 -0.112592 0.822742 
vn -0.557152 -0.112592 0.822742 
vn -0.557152 -0.112592 0.822742 
vn -0.557152 -0.112592 0.822742 
vn -0.557152 -0.112592 0.822742 
vn -0.557152 -0.112592 0.822742 
vn -0.557152 -0.112592 0.822742 
vn -0.557152 -0.112592 0.822742 
vn -0.557152 -0.112592 0.822742 
vn -0.557152 -0.112592 0.822742 
vn -0.557152 -0.112592 0.822742 
vn -0.557152 -0.112592 0.822742 
vn -0.557152 -0.112592 0.822742 
vn -0.557152 -0.112592 0.822742 
vn -0.557152 -0.112592 0.822742 
vn -0.557152 -0.112592 0.822742 
vn -0.557152 -0.112592 0.822742 
vn -0.557152 -0.112592 0.822742 
vn -0.557152 -0.112592 0.822742 
vn -0.557152 -0.112592 0.822742 
vn -0.557152 -0.112592 0.822742 
vn -0.557152 -0.112592 0.822742 
vn -0.557152 -0.112592 0.822742 
vn -0.557152 -0.112592 0.822742 
vn -0.557152 -0.112592 0.822742 
vn -0.557152 -0.112592 0.822742 
vn -0.557152 -0.112592 0.822742 
vn -0.557152 -0.112592 0.822742 
vn -0.557152 -0.112592 0.822742 
vn -0.557152 -0.112592 0.822742 
vn -0.557152 -0.112592 0.822742 
vn -0.557152 -0.112592 0.822742 
vn -0.557152 -0.112592 0.822742 
vn -0.557152 -0.112592 0.822742 
vn -0.557152 -0.112592 0.822742 
vn -0.557152 -0.112592 0.822742 
vn -0.557152 -0.112592 0.822742 
vn -0.557152 -0.112592 0.822742 
vn -0.557152 -0.112592 0.822742 
vn -0.557152 -0.112592 0.822742 
vn -0.557152 -0.112592 0.822742 
vn -0.557152 -0.112592 0.822742 
vn -0.557152 -0.112592 0.822742 
vn -0.557152 -0.112592 0.822742 
vn -0.557152 -0.112592 0.822742 
vn -0.557152 -0.112592 0.822742 
vn -0.557152 -0.112592 0.822742 
vn -0.557152 -0.112592 0.822742 
vn -0.557152 -0.112592 0.822742 
vn -0.557152 -0.112592 0.822742 
vn -0.557152 -0.112592 0.822742 
vn -0.557152 -0.112592 0.822742 
vn -0.557152 -0.112592 0.822742 
vn -0.557152 -0.112592 0.822742 
vn -0.557152 -0.112592 0.822742 
vn -0.557152 -0.112592 0.822742 
vn -0.557152 -0.112592 0.822742 
vn -0.557152 -0.112592 0.822742 
vn -0.557152 -0.112592 0.822742 
vn -0.557152 -0.112592 0.822742 
vn -0.557152 -0.112592 0.822742 
vn -0.557152 -0.112592 0.822742 
vn -0.557152 -0.112592 0.822742 
vn -0.557152 -0.112592 0.822742 
vn -0.557152 -0.112592 0.822742 
vn -0.557152 -0.112592 0.822742 
vn -0.557152 -0.112592 0.822742 
vn -0.557152 -0.112592 0.822742 
vn -0.557152 -0.112592 0.822742 
vn -0.557152 -0.112592 0.822742 
vn -0.557152 -0.112592 0.822742 
vn -0.557152 -0.112592 0.822742 
vn -0.557152 -0.112592 0.822742 
vn -0.557152 -0.112592 0.822742 
vn -0.557152 -0.112592 0.822742 
vn -0.557152 -0.112592 0.822742 
vn -0.557152 -0.112592 0.822742 
vn -0.557152 -0.112592 0.822742 
vn -0.557152 -0.112592 0.822742 
vn -0.557152 -0.112592 0.822742 
vn -0.557152 -0.112592 0.822742 
vn -0.557152 -0.112592 0.822742 
vn -0.557152 -0.112592 0.822742 
vn -0.557152 -0.112592 0.822742 
vn -0.557152 -0.112592 0.822742 
vn -0.557152 -0.112592 0.822742 
vn -0.557152 -0.112592 0.822742 
vn -0.557152 -0.112592 0.822742 
vn -0.557152 -0.112592 0.822742 
vn -0.557152 -0.112592 0.822742 
f 59//59 60//60 61//61 
f 59//59 62//62 63//63 
f 64//64 65//65 66//66 
f 63//63 60//60 59//59 
f 62//62 67//67 68//68 
f 65//65 69//69 66//66 
f 68//68 63//63 62//62 
f 60//60 70//70 71//71 
f 66//66 72//72 64//64 
f 73//73 74//74 75//75 
f 76//76 77//77 78//78 
f 79//79 80//80 81//81 
f 82//82 83//83 84//84 
f 83//83 85//85 86//86 
f 71//71 61//61 60//60 
f 87//87 88//88 68//68 
f 89//89 90//90 88//88 
f 91//91 92//92 90//90 
f 93//93 94//94 95//95 
f 94//94 96//96 97//97 
f 96//96 64//64 98//98 
f 72//72 99//99 64//64 
f 100//100 101//101 73//73 
f 100//100 102//102 103//103 
f 102//102 104//104 105//105 
f 78//78 102//102 76//76 
f 77//77 76//76 79//79 
f 80//80 106//106 107//107 
f 106//106 82//82 108//108 
f 86//86 84//84 83//83 
f 64//64 109//109 110//110 
f 59//59 111//111 112//112 
f 68//68 67//67 87//87 
f 90//90 89//89 91//91 
f 97//97 95//95 94//94 
f 99//99 98//98 64//64 
f 74//74 113//113 75//75 
f 103//103 114//114 100//100 
f 78//78 104//104 102//102 
f 107//107 81//81 80//80 
f 84//84 108//108 82//82 
f 110//110 115//115 64//64 
f 112//112 64//64 59//59 
f 59//59 116//116 117//117 
f 59//59 118//118 119//119 
f 88//88 87//87 89//89 
f 120//120 121//121 92//92 
f 122//122 123//123 121//121 
f 98//98 97//97 96//96 
f 65//65 124//124 125//125 
f 75//75 100//100 73//73 
f 124//124 65//65 126//126 
f 105//105 103//103 102//102 
f 108//108 107//107 106//106 
f 112//112 109//109 64//64 
f 59//59 127//127 116//116 
f 61//61 118//118 59//59 
f 121//121 120//120 122//122 
f 128//128 129//129 130//130 
f 131//131 132//132 129//129 
f 133//133 134//134 135//135 
f 136//136 137//137 134//134 
f 102//102 138//138 139//139 
f 140//140 141//141 142//142 
f 141//141 93//93 143//143 
f 125//125 69//69 65//65 
f 126//126 113//113 124//124 
f 81//81 77//77 79//79 
f 117//117 111//111 59//59 
f 92//92 91//91 120//120 
f 144//144 130//130 123//123 
f 129//129 128//128 131//131 
f 145//145 135//135 146//146 
f 134//134 133//133 136//136 
f 136//136 147//147 148//148 
f 102//102 149//149 147//147 
f 139//139 150//150 102//102 
f 102//102 151//151 152//152 
f 102//102 153//153 154//154 
f 155//155 156//156 70//70 
f 85//85 157//157 158//158 
f 157//157 159//159 160//160 
f 159//159 140//140 161//161 
f 143//143 142//142 141//141 
f 74//74 124//124 113//113 
f 114//114 162//162 100//100 
f 119//119 127//127 59//59 
f 130//130 144//144 128//128 
f 163//163 164//164 132//132 
f 165//165 146//146 164//164 
f 135//135 145//145 133//133 
f 147//147 136//136 102//102 
f 139//139 155//155 150//150 
f 154//154 151//151 102//102 
f 102//102 100//100 166//166 
f 155//155 167//167 156//156 
f 70//70 60//60 168//168 
f 160//160 158//158 157//157 
f 142//142 161//161 140//140 
f 162//162 101//101 100//100 
f 123//123 122//122 144//144 
f 164//164 163//163 165//165 
f 148//148 137//137 136//136 
f 150//150 169//169 102//102 
f 166//166 153//153 102//102 
f 155//155 170//170 167//167 
f 155//155 139//139 171//171 
f 168//168 172//172 70//70 
f 161//161 160//160 159//159 
f 115//115 65//65 64//64 
f 146//146 165//165 145//145 
f 152//152 138//138 102//102 
f 171//171 170//170 155//155 
f 70//70 173//173 174//174 
f 172//172 175//175 70//70 
f 95//95 143//143 93//93 
f 169//169 149//149 102//102 
f 174//174 176//176 70//70 
f 175//175 177//177 70//70 
f 132//132 131//131 163//163 
f 177//177 173//173 70//70 
f 70//70 176//176 155//155 
f 158//158 86//86 85//85 
o mesh632
v 0.0396374 0.0211144 0.23973 
v 0.0392081 0.0210771 0.239434 
v 0.039264 0.0222204 0.239628 
v 0.0387749 0.0211483 0.23915 
v 0.0390216 0.0222361 0.239466 
v 0.0383567 0.0213249 0.238891 
v 0.0387838 0.0223137 0.239316 
v 0.0379718 0.0215992 0.238668 
v 0.0385616 0.0224496 0.239184 
v 0.0385993 0.0260053 0.239696 
v 0.0532617 0.0270185 0.249764 
v 0.0395666 0.024745 0.240179 
v 0.0536293 0.025951 0.249867 
v 0.039907 0.0225375 0.240107 
v 0.0394995 0.0222673 0.239794 
v 0.0376371 0.0219592 0.238491 
v 0.037367 0.0223891 0.238367 
v 0.0382045 0.0228683 0.239 
v 0.0371735 0.0228703 0.238302 
v 0.0380863 0.0231315 0.238956 
v 0.0393353 0.0248524 0.240037 
v 0.0400598 0.0227481 0.24024 
v 0.0397172 0.0223747 0.239956 
v 0.0383654 0.0226374 0.239077 
v 0.0390938 0.0248993 0.23988 
v 0.0533501 0.0264451 0.249745 
v 0.0402362 0.0235599 0.24047 
v 0.0401917 0.0238482 0.240479 
v 0.069127 0.0326325 0.261276 
v 0.069381 0.0315108 0.261295 
v 0.0554555 0.0271618 0.251269 
v 0.0695562 0.0326698 0.261572 
v 0.0696214 0.0315265 0.26146 
v 0.037118 0.0244047 0.238474 
v 0.0372773 0.0248719 0.238646 
v 0.0381166 0.0242514 0.239129 
v 0.037517 0.0252818 0.238864 
v 0.0382482 0.0244823 0.23925 
v 0.0378266 0.0256164 0.23912 
v 0.0384205 0.0246701 0.239392 
v 0.0381928 0.0258612 0.239401 
v 0.0386254 0.024806 0.23955 
v 0.0388534 0.0248836 0.239715 
v 0.0397771 0.0245822 0.240299 
v 0.0400971 0.0241231 0.240453 
v 0.0399567 0.0243716 0.240392 
v 0.0402284 0.0232715 0.240425 
v 0.0534683 0.0261819 0.24979 
v 0.0685595 0.0306154 0.260616 
v 0.0685255 0.0303321 0.260554 
v 0.0545278 0.025534 0.250418 
v 0.0547633 0.0255809 0.250584 
v 0.0532801 0.0267284 0.249737 
v 0.0401686 0.0229966 0.240347 
v 0.0536843 0.0279837 0.250182 
v 0.053512 0.0277959 0.25004 
v 0.0543576 0.0282129 0.25067 
v 0.0541172 0.0281972 0.250505 
v 0.0550409 0.0278958 0.251089 
v 0.0548305 0.0280586 0.250969 
v 0.0553609 0.0274367 0.251243 
v 0.0699894 0.0325986 0.261856 
v 0.0698629 0.0314796 0.261617 
v 0.0704076 0.032422 0.262115 
v 0.0700943 0.0313722 0.261759 
v 0.0707925 0.0321477 0.262338 
v 0.0703047 0.0312094 0.261879 
v 0.0711273 0.0317877 0.262515 
v 0.0704843 0.0309989 0.261972 
v 0.0713973 0.0313578 0.262639 
v 0.0706247 0.0307503 0.262033 
v 0.0715908 0.0308767 0.262704 
v 0.0707193 0.0304754 0.262059 
v 0.0686442 0.0308786 0.260709 
v 0.0705716 0.0278858 0.261605 
v 0.070165 0.0277416 0.26131 
v 0.0700272 0.0288945 0.261374 
v 0.0695493 0.0288633 0.261046 
v 0.0697916 0.0288476 0.261208 
v 0.0687321 0.0294955 0.260579 
v 0.0540476 0.0256273 0.250106 
v 0.0542854 0.0255497 0.250256 
v 0.037065 0.0233815 0.238298 
v 0.0380163 0.0234148 0.238947 
v 0.0370462 0.0239005 0.238356 
v 0.0379979 0.0237049 0.238974 
v 0.0538893 0.0281196 0.25034 
v 0.0545991 0.028166 0.250827 
v 0.0552205 0.0276852 0.251182 
v 0.0554922 0.0265851 0.251215 
v 0.0555 0.0268735 0.25126 
v 0.0709377 0.0281305 0.261886 
v 0.0702449 0.0290019 0.261536 
v 0.0704346 0.0291647 0.261687 
v 0.0693114 0.0289409 0.260896 
v 0.0686139 0.0297587 0.260535 
v 0.0538254 0.0257632 0.249974 
v 0.0380318 0.0239882 0.239036 
v 0.0533804 0.027565 0.249919 
v 0.0554325 0.0263102 0.251137 
v 0.0551708 0.0258511 0.250897 
v 0.0553236 0.0260617 0.251029 
v 0.0691531 0.0314332 0.26113 
v 0.0717181 0.0298464 0.26265 
v 0.070756 0.0298987 0.262005 
v 0.0707638 0.0301871 0.26205 
v 0.0716463 0.0293422 0.262532 
v 0.0706963 0.0296238 0.261927 
v 0.0712474 0.0284651 0.262142 
v 0.0705874 0.0293753 0.261819 
v 0.0688931 0.0292646 0.260657 
v 0.0690892 0.0290768 0.260764 
v 0.0685439 0.030042 0.260527 
v 0.0716993 0.0303654 0.262708 
v 0.0549811 0.0256883 0.250746 
v 0.0689481 0.0312973 0.260972 
v 0.0714871 0.028875 0.26236 
v 0.0532957 0.0273018 0.249826 
v 0.0687759 0.0311096 0.26083 
vn 0.557152 0.112592 -0.822742 
vn 0.557152 0.112592 -0.822742 
vn 0.557152 0.112592 -0.822742 
vn 0.557152 0.112592 -0.822742 
vn 0.557152 0.112592 -0.822742 
vn 0.557152 0.112592 -0.822742 
vn 0.557152 0.112592 -0.822742 
vn 0.557152 0.112592 -0.822742 
vn 0.557152 0.112592 -0.822742 
vn 0.557152 0.112592 -0.822742 
vn 0.557152 0.112592 -0.822742 
vn 0.557152 0.112592 -0.822742 
vn 0.557152 0.112592 -0.822742 
vn 0.557152 0.112592 -0.822742 
vn 0.557152 0.112592 -0.822742 
vn 0.557152 0.112592 -0.822742 
vn 0.557152 0.112592 -0.822742 
vn 0.557152 0.112592 -0.822742 
vn 0.557152 0.112592 -0.822742 
vn 0.557152 0.112592 -0.822742 
vn 0.557152 0.112592 -0.822742 
vn 0.557152 0.112592 -0.822742 
vn 0.557152 0.112592 -0.822742 
vn 0.557152 0.112592 -0.822742 
vn 0.557152 0.112592 -0.822742 
vn 0.557152 0.112592 -0.822742 
vn 0.557152 0.112592 -0.822742 
vn 0.557152 0.112592 -0.822742 
vn 0.557152 0.112592 -0.822742 
vn 0.557152 0.112592 -0.822742 
vn 0.557152 0.112592 -0.822742 
vn 0.557152 0.112592 -0.822742 
vn 0.557152 0.112592 -0.822742 
vn 0.557152 0.112592 -0.822742 
vn 0.557152 0.112592 -0.822742 
vn 0.557152 0.112592 -0.822742 
vn 0.557152 0.112592 -0.822742 
vn 0.557152 0.112592 -0.822742 
vn 0.557152 0.112592 -0.822742 
vn 0.557152 0.112592 -0.822742 
vn 0.557152 0.112592 -0.822742 
vn 0.557152 0.112592 -0.822742 
vn 0.557152 0.112592 -0.822742 
vn 0.557152 0.112592 -0.822742 
vn 0.557152 0.112592 -0.822742 
vn 0.557152 0.112592 -0.822742 
vn 0.557152 0.112592 -0.822742 
vn 0.557152 0.112592 -0.822742 
vn 0.557152 0.112592 -0.822742 
vn 0.557152 0.112592 -0.822742 
vn 0.557152 0.112592 -0.822742 
vn 0.557152 0.112592 -0.822742 
vn 0.557152 0.112592 -0.822742 
vn 0.557152 0.112592 -0.822742 
vn 0.557152 0.112592 -0.822742 
vn 0.557152 0.112592 -0.822742 
vn 0.557152 0.112592 -0.822742 
vn 0.557152 0.112592 -0.822742 
vn 0.557152 0.112592 -0.822742 
vn 0.557152 0.112592 -0.822742 
vn 0.557152 0.112592 -0.822742 
vn 0.557152 0.112592 -0.822742 
vn 0.557152 0.112592 -0.822742 
vn 0.557152 0.112592 -0.822742 
vn 0.557152 0.112592 -0.822742 
vn 0.557152 0.112592 -0.822742 
vn 0.557152 0.112592 -0.822742 
vn 0.557152 0.112592 -0.822742 
vn 0.557152 0.112592 -0.822742 
vn 0.557152 0.112592 -0.822742 
vn 0.557152 0.112592 -0.822742 
vn 0.557152 0.112592 -0.822742 
vn 0.557152 0.112592 -0.822742 
vn 0.557152 0.112592 -0.822742 
vn 0.557152 0.112592 -0.822742 
vn 0.557152 0.112592 -0.822742 
vn 0.557152 0.112592 -0.822742 
vn 0.557152 0.112592 -0.822742 
vn 0.557152 0.112592 -0.822742 
vn 0.557152 0.112592 -0.822742 
vn 0.557152 0.112592 -0.822742 
vn 0.557152 0.112592 -0.822742 
vn 0.557152 0.112592 -0.822742 
vn 0.557152 0.112592 -0.822742 
vn 0.557152 0.112592 -0.822742 
vn 0.557152 0.112592 -0.822742 
vn 0.557152 0.112592 -0.822742 
vn 0.557152 0.112592 -0.822742 
vn 0.557152 0.112592 -0.822742 
vn 0.557152 0.112592 -0.822742 
vn 0.557152 0.112592 -0.822742 
vn 0.557152 0.112592 -0.822742 
vn 0.557152 0.112592 -0.822742 
vn 0.557152 0.112592 -0.822742 
vn 0.557152 0.112592 -0.822742 
vn 0.557152 0.112592 -0.822742 
vn 0.557152 0.112592 -0.822742 
vn 0.557152 0.112592 -0.822742 
vn 0.557152 0.112592 -0.822742 
vn 0.557152 0.112592 -0.822742 
vn 0.557152 0.112592 -0.822742 
vn 0.557152 0.112592 -0.822742 
vn 0.557152 0.112592 -0.822742 
vn 0.557152 0.112592 -0.822742 
vn 0.557152 0.112592 -0.822742 
vn 0.557152 0.112592 -0.822742 
vn 0.557152 0.112592 -0.822742 
vn 0.557152 0.112592 -0.822742 
vn 0.557152 0.112592 -0.822742 
vn 0.557152 0.112592 -0.822742 
vn 0.557152 0.112592 -0.822742 
vn 0.557152 0.112592 -0.822742 
vn 0.557152 0.112592 -0.822742 
vn 0.557152 0.112592 -0.822742 
vn 0.557152 0.112592 -0.822742 
vn 0.557152 0.112592 -0.822742 
vn 0.557152 0.112592 -0.822742 
vn 0.557152 0.112592 -0.822742 
vn 0.557152 0.112592 -0.822742 
f 178//178 179//179 180//180 
f 179//179 181//181 182//182 
f 181//181 183//183 184//184 
f 183//183 185//185 186//186 
f 182//182 180//180 179//179 
f 186//186 184//184 183//183 
f 184//184 182//182 181//181 
f 187//187 188//188 189//189 
f 190//190 178//178 191//191 
f 180//180 192//192 178//178 
f 193//193 194//194 195//195 
f 194//194 196//196 197//197 
f 189//189 198//198 187//187 
f 191//191 199//199 190//190 
f 192//192 200//200 178//178 
f 185//185 193//193 201//201 
f 197//197 195//195 194//194 
f 198//198 202//202 187//187 
f 203//203 204//204 205//205 
f 200//200 191//191 178//178 
f 195//195 201//201 193//193 
f 206//206 207//207 208//208 
f 209//209 210//210 207//207 
f 211//211 212//212 213//213 
f 212//212 214//214 215//215 
f 214//214 216//216 217//217 
f 218//218 219//219 217//217 
f 187//187 220//220 219//219 
f 188//188 221//221 189//189 
f 188//188 222//222 223//223 
f 224//224 203//203 225//225 
f 203//203 224//224 204//204 
f 201//201 186//186 185//185 
f 207//207 206//206 209//209 
f 208//208 226//226 227//227 
f 178//178 228//228 229//229 
f 215//215 213//213 212//212 
f 217//217 216//216 218//218 
f 202//202 220//220 187//187 
f 188//188 205//205 222//222 
f 205//205 230//230 203//203 
f 199//199 231//231 190//190 
f 187//187 232//232 233//233 
f 206//206 234//234 235//235 
f 206//206 236//236 237//237 
f 208//208 238//238 206//206 
f 239//239 240//240 210//210 
f 241//241 242//242 240//240 
f 243//243 244//244 242//242 
f 245//245 246//246 244//244 
f 247//247 248//248 246//246 
f 249//249 250//250 248//248 
f 208//208 251//251 226//226 
f 252//252 253//253 254//254 
f 253//253 255//255 256//256 
f 229//229 257//257 178//178 
f 178//178 258//258 259//259 
f 217//217 215//215 214//214 
f 223//223 221//221 188//188 
f 231//231 224//224 190//190 
f 196//196 260//260 261//261 
f 260//260 262//262 263//263 
f 187//187 264//264 232//232 
f 235//235 187//187 206//206 
f 237//237 265//265 206//206 
f 238//238 266//266 206//206 
f 240//240 239//239 241//241 
f 244//244 243//243 245//245 
f 248//248 247//247 249//249 
f 227//227 267//267 268//268 
f 269//269 270//270 271//271 
f 256//256 254//254 253//253 
f 253//253 178//178 272//272 
f 229//229 273//273 257//257 
f 178//178 274//274 258//258 
f 262//262 211//211 275//275 
f 219//219 218//218 187//187 
f 205//205 188//188 230//230 
f 263//263 261//261 260//260 
f 233//233 276//276 187//187 
f 265//265 234//234 206//206 
f 210//210 209//209 239//239 
f 246//246 245//245 247//247 
f 227//227 277//277 267//267 
f 227//227 278//278 279//279 
f 208//208 207//207 280//280 
f 281//281 282//282 283//283 
f 284//284 285//285 282//282 
f 286//286 271//271 287//287 
f 271//271 286//286 269//269 
f 272//272 255//255 253//253 
f 178//178 288//288 289//289 
f 229//229 290//290 273//273 
f 178//178 190//190 274//274 
f 213//213 275//275 211//211 
f 261//261 197//197 196//196 
f 235//235 264//264 187//187 
f 242//242 241//241 243//243 
f 291//291 283//283 250//250 
f 279//279 277//277 227//227 
f 227//227 229//229 292//292 
f 280//280 293//293 208//208 
f 282//282 281//281 284//284 
f 294//294 287//287 285//285 
f 269//269 252//252 270//270 
f 289//289 272//272 178//178 
f 259//259 228//228 178//178 
f 225//225 190//190 224//224 
f 276//276 295//295 187//187 
f 250//250 249//249 291//291 
f 292//292 278//278 227//227 
f 293//293 296//296 208//208 
f 285//285 284//284 294//294 
f 254//254 270//270 252//252 
f 275//275 263//263 262//262 
f 266//266 236//236 206//206 
f 296//296 251//251 208//208 
f 287//287 294//294 286//286 
f 229//229 227//227 290//290 
f 227//227 268//268 208//208 
f 257//257 288//288 178//178 
f 283//283 291//291 281//281 
f 295//295 188//188 187//187 
o mesh633
v 0.0396374 0.0211144 0.23973 
v 0.02528 0.018213 0.260931 
v 0.0248507 0.0181757 0.260635 
v 0.0392081 0.0210771 0.239434 
v 0.0244176 0.0182469 0.260352 
v 0.0387749 0.0211483 0.23915 
v 0.0239994 0.0184235 0.260093 
v 0.0383567 0.0213249 0.238891 
v 0.0236145 0.0186978 0.25987 
v 0.0379718 0.0215992 0.238668 
v 0.0232797 0.0190578 0.259692 
v 0.0376371 0.0219592 0.238491 
v 0.0230097 0.0194878 0.259568 
v 0.037367 0.0223891 0.238367 
v 0.0228162 0.0199689 0.259503 
v 0.0371735 0.0228703 0.238302 
v 0.0227077 0.0204801 0.2595 
v 0.037065 0.0233815 0.238298 
v 0.0226889 0.0209991 0.259558 
v 0.0370462 0.0239005 0.238356 
v 0.0227607 0.0215033 0.259675 
v 0.037118 0.0244047 0.238474 
v 0.0229199 0.0219705 0.259847 
v 0.0372773 0.0248719 0.238646 
v 0.0231596 0.0223804 0.260066 
v 0.037517 0.0252818 0.238864 
v 0.0234693 0.022715 0.260321 
v 0.0378266 0.0256164 0.23912 
v 0.0238354 0.0229598 0.260603 
v 0.0381928 0.0258612 0.239401 
v 0.024242 0.0231039 0.260898 
v 0.0385993 0.0260053 0.239696 
vn 0.207603 -0.97819 0.00672157 
vn 0.207603 -0.97819 0.00672157 
vn 0.0358964 -0.993105 -0.111597 
vn 0.0358964 -0.993105 -0.111597 
vn -0.137379 -0.964616 -0.225038 
vn -0.137379 -0.964616 -0.225038 
vn -0.30465 -0.893969 -0.328644 
vn -0.30465 -0.893969 -0.328644 
vn -0.458606 -0.784252 -0.417887 
vn -0.458606 -0.784252 -0.417887 
vn -0.592519 -0.640258 -0.488866 
vn -0.592519 -0.640258 -0.488866 
vn -0.700536 -0.468283 -0.53848 
vn -0.700536 -0.468283 -0.53848 
vn -0.777937 -0.275841 -0.564559 
vn -0.777937 -0.275841 -0.564559 
vn -0.821337 -0.0713435 -0.565964 
vn -0.821337 -0.0713435 -0.565964 
vn -0.828842 0.136272 -0.542634 
vn -0.828842 0.136272 -0.542634 
vn -0.800122 0.337932 -0.495588 
vn -0.800122 0.337932 -0.495588 
vn -0.736433 0.524822 -0.426882 
vn -0.736433 0.524822 -0.426882 
vn -0.640558 0.688775 -0.33952 
vn -0.640558 0.688775 -0.33952 
vn -0.516688 0.822626 -0.237319 
vn -0.516688 0.822626 -0.237319 
vn -0.370236 0.920524 -0.124746 
vn -0.370236 0.920524 -0.124746 
vn -0.207603 0.97819 -0.00672157 
vn -0.207603 0.97819 -0.00672157 
f 297//297 298//298 299//299 
f 300//300 299//299 301//301 
f 302//302 301//301 303//303 
f 304//304 303//303 305//305 
f 306//306 305//305 307//307 
f 308//308 307//307 309//309 
f 310//310 309//309 311//311 
f 312//312 311//311 313//313 
f 314//314 313//313 315//315 
f 316//316 315//315 317//317 
f 318//318 317//317 319//319 
f 320//320 319//319 321//321 
f 322//322 321//321 323//323 
f 324//324 323//323 325//325 
f 326//326 325//325 327//327 
f 327//327 328//328 326//326 
f 325//325 326//326 324//324 
f 323//323 324//324 322//322 
f 321//321 322//322 320//320 
f 319//319 320//320 318//318 
f 317//317 318//318 316//316 
f 315//315 316//316 314//314 
f 313//313 314//314 312//312 
f 311//311 312//312 310//310 
f 309//309 310//310 308//308 
f 307//307 308//308 306//306 
f 305//305 306//306 304//304 
f 303//303 304//304 302//302 
f 301//301 302//302 300//300 
f 299//299 300//300 297//297 
o mesh634
v 0.069127 0.0326325 0.261276 
v 0.0547696 0.0297311 0.282478 
v 0.0551989 0.0297684 0.282773 
v 0.0695562 0.0326698 0.261572 
v 0.0556321 0.0296972 0.283057 
v 0.0699894 0.0325986 0.261856 
v 0.0560503 0.0295206 0.283316 
v 0.0704076 0.032422 0.262115 
v 0.0564352 0.0292463 0.283539 
v 0.0707925 0.0321477 0.262338 
v 0.0567699 0.0288863 0.283717 
v 0.0711273 0.0317877 0.262515 
v 0.05704 0.0284564 0.283841 
v 0.0713973 0.0313578 0.262639 
v 0.0572335 0.0279753 0.283906 
v 0.0715908 0.0308767 0.262704 
v 0.057342 0.027464 0.283909 
v 0.0716993 0.0303654 0.262708 
v 0.0573607 0.026945 0.283851 
v 0.0717181 0.0298464 0.26265 
v 0.0572889 0.0264408 0.283733 
v 0.0716463 0.0293422 0.262532 
v 0.0571297 0.0259736 0.283562 
v 0.0714871 0.028875 0.26236 
v 0.05689 0.0255637 0.283343 
v 0.0712474 0.0284651 0.262142 
v 0.0565804 0.0252291 0.283088 
v 0.0709377 0.0281305 0.261886 
v 0.0562142 0.0249844 0.282806 
v 0.0705716 0.0278858 0.261605 
v 0.0558076 0.0248402 0.282511 
v 0.070165 0.0277416 0.26131 
vn -0.207603 0.97819 -0.00672157 
vn -0.207603 0.97819 -0.00672157 
vn -0.0358964 0.993105 0.111597 
vn -0.0358964 0.993105 0.111597 
vn 0.137379 0.964616 0.225038 
vn 0.137379 0.964616 0.225038 
vn 0.30465 0.893969 0.328644 
vn 0.30465 0.893969 0.328644 
vn 0.458606 0.784252 0.417887 
vn 0.458606 0.784252 0.417887 
vn 0.592519 0.640258 0.488866 
vn 0.592519 0.640258 0.488866 
vn 0.700536 0.468283 0.53848 
vn 0.700536 0.468283 0.53848 
vn 0.777937 0.275841 0.564559 
vn 0.777937 0.275841 0.564559 
vn 0.821337 0.0713435 0.565964 
vn 0.821337 0.0713435 0.565964 
vn 0.828842 -0.136272 0.542634 
vn 0.828842 -0.136272 0.542634 
vn 0.800122 -0.337932 0.495588 
vn 0.800122 -0.337932 0.495588 
vn 0.736433 -0.524822 0.426882 
vn 0.736433 -0.524822 0.426882 
vn 0.640558 -0.688775 0.33952 
vn 0.640558 -0.688775 0.33952 
vn 0.516688 -0.822626 0.237319 
vn 0.516688 -0.822626 0.237319 
vn 0.370236 -0.920524 0.124746 
vn 0.370236 -0.920524 0.124746 
vn 0.207603 -0.97819 0.00672157 
vn 0.207603 -0.97819 0.00672157 
f 329//329 330//330 331//331 
f 332//332 331//331 333//333 
f 334//334 333//333 335//335 
f 336//336 335//335 337//337 
f 338//338 337//337 339//339 
f 340//340 339//339 341//341 
f 342//342 341//341 343//343 
f 344//344 343//343 345//345 
f 346//346 345//345 347//347 
f 348//348 347//347 349//349 
f 350//350 349//349 351//351 
f 352//352 351//351 353//353 
f 354//354 353//353 355//355 
f 356//356 355//355 357//357 
f 358//358 357//357 359//359 
f 359//359 360//360 358//358 
f 357//357 358//358 356//356 
f 355//355 356//356 354//354 
f 353//353 354//354 352//352 
f 351//351 352//352 350//350 
f 349//349 350//350 348//348 
f 347//347 348//348 346//346 
f 345//345 346//346 344//344 
f 343//343 344//344 342//342 
f 341//341 342//342 340//340 
f 339//339 340//340 338//338 
f 337//337 338//338 336//336 
f 335//335 336//336 334//334 
f 333//333 334//334 332//332 
f 331//331 332//332 329//329 
o mesh635
v 0.025871 0.0203701 0.261627 
v 0.0258788 0.0206585 0.261671 
v 0.0402362 0.0235599 0.24047 
v 0.0258113 0.0200952 0.261549 
v 0.0402284 0.0232715 0.240425 
v 0.0257025 0.0198467 0.261441 
v 0.0401686 0.0229966 0.240347 
v 0.0255496 0.0196361 0.261309 
v 0.0400598 0.0227481 0.24024 
v 0.0253599 0.0194733 0.261158 
v 0.039907 0.0225375 0.240107 
v 0.0251422 0.0193659 0.260996 
v 0.0397172 0.0223747 0.239956 
v 0.0249066 0.019319 0.26083 
v 0.0394995 0.0222673 0.239794 
v 0.0246643 0.0193347 0.260668 
v 0.039264 0.0222204 0.239628 
v 0.0244264 0.0194123 0.260517 
v 0.0390216 0.0222361 0.239466 
v 0.0242042 0.0195482 0.260385 
v 0.0387838 0.0223137 0.239316 
v 0.0240081 0.019736 0.260278 
v 0.0385616 0.0224496 0.239184 
v 0.0238471 0.0199669 0.260201 
v 0.0383654 0.0226374 0.239077 
v 0.0237289 0.0202301 0.260157 
v 0.0382045 0.0228683 0.239 
v 0.023659 0.0205134 0.260148 
v 0.0380863 0.0231315 0.238956 
v 0.0236405 0.0208035 0.260176 
v 0.0380163 0.0234148 0.238947 
v 0.0236745 0.0210868 0.260237 
v 0.0379979 0.0237049 0.238974 
v 0.0237593 0.02135 0.260331 
v 0.0380318 0.0239882 0.239036 
v 0.0238909 0.0215809 0.260451 
v 0.0381166 0.0242514 0.239129 
v 0.0240632 0.0217687 0.260594 
v 0.0382482 0.0244823 0.23925 
v 0.0242681 0.0219046 0.260751 
v 0.0384205 0.0246701 0.239392 
v 0.0244961 0.0219822 0.260916 
v 0.0386254 0.024806 0.23955 
v 0.0247364 0.0219979 0.261081 
v 0.0388534 0.0248836 0.239715 
v 0.0249779 0.021951 0.261238 
v 0.0390938 0.0248993 0.23988 
v 0.0252093 0.0218436 0.26138 
v 0.0393353 0.0248524 0.240037 
v 0.0254197 0.0216808 0.2615 
v 0.0395666 0.024745 0.240179 
v 0.0255993 0.0214702 0.261593 
v 0.0397771 0.0245822 0.240299 
v 0.0257397 0.0212217 0.261654 
v 0.0399567 0.0243716 0.240392 
v 0.0258344 0.0209468 0.261681 
v 0.0400971 0.0241231 0.240453 
v 0.0401917 0.0238482 0.240479 
vn -0.82222 0.213604 -0.527567 
vn -0.828007 2.20856e-16 -0.560717 
vn -0.828007 2.20856e-16 -0.560717 
vn -0.777988 0.417219 -0.469748 
vn -0.82222 0.213604 -0.527567 
vn -0.697377 0.601326 -0.389965 
vn -0.777988 0.417219 -0.469748 
vn -0.584157 0.757316 -0.291947 
vn -0.697377 0.601326 -0.389965 
vn -0.443624 0.877894 -0.180278 
vn -0.584157 0.757316 -0.291947 
vn -0.282346 0.957423 -0.0601791 
vn -0.443624 0.877894 -0.180278 
vn -0.107867 0.992184 0.0627334 
vn -0.282346 0.957423 -0.0601791 
vn 0.0716562 0.980552 0.182713 
vn -0.107867 0.992184 0.0627334 
vn 0.247829 0.92307 0.294148 
vn 0.0716562 0.980552 0.182713 
vn 0.412413 0.822426 0.39183 
vn 0.247829 0.92307 0.294148 
vn 0.557714 0.683327 0.47119 
vn 0.412413 0.822426 0.39183 
vn 0.676936 0.512276 0.528518 
vn 0.557714 0.683327 0.47119 
vn 0.764506 0.317271 0.561133 
vn 0.676936 0.512276 0.528518 
vn 0.816328 0.107432 0.56751 
vn 0.764506 0.317271 0.561133 
vn 0.829979 -0.107432 0.547351 
vn 0.816328 0.107432 0.56751 
vn 0.804822 -0.317271 0.501598 
vn 0.829979 -0.107432 0.547351 
vn 0.742032 -0.512276 0.432391 
vn 0.804822 -0.317271 0.501598 
vn 0.644545 -0.683327 0.342966 
vn 0.742032 -0.512276 0.432391 
vn 0.516921 -0.822426 0.237505 
vn 0.644545 -0.683327 0.342966 
vn 0.365125 -0.92307 0.120937 
vn 0.516921 -0.822426 0.237505 
vn 0.196257 -0.980552 -0.00128466 
vn 0.365125 -0.92307 0.120937 
vn 0.0182121 -0.992184 -0.123447 
vn 0.196257 -0.980552 -0.00128466 
vn -0.160684 -0.957423 -0.239836 
vn 0.0182121 -0.992184 -0.123447 
vn -0.332068 -0.877894 -0.345012 
vn -0.160684 -0.957423 -0.239836 
vn -0.487924 -0.757316 -0.434055 
vn -0.332068 -0.877894 -0.345012 
vn -0.620965 -0.601326 -0.502802 
vn -0.487924 -0.757316 -0.434055 
vn -0.724971 -0.417219 -0.548038 
vn -0.620965 -0.601326 -0.502802 
vn -0.795077 -0.213604 -0.567649 
vn -0.724971 -0.417219 -0.548038 
vn -0.795077 -0.213604 -0.567649 
f 361//361 362//362 363//363 
f 364//364 361//361 365//365 
f 366//366 364//364 367//367 
f 368//368 366//366 369//369 
f 370//370 368//368 371//371 
f 372//372 370//370 373//373 
f 374//374 372//372 375//375 
f 376//376 374//374 377//377 
f 378//378 376//376 379//379 
f 380//380 378//378 381//381 
f 382//382 380//380 383//383 
f 384//384 382//382 385//385 
f 386//386 384//384 387//387 
f 388//388 386//386 389//389 
f 390//390 388//388 391//391 
f 392//392 390//390 393//393 
f 394//394 392//392 395//395 
f 396//396 394//394 397//397 
f 398//398 396//396 399//399 
f 400//400 398//398 401//401 
f 402//402 400//400 403//403 
f 404//404 402//402 405//405 
f 406//406 404//404 407//407 
f 408//408 406//406 409//409 
f 410//410 408//408 411//411 
f 412//412 410//410 413//413 
f 414//414 412//412 415//415 
f 416//416 414//414 417//417 
f 362//362 416//416 418//418 
f 418//418 363//363 362//362 
f 417//417 418//418 416//416 
f 415//415 417//417 414//414 
f 413//413 415//415 412//412 
f 411//411 413//413 410//410 
f 409//409 411//411 408//408 
f 407//407 409//409 406//406 
f 405//405 407//407 404//404 
f 403//403 405//405 402//402 
f 401//401 403//403 400//400 
f 399//399 401//401 398//398 
f 397//397 399//399 396//396 
f 395//395 397//397 394//394 
f 393//393 395//395 392//392 
f 391//391 393//393 390//390 
f 389//389 391//391 388//388 
f 387//387 389//389 386//386 
f 385//385 387//387 384//384 
f 383//383 385//385 382//382 
f 381//381 383//383 380//380 
f 379//379 381//381 378//378 
f 377//377 379//379 376//376 
f 375//375 377//377 374//374 
f 373//373 375//375 372//372 
f 371//371 373//373 370//370 
f 369//369 371//371 368//368 
f 367//367 369//369 366//366 
f 365//365 367//367 364//364 
f 363//363 365//365 361//361 
o mesh636
v 0.0411348 0.0236837 0.272417 
v 0.0411426 0.0239721 0.272461 
v 0.0555 0.0268735 0.25126 
v 0.0410751 0.0234088 0.272339 
v 0.0554922 0.0265851 0.251215 
v 0.0409663 0.0231603 0.272231 
v 0.0554325 0.0263102 0.251137 
v 0.0408134 0.0229497 0.272099 
v 0.0553236 0.0260617 0.251029 
v 0.0406237 0.0227869 0.271948 
v 0.0551708 0.0258511 0.250897 
v 0.040406 0.0226795 0.271786 
v 0.0549811 0.0256883 0.250746 
v 0.0401704 0.0226326 0.27162 
v 0.0547633 0.0255809 0.250584 
v 0.0399281 0.0226483 0.271458 
v 0.0545278 0.025534 0.250418 
v 0.0396902 0.0227259 0.271307 
v 0.0542854 0.0255497 0.250256 
v 0.0394681 0.0228618 0.271175 
v 0.0540476 0.0256273 0.250106 
v 0.0392719 0.0230496 0.271068 
v 0.0538254 0.0257632 0.249974 
v 0.039111 0.0232805 0.270991 
v 0.0536293 0.025951 0.249867 
v 0.0389927 0.0235437 0.270947 
v 0.0534683 0.0261819 0.24979 
v 0.0389228 0.023827 0.270938 
v 0.0533501 0.0264451 0.249745 
v 0.0389043 0.0241171 0.270965 
v 0.0532801 0.0267284 0.249737 
v 0.0389383 0.0244004 0.271027 
v 0.0532617 0.0270185 0.249764 
v 0.0390231 0.0246636 0.271121 
v 0.0532957 0.0273018 0.249826 
v 0.0391547 0.0248946 0.271241 
v 0.0533804 0.027565 0.249919 
v 0.039327 0.0250823 0.271384 
v 0.053512 0.0277959 0.25004 
v 0.0395319 0.0252182 0.271541 
v 0.0536843 0.0279837 0.250182 
v 0.0397599 0.0252958 0.271706 
v 0.0538893 0.0281196 0.25034 
v 0.0400002 0.0253115 0.271871 
v 0.0541172 0.0281972 0.250505 
v 0.0402417 0.0252646 0.272028 
v 0.0543576 0.0282129 0.25067 
v 0.0404731 0.0251572 0.27217 
v 0.0545991 0.028166 0.250827 
v 0.0406835 0.0249944 0.27229 
v 0.0548305 0.0280586 0.250969 
v 0.0408631 0.0247839 0.272383 
v 0.0550409 0.0278958 0.251089 
v 0.0410035 0.0245353 0.272444 
v 0.0552205 0.0276852 0.251182 
v 0.0410982 0.0242604 0.272471 
v 0.0553609 0.0274367 0.251243 
v 0.0554555 0.0271618 0.251269 
vn -0.82222 0.213604 -0.527567 
vn -0.828007 2.20856e-16 -0.560717 
vn -0.828007 2.20856e-16 -0.560717 
vn -0.777988 0.417219 -0.469748 
vn -0.82222 0.213604 -0.527567 
vn -0.697377 0.601326 -0.389965 
vn -0.777988 0.417219 -0.469748 
vn -0.584157 0.757316 -0.291947 
vn -0.697377 0.601326 -0.389965 
vn -0.443624 0.877894 -0.180278 
vn -0.584157 0.757316 -0.291947 
vn -0.282346 0.957423 -0.0601791 
vn -0.443624 0.877894 -0.180278 
vn -0.107867 0.992184 0.0627334 
vn -0.282346 0.957423 -0.0601791 
vn 0.0716562 0.980552 0.182713 
vn -0.107867 0.992184 0.0627334 
vn 0.247829 0.92307 0.294148 
vn 0.0716562 0.980552 0.182713 
vn 0.412413 0.822426 0.39183 
vn 0.247829 0.92307 0.294148 
vn 0.557714 0.683327 0.47119 
vn 0.412413 0.822426 0.39183 
vn 0.676936 0.512276 0.528518 
vn 0.557714 0.683327 0.47119 
vn 0.764506 0.317271 0.561133 
vn 0.676936 0.512276 0.528518 
vn 0.816328 0.107432 0.56751 
vn 0.764506 0.317271 0.561133 
vn 0.829979 -0.107432 0.547351 
vn 0.816328 0.107432 0.56751 
vn 0.804822 -0.317271 0.501598 
vn 0.829979 -0.107432 0.547351 
vn 0.742032 -0.512276 0.432391 
vn 0.804822 -0.317271 0.501598 
vn 0.644545 -0.683327 0.342966 
vn 0.742032 -0.512276 0.432391 
vn 0.516921 -0.822426 0.237505 
vn 0.644545 -0.683327 0.342966 
vn 0.365125 -0.92307 0.120937 
vn 0.516921 -0.822426 0.237505 
vn 0.196257 -0.980552 -0.00128466 
vn 0.365125 -0.92307 0.120937 
vn 0.0182121 -0.992184 -0.123447 
vn 0.196257 -0.980552 -0.00128466 
vn -0.160684 -0.957423 -0.239836 
vn 0.0182121 -0.992184 -0.123447 
vn -0.332068 -0.877894 -0.345012 
vn -0.160684 -0.957423 -0.239836 
vn -0.487924 -0.757316 -0.434055 
vn -0.332068 -0.877894 -0.345012 
vn -0.620965 -0.601326 -0.502802 
vn -0.487924 -0.757316 -0.434055 
vn -0.724971 -0.417219 -0.548038 
vn -0.620965 -0.601326 -0.502802 
vn -0.795077 -0.213604 -0.567649 
vn -0.724971 -0.417219 -0.548038 
vn -0.795077 -0.213604 -0.567649 
f 419//419 420//420 421//421 
f 422//422 419//419 423//423 
f 424//424 422//422 425//425 
f 426//426 424//424 427//427 
f 428//428 426//426 429//429 
f 430//430 428//428 431//431 
f 432//432 430//430 433//433 
f 434//434 432//432 435//435 
f 436//436 434//434 437//437 
f 438//438 436//436 439//439 
f 440//440 438//438 441//441 
f 442//442 440//440 443//443 
f 444//444 442//442 445//445 
f 446//446 444//444 447//447 
f 448//448 446//446 449//449 
f 450//450 448//448 451//451 
f 452//452 450//450 453//453 
f 454//454 452//452 455//455 
f 456//456 454//454 457//457 
f 458//458 456//456 459//459 
f 460//460 458//458 461//461 
f 462//462 460//460 463//463 
f 464//464 462//462 465//465 
f 466//466 464//464 467//467 
f 468//468 466//466 469//469 
f 470//470 468//468 471//471 
f 472//472 470//470 473//473 
f 474//474 472//472 475//475 
f 420//420 474//474 476//476 
f 476//476 421//421 420//420 
f 475//475 476//476 474//474 
f 473//473 475//475 472//472 
f 471//471 473//473 470//470 
f 469//469 471//471 468//468 
f 467//467 469//469 466//466 
f 465//465 467//467 464//464 
f 463//463 465//465 462//462 
f 461//461 463//463 460//460 
f 459//459 461//461 458//458 
f 457//457 459//459 456//456 
f 455//455 457//457 454//454 
f 453//453 455//455 452//452 
f 451//451 453//453 450//450 
f 449//449 451//451 448//448 
f 447//447 449//449 446//446 
f 445//445 447//447 444//444 
f 443//443 445//445 442//442 
f 441//441 443//443 440//440 
f 439//439 441//441 438//438 
f 437//437 439//439 436//436 
f 435//435 437//437 434//434 
f 433//433 435//435 432//432 
f 431//431 433//433 430//430 
f 429//429 431//431 428//428 
f 427//427 429//429 426//426 
f 425//425 427//427 424//424 
f 423//423 425//425 422//422 
f 421//421 423//423 419//419 
o mesh637
v 0.0526855 0.0291051 0.255737 
v 0.0494693 0.0284069 0.253463 
v 0.0406835 0.0266314 0.266437 
v 0.0496558 0.0284441 0.25312 
v 0.0438997 0.0273296 0.268711 
v 0.0547696 0.0297311 0.282478 
v 0.069127 0.0326325 0.261276 
v 0.063138 0.0313742 0.263126 
v 0.0554079 0.0296794 0.255228 
v 0.0626443 0.0312503 0.260343 
v 0.0497863 0.0284639 0.251967 
v 0.0550727 0.0296069 0.255038 
v 0.0404352 0.0265808 0.266736 
v 0.0543522 0.0295987 0.2761 
v 0.0497733 0.0284665 0.252747 
v 0.0539444 0.0293665 0.254906 
v 0.024242 0.0231039 0.260898 
v 0.0379611 0.0260571 0.266946 
v 0.0307247 0.0244862 0.261831 
v 0.0435516 0.0272633 0.269816 
v 0.0382962 0.0261296 0.267136 
v 0.0437132 0.0272924 0.269054 
v 0.0633245 0.0314114 0.262783 
v 0.0547077 0.0295286 0.254918 
v 0.0543267 0.0294475 0.254874 
v 0.0302309 0.0243623 0.259048 
v 0.0390168 0.0261377 0.246074 
v 0.0435956 0.02727 0.269427 
v 0.0401347 0.0265187 0.26698 
v 0.0397934 0.0264475 0.26716 
v 0.0541039 0.0295481 0.276399 
v 0.0538034 0.029486 0.276643 
v 0.063442 0.0314338 0.262409 
v 0.0629366 0.0313141 0.260597 
v 0.0498174 0.0284732 0.252357 
v 0.0385993 0.0260053 0.239696 
v 0.0386613 0.0262079 0.267256 
v 0.0529338 0.0291557 0.255437 
v 0.063455 0.0314312 0.261629 
v 0.0634861 0.0314405 0.26202 
v 0.0631748 0.0313667 0.260904 
v 0.0495061 0.0283994 0.251241 
v 0.0496812 0.028439 0.25159 
v 0.0417392 0.026712 0.245566 
v 0.0489755 0.028283 0.250681 
v 0.0300445 0.024325 0.259391 
v 0.0390423 0.026289 0.2673 
v 0.0532343 0.0292178 0.255193 
v 0.0534621 0.0294148 0.276822 
v 0.0633499 0.0314063 0.261252 
v 0.0492679 0.0283467 0.250934 
v 0.0399069 0.0263217 0.245352 
v 0.0402757 0.0263992 0.245244 
v 0.0392651 0.0261884 0.245775 
v 0.0395656 0.0262505 0.245531 
v 0.0299269 0.0243027 0.259765 
v 0.0516298 0.0290244 0.276608 
v 0.0443934 0.0274535 0.271493 
v 0.0304324 0.0244224 0.261577 
v 0.0535756 0.029289 0.255014 
v 0.0394246 0.0263699 0.267268 
v 0.0530933 0.0293372 0.27693 
v 0.052711 0.0292563 0.276962 
v 0.041404 0.0266396 0.245375 
v 0.040658 0.0264801 0.245211 
v 0.041039 0.0265613 0.245256 
v 0.0298829 0.024296 0.260154 
v 0.0441011 0.0273897 0.271239 
v 0.0438629 0.0273371 0.270933 
v 0.0519649 0.0290969 0.276798 
v 0.0301942 0.0243697 0.26127 
v 0.0300191 0.0243302 0.260922 
v 0.05233 0.0291752 0.276918 
v 0.0436878 0.0272975 0.270584 
v 0.029914 0.0243053 0.260545 
v 0.0435827 0.0272726 0.270207 
vn -0.207603 0.97819 -0.00672157 
vn -0.207603 0.97819 -0.00672157 
vn -0.207603 0.97819 -0.00672157 
vn -0.207603 0.97819 -0.00672157 
vn -0.207603 0.97819 -0.00672157 
vn -0.207603 0.97819 -0.00672157 
vn -0.207603 0.97819 -0.00672157 
vn -0.207603 0.97819 -0.00672157 
vn -0.207603 0.97819 -0.00672157 
vn -0.207603 0.97819 -0.00672157 
vn -0.207603 0.97819 -0.00672157 
vn -0.207603 0.97819 -0.00672157 
vn -0.207603 0.97819 -0.00672157 
vn -0.207603 0.97819 -0.00672157 
vn -0.207603 0.97819 -0.00672157 
vn -0.207603 0.97819 -0.00672157 
vn -0.207603 0.97819 -0.00672157 
vn -0.207603 0.97819 -0.00672157 
vn -0.207603 0.97819 -0.00672157 
vn -0.207603 0.97819 -0.00672157 
vn -0.207603 0.97819 -0.00672157 
vn -0.207603 0.97819 -0.00672157 
vn -0.207603 0.97819 -0.00672157 
vn -0.207603 0.97819 -0.00672157 
vn -0.207603 0.97819 -0.00672157 
vn -0.207603 0.97819 -0.00672157 
vn -0.207603 0.97819 -0.00672157 
vn -0.207603 0.97819 -0.00672157 
vn -0.207603 0.97819 -0.00672157 
vn -0.207603 0.97819 -0.00672157 
vn -0.207603 0.97819 -0.00672157 
vn -0.207603 0.97819 -0.00672157 
vn -0.207603 0.97819 -0.00672157 
vn -0.207603 0.97819 -0.00672157 
vn -0.207603 0.97819 -0.00672157 
vn -0.207603 0.97819 -0.00672157 
vn -0.207603 0.97819 -0.00672157 
vn -0.207603 0.97819 -0.00672157 
vn -0.207603 0.97819 -0.00672157 
vn -0.207603 0.97819 -0.00672157 
vn -0.207603 0.97819 -0.00672157 
vn -0.207603 0.97819 -0.00672157 
vn -0.207603 0.97819 -0.00672157 
vn -0.207603 0.97819 -0.00672157 
vn -0.207603 0.97819 -0.00672157 
vn -0.207603 0.97819 -0.00672157 
vn -0.207603 0.97819 -0.00672157 
vn -0.207603 0.97819 -0.00672157 
vn -0.207603 0.97819 -0.00672157 
vn -0.207603 0.97819 -0.00672157 
vn -0.207603 0.97819 -0.00672157 
vn -0.207603 0.97819 -0.00672157 
vn -0.207603 0.97819 -0.00672157 
vn -0.207603 0.97819 -0.00672157 
vn -0.207603 0.97819 -0.00672157 
vn -0.207603 0.97819 -0.00672157 
vn -0.207603 0.97819 -0.00672157 
vn -0.207603 0.97819 -0.00672157 
vn -0.207603 0.97819 -0.00672157 
vn -0.207603 0.97819 -0.00672157 
vn -0.207603 0.97819 -0.00672157 
vn -0.207603 0.97819 -0.00672157 
vn -0.207603 0.97819 -0.00672157 
vn -0.207603 0.97819 -0.00672157 
vn -0.207603 0.97819 -0.00672157 
vn -0.207603 0.97819 -0.00672157 
vn -0.207603 0.97819 -0.00672157 
vn -0.207603 0.97819 -0.00672157 
vn -0.207603 0.97819 -0.00672157 
vn -0.207603 0.97819 -0.00672157 
vn -0.207603 0.97819 -0.00672157 
vn -0.207603 0.97819 -0.00672157 
vn -0.207603 0.97819 -0.00672157 
vn -0.207603 0.97819 -0.00672157 
vn -0.207603 0.97819 -0.00672157 
vn -0.207603 0.97819 -0.00672157 
f 477//477 478//478 479//479 
f 477//477 480//480 478//478 
f 479//479 481//481 477//477 
f 482//482 483//483 484//484 
f 483//483 485//485 486//486 
f 483//483 487//487 488//488 
f 479//479 489//489 481//481 
f 484//484 490//490 482//482 
f 488//488 485//485 483//483 
f 491//491 480//480 492//492 
f 493//493 494//494 495//495 
f 493//493 496//496 497//497 
f 489//489 498//498 481//481 
f 483//483 499//499 484//484 
f 487//487 500//500 488//488 
f 492//492 501//501 491//491 
f 493//493 502//502 503//503 
f 497//497 494//494 493//493 
f 504//504 505//505 506//506 
f 489//489 504//504 498//498 
f 482//482 507//507 508//508 
f 483//483 509//509 499//499 
f 486//486 510//510 483//483 
f 500//500 511//511 491//491 
f 503//503 512//512 493//493 
f 496//496 513//513 497//497 
f 504//504 489//489 505//505 
f 477//477 514//514 480//480 
f 490//490 507//507 482//482 
f 483//483 515//515 516//516 
f 510//510 517//517 483//483 
f 500//500 487//487 511//511 
f 483//483 518//518 519//519 
f 512//512 520//520 521//521 
f 493//493 522//522 502//502 
f 496//496 523//523 513//513 
f 514//514 524//524 480//480 
f 508//508 525//525 482//482 
f 483//483 526//526 515//515 
f 501//501 500//500 491//491 
f 483//483 527//527 518//518 
f 521//521 483//483 512//512 
f 512//512 528//528 529//529 
f 512//512 530//530 531//531 
f 493//493 532//532 522//522 
f 482//482 533//533 534//534 
f 495//495 535//535 493//493 
f 480//480 524//524 536//536 
f 537//537 496//496 504//504 
f 482//482 538//538 539//539 
f 516//516 509//509 483//483 
f 519//519 487//487 483//483 
f 512//512 540//540 520//520 
f 512//512 541//541 542//542 
f 531//531 528//528 512//512 
f 493//493 543//543 532//532 
f 493//493 544//544 545//545 
f 482//482 546//546 533//533 
f 493//493 547//547 548//548 
f 496//496 537//537 523//523 
f 506//506 537//537 504//504 
f 539//539 549//549 482//482 
f 517//517 526//526 483//483 
f 542//542 540//540 512//512 
f 503//503 530//530 512//512 
f 545//545 550//550 493//493 
f 534//534 493//493 482//482 
f 548//548 551//551 493//493 
f 536//536 492//492 480//480 
f 525//525 538//538 482//482 
f 529//529 541//541 512//512 
f 534//534 544//544 493//493 
f 535//535 547//547 493//493 
f 521//521 527//527 483//483 
f 550//550 552//552 493//493 
f 549//549 546//546 482//482 
f 551//551 543//543 493//493 
f 552//552 496//496 493//493 
o mesh638
v 0.0417215 0.0217404 0.266471 
v 0.0505073 0.0235159 0.253497 
v 0.0537235 0.0242141 0.25577 
v 0.0449377 0.0224386 0.268744 
v 0.0558076 0.0248402 0.282511 
v 0.0454314 0.0225626 0.271526 
v 0.0526678 0.0241335 0.276642 
v 0.0404626 0.021479 0.267301 
v 0.0451391 0.0224988 0.271273 
v 0.0447512 0.0224014 0.269087 
v 0.0414732 0.0216898 0.26677 
v 0.0449009 0.0224461 0.270966 
v 0.0506938 0.0235532 0.253154 
v 0.0539718 0.0242648 0.255471 
v 0.070165 0.0277416 0.26131 
v 0.0553902 0.0247078 0.276133 
v 0.0447258 0.0224066 0.270618 
v 0.0542723 0.0243269 0.255227 
v 0.02528 0.018213 0.260931 
v 0.0396374 0.0211144 0.23973 
v 0.0400548 0.0212468 0.246108 
v 0.0551419 0.0246571 0.276432 
v 0.053003 0.0242059 0.276832 
v 0.0446337 0.022379 0.26946 
v 0.0445896 0.0223724 0.26985 
v 0.0508114 0.0235755 0.252781 
v 0.0411727 0.0216277 0.267014 
v 0.0403031 0.0212974 0.245809 
v 0.064176 0.0264833 0.263159 
v 0.0446207 0.0223817 0.270241 
v 0.0408314 0.0215565 0.267193 
v 0.0317627 0.0195952 0.261864 
v 0.0389991 0.0211662 0.266979 
v 0.0564459 0.0247884 0.255262 
v 0.0561108 0.024716 0.255071 
v 0.031269 0.0194713 0.259082 
v 0.0643625 0.0265205 0.262816 
v 0.0545001 0.0245238 0.276856 
v 0.0548414 0.024595 0.276676 
v 0.053368 0.0242842 0.276952 
v 0.053749 0.0243654 0.276996 
v 0.0508554 0.0235822 0.252391 
v 0.0549824 0.0244756 0.25494 
v 0.0546136 0.0243981 0.255048 
v 0.0314704 0.0195315 0.261611 
v 0.0636823 0.0263593 0.260377 
v 0.0309649 0.0194117 0.259798 
v 0.0309209 0.019405 0.260188 
v 0.0310825 0.0194341 0.259425 
v 0.0503059 0.0234558 0.250968 
v 0.0500136 0.023392 0.250715 
v 0.0644801 0.0265429 0.262443 
v 0.0541313 0.0244463 0.276964 
v 0.0393342 0.0212386 0.26717 
v 0.0396993 0.0213169 0.267289 
v 0.0639746 0.0264231 0.26063 
v 0.0409449 0.0214307 0.245385 
v 0.0406036 0.0213595 0.245565 
v 0.0508243 0.0235729 0.252 
v 0.0507192 0.023548 0.251623 
v 0.0642128 0.0264758 0.260937 
v 0.030952 0.0194143 0.260578 
v 0.0310571 0.0194392 0.260955 
v 0.042442 0.0217486 0.245409 
v 0.042077 0.0216703 0.245289 
v 0.0427772 0.0218211 0.245599 
v 0.0505441 0.0235085 0.251275 
v 0.0400803 0.0213981 0.267334 
v 0.0557457 0.0246377 0.254952 
v 0.0553647 0.0245565 0.254907 
v 0.041696 0.0215892 0.245245 
v 0.0413137 0.0215083 0.245277 
v 0.064493 0.0265402 0.261663 
v 0.0643879 0.0265153 0.261286 
v 0.0645241 0.0265495 0.262053 
v 0.0312322 0.0194788 0.261304 
vn 0.207603 -0.97819 0.00672157 
vn 0.207603 -0.97819 0.00672157 
vn 0.207603 -0.97819 0.00672157 
vn 0.207603 -0.97819 0.00672157 
vn 0.207603 -0.97819 0.00672157 
vn 0.207603 -0.97819 0.00672157 
vn 0.207603 -0.97819 0.00672157 
vn 0.207603 -0.97819 0.00672157 
vn 0.207603 -0.97819 0.00672157 
vn 0.207603 -0.97819 0.00672157 
vn 0.207603 -0.97819 0.00672157 
vn 0.207603 -0.97819 0.00672157 
vn 0.207603 -0.97819 0.00672157 
vn 0.207603 -0.97819 0.00672157 
vn 0.207603 -0.97819 0.00672157 
vn 0.207603 -0.97819 0.00672157 
vn 0.207603 -0.97819 0.00672157 
vn 0.207603 -0.97819 0.00672157 
vn 0.207603 -0.97819 0.00672157 
vn 0.207603 -0.97819 0.00672157 
vn 0.207603 -0.97819 0.00672157 
vn 0.207603 -0.97819 0.00672157 
vn 0.207603 -0.97819 0.00672157 
vn 0.207603 -0.97819 0.00672157 
vn 0.207603 -0.97819 0.00672157 
vn 0.207603 -0.97819 0.00672157 
vn 0.207603 -0.97819 0.00672157 
vn 0.207603 -0.97819 0.00672157 
vn 0.207603 -0.97819 0.00672157 
vn 0.207603 -0.97819 0.00672157 
vn 0.207603 -0.97819 0.00672157 
vn 0.207603 -0.97819 0.00672157 
vn 0.207603 -0.97819 0.00672157 
vn 0.207603 -0.97819 0.00672157 
vn 0.207603 -0.97819 0.00672157 
vn 0.207603 -0.97819 0.00672157 
vn 0.207603 -0.97819 0.00672157 
vn 0.207603 -0.97819 0.00672157 
vn 0.207603 -0.97819 0.00672157 
vn 0.207603 -0.97819 0.00672157 
vn 0.207603 -0.97819 0.00672157 
vn 0.207603 -0.97819 0.00672157 
vn 0.207603 -0.97819 0.00672157 
vn 0.207603 -0.97819 0.00672157 
vn 0.207603 -0.97819 0.00672157 
vn 0.207603 -0.97819 0.00672157 
vn 0.207603 -0.97819 0.00672157 
vn 0.207603 -0.97819 0.00672157 
vn 0.207603 -0.97819 0.00672157 
vn 0.207603 -0.97819 0.00672157 
vn 0.207603 -0.97819 0.00672157 
vn 0.207603 -0.97819 0.00672157 
vn 0.207603 -0.97819 0.00672157 
vn 0.207603 -0.97819 0.00672157 
vn 0.207603 -0.97819 0.00672157 
vn 0.207603 -0.97819 0.00672157 
vn 0.207603 -0.97819 0.00672157 
vn 0.207603 -0.97819 0.00672157 
vn 0.207603 -0.97819 0.00672157 
vn 0.207603 -0.97819 0.00672157 
vn 0.207603 -0.97819 0.00672157 
vn 0.207603 -0.97819 0.00672157 
vn 0.207603 -0.97819 0.00672157 
vn 0.207603 -0.97819 0.00672157 
vn 0.207603 -0.97819 0.00672157 
vn 0.207603 -0.97819 0.00672157 
vn 0.207603 -0.97819 0.00672157 
vn 0.207603 -0.97819 0.00672157 
vn 0.207603 -0.97819 0.00672157 
vn 0.207603 -0.97819 0.00672157 
vn 0.207603 -0.97819 0.00672157 
vn 0.207603 -0.97819 0.00672157 
vn 0.207603 -0.97819 0.00672157 
vn 0.207603 -0.97819 0.00672157 
vn 0.207603 -0.97819 0.00672157 
vn 0.207603 -0.97819 0.00672157 
f 553//553 554//554 555//555 
f 555//555 556//556 553//553 
f 557//557 558//558 559//559 
f 557//557 560//560 561//561 
f 562//562 563//563 553//553 
f 561//561 558//558 557//557 
f 556//556 562//562 553//553 
f 560//560 564//564 561//561 
f 565//565 566//566 555//555 
f 567//567 557//557 568//568 
f 560//560 569//569 564//564 
f 565//565 570//570 566//566 
f 571//571 572//572 573//573 
f 557//557 574//574 568//568 
f 559//559 575//575 557//557 
f 560//560 576//576 577//577 
f 570//570 565//565 578//578 
f 562//562 579//579 563//563 
f 572//572 580//580 573//573 
f 568//568 581//581 567//567 
f 560//560 582//582 569//569 
f 560//560 562//562 576//576 
f 554//554 565//565 555//555 
f 562//562 560//560 583//583 
f 571//571 584//584 585//585 
f 567//567 586//586 587//587 
f 573//573 588//588 571//571 
f 581//581 589//589 567//567 
f 557//557 590//590 591//591 
f 557//557 592//592 593//593 
f 577//577 582//582 560//560 
f 583//583 579//579 562//562 
f 594//594 595//595 596//596 
f 571//571 597//597 584//584 
f 567//567 598//598 586//586 
f 571//571 599//599 600//600 
f 588//588 601//601 571//571 
f 567//567 602//602 603//603 
f 589//589 604//604 567//567 
f 557//557 605//605 590//590 
f 575//575 592//592 557//557 
f 596//596 570//570 594//594 
f 557//557 606//606 607//607 
f 585//585 557//557 571//571 
f 567//567 608//608 598//598 
f 601//601 599//599 571//571 
f 572//572 609//609 610//610 
f 603//603 572//572 567//567 
f 567//567 611//611 612//612 
f 591//591 574//574 557//557 
f 578//578 594//594 570//570 
f 585//585 606//606 557//557 
f 567//567 613//613 608//608 
f 571//571 614//614 615//615 
f 610//610 580//580 572//572 
f 572//572 616//616 617//617 
f 603//603 618//618 572//572 
f 612//612 619//619 567//567 
f 593//593 605//605 557//557 
f 607//607 620//620 557//557 
f 594//594 621//621 622//622 
f 587//587 594//594 567//567 
f 600//600 614//614 571//571 
f 572//572 623//623 624//624 
f 618//618 616//616 572//572 
f 567//567 594//594 611//611 
f 620//620 560//560 557//557 
f 587//587 621//621 594//594 
f 567//567 625//625 626//626 
f 624//624 609//609 572//572 
f 619//619 602//602 567//567 
f 622//622 595//595 594//594 
f 567//567 627//627 625//625 
f 617//617 623//623 572//572 
f 626//626 613//613 567//567 
f 615//615 628//628 571//571 
f 628//628 597//597 571//571 
f 604//604 627//627 567//567 
o mesh639
v 0.0537235 0.0242141 0.25577 
v 0.0526855 0.0291051 0.255737 
v 0.0438997 0.0273296 0.268711 
v 0.0449377 0.0224386 0.268744 
vn 0.804042 0.174548 0.568375 
vn 0.804042 0.174548 0.568375 
vn 0.804042 0.174548 0.568375 
vn 0.804042 0.174548 0.568375 
f 629//629 630//630 631//631 
f 631//631 632//632 629//629 
o mesh640
v 0.0626443 0.0312503 0.260343 
v 0.0554079 0.0296794 0.255228 
v 0.0564459 0.0247884 0.255262 
v 0.0636823 0.0263593 0.260377 
vn -0.557152 -0.112592 0.822742 
vn -0.557152 -0.112592 0.822742 
vn -0.557152 -0.112592 0.822742 
vn -0.557152 -0.112592 0.822742 
f 633//633 634//634 635//635 
f 635//635 636//636 633//633 
o mesh641
v 0.0553902 0.0247078 0.276133 
v 0.0543522 0.0295987 0.2761 
v 0.063138 0.0313742 0.263126 
v 0.064176 0.0264833 0.263159 
vn -0.804042 -0.174548 -0.568375 
vn -0.804042 -0.174548 -0.568375 
vn -0.804042 -0.174548 -0.568375 
vn -0.804042 -0.174548 -0.568375 
f 637//637 638//638 639//639 
f 639//639 640//640 637//637 
o mesh642
v 0.0443934 0.0274535 0.271493 
v 0.0516298 0.0290244 0.276608 
v 0.0526678 0.0241335 0.276642 
v 0.0454314 0.0225626 0.271526 
vn 0.557152 0.112592 -0.822742 
vn 0.557152 0.112592 -0.822742 
vn 0.557152 0.112592 -0.822742 
vn 0.557152 0.112592 -0.822742 
f 641//641 642//642 643//643 
f 643//643 644//644 641//641 
o mesh643
v 0.0417215 0.0217404 0.266471 
v 0.0406835 0.0266314 0.266437 
v 0.0494693 0.0284069 0.253463 
v 0.0505073 0.0235159 0.253497 
vn -0.804042 -0.174548 -0.568375 
vn -0.804042 -0.174548 -0.568375 
vn -0.804042 -0.174548 -0.568375 
vn -0.804042 -0.174548 -0.568375 
f 645//645 646//646 647//647 
f 647//647 648//648 645//645 
o mesh644
v 0.0379611 0.0260571 0.266946 
v 0.0389991 0.0211662 0.266979 
v 0.0317627 0.0195952 0.261864 
v 0.0307247 0.0244862 0.261831 
vn 0.557152 0.112592 -0.822742 
vn 0.557152 0.112592 -0.822742 
vn 0.557152 0.112592 -0.822742 
vn 0.557152 0.112592 -0.822742 
f 649//649 650//650 651//651 
f 651//651 652//652 649//649 
o mesh645
v 0.0390168 0.0261377 0.246074 
v 0.0302309 0.0243623 0.259048 
v 0.031269 0.0194713 0.259082 
v 0.0400548 0.0212468 0.246108 
vn 0.804042 0.174548 0.568375 
vn 0.804042 0.174548 0.568375 
vn 0.804042 0.174548 0.568375 
vn 0.804042 0.174548 0.568375 
f 653//653 654//654 655//655 
f 655//655 656//656 653//653 
o mesh646
v 0.0427772 0.0218211 0.245599 
v 0.0500136 0.023392 0.250715 
v 0.0489755 0.028283 0.250681 
v 0.0417392 0.026712 0.245566 
vn -0.557152 -0.112592 0.822742 
vn -0.557152 -0.112592 0.822742 
vn -0.557152 -0.112592 0.822742 
vn -0.557152 -0.112592 0.822742 
f 657//657 658//658 659//659 
f 659//659 660//660 657//657 
o mesh647
v 0.0506938 0.0235532 0.253154 
v 0.0505073 0.0235159 0.253497 
v 0.0494693 0.0284069 0.253463 
v 0.0508114 0.0235755 0.252781 
v 0.0496558 0.0284441 0.25312 
v 0.0508554 0.0235822 0.252391 
v 0.0497733 0.0284665 0.252747 
v 0.0508243 0.0235729 0.252 
v 0.0498174 0.0284732 0.252357 
v 0.0507192 0.023548 0.251623 
v 0.0497863 0.0284639 0.251967 
v 0.0505441 0.0235085 0.251275 
v 0.0496812 0.028439 0.25159 
v 0.0503059 0.0234558 0.250968 
v 0.0495061 0.0283994 0.251241 
v 0.0500136 0.023392 0.250715 
v 0.0492679 0.0283467 0.250934 
v 0.0489755 0.028283 0.250681 
vn -0.897287 -0.19316 -0.396945 
vn -0.804042 -0.174548 -0.568375 
vn -0.804042 -0.174548 -0.568375 
vn -0.95605 -0.204349 -0.21026 
vn -0.897287 -0.19316 -0.396945 
vn -0.978073 -0.207684 -0.0154953 
vn -0.95605 -0.204349 -0.21026 
vn -0.962509 -0.203039 0.179865 
vn -0.978073 -0.207684 -0.0154953 
vn -0.909956 -0.19059 0.368313 
vn -0.962509 -0.203039 0.179865 
vn -0.822435 -0.170818 0.542607 
vn -0.909956 -0.19059 0.368313 
vn -0.703307 -0.144481 0.696049 
vn -0.822435 -0.170818 0.542607 
vn -0.557152 -0.112592 0.822742 
vn -0.703307 -0.144481 0.696049 
vn -0.557152 -0.112592 0.822742 
f 661//661 662//662 663//663 
f 664//664 661//661 665//665 
f 666//666 664//664 667//667 
f 668//668 666//666 669//669 
f 670//670 668//668 671//671 
f 672//672 670//670 673//673 
f 674//674 672//672 675//675 
f 676//676 674//674 677//677 
f 677//677 678//678 676//676 
f 675//675 677//677 674//674 
f 673//673 675//675 672//672 
f 671//671 673//673 670//670 
f 669//669 671//671 668//668 
f 667//667 669//669 666//666 
f 665//665 667//667 664//664 
f 663//663 665//665 661//661 
o mesh648
v 0.0392651 0.0261884 0.245775 
v 0.0390168 0.0261377 0.246074 
v 0.0400548 0.0212468 0.246108 
v 0.0395656 0.0262505 0.245531 
v 0.0403031 0.0212974 0.245809 
v 0.0399069 0.0263217 0.245352 
v 0.0406036 0.0213595 0.245565 
v 0.0402757 0.0263992 0.245244 
v 0.0409449 0.0214307 0.245385 
v 0.040658 0.0264801 0.245211 
v 0.0413137 0.0215083 0.245277 
v 0.041039 0.0265613 0.245256 
v 0.041696 0.0215892 0.245245 
v 0.041404 0.0266396 0.245375 
v 0.042077 0.0216703 0.245289 
v 0.0417392 0.026712 0.245566 
v 0.042442 0.0217486 0.245409 
v 0.0427772 0.0218211 0.245599 
vn 0.679897 0.149229 0.717963 
vn 0.804042 0.174548 0.568375 
vn 0.804042 0.174548 0.568375 
vn 0.529625 0.118175 0.83996 
vn 0.679897 0.149229 0.717963 
vn 0.358999 0.0825791 0.929678 
vn 0.529625 0.118175 0.83996 
vn 0.174577 0.04381 0.983668 
vn 0.358999 0.0825791 0.929678 
vn -0.0165533 0.00335733 0.999857 
vn 0.174577 0.04381 0.983668 
vn -0.207048 -0.0372244 0.977622 
vn -0.0165533 0.00335733 0.999857 
vn -0.389586 -0.0763756 0.917818 
vn -0.207048 -0.0372244 0.977622 
vn -0.557152 -0.112592 0.822742 
vn -0.389586 -0.0763756 0.917818 
vn -0.557152 -0.112592 0.822742 
f 679//679 680//680 681//681 
f 682//682 679//679 683//683 
f 684//684 682//682 685//685 
f 686//686 684//684 687//687 
f 688//688 686//686 689//689 
f 690//690 688//688 691//691 
f 692//692 690//690 693//693 
f 694//694 692//692 695//695 
f 695//695 696//696 694//694 
f 693//693 695//695 692//692 
f 691//691 693//693 690//690 
f 689//689 691//691 688//688 
f 687//687 689//689 686//686 
f 685//685 687//687 684//684 
f 683//683 685//685 682//682 
f 681//681 683//683 679//679 
o mesh649
v 0.0529338 0.0291557 0.255437 
v 0.0526855 0.0291051 0.255737 
v 0.0537235 0.0242141 0.25577 
v 0.0532343 0.0292178 0.255193 
v 0.0539718 0.0242648 0.255471 
v 0.0535756 0.029289 0.255014 
v 0.0542723 0.0243269 0.255227 
v 0.0539444 0.0293665 0.254906 
v 0.0546136 0.0243981 0.255048 
v 0.0543267 0.0294475 0.254874 
v 0.0549824 0.0244756 0.25494 
v 0.0547077 0.0295286 0.254918 
v 0.0553647 0.0245565 0.254907 
v 0.0550727 0.0296069 0.255038 
v 0.0557457 0.0246377 0.254952 
v 0.0554079 0.0296794 0.255228 
v 0.0561108 0.024716 0.255071 
v 0.0564459 0.0247884 0.255262 
vn 0.679897 0.149229 0.717963 
vn 0.804042 0.174548 0.568375 
vn 0.804042 0.174548 0.568375 
vn 0.529625 0.118175 0.83996 
vn 0.679897 0.149229 0.717963 
vn 0.358999 0.0825791 0.929678 
vn 0.529625 0.118175 0.83996 
vn 0.174577 0.04381 0.983668 
vn 0.358999 0.0825791 0.929678 
vn -0.0165533 0.00335733 0.999857 
vn 0.174577 0.04381 0.983668 
vn -0.207048 -0.0372244 0.977622 
vn -0.0165533 0.00335733 0.999857 
vn -0.389586 -0.0763756 0.917818 
vn -0.207048 -0.0372244 0.977622 
vn -0.557152 -0.112592 0.822742 
vn -0.389586 -0.0763756 0.917818 
vn -0.557152 -0.112592 0.822742 
f 697//697 698//698 699//699 
f 700//700 697//697 701//701 
f 702//702 700//700 703//703 
f 704//704 702//702 705//705 
f 706//706 704//704 707//707 
f 708//708 706//706 709//709 
f 710//710 708//708 711//711 
f 712//712 710//710 713//713 
f 713//713 714//714 712//712 
f 711//711 713//713 710//710 
f 709//709 711//711 708//708 
f 707//707 709//709 706//706 
f 705//705 707//707 704//704 
f 703//703 705//705 702//702 
f 701//701 703//703 700//700 
f 699//699 701//701 697//697 
o mesh650
v 0.0629366 0.0313141 0.260597 
v 0.0626443 0.0312503 0.260343 
v 0.0636823 0.0263593 0.260377 
v 0.0631748 0.0313667 0.260904 
v 0.0639746 0.0264231 0.26063 
v 0.0633499 0.0314063 0.261252 
v 0.0642128 0.0264758 0.260937 
v 0.063455 0.0314312 0.261629 
v 0.0643879 0.0265153 0.261286 
v 0.0634861 0.0314405 0.26202 
v 0.064493 0.0265402 0.261663 
v 0.063442 0.0314338 0.262409 
v 0.0645241 0.0265495 0.262053 
v 0.0633245 0.0314114 0.262783 
v 0.0644801 0.0265429 0.262443 
v 0.063138 0.0313742 0.263126 
v 0.0643625 0.0265205 0.262816 
v 0.064176 0.0264833 0.263159 
vn -0.703307 -0.144481 0.696049 
vn -0.557152 -0.112592 0.822742 
vn -0.557152 -0.112592 0.822742 
vn -0.822435 -0.170818 0.542607 
vn -0.703307 -0.144481 0.696049 
vn -0.909956 -0.19059 0.368313 
vn -0.822435 -0.170818 0.542607 
vn -0.962509 -0.203039 0.179865 
vn -0.909956 -0.19059 0.368313 
vn -0.978073 -0.207684 -0.0154953 
vn -0.962509 -0.203039 0.179865 
vn -0.95605 -0.204349 -0.21026 
vn -0.978073 -0.207684 -0.0154953 
vn -0.897287 -0.19316 -0.396945 
vn -0.95605 -0.204349 -0.21026 
vn -0.804042 -0.174548 -0.568375 
vn -0.897287 -0.19316 -0.396945 
vn -0.804042 -0.174548 -0.568375 
f 715//715 716//716 717//717 
f 718//718 715//715 719//719 
f 720//720 718//718 721//721 
f 722//722 720//720 723//723 
f 724//724 722//722 725//725 
f 726//726 724//724 727//727 
f 728//728 726//726 729//729 
f 730//730 728//728 731//731 
f 731//731 732//732 730//730 
f 729//729 731//731 728//728 
f 727//727 729//729 726//726 
f 725//725 727//727 724//724 
f 723//723 725//725 722//722 
f 721//721 723//723 720//720 
f 719//719 721//721 718//718 
f 717//717 719//719 715//715 
o mesh651
v 0.0541039 0.0295481 0.276399 
v 0.0543522 0.0295987 0.2761 
v 0.0553902 0.0247078 0.276133 
v 0.0538034 0.029486 0.276643 
v 0.0551419 0.0246571 0.276432 
v 0.0534621 0.0294148 0.276822 
v 0.0548414 0.024595 0.276676 
v 0.0530933 0.0293372 0.27693 
v 0.0545001 0.0245238 0.276856 
v 0.052711 0.0292563 0.276962 
v 0.0541313 0.0244463 0.276964 
v 0.05233 0.0291752 0.276918 
v 0.053749 0.0243654 0.276996 
v 0.0519649 0.0290969 0.276798 
v 0.053368 0.0242842 0.276952 
v 0.0516298 0.0290244 0.276608 
v 0.053003 0.0242059 0.276832 
v 0.0526678 0.0241335 0.276642 
vn -0.679897 -0.149229 -0.717963 
vn -0.804042 -0.174548 -0.568375 
vn -0.804042 -0.174548 -0.568375 
vn -0.529625 -0.118175 -0.83996 
vn -0.679897 -0.149229 -0.717963 
vn -0.358999 -0.0825791 -0.929678 
vn -0.529625 -0.118175 -0.83996 
vn -0.174577 -0.04381 -0.983668 
vn -0.358999 -0.0825791 -0.929678 
vn 0.0165533 -0.00335733 -0.999857 
vn -0.174577 -0.04381 -0.983668 
vn 0.207048 0.0372244 -0.977622 
vn 0.0165533 -0.00335733 -0.999857 
vn 0.389586 0.0763756 -0.917818 
vn 0.207048 0.0372244 -0.977622 
vn 0.557152 0.112592 -0.822742 
vn 0.389586 0.0763756 -0.917818 
vn 0.557152 0.112592 -0.822742 
f 733//733 734//734 735//735 
f 736//736 733//733 737//737 
f 738//738 736//736 739//739 
f 740//740 738//738 741//741 
f 742//742 740//740 743//743 
f 744//744 742//742 745//745 
f 746//746 744//744 747//747 
f 748//748 746//746 749//749 
f 749//749 750//750 748//748 
f 747//747 749//749 746//746 
f 745//745 747//747 744//744 
f 743//743 745//745 742//742 
f 741//741 743//743 740//740 
f 739//739 741//741 738//738 
f 737//737 739//739 736//736 
f 735//735 737//737 733//733 
o mesh652
v 0.0304324 0.0244224 0.261577 
v 0.0307247 0.0244862 0.261831 
v 0.0317627 0.0195952 0.261864 
v 0.0301942 0.0243697 0.26127 
v 0.0314704 0.0195315 0.261611 
v 0.0300191 0.0243302 0.260922 
v 0.0312322 0.0194788 0.261304 
v 0.029914 0.0243053 0.260545 
v 0.0310571 0.0194392 0.260955 
v 0.0298829 0.024296 0.260154 
v 0.030952 0.0194143 0.260578 
v 0.0299269 0.0243027 0.259765 
v 0.0309209 0.019405 0.260188 
v 0.0300445 0.024325 0.259391 
v 0.0309649 0.0194117 0.259798 
v 0.0302309 0.0243623 0.259048 
v 0.0310825 0.0194341 0.259425 
v 0.031269 0.0194713 0.259082 
vn 0.703307 0.144481 -0.696049 
vn 0.557152 0.112592 -0.822742 
vn 0.557152 0.112592 -0.822742 
vn 0.822435 0.170818 -0.542607 
vn 0.703307 0.144481 -0.696049 
vn 0.909956 0.19059 -0.368313 
vn 0.822435 0.170818 -0.542607 
vn 0.962509 0.203039 -0.179865 
vn 0.909956 0.19059 -0.368313 
vn 0.978073 0.207684 0.0154953 
vn 0.962509 0.203039 -0.179865 
vn 0.95605 0.204349 0.21026 
vn 0.978073 0.207684 0.0154953 
vn 0.897287 0.19316 0.396945 
vn 0.95605 0.204349 0.21026 
vn 0.804042 0.174548 0.568375 
vn 0.897287 0.19316 0.396945 
vn 0.804042 0.174548 0.568375 
f 751//751 752//752 753//753 
f 754//754 751//751 755//755 
f 756//756 754//754 757//757 
f 758//758 756//756 759//759 
f 760//760 758//758 761//761 
f 762//762 760//760 763//763 
f 764//764 762//762 765//765 
f 766//766 764//764 767//767 
f 767//767 768//768 766//766 
f 765//765 767//767 764//764 
f 763//763 765//765 762//762 
f 761//761 763//763 760//760 
f 759//759 761//761 758//758 
f 757//757 759//759 756//756 
f 755//755 757//757 754//754 
f 753//753 755//755 751//751 
o mesh653
v 0.0393342 0.0212386 0.26717 
v 0.0389991 0.0211662 0.266979 
v 0.0379611 0.0260571 0.266946 
v 0.0396993 0.0213169 0.267289 
v 0.0382962 0.0261296 0.267136 
v 0.0400803 0.0213981 0.267334 
v 0.0386613 0.0262079 0.267256 
v 0.0404626 0.021479 0.267301 
v 0.0390423 0.026289 0.2673 
v 0.0408314 0.0215565 0.267193 
v 0.0394246 0.0263699 0.267268 
v 0.0411727 0.0216277 0.267014 
v 0.0397934 0.0264475 0.26716 
v 0.0414732 0.0216898 0.26677 
v 0.0401347 0.0265187 0.26698 
v 0.0417215 0.0217404 0.266471 
v 0.0404352 0.0265808 0.266736 
v 0.0406835 0.0266314 0.266437 
vn 0.389586 0.0763756 -0.917818 
vn 0.557152 0.112592 -0.822742 
vn 0.557152 0.112592 -0.822742 
vn 0.207048 0.0372244 -0.977622 
vn 0.389586 0.0763756 -0.917818 
vn 0.0165533 -0.00335733 -0.999857 
vn 0.207048 0.0372244 -0.977622 
vn -0.174577 -0.04381 -0.983668 
vn 0.0165533 -0.00335733 -0.999857 
vn -0.358999 -0.0825791 -0.929678 
vn -0.174577 -0.04381 -0.983668 
vn -0.529625 -0.118175 -0.83996 
vn -0.358999 -0.0825791 -0.929678 
vn -0.679897 -0.149229 -0.717963 
vn -0.529625 -0.118175 -0.83996 
vn -0.804042 -0.174548 -0.568375 
vn -0.679897 -0.149229 -0.717963 
vn -0.804042 -0.174548 -0.568375 
f 769//769 770//770 771//771 
f 772//772 769//769 773//773 
f 774//774 772//772 775//775 
f 776//776 774//774 777//777 
f 778//778 776//776 779//779 
f 780//780 778//778 781//781 
f 782//782 780//780 783//783 
f 784//784 782//782 785//785 
f 785//785 786//786 784//784 
f 783//783 785//785 782//782 
f 781//781 783//783 780//780 
f 779//779 781//781 778//778 
f 777//777 779//779 776//776 
f 775//775 777//777 774//774 
f 773//773 775//775 772//772 
f 771//771 773//773 769//769 
o mesh654
v 0.0441011 0.0273897 0.271239 
v 0.0443934 0.0274535 0.271493 
v 0.0454314 0.0225626 0.271526 
v 0.0438629 0.0273371 0.270933 
v 0.0451391 0.0224988 0.271273 
v 0.0436878 0.0272975 0.270584 
v 0.0449009 0.0224461 0.270966 
v 0.0435827 0.0272726 0.270207 
v 0.0447258 0.0224066 0.270618 
v 0.0435516 0.0272633 0.269816 
v 0.0446207 0.0223817 0.270241 
v 0.0435956 0.02727 0.269427 
v 0.0445896 0.0223724 0.26985 
v 0.0437132 0.0272924 0.269054 
v 0.0446337 0.022379 0.26946 
v 0.0438997 0.0273296 0.268711 
v 0.0447512 0.0224014 0.269087 
v 0.0449377 0.0224386 0.268744 
vn 0.703307 0.144481 -0.696049 
vn 0.557152 0.112592 -0.822742 
vn 0.557152 0.112592 -0.822742 
vn 0.822435 0.170818 -0.542607 
vn 0.703307 0.144481 -0.696049 
vn 0.909956 0.19059 -0.368313 
vn 0.822435 0.170818 -0.542607 
vn 0.962509 0.203039 -0.179865 
vn 0.909956 0.19059 -0.368313 
vn 0.978073 0.207684 0.0154953 
vn 0.962509 0.203039 -0.179865 
vn 0.95605 0.204349 0.21026 
vn 0.978073 0.207684 0.0154953 
vn 0.897287 0.19316 0.396945 
vn 0.95605 0.204349 0.21026 
vn 0.804042 0.174548 0.568375 
vn 0.897287 0.19316 0.396945 
vn 0.804042 0.174548 0.568375 
f 787//787 788//788 789//789 
f 790//790 787//787 791//791 
f 792//792 790//790 793//793 
f 794//794 792//792 795//795 
f 796//796 794//794 797//797 
f 798//798 796//796 799//799 
f 800//800 798//798 801//801 
f 802//802 800//800 803//803 
f 803//803 804//804 802//802 
f 801//801 803//803 800//800 
f 799//799 801//801 798//798 
f 797//797 799//799 796//796 
f 795//795 797//797 794//794 
f 793//793 795//795 792//792 
f 791//791 793//793 790//790 
f 789//789 791//791 787//787 
