# OBJ generated by ONSHAPE BY PTC INC, 1.221 Units = meters
mtllib Part_1_21.mtl
g Part 1
usemtl 0.615686_0.811765_0.929412_0.000000_0.000000
o mesh4462
v 0.0648054 -0.0222215 0.208216 
v 0.0649681 -0.0222174 0.207477 
v 0.0667705 -0.0221714 0.208261 
v 0.0652858 -0.0222093 0.20679 
v 0.0668775 -0.0221686 0.207944 
v 0.0657436 -0.0221976 0.206188 
v 0.0670502 -0.0221642 0.207657 
v 0.0667343 -0.0221723 0.208595 
v 0.0647849 -0.022222 0.208595 
v 0.0663203 -0.0221829 0.211492 
v 0.0657436 -0.0221976 0.211002 
v 0.0672807 -0.0221583 0.209776 
v 0.0652858 -0.0222093 0.210399 
v 0.0670502 -0.0221642 0.209533 
v 0.0649681 -0.0222174 0.209712 
v 0.0668775 -0.0221686 0.209245 
v 0.0648054 -0.0222215 0.208973 
v 0.0667705 -0.0221714 0.208928 
v 0.0663203 -0.0221829 0.205698 
v 0.0672807 -0.0221583 0.207413 
v 0.0669887 -0.0221658 0.205343 
v 0.067558 -0.0221513 0.207225 
v 0.0677177 -0.0221472 0.205141 
v 0.0678693 -0.0221433 0.207101 
v 0.0684732 -0.0221279 0.2051 
v 0.0685345 -0.0221263 0.207065 
v 0.0681999 -0.0221349 0.207047 
v 0.0692198 -0.0221089 0.205222 
v 0.0688573 -0.0221181 0.207155 
v 0.0699227 -0.0220909 0.205502 
v 0.0691533 -0.0221105 0.207312 
v 0.0710692 -0.0220616 0.206476 
v 0.0696115 -0.0220989 0.207795 
v 0.0694087 -0.022104 0.207529 
v 0.0714593 -0.0220517 0.207125 
v 0.0697522 -0.0220953 0.2081 
v 0.0699227 -0.0220909 0.211687 
v 0.0688573 -0.0221181 0.210035 
v 0.0691533 -0.0221105 0.209878 
v 0.0692198 -0.0221089 0.211967 
v 0.0685345 -0.0221263 0.210124 
v 0.0684732 -0.0221279 0.212089 
v 0.0677177 -0.0221472 0.212048 
v 0.0681999 -0.0221349 0.210142 
v 0.0669887 -0.0221658 0.211846 
v 0.067558 -0.0221513 0.209964 
v 0.0705489 -0.0220749 0.205927 
v 0.0717008 -0.0220455 0.209347 
v 0.0697522 -0.0220953 0.20909 
v 0.0698242 -0.0220934 0.208762 
v 0.0714593 -0.0220517 0.210064 
v 0.0696115 -0.0220989 0.209394 
v 0.0710692 -0.0220616 0.210713 
v 0.0694087 -0.022104 0.209661 
v 0.0705489 -0.0220749 0.211262 
v 0.0678693 -0.0221433 0.210088 
v 0.0717008 -0.0220455 0.207842 
v 0.0698242 -0.0220934 0.208427 
v 0.0717826 -0.0220434 0.208595 
vn 0.0255144 -0.999674 -5.60663e-15 
vn 0.0255144 -0.999674 -5.60663e-15 
vn 0.0255144 -0.999674 -5.60663e-15 
vn 0.0255144 -0.999674 -5.60663e-15 
vn 0.0255144 -0.999674 -5.60663e-15 
vn 0.0255144 -0.999674 -5.60663e-15 
vn 0.0255144 -0.999674 -5.60663e-15 
vn 0.0255144 -0.999674 -5.60663e-15 
vn 0.0255144 -0.999674 -5.60663e-15 
vn 0.0255144 -0.999674 -5.60663e-15 
vn 0.0255144 -0.999674 -5.60663e-15 
vn 0.0255144 -0.999674 -5.60663e-15 
vn 0.0255144 -0.999674 -5.60663e-15 
vn 0.0255144 -0.999674 -5.60663e-15 
vn 0.0255144 -0.999674 -5.60663e-15 
vn 0.0255144 -0.999674 -5.60663e-15 
vn 0.0255144 -0.999674 -5.60663e-15 
vn 0.0255144 -0.999674 -5.60663e-15 
vn 0.0255144 -0.999674 -5.60663e-15 
vn 0.0255144 -0.999674 -5.60663e-15 
vn 0.0255144 -0.999674 -5.60663e-15 
vn 0.0255144 -0.999674 -5.60663e-15 
vn 0.0255144 -0.999674 -5.60663e-15 
vn 0.0255144 -0.999674 -5.60663e-15 
vn 0.0255144 -0.999674 -5.60663e-15 
vn 0.0255144 -0.999674 -5.60663e-15 
vn 0.0255144 -0.999674 -5.60663e-15 
vn 0.0255144 -0.999674 -5.60663e-15 
vn 0.0255144 -0.999674 -5.60663e-15 
vn 0.0255144 -0.999674 -5.60663e-15 
vn 0.0255144 -0.999674 -5.60663e-15 
vn 0.0255144 -0.999674 -5.60663e-15 
vn 0.0255144 -0.999674 -5.60663e-15 
vn 0.0255144 -0.999674 -5.60663e-15 
vn 0.0255144 -0.999674 -5.60663e-15 
vn 0.0255144 -0.999674 -5.60663e-15 
vn 0.0255144 -0.999674 -5.60663e-15 
vn 0.0255144 -0.999674 -5.60663e-15 
vn 0.0255144 -0.999674 -5.60663e-15 
vn 0.0255144 -0.999674 -5.60663e-15 
vn 0.0255144 -0.999674 -5.60663e-15 
vn 0.0255144 -0.999674 -5.60663e-15 
vn 0.0255144 -0.999674 -5.60663e-15 
vn 0.0255144 -0.999674 -5.60663e-15 
vn 0.0255144 -0.999674 -5.60663e-15 
vn 0.0255144 -0.999674 -5.60663e-15 
vn 0.0255144 -0.999674 -5.60663e-15 
vn 0.0255144 -0.999674 -5.60663e-15 
vn 0.0255144 -0.999674 -5.60663e-15 
vn 0.0255144 -0.999674 -5.60663e-15 
vn 0.0255144 -0.999674 -5.60663e-15 
vn 0.0255144 -0.999674 -5.60663e-15 
vn 0.0255144 -0.999674 -5.60663e-15 
vn 0.0255144 -0.999674 -5.60663e-15 
vn 0.0255144 -0.999674 -5.60663e-15 
vn 0.0255144 -0.999674 -5.60663e-15 
vn 0.0255144 -0.999674 -5.60663e-15 
vn 0.0255144 -0.999674 -5.60663e-15 
vn 0.0255144 -0.999674 -5.60663e-15 
f 1//1 2//2 3//3 
f 2//2 4//4 5//5 
f 4//4 6//6 7//7 
f 8//8 9//9 1//1 
f 7//7 5//5 4//4 
f 10//10 11//11 12//12 
f 11//11 13//13 14//14 
f 13//13 15//15 16//16 
f 15//15 17//17 18//18 
f 5//5 3//3 2//2 
f 6//6 19//19 20//20 
f 19//19 21//21 22//22 
f 21//21 23//23 24//24 
f 25//25 26//26 27//27 
f 28//28 29//29 26//26 
f 30//30 31//31 29//29 
f 32//32 33//33 34//34 
f 35//35 36//36 33//33 
f 37//37 38//38 39//39 
f 40//40 41//41 38//38 
f 42//42 43//43 44//44 
f 45//45 10//10 46//46 
f 14//14 12//12 11//11 
f 18//18 16//16 15//15 
f 17//17 9//9 8//8 
f 20//20 7//7 6//6 
f 24//24 22//22 21//21 
f 27//27 23//23 25//25 
f 29//29 28//28 30//30 
f 47//47 34//34 31//31 
f 33//33 32//32 35//35 
f 48//48 49//49 50//50 
f 51//51 52//52 49//49 
f 53//53 54//54 52//52 
f 55//55 39//39 54//54 
f 38//38 37//37 40//40 
f 41//41 40//40 42//42 
f 43//43 45//45 56//56 
f 12//12 46//46 10//10 
f 8//8 18//18 17//17 
f 22//22 20//20 19//19 
f 26//26 25//25 28//28 
f 34//34 47//47 32//32 
f 49//49 48//48 51//51 
f 54//54 53//53 55//55 
f 44//44 41//41 42//42 
f 46//46 56//56 45//45 
f 3//3 8//8 1//1 
f 31//31 30//30 47//47 
f 57//57 58//58 36//36 
f 59//59 50//50 58//58 
f 52//52 51//51 53//53 
f 56//56 44//44 43//43 
f 27//27 24//24 23//23 
f 58//58 57//57 59//59 
f 39//39 55//55 37//37 
f 36//36 35//35 57//57 
f 16//16 14//14 13//13 
f 50//50 59//59 48//48 
o mesh4463
v 0.0658311 0.0146369 0.208261 
v 0.0657948 0.014636 0.208595 
v 0.0667343 -0.0221723 0.208595 
v 0.0659381 0.0146396 0.207944 
v 0.0667705 -0.0221714 0.208261 
v 0.0661108 0.014644 0.207657 
v 0.0668775 -0.0221686 0.207944 
v 0.0663412 0.0146499 0.207413 
v 0.0670502 -0.0221642 0.207657 
v 0.0666185 0.014657 0.207225 
v 0.0672807 -0.0221583 0.207413 
v 0.0669298 0.0146649 0.207101 
v 0.067558 -0.0221513 0.207225 
v 0.0672605 0.0146734 0.207047 
v 0.0678693 -0.0221433 0.207101 
v 0.067595 0.0146819 0.207065 
v 0.0681999 -0.0221349 0.207047 
v 0.0679179 0.0146902 0.207155 
v 0.0685345 -0.0221263 0.207065 
v 0.0682139 0.0146977 0.207312 
v 0.0688573 -0.0221181 0.207155 
v 0.0684693 0.0147042 0.207529 
v 0.0691533 -0.0221105 0.207312 
v 0.068672 0.0147094 0.207795 
v 0.0694087 -0.022104 0.207529 
v 0.0688127 0.014713 0.2081 
v 0.0696115 -0.0220989 0.207795 
v 0.0688848 0.0147148 0.208427 
v 0.0697522 -0.0220953 0.2081 
v 0.0698242 -0.0220934 0.208762 
v 0.0688848 0.0147148 0.208762 
v 0.0688938 0.0147151 0.208595 
v 0.0698242 -0.0220934 0.208427 
v 0.0688127 0.014713 0.20909 
v 0.068672 0.0147094 0.209394 
v 0.0697522 -0.0220953 0.20909 
v 0.0684693 0.0147042 0.209661 
v 0.0696115 -0.0220989 0.209394 
v 0.0682139 0.0146977 0.209878 
v 0.0694087 -0.022104 0.209661 
v 0.0679179 0.0146902 0.210035 
v 0.0691533 -0.0221105 0.209878 
v 0.067595 0.0146819 0.210124 
v 0.0688573 -0.0221181 0.210035 
v 0.0672605 0.0146734 0.210142 
v 0.0685345 -0.0221263 0.210124 
v 0.0669298 0.0146649 0.210088 
v 0.0681999 -0.0221349 0.210142 
v 0.0666185 0.014657 0.209964 
v 0.0678693 -0.0221433 0.210088 
v 0.0663412 0.0146499 0.209776 
v 0.067558 -0.0221513 0.209964 
v 0.0661108 0.014644 0.209533 
v 0.0672807 -0.0221583 0.209776 
v 0.0659381 0.0146396 0.209245 
v 0.0670502 -0.0221642 0.209533 
v 0.0658311 0.0146369 0.208928 
v 0.0668775 -0.0221686 0.209245 
v 0.0667705 -0.0221714 0.208928 
vn 0.976303 0.0249179 0.21497 
vn 0.999674 0.0255144 2.44929e-16 
vn 0.999674 0.0255144 2.44929e-16 
vn 0.90728 0.0231562 0.419889 
vn 0.976303 0.0249179 0.21497 
vn 0.795834 0.0203118 0.605174 
vn 0.90728 0.0231562 0.419889 
vn 0.647176 0.0165177 0.762162 
vn 0.795834 0.0203118 0.605174 
vn 0.468256 0.0119511 0.883512 
vn 0.647176 0.0165177 0.762162 
vn 0.267441 0.00682582 0.96355 
vn 0.468256 0.0119511 0.883512 
vn 0.0541213 0.00138132 0.998533 
vn 0.267441 0.00682582 0.96355 
vn -0.161729 -0.00412777 0.986827 
vn 0.0541213 0.00138132 0.998533 
vn -0.370018 -0.00944384 0.928977 
vn -0.161729 -0.00412777 0.986827 
vn -0.561004 -0.0143183 0.827689 
vn -0.370018 -0.00944384 0.928977 
vn -0.725759 -0.0185233 0.687699 
vn -0.561004 -0.0143183 0.827689 
vn -0.856578 -0.0218622 0.515554 
vn -0.725759 -0.0185233 0.687699 
vn -0.947345 -0.0241788 0.319302 
vn -0.856578 -0.0218622 0.515554 
vn -0.993814 -0.0253648 0.108119 
vn -0.947345 -0.0241788 0.319302 
vn -0.993814 -0.0253648 -0.108119 
vn -0.993814 -0.0253648 -0.108119 
vn -0.999674 -0.0255144 -1.28265e-13 
vn -0.993814 -0.0253648 0.108119 
vn -0.947345 -0.0241788 -0.319302 
vn -0.856578 -0.0218622 -0.515554 
vn -0.947345 -0.0241788 -0.319302 
vn -0.725759 -0.0185233 -0.687699 
vn -0.856578 -0.0218622 -0.515554 
vn -0.561004 -0.0143183 -0.827689 
vn -0.725759 -0.0185233 -0.687699 
vn -0.370018 -0.00944384 -0.928977 
vn -0.561004 -0.0143183 -0.827689 
vn -0.161729 -0.00412777 -0.986827 
vn -0.370018 -0.00944384 -0.928977 
vn 0.0541213 0.00138132 -0.998533 
vn -0.161729 -0.00412777 -0.986827 
vn 0.267441 0.00682582 -0.96355 
vn 0.0541213 0.00138132 -0.998533 
vn 0.468256 0.0119511 -0.883512 
vn 0.267441 0.00682582 -0.96355 
vn 0.647176 0.0165177 -0.762162 
vn 0.468256 0.0119511 -0.883512 
vn 0.795834 0.0203118 -0.605174 
vn 0.647176 0.0165177 -0.762162 
vn 0.90728 0.0231562 -0.419889 
vn 0.795834 0.0203118 -0.605174 
vn 0.976303 0.0249179 -0.21497 
vn 0.90728 0.0231562 -0.419889 
vn 0.976303 0.0249179 -0.21497 
f 60//60 61//61 62//62 
f 63//63 60//60 64//64 
f 65//65 63//63 66//66 
f 67//67 65//65 68//68 
f 69//69 67//67 70//70 
f 71//71 69//69 72//72 
f 73//73 71//71 74//74 
f 75//75 73//73 76//76 
f 77//77 75//75 78//78 
f 79//79 77//77 80//80 
f 81//81 79//79 82//82 
f 83//83 81//81 84//84 
f 85//85 83//83 86//86 
f 87//87 85//85 88//88 
f 89//89 90//90 91//91 
f 91//91 92//92 89//89 
f 93//93 90//90 89//89 
f 94//94 93//93 95//95 
f 96//96 94//94 97//97 
f 98//98 96//96 99//99 
f 100//100 98//98 101//101 
f 102//102 100//100 103//103 
f 104//104 102//102 105//105 
f 106//106 104//104 107//107 
f 108//108 106//106 109//109 
f 110//110 108//108 111//111 
f 112//112 110//110 113//113 
f 114//114 112//112 115//115 
f 116//116 114//114 117//117 
f 61//61 116//116 118//118 
f 118//118 62//62 61//61 
f 117//117 118//118 116//116 
f 115//115 117//117 114//114 
f 113//113 115//115 112//112 
f 111//111 113//113 110//110 
f 109//109 111//111 108//108 
f 107//107 109//109 106//106 
f 105//105 107//107 104//104 
f 103//103 105//105 102//102 
f 101//101 103//103 100//100 
f 99//99 101//101 98//98 
f 97//97 99//99 96//96 
f 95//95 97//97 94//94 
f 89//89 95//95 93//93 
f 91//91 87//87 92//92 
f 88//88 92//92 87//87 
f 86//86 88//88 85//85 
f 84//84 86//86 83//83 
f 82//82 84//84 81//81 
f 80//80 82//82 79//79 
f 78//78 80//80 77//77 
f 76//76 78//78 75//75 
f 74//74 76//76 73//73 
f 72//72 74//74 71//71 
f 70//70 72//72 69//69 
f 68//68 70//70 67//67 
f 66//66 68//68 65//65 
f 64//64 66//66 63//63 
f 62//62 64//64 60//60 
o mesh4464
v 0.0708432 0.0147648 0.208595 
v 0.0688938 0.0147151 0.208595 
v 0.0688848 0.0147148 0.208762 
v 0.0707614 0.0147627 0.207842 
v 0.0688848 0.0147148 0.208427 
v 0.0660493 0.0146425 0.205343 
v 0.0666185 0.014657 0.207225 
v 0.0669298 0.0146649 0.207101 
v 0.0653808 0.0146254 0.205698 
v 0.0663412 0.0146499 0.207413 
v 0.0653808 0.0146254 0.211492 
v 0.0666185 0.014657 0.209964 
v 0.0663412 0.0146499 0.209776 
v 0.0660493 0.0146425 0.211846 
v 0.0669298 0.0146649 0.210088 
v 0.0701298 0.0147466 0.210713 
v 0.0705198 0.0147566 0.210064 
v 0.068672 0.0147094 0.209394 
v 0.0707614 0.0147627 0.209347 
v 0.0688127 0.014713 0.20909 
v 0.0643463 0.014599 0.20679 
v 0.0659381 0.0146396 0.207944 
v 0.0661108 0.014644 0.207657 
v 0.0640286 0.0145909 0.207477 
v 0.0658311 0.0146369 0.208261 
v 0.063866 0.0145867 0.208216 
v 0.0657948 0.014636 0.208595 
v 0.0640286 0.0145909 0.209712 
v 0.0659381 0.0146396 0.209245 
v 0.0658311 0.0146369 0.208928 
v 0.0643463 0.014599 0.210399 
v 0.0661108 0.014644 0.209533 
v 0.0667783 0.0146611 0.212048 
v 0.0672605 0.0146734 0.210142 
v 0.0696095 0.0147333 0.211262 
v 0.0684693 0.0147042 0.209661 
v 0.0705198 0.0147566 0.207125 
v 0.0688127 0.014713 0.2081 
v 0.0701298 0.0147466 0.206476 
v 0.068672 0.0147094 0.207795 
v 0.0696095 0.0147333 0.205927 
v 0.0684693 0.0147042 0.207529 
v 0.0689832 0.0147174 0.205502 
v 0.0682804 0.0146994 0.205222 
v 0.0679179 0.0146902 0.207155 
v 0.0675338 0.0146804 0.2051 
v 0.067595 0.0146819 0.207065 
v 0.0667783 0.0146611 0.205141 
v 0.0648042 0.0146107 0.206188 
v 0.063866 0.0145867 0.208973 
v 0.0648042 0.0146107 0.211002 
v 0.0675338 0.0146804 0.212089 
v 0.067595 0.0146819 0.210124 
v 0.0682804 0.0146994 0.211967 
v 0.0689832 0.0147174 0.211687 
v 0.0679179 0.0146902 0.210035 
v 0.0682139 0.0146977 0.209878 
v 0.0682139 0.0146977 0.207312 
v 0.0672605 0.0146734 0.207047 
v 0.0638455 0.0145862 0.208595 
vn -0.0255144 0.999674 8.18802e-15 
vn -0.0255144 0.999674 8.18802e-15 
vn -0.0255144 0.999674 8.18802e-15 
vn -0.0255144 0.999674 8.18802e-15 
vn -0.0255144 0.999674 8.18802e-15 
vn -0.0255144 0.999674 8.18802e-15 
vn -0.0255144 0.999674 8.18802e-15 
vn -0.0255144 0.999674 8.18802e-15 
vn -0.0255144 0.999674 8.18802e-15 
vn -0.0255144 0.999674 8.18802e-15 
vn -0.0255144 0.999674 8.18802e-15 
vn -0.0255144 0.999674 8.18802e-15 
vn -0.0255144 0.999674 8.18802e-15 
vn -0.0255144 0.999674 8.18802e-15 
vn -0.0255144 0.999674 8.18802e-15 
vn -0.0255144 0.999674 8.18802e-15 
vn -0.0255144 0.999674 8.18802e-15 
vn -0.0255144 0.999674 8.18802e-15 
vn -0.0255144 0.999674 8.18802e-15 
vn -0.0255144 0.999674 8.18802e-15 
vn -0.0255144 0.999674 8.18802e-15 
vn -0.0255144 0.999674 8.18802e-15 
vn -0.0255144 0.999674 8.18802e-15 
vn -0.0255144 0.999674 8.18802e-15 
vn -0.0255144 0.999674 8.18802e-15 
vn -0.0255144 0.999674 8.18802e-15 
vn -0.0255144 0.999674 8.18802e-15 
vn -0.0255144 0.999674 8.18802e-15 
vn -0.0255144 0.999674 8.18802e-15 
vn -0.0255144 0.999674 8.18802e-15 
vn -0.0255144 0.999674 8.18802e-15 
vn -0.0255144 0.999674 8.18802e-15 
vn -0.0255144 0.999674 8.18802e-15 
vn -0.0255144 0.999674 8.18802e-15 
vn -0.0255144 0.999674 8.18802e-15 
vn -0.0255144 0.999674 8.18802e-15 
vn -0.0255144 0.999674 8.18802e-15 
vn -0.0255144 0.999674 8.18802e-15 
vn -0.0255144 0.999674 8.18802e-15 
vn -0.0255144 0.999674 8.18802e-15 
vn -0.0255144 0.999674 8.18802e-15 
vn -0.0255144 0.999674 8.18802e-15 
vn -0.0255144 0.999674 8.18802e-15 
vn -0.0255144 0.999674 8.18802e-15 
vn -0.0255144 0.999674 8.18802e-15 
vn -0.0255144 0.999674 8.18802e-15 
vn -0.0255144 0.999674 8.18802e-15 
vn -0.0255144 0.999674 8.18802e-15 
vn -0.0255144 0.999674 8.18802e-15 
vn -0.0255144 0.999674 8.18802e-15 
vn -0.0255144 0.999674 8.18802e-15 
vn -0.0255144 0.999674 8.18802e-15 
vn -0.0255144 0.999674 8.18802e-15 
vn -0.0255144 0.999674 8.18802e-15 
vn -0.0255144 0.999674 8.18802e-15 
vn -0.0255144 0.999674 8.18802e-15 
vn -0.0255144 0.999674 8.18802e-15 
vn -0.0255144 0.999674 8.18802e-15 
vn -0.0255144 0.999674 8.18802e-15 
vn -0.0255144 0.999674 8.18802e-15 
f 119//119 120//120 121//121 
f 119//119 122//122 123//123 
f 124//124 125//125 126//126 
f 127//127 128//128 125//125 
f 129//129 130//130 131//131 
f 132//132 133//133 130//130 
f 134//134 135//135 136//136 
f 135//135 137//137 138//138 
f 123//123 120//120 119//119 
f 125//125 124//124 127//127 
f 139//139 140//140 141//141 
f 142//142 143//143 140//140 
f 144//144 145//145 143//143 
f 146//146 147//147 148//148 
f 149//149 150//150 147//147 
f 130//130 129//129 132//132 
f 151//151 152//152 133//133 
f 153//153 134//134 154//154 
f 138//138 136//136 135//135 
f 121//121 137//137 119//119 
f 122//122 155//155 156//156 
f 155//155 157//157 158//158 
f 157//157 159//159 160//160 
f 161//161 162//162 163//163 
f 162//162 164//164 165//165 
f 126//126 166//166 124//124 
f 167//167 141//141 128//128 
f 140//140 139//139 142//142 
f 143//143 142//142 144//144 
f 168//168 148//148 145//145 
f 147//147 146//146 149//149 
f 169//169 131//131 150//150 
f 133//133 132//132 151//151 
f 170//170 171//171 152//152 
f 172//172 173//173 174//174 
f 173//173 153//153 175//175 
f 136//136 154//154 134//134 
f 156//156 123//123 122//122 
f 160//160 158//158 157//157 
f 159//159 161//161 176//176 
f 165//165 163//163 162//162 
f 164//164 166//166 177//177 
f 128//128 127//127 167//167 
f 144//144 178//178 145//145 
f 148//148 168//168 146//146 
f 131//131 169//169 129//129 
f 152//152 151//151 170//170 
f 175//175 174//174 173//173 
f 121//121 138//138 137//137 
f 176//176 160//160 159//159 
f 177//177 165//165 164//164 
f 141//141 167//167 139//139 
f 150//150 149//149 169//169 
f 174//174 171//171 172//172 
f 158//158 156//156 155//155 
f 126//126 177//177 166//166 
f 170//170 172//172 171//171 
f 163//163 176//176 161//161 
f 154//154 175//175 153//153 
f 145//145 178//178 168//168 
o mesh4465
v 0.0717826 -0.0220434 0.208595 
v 0.0708432 0.0147648 0.208595 
v 0.0707614 0.0147627 0.209347 
v 0.0717008 -0.0220455 0.209347 
v 0.0705198 0.0147566 0.210064 
v 0.0714593 -0.0220517 0.210064 
v 0.0701298 0.0147466 0.210713 
v 0.0710692 -0.0220616 0.210713 
v 0.0696095 0.0147333 0.211262 
v 0.0705489 -0.0220749 0.211262 
v 0.0689832 0.0147174 0.211687 
v 0.0699227 -0.0220909 0.211687 
v 0.0682804 0.0146994 0.211967 
v 0.0692198 -0.0221089 0.211967 
v 0.0675338 0.0146804 0.212089 
v 0.0684732 -0.0221279 0.212089 
v 0.0667783 0.0146611 0.212048 
v 0.0677177 -0.0221472 0.212048 
v 0.0660493 0.0146425 0.211846 
v 0.0669887 -0.0221658 0.211846 
v 0.0653808 0.0146254 0.211492 
v 0.0663203 -0.0221829 0.211492 
v 0.0648042 0.0146107 0.211002 
v 0.0657436 -0.0221976 0.211002 
v 0.0643463 0.014599 0.210399 
v 0.0652858 -0.0222093 0.210399 
v 0.0640286 0.0145909 0.209712 
v 0.0649681 -0.0222174 0.209712 
v 0.063866 0.0145867 0.208973 
v 0.0638455 0.0145862 0.208595 
v 0.063866 0.0145867 0.208216 
v 0.0648054 -0.0222215 0.208216 
v 0.0647849 -0.022222 0.208595 
v 0.0648054 -0.0222215 0.208973 
v 0.0640286 0.0145909 0.207477 
v 0.0649681 -0.0222174 0.207477 
v 0.0643463 0.014599 0.20679 
v 0.0652858 -0.0222093 0.20679 
v 0.0648042 0.0146107 0.206188 
v 0.0657436 -0.0221976 0.206188 
v 0.0653808 0.0146254 0.205698 
v 0.0663203 -0.0221829 0.205698 
v 0.0660493 0.0146425 0.205343 
v 0.0669887 -0.0221658 0.205343 
v 0.0667783 0.0146611 0.205141 
v 0.0677177 -0.0221472 0.205141 
v 0.0675338 0.0146804 0.2051 
v 0.0684732 -0.0221279 0.2051 
v 0.0682804 0.0146994 0.205222 
v 0.0692198 -0.0221089 0.205222 
v 0.0689832 0.0147174 0.205502 
v 0.0699227 -0.0220909 0.205502 
v 0.0696095 0.0147333 0.205927 
v 0.0705489 -0.0220749 0.205927 
v 0.0701298 0.0147466 0.206476 
v 0.0710692 -0.0220616 0.206476 
v 0.0705198 0.0147566 0.207125 
v 0.0714593 -0.0220517 0.207125 
v 0.0707614 0.0147627 0.207842 
v 0.0717008 -0.0220455 0.207842 
vn 0.999674 0.0255144 2.20106e-31 
vn 0.999674 0.0255144 2.20106e-31 
vn 0.976303 0.0249179 0.21497 
vn 0.976303 0.0249179 0.21497 
vn 0.90728 0.0231562 0.419889 
vn 0.90728 0.0231562 0.419889 
vn 0.795834 0.0203118 0.605174 
vn 0.795834 0.0203118 0.605174 
vn 0.647176 0.0165177 0.762162 
vn 0.647176 0.0165177 0.762162 
vn 0.468256 0.0119511 0.883512 
vn 0.468256 0.0119511 0.883512 
vn 0.267441 0.00682582 0.96355 
vn 0.267441 0.00682582 0.96355 
vn 0.0541213 0.00138132 0.998533 
vn 0.0541213 0.00138132 0.998533 
vn -0.161729 -0.00412777 0.986827 
vn -0.161729 -0.00412777 0.986827 
vn -0.370018 -0.00944384 0.928977 
vn -0.370018 -0.00944384 0.928977 
vn -0.561004 -0.0143183 0.827689 
vn -0.561004 -0.0143183 0.827689 
vn -0.725759 -0.0185233 0.687699 
vn -0.725759 -0.0185233 0.687699 
vn -0.856578 -0.0218622 0.515554 
vn -0.856578 -0.0218622 0.515554 
vn -0.947345 -0.0241788 0.319302 
vn -0.947345 -0.0241788 0.319302 
vn -0.993814 -0.0253648 0.108119 
vn -0.999674 -0.0255144 -6.73803e-15 
vn -0.993814 -0.0253648 -0.108119 
vn -0.993814 -0.0253648 -0.108119 
vn -0.999674 -0.0255144 -6.73803e-15 
vn -0.993814 -0.0253648 0.108119 
vn -0.947345 -0.0241788 -0.319302 
vn -0.947345 -0.0241788 -0.319302 
vn -0.856578 -0.0218622 -0.515554 
vn -0.856578 -0.0218622 -0.515554 
vn -0.725759 -0.0185233 -0.687699 
vn -0.725759 -0.0185233 -0.687699 
vn -0.561004 -0.0143183 -0.827689 
vn -0.561004 -0.0143183 -0.827689 
vn -0.370018 -0.00944384 -0.928977 
vn -0.370018 -0.00944384 -0.928977 
vn -0.161729 -0.00412777 -0.986827 
vn -0.161729 -0.00412777 -0.986827 
vn 0.0541213 0.00138132 -0.998533 
vn 0.0541213 0.00138132 -0.998533 
vn 0.267441 0.00682582 -0.96355 
vn 0.267441 0.00682582 -0.96355 
vn 0.468256 0.0119511 -0.883512 
vn 0.468256 0.0119511 -0.883512 
vn 0.647176 0.0165177 -0.762162 
vn 0.647176 0.0165177 -0.762162 
vn 0.795834 0.0203118 -0.605174 
vn 0.795834 0.0203118 -0.605174 
vn 0.90728 0.0231562 -0.419889 
vn 0.90728 0.0231562 -0.419889 
vn 0.976303 0.0249179 -0.21497 
vn 0.976303 0.0249179 -0.21497 
f 179//179 180//180 181//181 
f 182//182 181//181 183//183 
f 184//184 183//183 185//185 
f 186//186 185//185 187//187 
f 188//188 187//187 189//189 
f 190//190 189//189 191//191 
f 192//192 191//191 193//193 
f 194//194 193//193 195//195 
f 196//196 195//195 197//197 
f 198//198 197//197 199//199 
f 200//200 199//199 201//201 
f 202//202 201//201 203//203 
f 204//204 203//203 205//205 
f 206//206 205//205 207//207 
f 208//208 209//209 210//210 
f 208//208 211//211 212//212 
f 212//212 207//207 208//208 
f 210//210 209//209 213//213 
f 214//214 213//213 215//215 
f 216//216 215//215 217//217 
f 218//218 217//217 219//219 
f 220//220 219//219 221//221 
f 222//222 221//221 223//223 
f 224//224 223//223 225//225 
f 226//226 225//225 227//227 
f 228//228 227//227 229//229 
f 230//230 229//229 231//231 
f 232//232 231//231 233//233 
f 234//234 233//233 235//235 
f 236//236 235//235 237//237 
f 238//238 237//237 180//180 
f 180//180 179//179 238//238 
f 237//237 238//238 236//236 
f 235//235 236//236 234//234 
f 233//233 234//234 232//232 
f 231//231 232//232 230//230 
f 229//229 230//230 228//228 
f 227//227 228//228 226//226 
f 225//225 226//226 224//224 
f 223//223 224//224 222//222 
f 221//221 222//222 220//220 
f 219//219 220//220 218//218 
f 217//217 218//218 216//216 
f 215//215 216//216 214//214 
f 213//213 214//214 210//210 
f 210//210 211//211 208//208 
f 207//207 212//212 206//206 
f 205//205 206//206 204//204 
f 203//203 204//204 202//202 
f 201//201 202//202 200//200 
f 199//199 200//200 198//198 
f 197//197 198//198 196//196 
f 195//195 196//196 194//194 
f 193//193 194//194 192//192 
f 191//191 192//192 190//190 
f 189//189 190//190 188//188 
f 187//187 188//188 186//186 
f 185//185 186//186 184//184 
f 183//183 184//184 182//182 
f 181//181 182//182 179//179 
