# OBJ generated by ONSHAPE BY PTC INC, 1.221 Units = meters
mtllib Part_1_1.mtl
g Part 1
usemtl 0.917647_0.917647_0.917647_0.000000_0.000000
o mesh12
v 0.417805 -0.367178 0.0505643 
v 0.420177 -0.3677 0.050513 
v 0.420009 -0.368198 0.0505159 
v 0.419739 -0.368649 0.0505211 
v 0.419377 -0.36903 0.0505283 
v 0.418942 -0.369325 0.0505372 
v 0.418454 -0.369519 0.0505473 
v 0.417936 -0.369604 0.0505582 
v 0.417411 -0.369576 0.0505695 
v 0.416905 -0.369435 0.0505805 
v 0.416441 -0.369189 0.0505907 
v 0.416041 -0.368849 0.0505997 
v 0.415723 -0.368431 0.050607 
v 0.415502 -0.367954 0.0506124 
v 0.415389 -0.367441 0.0506155 
v 0.415389 -0.366915 0.0506162 
v 0.415502 -0.366402 0.0506145 
v 0.415723 -0.365925 0.0506104 
v 0.416041 -0.365507 0.0506042 
v 0.416441 -0.365167 0.0505961 
v 0.416905 -0.364921 0.0505865 
v 0.417412 -0.36478 0.0505759 
v 0.417936 -0.364752 0.0505648 
v 0.418455 -0.364837 0.0505536 
v 0.418943 -0.365031 0.0505429 
v 0.419377 -0.365326 0.0505333 
v 0.419739 -0.365707 0.050525 
v 0.420009 -0.366158 0.0505186 
v 0.420177 -0.366656 0.0505144 
v 0.420234 -0.367178 0.0505125 
vn -0.0213263 0.00134465 -0.999772 
vn -0.0213263 0.00134465 -0.999772 
vn -0.0213263 0.00134465 -0.999772 
vn -0.0213263 0.00134465 -0.999772 
vn -0.0213263 0.00134465 -0.999772 
vn -0.0213263 0.00134465 -0.999772 
vn -0.0213263 0.00134465 -0.999772 
vn -0.0213263 0.00134465 -0.999772 
vn -0.0213263 0.00134465 -0.999772 
vn -0.0213263 0.00134465 -0.999772 
vn -0.0213263 0.00134465 -0.999772 
vn -0.0213263 0.00134465 -0.999772 
vn -0.0213263 0.00134465 -0.999772 
vn -0.0213263 0.00134465 -0.999772 
vn -0.0213263 0.00134465 -0.999772 
vn -0.0213263 0.00134465 -0.999772 
vn -0.0213263 0.00134465 -0.999772 
vn -0.0213263 0.00134465 -0.999772 
vn -0.0213263 0.00134465 -0.999772 
vn -0.0213263 0.00134465 -0.999772 
vn -0.0213263 0.00134465 -0.999772 
vn -0.0213263 0.00134465 -0.999772 
vn -0.0213263 0.00134465 -0.999772 
vn -0.0213263 0.00134465 -0.999772 
vn -0.0213263 0.00134465 -0.999772 
vn -0.0213263 0.00134465 -0.999772 
vn -0.0213263 0.00134465 -0.999772 
vn -0.0213263 0.00134465 -0.999772 
vn -0.0213263 0.00134465 -0.999772 
vn -0.0213263 0.00134465 -0.999772 
f 1//1 2//2 3//3 
f 3//3 4//4 1//1 
f 4//4 5//5 1//1 
f 5//5 6//6 1//1 
f 6//6 7//7 1//1 
f 7//7 8//8 1//1 
f 8//8 9//9 1//1 
f 9//9 10//10 1//1 
f 10//10 11//11 1//1 
f 11//11 12//12 1//1 
f 12//12 13//13 1//1 
f 13//13 14//14 1//1 
f 14//14 15//15 1//1 
f 15//15 16//16 1//1 
f 16//16 17//17 1//1 
f 17//17 18//18 1//1 
f 18//18 19//19 1//1 
f 19//19 20//20 1//1 
f 20//20 21//21 1//1 
f 21//21 22//22 1//1 
f 22//22 23//23 1//1 
f 23//23 24//24 1//1 
f 24//24 25//25 1//1 
f 25//25 26//26 1//1 
f 26//26 27//27 1//1 
f 27//27 28//28 1//1 
f 28//28 29//29 1//1 
f 29//29 30//30 1//1 
f 30//30 2//2 1//1 
o mesh13
v 0.420761 -0.367211 0.0752121 
v 0.420234 -0.367178 0.0505125 
v 0.420177 -0.366656 0.0505144 
v 0.420704 -0.366689 0.075214 
v 0.420009 -0.366158 0.0505186 
v 0.420536 -0.366191 0.0752182 
v 0.419739 -0.365707 0.050525 
v 0.420265 -0.365741 0.0752246 
v 0.419377 -0.365326 0.0505333 
v 0.419904 -0.365359 0.0752328 
v 0.418943 -0.365031 0.0505429 
v 0.419469 -0.365064 0.0752425 
v 0.418455 -0.364837 0.0505536 
v 0.418981 -0.36487 0.0752532 
v 0.417936 -0.364752 0.0505648 
v 0.418463 -0.364785 0.0752643 
v 0.417412 -0.36478 0.0505759 
v 0.417938 -0.364813 0.0752755 
v 0.416905 -0.364921 0.0505865 
v 0.417432 -0.364954 0.0752861 
v 0.416441 -0.365167 0.0505961 
v 0.416968 -0.3652 0.0752957 
v 0.416041 -0.365507 0.0506042 
v 0.416568 -0.36554 0.0753038 
v 0.415723 -0.365925 0.0506104 
v 0.41625 -0.365958 0.07531 
v 0.415502 -0.366402 0.0506145 
v 0.416029 -0.366435 0.075314 
v 0.415389 -0.366915 0.0506162 
v 0.415916 -0.366949 0.0753158 
v 0.415389 -0.367441 0.0506155 
v 0.415916 -0.367474 0.0753151 
v 0.415502 -0.367954 0.0506124 
v 0.416029 -0.367987 0.075312 
v 0.415723 -0.368431 0.050607 
v 0.41625 -0.368464 0.0753066 
v 0.416041 -0.368849 0.0505997 
v 0.416568 -0.368882 0.0752993 
v 0.416441 -0.369189 0.0505907 
v 0.416968 -0.369223 0.0752903 
v 0.416905 -0.369435 0.0505805 
v 0.417432 -0.369469 0.07528 
v 0.417411 -0.369576 0.0505695 
v 0.417938 -0.369609 0.0752691 
v 0.417936 -0.369604 0.0505582 
v 0.418463 -0.369638 0.0752578 
v 0.418454 -0.369519 0.0505473 
v 0.418981 -0.369553 0.0752469 
v 0.418942 -0.369325 0.0505372 
v 0.419469 -0.369358 0.0752367 
v 0.419377 -0.36903 0.0505283 
v 0.419904 -0.369063 0.0752279 
v 0.419739 -0.368649 0.0505211 
v 0.420265 -0.368682 0.0752207 
v 0.420009 -0.368198 0.0505159 
v 0.420536 -0.368232 0.0752155 
v 0.420177 -0.3677 0.050513 
v 0.420704 -0.367734 0.0752126 
vn 0.999773 3.81252e-20 -0.0213263 
vn 0.999773 3.81252e-20 -0.0213263 
vn 0.976405 0.21497 -0.0205388 
vn 0.976405 0.21497 -0.0205388 
vn 0.907381 0.419889 -0.0187908 
vn 0.907381 0.419889 -0.0187908 
vn 0.795929 0.605174 -0.0161642 
vn 0.795929 0.605174 -0.0161642 
vn 0.647261 0.762161 -0.0127818 
vn 0.647261 0.762161 -0.0127818 
vn 0.468327 0.883511 -0.00880169 
vn 0.468327 0.883511 -0.00880169 
vn 0.267495 0.963549 -0.00441005 
vn 0.267495 0.963549 -0.00441005 
vn 0.0541552 0.998533 0.000187791 
vn 0.0541552 0.998533 0.000187791 
vn -0.161717 0.986826 0.00477686 
vn -0.161717 0.986826 0.00477686 
vn -0.370027 0.928976 0.00914256 
vn -0.370027 0.928976 0.00914256 
vn -0.561036 0.827688 0.0130808 
vn -0.561036 0.827688 0.0130808 
vn -0.725811 0.687699 0.0164073 
vn -0.725811 0.687699 0.0164073 
vn -0.856648 0.515553 0.0189667 
vn -0.856648 0.515553 0.0189667 
vn -0.947428 0.319301 0.0206392 
vn -0.947428 0.319301 0.0206392 
vn -0.993909 0.108119 0.0213467 
vn -0.993909 0.108119 0.0213467 
vn -0.993915 -0.108119 0.021056 
vn -0.993915 -0.108119 0.021056 
vn -0.947447 -0.319301 0.0197807 
vn -0.947447 -0.319301 0.0197807 
vn -0.856677 -0.515553 0.0175805 
vn -0.856677 -0.515553 0.0175805 
vn -0.72585 -0.687699 0.0145583 
vn -0.72585 -0.687699 0.0145583 
vn -0.561083 -0.827688 0.0108554 
vn -0.561083 -0.827688 0.0108554 
vn -0.370081 -0.928976 0.00664483 
vn -0.370081 -0.928976 0.00664483 
vn -0.161774 -0.986826 0.00212358 
vn -0.161774 -0.986826 0.00212358 
vn 0.054098 -0.998533 -0.00249696 
vn 0.054098 -0.998533 -0.00249696 
vn 0.26744 -0.963549 -0.00700075 
vn 0.26744 -0.963549 -0.00700075 
vn 0.468277 -0.883511 -0.0111772 
vn 0.468277 -0.883511 -0.0111772 
vn 0.647217 -0.762161 -0.014831 
vn 0.647217 -0.762161 -0.014831 
vn 0.795895 -0.605174 -0.0177913 
vn 0.795895 -0.605174 -0.0177913 
vn 0.907357 -0.419889 -0.0199197 
vn 0.907357 -0.419889 -0.0199197 
vn 0.976392 -0.21497 -0.0211167 
vn 0.976392 -0.21497 -0.0211167 
f 31//31 32//32 33//33 
f 34//34 33//33 35//35 
f 36//36 35//35 37//37 
f 38//38 37//37 39//39 
f 40//40 39//39 41//41 
f 42//42 41//41 43//43 
f 44//44 43//43 45//45 
f 46//46 45//45 47//47 
f 48//48 47//47 49//49 
f 50//50 49//49 51//51 
f 52//52 51//51 53//53 
f 54//54 53//53 55//55 
f 56//56 55//55 57//57 
f 58//58 57//57 59//59 
f 60//60 59//59 61//61 
f 62//62 61//61 63//63 
f 64//64 63//63 65//65 
f 66//66 65//65 67//67 
f 68//68 67//67 69//69 
f 70//70 69//69 71//71 
f 72//72 71//71 73//73 
f 74//74 73//73 75//75 
f 76//76 75//75 77//77 
f 78//78 77//77 79//79 
f 80//80 79//79 81//81 
f 82//82 81//81 83//83 
f 84//84 83//83 85//85 
f 86//86 85//85 87//87 
f 88//88 87//87 32//32 
f 32//32 31//31 88//88 
f 87//87 88//88 86//86 
f 85//85 86//86 84//84 
f 83//83 84//84 82//82 
f 81//81 82//82 80//80 
f 79//79 80//80 78//78 
f 77//77 78//78 76//76 
f 75//75 76//76 74//74 
f 73//73 74//74 72//72 
f 71//71 72//72 70//70 
f 69//69 70//70 68//68 
f 67//67 68//68 66//66 
f 65//65 66//66 64//64 
f 63//63 64//64 62//62 
f 61//61 62//62 60//60 
f 59//59 60//60 58//58 
f 57//57 58//58 56//56 
f 55//55 56//56 54//54 
f 53//53 54//54 52//52 
f 51//51 52//52 50//50 
f 49//49 50//50 48//48 
f 47//47 48//48 46//46 
f 45//45 46//46 44//44 
f 43//43 44//44 42//42 
f 41//41 42//42 40//40 
f 39//39 40//40 38//38 
f 37//37 38//38 36//36 
f 35//35 36//36 34//34 
f 33//33 34//34 31//31 
o mesh14
v 0.418331 -0.367211 0.0752639 
v 0.420704 -0.366689 0.075214 
v 0.420536 -0.366191 0.0752182 
v 0.420265 -0.365741 0.0752246 
v 0.419904 -0.365359 0.0752328 
v 0.419469 -0.365064 0.0752425 
v 0.418981 -0.36487 0.0752532 
v 0.418463 -0.364785 0.0752643 
v 0.417938 -0.364813 0.0752755 
v 0.417432 -0.364954 0.0752861 
v 0.416968 -0.3652 0.0752957 
v 0.416568 -0.36554 0.0753038 
v 0.41625 -0.365958 0.07531 
v 0.416029 -0.366435 0.075314 
v 0.415916 -0.366949 0.0753158 
v 0.415916 -0.367474 0.0753151 
v 0.416029 -0.367987 0.075312 
v 0.41625 -0.368464 0.0753066 
v 0.416568 -0.368882 0.0752993 
v 0.416968 -0.369223 0.0752903 
v 0.417432 -0.369469 0.07528 
v 0.417938 -0.369609 0.0752691 
v 0.418463 -0.369638 0.0752578 
v 0.418981 -0.369553 0.0752469 
v 0.419469 -0.369358 0.0752367 
v 0.419904 -0.369063 0.0752279 
v 0.420265 -0.368682 0.0752207 
v 0.420536 -0.368232 0.0752155 
v 0.420704 -0.367734 0.0752126 
v 0.420761 -0.367211 0.0752121 
vn 0.0213263 -0.00134465 0.999772 
vn 0.0213263 -0.00134465 0.999772 
vn 0.0213263 -0.00134465 0.999772 
vn 0.0213263 -0.00134465 0.999772 
vn 0.0213263 -0.00134465 0.999772 
vn 0.0213263 -0.00134465 0.999772 
vn 0.0213263 -0.00134465 0.999772 
vn 0.0213263 -0.00134465 0.999772 
vn 0.0213263 -0.00134465 0.999772 
vn 0.0213263 -0.00134465 0.999772 
vn 0.0213263 -0.00134465 0.999772 
vn 0.0213263 -0.00134465 0.999772 
vn 0.0213263 -0.00134465 0.999772 
vn 0.0213263 -0.00134465 0.999772 
vn 0.0213263 -0.00134465 0.999772 
vn 0.0213263 -0.00134465 0.999772 
vn 0.0213263 -0.00134465 0.999772 
vn 0.0213263 -0.00134465 0.999772 
vn 0.0213263 -0.00134465 0.999772 
vn 0.0213263 -0.00134465 0.999772 
vn 0.0213263 -0.00134465 0.999772 
vn 0.0213263 -0.00134465 0.999772 
vn 0.0213263 -0.00134465 0.999772 
vn 0.0213263 -0.00134465 0.999772 
vn 0.0213263 -0.00134465 0.999772 
vn 0.0213263 -0.00134465 0.999772 
vn 0.0213263 -0.00134465 0.999772 
vn 0.0213263 -0.00134465 0.999772 
vn 0.0213263 -0.00134465 0.999772 
vn 0.0213263 -0.00134465 0.999772 
f 89//89 90//90 91//91 
f 91//91 92//92 89//89 
f 92//92 93//93 89//89 
f 93//93 94//94 89//89 
f 94//94 95//95 89//89 
f 95//95 96//96 89//89 
f 96//96 97//97 89//89 
f 97//97 98//98 89//89 
f 98//98 99//99 89//89 
f 99//99 100//100 89//89 
f 100//100 101//101 89//89 
f 101//101 102//102 89//89 
f 102//102 103//103 89//89 
f 103//103 104//104 89//89 
f 104//104 105//105 89//89 
f 105//105 106//106 89//89 
f 106//106 107//107 89//89 
f 107//107 108//108 89//89 
f 108//108 109//109 89//89 
f 109//109 110//110 89//89 
f 110//110 111//111 89//89 
f 111//111 112//112 89//89 
f 112//112 113//113 89//89 
f 113//113 114//114 89//89 
f 114//114 115//115 89//89 
f 115//115 116//116 89//89 
f 116//116 117//117 89//89 
f 117//117 118//118 89//89 
f 118//118 90//90 89//89 
