# OBJ generated by ONSHAPE BY PTC INC, 1.221 Units = meters
mtllib Part_1_19.mtl
g Part 1
usemtl 0.615686_0.811765_0.929412_0.000000_0.000000
o mesh4417
v -4.33681e-19 -1.0842e-18 0.0776 
v 0.00492404 0.000868241 0.0776 
v 0.0046194 0.00191342 0.0776 
v 0.00409576 0.00286788 0.0776 
v 0.00337795 0.00368639 0.0776 
v 0.0025 0.00433013 0.0776 
v 0.00191342 0.0046194 0.0776 
v 0.0012941 0.00482963 0.0776 
v 0.000652631 0.00495722 0.0776 
v -7.39843e-19 0.005 0.0776 
v -0.000652631 0.00495722 0.0776 
v -0.0012941 0.00482963 0.0776 
v -0.00191342 0.0046194 0.0776 
v -0.0025 0.00433013 0.0776 
v -0.00337795 0.00368639 0.0776 
v -0.00409576 0.00286788 0.0776 
v -0.0046194 0.00191342 0.0776 
v -0.00492404 0.000868241 0.0776 
v -0.005 -1.0842e-18 0.0776 
v -0.00499524 -0.000218097 0.0776 
v -0.00482963 -0.0012941 0.0776 
v -0.00443505 -0.00230874 0.0776 
v -0.00383022 -0.00321394 0.0776 
v -0.00304381 -0.00396677 0.0776 
v -0.00211309 -0.00453154 0.0776 
v -0.0010822 -0.00488148 0.0776 
v 4.84804e-19 -0.005 0.0776 
v 0.0010822 -0.00488148 0.0776 
v 0.00211309 -0.00453154 0.0776 
v 0.00304381 -0.00396677 0.0776 
v 0.00383022 -0.00321394 0.0776 
v 0.00443505 -0.00230874 0.0776 
v 0.00482963 -0.0012941 0.0776 
v 0.00499524 -0.000218097 0.0776 
v 0.005 7.52768e-19 0.0776 
vn 0 0 1 
vn 0 0 1 
vn 0 0 1 
vn 0 0 1 
vn 0 0 1 
vn 0 0 1 
vn 0 0 1 
vn 0 0 1 
vn 0 0 1 
vn 0 0 1 
vn 0 0 1 
vn 0 0 1 
vn 0 0 1 
vn 0 0 1 
vn 0 0 1 
vn 0 0 1 
vn 0 0 1 
vn 0 0 1 
vn 0 0 1 
vn 0 0 1 
vn 0 0 1 
vn 0 0 1 
vn 0 0 1 
vn 0 0 1 
vn 0 0 1 
vn 0 0 1 
vn 0 0 1 
vn 0 0 1 
vn 0 0 1 
vn 0 0 1 
vn 0 0 1 
vn 0 0 1 
vn 0 0 1 
vn 0 0 1 
vn 0 0 1 
f 1//1 2//2 3//3 
f 3//3 4//4 1//1 
f 4//4 5//5 1//1 
f 5//5 6//6 1//1 
f 6//6 7//7 1//1 
f 7//7 8//8 1//1 
f 8//8 9//9 1//1 
f 9//9 10//10 1//1 
f 10//10 11//11 1//1 
f 11//11 12//12 1//1 
f 12//12 13//13 1//1 
f 13//13 14//14 1//1 
f 14//14 15//15 1//1 
f 15//15 16//16 1//1 
f 16//16 17//17 1//1 
f 17//17 18//18 1//1 
f 18//18 19//19 1//1 
f 19//19 20//20 1//1 
f 20//20 21//21 1//1 
f 21//21 22//22 1//1 
f 22//22 23//23 1//1 
f 23//23 24//24 1//1 
f 24//24 25//25 1//1 
f 25//25 26//26 1//1 
f 26//26 27//27 1//1 
f 27//27 28//28 1//1 
f 28//28 29//29 1//1 
f 29//29 30//30 1//1 
f 30//30 31//31 1//1 
f 31//31 32//32 1//1 
f 32//32 33//33 1//1 
f 33//33 34//34 1//1 
f 34//34 35//35 1//1 
f 35//35 2//2 1//1 
o mesh4418
v -0.006 -2.55378e-18 0.0766 
v -0.005 -1.0842e-18 0.0776 
v -0.00492404 0.000868241 0.0776 
v -0.00590885 0.00104189 0.0766 
v -0.0046194 0.00191342 0.0776 
v -0.00554328 0.0022961 0.0766 
v -0.00409576 0.00286788 0.0776 
v -0.00491491 0.00344146 0.0766 
v -0.00337795 0.00368639 0.0776 
v -0.00405354 0.00442366 0.0766 
v -0.0025 0.00433013 0.0776 
v 0.003 0.00519615 0.0766 
v 0.0025 0.00433013 0.0776 
v 0.00337795 0.00368639 0.0776 
v 0.00405354 0.00442366 0.0766 
v 0.00409576 0.00286788 0.0776 
v 0.00491491 0.00344146 0.0766 
v 0.0046194 0.00191342 0.0776 
v 0.00554328 0.0022961 0.0766 
v 0.00492404 0.000868241 0.0776 
v 0.00590885 0.00104189 0.0766 
v 0.005 7.52768e-19 0.0776 
v 0.00599429 -0.000261716 0.0766 
v 0.00499524 -0.000218097 0.0776 
v 0.00482963 -0.0012941 0.0776 
v 0.00579555 -0.00155291 0.0766 
v 0.00443505 -0.00230874 0.0776 
v 0.00532206 -0.00277049 0.0766 
v 0.00383022 -0.00321394 0.0776 
v 0.00459627 -0.00385673 0.0766 
v 0.00304381 -0.00396677 0.0776 
v 0.00365257 -0.00476012 0.0766 
v 0.00211309 -0.00453154 0.0776 
v 0.00253571 -0.00543785 0.0766 
v 0.0010822 -0.00488148 0.0776 
v 0.00129864 -0.00585778 0.0766 
v 4.84804e-19 -0.005 0.0776 
v 6.68501e-19 -0.006 0.0766 
v -0.0010822 -0.00488148 0.0776 
v -0.00129864 -0.00585778 0.0766 
v -0.00211309 -0.00453154 0.0776 
v -0.00253571 -0.00543785 0.0766 
v -0.00304381 -0.00396677 0.0776 
v -0.00365257 -0.00476012 0.0766 
v -0.00383022 -0.00321394 0.0776 
v -0.00459627 -0.00385673 0.0766 
v -0.00443505 -0.00230874 0.0776 
v -0.00532206 -0.00277049 0.0766 
v -0.00482963 -0.0012941 0.0776 
v -0.00579555 -0.00155291 0.0766 
v -0.00499524 -0.000218097 0.0776 
v -0.00599429 -0.000261716 0.0766 
v 0.0021798 0.00519615 0.0769166 
v 0.00191342 0.0046194 0.0776 
v 0.0013923 0.00519615 0.0772205 
v 0.0012941 0.00482963 0.0776 
v 0.000684086 0.00519615 0.077359 
v -2.15914e-18 0.00519615 0.0774038 
v -7.39843e-19 0.005 0.0776 
v -0.000684086 0.00519615 0.077359 
v -0.000652631 0.00495722 0.0776 
v -0.0012941 0.00482963 0.0776 
v -0.00191342 0.0046194 0.0776 
v -0.0013923 0.00519615 0.0772205 
v -0.0021798 0.00519615 0.0769166 
v -0.003 0.00519615 0.0766 
v 0.000652631 0.00495722 0.0776 
vn -0.707107 0 0.707107 
vn -0.707107 0 0.707107 
vn -0.696364 0.122788 0.707107 
vn -0.696364 0.122788 0.707107 
vn -0.653281 0.270598 0.707107 
vn -0.653281 0.270598 0.707107 
vn -0.579228 0.40558 0.707107 
vn -0.579228 0.40558 0.707107 
vn -0.477714 0.521334 0.707107 
vn -0.477714 0.521334 0.707107 
vn -0.353553 0.612372 0.707107 
vn 0.353553 0.612372 0.707107 
vn 0.353553 0.612372 0.707107 
vn 0.477714 0.521334 0.707107 
vn 0.477714 0.521334 0.707107 
vn 0.579228 0.40558 0.707107 
vn 0.579228 0.40558 0.707107 
vn 0.653281 0.270598 0.707107 
vn 0.653281 0.270598 0.707107 
vn 0.696364 0.122788 0.707107 
vn 0.696364 0.122788 0.707107 
vn 0.707107 2.59787e-16 0.707107 
vn 0.706434 -0.0308436 0.707107 
vn 0.706434 -0.0308436 0.707107 
vn 0.683013 -0.183013 0.707107 
vn 0.683013 -0.183013 0.707107 
vn 0.627211 -0.326506 0.707107 
vn 0.627211 -0.326506 0.707107 
vn 0.541675 -0.454519 0.707107 
vn 0.541675 -0.454519 0.707107 
vn 0.430459 -0.560986 0.707107 
vn 0.430459 -0.560986 0.707107 
vn 0.298836 -0.640856 0.707107 
vn 0.298836 -0.640856 0.707107 
vn 0.153046 -0.690346 0.707107 
vn 0.153046 -0.690346 0.707107 
vn 1.29893e-16 -0.707107 0.707107 
vn 1.29893e-16 -0.707107 0.707107 
vn -0.153046 -0.690346 0.707107 
vn -0.153046 -0.690346 0.707107 
vn -0.298836 -0.640856 0.707107 
vn -0.298836 -0.640856 0.707107 
vn -0.430459 -0.560986 0.707107 
vn -0.430459 -0.560986 0.707107 
vn -0.541675 -0.454519 0.707107 
vn -0.541675 -0.454519 0.707107 
vn -0.627211 -0.326506 0.707107 
vn -0.627211 -0.326506 0.707107 
vn -0.683013 -0.183013 0.707107 
vn -0.683013 -0.183013 0.707107 
vn -0.706434 -0.0308436 0.707107 
vn -0.706434 -0.0308436 0.707107 
vn 0.273539 0.652055 0.707107 
vn 0.270598 0.653281 0.707107 
vn 0.183013 0.683013 0.707107 
vn 0.183013 0.683013 0.707107 
vn 0.092296 0.701057 0.707107 
vn -2.00307e-16 0.707107 0.707107 
vn -2.00307e-16 0.707107 0.707107 
vn -0.092296 0.701057 0.707107 
vn -0.092296 0.701057 0.707107 
vn -0.183013 0.683013 0.707107 
vn -0.270598 0.653281 0.707107 
vn -0.183013 0.683013 0.707107 
vn -0.273539 0.652055 0.707107 
vn -0.353553 0.612372 0.707107 
vn 0.092296 0.701057 0.707107 
f 36//36 37//37 38//38 
f 39//39 38//38 40//40 
f 41//41 40//40 42//42 
f 43//43 42//42 44//44 
f 45//45 44//44 46//46 
f 47//47 48//48 49//49 
f 50//50 49//49 51//51 
f 52//52 51//51 53//53 
f 54//54 53//53 55//55 
f 56//56 55//55 57//57 
f 57//57 58//58 56//56 
f 58//58 59//59 60//60 
f 61//61 60//60 62//62 
f 63//63 62//62 64//64 
f 65//65 64//64 66//66 
f 67//67 66//66 68//68 
f 69//69 68//68 70//70 
f 71//71 70//70 72//72 
f 73//73 72//72 74//74 
f 75//75 74//74 76//76 
f 77//77 76//76 78//78 
f 79//79 78//78 80//80 
f 81//81 80//80 82//82 
f 83//83 82//82 84//84 
f 85//85 84//84 86//86 
f 87//87 86//86 37//37 
f 48//48 47//47 88//88 
f 89//89 88//88 90//90 
f 91//91 90//90 92//92 
f 92//92 93//93 94//94 
f 93//93 95//95 96//96 
f 97//97 96//96 95//95 
f 98//98 97//97 99//99 
f 46//46 98//98 100//100 
f 100//100 101//101 46//46 
f 99//99 100//100 98//98 
f 95//95 99//99 97//97 
f 96//96 94//94 93//93 
f 94//94 102//102 92//92 
f 92//92 102//102 91//91 
f 90//90 91//91 89//89 
f 88//88 89//89 48//48 
f 37//37 36//36 87//87 
f 86//86 87//87 85//85 
f 84//84 85//85 83//83 
f 82//82 83//83 81//81 
f 80//80 81//81 79//79 
f 78//78 79//79 77//77 
f 76//76 77//77 75//75 
f 74//74 75//75 73//73 
f 72//72 73//73 71//71 
f 70//70 71//71 69//69 
f 68//68 69//69 67//67 
f 66//66 67//67 65//65 
f 64//64 65//65 63//63 
f 62//62 63//63 61//61 
f 60//60 61//61 58//58 
f 57//57 59//59 58//58 
f 55//55 56//56 54//54 
f 53//53 54//54 52//52 
f 51//51 52//52 50//50 
f 49//49 50//50 47//47 
f 46//46 101//101 45//45 
f 44//44 45//45 43//43 
f 42//42 43//43 41//41 
f 40//40 41//41 39//39 
f 38//38 39//39 36//36 
o mesh4419
v 0.003 0.00519615 -0.009 
v 0.003 0.00519615 0.0766 
v 0.00405354 0.00442366 0.0766 
v 0.00405354 0.00442366 -0.009 
v 0.00491491 0.00344146 0.0766 
v 0.00491491 0.00344146 -0.009 
v 0.00554328 0.0022961 0.0766 
v 0.00554328 0.0022961 -0.009 
v 0.00590885 0.00104189 0.0766 
v 0.00599429 -0.000261716 0.0766 
v 0.00599429 -0.000261716 -0.009 
v 0.006 -2.55378e-18 -0.009 
v 0.00579555 -0.00155291 0.0766 
v 0.00579555 -0.00155291 -0.009 
v 0.00532206 -0.00277049 0.0766 
v 0.00532206 -0.00277049 -0.009 
v 0.00459627 -0.00385673 0.0766 
v 0.00459627 -0.00385673 -0.009 
v 0.00365257 -0.00476012 0.0766 
v 0.00365257 -0.00476012 -0.009 
v 0.00253571 -0.00543785 0.0766 
v 0.00253571 -0.00543785 -0.009 
v 0.00129864 -0.00585778 0.0766 
v 0.00129864 -0.00585778 -0.009 
v 6.68501e-19 -0.006 0.0766 
v -1.53586e-18 -0.006 -0.009 
v -0.00129864 -0.00585778 0.0766 
v -0.00129864 -0.00585778 -0.009 
v -0.00253571 -0.00543785 0.0766 
v -0.00253571 -0.00543785 -0.009 
v -0.00365257 -0.00476012 0.0766 
v -0.00365257 -0.00476012 -0.009 
v -0.00459627 -0.00385673 0.0766 
v -0.00459627 -0.00385673 -0.009 
v -0.00532206 -0.00277049 0.0766 
v -0.00532206 -0.00277049 -0.009 
v -0.00579555 -0.00155291 0.0766 
v -0.00579555 -0.00155291 -0.009 
v -0.00599429 -0.000261716 0.0766 
v -0.00599429 -0.000261716 -0.009 
v -0.006 -2.55378e-18 0.0766 
v -0.00590885 0.00104189 -0.009 
v -0.00590885 0.00104189 0.0766 
v -0.00554328 0.0022961 0.0766 
v -0.00554328 0.0022961 -0.009 
v -0.00491491 0.00344146 0.0766 
v -0.00491491 0.00344146 -0.009 
v -0.00405354 0.00442366 0.0766 
v -0.00405354 0.00442366 -0.009 
v -0.003 0.00519615 0.0766 
v -0.003 0.00519615 -0.009 
v 0.00590885 0.00104189 -0.009 
vn 0.5 0.866025 0 
vn 0.5 0.866025 0 
vn 0.67559 0.737277 0 
vn 0.67559 0.737277 0 
vn 0.819152 0.573576 0 
vn 0.819152 0.573576 0 
vn 0.92388 0.382683 0 
vn 0.92388 0.382683 0 
vn 0.984808 0.173648 0 
vn 0.999048 -0.0436194 0 
vn 0.999048 -0.0436194 0 
vn 1 1.22465e-16 0 
vn 0.965926 -0.258819 0 
vn 0.965926 -0.258819 0 
vn 0.887011 -0.461749 0 
vn 0.887011 -0.461749 0 
vn 0.766044 -0.642788 0 
vn 0.766044 -0.642788 0 
vn 0.608761 -0.793353 0 
vn 0.608761 -0.793353 0 
vn 0.422618 -0.906308 0 
vn 0.422618 -0.906308 0 
vn 0.21644 -0.976296 0 
vn 0.21644 -0.976296 0 
vn 1.83697e-16 -1 0 
vn 1.83697e-16 -1 0 
vn -0.21644 -0.976296 0 
vn -0.21644 -0.976296 0 
vn -0.422618 -0.906308 0 
vn -0.422618 -0.906308 0 
vn -0.608761 -0.793353 0 
vn -0.608761 -0.793353 0 
vn -0.766044 -0.642788 0 
vn -0.766044 -0.642788 0 
vn -0.887011 -0.461749 0 
vn -0.887011 -0.461749 0 
vn -0.965926 -0.258819 0 
vn -0.965926 -0.258819 0 
vn -0.999048 -0.0436194 0 
vn -0.999048 -0.0436194 0 
vn -1 0 0 
vn -0.984808 0.173648 0 
vn -0.984808 0.173648 0 
vn -0.92388 0.382683 0 
vn -0.92388 0.382683 0 
vn -0.819152 0.573576 0 
vn -0.819152 0.573576 0 
vn -0.67559 0.737277 0 
vn -0.67559 0.737277 0 
vn -0.5 0.866025 0 
vn -0.5 0.866025 0 
vn 0.984808 0.173648 0 
f 103//103 104//104 105//105 
f 106//106 105//105 107//107 
f 108//108 107//107 109//109 
f 110//110 109//109 111//111 
f 112//112 113//113 114//114 
f 114//114 111//111 112//112 
f 113//113 112//112 115//115 
f 116//116 115//115 117//117 
f 118//118 117//117 119//119 
f 120//120 119//119 121//121 
f 122//122 121//121 123//123 
f 124//124 123//123 125//125 
f 126//126 125//125 127//127 
f 128//128 127//127 129//129 
f 130//130 129//129 131//131 
f 132//132 131//131 133//133 
f 134//134 133//133 135//135 
f 136//136 135//135 137//137 
f 138//138 137//137 139//139 
f 140//140 139//139 141//141 
f 142//142 141//141 143//143 
f 143//143 144//144 142//142 
f 144//144 145//145 146//146 
f 147//147 146//146 148//148 
f 149//149 148//148 150//150 
f 151//151 150//150 152//152 
f 152//152 153//153 151//151 
f 150//150 151//151 149//149 
f 148//148 149//149 147//147 
f 146//146 147//147 144//144 
f 143//143 145//145 144//144 
f 141//141 142//142 140//140 
f 139//139 140//140 138//138 
f 137//137 138//138 136//136 
f 135//135 136//136 134//134 
f 133//133 134//134 132//132 
f 131//131 132//132 130//130 
f 129//129 130//130 128//128 
f 127//127 128//128 126//126 
f 125//125 126//126 124//124 
f 123//123 124//124 122//122 
f 121//121 122//122 120//120 
f 119//119 120//120 118//118 
f 117//117 118//118 116//116 
f 115//115 116//116 113//113 
f 114//114 154//154 111//111 
f 111//111 154//154 110//110 
f 109//109 110//110 108//108 
f 107//107 108//108 106//106 
f 105//105 106//106 103//103 
o mesh4420
v 0.0021798 0.00519615 -0.00931659 
v 0.000684086 0.00519615 0.077359 
v 0.0013923 0.00519615 0.0772205 
v -0.000684086 0.00519615 0.077359 
v -2.15914e-18 0.00519615 0.0774038 
v -0.003 0.00519615 0.0766 
v 0.000684086 0.00519615 -0.00975901 
v -1.62559e-19 0.00519615 -0.00980385 
v 0.0013923 0.00519615 -0.00962055 
v -0.0021798 0.00519615 0.0769166 
v -0.0013923 0.00519615 0.0772205 
v -0.000684086 0.00519615 -0.00975901 
v -0.0013923 0.00519615 -0.00962055 
v 0.0021798 0.00519615 0.0769166 
v 0.003 0.00519615 0.0766 
v -0.0021798 0.00519615 -0.00931659 
v 0.003 0.00519615 -0.009 
v -0.003 0.00519615 -0.009 
vn -1.4456e-16 1 0 
vn -1.4456e-16 1 0 
vn -1.4456e-16 1 0 
vn -1.4456e-16 1 0 
vn -1.4456e-16 1 0 
vn -1.4456e-16 1 0 
vn -1.4456e-16 1 0 
vn -1.4456e-16 1 0 
vn -1.4456e-16 1 0 
vn -1.4456e-16 1 0 
vn -1.4456e-16 1 0 
vn -1.4456e-16 1 0 
vn -1.4456e-16 1 0 
vn -1.4456e-16 1 0 
vn -1.4456e-16 1 0 
vn -1.4456e-16 1 0 
vn -1.4456e-16 1 0 
vn -1.4456e-16 1 0 
f 155//155 156//156 157//157 
f 155//155 158//158 159//159 
f 160//160 161//161 162//162 
f 160//160 155//155 163//163 
f 159//159 156//156 155//155 
f 155//155 164//164 165//165 
f 160//160 166//166 167//167 
f 163//163 161//161 160//160 
f 165//165 158//158 155//155 
f 162//162 166//166 160//160 
f 155//155 168//168 169//169 
f 155//155 160//160 164//164 
f 167//167 170//170 160//160 
f 157//157 168//168 155//155 
f 169//169 171//171 155//155 
f 170//170 172//172 160//160 
o mesh4421
v 0.006 -2.55378e-18 -0.009 
v 0.005 -2.30885e-18 -0.01 
v 0.00492404 0.000868241 -0.01 
v 0.00590885 0.00104189 -0.009 
v 0.0046194 0.00191342 -0.01 
v 0.00554328 0.0022961 -0.009 
v 0.00409576 0.00286788 -0.01 
v 0.00491491 0.00344146 -0.009 
v 0.00337795 0.00368639 -0.01 
v 0.00405354 0.00442366 -0.009 
v 0.0025 0.00433013 -0.01 
v -0.003 0.00519615 -0.009 
v -0.0025 0.00433013 -0.01 
v -0.00337795 0.00368639 -0.01 
v -0.00405354 0.00442366 -0.009 
v -0.00409576 0.00286788 -0.01 
v -0.00491491 0.00344146 -0.009 
v -0.0046194 0.00191342 -0.01 
v -0.00554328 0.0022961 -0.009 
v -0.00492404 0.000868241 -0.01 
v -0.00590885 0.00104189 -0.009 
v -0.00499524 -0.000218097 -0.01 
v -0.00599429 -0.000261716 -0.009 
v -0.00482963 -0.0012941 -0.01 
v -0.00579555 -0.00155291 -0.009 
v -0.00443505 -0.00230874 -0.01 
v -0.00532206 -0.00277049 -0.009 
v -0.00383022 -0.00321394 -0.01 
v -0.00459627 -0.00385673 -0.009 
v -0.00304381 -0.00396677 -0.01 
v -0.00365257 -0.00476012 -0.009 
v -0.00211309 -0.00453154 -0.01 
v -0.00253571 -0.00543785 -0.009 
v -0.0010822 -0.00488148 -0.01 
v -0.00129864 -0.00585778 -0.009 
v -1.35217e-18 -0.005 -0.01 
v -1.53586e-18 -0.006 -0.009 
v 0.0010822 -0.00488148 -0.01 
v 0.00129864 -0.00585778 -0.009 
v 0.00211309 -0.00453154 -0.01 
v 0.00253571 -0.00543785 -0.009 
v 0.00304381 -0.00396677 -0.01 
v 0.00365257 -0.00476012 -0.009 
v 0.00383022 -0.00321394 -0.01 
v 0.00459627 -0.00385673 -0.009 
v 0.00443505 -0.00230874 -0.01 
v 0.00532206 -0.00277049 -0.009 
v 0.00482963 -0.0012941 -0.01 
v 0.00579555 -0.00155291 -0.009 
v 0.00499524 -0.000218097 -0.01 
v 0.00599429 -0.000261716 -0.009 
v -0.0021798 0.00519615 -0.00931659 
v -0.00191342 0.0046194 -0.01 
v -0.0013923 0.00519615 -0.00962055 
v -0.0012941 0.00482963 -0.01 
v -0.000684086 0.00519615 -0.00975901 
v -1.62559e-19 0.00519615 -0.00980385 
v -1.27519e-19 0.005 -0.01 
v -0.000652631 0.00495722 -0.01 
v 0.000684086 0.00519615 -0.00975901 
v 0.000652631 0.00495722 -0.01 
v 0.0012941 0.00482963 -0.01 
v 0.00191342 0.0046194 -0.01 
v 0.0013923 0.00519615 -0.00962055 
v 0.0021798 0.00519615 -0.00931659 
v 0.003 0.00519615 -0.009 
vn 0.707107 0 -0.707107 
vn 0.707107 0 -0.707107 
vn 0.696364 0.122788 -0.707107 
vn 0.696364 0.122788 -0.707107 
vn 0.653281 0.270598 -0.707107 
vn 0.653281 0.270598 -0.707107 
vn 0.579228 0.40558 -0.707107 
vn 0.579228 0.40558 -0.707107 
vn 0.477714 0.521334 -0.707107 
vn 0.477714 0.521334 -0.707107 
vn 0.353553 0.612372 -0.707107 
vn -0.353553 0.612372 -0.707107 
vn -0.353553 0.612372 -0.707107 
vn -0.477714 0.521334 -0.707107 
vn -0.477714 0.521334 -0.707107 
vn -0.579228 0.40558 -0.707107 
vn -0.579228 0.40558 -0.707107 
vn -0.653281 0.270598 -0.707107 
vn -0.653281 0.270598 -0.707107 
vn -0.696364 0.122788 -0.707107 
vn -0.696364 0.122788 -0.707107 
vn -0.706434 -0.0308436 -0.707107 
vn -0.706434 -0.0308436 -0.707107 
vn -0.683013 -0.183013 -0.707107 
vn -0.683013 -0.183013 -0.707107 
vn -0.627211 -0.326506 -0.707107 
vn -0.627211 -0.326506 -0.707107 
vn -0.541675 -0.454519 -0.707107 
vn -0.541675 -0.454519 -0.707107 
vn -0.430459 -0.560986 -0.707107 
vn -0.430459 -0.560986 -0.707107 
vn -0.298836 -0.640856 -0.707107 
vn -0.298836 -0.640856 -0.707107 
vn -0.153046 -0.690346 -0.707107 
vn -0.153046 -0.690346 -0.707107 
vn -1.29893e-16 -0.707107 -0.707107 
vn -1.29893e-16 -0.707107 -0.707107 
vn 0.153046 -0.690346 -0.707107 
vn 0.153046 -0.690346 -0.707107 
vn 0.298836 -0.640856 -0.707107 
vn 0.298836 -0.640856 -0.707107 
vn 0.430459 -0.560986 -0.707107 
vn 0.430459 -0.560986 -0.707107 
vn 0.541675 -0.454519 -0.707107 
vn 0.541675 -0.454519 -0.707107 
vn 0.627211 -0.326506 -0.707107 
vn 0.627211 -0.326506 -0.707107 
vn 0.683013 -0.183013 -0.707107 
vn 0.683013 -0.183013 -0.707107 
vn 0.706434 -0.0308436 -0.707107 
vn 0.706434 -0.0308436 -0.707107 
vn -0.273539 0.652055 -0.707107 
vn -0.270598 0.653281 -0.707107 
vn -0.183013 0.683013 -0.707107 
vn -0.183013 0.683013 -0.707107 
vn -0.092296 0.701057 -0.707107 
vn 4.32978e-17 0.707107 -0.707107 
vn 4.32978e-17 0.707107 -0.707107 
vn -0.092296 0.701057 -0.707107 
vn 0.092296 0.701057 -0.707107 
vn 0.092296 0.701057 -0.707107 
vn 0.183013 0.683013 -0.707107 
vn 0.270598 0.653281 -0.707107 
vn 0.183013 0.683013 -0.707107 
vn 0.273539 0.652055 -0.707107 
vn 0.353553 0.612372 -0.707107 
f 173//173 174//174 175//175 
f 176//176 175//175 177//177 
f 178//178 177//177 179//179 
f 180//180 179//179 181//181 
f 182//182 181//181 183//183 
f 184//184 185//185 186//186 
f 187//187 186//186 188//188 
f 189//189 188//188 190//190 
f 191//191 190//190 192//192 
f 193//193 192//192 194//194 
f 195//195 194//194 196//196 
f 197//197 196//196 198//198 
f 199//199 198//198 200//200 
f 201//201 200//200 202//202 
f 203//203 202//202 204//204 
f 205//205 204//204 206//206 
f 207//207 206//206 208//208 
f 209//209 208//208 210//210 
f 211//211 210//210 212//212 
f 213//213 212//212 214//214 
f 215//215 214//214 216//216 
f 217//217 216//216 218//218 
f 219//219 218//218 220//220 
f 221//221 220//220 222//222 
f 223//223 222//222 174//174 
f 185//185 184//184 224//224 
f 225//225 224//224 226//226 
f 227//227 226//226 228//228 
f 229//229 230//230 231//231 
f 229//229 232//232 233//233 
f 234//234 233//233 232//232 
f 235//235 234//234 236//236 
f 183//183 235//235 237//237 
f 237//237 238//238 183//183 
f 236//236 237//237 235//235 
f 232//232 236//236 234//234 
f 233//233 230//230 229//229 
f 231//231 228//228 229//229 
f 228//228 231//231 227//227 
f 226//226 227//227 225//225 
f 224//224 225//225 185//185 
f 174//174 173//173 223//223 
f 222//222 223//223 221//221 
f 220//220 221//221 219//219 
f 218//218 219//219 217//217 
f 216//216 217//217 215//215 
f 214//214 215//215 213//213 
f 212//212 213//213 211//211 
f 210//210 211//211 209//209 
f 208//208 209//209 207//207 
f 206//206 207//207 205//205 
f 204//204 205//205 203//203 
f 202//202 203//203 201//201 
f 200//200 201//201 199//199 
f 198//198 199//199 197//197 
f 196//196 197//197 195//195 
f 194//194 195//195 193//193 
f 192//192 193//193 191//191 
f 190//190 191//191 189//189 
f 188//188 189//189 187//187 
f 186//186 187//187 184//184 
f 183//183 238//238 182//182 
f 181//181 182//182 180//180 
f 179//179 180//180 178//178 
f 177//177 178//178 176//176 
f 175//175 176//176 173//173 
o mesh4422
v -4.33681e-19 -1.0842e-18 -0.01 
v 0.00499524 -0.000218097 -0.01 
v 0.00482963 -0.0012941 -0.01 
v 0.00443505 -0.00230874 -0.01 
v 0.00383022 -0.00321394 -0.01 
v 0.00304381 -0.00396677 -0.01 
v 0.00211309 -0.00453154 -0.01 
v 0.0010822 -0.00488148 -0.01 
v -1.35217e-18 -0.005 -0.01 
v -0.0010822 -0.00488148 -0.01 
v -0.00211309 -0.00453154 -0.01 
v -0.00304381 -0.00396677 -0.01 
v -0.00383022 -0.00321394 -0.01 
v -0.00443505 -0.00230874 -0.01 
v -0.00482963 -0.0012941 -0.01 
v -0.00499524 -0.000218097 -0.01 
v -0.00492404 0.000868241 -0.01 
v -0.0046194 0.00191342 -0.01 
v -0.00409576 0.00286788 -0.01 
v -0.00337795 0.00368639 -0.01 
v -0.0025 0.00433013 -0.01 
v -0.00191342 0.0046194 -0.01 
v -0.0012941 0.00482963 -0.01 
v -0.000652631 0.00495722 -0.01 
v -1.27519e-19 0.005 -0.01 
v 0.000652631 0.00495722 -0.01 
v 0.0012941 0.00482963 -0.01 
v 0.00191342 0.0046194 -0.01 
v 0.0025 0.00433013 -0.01 
v 0.00337795 0.00368639 -0.01 
v 0.00409576 0.00286788 -0.01 
v 0.0046194 0.00191342 -0.01 
v 0.00492404 0.000868241 -0.01 
v 0.005 -2.30885e-18 -0.01 
vn 0 0 -1 
vn 0 0 -1 
vn 0 0 -1 
vn 0 0 -1 
vn 0 0 -1 
vn 0 0 -1 
vn 0 0 -1 
vn 0 0 -1 
vn 0 0 -1 
vn 0 0 -1 
vn 0 0 -1 
vn 0 0 -1 
vn 0 0 -1 
vn 0 0 -1 
vn 0 0 -1 
vn 0 0 -1 
vn 0 0 -1 
vn 0 0 -1 
vn 0 0 -1 
vn 0 0 -1 
vn 0 0 -1 
vn 0 0 -1 
vn 0 0 -1 
vn 0 0 -1 
vn 0 0 -1 
vn 0 0 -1 
vn 0 0 -1 
vn 0 0 -1 
vn 0 0 -1 
vn 0 0 -1 
vn 0 0 -1 
vn 0 0 -1 
vn 0 0 -1 
vn 0 0 -1 
f 239//239 240//240 241//241 
f 241//241 242//242 239//239 
f 242//242 243//243 239//239 
f 243//243 244//244 239//239 
f 244//244 245//245 239//239 
f 245//245 246//246 239//239 
f 246//246 247//247 239//239 
f 247//247 248//248 239//239 
f 248//248 249//249 239//239 
f 249//249 250//250 239//239 
f 250//250 251//251 239//239 
f 251//251 252//252 239//239 
f 252//252 253//253 239//239 
f 253//253 254//254 239//239 
f 254//254 255//255 239//239 
f 255//255 256//256 239//239 
f 256//256 257//257 239//239 
f 257//257 258//258 239//239 
f 258//258 259//259 239//239 
f 259//259 260//260 239//239 
f 260//260 261//261 239//239 
f 261//261 262//262 239//239 
f 262//262 263//263 239//239 
f 263//263 264//264 239//239 
f 264//264 265//265 239//239 
f 265//265 266//266 239//239 
f 266//266 267//267 239//239 
f 267//267 268//268 239//239 
f 268//268 269//269 239//239 
f 269//269 270//270 239//239 
f 270//270 271//271 239//239 
f 271//271 272//272 239//239 
f 272//272 240//240 239//239 
