# OBJ generated by ONSHAPE BY PTC INC, 1.221 Units = meters
mtllib Part_1_13.mtl
g Part 1
usemtl 0.615686_0.811765_0.929412_0.000000_0.000000
o mesh3585
v 0.114321 -0.0246799 0.0248032 
v 0.114321 -0.0246799 0.0218032 
v 0.114076 -0.0224227 0.0218032 
v 0.114076 -0.0224227 0.0248032 
v 0.113351 -0.0202711 0.0218032 
v 0.113351 -0.0202711 0.0248032 
v 0.11218 -0.0183256 0.0218032 
v 0.11218 -0.0183256 0.0248032 
v 0.110619 -0.0166772 0.0218032 
v 0.110619 -0.0166772 0.0248032 
v 0.10874 -0.0154031 0.0218032 
v 0.10874 -0.0154031 0.0248032 
v 0.106631 -0.0145627 0.0218032 
v 0.106631 -0.0145627 0.0248032 
v 0.10439 -0.0141953 0.0218032 
v 0.10439 -0.0141953 0.0248032 
v 0.102123 -0.0143183 0.0218032 
v 0.102123 -0.0143183 0.0248032 
v 0.099935 -0.0149257 0.0218032 
v 0.099935 -0.0149257 0.0248032 
v 0.097929 -0.0159892 0.0218032 
v 0.097929 -0.0159892 0.0248032 
v 0.0961985 -0.0174591 0.0218032 
v 0.0961985 -0.0174591 0.0248032 
v 0.0948245 -0.0192666 0.0218032 
v 0.0948245 -0.0192666 0.0248032 
v 0.0938711 -0.0213273 0.0218032 
v 0.0938711 -0.0213273 0.0248032 
v 0.093383 -0.0235447 0.0218032 
v 0.093383 -0.0258152 0.0218032 
v 0.093383 -0.0258152 0.0248032 
v 0.0933215 -0.0246799 0.0248032 
v 0.093383 -0.0235447 0.0248032 
v 0.0933215 -0.0246799 0.0218032 
v 0.0938711 -0.0280326 0.0218032 
v 0.0938711 -0.0280326 0.0248032 
v 0.0948245 -0.0300933 0.0218032 
v 0.0948245 -0.0300933 0.0248032 
v 0.0961985 -0.0319008 0.0218032 
v 0.0961985 -0.0319008 0.0248032 
v 0.097929 -0.0333707 0.0218032 
v 0.097929 -0.0333707 0.0248032 
v 0.099935 -0.0344342 0.0218032 
v 0.099935 -0.0344342 0.0248032 
v 0.102123 -0.0350416 0.0218032 
v 0.102123 -0.0350416 0.0248032 
v 0.10439 -0.0351645 0.0218032 
v 0.10439 -0.0351645 0.0248032 
v 0.106631 -0.0347972 0.0218032 
v 0.106631 -0.0347972 0.0248032 
v 0.10874 -0.0339568 0.0218032 
v 0.10874 -0.0339568 0.0248032 
v 0.110619 -0.0326826 0.0218032 
v 0.110619 -0.0326826 0.0248032 
v 0.11218 -0.0310343 0.0218032 
v 0.11218 -0.0310343 0.0248032 
v 0.113351 -0.0290888 0.0218032 
v 0.113351 -0.0290888 0.0248032 
v 0.114076 -0.0269371 0.0218032 
v 0.114076 -0.0269371 0.0248032 
vn 1 0 0 
vn 1 0 0 
vn 0.976621 0.21497 0 
vn 0.976621 0.21497 0 
vn 0.907575 0.419889 0 
vn 0.907575 0.419889 0 
vn 0.796093 0.605174 0 
vn 0.796093 0.605174 0 
vn 0.647386 0.762162 0 
vn 0.647386 0.762162 0 
vn 0.468408 0.883512 0 
vn 0.468408 0.883512 0 
vn 0.267528 0.96355 0 
vn 0.267528 0.96355 0 
vn 0.0541389 0.998533 0 
vn 0.0541389 0.998533 0 
vn -0.161782 0.986827 0 
vn -0.161782 0.986827 0 
vn -0.370138 0.928977 0 
vn -0.370138 0.928977 0 
vn -0.561187 0.827689 0 
vn -0.561187 0.827689 0 
vn -0.725995 0.687699 0 
vn -0.725995 0.687699 0 
vn -0.856857 0.515554 0 
vn -0.856857 0.515554 0 
vn -0.947653 0.319302 0 
vn -0.947653 0.319302 0 
vn -0.994138 0.108119 0 
vn -0.994138 -0.108119 0 
vn -0.994138 -0.108119 0 
vn -1 1.22465e-16 0 
vn -0.994138 0.108119 0 
vn -1 1.22465e-16 0 
vn -0.947653 -0.319302 0 
vn -0.947653 -0.319302 0 
vn -0.856857 -0.515554 0 
vn -0.856857 -0.515554 0 
vn -0.725995 -0.687699 0 
vn -0.725995 -0.687699 0 
vn -0.561187 -0.827689 0 
vn -0.561187 -0.827689 0 
vn -0.370138 -0.928977 0 
vn -0.370138 -0.928977 0 
vn -0.161782 -0.986827 0 
vn -0.161782 -0.986827 0 
vn 0.0541389 -0.998533 0 
vn 0.0541389 -0.998533 0 
vn 0.267528 -0.96355 0 
vn 0.267528 -0.96355 0 
vn 0.468408 -0.883512 0 
vn 0.468408 -0.883512 0 
vn 0.647386 -0.762162 0 
vn 0.647386 -0.762162 0 
vn 0.796093 -0.605174 0 
vn 0.796093 -0.605174 0 
vn 0.907575 -0.419889 0 
vn 0.907575 -0.419889 0 
vn 0.976621 -0.21497 0 
vn 0.976621 -0.21497 0 
f 1//1 2//2 3//3 
f 4//4 3//3 5//5 
f 6//6 5//5 7//7 
f 8//8 7//7 9//9 
f 10//10 9//9 11//11 
f 12//12 11//11 13//13 
f 14//14 13//13 15//15 
f 16//16 15//15 17//17 
f 18//18 17//17 19//19 
f 20//20 19//19 21//21 
f 22//22 21//21 23//23 
f 24//24 23//23 25//25 
f 26//26 25//25 27//27 
f 28//28 27//27 29//29 
f 30//30 31//31 32//32 
f 33//33 29//29 34//34 
f 34//34 32//32 33//33 
f 31//31 30//30 35//35 
f 36//36 35//35 37//37 
f 38//38 37//37 39//39 
f 40//40 39//39 41//41 
f 42//42 41//41 43//43 
f 44//44 43//43 45//45 
f 46//46 45//45 47//47 
f 48//48 47//47 49//49 
f 50//50 49//49 51//51 
f 52//52 51//51 53//53 
f 54//54 53//53 55//55 
f 56//56 55//55 57//57 
f 58//58 57//57 59//59 
f 60//60 59//59 2//2 
f 2//2 1//1 60//60 
f 59//59 60//60 58//58 
f 57//57 58//58 56//56 
f 55//55 56//56 54//54 
f 53//53 54//54 52//52 
f 51//51 52//52 50//50 
f 49//49 50//50 48//48 
f 47//47 48//48 46//46 
f 45//45 46//46 44//44 
f 43//43 44//44 42//42 
f 41//41 42//42 40//40 
f 39//39 40//40 38//38 
f 37//37 38//38 36//36 
f 35//35 36//36 31//31 
f 32//32 34//34 30//30 
f 29//29 33//33 28//28 
f 27//27 28//28 26//26 
f 25//25 26//26 24//24 
f 23//23 24//24 22//22 
f 21//21 22//22 20//20 
f 19//19 20//20 18//18 
f 17//17 18//18 16//16 
f 15//15 16//16 14//14 
f 13//13 14//14 12//12 
f 11//11 12//12 10//10 
f 9//9 10//10 8//8 
f 7//7 8//8 6//6 
f 5//5 6//6 4//4 
f 3//3 4//4 1//1 
o mesh3586
v 0.102123 -0.0143183 0.0218032 
v 0.103174 -0.0207326 0.0218032 
v 0.102341 -0.020964 0.0218032 
v 0.10439 -0.0141953 0.0218032 
v 0.104038 -0.0206858 0.0218032 
v 0.099935 -0.0149257 0.0218032 
v 0.101577 -0.0213692 0.0218032 
v 0.106631 -0.0145627 0.0218032 
v 0.104892 -0.0208257 0.0218032 
v 0.10874 -0.0154031 0.0218032 
v 0.105695 -0.0211459 0.0218032 
v 0.110619 -0.0166772 0.0218032 
v 0.11218 -0.0183256 0.0218032 
v 0.107006 -0.0222592 0.0218032 
v 0.113351 -0.0202711 0.0218032 
v 0.107452 -0.0230004 0.0218032 
v 0.0961985 -0.0174591 0.0218032 
v 0.100917 -0.0219291 0.0218032 
v 0.100394 -0.0226177 0.0218032 
v 0.097929 -0.0159892 0.0218032 
v 0.106411 -0.0216313 0.0218032 
v 0.11218 -0.0310343 0.0218032 
v 0.107006 -0.0271006 0.0218032 
v 0.107452 -0.0263595 0.0218032 
v 0.110619 -0.0326826 0.0218032 
v 0.106411 -0.0277286 0.0218032 
v 0.106631 -0.0347972 0.0218032 
v 0.104892 -0.0285341 0.0218032 
v 0.105695 -0.028214 0.0218032 
v 0.10439 -0.0351645 0.0218032 
v 0.104038 -0.0286741 0.0218032 
v 0.102123 -0.0350416 0.0218032 
v 0.103174 -0.0286272 0.0218032 
v 0.099935 -0.0344342 0.0218032 
v 0.102341 -0.0283958 0.0218032 
v 0.0961985 -0.0319008 0.0218032 
v 0.100917 -0.0274307 0.0218032 
v 0.101577 -0.0279907 0.0218032 
v 0.0948245 -0.0300933 0.0218032 
v 0.100394 -0.0267422 0.0218032 
v 0.0948245 -0.0192666 0.0218032 
v 0.100031 -0.0234027 0.0218032 
v 0.114076 -0.0224227 0.0218032 
v 0.107728 -0.0238201 0.0218032 
v 0.114321 -0.0246799 0.0218032 
v 0.107821 -0.0246799 0.0218032 
v 0.114076 -0.0269371 0.0218032 
v 0.107728 -0.0255398 0.0218032 
v 0.113351 -0.0290888 0.0218032 
v 0.10874 -0.0339568 0.0218032 
v 0.097929 -0.0333707 0.0218032 
v 0.0938711 -0.0280326 0.0218032 
v 0.100031 -0.0259571 0.0218032 
v 0.093383 -0.0235447 0.0218032 
v 0.0998449 -0.0242475 0.0218032 
v 0.0998215 -0.0246799 0.0218032 
v 0.0938711 -0.0213273 0.0218032 
v 0.093383 -0.0258152 0.0218032 
v 0.0998449 -0.0251124 0.0218032 
v 0.0933215 -0.0246799 0.0218032 
vn 0 0 -1 
vn 0 0 -1 
vn 0 0 -1 
vn 0 0 -1 
vn 0 0 -1 
vn 0 0 -1 
vn 0 0 -1 
vn 0 0 -1 
vn 0 0 -1 
vn 0 0 -1 
vn 0 0 -1 
vn 0 0 -1 
vn 0 0 -1 
vn 0 0 -1 
vn 0 0 -1 
vn 0 0 -1 
vn 0 0 -1 
vn 0 0 -1 
vn 0 0 -1 
vn 0 0 -1 
vn 0 0 -1 
vn 0 0 -1 
vn 0 0 -1 
vn 0 0 -1 
vn 0 0 -1 
vn 0 0 -1 
vn 0 0 -1 
vn 0 0 -1 
vn 0 0 -1 
vn 0 0 -1 
vn 0 0 -1 
vn 0 0 -1 
vn 0 0 -1 
vn 0 0 -1 
vn 0 0 -1 
vn 0 0 -1 
vn 0 0 -1 
vn 0 0 -1 
vn 0 0 -1 
vn 0 0 -1 
vn 0 0 -1 
vn 0 0 -1 
vn 0 0 -1 
vn 0 0 -1 
vn 0 0 -1 
vn 0 0 -1 
vn 0 0 -1 
vn 0 0 -1 
vn 0 0 -1 
vn 0 0 -1 
vn 0 0 -1 
vn 0 0 -1 
vn 0 0 -1 
vn 0 0 -1 
vn 0 0 -1 
vn 0 0 -1 
vn 0 0 -1 
vn 0 0 -1 
vn 0 0 -1 
vn 0 0 -1 
f 61//61 62//62 63//63 
f 64//64 65//65 62//62 
f 66//66 63//63 67//67 
f 62//62 61//61 64//64 
f 68//68 69//69 65//65 
f 68//68 70//70 71//71 
f 72//72 73//73 74//74 
f 73//73 75//75 76//76 
f 77//77 78//78 79//79 
f 77//77 80//80 67//67 
f 63//63 66//66 61//61 
f 71//71 69//69 68//68 
f 72//72 81//81 71//71 
f 76//76 74//74 73//73 
f 82//82 83//83 84//84 
f 85//85 86//86 83//83 
f 87//87 88//88 89//89 
f 87//87 90//90 91//91 
f 90//90 92//92 93//93 
f 92//92 94//94 95//95 
f 96//96 97//97 98//98 
f 96//96 99//99 100//100 
f 101//101 79//79 102//102 
f 67//67 78//78 77//77 
f 65//65 64//64 68//68 
f 74//74 81//81 72//72 
f 103//103 104//104 76//76 
f 103//103 105//105 106//106 
f 107//107 108//108 106//106 
f 107//107 109//109 84//84 
f 83//83 82//82 85//85 
f 85//85 110//110 89//89 
f 91//91 88//88 87//87 
f 95//95 93//93 92//92 
f 111//111 98//98 95//95 
f 100//100 97//97 96//96 
f 79//79 101//101 77//77 
f 71//71 70//70 72//72 
f 106//106 104//104 103//103 
f 84//84 108//108 107//107 
f 89//89 86//86 85//85 
f 93//93 91//91 90//90 
f 98//98 111//111 96//96 
f 99//99 112//112 113//113 
f 114//114 115//115 116//116 
f 114//114 117//117 102//102 
f 67//67 80//80 66//66 
f 106//106 105//105 107//107 
f 89//89 110//110 87//87 
f 113//113 100//100 99//99 
f 118//118 119//119 113//113 
f 118//118 120//120 116//116 
f 102//102 115//115 114//114 
f 76//76 75//75 103//103 
f 95//95 94//94 111//111 
f 116//116 119//119 118//118 
f 102//102 117//117 101//101 
f 113//113 112//112 118//118 
f 84//84 109//109 82//82 
f 116//116 120//120 114//114 
o mesh3587
v 0.107728 -0.0255398 0.0248032 
v 0.107821 -0.0246799 0.0248032 
v 0.107821 -0.0246799 0.0218032 
v 0.107452 -0.0263595 0.0248032 
v 0.107728 -0.0255398 0.0218032 
v 0.107006 -0.0271006 0.0248032 
v 0.107452 -0.0263595 0.0218032 
v 0.106411 -0.0277286 0.0248032 
v 0.107006 -0.0271006 0.0218032 
v 0.105695 -0.028214 0.0248032 
v 0.106411 -0.0277286 0.0218032 
v 0.104892 -0.0285341 0.0248032 
v 0.105695 -0.028214 0.0218032 
v 0.104038 -0.0286741 0.0248032 
v 0.104892 -0.0285341 0.0218032 
v 0.103174 -0.0286272 0.0248032 
v 0.104038 -0.0286741 0.0218032 
v 0.102341 -0.0283958 0.0248032 
v 0.103174 -0.0286272 0.0218032 
v 0.101577 -0.0279907 0.0248032 
v 0.102341 -0.0283958 0.0218032 
v 0.100917 -0.0274307 0.0248032 
v 0.101577 -0.0279907 0.0218032 
v 0.100394 -0.0267422 0.0248032 
v 0.100917 -0.0274307 0.0218032 
v 0.100031 -0.0259571 0.0248032 
v 0.100394 -0.0267422 0.0218032 
v 0.0998449 -0.0251124 0.0248032 
v 0.100031 -0.0259571 0.0218032 
v 0.0998449 -0.0242475 0.0248032 
v 0.0998215 -0.0246799 0.0248032 
v 0.0998215 -0.0246799 0.0218032 
v 0.0998449 -0.0251124 0.0218032 
v 0.100031 -0.0234027 0.0248032 
v 0.0998449 -0.0242475 0.0218032 
v 0.100394 -0.0226177 0.0248032 
v 0.100031 -0.0234027 0.0218032 
v 0.100917 -0.0219291 0.0248032 
v 0.100394 -0.0226177 0.0218032 
v 0.101577 -0.0213692 0.0248032 
v 0.100917 -0.0219291 0.0218032 
v 0.102341 -0.020964 0.0248032 
v 0.101577 -0.0213692 0.0218032 
v 0.103174 -0.0207326 0.0248032 
v 0.102341 -0.020964 0.0218032 
v 0.104038 -0.0206858 0.0248032 
v 0.103174 -0.0207326 0.0218032 
v 0.104892 -0.0208257 0.0248032 
v 0.104038 -0.0206858 0.0218032 
v 0.105695 -0.0211459 0.0248032 
v 0.104892 -0.0208257 0.0218032 
v 0.106411 -0.0216313 0.0248032 
v 0.105695 -0.0211459 0.0218032 
v 0.107006 -0.0222592 0.0248032 
v 0.106411 -0.0216313 0.0218032 
v 0.107452 -0.0230004 0.0248032 
v 0.107006 -0.0222592 0.0218032 
v 0.107728 -0.0238201 0.0248032 
v 0.107452 -0.0230004 0.0218032 
v 0.107728 -0.0238201 0.0218032 
vn -0.976621 0.21497 0 
vn -1 2.44929e-16 0 
vn -1 2.44929e-16 0 
vn -0.907575 0.419889 0 
vn -0.976621 0.21497 0 
vn -0.796093 0.605174 0 
vn -0.907575 0.419889 0 
vn -0.647386 0.762162 0 
vn -0.796093 0.605174 0 
vn -0.468408 0.883512 0 
vn -0.647386 0.762162 0 
vn -0.267528 0.96355 0 
vn -0.468408 0.883512 0 
vn -0.0541389 0.998533 0 
vn -0.267528 0.96355 0 
vn 0.161782 0.986827 0 
vn -0.0541389 0.998533 0 
vn 0.370138 0.928977 0 
vn 0.161782 0.986827 0 
vn 0.561187 0.827689 0 
vn 0.370138 0.928977 0 
vn 0.725995 0.687699 0 
vn 0.561187 0.827689 0 
vn 0.856857 0.515554 0 
vn 0.725995 0.687699 0 
vn 0.947653 0.319302 0 
vn 0.856857 0.515554 0 
vn 0.994138 0.108119 0 
vn 0.947653 0.319302 0 
vn 0.994138 -0.108119 0 
vn 1 -3.67394e-16 0 
vn 1 -3.67394e-16 0 
vn 0.994138 0.108119 0 
vn 0.947653 -0.319302 0 
vn 0.994138 -0.108119 0 
vn 0.856857 -0.515554 0 
vn 0.947653 -0.319302 0 
vn 0.725995 -0.687699 0 
vn 0.856857 -0.515554 0 
vn 0.561187 -0.827689 0 
vn 0.725995 -0.687699 0 
vn 0.370138 -0.928977 0 
vn 0.561187 -0.827689 0 
vn 0.161782 -0.986827 0 
vn 0.370138 -0.928977 0 
vn -0.0541389 -0.998533 0 
vn 0.161782 -0.986827 0 
vn -0.267528 -0.96355 0 
vn -0.0541389 -0.998533 0 
vn -0.468408 -0.883512 0 
vn -0.267528 -0.96355 0 
vn -0.647386 -0.762162 0 
vn -0.468408 -0.883512 0 
vn -0.796093 -0.605174 0 
vn -0.647386 -0.762162 0 
vn -0.907575 -0.419889 0 
vn -0.796093 -0.605174 0 
vn -0.976621 -0.21497 0 
vn -0.907575 -0.419889 0 
vn -0.976621 -0.21497 0 
f 121//121 122//122 123//123 
f 124//124 121//121 125//125 
f 126//126 124//124 127//127 
f 128//128 126//126 129//129 
f 130//130 128//128 131//131 
f 132//132 130//130 133//133 
f 134//134 132//132 135//135 
f 136//136 134//134 137//137 
f 138//138 136//136 139//139 
f 140//140 138//138 141//141 
f 142//142 140//140 143//143 
f 144//144 142//142 145//145 
f 146//146 144//144 147//147 
f 148//148 146//146 149//149 
f 150//150 151//151 152//152 
f 153//153 152//152 151//151 
f 151//151 148//148 153//153 
f 154//154 150//150 155//155 
f 156//156 154//154 157//157 
f 158//158 156//156 159//159 
f 160//160 158//158 161//161 
f 162//162 160//160 163//163 
f 164//164 162//162 165//165 
f 166//166 164//164 167//167 
f 168//168 166//166 169//169 
f 170//170 168//168 171//171 
f 172//172 170//170 173//173 
f 174//174 172//172 175//175 
f 176//176 174//174 177//177 
f 178//178 176//176 179//179 
f 122//122 178//178 180//180 
f 180//180 123//123 122//122 
f 179//179 180//180 178//178 
f 177//177 179//179 176//176 
f 175//175 177//177 174//174 
f 173//173 175//175 172//172 
f 171//171 173//173 170//170 
f 169//169 171//171 168//168 
f 167//167 169//169 166//166 
f 165//165 167//167 164//164 
f 163//163 165//165 162//162 
f 161//161 163//163 160//160 
f 159//159 161//161 158//158 
f 157//157 159//159 156//156 
f 155//155 157//157 154//154 
f 152//152 155//155 150//150 
f 149//149 153//153 148//148 
f 147//147 149//149 146//146 
f 145//145 147//147 144//144 
f 143//143 145//145 142//142 
f 141//141 143//143 140//140 
f 139//139 141//141 138//138 
f 137//137 139//139 136//136 
f 135//135 137//137 134//134 
f 133//133 135//135 132//132 
f 131//131 133//133 130//130 
f 129//129 131//131 128//128 
f 127//127 129//129 126//126 
f 125//125 127//127 124//124 
f 123//123 125//125 121//121 
o mesh3588
v 0.10439 -0.0141953 0.0248032 
v 0.102123 -0.0143183 0.0248032 
v 0.103174 -0.0207326 0.0248032 
v 0.099935 -0.0149257 0.0248032 
v 0.102341 -0.020964 0.0248032 
v 0.0961985 -0.0319008 0.0248032 
v 0.100917 -0.0274307 0.0248032 
v 0.100394 -0.0267422 0.0248032 
v 0.097929 -0.0333707 0.0248032 
v 0.101577 -0.0279907 0.0248032 
v 0.11218 -0.0183256 0.0248032 
v 0.107006 -0.0222592 0.0248032 
v 0.107452 -0.0230004 0.0248032 
v 0.110619 -0.0166772 0.0248032 
v 0.106411 -0.0216313 0.0248032 
v 0.106631 -0.0145627 0.0248032 
v 0.104892 -0.0208257 0.0248032 
v 0.105695 -0.0211459 0.0248032 
v 0.104038 -0.0206858 0.0248032 
v 0.097929 -0.0159892 0.0248032 
v 0.101577 -0.0213692 0.0248032 
v 0.0948245 -0.0300933 0.0248032 
v 0.100031 -0.0259571 0.0248032 
v 0.102123 -0.0350416 0.0248032 
v 0.103174 -0.0286272 0.0248032 
v 0.102341 -0.0283958 0.0248032 
v 0.10439 -0.0351645 0.0248032 
v 0.104038 -0.0286741 0.0248032 
v 0.106631 -0.0347972 0.0248032 
v 0.104892 -0.0285341 0.0248032 
v 0.10874 -0.0339568 0.0248032 
v 0.105695 -0.028214 0.0248032 
v 0.10874 -0.0154031 0.0248032 
v 0.0961985 -0.0174591 0.0248032 
v 0.100917 -0.0219291 0.0248032 
v 0.0948245 -0.0192666 0.0248032 
v 0.100394 -0.0226177 0.0248032 
v 0.093383 -0.0235447 0.0248032 
v 0.0933215 -0.0246799 0.0248032 
v 0.0998215 -0.0246799 0.0248032 
v 0.093383 -0.0258152 0.0248032 
v 0.0998449 -0.0251124 0.0248032 
v 0.099935 -0.0344342 0.0248032 
v 0.110619 -0.0326826 0.0248032 
v 0.11218 -0.0310343 0.0248032 
v 0.107006 -0.0271006 0.0248032 
v 0.113351 -0.0290888 0.0248032 
v 0.107452 -0.0263595 0.0248032 
v 0.0938711 -0.0213273 0.0248032 
v 0.100031 -0.0234027 0.0248032 
v 0.0998449 -0.0242475 0.0248032 
v 0.106411 -0.0277286 0.0248032 
v 0.114076 -0.0224227 0.0248032 
v 0.107728 -0.0238201 0.0248032 
v 0.107821 -0.0246799 0.0248032 
v 0.113351 -0.0202711 0.0248032 
v 0.0938711 -0.0280326 0.0248032 
v 0.114076 -0.0269371 0.0248032 
v 0.107728 -0.0255398 0.0248032 
v 0.114321 -0.0246799 0.0248032 
vn 0 0 1 
vn 0 0 1 
vn 0 0 1 
vn 0 0 1 
vn 0 0 1 
vn 0 0 1 
vn 0 0 1 
vn 0 0 1 
vn 0 0 1 
vn 0 0 1 
vn 0 0 1 
vn 0 0 1 
vn 0 0 1 
vn 0 0 1 
vn 0 0 1 
vn 0 0 1 
vn 0 0 1 
vn 0 0 1 
vn 0 0 1 
vn 0 0 1 
vn 0 0 1 
vn 0 0 1 
vn 0 0 1 
vn 0 0 1 
vn 0 0 1 
vn 0 0 1 
vn 0 0 1 
vn 0 0 1 
vn 0 0 1 
vn 0 0 1 
vn 0 0 1 
vn 0 0 1 
vn 0 0 1 
vn 0 0 1 
vn 0 0 1 
vn 0 0 1 
vn 0 0 1 
vn 0 0 1 
vn 0 0 1 
vn 0 0 1 
vn 0 0 1 
vn 0 0 1 
vn 0 0 1 
vn 0 0 1 
vn 0 0 1 
vn 0 0 1 
vn 0 0 1 
vn 0 0 1 
vn 0 0 1 
vn 0 0 1 
vn 0 0 1 
vn 0 0 1 
vn 0 0 1 
vn 0 0 1 
vn 0 0 1 
vn 0 0 1 
vn 0 0 1 
vn 0 0 1 
vn 0 0 1 
vn 0 0 1 
f 181//181 182//182 183//183 
f 182//182 184//184 185//185 
f 186//186 187//187 188//188 
f 186//186 189//189 190//190 
f 191//191 192//192 193//193 
f 194//194 195//195 192//192 
f 196//196 197//197 198//198 
f 196//196 181//181 199//199 
f 185//185 183//183 182//182 
f 184//184 200//200 201//201 
f 202//202 188//188 203//203 
f 190//190 187//187 186//186 
f 204//204 205//205 206//206 
f 207//207 208//208 205//205 
f 209//209 210//210 208//208 
f 209//209 211//211 212//212 
f 192//192 191//191 194//194 
f 194//194 213//213 198//198 
f 199//199 197//197 196//196 
f 201//201 185//185 184//184 
f 214//214 215//215 201//201 
f 214//214 216//216 217//217 
f 218//218 219//219 220//220 
f 221//221 222//222 220//220 
f 188//188 202//202 186//186 
f 189//189 223//223 206//206 
f 205//205 204//204 207//207 
f 212//212 210//210 209//209 
f 224//224 225//225 226//226 
f 225//225 227//227 228//228 
f 198//198 195//195 194//194 
f 183//183 199//199 181//181 
f 217//217 215//215 214//214 
f 216//216 229//229 230//230 
f 218//218 231//231 230//230 
f 220//220 219//219 221//221 
f 206//206 190//190 189//189 
f 208//208 207//207 209//209 
f 224//224 232//232 212//212 
f 228//228 226//226 225//225 
f 233//233 234//234 235//235 
f 233//233 236//236 193//193 
f 198//198 213//213 196//196 
f 230//230 217//217 216//216 
f 220//220 231//231 218//218 
f 221//221 237//237 203//203 
f 206//206 223//223 204//204 
f 226//226 232//232 224//224 
f 193//193 234//234 233//233 
f 201//201 200//200 214//214 
f 203//203 222//222 221//221 
f 212//212 211//211 224//224 
f 193//193 236//236 191//191 
f 203//203 237//237 202//202 
f 238//238 239//239 228//228 
f 238//238 240//240 235//235 
f 230//230 229//229 218//218 
f 235//235 239//239 238//238 
f 228//228 227//227 238//238 
f 235//235 240//240 233//233 
