# OBJ generated by ONSHAPE BY PTC INC, 1.221 Units = meters
mtllib Part_1_12.mtl
g Part 1
usemtl 0.713725_0.760784_0.800000_0.000000_0.000000
o mesh2703
v 0.0530815 0.0449856 0.0162498 
v 0.050528 0.0453368 0.0142732 
v 0.0506474 0.0460227 0.0143656 
v 0.0508806 0.0466602 0.0145461 
v 0.0512167 0.0472194 0.0148063 
v 0.0516401 0.0476741 0.015134 
v 0.0521308 0.0480031 0.0155139 
v 0.052666 0.048191 0.0159282 
v 0.0532206 0.0482291 0.0163575 
v 0.0537687 0.0481154 0.0167818 
v 0.0542847 0.0478554 0.0171812 
v 0.0547444 0.0474613 0.0175371 
v 0.0551263 0.0469513 0.0178327 
v 0.0554127 0.0463495 0.0180544 
v 0.05559 0.0456839 0.0181917 
v 0.0556501 0.0449856 0.0182382 
v 0.05559 0.0442873 0.0181917 
v 0.0554127 0.0436217 0.0180544 
v 0.0551263 0.0430198 0.0178327 
v 0.0547444 0.0425099 0.0175371 
v 0.0542847 0.0421157 0.0171812 
v 0.0537687 0.0418557 0.0167818 
v 0.0532206 0.0417421 0.0163575 
v 0.052666 0.0417801 0.0159282 
v 0.0521308 0.041968 0.0155139 
v 0.0516401 0.042297 0.015134 
v 0.0512167 0.0427518 0.0148063 
v 0.0508806 0.0433109 0.0145461 
v 0.0506474 0.0439484 0.0143656 
v 0.050528 0.0446344 0.0142732 
v 0.0505129 0.0449856 0.0142615 
vn 0.612127 6.84004e-18 -0.790759 
vn 0.612127 6.84004e-18 -0.790759 
vn 0.612127 6.84004e-18 -0.790759 
vn 0.612127 6.84004e-18 -0.790759 
vn 0.612127 6.84004e-18 -0.790759 
vn 0.612127 6.84004e-18 -0.790759 
vn 0.612127 6.84004e-18 -0.790759 
vn 0.612127 6.84004e-18 -0.790759 
vn 0.612127 6.84004e-18 -0.790759 
vn 0.612127 6.84004e-18 -0.790759 
vn 0.612127 6.84004e-18 -0.790759 
vn 0.612127 6.84004e-18 -0.790759 
vn 0.612127 6.84004e-18 -0.790759 
vn 0.612127 6.84004e-18 -0.790759 
vn 0.612127 6.84004e-18 -0.790759 
vn 0.612127 6.84004e-18 -0.790759 
vn 0.612127 6.84004e-18 -0.790759 
vn 0.612127 6.84004e-18 -0.790759 
vn 0.612127 6.84004e-18 -0.790759 
vn 0.612127 6.84004e-18 -0.790759 
vn 0.612127 6.84004e-18 -0.790759 
vn 0.612127 6.84004e-18 -0.790759 
vn 0.612127 6.84004e-18 -0.790759 
vn 0.612127 6.84004e-18 -0.790759 
vn 0.612127 6.84004e-18 -0.790759 
vn 0.612127 6.84004e-18 -0.790759 
vn 0.612127 6.84004e-18 -0.790759 
vn 0.612127 6.84004e-18 -0.790759 
vn 0.612127 6.84004e-18 -0.790759 
vn 0.612127 6.84004e-18 -0.790759 
vn 0.612127 6.84004e-18 -0.790759 
f 1//1 2//2 3//3 
f 3//3 4//4 1//1 
f 4//4 5//5 1//1 
f 5//5 6//6 1//1 
f 6//6 7//7 1//1 
f 7//7 8//8 1//1 
f 8//8 9//9 1//1 
f 9//9 10//10 1//1 
f 10//10 11//11 1//1 
f 11//11 12//12 1//1 
f 12//12 13//13 1//1 
f 13//13 14//14 1//1 
f 14//14 15//15 1//1 
f 15//15 16//16 1//1 
f 16//16 17//17 1//1 
f 17//17 18//18 1//1 
f 18//18 19//19 1//1 
f 19//19 20//20 1//1 
f 20//20 21//21 1//1 
f 21//21 22//22 1//1 
f 22//22 23//23 1//1 
f 23//23 24//24 1//1 
f 24//24 25//25 1//1 
f 25//25 26//26 1//1 
f 26//26 27//27 1//1 
f 27//27 28//28 1//1 
f 28//28 29//29 1//1 
f 29//29 30//30 1//1 
f 30//30 31//31 1//1 
f 31//31 2//2 1//1 
o mesh2704
v 0.05559 0.0442873 0.0181917 
v 0.0556501 0.0449856 0.0182382 
v 0.0587107 0.0449856 0.0142844 
v 0.0554127 0.0436217 0.0180544 
v 0.0586507 0.0442873 0.0142379 
v 0.0551263 0.0430198 0.0178327 
v 0.0584733 0.0436217 0.0141006 
v 0.0547444 0.0425099 0.0175371 
v 0.058187 0.0430198 0.0138789 
v 0.0542847 0.0421157 0.0171812 
v 0.057805 0.0425099 0.0135833 
v 0.0537687 0.0418557 0.0167818 
v 0.0573453 0.0421157 0.0132274 
v 0.0532206 0.0417421 0.0163575 
v 0.0568293 0.0418557 0.012828 
v 0.052666 0.0417801 0.0159282 
v 0.0562812 0.0417421 0.0124037 
v 0.0521308 0.041968 0.0155139 
v 0.0557266 0.0417801 0.0119744 
v 0.0516401 0.042297 0.015134 
v 0.0551914 0.041968 0.0115601 
v 0.0512167 0.0427518 0.0148063 
v 0.0547007 0.042297 0.0111802 
v 0.0508806 0.0433109 0.0145461 
v 0.0542774 0.0427518 0.0108525 
v 0.0506474 0.0439484 0.0143656 
v 0.0539412 0.0433109 0.0105923 
v 0.050528 0.0446344 0.0142732 
v 0.053708 0.0439484 0.0104118 
v 0.0535886 0.0446344 0.0103194 
v 0.0535736 0.0449856 0.0103077 
v 0.0505129 0.0449856 0.0142615 
v 0.0535886 0.0453368 0.0103194 
v 0.050528 0.0453368 0.0142732 
v 0.0506474 0.0460227 0.0143656 
v 0.0508806 0.0466602 0.0145461 
v 0.053708 0.0460227 0.0104118 
v 0.0512167 0.0472194 0.0148063 
v 0.0539412 0.0466602 0.0105923 
v 0.0516401 0.0476741 0.015134 
v 0.0542774 0.0472194 0.0108525 
v 0.0521308 0.0480031 0.0155139 
v 0.0547007 0.0476741 0.0111802 
v 0.052666 0.048191 0.0159282 
v 0.0551914 0.0480031 0.0115601 
v 0.0532206 0.0482291 0.0163575 
v 0.0557266 0.048191 0.0119744 
v 0.0537687 0.0481154 0.0167818 
v 0.0562812 0.0482291 0.0124037 
v 0.0542847 0.0478554 0.0171812 
v 0.0568293 0.0481154 0.012828 
v 0.0547444 0.0474613 0.0175371 
v 0.0573453 0.0478554 0.0132274 
v 0.0551263 0.0469513 0.0178327 
v 0.057805 0.0474613 0.0135833 
v 0.0554127 0.0463495 0.0180544 
v 0.058187 0.0469513 0.0138789 
v 0.05559 0.0456839 0.0181917 
v 0.0584733 0.0463495 0.0141006 
v 0.0586507 0.0456839 0.0142379 
vn -0.772272 0.21497 -0.597816 
vn -0.790759 2.44929e-16 -0.612127 
vn -0.790759 2.44929e-16 -0.612127 
vn -0.717674 0.419889 -0.555551 
vn -0.772272 0.21497 -0.597816 
vn -0.629518 0.605174 -0.48731 
vn -0.717674 0.419889 -0.555551 
vn -0.511927 0.762162 -0.396283 
vn -0.629518 0.605174 -0.48731 
vn -0.370398 0.883512 -0.286725 
vn -0.511927 0.762162 -0.396283 
vn -0.211551 0.96355 -0.163761 
vn -0.370398 0.883512 -0.286725 
vn -0.0428109 0.998533 -0.0331399 
vn -0.211551 0.96355 -0.163761 
vn 0.127931 0.986827 0.0990311 
vn -0.0428109 0.998533 -0.0331399 
vn 0.29269 0.928977 0.226572 
vn 0.127931 0.986827 0.0990311 
vn 0.443764 0.827689 0.343518 
vn 0.29269 0.928977 0.226572 
vn 0.574088 0.687699 0.444401 
vn 0.443764 0.827689 0.343518 
vn 0.677568 0.515554 0.524505 
vn 0.574088 0.687699 0.444401 
vn 0.749366 0.319302 0.580084 
vn 0.677568 0.515554 0.524505 
vn 0.786124 0.108119 0.608539 
vn 0.749366 0.319302 0.580084 
vn 0.786124 0.108119 0.608539 
vn 0.790759 -1.22465e-16 0.612127 
vn 0.790759 -1.22465e-16 0.612127 
vn 0.786124 -0.108119 0.608539 
vn 0.786124 -0.108119 0.608539 
vn 0.749366 -0.319302 0.580084 
vn 0.677568 -0.515554 0.524505 
vn 0.749366 -0.319302 0.580084 
vn 0.574088 -0.687699 0.444401 
vn 0.677568 -0.515554 0.524505 
vn 0.443764 -0.827689 0.343518 
vn 0.574088 -0.687699 0.444401 
vn 0.29269 -0.928977 0.226572 
vn 0.443764 -0.827689 0.343518 
vn 0.127931 -0.986827 0.0990311 
vn 0.29269 -0.928977 0.226572 
vn -0.0428109 -0.998533 -0.0331399 
vn 0.127931 -0.986827 0.0990311 
vn -0.211551 -0.96355 -0.163761 
vn -0.0428109 -0.998533 -0.0331399 
vn -0.370398 -0.883512 -0.286725 
vn -0.211551 -0.96355 -0.163761 
vn -0.511927 -0.762162 -0.396283 
vn -0.370398 -0.883512 -0.286725 
vn -0.629518 -0.605174 -0.48731 
vn -0.511927 -0.762162 -0.396283 
vn -0.717674 -0.419889 -0.555551 
vn -0.629518 -0.605174 -0.48731 
vn -0.772272 -0.21497 -0.597816 
vn -0.717674 -0.419889 -0.555551 
vn -0.772272 -0.21497 -0.597816 
f 32//32 33//33 34//34 
f 35//35 32//32 36//36 
f 37//37 35//35 38//38 
f 39//39 37//37 40//40 
f 41//41 39//39 42//42 
f 43//43 41//41 44//44 
f 45//45 43//43 46//46 
f 47//47 45//45 48//48 
f 49//49 47//47 50//50 
f 51//51 49//49 52//52 
f 53//53 51//51 54//54 
f 55//55 53//53 56//56 
f 57//57 55//55 58//58 
f 59//59 57//57 60//60 
f 61//61 62//62 63//63 
f 63//63 62//62 64//64 
f 64//64 65//65 63//63 
f 66//66 65//65 64//64 
f 67//67 66//66 68//68 
f 69//69 67//67 70//70 
f 71//71 69//69 72//72 
f 73//73 71//71 74//74 
f 75//75 73//73 76//76 
f 77//77 75//75 78//78 
f 79//79 77//77 80//80 
f 81//81 79//79 82//82 
f 83//83 81//81 84//84 
f 85//85 83//83 86//86 
f 87//87 85//85 88//88 
f 89//89 87//87 90//90 
f 33//33 89//89 91//91 
f 91//91 34//34 33//33 
f 90//90 91//91 89//89 
f 88//88 90//90 87//87 
f 86//86 88//88 85//85 
f 84//84 86//86 83//83 
f 82//82 84//84 81//81 
f 80//80 82//82 79//79 
f 78//78 80//80 77//77 
f 76//76 78//78 75//75 
f 74//74 76//76 73//73 
f 72//72 74//74 71//71 
f 70//70 72//72 69//69 
f 68//68 70//70 67//67 
f 64//64 68//68 66//66 
f 63//63 59//59 61//61 
f 60//60 61//61 59//59 
f 58//58 60//60 57//57 
f 56//56 58//58 55//55 
f 54//54 56//56 53//53 
f 52//52 54//54 51//51 
f 50//50 52//52 49//49 
f 48//48 50//50 47//47 
f 46//46 48//48 45//45 
f 44//44 46//46 43//43 
f 42//42 44//44 41//41 
f 40//40 42//42 39//39 
f 38//38 40//40 37//37 
f 36//36 38//38 35//35 
f 34//34 36//36 32//32 
o mesh2705
v 0.0555634 0.0494495 0.0118481 
v 0.0563358 0.0495025 0.012446 
v 0.0562812 0.0482291 0.0124037 
v 0.0570991 0.0493442 0.0130368 
v 0.0568293 0.0481154 0.012828 
v 0.0593886 0.0430862 0.0148091 
v 0.0584733 0.0436217 0.0141006 
v 0.0586507 0.0442873 0.0142379 
v 0.0589898 0.042248 0.0145004 
v 0.058187 0.0430198 0.0138789 
v 0.0563358 0.0404687 0.012446 
v 0.0562812 0.0417421 0.0124037 
v 0.0568293 0.0418557 0.012828 
v 0.0555634 0.0405216 0.0118481 
v 0.0557266 0.0417801 0.0119744 
v 0.0525651 0.0449856 0.00952706 
v 0.0525861 0.0454747 0.00954329 
v 0.0535886 0.0453368 0.0103194 
v 0.0527524 0.0464299 0.00967201 
v 0.053708 0.0460227 0.0104118 
v 0.0548181 0.0491878 0.0112711 
v 0.0557266 0.048191 0.0119744 
v 0.0596355 0.045958 0.0150003 
v 0.0586507 0.0456839 0.0142379 
v 0.0584733 0.0463495 0.0141006 
v 0.0597192 0.0449856 0.015065 
v 0.0587107 0.0449856 0.0142844 
v 0.0596355 0.0440131 0.0150003 
v 0.0548181 0.0407833 0.0112711 
v 0.0551914 0.041968 0.0115601 
v 0.0530771 0.0473177 0.00992342 
v 0.0539412 0.0466602 0.0105923 
v 0.0541348 0.0487297 0.0107421 
v 0.0547007 0.0476741 0.0111802 
v 0.0542774 0.0472194 0.0108525 
v 0.0551914 0.0480031 0.0115601 
v 0.0578177 0.0489822 0.0135931 
v 0.0573453 0.0478554 0.0132274 
v 0.0584579 0.0415379 0.0140886 
v 0.057805 0.0425099 0.0135833 
v 0.0578177 0.040989 0.0135931 
v 0.0573453 0.0421157 0.0132274 
v 0.0570991 0.0406269 0.0130368 
v 0.0541348 0.0412415 0.0107421 
v 0.0547007 0.042297 0.0111802 
v 0.0535452 0.0418747 0.0102858 
v 0.0542774 0.0427518 0.0108525 
v 0.0527524 0.0435412 0.00967201 
v 0.0525861 0.0444965 0.00954329 
v 0.0535886 0.0446344 0.0103194 
v 0.0535736 0.0449856 0.0103077 
v 0.0535452 0.0480964 0.0102858 
v 0.0589898 0.0477231 0.0145004 
v 0.058187 0.0469513 0.0138789 
v 0.057805 0.0474613 0.0135833 
v 0.0593886 0.046885 0.0148091 
v 0.053708 0.0439484 0.0104118 
v 0.0539412 0.0433109 0.0105923 
v 0.0584579 0.0484332 0.0140886 
v 0.0530771 0.0426534 0.00992342 
vn 0.612127 6.84004e-18 -0.790759 
vn 0.612127 6.84004e-18 -0.790759 
vn 0.612127 6.84004e-18 -0.790759 
vn 0.612127 6.84004e-18 -0.790759 
vn 0.612127 6.84004e-18 -0.790759 
vn 0.612127 6.84004e-18 -0.790759 
vn 0.612127 6.84004e-18 -0.790759 
vn 0.612127 6.84004e-18 -0.790759 
vn 0.612127 6.84004e-18 -0.790759 
vn 0.612127 6.84004e-18 -0.790759 
vn 0.612127 6.84004e-18 -0.790759 
vn 0.612127 6.84004e-18 -0.790759 
vn 0.612127 6.84004e-18 -0.790759 
vn 0.612127 6.84004e-18 -0.790759 
vn 0.612127 6.84004e-18 -0.790759 
vn 0.612127 6.84004e-18 -0.790759 
vn 0.612127 6.84004e-18 -0.790759 
vn 0.612127 6.84004e-18 -0.790759 
vn 0.612127 6.84004e-18 -0.790759 
vn 0.612127 6.84004e-18 -0.790759 
vn 0.612127 6.84004e-18 -0.790759 
vn 0.612127 6.84004e-18 -0.790759 
vn 0.612127 6.84004e-18 -0.790759 
vn 0.612127 6.84004e-18 -0.790759 
vn 0.612127 6.84004e-18 -0.790759 
vn 0.612127 6.84004e-18 -0.790759 
vn 0.612127 6.84004e-18 -0.790759 
vn 0.612127 6.84004e-18 -0.790759 
vn 0.612127 6.84004e-18 -0.790759 
vn 0.612127 6.84004e-18 -0.790759 
vn 0.612127 6.84004e-18 -0.790759 
vn 0.612127 6.84004e-18 -0.790759 
vn 0.612127 6.84004e-18 -0.790759 
vn 0.612127 6.84004e-18 -0.790759 
vn 0.612127 6.84004e-18 -0.790759 
vn 0.612127 6.84004e-18 -0.790759 
vn 0.612127 6.84004e-18 -0.790759 
vn 0.612127 6.84004e-18 -0.790759 
vn 0.612127 6.84004e-18 -0.790759 
vn 0.612127 6.84004e-18 -0.790759 
vn 0.612127 6.84004e-18 -0.790759 
vn 0.612127 6.84004e-18 -0.790759 
vn 0.612127 6.84004e-18 -0.790759 
vn 0.612127 6.84004e-18 -0.790759 
vn 0.612127 6.84004e-18 -0.790759 
vn 0.612127 6.84004e-18 -0.790759 
vn 0.612127 6.84004e-18 -0.790759 
vn 0.612127 6.84004e-18 -0.790759 
vn 0.612127 6.84004e-18 -0.790759 
vn 0.612127 6.84004e-18 -0.790759 
vn 0.612127 6.84004e-18 -0.790759 
vn 0.612127 6.84004e-18 -0.790759 
vn 0.612127 6.84004e-18 -0.790759 
vn 0.612127 6.84004e-18 -0.790759 
vn 0.612127 6.84004e-18 -0.790759 
vn 0.612127 6.84004e-18 -0.790759 
vn 0.612127 6.84004e-18 -0.790759 
vn 0.612127 6.84004e-18 -0.790759 
vn 0.612127 6.84004e-18 -0.790759 
vn 0.612127 6.84004e-18 -0.790759 
f 92//92 93//93 94//94 
f 93//93 95//95 96//96 
f 97//97 98//98 99//99 
f 100//100 101//101 98//98 
f 102//102 103//103 104//104 
f 105//105 106//106 103//103 
f 107//107 108//108 109//109 
f 110//110 111//111 109//109 
f 112//112 92//92 113//113 
f 96//96 94//94 93//93 
f 114//114 115//115 116//116 
f 114//114 117//117 118//118 
f 119//119 99//99 118//118 
f 98//98 97//97 100//100 
f 103//103 102//102 105//105 
f 105//105 120//120 121//121 
f 109//109 108//108 110//110 
f 110//110 122//122 123//123 
f 124//124 125//125 126//126 
f 124//124 112//112 127//127 
f 94//94 113//113 92//92 
f 95//95 128//128 129//129 
f 118//118 115//115 114//114 
f 99//99 119//119 97//97 
f 130//130 131//131 101//101 
f 132//132 133//133 131//131 
f 134//134 104//104 133//133 
f 121//121 106//106 105//105 
f 120//120 135//135 136//136 
f 135//135 137//137 138//138 
f 139//139 140//140 141//141 
f 107//107 142//142 141//141 
f 123//123 111//111 110//110 
f 122//122 143//143 126//126 
f 127//127 125//125 124//124 
f 129//129 96//96 95//95 
f 144//144 145//145 146//146 
f 144//144 147//147 116//116 
f 118//118 117//117 119//119 
f 131//131 130//130 132//132 
f 104//104 134//134 102//102 
f 138//138 136//136 135//135 
f 139//139 148//148 149//149 
f 141//141 140//140 107//107 
f 126//126 123//123 122//122 
f 113//113 127//127 112//112 
f 128//128 150//150 146//146 
f 116//116 145//145 144//144 
f 101//101 100//100 130//130 
f 136//136 121//121 120//120 
f 151//151 149//149 138//138 
f 141//141 148//148 139//139 
f 126//126 143//143 124//124 
f 146//146 150//150 144//144 
f 133//133 132//132 134//134 
f 149//149 151//151 139//139 
f 146//146 129//129 128//128 
f 138//138 137//137 151//151 
f 116//116 147//147 114//114 
f 109//109 142//142 107//107 
o mesh2706
v 0.0566585 0.0449856 0.0190188 
v 0.0597192 0.0449856 0.015065 
v 0.0596355 0.045958 0.0150003 
v 0.0565749 0.045958 0.0189541 
v 0.0593886 0.046885 0.0148091 
v 0.0589898 0.0477231 0.0145004 
v 0.0559771 0.0476223 0.0184913 
v 0.0559292 0.0477231 0.0184542 
v 0.0584579 0.0484332 0.0140886 
v 0.0553972 0.0484332 0.0180424 
v 0.0578177 0.0489822 0.0135931 
v 0.054757 0.0489822 0.0175469 
v 0.0570991 0.0493442 0.0130368 
v 0.0540385 0.0493442 0.0169906 
v 0.0563358 0.0495025 0.012446 
v 0.0532752 0.0495025 0.0163997 
v 0.0555634 0.0494495 0.0118481 
v 0.0525028 0.0494495 0.0158019 
v 0.0548181 0.0491878 0.0112711 
v 0.0517575 0.0491878 0.0152249 
v 0.0541348 0.0487297 0.0107421 
v 0.0535452 0.0480964 0.0102858 
v 0.0504846 0.0480964 0.0142396 
v 0.0509964 0.0486462 0.0146358 
v 0.0530771 0.0473177 0.00992342 
v 0.0501996 0.0476223 0.014019 
v 0.0500165 0.0473177 0.0138772 
v 0.0527524 0.0464299 0.00967201 
v 0.0496917 0.0464299 0.0136258 
v 0.0525861 0.0454747 0.00954329 
v 0.0495045 0.0449856 0.0134809 
v 0.0495254 0.0454747 0.0134971 
v 0.0525651 0.0449856 0.00952706 
v 0.0525861 0.0444965 0.00954329 
v 0.0495254 0.0444965 0.0134971 
v 0.0527524 0.0435412 0.00967201 
v 0.0496917 0.0435412 0.0136258 
v 0.0530771 0.0426534 0.00992342 
v 0.0500165 0.0426534 0.0138772 
v 0.0535452 0.0418747 0.0102858 
v 0.0541348 0.0412415 0.0107421 
v 0.0509964 0.0413249 0.0146358 
v 0.0510741 0.0412415 0.0146959 
v 0.0548181 0.0407833 0.0112711 
v 0.0517575 0.0407833 0.0152249 
v 0.0555634 0.0405216 0.0118481 
v 0.0525028 0.0405216 0.0158019 
v 0.0563358 0.0404687 0.012446 
v 0.0532752 0.0404687 0.0163997 
v 0.0570991 0.0406269 0.0130368 
v 0.0540385 0.0406269 0.0169906 
v 0.0578177 0.040989 0.0135931 
v 0.054757 0.040989 0.0175469 
v 0.0584579 0.0415379 0.0140886 
v 0.0553972 0.0415379 0.0180424 
v 0.0589898 0.042248 0.0145004 
v 0.0559292 0.042248 0.0184542 
v 0.0593886 0.0430862 0.0148091 
v 0.0563279 0.0430862 0.0187629 
v 0.0596355 0.0440131 0.0150003 
v 0.0565749 0.0440131 0.0189541 
v 0.0504846 0.0418747 0.0142396 
v 0.0510741 0.0487297 0.0146959 
v 0.0563279 0.046885 0.0187629 
vn 0.790759 -6.65245e-34 0.612127 
vn 0.790759 -6.65245e-34 0.612127 
vn 0.772272 0.21497 0.597816 
vn 0.772272 0.21497 0.597816 
vn 0.717674 0.419889 0.555551 
vn 0.629518 0.605174 0.48731 
vn 0.641707 0.584342 0.496746 
vn 0.629518 0.605174 0.48731 
vn 0.511927 0.762162 0.396283 
vn 0.511927 0.762162 0.396283 
vn 0.370398 0.883512 0.286725 
vn 0.370398 0.883512 0.286725 
vn 0.211551 0.96355 0.163761 
vn 0.211551 0.96355 0.163761 
vn 0.0428109 0.998533 0.0331399 
vn 0.0428109 0.998533 0.0331399 
vn -0.127931 0.986827 -0.0990311 
vn -0.127931 0.986827 -0.0990311 
vn -0.29269 0.928977 -0.226572 
vn -0.29269 0.928977 -0.226572 
vn -0.443764 0.827689 -0.343518 
vn -0.574088 0.687699 -0.444401 
vn -0.574088 0.687699 -0.444401 
vn -0.462177 0.811414 -0.357771 
vn -0.677568 0.515554 -0.524505 
vn -0.640665 0.586168 -0.495939 
vn -0.677568 0.515554 -0.524505 
vn -0.749366 0.319302 -0.580084 
vn -0.749366 0.319302 -0.580084 
vn -0.786124 0.108119 -0.608539 
vn -0.790759 1.22465e-16 -0.612127 
vn -0.786124 0.108119 -0.608539 
vn -0.790759 1.22465e-16 -0.612127 
vn -0.786124 -0.108119 -0.608539 
vn -0.786124 -0.108119 -0.608539 
vn -0.749366 -0.319302 -0.580084 
vn -0.749366 -0.319302 -0.580084 
vn -0.677568 -0.515554 -0.524505 
vn -0.677568 -0.515554 -0.524505 
vn -0.574088 -0.687699 -0.444401 
vn -0.443764 -0.827689 -0.343518 
vn -0.462177 -0.811414 -0.357771 
vn -0.443764 -0.827689 -0.343518 
vn -0.29269 -0.928977 -0.226572 
vn -0.29269 -0.928977 -0.226572 
vn -0.127931 -0.986827 -0.0990311 
vn -0.127931 -0.986827 -0.0990311 
vn 0.0428109 -0.998533 0.0331399 
vn 0.0428109 -0.998533 0.0331399 
vn 0.211551 -0.96355 0.163761 
vn 0.211551 -0.96355 0.163761 
vn 0.370398 -0.883512 0.286725 
vn 0.370398 -0.883512 0.286725 
vn 0.511927 -0.762162 0.396283 
vn 0.511927 -0.762162 0.396283 
vn 0.629518 -0.605174 0.48731 
vn 0.629518 -0.605174 0.48731 
vn 0.717674 -0.419889 0.555551 
vn 0.717674 -0.419889 0.555551 
vn 0.772272 -0.21497 0.597816 
vn 0.772272 -0.21497 0.597816 
vn -0.574088 -0.687699 -0.444401 
vn -0.443764 0.827689 -0.343518 
vn 0.717674 0.419889 0.555551 
f 152//152 153//153 154//154 
f 155//155 154//154 156//156 
f 156//156 157//157 158//158 
f 157//157 159//159 158//158 
f 159//159 157//157 160//160 
f 161//161 160//160 162//162 
f 163//163 162//162 164//164 
f 165//165 164//164 166//166 
f 167//167 166//166 168//168 
f 169//169 168//168 170//170 
f 171//171 170//170 172//172 
f 173//173 174//174 175//175 
f 175//175 172//172 173//173 
f 173//173 176//176 177//177 
f 176//176 178//178 177//177 
f 178//178 176//176 179//179 
f 180//180 179//179 181//181 
f 182//182 183//183 181//181 
f 182//182 184//184 185//185 
f 185//185 186//186 182//182 
f 186//186 185//185 187//187 
f 188//188 187//187 189//189 
f 190//190 189//189 191//191 
f 191//191 192//192 193//193 
f 192//192 194//194 193//193 
f 194//194 192//192 195//195 
f 196//196 195//195 197//197 
f 198//198 197//197 199//199 
f 200//200 199//199 201//201 
f 202//202 201//201 203//203 
f 204//204 203//203 205//205 
f 206//206 205//205 207//207 
f 208//208 207//207 209//209 
f 210//210 209//209 211//211 
f 212//212 211//211 153//153 
f 153//153 152//152 212//212 
f 211//211 212//212 210//210 
f 209//209 210//210 208//208 
f 207//207 208//208 206//206 
f 205//205 206//206 204//204 
f 203//203 204//204 202//202 
f 201//201 202//202 200//200 
f 199//199 200//200 198//198 
f 197//197 198//198 196//196 
f 195//195 196//196 194//194 
f 193//193 213//213 191//191 
f 191//191 213//213 190//190 
f 189//189 190//190 188//188 
f 187//187 188//188 186//186 
f 181//181 184//184 182//182 
f 181//181 183//183 180//180 
f 179//179 180//180 178//178 
f 177//177 174//174 173//173 
f 175//175 214//214 172//172 
f 172//172 214//214 171//171 
f 170//170 171//171 169//169 
f 168//168 169//169 167//167 
f 166//166 167//167 165//165 
f 164//164 165//165 163//163 
f 162//162 163//163 161//161 
f 160//160 161//161 159//159 
f 158//158 215//215 156//156 
f 156//156 215//215 155//155 
f 154//154 155//155 152//152 
o mesh2707
v 0.047111 0.0521376 0.0116281 
v 0.0504846 0.0480964 0.0142396 
v 0.0501996 0.0476223 0.014019 
v 0.045169 0.0476223 0.0101248 
v 0.0452881 0.0483063 0.010217 
v 0.0509964 0.0486462 0.0146358 
v 0.0484664 0.0535935 0.0126773 
v 0.0500375 0.0546469 0.0138935 
v 0.0460348 0.0503473 0.010795 
v 0.0509964 0.0549836 0.0146358 
v 0.0528619 0.0515388 0.0160799 
v 0.0529855 0.0514954 0.0161755 
v 0.0525028 0.0494495 0.0158019 
v 0.0532752 0.0495025 0.0163997 
v 0.0531136 0.0514866 0.0162747 
v 0.0532401 0.0515129 0.0163726 
v 0.0517575 0.0491878 0.0152249 
v 0.0527486 0.0516148 0.0159922 
v 0.0540385 0.0493442 0.0169906 
v 0.051751 0.0552486 0.0152199 
v 0.0529855 0.0529757 0.0161755 
v 0.0528619 0.0529323 0.0160799 
v 0.0535267 0.0553703 0.0165945 
v 0.0531136 0.0529844 0.0162747 
v 0.0552816 0.0550065 0.017953 
v 0.0533593 0.0528982 0.0164648 
v 0.0535536 0.0517817 0.0166153 
v 0.0610063 0.0476223 0.0223844 
v 0.0553972 0.0484332 0.0180424 
v 0.0534654 0.0516639 0.016547 
v 0.054757 0.0489822 0.0175469 
v 0.0533593 0.0515729 0.0164648 
v 0.0510741 0.0487297 0.0146959 
v 0.0526509 0.0517198 0.0159165 
v 0.0525194 0.0519961 0.0158147 
v 0.0525733 0.0518489 0.0158564 
v 0.0526509 0.0527513 0.0159165 
v 0.0525733 0.0526222 0.0158564 
v 0.0527486 0.0528563 0.0159922 
v 0.0532401 0.0529582 0.0163726 
v 0.0536197 0.0519206 0.0166665 
v 0.0536607 0.0520743 0.0166982 
v 0.0605453 0.0493524 0.0220276 
v 0.0559771 0.0476223 0.0184913 
v 0.0559292 0.0477231 0.0184542 
v 0.0524884 0.0522355 0.0157907 
v 0.0536197 0.0525505 0.0166665 
v 0.0535536 0.0526894 0.0166153 
v 0.0536607 0.0523968 0.0166982 
v 0.0569336 0.0541741 0.0192318 
v 0.0536745 0.0522355 0.0167089 
v 0.0584055 0.0529121 0.0203712 
v 0.0524919 0.0521544 0.0157934 
v 0.0525194 0.052475 0.0158147 
v 0.0524919 0.0523166 0.0157934 
v 0.0596285 0.0512794 0.0213179 
v 0.0534654 0.0528072 0.016547 
v 0.0528619 0.0384323 0.0160799 
v 0.0517575 0.0407833 0.0152249 
v 0.0525028 0.0405216 0.0158019 
v 0.0582214 0.0449855 0.0202286 
v 0.0559292 0.042248 0.0184542 
v 0.0563279 0.0430862 0.0187629 
v 0.0533593 0.0383982 0.0164648 
v 0.0553972 0.0415379 0.0180424 
v 0.0532752 0.0404687 0.0163997 
v 0.0540385 0.0406269 0.0169906 
v 0.0532401 0.0384582 0.0163726 
v 0.0529855 0.0384757 0.0161755 
v 0.054757 0.040989 0.0175469 
v 0.0535536 0.0381894 0.0166153 
v 0.0534654 0.0383072 0.016547 
v 0.0583839 0.0444698 0.0203544 
v 0.0611131 0.0427499 0.0224671 
v 0.0536197 0.0380505 0.0166665 
v 0.0588466 0.0442366 0.0207126 
v 0.0584816 0.0443648 0.0204301 
v 0.0585949 0.0442888 0.0205178 
v 0.0527486 0.0383563 0.0159922 
v 0.0510741 0.0412415 0.0146959 
v 0.0531136 0.0384844 0.0162747 
v 0.0565749 0.0440131 0.0189541 
v 0.0535267 0.0346008 0.0165945 
v 0.0532401 0.0370129 0.0163726 
v 0.0533593 0.0370729 0.0164648 
v 0.051751 0.0347226 0.0152199 
v 0.0529855 0.0369954 0.0161755 
v 0.0527486 0.0371148 0.0159922 
v 0.0528619 0.0370388 0.0160799 
v 0.0589731 0.0442629 0.0208105 
v 0.0587185 0.0442454 0.0206134 
v 0.0509964 0.0413249 0.0146358 
v 0.0526509 0.0382513 0.0159165 
v 0.0525733 0.0381222 0.0158564 
v 0.0582249 0.0449044 0.0202313 
v 0.0531136 0.0369866 0.0162747 
v 0.0509964 0.0349875 0.0146358 
v 0.0526509 0.0372198 0.0159165 
v 0.0525194 0.0374961 0.0158147 
v 0.0525733 0.0373489 0.0158564 
v 0.0565749 0.045958 0.0189541 
v 0.0582524 0.045225 0.0202527 
v 0.0582249 0.0450666 0.0202313 
v 0.0593527 0.0446706 0.0211044 
v 0.0593937 0.0448243 0.0211361 
v 0.0590923 0.0443229 0.0209028 
v 0.0591984 0.0444139 0.0209849 
v 0.0566585 0.0449856 0.0190188 
v 0.0583063 0.0445989 0.0202943 
v 0.0582524 0.0447461 0.0202527 
v 0.0536607 0.0378968 0.0166982 
v 0.0596285 0.0386918 0.0213179 
v 0.0584055 0.0370591 0.0203712 
v 0.0587185 0.0457257 0.0206134 
v 0.0585949 0.0456823 0.0205178 
v 0.0588466 0.0457344 0.0207126 
v 0.0591984 0.0455572 0.0209849 
v 0.0611131 0.0472213 0.0224671 
v 0.0613054 0.0449856 0.022616 
v 0.0593937 0.0451468 0.0211361 
v 0.0592866 0.0445317 0.0210532 
v 0.0605453 0.0406187 0.0220276 
v 0.0536607 0.0375743 0.0166982 
v 0.0569336 0.035797 0.0192318 
v 0.0536197 0.0374206 0.0166665 
v 0.0552816 0.0349647 0.017953 
v 0.0534654 0.0371639 0.016547 
v 0.0583063 0.0453722 0.0202943 
v 0.0583839 0.0455013 0.0203544 
v 0.0563279 0.046885 0.0187629 
v 0.0590923 0.0456482 0.0209028 
v 0.0589731 0.0457082 0.0208105 
v 0.0593527 0.0453005 0.0211044 
v 0.0592866 0.0454394 0.0210532 
v 0.0594075 0.0449855 0.0211468 
v 0.0536745 0.0377355 0.0167089 
v 0.0535536 0.0372817 0.0166153 
v 0.0584816 0.0456063 0.0204301 
v 0.0525194 0.037975 0.0158147 
v 0.0524919 0.0378166 0.0157934 
v 0.0524884 0.0377355 0.0157907 
v 0.0524919 0.0376544 0.0157934 
v 0.0478867 0.0446706 0.0122285 
v 0.0479277 0.0448243 0.0122602 
v 0.0495254 0.0444965 0.0134971 
v 0.0478867 0.0453005 0.0122285 
v 0.0496917 0.0464299 0.0136258 
v 0.0495254 0.0454747 0.0134971 
v 0.0495045 0.0449856 0.0134809 
v 0.0479415 0.0449855 0.012271 
v 0.0478206 0.0445317 0.0121774 
v 0.0496917 0.0435412 0.0136258 
v 0.0500165 0.0426534 0.0138772 
v 0.0477324 0.0444139 0.0121091 
v 0.0504846 0.0418747 0.0142396 
v 0.0476262 0.0443229 0.0120269 
v 0.0475071 0.0442629 0.0119347 
v 0.0484664 0.0363776 0.0126773 
v 0.047111 0.0378335 0.0116281 
v 0.0469179 0.0455013 0.0114786 
v 0.0468403 0.0453722 0.0114185 
v 0.0472525 0.0457257 0.0117376 
v 0.0471289 0.0456823 0.011642 
v 0.0473806 0.0457344 0.0118367 
v 0.0478206 0.0454394 0.0121774 
v 0.0500165 0.0473177 0.0138772 
v 0.0479277 0.0451468 0.0122602 
v 0.0500375 0.0353242 0.0138935 
v 0.0472525 0.0442454 0.0117376 
v 0.0460348 0.0396238 0.010795 
v 0.0449058 0.04611 0.00992104 
v 0.0476262 0.0456482 0.0120269 
v 0.0475071 0.0457082 0.0119347 
v 0.0473806 0.0442366 0.0118367 
v 0.0471289 0.0442888 0.011642 
v 0.0452881 0.0416648 0.010217 
v 0.0449058 0.0438611 0.00992104 
v 0.0468403 0.0445989 0.0114185 
v 0.0470156 0.0456063 0.0115542 
v 0.0477324 0.0455572 0.0121091 
v 0.0469179 0.0444698 0.0114786 
v 0.0470156 0.0443648 0.0115542 
v 0.0467864 0.0447461 0.0113768 
v 0.0467864 0.045225 0.0113768 
v 0.0467589 0.0450666 0.0113555 
v 0.0448576 0.0449856 0.00988372 
v 0.0467589 0.0449044 0.0113555 
v 0.0467554 0.0449855 0.0113528 
vn 0.612127 6.84004e-18 -0.790759 
vn 0.612127 6.84004e-18 -0.790759 
vn 0.612127 6.84004e-18 -0.790759 
vn 0.612127 6.84004e-18 -0.790759 
vn 0.612127 6.84004e-18 -0.790759 
vn 0.612127 6.84004e-18 -0.790759 
vn 0.612127 6.84004e-18 -0.790759 
vn 0.612127 6.84004e-18 -0.790759 
vn 0.612127 6.84004e-18 -0.790759 
vn 0.612127 6.84004e-18 -0.790759 
vn 0.612127 6.84004e-18 -0.790759 
vn 0.612127 6.84004e-18 -0.790759 
vn 0.612127 6.84004e-18 -0.790759 
vn 0.612127 6.84004e-18 -0.790759 
vn 0.612127 6.84004e-18 -0.790759 
vn 0.612127 6.84004e-18 -0.790759 
vn 0.612127 6.84004e-18 -0.790759 
vn 0.612127 6.84004e-18 -0.790759 
vn 0.612127 6.84004e-18 -0.790759 
vn 0.612127 6.84004e-18 -0.790759 
vn 0.612127 6.84004e-18 -0.790759 
vn 0.612127 6.84004e-18 -0.790759 
vn 0.612127 6.84004e-18 -0.790759 
vn 0.612127 6.84004e-18 -0.790759 
vn 0.612127 6.84004e-18 -0.790759 
vn 0.612127 6.84004e-18 -0.790759 
vn 0.612127 6.84004e-18 -0.790759 
vn 0.612127 6.84004e-18 -0.790759 
vn 0.612127 6.84004e-18 -0.790759 
vn 0.612127 6.84004e-18 -0.790759 
vn 0.612127 6.84004e-18 -0.790759 
vn 0.612127 6.84004e-18 -0.790759 
vn 0.612127 6.84004e-18 -0.790759 
vn 0.612127 6.84004e-18 -0.790759 
vn 0.612127 6.84004e-18 -0.790759 
vn 0.612127 6.84004e-18 -0.790759 
vn 0.612127 6.84004e-18 -0.790759 
vn 0.612127 6.84004e-18 -0.790759 
vn 0.612127 6.84004e-18 -0.790759 
vn 0.612127 6.84004e-18 -0.790759 
vn 0.612127 6.84004e-18 -0.790759 
vn 0.612127 6.84004e-18 -0.790759 
vn 0.612127 6.84004e-18 -0.790759 
vn 0.612127 6.84004e-18 -0.790759 
vn 0.612127 6.84004e-18 -0.790759 
vn 0.612127 6.84004e-18 -0.790759 
vn 0.612127 6.84004e-18 -0.790759 
vn 0.612127 6.84004e-18 -0.790759 
vn 0.612127 6.84004e-18 -0.790759 
vn 0.612127 6.84004e-18 -0.790759 
vn 0.612127 6.84004e-18 -0.790759 
vn 0.612127 6.84004e-18 -0.790759 
vn 0.612127 6.84004e-18 -0.790759 
vn 0.612127 6.84004e-18 -0.790759 
vn 0.612127 6.84004e-18 -0.790759 
vn 0.612127 6.84004e-18 -0.790759 
vn 0.612127 6.84004e-18 -0.790759 
vn 0.612127 6.84004e-18 -0.790759 
vn 0.612127 6.84004e-18 -0.790759 
vn 0.612127 6.84004e-18 -0.790759 
vn 0.612127 6.84004e-18 -0.790759 
vn 0.612127 6.84004e-18 -0.790759 
vn 0.612127 6.84004e-18 -0.790759 
vn 0.612127 6.84004e-18 -0.790759 
vn 0.612127 6.84004e-18 -0.790759 
vn 0.612127 6.84004e-18 -0.790759 
vn 0.612127 6.84004e-18 -0.790759 
vn 0.612127 6.84004e-18 -0.790759 
vn 0.612127 6.84004e-18 -0.790759 
vn 0.612127 6.84004e-18 -0.790759 
vn 0.612127 6.84004e-18 -0.790759 
vn 0.612127 6.84004e-18 -0.790759 
vn 0.612127 6.84004e-18 -0.790759 
vn 0.612127 6.84004e-18 -0.790759 
vn 0.612127 6.84004e-18 -0.790759 
vn 0.612127 6.84004e-18 -0.790759 
vn 0.612127 6.84004e-18 -0.790759 
vn 0.612127 6.84004e-18 -0.790759 
vn 0.612127 6.84004e-18 -0.790759 
vn 0.612127 6.84004e-18 -0.790759 
vn 0.612127 6.84004e-18 -0.790759 
vn 0.612127 6.84004e-18 -0.790759 
vn 0.612127 6.84004e-18 -0.790759 
vn 0.612127 6.84004e-18 -0.790759 
vn 0.612127 6.84004e-18 -0.790759 
vn 0.612127 6.84004e-18 -0.790759 
vn 0.612127 6.84004e-18 -0.790759 
vn 0.612127 6.84004e-18 -0.790759 
vn 0.612127 6.84004e-18 -0.790759 
vn 0.612127 6.84004e-18 -0.790759 
vn 0.612127 6.84004e-18 -0.790759 
vn 0.612127 6.84004e-18 -0.790759 
vn 0.612127 6.84004e-18 -0.790759 
vn 0.612127 6.84004e-18 -0.790759 
vn 0.612127 6.84004e-18 -0.790759 
vn 0.612127 6.84004e-18 -0.790759 
vn 0.612127 6.84004e-18 -0.790759 
vn 0.612127 6.84004e-18 -0.790759 
vn 0.612127 6.84004e-18 -0.790759 
vn 0.612127 6.84004e-18 -0.790759 
vn 0.612127 6.84004e-18 -0.790759 
vn 0.612127 6.84004e-18 -0.790759 
vn 0.612127 6.84004e-18 -0.790759 
vn 0.612127 6.84004e-18 -0.790759 
vn 0.612127 6.84004e-18 -0.790759 
vn 0.612127 6.84004e-18 -0.790759 
vn 0.612127 6.84004e-18 -0.790759 
vn 0.612127 6.84004e-18 -0.790759 
vn 0.612127 6.84004e-18 -0.790759 
vn 0.612127 6.84004e-18 -0.790759 
vn 0.612127 6.84004e-18 -0.790759 
vn 0.612127 6.84004e-18 -0.790759 
vn 0.612127 6.84004e-18 -0.790759 
vn 0.612127 6.84004e-18 -0.790759 
vn 0.612127 6.84004e-18 -0.790759 
vn 0.612127 6.84004e-18 -0.790759 
vn 0.612127 6.84004e-18 -0.790759 
vn 0.612127 6.84004e-18 -0.790759 
vn 0.612127 6.84004e-18 -0.790759 
vn 0.612127 6.84004e-18 -0.790759 
vn 0.612127 6.84004e-18 -0.790759 
vn 0.612127 6.84004e-18 -0.790759 
vn 0.612127 6.84004e-18 -0.790759 
vn 0.612127 6.84004e-18 -0.790759 
vn 0.612127 6.84004e-18 -0.790759 
vn 0.612127 6.84004e-18 -0.790759 
vn 0.612127 6.84004e-18 -0.790759 
vn 0.612127 6.84004e-18 -0.790759 
vn 0.612127 6.84004e-18 -0.790759 
vn 0.612127 6.84004e-18 -0.790759 
vn 0.612127 6.84004e-18 -0.790759 
vn 0.612127 6.84004e-18 -0.790759 
vn 0.612127 6.84004e-18 -0.790759 
vn 0.612127 6.84004e-18 -0.790759 
vn 0.612127 6.84004e-18 -0.790759 
vn 0.612127 6.84004e-18 -0.790759 
vn 0.612127 6.84004e-18 -0.790759 
vn 0.612127 6.84004e-18 -0.790759 
vn 0.612127 6.84004e-18 -0.790759 
vn 0.612127 6.84004e-18 -0.790759 
vn 0.612127 6.84004e-18 -0.790759 
vn 0.612127 6.84004e-18 -0.790759 
vn 0.612127 6.84004e-18 -0.790759 
vn 0.612127 6.84004e-18 -0.790759 
vn 0.612127 6.84004e-18 -0.790759 
vn 0.612127 6.84004e-18 -0.790759 
vn 0.612127 6.84004e-18 -0.790759 
vn 0.612127 6.84004e-18 -0.790759 
vn 0.612127 6.84004e-18 -0.790759 
vn 0.612127 6.84004e-18 -0.790759 
vn 0.612127 6.84004e-18 -0.790759 
vn 0.612127 6.84004e-18 -0.790759 
vn 0.612127 6.84004e-18 -0.790759 
vn 0.612127 6.84004e-18 -0.790759 
vn 0.612127 6.84004e-18 -0.790759 
vn 0.612127 6.84004e-18 -0.790759 
vn 0.612127 6.84004e-18 -0.790759 
vn 0.612127 6.84004e-18 -0.790759 
vn 0.612127 6.84004e-18 -0.790759 
vn 0.612127 6.84004e-18 -0.790759 
vn 0.612127 6.84004e-18 -0.790759 
vn 0.612127 6.84004e-18 -0.790759 
vn 0.612127 6.84004e-18 -0.790759 
vn 0.612127 6.84004e-18 -0.790759 
vn 0.612127 6.84004e-18 -0.790759 
vn 0.612127 6.84004e-18 -0.790759 
vn 0.612127 6.84004e-18 -0.790759 
vn 0.612127 6.84004e-18 -0.790759 
vn 0.612127 6.84004e-18 -0.790759 
vn 0.612127 6.84004e-18 -0.790759 
vn 0.612127 6.84004e-18 -0.790759 
vn 0.612127 6.84004e-18 -0.790759 
vn 0.612127 6.84004e-18 -0.790759 
vn 0.612127 6.84004e-18 -0.790759 
vn 0.612127 6.84004e-18 -0.790759 
vn 0.612127 6.84004e-18 -0.790759 
vn 0.612127 6.84004e-18 -0.790759 
vn 0.612127 6.84004e-18 -0.790759 
vn 0.612127 6.84004e-18 -0.790759 
vn 0.612127 6.84004e-18 -0.790759 
vn 0.612127 6.84004e-18 -0.790759 
vn 0.612127 6.84004e-18 -0.790759 
vn 0.612127 6.84004e-18 -0.790759 
vn 0.612127 6.84004e-18 -0.790759 
vn 0.612127 6.84004e-18 -0.790759 
vn 0.612127 6.84004e-18 -0.790759 
vn 0.612127 6.84004e-18 -0.790759 
vn 0.612127 6.84004e-18 -0.790759 
f 216//216 217//217 218//218 
f 218//218 219//219 220//220 
f 221//221 222//222 223//223 
f 216//216 222//222 221//221 
f 220//220 224//224 218//218 
f 221//221 217//217 216//216 
f 223//223 225//225 221//221 
f 226//226 227//227 228//228 
f 229//229 230//230 231//231 
f 232//232 233//233 226//226 
f 231//231 234//234 229//229 
f 229//229 228//228 227//227 
f 228//228 232//232 226//226 
f 235//235 236//236 237//237 
f 238//238 239//239 236//236 
f 238//238 240//240 241//241 
f 242//242 243//243 244//244 
f 245//245 244//244 246//246 
f 247//247 246//246 234//234 
f 232//232 248//248 233//233 
f 249//249 233//233 248//248 
f 221//221 250//250 251//251 
f 225//225 252//252 253//253 
f 225//225 235//235 254//254 
f 236//236 235//235 238//238 
f 241//241 255//255 238//238 
f 256//256 257//257 258//258 
f 246//246 247//247 245//245 
f 243//243 259//259 260//260 
f 227//227 230//230 229//229 
f 251//251 249//249 221//221 
f 221//221 225//225 261//261 
f 254//254 252//252 225//225 
f 255//255 239//239 238//238 
f 262//262 263//263 240//240 
f 264//264 262//262 265//265 
f 257//257 266//266 267//267 
f 243//243 242//242 256//256 
f 260//260 244//244 243//243 
f 248//248 221//221 249//249 
f 261//261 268//268 221//221 
f 225//225 269//269 270//270 
f 237//237 254//254 235//235 
f 240//240 265//265 262//262 
f 267//267 266//266 264//264 
f 267//267 271//271 257//257 
f 244//244 245//245 242//242 
f 268//268 250//250 221//221 
f 253//253 269//269 225//225 
f 263//263 272//272 240//240 
f 271//271 258//258 257//257 
f 231//231 247//247 234//234 
f 272//272 241//241 240//240 
f 258//258 243//243 256//256 
f 265//265 267//267 264//264 
f 273//273 274//274 275//275 
f 276//276 277//277 278//278 
f 279//279 280//280 277//277 
f 281//281 282//282 283//283 
f 275//275 284//284 273//273 
f 277//277 276//276 279//279 
f 279//279 282//282 285//285 
f 282//282 279//279 283//283 
f 286//286 287//287 288//288 
f 289//289 290//290 291//291 
f 290//290 292//292 293//293 
f 294//294 295//295 274//274 
f 281//281 296//296 284//284 
f 278//278 297//297 276//276 
f 283//283 296//296 281//281 
f 288//288 292//292 286//286 
f 298//298 299//299 300//300 
f 298//298 301//301 302//302 
f 301//301 303//303 304//304 
f 291//291 305//305 289//289 
f 293//293 306//306 290//290 
f 307//307 308//308 309//309 
f 308//308 307//307 295//295 
f 284//284 275//275 281//281 
f 285//285 280//280 279//279 
f 292//292 290//290 286//286 
f 279//279 276//276 310//310 
f 298//298 311//311 299//299 
f 304//304 302//302 301//301 
f 312//312 313//313 303//303 
f 312//312 314//314 315//315 
f 316//316 317//317 318//318 
f 289//289 319//319 320//320 
f 289//289 321//321 322//322 
f 306//306 291//291 290//290 
f 295//295 294//294 308//308 
f 297//297 323//323 276//276 
f 279//279 324//324 288//288 
f 310//310 325//325 279//279 
f 326//326 327//327 328//328 
f 302//302 311//311 298//298 
f 315//315 313//313 312//312 
f 318//318 323//323 316//316 
f 259//259 329//329 330//330 
f 259//259 243//243 331//331 
f 332//332 243//243 333//333 
f 333//333 334//334 335//335 
f 289//289 336//336 319//319 
f 305//305 321//321 289//289 
f 273//273 294//294 274//274 
f 325//325 324//324 279//279 
f 290//290 289//289 337//337 
f 326//326 337//337 327//327 
f 338//338 328//328 339//339 
f 340//340 339//339 341//341 
f 341//341 300//300 342//342 
f 303//303 301//301 312//312 
f 316//316 343//343 317//317 
f 344//344 343//343 345//345 
f 331//331 329//329 259//259 
f 243//243 346//346 347//347 
f 333//333 348//348 349//349 
f 334//334 350//350 335//335 
f 322//322 336//336 289//289 
f 287//287 279//279 288//288 
f 328//328 351//351 326//326 
f 341//341 352//352 340//340 
f 300//300 341//341 298//298 
f 318//318 276//276 323//323 
f 259//259 353//353 344//344 
f 347//347 331//331 243//243 
f 333//333 349//349 332//332 
f 334//334 320//320 350//350 
f 309//309 354//354 307//307 
f 328//328 338//338 351//351 
f 342//342 352//352 341//341 
f 345//345 259//259 344//344 
f 332//332 346//346 243//243 
f 320//320 334//334 289//289 
f 339//339 340//340 338//338 
f 307//307 355//355 356//356 
f 330//330 353//353 259//259 
f 337//337 326//326 290//290 
f 307//307 354//354 355//355 
f 335//335 348//348 333//333 
f 316//316 345//345 343//343 
f 312//312 356//356 357//357 
f 357//357 314//314 312//312 
f 358//358 359//359 360//360 
f 361//361 362//362 363//363 
f 363//363 364//364 365//365 
f 366//366 367//367 368//368 
f 367//367 366//366 358//358 
f 369//369 366//366 370//370 
f 371//371 369//369 307//307 
f 372//372 373//373 374//374 
f 219//219 375//375 376//376 
f 219//219 377//377 378//378 
f 219//219 218//218 379//379 
f 380//380 381//381 362//362 
f 365//365 382//382 363//363 
f 360//360 359//359 365//365 
f 360//360 367//367 358//358 
f 307//307 312//312 371//371 
f 371//371 312//312 383//383 
f 372//372 383//383 373//373 
f 384//384 374//374 385//385 
f 376//376 386//386 219//219 
f 379//379 377//377 219//219 
f 218//218 387//387 388//388 
f 362//362 361//361 380//380 
f 365//365 364//364 360//360 
f 370//370 307//307 369//369 
f 374//374 389//389 372//372 
f 385//385 390//390 384//384 
f 390//390 385//385 391//391 
f 391//391 392//392 393//393 
f 219//219 394//394 375//375 
f 388//388 379//379 218//218 
f 380//380 395//395 381//381 
f 368//368 370//370 366//366 
f 384//384 389//389 374//374 
f 391//391 396//396 397//397 
f 392//392 398//398 393//393 
f 386//386 399//399 400//400 
f 378//378 394//394 219//219 
f 387//387 218//218 381//381 
f 383//383 372//372 371//371 
f 393//393 396//396 391//391 
f 392//392 401//401 402//402 
f 400//400 401//401 386//386 
f 395//395 387//387 381//381 
f 391//391 397//397 390//390 
f 401//401 403//403 402//402 
f 376//376 399//399 386//386 
f 402//402 398//398 392//392 
f 363//363 382//382 361//361 
f 400//400 403//403 401//401 
f 356//356 312//312 307//307 
f 270//270 261//261 225//225 
f 218//218 224//224 216//216 
o mesh2708
v 0.0527425 0.0375743 0.0178843 
v 0.0527563 0.0377355 0.017895 
v 0.0536745 0.0377355 0.0167089 
v 0.0527015 0.0374206 0.0178526 
v 0.0536607 0.0375743 0.0166982 
v 0.0526354 0.0372817 0.0178014 
v 0.0536197 0.0374206 0.0166665 
v 0.0525472 0.0371639 0.0177332 
v 0.0535536 0.0372817 0.0166153 
v 0.0524411 0.0370729 0.017651 
v 0.0534654 0.0371639 0.016547 
v 0.0523219 0.0370129 0.0175588 
v 0.0533593 0.0370729 0.0164648 
v 0.0521954 0.0369866 0.0174608 
v 0.0532401 0.0370129 0.0163726 
v 0.0520673 0.0369954 0.0173617 
v 0.0531136 0.0369866 0.0162747 
v 0.0519437 0.0370388 0.017266 
v 0.0529855 0.0369954 0.0161755 
v 0.0518304 0.0371148 0.0171783 
v 0.0528619 0.0370388 0.0160799 
v 0.0517327 0.0372198 0.0171026 
v 0.0527486 0.0371148 0.0159922 
v 0.0516551 0.0373489 0.0170426 
v 0.0526509 0.0372198 0.0159165 
v 0.0516012 0.0374961 0.0170009 
v 0.0525733 0.0373489 0.0158564 
v 0.0515737 0.0376544 0.0169795 
v 0.0525194 0.0374961 0.0158147 
v 0.0515737 0.0378166 0.0169795 
v 0.0515702 0.0377355 0.0169768 
v 0.0524884 0.0377355 0.0157907 
v 0.0524919 0.0376544 0.0157934 
v 0.0516012 0.037975 0.0170009 
v 0.0524919 0.0378166 0.0157934 
v 0.0516551 0.0381222 0.0170426 
v 0.0525194 0.037975 0.0158147 
v 0.0517327 0.0382513 0.0171026 
v 0.0525733 0.0381222 0.0158564 
v 0.0518304 0.0383563 0.0171783 
v 0.0526509 0.0382513 0.0159165 
v 0.0519437 0.0384323 0.017266 
v 0.0527486 0.0383563 0.0159922 
v 0.0520673 0.0384757 0.0173617 
v 0.0528619 0.0384323 0.0160799 
v 0.0521954 0.0384844 0.0174608 
v 0.0529855 0.0384757 0.0161755 
v 0.0523219 0.0384582 0.0175588 
v 0.0531136 0.0384844 0.0162747 
v 0.0524411 0.0383982 0.017651 
v 0.0532401 0.0384582 0.0163726 
v 0.0525472 0.0383072 0.0177332 
v 0.0533593 0.0383982 0.0164648 
v 0.0526354 0.0381894 0.0178014 
v 0.0534654 0.0383072 0.016547 
v 0.0527015 0.0380505 0.0178526 
v 0.0535536 0.0381894 0.0166153 
v 0.0527425 0.0378968 0.0178843 
v 0.0536197 0.0380505 0.0166665 
v 0.0536607 0.0378968 0.0166982 
vn -0.772272 0.21497 -0.597816 
vn -0.790759 2.44929e-16 -0.612127 
vn -0.790759 2.44929e-16 -0.612127 
vn -0.717674 0.419889 -0.555551 
vn -0.772272 0.21497 -0.597816 
vn -0.629518 0.605174 -0.48731 
vn -0.717674 0.419889 -0.555551 
vn -0.511927 0.762162 -0.396283 
vn -0.629518 0.605174 -0.48731 
vn -0.370398 0.883512 -0.286725 
vn -0.511927 0.762162 -0.396283 
vn -0.211551 0.96355 -0.163761 
vn -0.370398 0.883512 -0.286725 
vn -0.0428109 0.998533 -0.0331399 
vn -0.211551 0.96355 -0.163761 
vn 0.127931 0.986827 0.0990311 
vn -0.0428109 0.998533 -0.0331399 
vn 0.29269 0.928977 0.226572 
vn 0.127931 0.986827 0.0990311 
vn 0.443764 0.827689 0.343518 
vn 0.29269 0.928977 0.226572 
vn 0.574088 0.687699 0.444401 
vn 0.443764 0.827689 0.343518 
vn 0.677568 0.515554 0.524505 
vn 0.574088 0.687699 0.444401 
vn 0.749366 0.319302 0.580084 
vn 0.677568 0.515554 0.524505 
vn 0.786124 0.108119 0.608539 
vn 0.749366 0.319302 0.580084 
vn 0.786124 -0.108119 0.608539 
vn 0.790759 -3.67394e-16 0.612127 
vn 0.790759 -3.67394e-16 0.612127 
vn 0.786124 0.108119 0.608539 
vn 0.749366 -0.319302 0.580084 
vn 0.786124 -0.108119 0.608539 
vn 0.677568 -0.515554 0.524505 
vn 0.749366 -0.319302 0.580084 
vn 0.574088 -0.687699 0.444401 
vn 0.677568 -0.515554 0.524505 
vn 0.443764 -0.827689 0.343518 
vn 0.574088 -0.687699 0.444401 
vn 0.29269 -0.928977 0.226572 
vn 0.443764 -0.827689 0.343518 
vn 0.127931 -0.986827 0.0990311 
vn 0.29269 -0.928977 0.226572 
vn -0.0428109 -0.998533 -0.0331399 
vn 0.127931 -0.986827 0.0990311 
vn -0.211551 -0.96355 -0.163761 
vn -0.0428109 -0.998533 -0.0331399 
vn -0.370398 -0.883512 -0.286725 
vn -0.211551 -0.96355 -0.163761 
vn -0.511927 -0.762162 -0.396283 
vn -0.370398 -0.883512 -0.286725 
vn -0.629518 -0.605174 -0.48731 
vn -0.511927 -0.762162 -0.396283 
vn -0.717674 -0.419889 -0.555551 
vn -0.629518 -0.605174 -0.48731 
vn -0.772272 -0.21497 -0.597816 
vn -0.717674 -0.419889 -0.555551 
vn -0.772272 -0.21497 -0.597816 
f 404//404 405//405 406//406 
f 407//407 404//404 408//408 
f 409//409 407//407 410//410 
f 411//411 409//409 412//412 
f 413//413 411//411 414//414 
f 415//415 413//413 416//416 
f 417//417 415//415 418//418 
f 419//419 417//417 420//420 
f 421//421 419//419 422//422 
f 423//423 421//421 424//424 
f 425//425 423//423 426//426 
f 427//427 425//425 428//428 
f 429//429 427//427 430//430 
f 431//431 429//429 432//432 
f 433//433 434//434 435//435 
f 435//435 434//434 431//431 
f 431//431 436//436 435//435 
f 437//437 433//433 438//438 
f 439//439 437//437 440//440 
f 441//441 439//439 442//442 
f 443//443 441//441 444//444 
f 445//445 443//443 446//446 
f 447//447 445//445 448//448 
f 449//449 447//447 450//450 
f 451//451 449//449 452//452 
f 453//453 451//451 454//454 
f 455//455 453//453 456//456 
f 457//457 455//455 458//458 
f 459//459 457//457 460//460 
f 461//461 459//459 462//462 
f 405//405 461//461 463//463 
f 463//463 406//406 405//405 
f 462//462 463//463 461//461 
f 460//460 462//462 459//459 
f 458//458 460//460 457//457 
f 456//456 458//458 455//455 
f 454//454 456//456 453//453 
f 452//452 454//454 451//451 
f 450//450 452//452 449//449 
f 448//448 450//450 447//447 
f 446//446 448//448 445//445 
f 444//444 446//446 443//443 
f 442//442 444//444 441//441 
f 440//440 442//442 439//439 
f 438//438 440//440 437//437 
f 435//435 438//438 433//433 
f 432//432 436//436 431//431 
f 430//430 432//432 429//429 
f 428//428 430//430 427//427 
f 426//426 428//428 425//425 
f 424//424 426//426 423//423 
f 422//422 424//424 421//421 
f 420//420 422//422 419//419 
f 418//418 420//420 417//417 
f 416//416 418//418 415//415 
f 414//414 416//416 413//413 
f 412//412 414//414 411//411 
f 410//410 412//412 409//409 
f 408//408 410//410 407//407 
f 406//406 408//408 404//404 
o mesh2709
v 0.0467081 0.0443229 0.0132131 
v 0.0515737 0.0376544 0.0169795 
v 0.0515702 0.0377355 0.0169768 
v 0.0515737 0.0378166 0.0169795 
v 0.0508328 0.0347226 0.0164061 
v 0.0516012 0.0374961 0.0170009 
v 0.0515702 0.0522355 0.0169768 
v 0.0515737 0.0523166 0.0169795 
v 0.0475482 0.0535935 0.0138634 
v 0.0515737 0.0521544 0.0169795 
v 0.0461928 0.0521376 0.0128142 
v 0.0516012 0.037975 0.0170009 
v 0.0451166 0.0503473 0.0119811 
v 0.0516551 0.0373489 0.0170426 
v 0.0469024 0.0445317 0.0133635 
v 0.0468142 0.0444139 0.0132952 
v 0.0517327 0.0382513 0.0171026 
v 0.0516551 0.0381222 0.0170426 
v 0.0516012 0.052475 0.0170009 
v 0.0516551 0.0526222 0.0170426 
v 0.0491193 0.0546469 0.0150796 
v 0.0516012 0.0519961 0.0170009 
v 0.0518304 0.0383563 0.0171783 
v 0.0519437 0.0384323 0.017266 
v 0.0517327 0.0372198 0.0171026 
v 0.0465889 0.0442629 0.0131208 
v 0.0464624 0.0442366 0.0130229 
v 0.0461928 0.0378335 0.0128142 
v 0.0521954 0.0384844 0.0174608 
v 0.0523219 0.0384582 0.0175588 
v 0.0520673 0.0384757 0.0173617 
v 0.0520673 0.0369954 0.0173617 
v 0.0519437 0.0370388 0.017266 
v 0.0526085 0.0346008 0.0177806 
v 0.0521954 0.0369866 0.0174608 
v 0.0543634 0.0349647 0.0191391 
v 0.0524411 0.0370729 0.017651 
v 0.0516551 0.0518489 0.0170426 
v 0.0573342 0.045225 0.0214388 
v 0.0464624 0.0457344 0.0130229 
v 0.0463343 0.0442454 0.0129237 
v 0.0462107 0.0442888 0.0128281 
v 0.0451166 0.0396238 0.0119811 
v 0.0475482 0.0363776 0.0138634 
v 0.0491193 0.0353242 0.0150796 
v 0.0518304 0.0371148 0.0171783 
v 0.0523219 0.0370129 0.0175588 
v 0.0463343 0.0457257 0.0129237 
v 0.0573067 0.0449044 0.0214175 
v 0.0573032 0.0449855 0.0214148 
v 0.0526085 0.0553703 0.0177806 
v 0.0523219 0.0529582 0.0175588 
v 0.0524411 0.0528982 0.017651 
v 0.0508328 0.0552486 0.0164061 
v 0.0520673 0.0529757 0.0173617 
v 0.0518304 0.0528563 0.0171783 
v 0.0519437 0.0529323 0.017266 
v 0.0517327 0.0527513 0.0171026 
v 0.0517327 0.0517198 0.0171026 
v 0.0520673 0.0514954 0.0173617 
v 0.0519437 0.0515388 0.017266 
v 0.0573067 0.0450666 0.0214175 
v 0.0462107 0.0456823 0.0128281 
v 0.0443699 0.0483063 0.0114031 
v 0.0439876 0.04611 0.0111072 
v 0.0459221 0.0453722 0.0126046 
v 0.0439876 0.0438611 0.0111072 
v 0.0458372 0.0449855 0.0125389 
v 0.0470095 0.0448243 0.0134464 
v 0.0469685 0.0446706 0.0134147 
v 0.0524411 0.0383982 0.017651 
v 0.0601949 0.0427499 0.0236533 
v 0.0578003 0.0442454 0.0217996 
v 0.0603872 0.0449856 0.0238021 
v 0.0584755 0.0448243 0.0223222 
v 0.0521954 0.0529844 0.0174608 
v 0.0596271 0.0493524 0.0232137 
v 0.0527425 0.0520743 0.0178843 
v 0.0578003 0.0457257 0.0217996 
v 0.0575634 0.0456063 0.0216162 
v 0.0576768 0.0456823 0.0217039 
v 0.0526354 0.0517817 0.0178014 
v 0.0525472 0.0516639 0.0177332 
v 0.0574657 0.0455013 0.0215406 
v 0.0573342 0.0447461 0.0214388 
v 0.0460974 0.0456063 0.0127404 
v 0.0458682 0.045225 0.012563 
v 0.0458407 0.0449044 0.0125416 
v 0.0525472 0.0383072 0.0177332 
v 0.0526354 0.0381894 0.0178014 
v 0.0527015 0.0374206 0.0178526 
v 0.0526354 0.0372817 0.0178014 
v 0.0527425 0.0375743 0.0178843 
v 0.0560155 0.035797 0.0204179 
v 0.0579284 0.0442366 0.0218987 
v 0.0581741 0.0443229 0.0220889 
v 0.0580549 0.0442629 0.0219967 
v 0.0583684 0.0445317 0.0222393 
v 0.0582802 0.0444139 0.0221711 
v 0.0584345 0.0446706 0.0222905 
v 0.0527015 0.0525505 0.0178526 
v 0.0560155 0.0541741 0.0204179 
v 0.0543634 0.0550065 0.0191391 
v 0.0518304 0.0516148 0.0171783 
v 0.0521954 0.0514866 0.0174608 
v 0.0524411 0.0515729 0.017651 
v 0.0523219 0.0515129 0.0175588 
v 0.0601949 0.0472213 0.0236533 
v 0.0582802 0.0455572 0.0221711 
v 0.0583684 0.0454394 0.0222393 
v 0.0581741 0.0456482 0.0220889 
v 0.0579284 0.0457344 0.0218987 
v 0.0580549 0.0457082 0.0219967 
v 0.0573881 0.0453722 0.0214805 
v 0.0459997 0.0455013 0.0126647 
v 0.0458407 0.0450666 0.0125416 
v 0.0443699 0.0416648 0.0114031 
v 0.0459997 0.0444698 0.0126647 
v 0.0459221 0.0445989 0.0126046 
v 0.0460974 0.0443648 0.0127404 
v 0.0525472 0.0371639 0.0177332 
v 0.0574874 0.0370591 0.0215573 
v 0.0525472 0.0528072 0.0177332 
v 0.0526354 0.0526894 0.0178014 
v 0.0527015 0.0519206 0.0178526 
v 0.0458682 0.0447461 0.012563 
v 0.0470233 0.0449855 0.0134571 
v 0.0573881 0.0445989 0.0214805 
v 0.0584893 0.0449855 0.022333 
v 0.0574657 0.0444698 0.0215406 
v 0.0584345 0.0453005 0.0222905 
v 0.0584755 0.0451468 0.0223222 
v 0.0527425 0.0378968 0.0178843 
v 0.0527563 0.0377355 0.017895 
v 0.0469685 0.0453005 0.0134147 
v 0.0470095 0.0451468 0.0134464 
v 0.0465889 0.0457082 0.0131208 
v 0.0587103 0.0512794 0.022504 
v 0.0574874 0.0529121 0.0215573 
v 0.0587103 0.0386918 0.022504 
v 0.0527015 0.0380505 0.0178526 
v 0.0596271 0.0406187 0.0232137 
v 0.0575634 0.0443648 0.0216162 
v 0.0576768 0.0442888 0.0217039 
v 0.0468142 0.0455572 0.0132952 
v 0.0469024 0.0454394 0.0133635 
v 0.0467081 0.0456482 0.0132131 
v 0.0527425 0.0523968 0.0178843 
v 0.0527563 0.0522355 0.017895 
vn -0.612127 -6.84004e-18 0.790759 
vn -0.612127 -6.84004e-18 0.790759 
vn -0.612127 -6.84004e-18 0.790759 
vn -0.612127 -6.84004e-18 0.790759 
vn -0.612127 -6.84004e-18 0.790759 
vn -0.612127 -6.84004e-18 0.790759 
vn -0.612127 -6.84004e-18 0.790759 
vn -0.612127 -6.84004e-18 0.790759 
vn -0.612127 -6.84004e-18 0.790759 
vn -0.612127 -6.84004e-18 0.790759 
vn -0.612127 -6.84004e-18 0.790759 
vn -0.612127 -6.84004e-18 0.790759 
vn -0.612127 -6.84004e-18 0.790759 
vn -0.612127 -6.84004e-18 0.790759 
vn -0.612127 -6.84004e-18 0.790759 
vn -0.612127 -6.84004e-18 0.790759 
vn -0.612127 -6.84004e-18 0.790759 
vn -0.612127 -6.84004e-18 0.790759 
vn -0.612127 -6.84004e-18 0.790759 
vn -0.612127 -6.84004e-18 0.790759 
vn -0.612127 -6.84004e-18 0.790759 
vn -0.612127 -6.84004e-18 0.790759 
vn -0.612127 -6.84004e-18 0.790759 
vn -0.612127 -6.84004e-18 0.790759 
vn -0.612127 -6.84004e-18 0.790759 
vn -0.612127 -6.84004e-18 0.790759 
vn -0.612127 -6.84004e-18 0.790759 
vn -0.612127 -6.84004e-18 0.790759 
vn -0.612127 -6.84004e-18 0.790759 
vn -0.612127 -6.84004e-18 0.790759 
vn -0.612127 -6.84004e-18 0.790759 
vn -0.612127 -6.84004e-18 0.790759 
vn -0.612127 -6.84004e-18 0.790759 
vn -0.612127 -6.84004e-18 0.790759 
vn -0.612127 -6.84004e-18 0.790759 
vn -0.612127 -6.84004e-18 0.790759 
vn -0.612127 -6.84004e-18 0.790759 
vn -0.612127 -6.84004e-18 0.790759 
vn -0.612127 -6.84004e-18 0.790759 
vn -0.612127 -6.84004e-18 0.790759 
vn -0.612127 -6.84004e-18 0.790759 
vn -0.612127 -6.84004e-18 0.790759 
vn -0.612127 -6.84004e-18 0.790759 
vn -0.612127 -6.84004e-18 0.790759 
vn -0.612127 -6.84004e-18 0.790759 
vn -0.612127 -6.84004e-18 0.790759 
vn -0.612127 -6.84004e-18 0.790759 
vn -0.612127 -6.84004e-18 0.790759 
vn -0.612127 -6.84004e-18 0.790759 
vn -0.612127 -6.84004e-18 0.790759 
vn -0.612127 -6.84004e-18 0.790759 
vn -0.612127 -6.84004e-18 0.790759 
vn -0.612127 -6.84004e-18 0.790759 
vn -0.612127 -6.84004e-18 0.790759 
vn -0.612127 -6.84004e-18 0.790759 
vn -0.612127 -6.84004e-18 0.790759 
vn -0.612127 -6.84004e-18 0.790759 
vn -0.612127 -6.84004e-18 0.790759 
vn -0.612127 -6.84004e-18 0.790759 
vn -0.612127 -6.84004e-18 0.790759 
vn -0.612127 -6.84004e-18 0.790759 
vn -0.612127 -6.84004e-18 0.790759 
vn -0.612127 -6.84004e-18 0.790759 
vn -0.612127 -6.84004e-18 0.790759 
vn -0.612127 -6.84004e-18 0.790759 
vn -0.612127 -6.84004e-18 0.790759 
vn -0.612127 -6.84004e-18 0.790759 
vn -0.612127 -6.84004e-18 0.790759 
vn -0.612127 -6.84004e-18 0.790759 
vn -0.612127 -6.84004e-18 0.790759 
vn -0.612127 -6.84004e-18 0.790759 
vn -0.612127 -6.84004e-18 0.790759 
vn -0.612127 -6.84004e-18 0.790759 
vn -0.612127 -6.84004e-18 0.790759 
vn -0.612127 -6.84004e-18 0.790759 
vn -0.612127 -6.84004e-18 0.790759 
vn -0.612127 -6.84004e-18 0.790759 
vn -0.612127 -6.84004e-18 0.790759 
vn -0.612127 -6.84004e-18 0.790759 
vn -0.612127 -6.84004e-18 0.790759 
vn -0.612127 -6.84004e-18 0.790759 
vn -0.612127 -6.84004e-18 0.790759 
vn -0.612127 -6.84004e-18 0.790759 
vn -0.612127 -6.84004e-18 0.790759 
vn -0.612127 -6.84004e-18 0.790759 
vn -0.612127 -6.84004e-18 0.790759 
vn -0.612127 -6.84004e-18 0.790759 
vn -0.612127 -6.84004e-18 0.790759 
vn -0.612127 -6.84004e-18 0.790759 
vn -0.612127 -6.84004e-18 0.790759 
vn -0.612127 -6.84004e-18 0.790759 
vn -0.612127 -6.84004e-18 0.790759 
vn -0.612127 -6.84004e-18 0.790759 
vn -0.612127 -6.84004e-18 0.790759 
vn -0.612127 -6.84004e-18 0.790759 
vn -0.612127 -6.84004e-18 0.790759 
vn -0.612127 -6.84004e-18 0.790759 
vn -0.612127 -6.84004e-18 0.790759 
vn -0.612127 -6.84004e-18 0.790759 
vn -0.612127 -6.84004e-18 0.790759 
vn -0.612127 -6.84004e-18 0.790759 
vn -0.612127 -6.84004e-18 0.790759 
vn -0.612127 -6.84004e-18 0.790759 
vn -0.612127 -6.84004e-18 0.790759 
vn -0.612127 -6.84004e-18 0.790759 
vn -0.612127 -6.84004e-18 0.790759 
vn -0.612127 -6.84004e-18 0.790759 
vn -0.612127 -6.84004e-18 0.790759 
vn -0.612127 -6.84004e-18 0.790759 
vn -0.612127 -6.84004e-18 0.790759 
vn -0.612127 -6.84004e-18 0.790759 
vn -0.612127 -6.84004e-18 0.790759 
vn -0.612127 -6.84004e-18 0.790759 
vn -0.612127 -6.84004e-18 0.790759 
vn -0.612127 -6.84004e-18 0.790759 
vn -0.612127 -6.84004e-18 0.790759 
vn -0.612127 -6.84004e-18 0.790759 
vn -0.612127 -6.84004e-18 0.790759 
vn -0.612127 -6.84004e-18 0.790759 
vn -0.612127 -6.84004e-18 0.790759 
vn -0.612127 -6.84004e-18 0.790759 
vn -0.612127 -6.84004e-18 0.790759 
vn -0.612127 -6.84004e-18 0.790759 
vn -0.612127 -6.84004e-18 0.790759 
vn -0.612127 -6.84004e-18 0.790759 
vn -0.612127 -6.84004e-18 0.790759 
vn -0.612127 -6.84004e-18 0.790759 
vn -0.612127 -6.84004e-18 0.790759 
vn -0.612127 -6.84004e-18 0.790759 
vn -0.612127 -6.84004e-18 0.790759 
vn -0.612127 -6.84004e-18 0.790759 
vn -0.612127 -6.84004e-18 0.790759 
vn -0.612127 -6.84004e-18 0.790759 
vn -0.612127 -6.84004e-18 0.790759 
vn -0.612127 -6.84004e-18 0.790759 
vn -0.612127 -6.84004e-18 0.790759 
vn -0.612127 -6.84004e-18 0.790759 
vn -0.612127 -6.84004e-18 0.790759 
vn -0.612127 -6.84004e-18 0.790759 
vn -0.612127 -6.84004e-18 0.790759 
vn -0.612127 -6.84004e-18 0.790759 
vn -0.612127 -6.84004e-18 0.790759 
vn -0.612127 -6.84004e-18 0.790759 
vn -0.612127 -6.84004e-18 0.790759 
vn -0.612127 -6.84004e-18 0.790759 
vn -0.612127 -6.84004e-18 0.790759 
vn -0.612127 -6.84004e-18 0.790759 
vn -0.612127 -6.84004e-18 0.790759 
vn -0.612127 -6.84004e-18 0.790759 
f 464//464 465//465 466//466 
f 466//466 467//467 464//464 
f 468//468 469//469 465//465 
f 465//465 464//464 468//468 
f 470//470 471//471 472//472 
f 473//473 470//470 474//474 
f 467//467 475//475 464//464 
f 474//474 476//476 473//473 
f 468//468 477//477 469//469 
f 472//472 474//474 470//470 
f 478//478 479//479 480//480 
f 475//475 481//481 464//464 
f 482//482 483//483 484//484 
f 476//476 485//485 473//473 
f 478//478 486//486 487//487 
f 480//480 486//486 478//478 
f 468//468 488//488 477//477 
f 471//471 482//482 472//472 
f 489//489 490//490 491//491 
f 478//478 492//492 493//493 
f 487//487 494//494 478//478 
f 481//481 480//480 464//464 
f 468//468 495//495 496//496 
f 497//497 498//498 495//495 
f 497//497 499//499 500//500 
f 476//476 501//501 485//485 
f 502//502 476//476 503//503 
f 504//504 505//505 506//506 
f 491//491 507//507 489//489 
f 464//464 489//489 508//508 
f 494//494 492//492 478//478 
f 468//468 509//509 488//488 
f 495//495 468//468 497//497 
f 500//500 510//510 497//497 
f 484//484 472//472 482//482 
f 476//476 511//511 503//503 
f 503//503 512//512 513//513 
f 491//491 490//490 504//504 
f 508//508 468//468 464//464 
f 479//479 464//464 480//480 
f 510//510 498//498 497//497 
f 514//514 515//515 516//516 
f 514//514 517//517 518//518 
f 517//517 519//519 520//520 
f 517//517 484//484 521//521 
f 476//476 522//522 501//501 
f 502//502 523//523 524//524 
f 513//513 525//525 503//503 
f 526//526 476//476 527//527 
f 527//527 528//528 529//529 
f 528//528 530//530 531//531 
f 507//507 508//508 489//489 
f 496//496 509//509 468//468 
f 532//532 533//533 534//534 
f 532//532 535//535 536//536 
f 535//535 537//537 538//538 
f 514//514 539//539 515//515 
f 520//520 518//518 517//517 
f 483//483 521//521 484//484 
f 524//524 476//476 502//502 
f 540//540 541//541 542//542 
f 541//541 543//543 544//544 
f 545//545 546//546 547//547 
f 503//503 548//548 512//512 
f 527//527 549//549 526//526 
f 528//528 550//550 529//529 
f 530//530 551//551 531//531 
f 535//535 552//552 553//553 
f 493//493 534//534 478//478 
f 534//534 535//535 532//532 
f 554//554 555//555 499//499 
f 556//556 554//554 557//557 
f 535//535 558//558 536//536 
f 535//535 559//559 560//560 
f 535//535 561//561 562//562 
f 538//538 563//563 535//535 
f 564//564 565//565 566//566 
f 518//518 539//539 514//514 
f 476//476 567//567 522//522 
f 502//502 568//568 523//523 
f 502//502 569//569 570//570 
f 571//571 572//572 573//573 
f 540//540 574//574 572//572 
f 540//540 575//575 576//576 
f 544//544 542//542 541//541 
f 547//547 543//543 545//545 
f 569//569 502//502 577//577 
f 526//526 511//511 476//476 
f 529//529 578//578 527//527 
f 531//531 579//579 528//528 
f 580//580 581//581 582//582 
f 505//505 583//583 580//580 
f 535//535 534//534 552//552 
f 533//533 478//478 534//534 
f 499//499 555//555 584//584 
f 557//557 585//585 556//556 
f 560//560 558//558 535//535 
f 563//563 561//561 535//535 
f 566//566 586//586 587//587 
f 521//521 519//519 517//517 
f 570//570 568//568 502//502 
f 572//572 571//571 540//540 
f 542//542 575//575 540//540 
f 577//577 547//547 569//569 
f 543//543 541//541 588//588 
f 578//578 549//549 527//527 
f 530//530 589//589 551//551 
f 582//582 530//530 580//580 
f 580//580 506//506 505//505 
f 506//506 491//491 504//504 
f 499//499 557//557 554//554 
f 562//562 559//559 535//535 
f 590//590 591//591 548//548 
f 566//566 516//516 586//586 
f 524//524 567//567 476//476 
f 576//576 574//574 540//540 
f 588//588 545//545 543//543 
f 579//579 550//550 528//528 
f 583//583 581//581 580//580 
f 584//584 500//500 499//499 
f 537//537 592//592 538//538 
f 590//590 593//593 591//591 
f 571//571 594//594 595//595 
f 516//516 566//566 514//514 
f 546//546 569//569 547//547 
f 596//596 597//597 585//585 
f 582//582 589//589 530//530 
f 536//536 590//590 532//532 
f 548//548 598//598 599//599 
f 548//548 503//503 600//600 
f 595//595 537//537 571//571 
f 573//573 594//594 571//571 
f 541//541 601//601 602//602 
f 585//585 603//603 596//596 
f 604//604 596//596 605//605 
f 553//553 604//604 535//535 
f 590//590 606//606 593//593 
f 590//590 536//536 607//607 
f 548//548 608//608 609//609 
f 600//600 610//610 548//548 
f 611//611 602//602 565//565 
f 566//566 587//587 564//564 
f 541//541 540//540 601//601 
f 605//605 535//535 604//604 
f 585//585 597//597 556//556 
f 607//607 606//606 590//590 
f 610//610 608//608 548//548 
f 565//565 564//564 611//611 
f 602//602 612//612 541//541 
f 503//503 525//525 502//502 
f 609//609 598//598 548//548 
f 595//595 592//592 537//537 
f 548//548 599//599 590//590 
f 603//603 605//605 596//596 
f 611//611 612//612 602//602 
o mesh2710
v 0.0584755 0.0448243 0.0223222 
v 0.0584893 0.0449855 0.022333 
v 0.0594075 0.0449855 0.0211468 
v 0.0584345 0.0446706 0.0222905 
v 0.0593937 0.0448243 0.0211361 
v 0.0583684 0.0445317 0.0222393 
v 0.0593527 0.0446706 0.0211044 
v 0.0582802 0.0444139 0.0221711 
v 0.0592866 0.0445317 0.0210532 
v 0.0581741 0.0443229 0.0220889 
v 0.0591984 0.0444139 0.0209849 
v 0.0580549 0.0442629 0.0219967 
v 0.0590923 0.0443229 0.0209028 
v 0.0579284 0.0442366 0.0218987 
v 0.0589731 0.0442629 0.0208105 
v 0.0578003 0.0442454 0.0217996 
v 0.0588466 0.0442366 0.0207126 
v 0.0576768 0.0442888 0.0217039 
v 0.0587185 0.0442454 0.0206134 
v 0.0575634 0.0443648 0.0216162 
v 0.0585949 0.0442888 0.0205178 
v 0.0574657 0.0444698 0.0215406 
v 0.0584816 0.0443648 0.0204301 
v 0.0573881 0.0445989 0.0214805 
v 0.0583839 0.0444698 0.0203544 
v 0.0573342 0.0447461 0.0214388 
v 0.0583063 0.0445989 0.0202943 
v 0.0573067 0.0449044 0.0214175 
v 0.0582524 0.0447461 0.0202527 
v 0.0573067 0.0450666 0.0214175 
v 0.0573032 0.0449855 0.0214148 
v 0.0582214 0.0449855 0.0202286 
v 0.0582249 0.0449044 0.0202313 
v 0.0573342 0.045225 0.0214388 
v 0.0582249 0.0450666 0.0202313 
v 0.0573881 0.0453722 0.0214805 
v 0.0582524 0.045225 0.0202527 
v 0.0574657 0.0455013 0.0215406 
v 0.0583063 0.0453722 0.0202943 
v 0.0575634 0.0456063 0.0216162 
v 0.0583839 0.0455013 0.0203544 
v 0.0576768 0.0456823 0.0217039 
v 0.0584816 0.0456063 0.0204301 
v 0.0578003 0.0457257 0.0217996 
v 0.0585949 0.0456823 0.0205178 
v 0.0579284 0.0457344 0.0218987 
v 0.0587185 0.0457257 0.0206134 
v 0.0580549 0.0457082 0.0219967 
v 0.0588466 0.0457344 0.0207126 
v 0.0581741 0.0456482 0.0220889 
v 0.0589731 0.0457082 0.0208105 
v 0.0582802 0.0455572 0.0221711 
v 0.0590923 0.0456482 0.0209028 
v 0.0583684 0.0454394 0.0222393 
v 0.0591984 0.0455572 0.0209849 
v 0.0584345 0.0453005 0.0222905 
v 0.0592866 0.0454394 0.0210532 
v 0.0584755 0.0451468 0.0223222 
v 0.0593527 0.0453005 0.0211044 
v 0.0593937 0.0451468 0.0211361 
vn -0.772272 0.21497 -0.597816 
vn -0.790759 2.44929e-16 -0.612127 
vn -0.790759 2.44929e-16 -0.612127 
vn -0.717674 0.419889 -0.555551 
vn -0.772272 0.21497 -0.597816 
vn -0.629518 0.605174 -0.48731 
vn -0.717674 0.419889 -0.555551 
vn -0.511927 0.762162 -0.396283 
vn -0.629518 0.605174 -0.48731 
vn -0.370398 0.883512 -0.286725 
vn -0.511927 0.762162 -0.396283 
vn -0.211551 0.96355 -0.163761 
vn -0.370398 0.883512 -0.286725 
vn -0.0428109 0.998533 -0.0331399 
vn -0.211551 0.96355 -0.163761 
vn 0.127931 0.986827 0.0990311 
vn -0.0428109 0.998533 -0.0331399 
vn 0.29269 0.928977 0.226572 
vn 0.127931 0.986827 0.0990311 
vn 0.443764 0.827689 0.343518 
vn 0.29269 0.928977 0.226572 
vn 0.574088 0.687699 0.444401 
vn 0.443764 0.827689 0.343518 
vn 0.677568 0.515554 0.524505 
vn 0.574088 0.687699 0.444401 
vn 0.749366 0.319302 0.580084 
vn 0.677568 0.515554 0.524505 
vn 0.786124 0.108119 0.608539 
vn 0.749366 0.319302 0.580084 
vn 0.786124 -0.108119 0.608539 
vn 0.790759 -3.67394e-16 0.612127 
vn 0.790759 -3.67394e-16 0.612127 
vn 0.786124 0.108119 0.608539 
vn 0.749366 -0.319302 0.580084 
vn 0.786124 -0.108119 0.608539 
vn 0.677568 -0.515554 0.524505 
vn 0.749366 -0.319302 0.580084 
vn 0.574088 -0.687699 0.444401 
vn 0.677568 -0.515554 0.524505 
vn 0.443764 -0.827689 0.343518 
vn 0.574088 -0.687699 0.444401 
vn 0.29269 -0.928977 0.226572 
vn 0.443764 -0.827689 0.343518 
vn 0.127931 -0.986827 0.0990311 
vn 0.29269 -0.928977 0.226572 
vn -0.0428109 -0.998533 -0.0331399 
vn 0.127931 -0.986827 0.0990311 
vn -0.211551 -0.96355 -0.163761 
vn -0.0428109 -0.998533 -0.0331399 
vn -0.370398 -0.883512 -0.286725 
vn -0.211551 -0.96355 -0.163761 
vn -0.511927 -0.762162 -0.396283 
vn -0.370398 -0.883512 -0.286725 
vn -0.629518 -0.605174 -0.48731 
vn -0.511927 -0.762162 -0.396283 
vn -0.717674 -0.419889 -0.555551 
vn -0.629518 -0.605174 -0.48731 
vn -0.772272 -0.21497 -0.597816 
vn -0.717674 -0.419889 -0.555551 
vn -0.772272 -0.21497 -0.597816 
f 613//613 614//614 615//615 
f 616//616 613//613 617//617 
f 618//618 616//616 619//619 
f 620//620 618//618 621//621 
f 622//622 620//620 623//623 
f 624//624 622//622 625//625 
f 626//626 624//624 627//627 
f 628//628 626//626 629//629 
f 630//630 628//628 631//631 
f 632//632 630//630 633//633 
f 634//634 632//632 635//635 
f 636//636 634//634 637//637 
f 638//638 636//636 639//639 
f 640//640 638//638 641//641 
f 642//642 643//643 644//644 
f 644//644 643//643 640//640 
f 640//640 645//645 644//644 
f 646//646 642//642 647//647 
f 648//648 646//646 649//649 
f 650//650 648//648 651//651 
f 652//652 650//650 653//653 
f 654//654 652//652 655//655 
f 656//656 654//654 657//657 
f 658//658 656//656 659//659 
f 660//660 658//658 661//661 
f 662//662 660//660 663//663 
f 664//664 662//662 665//665 
f 666//666 664//664 667//667 
f 668//668 666//666 669//669 
f 670//670 668//668 671//671 
f 614//614 670//670 672//672 
f 672//672 615//615 614//614 
f 671//671 672//672 670//670 
f 669//669 671//671 668//668 
f 667//667 669//669 666//666 
f 665//665 667//667 664//664 
f 663//663 665//665 662//662 
f 661//661 663//663 660//660 
f 659//659 661//661 658//658 
f 657//657 659//659 656//656 
f 655//655 657//657 654//654 
f 653//653 655//655 652//652 
f 651//651 653//653 650//650 
f 649//649 651//651 648//648 
f 647//647 649//649 646//646 
f 644//644 647//647 642//642 
f 641//641 645//645 640//640 
f 639//639 641//641 638//638 
f 637//637 639//639 636//636 
f 635//635 637//637 634//634 
f 633//633 635//635 632//632 
f 631//631 633//633 630//630 
f 629//629 631//631 628//628 
f 627//627 629//629 626//626 
f 625//625 627//627 624//624 
f 623//623 625//625 622//622 
f 621//621 623//623 620//620 
f 619//619 621//621 618//618 
f 617//617 619//619 616//616 
f 615//615 617//617 613//613 
o mesh2711
v 0.0527425 0.0520743 0.0178843 
v 0.0527563 0.0522355 0.017895 
v 0.0536745 0.0522355 0.0167089 
v 0.0527015 0.0519206 0.0178526 
v 0.0536607 0.0520743 0.0166982 
v 0.0526354 0.0517817 0.0178014 
v 0.0536197 0.0519206 0.0166665 
v 0.0525472 0.0516639 0.0177332 
v 0.0535536 0.0517817 0.0166153 
v 0.0524411 0.0515729 0.017651 
v 0.0534654 0.0516639 0.016547 
v 0.0523219 0.0515129 0.0175588 
v 0.0533593 0.0515729 0.0164648 
v 0.0521954 0.0514866 0.0174608 
v 0.0532401 0.0515129 0.0163726 
v 0.0520673 0.0514954 0.0173617 
v 0.0531136 0.0514866 0.0162747 
v 0.0519437 0.0515388 0.017266 
v 0.0529855 0.0514954 0.0161755 
v 0.0518304 0.0516148 0.0171783 
v 0.0528619 0.0515388 0.0160799 
v 0.0517327 0.0517198 0.0171026 
v 0.0527486 0.0516148 0.0159922 
v 0.0516551 0.0518489 0.0170426 
v 0.0526509 0.0517198 0.0159165 
v 0.0516012 0.0519961 0.0170009 
v 0.0525733 0.0518489 0.0158564 
v 0.0515737 0.0521544 0.0169795 
v 0.0525194 0.0519961 0.0158147 
v 0.0515737 0.0523166 0.0169795 
v 0.0515702 0.0522355 0.0169768 
v 0.0524884 0.0522355 0.0157907 
v 0.0524919 0.0521544 0.0157934 
v 0.0516012 0.052475 0.0170009 
v 0.0524919 0.0523166 0.0157934 
v 0.0516551 0.0526222 0.0170426 
v 0.0525194 0.052475 0.0158147 
v 0.0517327 0.0527513 0.0171026 
v 0.0525733 0.0526222 0.0158564 
v 0.0518304 0.0528563 0.0171783 
v 0.0526509 0.0527513 0.0159165 
v 0.0519437 0.0529323 0.017266 
v 0.0527486 0.0528563 0.0159922 
v 0.0520673 0.0529757 0.0173617 
v 0.0528619 0.0529323 0.0160799 
v 0.0521954 0.0529844 0.0174608 
v 0.0529855 0.0529757 0.0161755 
v 0.0523219 0.0529582 0.0175588 
v 0.0531136 0.0529844 0.0162747 
v 0.0524411 0.0528982 0.017651 
v 0.0532401 0.0529582 0.0163726 
v 0.0525472 0.0528072 0.0177332 
v 0.0533593 0.0528982 0.0164648 
v 0.0526354 0.0526894 0.0178014 
v 0.0534654 0.0528072 0.016547 
v 0.0527015 0.0525505 0.0178526 
v 0.0535536 0.0526894 0.0166153 
v 0.0527425 0.0523968 0.0178843 
v 0.0536197 0.0525505 0.0166665 
v 0.0536607 0.0523968 0.0166982 
vn -0.772272 0.21497 -0.597816 
vn -0.790759 2.44929e-16 -0.612127 
vn -0.790759 2.44929e-16 -0.612127 
vn -0.717674 0.419889 -0.555551 
vn -0.772272 0.21497 -0.597816 
vn -0.629518 0.605174 -0.48731 
vn -0.717674 0.419889 -0.555551 
vn -0.511927 0.762162 -0.396283 
vn -0.629518 0.605174 -0.48731 
vn -0.370398 0.883512 -0.286725 
vn -0.511927 0.762162 -0.396283 
vn -0.211551 0.96355 -0.163761 
vn -0.370398 0.883512 -0.286725 
vn -0.0428109 0.998533 -0.0331399 
vn -0.211551 0.96355 -0.163761 
vn 0.127931 0.986827 0.0990311 
vn -0.0428109 0.998533 -0.0331399 
vn 0.29269 0.928977 0.226572 
vn 0.127931 0.986827 0.0990311 
vn 0.443764 0.827689 0.343518 
vn 0.29269 0.928977 0.226572 
vn 0.574088 0.687699 0.444401 
vn 0.443764 0.827689 0.343518 
vn 0.677568 0.515554 0.524505 
vn 0.574088 0.687699 0.444401 
vn 0.749366 0.319302 0.580084 
vn 0.677568 0.515554 0.524505 
vn 0.786124 0.108119 0.608539 
vn 0.749366 0.319302 0.580084 
vn 0.786124 -0.108119 0.608539 
vn 0.790759 -3.67394e-16 0.612127 
vn 0.790759 -3.67394e-16 0.612127 
vn 0.786124 0.108119 0.608539 
vn 0.749366 -0.319302 0.580084 
vn 0.786124 -0.108119 0.608539 
vn 0.677568 -0.515554 0.524505 
vn 0.749366 -0.319302 0.580084 
vn 0.574088 -0.687699 0.444401 
vn 0.677568 -0.515554 0.524505 
vn 0.443764 -0.827689 0.343518 
vn 0.574088 -0.687699 0.444401 
vn 0.29269 -0.928977 0.226572 
vn 0.443764 -0.827689 0.343518 
vn 0.127931 -0.986827 0.0990311 
vn 0.29269 -0.928977 0.226572 
vn -0.0428109 -0.998533 -0.0331399 
vn 0.127931 -0.986827 0.0990311 
vn -0.211551 -0.96355 -0.163761 
vn -0.0428109 -0.998533 -0.0331399 
vn -0.370398 -0.883512 -0.286725 
vn -0.211551 -0.96355 -0.163761 
vn -0.511927 -0.762162 -0.396283 
vn -0.370398 -0.883512 -0.286725 
vn -0.629518 -0.605174 -0.48731 
vn -0.511927 -0.762162 -0.396283 
vn -0.717674 -0.419889 -0.555551 
vn -0.629518 -0.605174 -0.48731 
vn -0.772272 -0.21497 -0.597816 
vn -0.717674 -0.419889 -0.555551 
vn -0.772272 -0.21497 -0.597816 
f 673//673 674//674 675//675 
f 676//676 673//673 677//677 
f 678//678 676//676 679//679 
f 680//680 678//678 681//681 
f 682//682 680//680 683//683 
f 684//684 682//682 685//685 
f 686//686 684//684 687//687 
f 688//688 686//686 689//689 
f 690//690 688//688 691//691 
f 692//692 690//690 693//693 
f 694//694 692//692 695//695 
f 696//696 694//694 697//697 
f 698//698 696//696 699//699 
f 700//700 698//698 701//701 
f 702//702 703//703 704//704 
f 704//704 703//703 700//700 
f 700//700 705//705 704//704 
f 706//706 702//702 707//707 
f 708//708 706//706 709//709 
f 710//710 708//708 711//711 
f 712//712 710//710 713//713 
f 714//714 712//712 715//715 
f 716//716 714//714 717//717 
f 718//718 716//716 719//719 
f 720//720 718//718 721//721 
f 722//722 720//720 723//723 
f 724//724 722//722 725//725 
f 726//726 724//724 727//727 
f 728//728 726//726 729//729 
f 730//730 728//728 731//731 
f 674//674 730//730 732//732 
f 732//732 675//675 674//674 
f 731//731 732//732 730//730 
f 729//729 731//731 728//728 
f 727//727 729//729 726//726 
f 725//725 727//727 724//724 
f 723//723 725//725 722//722 
f 721//721 723//723 720//720 
f 719//719 721//721 718//718 
f 717//717 719//719 716//716 
f 715//715 717//717 714//714 
f 713//713 715//715 712//712 
f 711//711 713//713 710//710 
f 709//709 711//711 708//708 
f 707//707 709//709 706//706 
f 704//704 707//707 702//702 
f 701//701 705//705 700//700 
f 699//699 701//701 698//698 
f 697//697 699//699 696//696 
f 695//695 697//697 694//694 
f 693//693 695//695 692//692 
f 691//691 693//693 690//690 
f 689//689 691//691 688//688 
f 687//687 689//689 686//686 
f 685//685 687//687 684//684 
f 683//683 685//685 682//682 
f 681//681 683//683 680//680 
f 679//679 681//681 678//678 
f 677//677 679//679 676//676 
f 675//675 677//677 673//673 
o mesh2712
v 0.0470095 0.0448243 0.0134464 
v 0.0470233 0.0449855 0.0134571 
v 0.0479415 0.0449855 0.012271 
v 0.0469685 0.0446706 0.0134147 
v 0.0479277 0.0448243 0.0122602 
v 0.0469024 0.0445317 0.0133635 
v 0.0478867 0.0446706 0.0122285 
v 0.0468142 0.0444139 0.0132952 
v 0.0478206 0.0445317 0.0121774 
v 0.0467081 0.0443229 0.0132131 
v 0.0477324 0.0444139 0.0121091 
v 0.0465889 0.0442629 0.0131208 
v 0.0476262 0.0443229 0.0120269 
v 0.0464624 0.0442366 0.0130229 
v 0.0475071 0.0442629 0.0119347 
v 0.0463343 0.0442454 0.0129237 
v 0.0473806 0.0442366 0.0118367 
v 0.0462107 0.0442888 0.0128281 
v 0.0472525 0.0442454 0.0117376 
v 0.0460974 0.0443648 0.0127404 
v 0.0471289 0.0442888 0.011642 
v 0.0459997 0.0444698 0.0126647 
v 0.0470156 0.0443648 0.0115542 
v 0.0459221 0.0445989 0.0126046 
v 0.0469179 0.0444698 0.0114786 
v 0.0458682 0.0447461 0.012563 
v 0.0468403 0.0445989 0.0114185 
v 0.0458407 0.0449044 0.0125416 
v 0.0467864 0.0447461 0.0113768 
v 0.0458407 0.0450666 0.0125416 
v 0.0458372 0.0449855 0.0125389 
v 0.0467554 0.0449855 0.0113528 
v 0.0467589 0.0449044 0.0113555 
v 0.0458682 0.045225 0.012563 
v 0.0467589 0.0450666 0.0113555 
v 0.0459221 0.0453722 0.0126046 
v 0.0467864 0.045225 0.0113768 
v 0.0459997 0.0455013 0.0126647 
v 0.0468403 0.0453722 0.0114185 
v 0.0460974 0.0456063 0.0127404 
v 0.0469179 0.0455013 0.0114786 
v 0.0462107 0.0456823 0.0128281 
v 0.0470156 0.0456063 0.0115542 
v 0.0463343 0.0457257 0.0129237 
v 0.0471289 0.0456823 0.011642 
v 0.0464624 0.0457344 0.0130229 
v 0.0472525 0.0457257 0.0117376 
v 0.0465889 0.0457082 0.0131208 
v 0.0473806 0.0457344 0.0118367 
v 0.0467081 0.0456482 0.0132131 
v 0.0475071 0.0457082 0.0119347 
v 0.0468142 0.0455572 0.0132952 
v 0.0476262 0.0456482 0.0120269 
v 0.0469024 0.0454394 0.0133635 
v 0.0477324 0.0455572 0.0121091 
v 0.0469685 0.0453005 0.0134147 
v 0.0478206 0.0454394 0.0121774 
v 0.0470095 0.0451468 0.0134464 
v 0.0478867 0.0453005 0.0122285 
v 0.0479277 0.0451468 0.0122602 
vn -0.772272 0.21497 -0.597816 
vn -0.790759 2.44929e-16 -0.612127 
vn -0.790759 2.44929e-16 -0.612127 
vn -0.717674 0.419889 -0.555551 
vn -0.772272 0.21497 -0.597816 
vn -0.629518 0.605174 -0.48731 
vn -0.717674 0.419889 -0.555551 
vn -0.511927 0.762162 -0.396283 
vn -0.629518 0.605174 -0.48731 
vn -0.370398 0.883512 -0.286725 
vn -0.511927 0.762162 -0.396283 
vn -0.211551 0.96355 -0.163761 
vn -0.370398 0.883512 -0.286725 
vn -0.0428109 0.998533 -0.0331399 
vn -0.211551 0.96355 -0.163761 
vn 0.127931 0.986827 0.0990311 
vn -0.0428109 0.998533 -0.0331399 
vn 0.29269 0.928977 0.226572 
vn 0.127931 0.986827 0.0990311 
vn 0.443764 0.827689 0.343518 
vn 0.29269 0.928977 0.226572 
vn 0.574088 0.687699 0.444401 
vn 0.443764 0.827689 0.343518 
vn 0.677568 0.515554 0.524505 
vn 0.574088 0.687699 0.444401 
vn 0.749366 0.319302 0.580084 
vn 0.677568 0.515554 0.524505 
vn 0.786124 0.108119 0.608539 
vn 0.749366 0.319302 0.580084 
vn 0.786124 -0.108119 0.608539 
vn 0.790759 -3.67394e-16 0.612127 
vn 0.790759 -3.67394e-16 0.612127 
vn 0.786124 0.108119 0.608539 
vn 0.749366 -0.319302 0.580084 
vn 0.786124 -0.108119 0.608539 
vn 0.677568 -0.515554 0.524505 
vn 0.749366 -0.319302 0.580084 
vn 0.574088 -0.687699 0.444401 
vn 0.677568 -0.515554 0.524505 
vn 0.443764 -0.827689 0.343518 
vn 0.574088 -0.687699 0.444401 
vn 0.29269 -0.928977 0.226572 
vn 0.443764 -0.827689 0.343518 
vn 0.127931 -0.986827 0.0990311 
vn 0.29269 -0.928977 0.226572 
vn -0.0428109 -0.998533 -0.0331399 
vn 0.127931 -0.986827 0.0990311 
vn -0.211551 -0.96355 -0.163761 
vn -0.0428109 -0.998533 -0.0331399 
vn -0.370398 -0.883512 -0.286725 
vn -0.211551 -0.96355 -0.163761 
vn -0.511927 -0.762162 -0.396283 
vn -0.370398 -0.883512 -0.286725 
vn -0.629518 -0.605174 -0.48731 
vn -0.511927 -0.762162 -0.396283 
vn -0.717674 -0.419889 -0.555551 
vn -0.629518 -0.605174 -0.48731 
vn -0.772272 -0.21497 -0.597816 
vn -0.717674 -0.419889 -0.555551 
vn -0.772272 -0.21497 -0.597816 
f 733//733 734//734 735//735 
f 736//736 733//733 737//737 
f 738//738 736//736 739//739 
f 740//740 738//738 741//741 
f 742//742 740//740 743//743 
f 744//744 742//742 745//745 
f 746//746 744//744 747//747 
f 748//748 746//746 749//749 
f 750//750 748//748 751//751 
f 752//752 750//750 753//753 
f 754//754 752//752 755//755 
f 756//756 754//754 757//757 
f 758//758 756//756 759//759 
f 760//760 758//758 761//761 
f 762//762 763//763 764//764 
f 764//764 763//763 760//760 
f 760//760 765//765 764//764 
f 766//766 762//762 767//767 
f 768//768 766//766 769//769 
f 770//770 768//768 771//771 
f 772//772 770//770 773//773 
f 774//774 772//772 775//775 
f 776//776 774//774 777//777 
f 778//778 776//776 779//779 
f 780//780 778//778 781//781 
f 782//782 780//780 783//783 
f 784//784 782//782 785//785 
f 786//786 784//784 787//787 
f 788//788 786//786 789//789 
f 790//790 788//788 791//791 
f 734//734 790//790 792//792 
f 792//792 735//735 734//734 
f 791//791 792//792 790//790 
f 789//789 791//791 788//788 
f 787//787 789//789 786//786 
f 785//785 787//787 784//784 
f 783//783 785//785 782//782 
f 781//781 783//783 780//780 
f 779//779 781//781 778//778 
f 777//777 779//779 776//776 
f 775//775 777//777 774//774 
f 773//773 775//775 772//772 
f 771//771 773//773 770//770 
f 769//769 771//771 768//768 
f 767//767 769//769 766//766 
f 764//764 767//767 762//762 
f 761//761 765//765 760//760 
f 759//759 761//761 758//758 
f 757//757 759//759 756//756 
f 755//755 757//757 754//754 
f 753//753 755//755 752//752 
f 751//751 753//753 750//750 
f 749//749 751//751 748//748 
f 747//747 749//749 746//746 
f 745//745 747//747 744//744 
f 743//743 745//745 742//742 
f 741//741 743//743 740//740 
f 739//739 741//741 738//738 
f 737//737 739//739 736//736 
f 735//735 737//737 733//733 
o mesh2713
v 0.0603872 0.0449856 0.0238021 
v 0.0613054 0.0449856 0.022616 
v 0.0611131 0.0472213 0.0224671 
v 0.0596271 0.0493524 0.0232137 
v 0.0601949 0.0472213 0.0236533 
v 0.0610063 0.0476223 0.0223844 
v 0.0605453 0.0493524 0.0220276 
v 0.0596285 0.0512794 0.0213179 
v 0.0587103 0.0512794 0.022504 
v 0.0584055 0.0529121 0.0203712 
v 0.0574874 0.0529121 0.0215573 
v 0.0569336 0.0541741 0.0192318 
v 0.0560155 0.0541741 0.0204179 
v 0.0552816 0.0550065 0.017953 
v 0.0543634 0.0550065 0.0191391 
v 0.0535267 0.0553703 0.0165945 
v 0.0526085 0.0553703 0.0177806 
v 0.051751 0.0552486 0.0152199 
v 0.0491193 0.0546469 0.0150796 
v 0.0508328 0.0552486 0.0164061 
v 0.0509964 0.0549836 0.0146358 
v 0.0500375 0.0546469 0.0138935 
v 0.0484664 0.0535935 0.0126773 
v 0.0475482 0.0535935 0.0138634 
v 0.047111 0.0521376 0.0116281 
v 0.0461928 0.0521376 0.0128142 
v 0.0460348 0.0503473 0.010795 
v 0.0451166 0.0503473 0.0119811 
v 0.0452881 0.0483063 0.010217 
v 0.0439876 0.04611 0.0111072 
v 0.0443699 0.0483063 0.0114031 
v 0.045169 0.0476223 0.0101248 
v 0.0439876 0.0438611 0.0111072 
v 0.0448576 0.0449856 0.00988372 
v 0.0449058 0.04611 0.00992104 
v 0.0449058 0.0438611 0.00992104 
v 0.0452881 0.0416648 0.010217 
v 0.0443699 0.0416648 0.0114031 
v 0.0460348 0.0396238 0.010795 
v 0.0451166 0.0396238 0.0119811 
v 0.047111 0.0378335 0.0116281 
v 0.0461928 0.0378335 0.0128142 
v 0.0484664 0.0363776 0.0126773 
v 0.0475482 0.0363776 0.0138634 
v 0.0500375 0.0353242 0.0138935 
v 0.0491193 0.0353242 0.0150796 
v 0.0509964 0.0349875 0.0146358 
v 0.0508328 0.0347226 0.0164061 
v 0.051751 0.0347226 0.0152199 
v 0.0535267 0.0346008 0.0165945 
v 0.0526085 0.0346008 0.0177806 
v 0.0552816 0.0349647 0.017953 
v 0.0543634 0.0349647 0.0191391 
v 0.0569336 0.035797 0.0192318 
v 0.0560155 0.035797 0.0204179 
v 0.0584055 0.0370591 0.0203712 
v 0.0574874 0.0370591 0.0215573 
v 0.0596285 0.0386918 0.0213179 
v 0.0587103 0.0386918 0.022504 
v 0.0605453 0.0406187 0.0220276 
v 0.0596271 0.0406187 0.0232137 
v 0.0611131 0.0427499 0.0224671 
v 0.0601949 0.0427499 0.0236533 
vn 0.790759 0 0.612127 
vn 0.790759 0 0.612127 
vn 0.772272 0.21497 0.597816 
vn 0.717674 0.419889 0.555551 
vn 0.772272 0.21497 0.597816 
vn 0.764734 0.254444 0.59198 
vn 0.717674 0.419889 0.555551 
vn 0.629518 0.605174 0.48731 
vn 0.629518 0.605174 0.48731 
vn 0.511927 0.762162 0.396283 
vn 0.511927 0.762162 0.396283 
vn 0.370398 0.883512 0.286725 
vn 0.370398 0.883512 0.286725 
vn 0.211551 0.96355 0.163761 
vn 0.211551 0.96355 0.163761 
vn 0.0428109 0.998533 0.0331399 
vn 0.0428109 0.998533 0.0331399 
vn -0.127931 0.986827 -0.0990311 
vn -0.29269 0.928977 -0.226572 
vn -0.127931 0.986827 -0.0990311 
vn -0.201653 0.966938 -0.1561 
vn -0.29269 0.928977 -0.226572 
vn -0.443764 0.827689 -0.343518 
vn -0.443764 0.827689 -0.343518 
vn -0.574088 0.687699 -0.444401 
vn -0.574088 0.687699 -0.444401 
vn -0.677568 0.515554 -0.524505 
vn -0.677568 0.515554 -0.524505 
vn -0.749366 0.319302 -0.580084 
vn -0.786124 0.108119 -0.608539 
vn -0.749366 0.319302 -0.580084 
vn -0.764656 0.254814 -0.591921 
vn -0.786124 -0.108119 -0.608539 
vn -0.790759 3.67394e-16 -0.612127 
vn -0.786124 0.108119 -0.608539 
vn -0.786124 -0.108119 -0.608539 
vn -0.749366 -0.319302 -0.580084 
vn -0.749366 -0.319302 -0.580084 
vn -0.677568 -0.515554 -0.524505 
vn -0.677568 -0.515554 -0.524505 
vn -0.574088 -0.687699 -0.444401 
vn -0.574088 -0.687699 -0.444401 
vn -0.443764 -0.827689 -0.343518 
vn -0.443764 -0.827689 -0.343518 
vn -0.29269 -0.928977 -0.226572 
vn -0.29269 -0.928977 -0.226572 
vn -0.201653 -0.966938 -0.1561 
vn -0.127931 -0.986827 -0.0990311 
vn -0.127931 -0.986827 -0.0990311 
vn 0.0428109 -0.998533 0.0331399 
vn 0.0428109 -0.998533 0.0331399 
vn 0.211551 -0.96355 0.163761 
vn 0.211551 -0.96355 0.163761 
vn 0.370398 -0.883512 0.286725 
vn 0.370398 -0.883512 0.286725 
vn 0.511927 -0.762162 0.396283 
vn 0.511927 -0.762162 0.396283 
vn 0.629518 -0.605174 0.48731 
vn 0.629518 -0.605174 0.48731 
vn 0.717674 -0.419889 0.555551 
vn 0.717674 -0.419889 0.555551 
vn 0.772272 -0.21497 0.597816 
vn 0.772272 -0.21497 0.597816 
f 793//793 794//794 795//795 
f 796//796 797//797 798//798 
f 797//797 795//795 798//798 
f 796//796 799//799 800//800 
f 801//801 800//800 802//802 
f 803//803 802//802 804//804 
f 805//805 804//804 806//806 
f 807//807 806//806 808//808 
f 809//809 808//808 810//810 
f 811//811 812//812 813//813 
f 812//812 810//810 813//813 
f 811//811 814//814 815//815 
f 816//816 815//815 817//817 
f 818//818 817//817 819//819 
f 820//820 819//819 821//821 
f 822//822 823//823 824//824 
f 823//823 821//821 824//824 
f 825//825 822//822 826//826 
f 822//822 827//827 826//826 
f 825//825 828//828 829//829 
f 830//830 829//829 831//831 
f 832//832 831//831 833//833 
f 834//834 833//833 835//835 
f 836//836 835//835 837//837 
f 838//838 837//837 839//839 
f 839//839 840//840 838//838 
f 840//840 841//841 842//842 
f 843//843 842//842 844//844 
f 845//845 844//844 846//846 
f 847//847 846//846 848//848 
f 849//849 848//848 850//850 
f 851//851 850//850 852//852 
f 853//853 852//852 854//854 
f 855//855 854//854 794//794 
f 794//794 793//793 855//855 
f 854//854 855//855 853//853 
f 852//852 853//853 851//851 
f 850//850 851//851 849//849 
f 848//848 849//849 847//847 
f 846//846 847//847 845//845 
f 844//844 845//845 843//843 
f 842//842 843//843 840//840 
f 839//839 841//841 840//840 
f 837//837 838//838 836//836 
f 835//835 836//836 834//834 
f 833//833 834//834 832//832 
f 831//831 832//832 830//830 
f 829//829 830//830 825//825 
f 826//826 828//828 825//825 
f 824//824 827//827 822//822 
f 821//821 823//823 820//820 
f 819//819 820//820 818//818 
f 817//817 818//818 816//816 
f 815//815 816//816 811//811 
f 813//813 814//814 811//811 
f 810//810 812//812 809//809 
f 808//808 809//809 807//807 
f 806//806 807//807 805//805 
f 804//804 805//805 803//803 
f 802//802 803//803 801//801 
f 800//800 801//801 796//796 
f 798//798 799//799 796//796 
f 795//795 797//797 793//793 
