# OBJ generated by ONSHAPE BY PTC INC, 1.221 Units = meters
mtllib Part_2_3.mtl
g Part 2
usemtl 0.498039_0.498039_0.498039_0.000000_0.000000
o mesh1658
v 0.0550304 0.001 0.00234541 
v 0.0555625 0.001 0.00228755 
v 0.0555625 0.007 0.00228755 
v 0.0545233 0.001 0.0025163 
v 0.0550304 0.007 0.00234541 
v 0.0540647 0.001 0.00279222 
v 0.0545233 0.007 0.0025163 
v 0.0536761 0.001 0.00316027 
v 0.0540647 0.007 0.00279222 
v 0.0533758 0.001 0.00360324 
v 0.0536761 0.007 0.00316027 
v 0.0531777 0.001 0.00410042 
v 0.0533758 0.007 0.00360324 
v 0.0530911 0.001 0.00462856 
v 0.0531777 0.007 0.00410042 
v 0.0531201 0.001 0.00516296 
v 0.0530911 0.007 0.00462856 
v 0.0532633 0.001 0.00567864 
v 0.0531201 0.007 0.00516296 
v 0.053514 0.001 0.00615149 
v 0.0532633 0.007 0.00567864 
v 0.0538604 0.001 0.00655939 
v 0.053514 0.007 0.00615149 
v 0.0542865 0.001 0.00688327 
v 0.0538604 0.007 0.00655939 
v 0.0547722 0.001 0.00710799 
v 0.0542865 0.007 0.00688327 
v 0.0552949 0.001 0.00722304 
v 0.0547722 0.007 0.00710799 
v 0.0558301 0.001 0.00722304 
v 0.0552949 0.007 0.00722304 
v 0.0563528 0.001 0.00710799 
v 0.0558301 0.007 0.00722304 
v 0.0568385 0.001 0.00688327 
v 0.0563528 0.007 0.00710799 
v 0.0572646 0.001 0.00655939 
v 0.0568385 0.007 0.00688327 
v 0.057611 0.001 0.00615149 
v 0.0572646 0.007 0.00655939 
v 0.0578617 0.001 0.00567864 
v 0.057611 0.007 0.00615149 
v 0.0580049 0.001 0.00516296 
v 0.0578617 0.007 0.00567864 
v 0.0580339 0.001 0.00462856 
v 0.0580049 0.007 0.00516296 
v 0.0579473 0.001 0.00410042 
v 0.0580339 0.007 0.00462856 
v 0.0577492 0.001 0.00360324 
v 0.0579473 0.007 0.00410042 
v 0.0574489 0.001 0.00316027 
v 0.0577492 0.007 0.00360324 
v 0.0570603 0.001 0.00279222 
v 0.0574489 0.007 0.00316027 
v 0.0566017 0.001 0.0025163 
v 0.0570603 0.007 0.00279222 
v 0.0560946 0.001 0.00234541 
v 0.0566017 0.007 0.0025163 
v 0.0560946 0.007 0.00234541 
vn 0.21497 0 0.976621 
vn 2.44929e-16 0 1 
vn 2.44929e-16 0 1 
vn 0.419889 0 0.907575 
vn 0.21497 0 0.976621 
vn 0.605174 0 0.796093 
vn 0.419889 0 0.907575 
vn 0.762162 0 0.647386 
vn 0.605174 0 0.796093 
vn 0.883512 0 0.468408 
vn 0.762162 0 0.647386 
vn 0.96355 0 0.267528 
vn 0.883512 0 0.468408 
vn 0.998533 0 0.0541389 
vn 0.96355 0 0.267528 
vn 0.986827 0 -0.161782 
vn 0.998533 0 0.0541389 
vn 0.928977 0 -0.370138 
vn 0.986827 0 -0.161782 
vn 0.827689 0 -0.561187 
vn 0.928977 0 -0.370138 
vn 0.687699 0 -0.725995 
vn 0.827689 0 -0.561187 
vn 0.515554 0 -0.856857 
vn 0.687699 0 -0.725995 
vn 0.319302 0 -0.947653 
vn 0.515554 0 -0.856857 
vn 0.108119 0 -0.994138 
vn 0.319302 0 -0.947653 
vn -0.108119 0 -0.994138 
vn 0.108119 0 -0.994138 
vn -0.319302 0 -0.947653 
vn -0.108119 0 -0.994138 
vn -0.515554 0 -0.856857 
vn -0.319302 0 -0.947653 
vn -0.687699 0 -0.725995 
vn -0.515554 0 -0.856857 
vn -0.827689 0 -0.561187 
vn -0.687699 0 -0.725995 
vn -0.928977 0 -0.370138 
vn -0.827689 0 -0.561187 
vn -0.986827 0 -0.161782 
vn -0.928977 0 -0.370138 
vn -0.998533 0 0.0541389 
vn -0.986827 0 -0.161782 
vn -0.96355 0 0.267528 
vn -0.998533 0 0.0541389 
vn -0.883512 0 0.468408 
vn -0.96355 0 0.267528 
vn -0.762162 0 0.647386 
vn -0.883512 0 0.468408 
vn -0.605174 0 0.796093 
vn -0.762162 0 0.647386 
vn -0.419889 0 0.907575 
vn -0.605174 0 0.796093 
vn -0.21497 0 0.976621 
vn -0.419889 0 0.907575 
vn -0.21497 0 0.976621 
f 1//1 2//2 3//3 
f 4//4 1//1 5//5 
f 6//6 4//4 7//7 
f 8//8 6//6 9//9 
f 10//10 8//8 11//11 
f 12//12 10//10 13//13 
f 14//14 12//12 15//15 
f 16//16 14//14 17//17 
f 18//18 16//16 19//19 
f 20//20 18//18 21//21 
f 22//22 20//20 23//23 
f 24//24 22//22 25//25 
f 26//26 24//24 27//27 
f 28//28 26//26 29//29 
f 30//30 28//28 31//31 
f 32//32 30//30 33//33 
f 34//34 32//32 35//35 
f 36//36 34//34 37//37 
f 38//38 36//36 39//39 
f 40//40 38//38 41//41 
f 42//42 40//40 43//43 
f 44//44 42//42 45//45 
f 46//46 44//44 47//47 
f 48//48 46//46 49//49 
f 50//50 48//48 51//51 
f 52//52 50//50 53//53 
f 54//54 52//52 55//55 
f 56//56 54//54 57//57 
f 2//2 56//56 58//58 
f 58//58 3//3 2//2 
f 57//57 58//58 56//56 
f 55//55 57//57 54//54 
f 53//53 55//55 52//52 
f 51//51 53//53 50//50 
f 49//49 51//51 48//48 
f 47//47 49//49 46//46 
f 45//45 47//47 44//44 
f 43//43 45//45 42//42 
f 41//41 43//43 40//40 
f 39//39 41//41 38//38 
f 37//37 39//39 36//36 
f 35//35 37//37 34//34 
f 33//33 35//35 32//32 
f 31//31 33//33 30//30 
f 29//29 31//31 28//28 
f 27//27 29//29 26//26 
f 25//25 27//27 24//24 
f 23//23 25//25 22//22 
f 21//21 23//23 20//20 
f 19//19 21//21 18//18 
f 17//17 19//19 16//16 
f 15//15 17//17 14//14 
f 13//13 15//15 12//12 
f 11//11 13//13 10//10 
f 9//9 11//11 8//8 
f 7//7 9//9 6//6 
f 5//5 7//7 4//4 
f 3//3 5//5 1//1 
o mesh1659
v 0.0591017 0.001 0.00794928 
v 0.0572646 0.001 0.00655939 
v 0.057611 0.001 0.00615149 
v 0.0583618 0.001 0.00861549 
v 0.0568385 0.001 0.00688327 
v 0.0574996 0.001 0.00911331 
v 0.0563528 0.001 0.00710799 
v 0.0565527 0.001 0.00942098 
v 0.0558301 0.001 0.00722304 
v 0.0555625 0.001 0.00952505 
v 0.0047625 0.001 0.00952505 
v 0.0542865 0.001 0.00688327 
v 0.0531201 0.001 0.00516296 
v 0.00503009 0.001 0.00722304 
v 0.00377232 0.001 0.00942098 
v 0.00449491 0.001 0.00722304 
v 0.0552949 0.001 0.00722304 
v 0.0538604 0.001 0.00655939 
v 0.00282542 0.001 0.00911331 
v 0.00397223 0.001 0.00710799 
v 0.00723387 0.001 0.00462856 
v 0.0536761 0.001 0.00316027 
v 0.0533758 0.001 0.00360324 
v 0.0547722 0.001 0.00710799 
v 0.0540647 0.001 0.00279222 
v 0.0600919 0.001 0.00329086 
v 0.0579473 0.001 0.00410042 
v 0.0577492 0.001 0.00360324 
v 0.0602989 0.001 0.00426473 
v 0.0580339 0.001 0.00462856 
v 0.0532633 0.001 0.00567864 
v 0.053514 0.001 0.00615149 
v 0.0530911 0.001 0.00462856 
v 0.0531777 0.001 0.00410042 
v 0.0072049 0.001 0.00516296 
v 0.0555625 0.001 5.02914e-08 
v 0.0545233 0.001 0.0025163 
v 0.0602989 0.001 0.00526037 
v 0.0580049 0.001 0.00516296 
v 0.00196317 0.001 0.00861549 
v 0.0034865 0.001 0.00688327 
v 0.00122327 0.001 0.00794928 
v 0.00306044 0.001 0.00655939 
v 0.000638054 0.001 0.0071438 
v 0.000233094 0.001 0.00623424 
v 0.00246328 0.001 0.00567864 
v 2.60899e-05 0.001 0.00526037 
v 0.0023201 0.001 0.00516296 
v 0.00122327 0.001 0.00157582 
v 0.00196317 0.001 0.000909607 
v 0.00326469 0.001 0.00279222 
v 0.00282542 0.001 0.00041179 
v 0.00372327 0.001 0.0025163 
v 0.0047625 0.001 4.98258e-08 
v 0.00626031 0.001 0.00279222 
v 0.00714729 0.001 0.00410042 
v 0.00681103 0.001 0.00615149 
v 0.00706172 0.001 0.00567864 
v 0.0600919 0.001 0.00623424 
v 0.0578617 0.001 0.00567864 
v 0.00271397 0.001 0.00615149 
v 2.60899e-05 0.001 0.00426473 
v 0.000233094 0.001 0.00329086 
v 0.00237771 0.001 0.00410042 
v 0.000638054 0.001 0.0023813 
v 0.00257581 0.001 0.00360324 
v 0.00287615 0.001 0.00316027 
v 0.00377232 0.001 0.000104122 
v 0.00423045 0.001 0.00234541 
v 0.0047625 0.001 0.00228755 
v 0.00664885 0.001 0.00316027 
v 0.0565527 0.001 0.000104122 
v 0.0560946 0.001 0.00234541 
v 0.0555625 0.001 0.00228755 
v 0.0574996 0.001 0.00041179 
v 0.0566017 0.001 0.0025163 
v 0.0596869 0.001 0.0071438 
v 0.00229113 0.001 0.00462856 
v 0.00580173 0.001 0.0025163 
v 0.0550304 0.001 0.00234541 
v 0.0583618 0.001 0.000909607 
v 0.0570603 0.001 0.00279222 
v 0.0591017 0.001 0.00157582 
v 0.0574489 0.001 0.00316027 
v 0.0596869 0.001 0.0023813 
v 0.00529455 0.001 0.00234541 
v 0.00555277 0.001 0.00710799 
v 0.00694919 0.001 0.00360324 
v 0.00646456 0.001 0.00655939 
v 0.0060385 0.001 0.00688327 
vn 0 -1 0 
vn 0 -1 0 
vn 0 -1 0 
vn 0 -1 0 
vn 0 -1 0 
vn 0 -1 0 
vn 0 -1 0 
vn 0 -1 0 
vn 0 -1 0 
vn 0 -1 0 
vn 0 -1 0 
vn 0 -1 0 
vn 0 -1 0 
vn 0 -1 0 
vn 0 -1 0 
vn 0 -1 0 
vn 0 -1 0 
vn 0 -1 0 
vn 0 -1 0 
vn 0 -1 0 
vn 0 -1 0 
vn 0 -1 0 
vn 0 -1 0 
vn 0 -1 0 
vn 0 -1 0 
vn 0 -1 0 
vn 0 -1 0 
vn 0 -1 0 
vn 0 -1 0 
vn 0 -1 0 
vn 0 -1 0 
vn 0 -1 0 
vn 0 -1 0 
vn 0 -1 0 
vn 0 -1 0 
vn 0 -1 0 
vn 0 -1 0 
vn 0 -1 0 
vn 0 -1 0 
vn 0 -1 0 
vn 0 -1 0 
vn 0 -1 0 
vn 0 -1 0 
vn 0 -1 0 
vn 0 -1 0 
vn 0 -1 0 
vn 0 -1 0 
vn 0 -1 0 
vn 0 -1 0 
vn 0 -1 0 
vn 0 -1 0 
vn 0 -1 0 
vn 0 -1 0 
vn 0 -1 0 
vn 0 -1 0 
vn 0 -1 0 
vn 0 -1 0 
vn 0 -1 0 
vn 0 -1 0 
vn 0 -1 0 
vn 0 -1 0 
vn 0 -1 0 
vn 0 -1 0 
vn 0 -1 0 
vn 0 -1 0 
vn 0 -1 0 
vn 0 -1 0 
vn 0 -1 0 
vn 0 -1 0 
vn 0 -1 0 
vn 0 -1 0 
vn 0 -1 0 
vn 0 -1 0 
vn 0 -1 0 
vn 0 -1 0 
vn 0 -1 0 
vn 0 -1 0 
vn 0 -1 0 
vn 0 -1 0 
vn 0 -1 0 
vn 0 -1 0 
vn 0 -1 0 
vn 0 -1 0 
vn 0 -1 0 
vn 0 -1 0 
vn 0 -1 0 
vn 0 -1 0 
vn 0 -1 0 
vn 0 -1 0 
vn 0 -1 0 
f 59//59 60//60 61//61 
f 62//62 63//63 60//60 
f 60//60 59//59 62//62 
f 64//64 65//65 63//63 
f 63//63 62//62 64//64 
f 66//66 67//67 65//65 
f 68//68 69//69 70//70 
f 71//71 69//69 72//72 
f 69//69 73//73 74//74 
f 65//65 64//64 66//66 
f 68//68 75//75 67//67 
f 69//69 76//76 70//70 
f 74//74 72//72 69//69 
f 73//73 77//77 78//78 
f 79//79 80//80 81//81 
f 67//67 66//66 68//68 
f 70//70 82//82 68//68 
f 78//78 74//74 73//73 
f 79//79 83//83 80//80 
f 84//84 85//85 86//86 
f 87//87 88//88 85//85 
f 82//82 75//75 68//68 
f 69//69 89//89 90//90 
f 72//72 91//91 71//71 
f 72//72 81//81 92//92 
f 81//81 93//93 79//79 
f 94//94 95//95 83//83 
f 85//85 84//84 87//87 
f 96//96 97//97 88//88 
f 90//90 76//76 69//69 
f 92//92 91//91 72//72 
f 77//77 98//98 99//99 
f 98//98 100//100 101//101 
f 102//102 103//103 104//104 
f 103//103 105//105 106//106 
f 107//107 108//108 109//109 
f 108//108 110//110 111//111 
f 112//112 94//94 113//113 
f 83//83 114//114 94//94 
f 81//81 115//115 116//116 
f 88//88 87//87 96//96 
f 117//117 118//118 97//97 
f 71//71 89//89 69//69 
f 101//101 99//99 98//98 
f 100//100 102//102 119//119 
f 106//106 104//104 103//103 
f 120//120 121//121 122//122 
f 121//121 123//123 124//124 
f 123//123 107//107 125//125 
f 111//111 109//109 108//108 
f 110//110 126//126 127//127 
f 126//126 112//112 128//128 
f 94//94 129//129 113//113 
f 116//116 93//93 81//81 
f 130//130 131//131 132//132 
f 133//133 134//134 131//131 
f 97//97 96//96 117//117 
f 135//135 61//61 118//118 
f 99//99 78//78 77//77 
f 104//104 119//119 102//102 
f 105//105 120//120 136//136 
f 124//124 122//122 121//121 
f 109//109 125//125 107//107 
f 128//128 127//127 126//126 
f 113//113 137//137 112//112 
f 94//94 138//138 95//95 
f 131//131 130//130 133//133 
f 139//139 140//140 134//134 
f 141//141 142//142 140//140 
f 143//143 86//86 142//142 
f 118//118 117//117 135//135 
f 119//119 101//101 100//100 
f 122//122 136//136 120//120 
f 127//127 111//111 110//110 
f 137//137 144//144 112//112 
f 94//94 132//132 138//138 
f 81//81 72//72 145//145 
f 134//134 133//133 139//139 
f 142//142 141//141 143//143 
f 61//61 135//135 59//59 
f 125//125 124//124 123//123 
f 94//94 146//146 129//129 
f 81//81 147//147 115//115 
f 145//145 148//148 81//81 
f 140//140 139//139 141//141 
f 136//136 106//106 105//105 
f 94//94 114//114 146//146 
f 148//148 147//147 81//81 
f 86//86 143//143 84//84 
f 79//79 114//114 83//83 
f 144//144 128//128 112//112 
f 132//132 94//94 130//130 
o mesh1660
v 0.0531201 0.007 0.00516296 
v 0.0530911 0.007 0.00462856 
v 0.00723387 0.007 0.00462856 
v 0.00714729 0.007 0.00410042 
v 0.0047625 0.007 4.98258e-08 
v 0.00580173 0.007 0.0025163 
v 0.00626031 0.007 0.00279222 
v 0.0532633 0.007 0.00567864 
v 0.0072049 0.007 0.00516296 
v 0.00706172 0.007 0.00567864 
v 0.0533758 0.007 0.00360324 
v 0.0531777 0.007 0.00410042 
v 0.00646456 0.007 0.00655939 
v 0.0555625 0.007 0.00952505 
v 0.0542865 0.007 0.00688327 
v 0.00529455 0.007 0.00234541 
v 0.00377232 0.007 0.000104122 
v 0.00423045 0.007 0.00234541 
v 0.0047625 0.007 0.00228755 
v 0.00282542 0.007 0.00041179 
v 0.00372327 0.007 0.0025163 
v 0.00681103 0.007 0.00615149 
v 0.0547722 0.007 0.00710799 
v 0.00196317 0.007 0.000909607 
v 0.00326469 0.007 0.00279222 
v 0.00122327 0.007 0.00157582 
v 0.00287615 0.007 0.00316027 
v 0.0574996 0.007 0.00041179 
v 0.0565527 0.007 0.000104122 
v 0.0560946 0.007 0.00234541 
v 0.0555625 0.007 5.02914e-08 
v 0.0555625 0.007 0.00228755 
v 0.0047625 0.007 0.00952505 
v 0.0060385 0.007 0.00688327 
v 0.0538604 0.007 0.00655939 
v 0.053514 0.007 0.00615149 
v 0.0552949 0.007 0.00722304 
v 0.0565527 0.007 0.00942098 
v 0.0558301 0.007 0.00722304 
v 0.000638054 0.007 0.0023813 
v 0.00257581 0.007 0.00360324 
v 0.0596869 0.007 0.0071438 
v 0.0600919 0.007 0.00623424 
v 0.0578617 0.007 0.00567864 
v 0.0602989 0.007 0.00526037 
v 0.0580049 0.007 0.00516296 
v 0.0583618 0.007 0.000909607 
v 0.0566017 0.007 0.0025163 
v 0.0540647 0.007 0.00279222 
v 0.0536761 0.007 0.00316027 
v 0.00664885 0.007 0.00316027 
v 0.0574996 0.007 0.00911331 
v 0.0563528 0.007 0.00710799 
v 0.0583618 0.007 0.00861549 
v 0.0568385 0.007 0.00688327 
v 0.0591017 0.007 0.00794928 
v 0.0572646 0.007 0.00655939 
v 0.057611 0.007 0.00615149 
v 0.0602989 0.007 0.00426473 
v 0.0580339 0.007 0.00462856 
v 0.0600919 0.007 0.00329086 
v 0.0579473 0.007 0.00410042 
v 0.0596869 0.007 0.0023813 
v 0.0577492 0.007 0.00360324 
v 0.00555277 0.007 0.00710799 
v 0.000233094 0.007 0.00329086 
v 0.00237771 0.007 0.00410042 
v 2.60899e-05 0.007 0.00426473 
v 0.00229113 0.007 0.00462856 
v 0.000233094 0.007 0.00623424 
v 0.00246328 0.007 0.00567864 
v 0.0023201 0.007 0.00516296 
v 0.000638054 0.007 0.0071438 
v 0.00271397 0.007 0.00615149 
v 0.00196317 0.007 0.00861549 
v 0.0034865 0.007 0.00688327 
v 0.00306044 0.007 0.00655939 
v 0.00282542 0.007 0.00911331 
v 0.00397223 0.007 0.00710799 
v 0.00377232 0.007 0.00942098 
v 0.00449491 0.007 0.00722304 
v 0.00503009 0.007 0.00722304 
v 0.0591017 0.007 0.00157582 
v 0.0574489 0.007 0.00316027 
v 0.0570603 0.007 0.00279222 
v 0.0550304 0.007 0.00234541 
v 0.0545233 0.007 0.0025163 
v 0.00694919 0.007 0.00360324 
v 2.60899e-05 0.007 0.00526037 
v 0.00122327 0.007 0.00794928 
vn 0 1 0 
vn 0 1 0 
vn 0 1 0 
vn 0 1 0 
vn 0 1 0 
vn 0 1 0 
vn 0 1 0 
vn 0 1 0 
vn 0 1 0 
vn 0 1 0 
vn 0 1 0 
vn 0 1 0 
vn 0 1 0 
vn 0 1 0 
vn 0 1 0 
vn 0 1 0 
vn 0 1 0 
vn 0 1 0 
vn 0 1 0 
vn 0 1 0 
vn 0 1 0 
vn 0 1 0 
vn 0 1 0 
vn 0 1 0 
vn 0 1 0 
vn 0 1 0 
vn 0 1 0 
vn 0 1 0 
vn 0 1 0 
vn 0 1 0 
vn 0 1 0 
vn 0 1 0 
vn 0 1 0 
vn 0 1 0 
vn 0 1 0 
vn 0 1 0 
vn 0 1 0 
vn 0 1 0 
vn 0 1 0 
vn 0 1 0 
vn 0 1 0 
vn 0 1 0 
vn 0 1 0 
vn 0 1 0 
vn 0 1 0 
vn 0 1 0 
vn 0 1 0 
vn 0 1 0 
vn 0 1 0 
vn 0 1 0 
vn 0 1 0 
vn 0 1 0 
vn 0 1 0 
vn 0 1 0 
vn 0 1 0 
vn 0 1 0 
vn 0 1 0 
vn 0 1 0 
vn 0 1 0 
vn 0 1 0 
vn 0 1 0 
vn 0 1 0 
vn 0 1 0 
vn 0 1 0 
vn 0 1 0 
vn 0 1 0 
vn 0 1 0 
vn 0 1 0 
vn 0 1 0 
vn 0 1 0 
vn 0 1 0 
vn 0 1 0 
vn 0 1 0 
vn 0 1 0 
vn 0 1 0 
vn 0 1 0 
vn 0 1 0 
vn 0 1 0 
vn 0 1 0 
vn 0 1 0 
vn 0 1 0 
vn 0 1 0 
vn 0 1 0 
vn 0 1 0 
vn 0 1 0 
vn 0 1 0 
vn 0 1 0 
vn 0 1 0 
vn 0 1 0 
vn 0 1 0 
f 149//149 150//150 151//151 
f 150//150 152//152 151//151 
f 153//153 154//154 155//155 
f 156//156 157//157 158//158 
f 157//157 156//156 149//149 
f 155//155 159//159 153//153 
f 152//152 150//150 160//160 
f 151//151 157//157 149//149 
f 161//161 162//162 163//163 
f 153//153 164//164 154//154 
f 165//165 166//166 167//167 
f 168//168 169//169 166//166 
f 158//158 170//170 156//156 
f 162//162 171//171 163//163 
f 153//153 167//167 164//164 
f 166//166 165//165 168//168 
f 172//172 173//173 169//169 
f 174//174 175//175 173//173 
f 176//176 177//177 178//178 
f 177//177 179//179 180//180 
f 181//181 162//162 182//182 
f 160//160 159//159 152//152 
f 161//161 183//183 184//184 
f 162//162 185//185 171//171 
f 162//162 186//186 187//187 
f 167//167 153//153 165//165 
f 173//173 172//172 174//174 
f 188//188 189//189 175//175 
f 190//190 191//191 192//192 
f 191//191 193//193 194//194 
f 195//195 176//176 196//196 
f 180//180 178//178 177//177 
f 179//179 153//153 197//197 
f 153//153 159//159 198//198 
f 162//162 161//161 182//182 
f 184//184 156//156 161//161 
f 187//187 185//185 162//162 
f 155//155 199//199 159//159 
f 175//175 174//174 188//188 
f 186//186 200//200 201//201 
f 200//200 202//202 203//203 
f 202//202 204//204 205//205 
f 204//204 190//190 206//206 
f 194//194 192//192 191//191 
f 193//193 207//207 208//208 
f 207//207 209//209 210//210 
f 209//209 211//211 212//212 
f 178//178 196//196 176//176 
f 198//198 197//197 153//153 
f 182//182 213//213 181//181 
f 163//163 183//183 161//161 
f 169//169 168//168 172//172 
f 214//214 215//215 189//189 
f 216//216 217//217 215//215 
f 218//218 219//219 220//220 
f 221//221 222//222 219//219 
f 223//223 224//224 225//225 
f 226//226 227//227 224//224 
f 228//228 229//229 227//227 
f 181//181 230//230 229//229 
f 203//203 201//201 200//200 
f 206//206 205//205 204//204 
f 208//208 194//194 193//193 
f 212//212 210//210 209//209 
f 211//211 231//231 232//232 
f 231//231 195//195 233//233 
f 179//179 234//234 180//180 
f 197//197 235//235 179//179 
f 170//170 161//161 156//156 
f 199//199 236//236 159//159 
f 215//215 214//214 216//216 
f 237//237 220//220 217//217 
f 219//219 218//218 221//221 
f 238//238 225//225 222//222 
f 224//224 223//223 226//226 
f 229//229 228//228 181//181 
f 205//205 203//203 202//202 
f 210//210 208//208 207//207 
f 233//233 232//232 231//231 
f 235//235 234//234 179//179 
f 236//236 152//152 159//159 
f 217//217 216//216 237//237 
f 222//222 221//221 238//238 
f 227//227 226//226 228//228 
f 192//192 206//206 190//190 
f 196//196 233//233 195//195 
f 189//189 188//188 214//214 
f 225//225 238//238 223//223 
f 232//232 212//212 211//211 
f 220//220 237//237 218//218 
f 213//213 230//230 181//181 
f 201//201 187//187 186//186 
o mesh1661
v 0.0555625 0.001 0.00952505 
v 0.0555625 0.007 0.00952505 
v 0.0047625 0.007 0.00952505 
v 0.0047625 0.001 0.00952505 
vn 0 0 1 
vn 0 0 1 
vn 0 0 1 
vn 0 0 1 
f 239//239 240//240 241//241 
f 241//241 242//242 239//239 
o mesh1662
v 0.0555625 0.001 5.02914e-08 
v 0.0047625 0.001 4.98258e-08 
v 0.0047625 0.007 4.98258e-08 
v 0.0555625 0.007 5.02914e-08 
vn 0 0 -1 
vn 0 0 -1 
vn 0 0 -1 
vn 0 0 -1 
f 243//243 244//244 245//245 
f 245//245 246//246 243//243 
o mesh1663
v 0.0047625 0.001 0.00952505 
v 0.0047625 0.007 0.00952505 
v 0.00377232 0.007 0.00942098 
v 0.00377232 0.001 0.00942098 
v 0.00282542 0.007 0.00911331 
v 0.00282542 0.001 0.00911331 
v 0.00196317 0.007 0.00861549 
v 0.00196317 0.001 0.00861549 
v 0.00122327 0.007 0.00794928 
v 0.00122327 0.001 0.00794928 
v 0.000638054 0.007 0.0071438 
v 0.000638054 0.001 0.0071438 
v 0.000233094 0.007 0.00623424 
v 0.000233094 0.001 0.00623424 
v 2.60899e-05 0.007 0.00526037 
v 2.60899e-05 0.001 0.00526037 
v 2.60899e-05 0.007 0.00426473 
v 2.60899e-05 0.001 0.00426473 
v 0.000233094 0.007 0.00329086 
v 0.000233094 0.001 0.00329086 
v 0.000638054 0.007 0.0023813 
v 0.000638054 0.001 0.0023813 
v 0.00122327 0.007 0.00157582 
v 0.00122327 0.001 0.00157582 
v 0.00196317 0.007 0.000909607 
v 0.00196317 0.001 0.000909607 
v 0.00282542 0.007 0.00041179 
v 0.00282542 0.001 0.00041179 
v 0.00377232 0.007 0.000104122 
v 0.00377232 0.001 0.000104122 
v 0.0047625 0.007 4.98258e-08 
v 0.0047625 0.001 4.98258e-08 
vn 0 0 1 
vn 0 0 1 
vn -0.207912 0 0.978148 
vn -0.207912 0 0.978148 
vn -0.406737 0 0.913545 
vn -0.406737 0 0.913545 
vn -0.587785 0 0.809017 
vn -0.587785 0 0.809017 
vn -0.743145 0 0.669131 
vn -0.743145 0 0.669131 
vn -0.866025 0 0.5 
vn -0.866025 0 0.5 
vn -0.951057 0 0.309017 
vn -0.951057 0 0.309017 
vn -0.994522 0 0.104528 
vn -0.994522 0 0.104528 
vn -0.994522 0 -0.104528 
vn -0.994522 0 -0.104528 
vn -0.951057 0 -0.309017 
vn -0.951057 0 -0.309017 
vn -0.866025 0 -0.5 
vn -0.866025 0 -0.5 
vn -0.743145 0 -0.669131 
vn -0.743145 0 -0.669131 
vn -0.587785 0 -0.809017 
vn -0.587785 0 -0.809017 
vn -0.406737 0 -0.913545 
vn -0.406737 0 -0.913545 
vn -0.207912 0 -0.978148 
vn -0.207912 0 -0.978148 
vn -2.44929e-16 0 -1 
vn -2.44929e-16 0 -1 
f 247//247 248//248 249//249 
f 250//250 249//249 251//251 
f 252//252 251//251 253//253 
f 254//254 253//253 255//255 
f 256//256 255//255 257//257 
f 258//258 257//257 259//259 
f 260//260 259//259 261//261 
f 262//262 261//261 263//263 
f 264//264 263//263 265//265 
f 266//266 265//265 267//267 
f 268//268 267//267 269//269 
f 270//270 269//269 271//271 
f 272//272 271//271 273//273 
f 274//274 273//273 275//275 
f 276//276 275//275 277//277 
f 277//277 278//278 276//276 
f 275//275 276//276 274//274 
f 273//273 274//274 272//272 
f 271//271 272//272 270//270 
f 269//269 270//270 268//268 
f 267//267 268//268 266//266 
f 265//265 266//266 264//264 
f 263//263 264//264 262//262 
f 261//261 262//262 260//260 
f 259//259 260//260 258//258 
f 257//257 258//258 256//256 
f 255//255 256//256 254//254 
f 253//253 254//254 252//252 
f 251//251 252//252 250//250 
f 249//249 250//250 247//247 
o mesh1664
v 0.0555625 0.001 5.02914e-08 
v 0.0555625 0.007 5.02914e-08 
v 0.0565527 0.007 0.000104122 
v 0.0565527 0.001 0.000104122 
v 0.0574996 0.007 0.00041179 
v 0.0574996 0.001 0.00041179 
v 0.0583618 0.007 0.000909607 
v 0.0583618 0.001 0.000909607 
v 0.0591017 0.007 0.00157582 
v 0.0591017 0.001 0.00157582 
v 0.0596869 0.007 0.0023813 
v 0.0596869 0.001 0.0023813 
v 0.0600919 0.007 0.00329086 
v 0.0600919 0.001 0.00329086 
v 0.0602989 0.007 0.00426473 
v 0.0602989 0.001 0.00426473 
v 0.0602989 0.007 0.00526037 
v 0.0602989 0.001 0.00526037 
v 0.0600919 0.007 0.00623424 
v 0.0600919 0.001 0.00623424 
v 0.0596869 0.007 0.0071438 
v 0.0596869 0.001 0.0071438 
v 0.0591017 0.007 0.00794928 
v 0.0591017 0.001 0.00794928 
v 0.0583618 0.007 0.00861549 
v 0.0583618 0.001 0.00861549 
v 0.0574996 0.007 0.00911331 
v 0.0574996 0.001 0.00911331 
v 0.0565527 0.007 0.00942098 
v 0.0565527 0.001 0.00942098 
v 0.0555625 0.007 0.00952505 
v 0.0555625 0.001 0.00952505 
vn -2.44929e-16 0 -1 
vn -2.44929e-16 0 -1 
vn 0.207912 0 -0.978148 
vn 0.207912 0 -0.978148 
vn 0.406737 0 -0.913545 
vn 0.406737 0 -0.913545 
vn 0.587785 0 -0.809017 
vn 0.587785 0 -0.809017 
vn 0.743145 0 -0.669131 
vn 0.743145 0 -0.669131 
vn 0.866025 0 -0.5 
vn 0.866025 0 -0.5 
vn 0.951057 0 -0.309017 
vn 0.951057 0 -0.309017 
vn 0.994522 0 -0.104528 
vn 0.994522 0 -0.104528 
vn 0.994522 0 0.104528 
vn 0.994522 0 0.104528 
vn 0.951057 0 0.309017 
vn 0.951057 0 0.309017 
vn 0.866025 0 0.5 
vn 0.866025 0 0.5 
vn 0.743145 0 0.669131 
vn 0.743145 0 0.669131 
vn 0.587785 0 0.809017 
vn 0.587785 0 0.809017 
vn 0.406737 0 0.913545 
vn 0.406737 0 0.913545 
vn 0.207912 0 0.978148 
vn 0.207912 0 0.978148 
vn 1.22465e-16 0 1 
vn 1.22465e-16 0 1 
f 279//279 280//280 281//281 
f 282//282 281//281 283//283 
f 284//284 283//283 285//285 
f 286//286 285//285 287//287 
f 288//288 287//287 289//289 
f 290//290 289//289 291//291 
f 292//292 291//291 293//293 
f 294//294 293//293 295//295 
f 296//296 295//295 297//297 
f 298//298 297//297 299//299 
f 300//300 299//299 301//301 
f 302//302 301//301 303//303 
f 304//304 303//303 305//305 
f 306//306 305//305 307//307 
f 308//308 307//307 309//309 
f 309//309 310//310 308//308 
f 307//307 308//308 306//306 
f 305//305 306//306 304//304 
f 303//303 304//304 302//302 
f 301//301 302//302 300//300 
f 299//299 300//300 298//298 
f 297//297 298//298 296//296 
f 295//295 296//296 294//294 
f 293//293 294//294 292//292 
f 291//291 292//292 290//290 
f 289//289 290//290 288//288 
f 287//287 288//288 286//286 
f 285//285 286//286 284//284 
f 283//283 284//284 282//282 
f 281//281 282//282 279//279 
o mesh1665
v 0.00423045 0.001 0.00234541 
v 0.0047625 0.001 0.00228755 
v 0.0047625 0.007 0.00228755 
v 0.00372327 0.001 0.0025163 
v 0.00423045 0.007 0.00234541 
v 0.00326469 0.001 0.00279222 
v 0.00372327 0.007 0.0025163 
v 0.00287615 0.001 0.00316027 
v 0.00326469 0.007 0.00279222 
v 0.00257581 0.001 0.00360324 
v 0.00287615 0.007 0.00316027 
v 0.00237771 0.001 0.00410042 
v 0.00257581 0.007 0.00360324 
v 0.00229113 0.001 0.00462856 
v 0.00237771 0.007 0.00410042 
v 0.0023201 0.001 0.00516296 
v 0.00229113 0.007 0.00462856 
v 0.00246328 0.001 0.00567864 
v 0.0023201 0.007 0.00516296 
v 0.00271397 0.001 0.00615149 
v 0.00246328 0.007 0.00567864 
v 0.00306044 0.001 0.00655939 
v 0.00271397 0.007 0.00615149 
v 0.0034865 0.001 0.00688327 
v 0.00306044 0.007 0.00655939 
v 0.00397223 0.001 0.00710799 
v 0.0034865 0.007 0.00688327 
v 0.00449491 0.001 0.00722304 
v 0.00397223 0.007 0.00710799 
v 0.00503009 0.001 0.00722304 
v 0.00449491 0.007 0.00722304 
v 0.00555277 0.001 0.00710799 
v 0.00503009 0.007 0.00722304 
v 0.0060385 0.001 0.00688327 
v 0.00555277 0.007 0.00710799 
v 0.00646456 0.001 0.00655939 
v 0.0060385 0.007 0.00688327 
v 0.00681103 0.001 0.00615149 
v 0.00646456 0.007 0.00655939 
v 0.00706172 0.001 0.00567864 
v 0.00681103 0.007 0.00615149 
v 0.0072049 0.001 0.00516296 
v 0.00706172 0.007 0.00567864 
v 0.00723387 0.001 0.00462856 
v 0.0072049 0.007 0.00516296 
v 0.00714729 0.001 0.00410042 
v 0.00723387 0.007 0.00462856 
v 0.00694919 0.001 0.00360324 
v 0.00714729 0.007 0.00410042 
v 0.00664885 0.001 0.00316027 
v 0.00694919 0.007 0.00360324 
v 0.00626031 0.001 0.00279222 
v 0.00664885 0.007 0.00316027 
v 0.00580173 0.001 0.0025163 
v 0.00626031 0.007 0.00279222 
v 0.00529455 0.001 0.00234541 
v 0.00580173 0.007 0.0025163 
v 0.00529455 0.007 0.00234541 
vn 0.21497 0 0.976621 
vn 1.22465e-16 0 1 
vn 1.22465e-16 0 1 
vn 0.419889 0 0.907575 
vn 0.21497 0 0.976621 
vn 0.605174 0 0.796093 
vn 0.419889 0 0.907575 
vn 0.762162 0 0.647386 
vn 0.605174 0 0.796093 
vn 0.883512 0 0.468408 
vn 0.762162 0 0.647386 
vn 0.96355 0 0.267528 
vn 0.883512 0 0.468408 
vn 0.998533 0 0.0541389 
vn 0.96355 0 0.267528 
vn 0.986827 0 -0.161782 
vn 0.998533 0 0.0541389 
vn 0.928977 0 -0.370138 
vn 0.986827 0 -0.161782 
vn 0.827689 0 -0.561187 
vn 0.928977 0 -0.370138 
vn 0.687699 0 -0.725995 
vn 0.827689 0 -0.561187 
vn 0.515554 0 -0.856857 
vn 0.687699 0 -0.725995 
vn 0.319302 0 -0.947653 
vn 0.515554 0 -0.856857 
vn 0.108119 0 -0.994138 
vn 0.319302 0 -0.947653 
vn -0.108119 0 -0.994138 
vn 0.108119 0 -0.994138 
vn -0.319302 0 -0.947653 
vn -0.108119 0 -0.994138 
vn -0.515554 0 -0.856857 
vn -0.319302 0 -0.947653 
vn -0.687699 0 -0.725995 
vn -0.515554 0 -0.856857 
vn -0.827689 0 -0.561187 
vn -0.687699 0 -0.725995 
vn -0.928977 0 -0.370138 
vn -0.827689 0 -0.561187 
vn -0.986827 0 -0.161782 
vn -0.928977 0 -0.370138 
vn -0.998533 0 0.0541389 
vn -0.986827 0 -0.161782 
vn -0.96355 0 0.267528 
vn -0.998533 0 0.0541389 
vn -0.883512 0 0.468408 
vn -0.96355 0 0.267528 
vn -0.762162 0 0.647386 
vn -0.883512 0 0.468408 
vn -0.605174 0 0.796093 
vn -0.762162 0 0.647386 
vn -0.419889 0 0.907575 
vn -0.605174 0 0.796093 
vn -0.21497 0 0.976621 
vn -0.419889 0 0.907575 
vn -0.21497 0 0.976621 
f 311//311 312//312 313//313 
f 314//314 311//311 315//315 
f 316//316 314//314 317//317 
f 318//318 316//316 319//319 
f 320//320 318//318 321//321 
f 322//322 320//320 323//323 
f 324//324 322//322 325//325 
f 326//326 324//324 327//327 
f 328//328 326//326 329//329 
f 330//330 328//328 331//331 
f 332//332 330//330 333//333 
f 334//334 332//332 335//335 
f 336//336 334//334 337//337 
f 338//338 336//336 339//339 
f 340//340 338//338 341//341 
f 342//342 340//340 343//343 
f 344//344 342//342 345//345 
f 346//346 344//344 347//347 
f 348//348 346//346 349//349 
f 350//350 348//348 351//351 
f 352//352 350//350 353//353 
f 354//354 352//352 355//355 
f 356//356 354//354 357//357 
f 358//358 356//356 359//359 
f 360//360 358//358 361//361 
f 362//362 360//360 363//363 
f 364//364 362//362 365//365 
f 366//366 364//364 367//367 
f 312//312 366//366 368//368 
f 368//368 313//313 312//312 
f 367//367 368//368 366//366 
f 365//365 367//367 364//364 
f 363//363 365//365 362//362 
f 361//361 363//363 360//360 
f 359//359 361//361 358//358 
f 357//357 359//359 356//356 
f 355//355 357//357 354//354 
f 353//353 355//355 352//352 
f 351//351 353//353 350//350 
f 349//349 351//351 348//348 
f 347//347 349//349 346//346 
f 345//345 347//347 344//344 
f 343//343 345//345 342//342 
f 341//341 343//343 340//340 
f 339//339 341//341 338//338 
f 337//337 339//339 336//336 
f 335//335 337//337 334//334 
f 333//333 335//335 332//332 
f 331//331 333//333 330//330 
f 329//329 331//331 328//328 
f 327//327 329//329 326//326 
f 325//325 327//327 324//324 
f 323//323 325//325 322//322 
f 321//321 323//323 320//320 
f 319//319 321//321 318//318 
f 317//317 319//319 316//316 
f 315//315 317//317 314//314 
f 313//313 315//315 311//311 
