# OBJ generated by ONSHAPE BY PTC INC, 1.221 Units = meters
mtllib Part_10.mtl
g Part 10
usemtl 0.972549_0.529412_0.003922_0.000000_0.000000
o mesh655
v 0.0206416 0.0489093 0.261991 
v 0.0206494 0.0491977 0.262036 
v 0.0350068 0.0520991 0.240834 
v 0.0205819 0.0486345 0.261913 
v 0.0349989 0.0518107 0.24079 
v 0.0204731 0.0483859 0.261805 
v 0.0349392 0.0515359 0.240712 
v 0.0203202 0.0481753 0.261673 
v 0.0348304 0.0512873 0.240604 
v 0.0201305 0.0480125 0.261522 
v 0.0346776 0.0510767 0.240471 
v 0.0199128 0.0479052 0.26136 
v 0.0344878 0.0509139 0.240321 
v 0.0196772 0.0478583 0.261194 
v 0.0342701 0.0508066 0.240159 
v 0.0194349 0.047874 0.261032 
v 0.0340346 0.0507597 0.239993 
v 0.019197 0.0479516 0.260882 
v 0.0337922 0.0507754 0.239831 
v 0.0189748 0.0480874 0.26075 
v 0.0335544 0.050853 0.23968 
v 0.0187787 0.0482752 0.260643 
v 0.0333322 0.0509888 0.239548 
v 0.0186177 0.0485061 0.260565 
v 0.033136 0.0511766 0.239441 
v 0.0184995 0.0487694 0.260521 
v 0.0329751 0.0514075 0.239364 
v 0.0184296 0.0490527 0.260513 
v 0.0328569 0.0516708 0.23932 
v 0.0184111 0.0493427 0.26054 
v 0.0327869 0.0519541 0.239311 
v 0.0184451 0.049626 0.260602 
v 0.0327685 0.0522441 0.239338 
v 0.0185298 0.0498893 0.260695 
v 0.0328024 0.0525274 0.2394 
v 0.0186615 0.0501202 0.260816 
v 0.0328872 0.0527907 0.239494 
v 0.0188337 0.050308 0.260958 
v 0.0330188 0.0530216 0.239614 
v 0.0190387 0.0504438 0.261115 
v 0.0331911 0.0532094 0.239757 
v 0.0192666 0.0505214 0.26128 
v 0.033396 0.0533452 0.239914 
v 0.019507 0.0505372 0.261445 
v 0.033624 0.0534228 0.240079 
v 0.0197485 0.0504902 0.261603 
v 0.0338644 0.0534385 0.240244 
v 0.0199799 0.0503829 0.261745 
v 0.0341059 0.0533916 0.240401 
v 0.0201903 0.0502201 0.261865 
v 0.0343372 0.0532843 0.240543 
v 0.0203699 0.0500095 0.261958 
v 0.0345476 0.0531215 0.240663 
v 0.0205103 0.049761 0.262019 
v 0.0347272 0.0529109 0.240756 
v 0.0206049 0.0494861 0.262045 
v 0.0348677 0.0526623 0.240817 
v 0.0349623 0.0523875 0.240844 
vn -0.82222 0.213604 -0.527567 
vn -0.828007 2.20856e-16 -0.560717 
vn -0.828007 2.20856e-16 -0.560717 
vn -0.777988 0.417219 -0.469748 
vn -0.82222 0.213604 -0.527567 
vn -0.697377 0.601326 -0.389965 
vn -0.777988 0.417219 -0.469748 
vn -0.584157 0.757316 -0.291947 
vn -0.697377 0.601326 -0.389965 
vn -0.443624 0.877894 -0.180278 
vn -0.584157 0.757316 -0.291947 
vn -0.282346 0.957423 -0.0601791 
vn -0.443624 0.877894 -0.180278 
vn -0.107867 0.992184 0.0627334 
vn -0.282346 0.957423 -0.0601791 
vn 0.0716562 0.980552 0.182713 
vn -0.107867 0.992184 0.0627334 
vn 0.247829 0.92307 0.294148 
vn 0.0716562 0.980552 0.182713 
vn 0.412413 0.822426 0.39183 
vn 0.247829 0.92307 0.294148 
vn 0.557714 0.683327 0.47119 
vn 0.412413 0.822426 0.39183 
vn 0.676936 0.512276 0.528518 
vn 0.557714 0.683327 0.47119 
vn 0.764506 0.317271 0.561133 
vn 0.676936 0.512276 0.528518 
vn 0.816328 0.107432 0.56751 
vn 0.764506 0.317271 0.561133 
vn 0.829979 -0.107432 0.547351 
vn 0.816328 0.107432 0.56751 
vn 0.804822 -0.317271 0.501598 
vn 0.829979 -0.107432 0.547351 
vn 0.742032 -0.512276 0.432391 
vn 0.804822 -0.317271 0.501598 
vn 0.644545 -0.683327 0.342966 
vn 0.742032 -0.512276 0.432391 
vn 0.516921 -0.822426 0.237505 
vn 0.644545 -0.683327 0.342966 
vn 0.365125 -0.92307 0.120937 
vn 0.516921 -0.822426 0.237505 
vn 0.196257 -0.980552 -0.00128466 
vn 0.365125 -0.92307 0.120937 
vn 0.0182121 -0.992184 -0.123447 
vn 0.196257 -0.980552 -0.00128466 
vn -0.160684 -0.957423 -0.239836 
vn 0.0182121 -0.992184 -0.123447 
vn -0.332068 -0.877894 -0.345012 
vn -0.160684 -0.957423 -0.239836 
vn -0.487924 -0.757316 -0.434055 
vn -0.332068 -0.877894 -0.345012 
vn -0.620965 -0.601326 -0.502802 
vn -0.487924 -0.757316 -0.434055 
vn -0.724971 -0.417219 -0.548038 
vn -0.620965 -0.601326 -0.502802 
vn -0.795077 -0.213604 -0.567649 
vn -0.724971 -0.417219 -0.548038 
vn -0.795077 -0.213604 -0.567649 
f 1//1 2//2 3//3 
f 4//4 1//1 5//5 
f 6//6 4//4 7//7 
f 8//8 6//6 9//9 
f 10//10 8//8 11//11 
f 12//12 10//10 13//13 
f 14//14 12//12 15//15 
f 16//16 14//14 17//17 
f 18//18 16//16 19//19 
f 20//20 18//18 21//21 
f 22//22 20//20 23//23 
f 24//24 22//22 25//25 
f 26//26 24//24 27//27 
f 28//28 26//26 29//29 
f 30//30 28//28 31//31 
f 32//32 30//30 33//33 
f 34//34 32//32 35//35 
f 36//36 34//34 37//37 
f 38//38 36//36 39//39 
f 40//40 38//38 41//41 
f 42//42 40//40 43//43 
f 44//44 42//42 45//45 
f 46//46 44//44 47//47 
f 48//48 46//46 49//49 
f 50//50 48//48 51//51 
f 52//52 50//50 53//53 
f 54//54 52//52 55//55 
f 56//56 54//54 57//57 
f 2//2 56//56 58//58 
f 58//58 3//3 2//2 
f 57//57 58//58 56//56 
f 55//55 57//57 54//54 
f 53//53 55//55 52//52 
f 51//51 53//53 50//50 
f 49//49 51//51 48//48 
f 47//47 49//49 46//46 
f 45//45 47//47 44//44 
f 43//43 45//45 42//42 
f 41//41 43//43 40//40 
f 39//39 41//41 38//38 
f 37//37 39//39 36//36 
f 35//35 37//37 34//34 
f 33//33 35//35 32//32 
f 31//31 33//33 30//30 
f 29//29 31//31 28//28 
f 27//27 29//29 26//26 
f 25//25 27//27 24//24 
f 23//23 25//25 22//22 
f 21//21 23//23 20//20 
f 19//19 21//21 18//18 
f 17//17 19//19 16//16 
f 15//15 17//17 14//14 
f 13//13 15//15 12//12 
f 11//11 13//13 10//10 
f 9//9 11//11 8//8 
f 7//7 9//9 6//6 
f 5//5 7//7 4//4 
f 3//3 5//5 1//1 
o mesh656
v 0.0328839 0.0524846 0.270771 
v 0.0190126 0.0516432 0.261262 
v 0.0197485 0.0504902 0.261603 
v 0.0473566 0.0556265 0.281001 
v 0.0337394 0.0536633 0.271511 
v 0.019507 0.0505372 0.261445 
v 0.0479581 0.0579269 0.281723 
v 0.047607 0.0564039 0.281277 
v 0.0335114 0.0535857 0.271346 
v 0.0192666 0.0505214 0.26128 
v 0.018606 0.051499 0.260967 
v 0.0190387 0.0504438 0.261115 
v 0.0179302 0.0509196 0.26043 
v 0.0186615 0.0501202 0.260816 
v 0.0188337 0.050308 0.260958 
v 0.0176905 0.0505098 0.260212 
v 0.0185298 0.0498893 0.260695 
v 0.0175868 0.0485081 0.259867 
v 0.0184995 0.0487694 0.260521 
v 0.0184296 0.0490527 0.260513 
v 0.0177803 0.048027 0.259933 
v 0.0186177 0.0485061 0.260565 
v 0.0196213 0.0467149 0.261 
v 0.0196772 0.0478583 0.261194 
v 0.0194349 0.047874 0.261032 
v 0.0200506 0.0467522 0.261296 
v 0.0199128 0.0479052 0.26136 
v 0.0203202 0.0481753 0.261673 
v 0.0201305 0.0480125 0.261522 
v 0.0489961 0.053036 0.281757 
v 0.0204731 0.0483859 0.261805 
v 0.0351222 0.0523396 0.272266 
v 0.0477242 0.054559 0.281104 
v 0.0475632 0.0547899 0.281027 
v 0.0474753 0.056173 0.281157 
v 0.0333065 0.0534499 0.271189 
v 0.0329178 0.0527679 0.270832 
v 0.0182399 0.0512543 0.260685 
v 0.0174782 0.0490193 0.259864 
v 0.0184111 0.0493427 0.26054 
v 0.0180503 0.0475971 0.260057 
v 0.0187787 0.0482752 0.260643 
v 0.0183851 0.0472371 0.260234 
v 0.0189748 0.0480874 0.26075 
v 0.01877 0.0469628 0.260457 
v 0.019197 0.0479516 0.260882 
v 0.0191881 0.0467862 0.260716 
v 0.0349831 0.0529028 0.272249 
v 0.0350777 0.0526279 0.272276 
v 0.0504219 0.056171 0.283152 
v 0.0502284 0.0566522 0.283086 
v 0.0494558 0.0560447 0.28248 
v 0.0499584 0.0570821 0.282962 
v 0.0493154 0.0562932 0.282419 
v 0.0488205 0.057893 0.282303 
v 0.0483873 0.0579642 0.282019 
v 0.0484525 0.0568209 0.281907 
v 0.0482121 0.0568052 0.281742 
v 0.0477792 0.0565917 0.28142 
v 0.0479842 0.0567276 0.281577 
v 0.0473906 0.0559098 0.281063 
v 0.047375 0.0553364 0.280974 
v 0.047445 0.0550531 0.280983 
v 0.0329023 0.0521945 0.270743 
v 0.0175313 0.0500425 0.26004 
v 0.0184451 0.049626 0.260602 
v 0.0174595 0.0495384 0.259922 
v 0.0343855 0.0510471 0.271591 
v 0.03415 0.0510001 0.271425 
v 0.0348426 0.0531514 0.272188 
v 0.0481425 0.0542353 0.281343 
v 0.0494027 0.0531801 0.282052 
v 0.049076 0.0542963 0.281984 
v 0.0488583 0.0541889 0.281821 
v 0.0496236 0.0574421 0.282785 
v 0.0491358 0.0565038 0.282326 
v 0.0330026 0.0530311 0.270926 
v 0.0331342 0.0532621 0.271046 
v 0.0206416 0.0489093 0.261991 
v 0.0479203 0.0543712 0.281211 
v 0.0483804 0.0541577 0.281494 
v 0.0497688 0.0534249 0.282334 
v 0.0500785 0.0537595 0.282589 
v 0.0492657 0.0544591 0.282134 
v 0.0505304 0.0556598 0.283155 
v 0.0495504 0.0557698 0.282507 
v 0.0492387 0.0577164 0.282562 
v 0.0489254 0.0566666 0.282206 
v 0.048694 0.056774 0.282064 
v 0.0206494 0.0491977 0.262036 
v 0.034793 0.0513172 0.271904 
v 0.0346032 0.0511544 0.271753 
v 0.0486227 0.054142 0.281656 
v 0.0503182 0.0541694 0.282807 
v 0.0494185 0.0546697 0.282267 
v 0.0339798 0.053679 0.271676 
v 0.0342213 0.0536321 0.271833 
v 0.0205819 0.0486345 0.261913 
v 0.0349458 0.0515278 0.272036 
v 0.0351143 0.0520512 0.272222 
v 0.0344526 0.0535247 0.271975 
v 0.034663 0.053362 0.272095 
v 0.0504774 0.0546366 0.282979 
v 0.0505492 0.0551408 0.283097 
v 0.0495871 0.0551931 0.282452 
v 0.0495949 0.0554814 0.282497 
v 0.0329723 0.0519113 0.270752 
v 0.0206049 0.0494861 0.262045 
v 0.0203699 0.0500095 0.261958 
v 0.0205103 0.049761 0.262019 
v 0.0339076 0.0510158 0.271263 
v 0.0350546 0.0517763 0.272144 
v 0.0495274 0.0549182 0.282374 
v 0.0330905 0.051648 0.270796 
v 0.0201903 0.0502201 0.261865 
v 0.0334476 0.0512293 0.270981 
v 0.0332514 0.0514171 0.270873 
v 0.0336698 0.0510934 0.271112 
v 0.0199799 0.0503829 0.261745 
vn -0.557152 -0.112592 0.822742 
vn -0.557152 -0.112592 0.822742 
vn -0.557152 -0.112592 0.822742 
vn -0.557152 -0.112592 0.822742 
vn -0.557152 -0.112592 0.822742 
vn -0.557152 -0.112592 0.822742 
vn -0.557152 -0.112592 0.822742 
vn -0.557152 -0.112592 0.822742 
vn -0.557152 -0.112592 0.822742 
vn -0.557152 -0.112592 0.822742 
vn -0.557152 -0.112592 0.822742 
vn -0.557152 -0.112592 0.822742 
vn -0.557152 -0.112592 0.822742 
vn -0.557152 -0.112592 0.822742 
vn -0.557152 -0.112592 0.822742 
vn -0.557152 -0.112592 0.822742 
vn -0.557152 -0.112592 0.822742 
vn -0.557152 -0.112592 0.822742 
vn -0.557152 -0.112592 0.822742 
vn -0.557152 -0.112592 0.822742 
vn -0.557152 -0.112592 0.822742 
vn -0.557152 -0.112592 0.822742 
vn -0.557152 -0.112592 0.822742 
vn -0.557152 -0.112592 0.822742 
vn -0.557152 -0.112592 0.822742 
vn -0.557152 -0.112592 0.822742 
vn -0.557152 -0.112592 0.822742 
vn -0.557152 -0.112592 0.822742 
vn -0.557152 -0.112592 0.822742 
vn -0.557152 -0.112592 0.822742 
vn -0.557152 -0.112592 0.822742 
vn -0.557152 -0.112592 0.822742 
vn -0.557152 -0.112592 0.822742 
vn -0.557152 -0.112592 0.822742 
vn -0.557152 -0.112592 0.822742 
vn -0.557152 -0.112592 0.822742 
vn -0.557152 -0.112592 0.822742 
vn -0.557152 -0.112592 0.822742 
vn -0.557152 -0.112592 0.822742 
vn -0.557152 -0.112592 0.822742 
vn -0.557152 -0.112592 0.822742 
vn -0.557152 -0.112592 0.822742 
vn -0.557152 -0.112592 0.822742 
vn -0.557152 -0.112592 0.822742 
vn -0.557152 -0.112592 0.822742 
vn -0.557152 -0.112592 0.822742 
vn -0.557152 -0.112592 0.822742 
vn -0.557152 -0.112592 0.822742 
vn -0.557152 -0.112592 0.822742 
vn -0.557152 -0.112592 0.822742 
vn -0.557152 -0.112592 0.822742 
vn -0.557152 -0.112592 0.822742 
vn -0.557152 -0.112592 0.822742 
vn -0.557152 -0.112592 0.822742 
vn -0.557152 -0.112592 0.822742 
vn -0.557152 -0.112592 0.822742 
vn -0.557152 -0.112592 0.822742 
vn -0.557152 -0.112592 0.822742 
vn -0.557152 -0.112592 0.822742 
vn -0.557152 -0.112592 0.822742 
vn -0.557152 -0.112592 0.822742 
vn -0.557152 -0.112592 0.822742 
vn -0.557152 -0.112592 0.822742 
vn -0.557152 -0.112592 0.822742 
vn -0.557152 -0.112592 0.822742 
vn -0.557152 -0.112592 0.822742 
vn -0.557152 -0.112592 0.822742 
vn -0.557152 -0.112592 0.822742 
vn -0.557152 -0.112592 0.822742 
vn -0.557152 -0.112592 0.822742 
vn -0.557152 -0.112592 0.822742 
vn -0.557152 -0.112592 0.822742 
vn -0.557152 -0.112592 0.822742 
vn -0.557152 -0.112592 0.822742 
vn -0.557152 -0.112592 0.822742 
vn -0.557152 -0.112592 0.822742 
vn -0.557152 -0.112592 0.822742 
vn -0.557152 -0.112592 0.822742 
vn -0.557152 -0.112592 0.822742 
vn -0.557152 -0.112592 0.822742 
vn -0.557152 -0.112592 0.822742 
vn -0.557152 -0.112592 0.822742 
vn -0.557152 -0.112592 0.822742 
vn -0.557152 -0.112592 0.822742 
vn -0.557152 -0.112592 0.822742 
vn -0.557152 -0.112592 0.822742 
vn -0.557152 -0.112592 0.822742 
vn -0.557152 -0.112592 0.822742 
vn -0.557152 -0.112592 0.822742 
vn -0.557152 -0.112592 0.822742 
vn -0.557152 -0.112592 0.822742 
vn -0.557152 -0.112592 0.822742 
vn -0.557152 -0.112592 0.822742 
vn -0.557152 -0.112592 0.822742 
vn -0.557152 -0.112592 0.822742 
vn -0.557152 -0.112592 0.822742 
vn -0.557152 -0.112592 0.822742 
vn -0.557152 -0.112592 0.822742 
vn -0.557152 -0.112592 0.822742 
vn -0.557152 -0.112592 0.822742 
vn -0.557152 -0.112592 0.822742 
vn -0.557152 -0.112592 0.822742 
vn -0.557152 -0.112592 0.822742 
vn -0.557152 -0.112592 0.822742 
vn -0.557152 -0.112592 0.822742 
vn -0.557152 -0.112592 0.822742 
vn -0.557152 -0.112592 0.822742 
vn -0.557152 -0.112592 0.822742 
vn -0.557152 -0.112592 0.822742 
vn -0.557152 -0.112592 0.822742 
vn -0.557152 -0.112592 0.822742 
vn -0.557152 -0.112592 0.822742 
vn -0.557152 -0.112592 0.822742 
vn -0.557152 -0.112592 0.822742 
vn -0.557152 -0.112592 0.822742 
vn -0.557152 -0.112592 0.822742 
vn -0.557152 -0.112592 0.822742 
vn -0.557152 -0.112592 0.822742 
vn -0.557152 -0.112592 0.822742 
f 59//59 60//60 61//61 
f 62//62 60//60 63//63 
f 60//60 64//64 61//61 
f 65//65 60//60 66//66 
f 60//60 67//67 63//63 
f 60//60 68//68 64//64 
f 60//60 69//69 70//70 
f 71//71 72//72 73//73 
f 74//74 75//75 72//72 
f 76//76 77//77 78//78 
f 79//79 80//80 77//77 
f 81//81 82//82 83//83 
f 84//84 85//85 82//82 
f 84//84 86//86 87//87 
f 88//88 89//89 86//86 
f 90//90 91//91 92//92 
f 60//60 93//93 66//66 
f 60//60 94//94 67//67 
f 60//60 59//59 95//95 
f 70//70 68//68 60//60 
f 69//69 96//96 73//73 
f 72//72 71//71 74//74 
f 97//97 78//78 98//98 
f 77//77 76//76 79//79 
f 99//99 100//100 80//80 
f 101//101 102//102 100//100 
f 103//103 104//104 102//102 
f 105//105 83//83 104//104 
f 82//82 81//81 84//84 
f 86//86 84//84 88//88 
f 92//92 106//106 107//107 
f 108//108 109//109 110//110 
f 109//109 111//111 112//112 
f 113//113 114//114 115//115 
f 114//114 65//65 116//116 
f 65//65 117//117 118//118 
f 60//60 119//119 93//93 
f 63//63 120//120 62//62 
f 63//63 92//92 121//121 
f 61//61 122//122 59//59 
f 73//73 96//96 71//71 
f 123//123 124//124 75//75 
f 125//125 98//98 124//124 
f 78//78 97//97 76//76 
f 100//100 99//99 101//101 
f 104//104 103//103 105//105 
f 87//87 85//85 84//84 
f 88//88 126//126 127//127 
f 92//92 128//128 106//106 
f 90//90 88//88 129//129 
f 130//130 131//131 132//132 
f 112//112 110//110 109//109 
f 111//111 133//133 134//134 
f 116//116 115//115 114//114 
f 66//66 117//117 65//65 
f 121//121 120//120 63//63 
f 60//60 135//135 136//136 
f 73//73 70//70 69//69 
f 124//124 123//123 125//125 
f 80//80 79//79 99//99 
f 83//83 105//105 81//81 
f 127//127 137//137 88//88 
f 90//90 138//138 91//91 
f 88//88 139//139 129//129 
f 132//132 88//88 130//130 
f 140//140 141//141 142//142 
f 143//143 108//108 144//144 
f 134//134 112//112 111//111 
f 133//133 145//145 146//146 
f 145//145 113//113 147//147 
f 118//118 116//116 65//65 
f 136//136 94//94 60//60 
f 75//75 74//74 123//123 
f 102//102 101//101 103//103 
f 127//127 148//148 137//137 
f 88//88 149//149 150//150 
f 129//129 138//138 90//90 
f 132//132 151//151 88//88 
f 131//131 130//130 140//140 
f 141//141 152//152 153//153 
f 92//92 154//154 155//155 
f 110//110 144//144 108//108 
f 147//147 146//146 145//145 
f 62//62 119//119 60//60 
f 98//98 125//125 97//97 
f 137//137 156//156 88//88 
f 88//88 157//157 149//149 
f 88//88 90//90 158//158 
f 151//151 139//139 88//88 
f 153//153 142//142 141//141 
f 92//92 159//159 160//160 
f 92//92 63//63 154//154 
f 161//161 162//162 163//163 
f 162//162 143//143 164//164 
f 165//165 122//122 166//166 
f 122//122 167//167 168//168 
f 148//148 127//127 169//169 
f 146//146 134//134 133//133 
f 95//95 135//135 60//60 
f 150//150 126//126 88//88 
f 158//158 170//170 88//88 
f 142//142 131//131 140//140 
f 155//155 159//159 92//92 
f 152//152 161//161 171//171 
f 164//164 163//163 162//162 
f 148//148 172//172 165//165 
f 122//122 173//173 167//167 
f 148//148 174//174 175//175 
f 169//169 176//176 148//148 
f 115//115 147//147 113//113 
f 170//170 157//157 88//88 
f 160//160 128//128 92//92 
f 163//163 171//171 161//161 
f 168//168 166//166 122//122 
f 176//176 174//174 148//148 
f 156//156 89//89 88//88 
f 171//171 153//153 152//152 
f 175//175 172//172 148//148 
f 122//122 61//61 177//177 
f 92//92 107//107 90//90 
f 177//177 173//173 122//122 
f 166//166 148//148 165//165 
f 144//144 164//164 143//143 
o mesh657
v 0.0473296 0.0548127 0.249551 
v 0.0350068 0.0520991 0.240834 
v 0.0349623 0.0523875 0.240844 
v 0.0472412 0.055386 0.249569 
v 0.0472597 0.0550959 0.249542 
v 0.0349989 0.0518107 0.24079 
v 0.034408 0.0496536 0.240094 
v 0.0485073 0.0539015 0.250223 
v 0.0487429 0.0539485 0.250389 
v 0.0480271 0.0539948 0.249911 
v 0.048265 0.0539172 0.250061 
v 0.0347272 0.0529109 0.240756 
v 0.0345476 0.0531215 0.240663 
v 0.0349392 0.0515359 0.240712 
v 0.0474478 0.0545494 0.249595 
v 0.0346776 0.0510767 0.240471 
v 0.0619206 0.0576913 0.259825 
v 0.0489606 0.0540558 0.250551 
v 0.0333699 0.0545446 0.240061 
v 0.033624 0.0534228 0.240079 
v 0.033396 0.0533452 0.239914 
v 0.0348677 0.0526623 0.240817 
v 0.0348304 0.0512873 0.240604 
v 0.0344878 0.0509139 0.240321 
v 0.0339787 0.0496163 0.239798 
v 0.0340346 0.0507597 0.239993 
v 0.0335455 0.0496876 0.239515 
v 0.0337922 0.0507754 0.239831 
v 0.0331273 0.0498642 0.239256 
v 0.0335544 0.050853 0.23968 
v 0.0327424 0.0501385 0.239033 
v 0.0333322 0.0509888 0.239548 
v 0.0618024 0.0579545 0.259781 
v 0.0494795 0.055241 0.251065 
v 0.049435 0.0555293 0.251074 
v 0.049412 0.0546777 0.250942 
v 0.0494717 0.0549526 0.25102 
v 0.0338644 0.0534385 0.240244 
v 0.0343372 0.0532843 0.240543 
v 0.0342701 0.0508066 0.240159 
v 0.0641262 0.0563263 0.261132 
v 0.0634333 0.0571977 0.260782 
v 0.0636231 0.0573605 0.260933 
v 0.0617324 0.0582378 0.259773 
v 0.0493032 0.0544292 0.250835 
v 0.0491503 0.0542186 0.250702 
v 0.0341059 0.0533916 0.240401 
v 0.0324076 0.0504985 0.238855 
v 0.033136 0.0511766 0.239441 
v 0.0321376 0.0509284 0.238731 
v 0.0329751 0.0514075 0.239364 
v 0.0627447 0.0608656 0.260818 
v 0.0628099 0.0597223 0.260705 
v 0.0625695 0.0597066 0.260541 
v 0.0631779 0.0607944 0.261101 
v 0.0630514 0.0596754 0.260863 
v 0.0648878 0.0585612 0.261954 
v 0.0639523 0.0583828 0.261296 
v 0.0639078 0.0586712 0.261305 
v 0.0649065 0.0580422 0.261895 
v 0.0639444 0.0580945 0.261251 
v 0.0644358 0.0566609 0.261388 
v 0.0637759 0.0575711 0.261065 
v 0.06376 0.0560815 0.260851 
v 0.0633535 0.0559374 0.260556 
v 0.0632156 0.0570903 0.26062 
v 0.0624999 0.0571367 0.260142 
v 0.0478688 0.0564871 0.250145 
v 0.0476639 0.0563512 0.249987 
v 0.0318886 0.0529439 0.238838 
v 0.0320479 0.0534112 0.23901 
v 0.0328872 0.0527907 0.239494 
v 0.0322876 0.053821 0.239229 
v 0.0330188 0.0530216 0.239614 
v 0.0325972 0.0541557 0.239484 
v 0.0331911 0.0532094 0.239757 
v 0.0329634 0.0544004 0.239765 
v 0.061714 0.0585279 0.2598 
v 0.0476088 0.0543185 0.249672 
v 0.0319441 0.0514095 0.238666 
v 0.0328569 0.0516708 0.23932 
v 0.0623154 0.0608283 0.260522 
v 0.0621366 0.0594931 0.260218 
v 0.0619643 0.0593053 0.260076 
v 0.0647793 0.0590724 0.26195 
v 0.0638132 0.0589461 0.261279 
v 0.0648347 0.057538 0.261778 
v 0.0638847 0.0578196 0.261173 
v 0.0646755 0.0570708 0.261606 
v 0.0629801 0.0570434 0.260454 
v 0.0627377 0.0570591 0.260292 
v 0.0474916 0.0561635 0.249845 
v 0.0480967 0.0565647 0.25031 
v 0.0478049 0.0541307 0.249779 
v 0.0623415 0.059629 0.260376 
v 0.0635961 0.0606178 0.26136 
v 0.0632827 0.059568 0.261005 
v 0.063981 0.0603435 0.261584 
v 0.0634931 0.0594052 0.261125 
v 0.0643157 0.0599835 0.261761 
v 0.0636727 0.0591946 0.261218 
v 0.0645858 0.0595536 0.261885 
v 0.0622777 0.0572726 0.26001 
v 0.04736 0.0559325 0.249724 
v 0.0472752 0.0556693 0.249631 
v 0.0485786 0.0565335 0.250632 
v 0.0483371 0.0565804 0.250475 
v 0.0490204 0.0562633 0.250894 
v 0.04881 0.0564261 0.250774 
v 0.0318168 0.0524398 0.238721 
v 0.0328024 0.0525274 0.2394 
v 0.0618327 0.0590744 0.259955 
v 0.0620815 0.0574604 0.259903 
v 0.0493404 0.0558042 0.251048 
v 0.0492 0.0560528 0.250987 
v 0.0318356 0.0519207 0.238662 
v 0.0327869 0.0519541 0.239311 
v 0.0327685 0.0522441 0.239338 
v 0.0617479 0.0588112 0.259862 
vn 0.557152 0.112592 -0.822742 
vn 0.557152 0.112592 -0.822742 
vn 0.557152 0.112592 -0.822742 
vn 0.557152 0.112592 -0.822742 
vn 0.557152 0.112592 -0.822742 
vn 0.557152 0.112592 -0.822742 
vn 0.557152 0.112592 -0.822742 
vn 0.557152 0.112592 -0.822742 
vn 0.557152 0.112592 -0.822742 
vn 0.557152 0.112592 -0.822742 
vn 0.557152 0.112592 -0.822742 
vn 0.557152 0.112592 -0.822742 
vn 0.557152 0.112592 -0.822742 
vn 0.557152 0.112592 -0.822742 
vn 0.557152 0.112592 -0.822742 
vn 0.557152 0.112592 -0.822742 
vn 0.557152 0.112592 -0.822742 
vn 0.557152 0.112592 -0.822742 
vn 0.557152 0.112592 -0.822742 
vn 0.557152 0.112592 -0.822742 
vn 0.557152 0.112592 -0.822742 
vn 0.557152 0.112592 -0.822742 
vn 0.557152 0.112592 -0.822742 
vn 0.557152 0.112592 -0.822742 
vn 0.557152 0.112592 -0.822742 
vn 0.557152 0.112592 -0.822742 
vn 0.557152 0.112592 -0.822742 
vn 0.557152 0.112592 -0.822742 
vn 0.557152 0.112592 -0.822742 
vn 0.557152 0.112592 -0.822742 
vn 0.557152 0.112592 -0.822742 
vn 0.557152 0.112592 -0.822742 
vn 0.557152 0.112592 -0.822742 
vn 0.557152 0.112592 -0.822742 
vn 0.557152 0.112592 -0.822742 
vn 0.557152 0.112592 -0.822742 
vn 0.557152 0.112592 -0.822742 
vn 0.557152 0.112592 -0.822742 
vn 0.557152 0.112592 -0.822742 
vn 0.557152 0.112592 -0.822742 
vn 0.557152 0.112592 -0.822742 
vn 0.557152 0.112592 -0.822742 
vn 0.557152 0.112592 -0.822742 
vn 0.557152 0.112592 -0.822742 
vn 0.557152 0.112592 -0.822742 
vn 0.557152 0.112592 -0.822742 
vn 0.557152 0.112592 -0.822742 
vn 0.557152 0.112592 -0.822742 
vn 0.557152 0.112592 -0.822742 
vn 0.557152 0.112592 -0.822742 
vn 0.557152 0.112592 -0.822742 
vn 0.557152 0.112592 -0.822742 
vn 0.557152 0.112592 -0.822742 
vn 0.557152 0.112592 -0.822742 
vn 0.557152 0.112592 -0.822742 
vn 0.557152 0.112592 -0.822742 
vn 0.557152 0.112592 -0.822742 
vn 0.557152 0.112592 -0.822742 
vn 0.557152 0.112592 -0.822742 
vn 0.557152 0.112592 -0.822742 
vn 0.557152 0.112592 -0.822742 
vn 0.557152 0.112592 -0.822742 
vn 0.557152 0.112592 -0.822742 
vn 0.557152 0.112592 -0.822742 
vn 0.557152 0.112592 -0.822742 
vn 0.557152 0.112592 -0.822742 
vn 0.557152 0.112592 -0.822742 
vn 0.557152 0.112592 -0.822742 
vn 0.557152 0.112592 -0.822742 
vn 0.557152 0.112592 -0.822742 
vn 0.557152 0.112592 -0.822742 
vn 0.557152 0.112592 -0.822742 
vn 0.557152 0.112592 -0.822742 
vn 0.557152 0.112592 -0.822742 
vn 0.557152 0.112592 -0.822742 
vn 0.557152 0.112592 -0.822742 
vn 0.557152 0.112592 -0.822742 
vn 0.557152 0.112592 -0.822742 
vn 0.557152 0.112592 -0.822742 
vn 0.557152 0.112592 -0.822742 
vn 0.557152 0.112592 -0.822742 
vn 0.557152 0.112592 -0.822742 
vn 0.557152 0.112592 -0.822742 
vn 0.557152 0.112592 -0.822742 
vn 0.557152 0.112592 -0.822742 
vn 0.557152 0.112592 -0.822742 
vn 0.557152 0.112592 -0.822742 
vn 0.557152 0.112592 -0.822742 
vn 0.557152 0.112592 -0.822742 
vn 0.557152 0.112592 -0.822742 
vn 0.557152 0.112592 -0.822742 
vn 0.557152 0.112592 -0.822742 
vn 0.557152 0.112592 -0.822742 
vn 0.557152 0.112592 -0.822742 
vn 0.557152 0.112592 -0.822742 
vn 0.557152 0.112592 -0.822742 
vn 0.557152 0.112592 -0.822742 
vn 0.557152 0.112592 -0.822742 
vn 0.557152 0.112592 -0.822742 
vn 0.557152 0.112592 -0.822742 
vn 0.557152 0.112592 -0.822742 
vn 0.557152 0.112592 -0.822742 
vn 0.557152 0.112592 -0.822742 
vn 0.557152 0.112592 -0.822742 
vn 0.557152 0.112592 -0.822742 
vn 0.557152 0.112592 -0.822742 
vn 0.557152 0.112592 -0.822742 
vn 0.557152 0.112592 -0.822742 
vn 0.557152 0.112592 -0.822742 
vn 0.557152 0.112592 -0.822742 
vn 0.557152 0.112592 -0.822742 
vn 0.557152 0.112592 -0.822742 
vn 0.557152 0.112592 -0.822742 
vn 0.557152 0.112592 -0.822742 
vn 0.557152 0.112592 -0.822742 
vn 0.557152 0.112592 -0.822742 
vn 0.557152 0.112592 -0.822742 
vn 0.557152 0.112592 -0.822742 
vn 0.557152 0.112592 -0.822742 
f 178//178 179//179 180//180 
f 180//180 181//181 182//182 
f 178//178 183//183 179//179 
f 184//184 185//185 186//186 
f 184//184 187//187 188//188 
f 181//181 189//189 190//190 
f 178//178 191//191 183//183 
f 192//192 184//184 193//193 
f 194//194 186//186 195//195 
f 188//188 185//185 184//184 
f 196//196 197//197 198//198 
f 181//181 199//199 189//189 
f 178//178 200//200 191//191 
f 184//184 201//201 193//193 
f 184//184 202//202 203//203 
f 202//202 204//204 205//205 
f 204//204 206//206 207//207 
f 206//206 208//208 209//209 
f 210//210 211//211 212//212 
f 194//194 213//213 214//214 
f 186//186 194//194 184//184 
f 196//196 215//215 197//197 
f 196//196 181//181 216//216 
f 181//181 180//180 199//199 
f 180//180 182//182 178//178 
f 184//184 217//217 201//201 
f 205//205 203//203 202//202 
f 209//209 207//207 206//206 
f 218//218 219//219 220//220 
f 212//212 221//221 210//210 
f 194//194 222//222 213//213 
f 195//195 223//223 194//194 
f 196//196 224//224 215//215 
f 190//190 216//216 181//181 
f 193//193 200//200 192//192 
f 207//207 205//205 204//204 
f 208//208 225//225 226//226 
f 225//225 227//227 228//228 
f 229//229 230//230 231//231 
f 232//232 233//233 230//230 
f 234//234 235//235 236//236 
f 237//237 238//238 235//235 
f 239//239 220//220 240//240 
f 220//220 239//239 218//218 
f 241//241 242//242 243//243 
f 242//242 184//184 244//244 
f 196//196 245//245 246//246 
f 247//247 248//248 249//249 
f 248//248 250//250 251//251 
f 250//250 252//252 253//253 
f 254//254 198//198 253//253 
f 212//212 255//255 221//221 
f 223//223 222//222 194//194 
f 184//184 192//192 256//256 
f 216//216 224//224 196//196 
f 203//203 217//217 184//184 
f 228//228 226//226 225//225 
f 227//227 257//257 258//258 
f 259//259 260//260 261//261 
f 230//230 229//229 232//232 
f 262//262 236//236 263//263 
f 235//235 234//234 237//237 
f 264//264 265//265 238//238 
f 266//266 240//240 265//265 
f 218//218 241//241 219//219 
f 242//242 267//267 243//243 
f 244//244 268//268 242//242 
f 246//246 269//269 196//196 
f 196//196 255//255 270//270 
f 251//251 249//249 248//248 
f 253//253 252//252 254//254 
f 214//214 211//211 194//194 
f 256//256 271//271 184//184 
f 178//178 192//192 200//200 
f 258//258 228//228 227//227 
f 259//259 272//272 260//260 
f 231//231 259//259 229//229 
f 273//273 274//274 233//233 
f 275//275 276//276 274//274 
f 277//277 278//278 276//276 
f 279//279 263//263 278//278 
f 236//236 262//262 234//234 
f 265//265 264//264 266//266 
f 243//243 219//219 241//241 
f 184//184 280//280 244//244 
f 196//196 281//281 282//282 
f 270//270 245//245 196//196 
f 255//255 283//283 284//284 
f 255//255 285//285 286//286 
f 287//287 247//247 288//288 
f 253//253 251//251 250//250 
f 271//271 187//187 184//184 
f 226//226 209//209 208//208 
f 196//196 261//261 289//289 
f 231//231 272//272 259//259 
f 274//274 273//273 275//275 
f 278//278 277//277 279//279 
f 238//238 237//237 264//264 
f 268//268 267//267 242//242 
f 184//184 194//194 290//290 
f 269//269 281//281 196//196 
f 286//286 283//283 255//255 
f 255//255 291//291 292//292 
f 249//249 288//288 247//247 
f 198//198 254//254 196//196 
f 257//257 293//293 294//294 
f 293//293 287//287 295//295 
f 289//289 296//296 196//196 
f 233//233 232//232 273//273 
f 263//263 279//279 262//262 
f 290//290 280//280 184//184 
f 284//284 270//270 255//255 
f 255//255 212//212 291//291 
f 210//210 194//194 211//211 
f 295//295 294//294 293//293 
f 261//261 196//196 259//259 
f 240//240 266//266 239//239 
f 292//292 285//285 255//255 
f 294//294 258//258 257//257 
f 276//276 275//275 277//277 
f 288//288 295//295 287//287 
f 282//282 181//181 196//196 
f 296//296 255//255 196//196 
o mesh658
v 0.034408 0.0496536 0.240094 
v 0.0200506 0.0467522 0.261296 
v 0.0196213 0.0467149 0.261 
v 0.0339787 0.0496163 0.239798 
v 0.0191881 0.0467862 0.260716 
v 0.0335455 0.0496876 0.239515 
v 0.01877 0.0469628 0.260457 
v 0.0331273 0.0498642 0.239256 
v 0.0183851 0.0472371 0.260234 
v 0.0327424 0.0501385 0.239033 
v 0.0180503 0.0475971 0.260057 
v 0.0324076 0.0504985 0.238855 
v 0.0177803 0.048027 0.259933 
v 0.0321376 0.0509284 0.238731 
v 0.0175868 0.0485081 0.259867 
v 0.0319441 0.0514095 0.238666 
v 0.0174782 0.0490193 0.259864 
v 0.0318356 0.0519207 0.238662 
v 0.0174595 0.0495384 0.259922 
v 0.0318168 0.0524398 0.238721 
v 0.0175313 0.0500425 0.26004 
v 0.0318886 0.0529439 0.238838 
v 0.0176905 0.0505098 0.260212 
v 0.0320479 0.0534112 0.23901 
v 0.0179302 0.0509196 0.26043 
v 0.0322876 0.053821 0.239229 
v 0.0182399 0.0512543 0.260685 
v 0.0325972 0.0541557 0.239484 
v 0.018606 0.051499 0.260967 
v 0.0329634 0.0544004 0.239765 
v 0.0190126 0.0516432 0.261262 
v 0.0333699 0.0545446 0.240061 
vn 0.207603 -0.97819 0.00672157 
vn 0.207603 -0.97819 0.00672157 
vn 0.0358964 -0.993105 -0.111597 
vn 0.0358964 -0.993105 -0.111597 
vn -0.137379 -0.964616 -0.225038 
vn -0.137379 -0.964616 -0.225038 
vn -0.30465 -0.893969 -0.328644 
vn -0.30465 -0.893969 -0.328644 
vn -0.458606 -0.784252 -0.417887 
vn -0.458606 -0.784252 -0.417887 
vn -0.592519 -0.640258 -0.488866 
vn -0.592519 -0.640258 -0.488866 
vn -0.700536 -0.468283 -0.53848 
vn -0.700536 -0.468283 -0.53848 
vn -0.777937 -0.275841 -0.564559 
vn -0.777937 -0.275841 -0.564559 
vn -0.821337 -0.0713435 -0.565964 
vn -0.821337 -0.0713435 -0.565964 
vn -0.828842 0.136272 -0.542634 
vn -0.828842 0.136272 -0.542634 
vn -0.800122 0.337932 -0.495588 
vn -0.800122 0.337932 -0.495588 
vn -0.736433 0.524822 -0.426882 
vn -0.736433 0.524822 -0.426882 
vn -0.640558 0.688775 -0.33952 
vn -0.640558 0.688775 -0.33952 
vn -0.516688 0.822626 -0.237319 
vn -0.516688 0.822626 -0.237319 
vn -0.370236 0.920524 -0.124746 
vn -0.370236 0.920524 -0.124746 
vn -0.207603 0.97819 -0.00672157 
vn -0.207603 0.97819 -0.00672157 
f 297//297 298//298 299//299 
f 300//300 299//299 301//301 
f 302//302 301//301 303//303 
f 304//304 303//303 305//305 
f 306//306 305//305 307//307 
f 308//308 307//307 309//309 
f 310//310 309//309 311//311 
f 312//312 311//311 313//313 
f 314//314 313//313 315//315 
f 316//316 315//315 317//317 
f 318//318 317//317 319//319 
f 320//320 319//319 321//321 
f 322//322 321//321 323//323 
f 324//324 323//323 325//325 
f 326//326 325//325 327//327 
f 327//327 328//328 326//326 
f 325//325 326//326 324//324 
f 323//323 324//324 322//322 
f 321//321 322//322 320//320 
f 319//319 320//320 318//318 
f 317//317 318//318 316//316 
f 315//315 316//316 314//314 
f 313//313 314//314 312//312 
f 311//311 312//312 310//310 
f 309//309 310//310 308//308 
f 307//307 308//308 306//306 
f 305//305 306//306 304//304 
f 303//303 304//304 302//302 
f 301//301 302//302 300//300 
f 299//299 300//300 297//297 
o mesh659
v 0.0623154 0.0608283 0.260522 
v 0.0479581 0.0579269 0.281723 
v 0.0483873 0.0579642 0.282019 
v 0.0627447 0.0608656 0.260818 
v 0.0488205 0.057893 0.282303 
v 0.0631779 0.0607944 0.261101 
v 0.0492387 0.0577164 0.282562 
v 0.0635961 0.0606178 0.26136 
v 0.0496236 0.0574421 0.282785 
v 0.063981 0.0603435 0.261584 
v 0.0499584 0.0570821 0.282962 
v 0.0643157 0.0599835 0.261761 
v 0.0502284 0.0566522 0.283086 
v 0.0645858 0.0595536 0.261885 
v 0.0504219 0.056171 0.283152 
v 0.0647793 0.0590724 0.26195 
v 0.0505304 0.0556598 0.283155 
v 0.0648878 0.0585612 0.261954 
v 0.0505492 0.0551408 0.283097 
v 0.0649065 0.0580422 0.261895 
v 0.0504774 0.0546366 0.282979 
v 0.0648347 0.057538 0.261778 
v 0.0503182 0.0541694 0.282807 
v 0.0646755 0.0570708 0.261606 
v 0.0500785 0.0537595 0.282589 
v 0.0644358 0.0566609 0.261388 
v 0.0497688 0.0534249 0.282334 
v 0.0641262 0.0563263 0.261132 
v 0.0494027 0.0531801 0.282052 
v 0.06376 0.0560815 0.260851 
v 0.0489961 0.053036 0.281757 
v 0.0633535 0.0559374 0.260556 
vn -0.207603 0.97819 -0.00672157 
vn -0.207603 0.97819 -0.00672157 
vn -0.0358964 0.993105 0.111597 
vn -0.0358964 0.993105 0.111597 
vn 0.137379 0.964616 0.225038 
vn 0.137379 0.964616 0.225038 
vn 0.30465 0.893969 0.328644 
vn 0.30465 0.893969 0.328644 
vn 0.458606 0.784252 0.417887 
vn 0.458606 0.784252 0.417887 
vn 0.592519 0.640258 0.488866 
vn 0.592519 0.640258 0.488866 
vn 0.700536 0.468283 0.53848 
vn 0.700536 0.468283 0.53848 
vn 0.777937 0.275841 0.564559 
vn 0.777937 0.275841 0.564559 
vn 0.821337 0.0713435 0.565964 
vn 0.821337 0.0713435 0.565964 
vn 0.828842 -0.136272 0.542634 
vn 0.828842 -0.136272 0.542634 
vn 0.800122 -0.337932 0.495588 
vn 0.800122 -0.337932 0.495588 
vn 0.736433 -0.524822 0.426882 
vn 0.736433 -0.524822 0.426882 
vn 0.640558 -0.688775 0.33952 
vn 0.640558 -0.688775 0.33952 
vn 0.516688 -0.822626 0.237319 
vn 0.516688 -0.822626 0.237319 
vn 0.370236 -0.920524 0.124746 
vn 0.370236 -0.920524 0.124746 
vn 0.207603 -0.97819 0.00672157 
vn 0.207603 -0.97819 0.00672157 
f 329//329 330//330 331//331 
f 332//332 331//331 333//333 
f 334//334 333//333 335//335 
f 336//336 335//335 337//337 
f 338//338 337//337 339//339 
f 340//340 339//339 341//341 
f 342//342 341//341 343//343 
f 344//344 343//343 345//345 
f 346//346 345//345 347//347 
f 348//348 347//347 349//349 
f 350//350 349//349 351//351 
f 352//352 351//351 353//353 
f 354//354 353//353 355//355 
f 356//356 355//355 357//357 
f 358//358 357//357 359//359 
f 359//359 360//360 358//358 
f 357//357 358//358 356//356 
f 355//355 356//356 354//354 
f 353//353 354//354 352//352 
f 351//351 352//352 350//350 
f 349//349 350//350 348//348 
f 347//347 348//348 346//346 
f 345//345 346//346 344//344 
f 343//343 344//344 342//342 
f 341//341 342//342 340//340 
f 339//339 340//340 338//338 
f 337//337 338//338 336//336 
f 335//335 336//336 334//334 
f 333//333 334//334 332//332 
f 331//331 332//332 329//329 
o mesh660
v 0.0351143 0.0520512 0.272222 
v 0.0351222 0.0523396 0.272266 
v 0.0494795 0.055241 0.251065 
v 0.0350546 0.0517763 0.272144 
v 0.0494717 0.0549526 0.25102 
v 0.0349458 0.0515278 0.272036 
v 0.049412 0.0546777 0.250942 
v 0.034793 0.0513172 0.271904 
v 0.0493032 0.0544292 0.250835 
v 0.0346032 0.0511544 0.271753 
v 0.0491503 0.0542186 0.250702 
v 0.0343855 0.0510471 0.271591 
v 0.0489606 0.0540558 0.250551 
v 0.03415 0.0510001 0.271425 
v 0.0487429 0.0539485 0.250389 
v 0.0339076 0.0510158 0.271263 
v 0.0485073 0.0539015 0.250223 
v 0.0336698 0.0510934 0.271112 
v 0.048265 0.0539172 0.250061 
v 0.0334476 0.0512293 0.270981 
v 0.0480271 0.0539948 0.249911 
v 0.0332514 0.0514171 0.270873 
v 0.0478049 0.0541307 0.249779 
v 0.0330905 0.051648 0.270796 
v 0.0476088 0.0543185 0.249672 
v 0.0329723 0.0519113 0.270752 
v 0.0474478 0.0545494 0.249595 
v 0.0329023 0.0521945 0.270743 
v 0.0473296 0.0548127 0.249551 
v 0.0328839 0.0524846 0.270771 
v 0.0472597 0.0550959 0.249542 
v 0.0329178 0.0527679 0.270832 
v 0.0472412 0.055386 0.249569 
v 0.0330026 0.0530311 0.270926 
v 0.0472752 0.0556693 0.249631 
v 0.0331342 0.0532621 0.271046 
v 0.04736 0.0559325 0.249724 
v 0.0333065 0.0534499 0.271189 
v 0.0474916 0.0561635 0.249845 
v 0.0335114 0.0535857 0.271346 
v 0.0476639 0.0563512 0.249987 
v 0.0337394 0.0536633 0.271511 
v 0.0478688 0.0564871 0.250145 
v 0.0339798 0.053679 0.271676 
v 0.0480967 0.0565647 0.25031 
v 0.0342213 0.0536321 0.271833 
v 0.0483371 0.0565804 0.250475 
v 0.0344526 0.0535247 0.271975 
v 0.0485786 0.0565335 0.250632 
v 0.034663 0.053362 0.272095 
v 0.04881 0.0564261 0.250774 
v 0.0348426 0.0531514 0.272188 
v 0.0490204 0.0562633 0.250894 
v 0.0349831 0.0529028 0.272249 
v 0.0492 0.0560528 0.250987 
v 0.0350777 0.0526279 0.272276 
v 0.0493404 0.0558042 0.251048 
v 0.049435 0.0555293 0.251074 
vn -0.82222 0.213604 -0.527567 
vn -0.828007 2.20856e-16 -0.560717 
vn -0.828007 2.20856e-16 -0.560717 
vn -0.777988 0.417219 -0.469748 
vn -0.82222 0.213604 -0.527567 
vn -0.697377 0.601326 -0.389965 
vn -0.777988 0.417219 -0.469748 
vn -0.584157 0.757316 -0.291947 
vn -0.697377 0.601326 -0.389965 
vn -0.443624 0.877894 -0.180278 
vn -0.584157 0.757316 -0.291947 
vn -0.282346 0.957423 -0.0601791 
vn -0.443624 0.877894 -0.180278 
vn -0.107867 0.992184 0.0627334 
vn -0.282346 0.957423 -0.0601791 
vn 0.0716562 0.980552 0.182713 
vn -0.107867 0.992184 0.0627334 
vn 0.247829 0.92307 0.294148 
vn 0.0716562 0.980552 0.182713 
vn 0.412413 0.822426 0.39183 
vn 0.247829 0.92307 0.294148 
vn 0.557714 0.683327 0.47119 
vn 0.412413 0.822426 0.39183 
vn 0.676936 0.512276 0.528518 
vn 0.557714 0.683327 0.47119 
vn 0.764506 0.317271 0.561133 
vn 0.676936 0.512276 0.528518 
vn 0.816328 0.107432 0.56751 
vn 0.764506 0.317271 0.561133 
vn 0.829979 -0.107432 0.547351 
vn 0.816328 0.107432 0.56751 
vn 0.804822 -0.317271 0.501598 
vn 0.829979 -0.107432 0.547351 
vn 0.742032 -0.512276 0.432391 
vn 0.804822 -0.317271 0.501598 
vn 0.644545 -0.683327 0.342966 
vn 0.742032 -0.512276 0.432391 
vn 0.516921 -0.822426 0.237505 
vn 0.644545 -0.683327 0.342966 
vn 0.365125 -0.92307 0.120937 
vn 0.516921 -0.822426 0.237505 
vn 0.196257 -0.980552 -0.00128466 
vn 0.365125 -0.92307 0.120937 
vn 0.0182121 -0.992184 -0.123447 
vn 0.196257 -0.980552 -0.00128466 
vn -0.160684 -0.957423 -0.239836 
vn 0.0182121 -0.992184 -0.123447 
vn -0.332068 -0.877894 -0.345012 
vn -0.160684 -0.957423 -0.239836 
vn -0.487924 -0.757316 -0.434055 
vn -0.332068 -0.877894 -0.345012 
vn -0.620965 -0.601326 -0.502802 
vn -0.487924 -0.757316 -0.434055 
vn -0.724971 -0.417219 -0.548038 
vn -0.620965 -0.601326 -0.502802 
vn -0.795077 -0.213604 -0.567649 
vn -0.724971 -0.417219 -0.548038 
vn -0.795077 -0.213604 -0.567649 
f 361//361 362//362 363//363 
f 364//364 361//361 365//365 
f 366//366 364//364 367//367 
f 368//368 366//366 369//369 
f 370//370 368//368 371//371 
f 372//372 370//370 373//373 
f 374//374 372//372 375//375 
f 376//376 374//374 377//377 
f 378//378 376//376 379//379 
f 380//380 378//378 381//381 
f 382//382 380//380 383//383 
f 384//384 382//382 385//385 
f 386//386 384//384 387//387 
f 388//388 386//386 389//389 
f 390//390 388//388 391//391 
f 392//392 390//390 393//393 
f 394//394 392//392 395//395 
f 396//396 394//394 397//397 
f 398//398 396//396 399//399 
f 400//400 398//398 401//401 
f 402//402 400//400 403//403 
f 404//404 402//402 405//405 
f 406//406 404//404 407//407 
f 408//408 406//406 409//409 
f 410//410 408//408 411//411 
f 412//412 410//410 413//413 
f 414//414 412//412 415//415 
f 416//416 414//414 417//417 
f 362//362 416//416 418//418 
f 418//418 363//363 362//362 
f 417//417 418//418 416//416 
f 415//415 417//417 414//414 
f 413//413 415//415 412//412 
f 411//411 413//413 410//410 
f 409//409 411//411 408//408 
f 407//407 409//409 406//406 
f 405//405 407//407 404//404 
f 403//403 405//405 402//402 
f 401//401 403//403 400//400 
f 399//399 401//401 398//398 
f 397//397 399//399 396//396 
f 395//395 397//397 394//394 
f 393//393 395//395 392//392 
f 391//391 393//393 390//390 
f 389//389 391//391 388//388 
f 387//387 389//389 386//386 
f 385//385 387//387 384//384 
f 383//383 385//385 382//382 
f 381//381 383//383 380//380 
f 379//379 381//381 378//378 
f 377//377 379//379 376//376 
f 375//375 377//377 374//374 
f 373//373 375//375 372//372 
f 371//371 373//373 370//370 
f 369//369 371//371 368//368 
f 367//367 369//369 366//366 
f 365//365 367//367 364//364 
f 363//363 365//365 361//361 
o mesh661
v 0.0495871 0.0551931 0.282452 
v 0.0495949 0.0554814 0.282497 
v 0.0639523 0.0583828 0.261296 
v 0.0495274 0.0549182 0.282374 
v 0.0639444 0.0580945 0.261251 
v 0.0494185 0.0546697 0.282267 
v 0.0638847 0.0578196 0.261173 
v 0.0492657 0.0544591 0.282134 
v 0.0637759 0.0575711 0.261065 
v 0.049076 0.0542963 0.281984 
v 0.0636231 0.0573605 0.260933 
v 0.0488583 0.0541889 0.281821 
v 0.0634333 0.0571977 0.260782 
v 0.0486227 0.054142 0.281656 
v 0.0632156 0.0570903 0.26062 
v 0.0483804 0.0541577 0.281494 
v 0.0629801 0.0570434 0.260454 
v 0.0481425 0.0542353 0.281343 
v 0.0627377 0.0570591 0.260292 
v 0.0479203 0.0543712 0.281211 
v 0.0624999 0.0571367 0.260142 
v 0.0477242 0.054559 0.281104 
v 0.0622777 0.0572726 0.26001 
v 0.0475632 0.0547899 0.281027 
v 0.0620815 0.0574604 0.259903 
v 0.047445 0.0550531 0.280983 
v 0.0619206 0.0576913 0.259825 
v 0.047375 0.0553364 0.280974 
v 0.0618024 0.0579545 0.259781 
v 0.0473566 0.0556265 0.281001 
v 0.0617324 0.0582378 0.259773 
v 0.0473906 0.0559098 0.281063 
v 0.061714 0.0585279 0.2598 
v 0.0474753 0.056173 0.281157 
v 0.0617479 0.0588112 0.259862 
v 0.047607 0.0564039 0.281277 
v 0.0618327 0.0590744 0.259955 
v 0.0477792 0.0565917 0.28142 
v 0.0619643 0.0593053 0.260076 
v 0.0479842 0.0567276 0.281577 
v 0.0621366 0.0594931 0.260218 
v 0.0482121 0.0568052 0.281742 
v 0.0623415 0.059629 0.260376 
v 0.0484525 0.0568209 0.281907 
v 0.0625695 0.0597066 0.260541 
v 0.048694 0.056774 0.282064 
v 0.0628099 0.0597223 0.260705 
v 0.0489254 0.0566666 0.282206 
v 0.0630514 0.0596754 0.260863 
v 0.0491358 0.0565038 0.282326 
v 0.0632827 0.059568 0.261005 
v 0.0493154 0.0562932 0.282419 
v 0.0634931 0.0594052 0.261125 
v 0.0494558 0.0560447 0.28248 
v 0.0636727 0.0591946 0.261218 
v 0.0495504 0.0557698 0.282507 
v 0.0638132 0.0589461 0.261279 
v 0.0639078 0.0586712 0.261305 
vn -0.82222 0.213604 -0.527567 
vn -0.828007 2.20856e-16 -0.560717 
vn -0.828007 2.20856e-16 -0.560717 
vn -0.777988 0.417219 -0.469748 
vn -0.82222 0.213604 -0.527567 
vn -0.697377 0.601326 -0.389965 
vn -0.777988 0.417219 -0.469748 
vn -0.584157 0.757316 -0.291947 
vn -0.697377 0.601326 -0.389965 
vn -0.443624 0.877894 -0.180278 
vn -0.584157 0.757316 -0.291947 
vn -0.282346 0.957423 -0.0601791 
vn -0.443624 0.877894 -0.180278 
vn -0.107867 0.992184 0.0627334 
vn -0.282346 0.957423 -0.0601791 
vn 0.0716562 0.980552 0.182713 
vn -0.107867 0.992184 0.0627334 
vn 0.247829 0.92307 0.294148 
vn 0.0716562 0.980552 0.182713 
vn 0.412413 0.822426 0.39183 
vn 0.247829 0.92307 0.294148 
vn 0.557714 0.683327 0.47119 
vn 0.412413 0.822426 0.39183 
vn 0.676936 0.512276 0.528518 
vn 0.557714 0.683327 0.47119 
vn 0.764506 0.317271 0.561133 
vn 0.676936 0.512276 0.528518 
vn 0.816328 0.107432 0.56751 
vn 0.764506 0.317271 0.561133 
vn 0.829979 -0.107432 0.547351 
vn 0.816328 0.107432 0.56751 
vn 0.804822 -0.317271 0.501598 
vn 0.829979 -0.107432 0.547351 
vn 0.742032 -0.512276 0.432391 
vn 0.804822 -0.317271 0.501598 
vn 0.644545 -0.683327 0.342966 
vn 0.742032 -0.512276 0.432391 
vn 0.516921 -0.822426 0.237505 
vn 0.644545 -0.683327 0.342966 
vn 0.365125 -0.92307 0.120937 
vn 0.516921 -0.822426 0.237505 
vn 0.196257 -0.980552 -0.00128466 
vn 0.365125 -0.92307 0.120937 
vn 0.0182121 -0.992184 -0.123447 
vn 0.196257 -0.980552 -0.00128466 
vn -0.160684 -0.957423 -0.239836 
vn 0.0182121 -0.992184 -0.123447 
vn -0.332068 -0.877894 -0.345012 
vn -0.160684 -0.957423 -0.239836 
vn -0.487924 -0.757316 -0.434055 
vn -0.332068 -0.877894 -0.345012 
vn -0.620965 -0.601326 -0.502802 
vn -0.487924 -0.757316 -0.434055 
vn -0.724971 -0.417219 -0.548038 
vn -0.620965 -0.601326 -0.502802 
vn -0.795077 -0.213604 -0.567649 
vn -0.724971 -0.417219 -0.548038 
vn -0.795077 -0.213604 -0.567649 
f 419//419 420//420 421//421 
f 422//422 419//419 423//423 
f 424//424 422//422 425//425 
f 426//426 424//424 427//427 
f 428//428 426//426 429//429 
f 430//430 428//428 431//431 
f 432//432 430//430 433//433 
f 434//434 432//432 435//435 
f 436//436 434//434 437//437 
f 438//438 436//436 439//439 
f 440//440 438//438 441//441 
f 442//442 440//440 443//443 
f 444//444 442//442 445//445 
f 446//446 444//444 447//447 
f 448//448 446//446 449//449 
f 450//450 448//448 451//451 
f 452//452 450//450 453//453 
f 454//454 452//452 455//455 
f 456//456 454//454 457//457 
f 458//458 456//456 459//459 
f 460//460 458//458 461//461 
f 462//462 460//460 463//463 
f 464//464 462//462 465//465 
f 466//466 464//464 467//467 
f 468//468 466//466 469//469 
f 470//470 468//468 471//471 
f 472//472 470//470 473//473 
f 474//474 472//472 475//475 
f 420//420 474//474 476//476 
f 476//476 421//421 420//420 
f 475//475 476//476 474//474 
f 473//473 475//475 472//472 
f 471//471 473//473 470//470 
f 469//469 471//471 468//468 
f 467//467 469//469 466//466 
f 465//465 467//467 464//464 
f 463//463 465//465 462//462 
f 461//461 463//463 460//460 
f 459//459 461//461 458//458 
f 457//457 459//459 456//456 
f 455//455 457//457 454//454 
f 453//453 455//455 452//452 
f 451//451 453//453 450//450 
f 449//449 451//451 448//448 
f 447//447 449//449 446//446 
f 445//445 447//447 444//444 
f 443//443 445//445 442//442 
f 441//441 443//443 440//440 
f 439//439 441//441 438//438 
f 437//437 439//439 436//436 
f 435//435 437//437 434//434 
f 433//433 435//435 432//432 
f 431//431 433//433 430//430 
f 429//429 431//431 428//428 
f 427//427 429//429 426//426 
f 425//425 427//427 424//424 
f 423//423 425//425 422//422 
f 421//421 423//423 419//419 
o mesh662
v 0.034663 0.0549989 0.266242 
v 0.0378792 0.0556971 0.268516 
v 0.046665 0.0574726 0.255542 
v 0.0376927 0.0556599 0.268859 
v 0.0436353 0.0568116 0.252925 
v 0.0434488 0.0567744 0.253268 
v 0.0623154 0.0608283 0.260522 
v 0.0571176 0.0597417 0.262931 
v 0.0483317 0.0579662 0.275905 
v 0.0190126 0.0516432 0.261262 
v 0.0242105 0.0527298 0.258853 
v 0.0329963 0.0545053 0.245879 
v 0.0479581 0.0579269 0.281723 
v 0.0493874 0.0580469 0.255033 
v 0.0566238 0.0596178 0.260148 
v 0.0333699 0.0545446 0.240061 
v 0.0490523 0.0579744 0.254843 
v 0.0375311 0.0556308 0.269621 
v 0.0322758 0.0544971 0.266941 
v 0.0344147 0.0549483 0.266541 
v 0.024024 0.0526926 0.259196 
v 0.057304 0.0597789 0.262588 
v 0.0569161 0.0596816 0.260402 
v 0.0571543 0.0597343 0.260709 
v 0.0319406 0.0544246 0.266751 
v 0.0472138 0.0575853 0.254999 
v 0.0475551 0.0576565 0.254819 
v 0.0469133 0.0575232 0.255243 
v 0.0479239 0.0577341 0.254711 
v 0.0436607 0.0568065 0.251395 
v 0.0437658 0.0568314 0.251772 
v 0.0574216 0.0598013 0.262214 
v 0.0574345 0.0597987 0.261434 
v 0.0574656 0.059808 0.261825 
v 0.0573294 0.0597738 0.261057 
v 0.0486872 0.0578961 0.254723 
v 0.0247043 0.0528537 0.261636 
v 0.0341142 0.0548862 0.266785 
v 0.0337729 0.054815 0.266965 
v 0.0375752 0.0556375 0.269232 
v 0.0437969 0.0568407 0.252162 
v 0.0429551 0.0566505 0.250486 
v 0.0432474 0.0567143 0.250739 
v 0.0332446 0.0545559 0.24558 
v 0.0244119 0.0527899 0.261382 
v 0.0437529 0.056834 0.252552 
v 0.0434856 0.0567669 0.251046 
v 0.0357187 0.0550795 0.245371 
v 0.0239065 0.0526702 0.25957 
v 0.0456093 0.057392 0.276413 
v 0.038373 0.055821 0.271298 
v 0.0477829 0.0578535 0.276448 
v 0.0474416 0.0577823 0.276627 
v 0.0483062 0.057815 0.254679 
v 0.0241737 0.0527372 0.261075 
v 0.0353836 0.0550071 0.24518 
v 0.0346375 0.0548476 0.245016 
v 0.0350185 0.0549288 0.245061 
v 0.0238624 0.0526635 0.259959 
v 0.0376673 0.055665 0.270389 
v 0.0375622 0.0556401 0.270012 
v 0.0380806 0.0557572 0.271045 
v 0.0378424 0.0557046 0.270738 
v 0.0466905 0.0576239 0.276768 
v 0.0463095 0.0575427 0.276723 
v 0.0480834 0.0579156 0.276204 
v 0.0239986 0.0526977 0.260727 
v 0.0330218 0.0546565 0.267105 
v 0.0326408 0.0545754 0.267061 
v 0.0338864 0.0546892 0.245157 
v 0.0342552 0.0547667 0.245049 
v 0.0335451 0.054618 0.245336 
v 0.0459445 0.0574644 0.276603 
v 0.0470728 0.0577048 0.276735 
v 0.0238935 0.0526728 0.26035 
v 0.0334041 0.0547374 0.267073 
vn -0.207603 0.97819 -0.00672157 
vn -0.207603 0.97819 -0.00672157 
vn -0.207603 0.97819 -0.00672157 
vn -0.207603 0.97819 -0.00672157 
vn -0.207603 0.97819 -0.00672157 
vn -0.207603 0.97819 -0.00672157 
vn -0.207603 0.97819 -0.00672157 
vn -0.207603 0.97819 -0.00672157 
vn -0.207603 0.97819 -0.00672157 
vn -0.207603 0.97819 -0.00672157 
vn -0.207603 0.97819 -0.00672157 
vn -0.207603 0.97819 -0.00672157 
vn -0.207603 0.97819 -0.00672157 
vn -0.207603 0.97819 -0.00672157 
vn -0.207603 0.97819 -0.00672157 
vn -0.207603 0.97819 -0.00672157 
vn -0.207603 0.97819 -0.00672157 
vn -0.207603 0.97819 -0.00672157 
vn -0.207603 0.97819 -0.00672157 
vn -0.207603 0.97819 -0.00672157 
vn -0.207603 0.97819 -0.00672157 
vn -0.207603 0.97819 -0.00672157 
vn -0.207603 0.97819 -0.00672157 
vn -0.207603 0.97819 -0.00672157 
vn -0.207603 0.97819 -0.00672157 
vn -0.207603 0.97819 -0.00672157 
vn -0.207603 0.97819 -0.00672157 
vn -0.207603 0.97819 -0.00672157 
vn -0.207603 0.97819 -0.00672157 
vn -0.207603 0.97819 -0.00672157 
vn -0.207603 0.97819 -0.00672157 
vn -0.207603 0.97819 -0.00672157 
vn -0.207603 0.97819 -0.00672157 
vn -0.207603 0.97819 -0.00672157 
vn -0.207603 0.97819 -0.00672157 
vn -0.207603 0.97819 -0.00672157 
vn -0.207603 0.97819 -0.00672157 
vn -0.207603 0.97819 -0.00672157 
vn -0.207603 0.97819 -0.00672157 
vn -0.207603 0.97819 -0.00672157 
vn -0.207603 0.97819 -0.00672157 
vn -0.207603 0.97819 -0.00672157 
vn -0.207603 0.97819 -0.00672157 
vn -0.207603 0.97819 -0.00672157 
vn -0.207603 0.97819 -0.00672157 
vn -0.207603 0.97819 -0.00672157 
vn -0.207603 0.97819 -0.00672157 
vn -0.207603 0.97819 -0.00672157 
vn -0.207603 0.97819 -0.00672157 
vn -0.207603 0.97819 -0.00672157 
vn -0.207603 0.97819 -0.00672157 
vn -0.207603 0.97819 -0.00672157 
vn -0.207603 0.97819 -0.00672157 
vn -0.207603 0.97819 -0.00672157 
vn -0.207603 0.97819 -0.00672157 
vn -0.207603 0.97819 -0.00672157 
vn -0.207603 0.97819 -0.00672157 
vn -0.207603 0.97819 -0.00672157 
vn -0.207603 0.97819 -0.00672157 
vn -0.207603 0.97819 -0.00672157 
vn -0.207603 0.97819 -0.00672157 
vn -0.207603 0.97819 -0.00672157 
vn -0.207603 0.97819 -0.00672157 
vn -0.207603 0.97819 -0.00672157 
vn -0.207603 0.97819 -0.00672157 
vn -0.207603 0.97819 -0.00672157 
vn -0.207603 0.97819 -0.00672157 
vn -0.207603 0.97819 -0.00672157 
vn -0.207603 0.97819 -0.00672157 
vn -0.207603 0.97819 -0.00672157 
vn -0.207603 0.97819 -0.00672157 
vn -0.207603 0.97819 -0.00672157 
vn -0.207603 0.97819 -0.00672157 
vn -0.207603 0.97819 -0.00672157 
vn -0.207603 0.97819 -0.00672157 
vn -0.207603 0.97819 -0.00672157 
f 477//477 478//478 479//479 
f 477//477 480//480 478//478 
f 479//479 481//481 482//482 
f 483//483 484//484 485//485 
f 479//479 482//482 477//477 
f 486//486 487//487 488//488 
f 485//485 489//489 483//483 
f 483//483 490//490 491//491 
f 492//492 493//493 490//490 
f 486//486 494//494 495//495 
f 477//477 496//496 480//480 
f 486//486 497//497 487//487 
f 483//483 498//498 484//484 
f 483//483 499//499 500//500 
f 490//490 483//483 492//492 
f 495//495 501//501 486//486 
f 481//481 502//502 503//503 
f 479//479 504//504 481//481 
f 505//505 506//506 507//507 
f 488//488 492//492 486//486 
f 483//483 508//508 498//498 
f 483//483 509//509 510//510 
f 500//500 511//511 483//483 
f 492//492 512//512 493//493 
f 501//501 513//513 486//486 
f 494//494 514//514 515//515 
f 504//504 502//502 481//481 
f 496//496 494//494 516//516 
f 507//507 517//517 505//505 
f 492//492 518//518 519//519 
f 488//488 520//520 492//492 
f 510//510 508//508 483//483 
f 491//491 499//499 483//483 
f 513//513 521//521 486//486 
f 494//494 496//496 514//514 
f 516//516 480//480 496//496 
f 517//517 522//522 505//505 
f 505//505 519//519 523//523 
f 492//492 524//524 518//518 
f 486//486 525//525 497//497 
f 489//489 526//526 527//527 
f 489//489 528//528 529//529 
f 511//511 509//509 483//483 
f 492//492 505//505 530//530 
f 521//521 531//531 486//486 
f 503//503 505//505 481//481 
f 523//523 506//506 505//505 
f 492//492 532//532 524//524 
f 492//492 533//533 534//534 
f 486//486 535//535 525//525 
f 486//486 536//536 537//537 
f 486//486 538//538 539//539 
f 527//527 486//486 489//489 
f 489//489 540//540 541//541 
f 489//489 542//542 528//528 
f 530//530 512//512 492//492 
f 531//531 543//543 486//486 
f 494//494 544//544 545//545 
f 522//522 481//481 505//505 
f 534//534 532//532 492//492 
f 492//492 546//546 547//547 
f 520//520 548//548 492//492 
f 539//539 536//536 486//486 
f 489//489 549//549 526//526 
f 489//489 550//550 540//540 
f 485//485 542//542 489//489 
f 543//543 551//551 486//486 
f 494//494 552//552 544//544 
f 519//519 505//505 492//492 
f 548//548 546//546 492//492 
f 527//527 538//538 486//486 
f 529//529 550//550 489//489 
f 545//545 495//495 494//494 
f 547//547 533//533 492//492 
f 541//541 549//549 489//489 
f 515//515 552//552 494//494 
f 551//551 535//535 486//486 
f 537//537 494//494 486//486 
o mesh663
v 0.0444869 0.0518834 0.253302 
v 0.047703 0.0525816 0.255575 
v 0.0389172 0.0508062 0.268549 
v 0.035701 0.050108 0.266276 
v 0.0387307 0.0507689 0.268892 
v 0.0354527 0.0500573 0.266575 
v 0.0446733 0.0519207 0.252959 
v 0.0479513 0.0526323 0.255276 
v 0.0482519 0.0526944 0.255032 
v 0.0351522 0.0499952 0.266819 
v 0.0447909 0.051943 0.252586 
v 0.0386132 0.0507466 0.269266 
v 0.0344421 0.0498465 0.267106 
v 0.0348109 0.049924 0.266998 
v 0.048962 0.0528431 0.254745 
v 0.0485931 0.0527656 0.254853 
v 0.0200506 0.0467522 0.261296 
v 0.0391187 0.0508663 0.271078 
v 0.039411 0.0509301 0.271332 
v 0.0385691 0.0507399 0.269655 
v 0.0386003 0.0507492 0.270046 
v 0.0448349 0.0519497 0.252196 
v 0.0333138 0.0496061 0.266975 
v 0.0336788 0.0496844 0.267094 
v 0.0329786 0.0495337 0.266785 
v 0.02545 0.047899 0.261416 
v 0.0257423 0.0479627 0.261669 
v 0.0633535 0.0559374 0.260556 
v 0.0504254 0.0531559 0.255067 
v 0.0500903 0.0530835 0.254876 
v 0.0579541 0.0547906 0.260435 
v 0.0576618 0.0547269 0.260182 
v 0.034408 0.0496536 0.240094 
v 0.0340343 0.0496143 0.245913 
v 0.0489961 0.053036 0.281757 
v 0.0493697 0.0530753 0.275938 
v 0.0469825 0.0525734 0.276637 
v 0.0473476 0.0526517 0.276757 
v 0.0387054 0.0507741 0.270423 
v 0.0388804 0.0508136 0.270771 
v 0.0340598 0.0497656 0.267139 
v 0.0249315 0.0477819 0.260383 
v 0.0250367 0.0478067 0.26076 
v 0.0342826 0.049665 0.245614 
v 0.0439931 0.0517595 0.25052 
v 0.0367567 0.0501886 0.245404 
v 0.0442854 0.0518233 0.250773 
v 0.0491214 0.0530246 0.276237 
v 0.0481108 0.0528138 0.276769 
v 0.0484796 0.0528913 0.276661 
v 0.0477285 0.0527329 0.276801 
v 0.0466473 0.052501 0.276447 
v 0.0497252 0.0530052 0.254757 
v 0.0493442 0.052924 0.254712 
v 0.0252117 0.0478463 0.261109 
v 0.025062 0.0478016 0.25923 
v 0.0249445 0.0477792 0.259603 
v 0.0252485 0.0478388 0.258887 
v 0.0583421 0.054888 0.262621 
v 0.0584596 0.0549104 0.262248 
v 0.0581556 0.0548508 0.262964 
v 0.0488209 0.0529625 0.276481 
v 0.0249004 0.0477726 0.259993 
v 0.0349244 0.0497983 0.24519 
v 0.0345832 0.0497271 0.24537 
v 0.0356755 0.0499567 0.24505 
v 0.0352932 0.0498758 0.245082 
v 0.0445236 0.051876 0.25108 
v 0.0364216 0.0501162 0.245214 
v 0.0360565 0.0500379 0.245094 
v 0.0446987 0.0519155 0.251428 
v 0.0448038 0.0519404 0.251805 
v 0.0583674 0.0548828 0.261091 
v 0.0581924 0.0548433 0.260742 
v 0.0584725 0.0549077 0.261468 
v 0.0585036 0.054917 0.261858 
vn 0.207603 -0.97819 0.00672157 
vn 0.207603 -0.97819 0.00672157 
vn 0.207603 -0.97819 0.00672157 
vn 0.207603 -0.97819 0.00672157 
vn 0.207603 -0.97819 0.00672157 
vn 0.207603 -0.97819 0.00672157 
vn 0.207603 -0.97819 0.00672157 
vn 0.207603 -0.97819 0.00672157 
vn 0.207603 -0.97819 0.00672157 
vn 0.207603 -0.97819 0.00672157 
vn 0.207603 -0.97819 0.00672157 
vn 0.207603 -0.97819 0.00672157 
vn 0.207603 -0.97819 0.00672157 
vn 0.207603 -0.97819 0.00672157 
vn 0.207603 -0.97819 0.00672157 
vn 0.207603 -0.97819 0.00672157 
vn 0.207603 -0.97819 0.00672157 
vn 0.207603 -0.97819 0.00672157 
vn 0.207603 -0.97819 0.00672157 
vn 0.207603 -0.97819 0.00672157 
vn 0.207603 -0.97819 0.00672157 
vn 0.207603 -0.97819 0.00672157 
vn 0.207603 -0.97819 0.00672157 
vn 0.207603 -0.97819 0.00672157 
vn 0.207603 -0.97819 0.00672157 
vn 0.207603 -0.97819 0.00672157 
vn 0.207603 -0.97819 0.00672157 
vn 0.207603 -0.97819 0.00672157 
vn 0.207603 -0.97819 0.00672157 
vn 0.207603 -0.97819 0.00672157 
vn 0.207603 -0.97819 0.00672157 
vn 0.207603 -0.97819 0.00672157 
vn 0.207603 -0.97819 0.00672157 
vn 0.207603 -0.97819 0.00672157 
vn 0.207603 -0.97819 0.00672157 
vn 0.207603 -0.97819 0.00672157 
vn 0.207603 -0.97819 0.00672157 
vn 0.207603 -0.97819 0.00672157 
vn 0.207603 -0.97819 0.00672157 
vn 0.207603 -0.97819 0.00672157 
vn 0.207603 -0.97819 0.00672157 
vn 0.207603 -0.97819 0.00672157 
vn 0.207603 -0.97819 0.00672157 
vn 0.207603 -0.97819 0.00672157 
vn 0.207603 -0.97819 0.00672157 
vn 0.207603 -0.97819 0.00672157 
vn 0.207603 -0.97819 0.00672157 
vn 0.207603 -0.97819 0.00672157 
vn 0.207603 -0.97819 0.00672157 
vn 0.207603 -0.97819 0.00672157 
vn 0.207603 -0.97819 0.00672157 
vn 0.207603 -0.97819 0.00672157 
vn 0.207603 -0.97819 0.00672157 
vn 0.207603 -0.97819 0.00672157 
vn 0.207603 -0.97819 0.00672157 
vn 0.207603 -0.97819 0.00672157 
vn 0.207603 -0.97819 0.00672157 
vn 0.207603 -0.97819 0.00672157 
vn 0.207603 -0.97819 0.00672157 
vn 0.207603 -0.97819 0.00672157 
vn 0.207603 -0.97819 0.00672157 
vn 0.207603 -0.97819 0.00672157 
vn 0.207603 -0.97819 0.00672157 
vn 0.207603 -0.97819 0.00672157 
vn 0.207603 -0.97819 0.00672157 
vn 0.207603 -0.97819 0.00672157 
vn 0.207603 -0.97819 0.00672157 
vn 0.207603 -0.97819 0.00672157 
vn 0.207603 -0.97819 0.00672157 
vn 0.207603 -0.97819 0.00672157 
vn 0.207603 -0.97819 0.00672157 
vn 0.207603 -0.97819 0.00672157 
vn 0.207603 -0.97819 0.00672157 
vn 0.207603 -0.97819 0.00672157 
vn 0.207603 -0.97819 0.00672157 
vn 0.207603 -0.97819 0.00672157 
f 553//553 554//554 555//555 
f 555//555 556//556 553//553 
f 555//555 557//557 556//556 
f 557//557 558//558 556//556 
f 559//559 560//560 554//554 
f 559//559 561//561 560//560 
f 557//557 562//562 558//558 
f 553//553 559//559 554//554 
f 559//559 563//563 561//561 
f 564//564 565//565 566//566 
f 566//566 562//562 564//564 
f 563//563 567//567 568//568 
f 568//568 561//561 563//563 
f 557//557 564//564 562//562 
f 569//569 570//570 571//571 
f 565//565 572//572 573//573 
f 563//563 574//574 567//567 
f 570//570 575//575 576//576 
f 569//569 577//577 575//575 
f 569//569 578//578 579//579 
f 580//580 581//581 582//582 
f 580//580 583//583 584//584 
f 569//569 585//585 586//586 
f 580//580 587//587 588//588 
f 587//587 589//589 590//590 
f 571//571 587//587 569//569 
f 565//565 591//591 592//592 
f 564//564 572//572 565//565 
f 576//576 593//593 570//570 
f 579//579 577//577 569//569 
f 584//584 581//581 580//580 
f 569//569 594//594 595//595 
f 585//585 596//596 586//586 
f 585//585 597//597 598//598 
f 580//580 599//599 597//597 
f 587//587 600//600 588//588 
f 587//587 601//601 602//602 
f 590//590 603//603 587//587 
f 571//571 604//604 587//587 
f 573//573 591//591 565//565 
f 575//575 570//570 569//569 
f 574//574 605//605 606//606 
f 582//582 574//574 580//580 
f 595//595 607//607 569//569 
f 569//569 608//608 609//609 
f 586//586 610//610 569//569 
f 597//597 585//585 580//580 
f 580//580 611//611 612//612 
f 588//588 613//613 580//580 
f 602//602 614//614 587//587 
f 604//604 589//589 587//587 
f 593//593 565//565 570//570 
f 582//582 605//605 574//574 
f 569//569 615//615 594//594 
f 610//610 608//608 569//569 
f 585//585 616//616 617//617 
f 585//585 618//618 619//619 
f 580//580 620//620 599//599 
f 613//613 611//611 580//580 
f 603//603 601//601 587//587 
f 606//606 567//567 574//574 
f 609//609 615//615 569//569 
f 619//619 616//616 585//585 
f 585//585 621//621 622//622 
f 580//580 623//623 620//620 
f 580//580 574//574 624//624 
f 614//614 600//600 587//587 
f 607//607 578//578 569//569 
f 622//622 618//618 585//585 
f 624//624 623//623 580//580 
f 580//580 625//625 626//626 
f 592//592 570//570 565//565 
f 598//598 621//621 585//585 
f 580//580 627//627 625//625 
f 617//617 596//596 585//585 
f 580//580 628//628 627//627 
f 626//626 583//583 580//580 
f 612//612 628//628 580//580 
o mesh664
v 0.0389172 0.0508062 0.268549 
v 0.047703 0.0525816 0.255575 
v 0.046665 0.0574726 0.255542 
v 0.0378792 0.0556971 0.268516 
vn 0.804042 0.174548 0.568375 
vn 0.804042 0.174548 0.568375 
vn 0.804042 0.174548 0.568375 
vn 0.804042 0.174548 0.568375 
f 629//629 630//630 631//631 
f 631//631 632//632 629//629 
o mesh665
v 0.0493874 0.0580469 0.255033 
v 0.0504254 0.0531559 0.255067 
v 0.0576618 0.0547269 0.260182 
v 0.0566238 0.0596178 0.260148 
vn -0.557152 -0.112592 0.822742 
vn -0.557152 -0.112592 0.822742 
vn -0.557152 -0.112592 0.822742 
vn -0.557152 -0.112592 0.822742 
f 633//633 634//634 635//635 
f 635//635 636//636 633//633 
o mesh666
v 0.0483317 0.0579662 0.275905 
v 0.0571176 0.0597417 0.262931 
v 0.0581556 0.0548508 0.262964 
v 0.0493697 0.0530753 0.275938 
vn -0.804042 -0.174548 -0.568375 
vn -0.804042 -0.174548 -0.568375 
vn -0.804042 -0.174548 -0.568375 
vn -0.804042 -0.174548 -0.568375 
f 637//637 638//638 639//639 
f 639//639 640//640 637//637 
o mesh667
v 0.039411 0.0509301 0.271332 
v 0.038373 0.055821 0.271298 
v 0.0456093 0.057392 0.276413 
v 0.0466473 0.052501 0.276447 
vn 0.557152 0.112592 -0.822742 
vn 0.557152 0.112592 -0.822742 
vn 0.557152 0.112592 -0.822742 
vn 0.557152 0.112592 -0.822742 
f 641//641 642//642 643//643 
f 643//643 644//644 641//641 
o mesh668
v 0.035701 0.050108 0.266276 
v 0.034663 0.0549989 0.266242 
v 0.0434488 0.0567744 0.253268 
v 0.0444869 0.0518834 0.253302 
vn -0.804042 -0.174548 -0.568375 
vn -0.804042 -0.174548 -0.568375 
vn -0.804042 -0.174548 -0.568375 
vn -0.804042 -0.174548 -0.568375 
f 645//645 646//646 647//647 
f 647//647 648//648 645//645 
o mesh669
v 0.0247043 0.0528537 0.261636 
v 0.0319406 0.0544246 0.266751 
v 0.0329786 0.0495337 0.266785 
v 0.0257423 0.0479627 0.261669 
vn 0.557152 0.112592 -0.822742 
vn 0.557152 0.112592 -0.822742 
vn 0.557152 0.112592 -0.822742 
vn 0.557152 0.112592 -0.822742 
f 649//649 650//650 651//651 
f 651//651 652//652 649//649 
o mesh670
v 0.0242105 0.0527298 0.258853 
v 0.0252485 0.0478388 0.258887 
v 0.0340343 0.0496143 0.245913 
v 0.0329963 0.0545053 0.245879 
vn 0.804042 0.174548 0.568375 
vn 0.804042 0.174548 0.568375 
vn 0.804042 0.174548 0.568375 
vn 0.804042 0.174548 0.568375 
f 653//653 654//654 655//655 
f 655//655 656//656 653//653 
o mesh671
v 0.0357187 0.0550795 0.245371 
v 0.0367567 0.0501886 0.245404 
v 0.0439931 0.0517595 0.25052 
v 0.0429551 0.0566505 0.250486 
vn -0.557152 -0.112592 0.822742 
vn -0.557152 -0.112592 0.822742 
vn -0.557152 -0.112592 0.822742 
vn -0.557152 -0.112592 0.822742 
f 657//657 658//658 659//659 
f 659//659 660//660 657//657 
o mesh672
v 0.0446733 0.0519207 0.252959 
v 0.0444869 0.0518834 0.253302 
v 0.0434488 0.0567744 0.253268 
v 0.0447909 0.051943 0.252586 
v 0.0436353 0.0568116 0.252925 
v 0.0448349 0.0519497 0.252196 
v 0.0437529 0.056834 0.252552 
v 0.0448038 0.0519404 0.251805 
v 0.0437969 0.0568407 0.252162 
v 0.0446987 0.0519155 0.251428 
v 0.0437658 0.0568314 0.251772 
v 0.0445236 0.051876 0.25108 
v 0.0436607 0.0568065 0.251395 
v 0.0442854 0.0518233 0.250773 
v 0.0434856 0.0567669 0.251046 
v 0.0439931 0.0517595 0.25052 
v 0.0432474 0.0567143 0.250739 
v 0.0429551 0.0566505 0.250486 
vn -0.897287 -0.19316 -0.396945 
vn -0.804042 -0.174548 -0.568375 
vn -0.804042 -0.174548 -0.568375 
vn -0.95605 -0.204349 -0.21026 
vn -0.897287 -0.19316 -0.396945 
vn -0.978073 -0.207684 -0.0154953 
vn -0.95605 -0.204349 -0.21026 
vn -0.962509 -0.203039 0.179865 
vn -0.978073 -0.207684 -0.0154953 
vn -0.909956 -0.19059 0.368313 
vn -0.962509 -0.203039 0.179865 
vn -0.822435 -0.170818 0.542607 
vn -0.909956 -0.19059 0.368313 
vn -0.703307 -0.144481 0.696049 
vn -0.822435 -0.170818 0.542607 
vn -0.557152 -0.112592 0.822742 
vn -0.703307 -0.144481 0.696049 
vn -0.557152 -0.112592 0.822742 
f 661//661 662//662 663//663 
f 664//664 661//661 665//665 
f 666//666 664//664 667//667 
f 668//668 666//666 669//669 
f 670//670 668//668 671//671 
f 672//672 670//670 673//673 
f 674//674 672//672 675//675 
f 676//676 674//674 677//677 
f 677//677 678//678 676//676 
f 675//675 677//677 674//674 
f 673//673 675//675 672//672 
f 671//671 673//673 670//670 
f 669//669 671//671 668//668 
f 667//667 669//669 666//666 
f 665//665 667//667 664//664 
f 663//663 665//665 661//661 
o mesh673
v 0.0332446 0.0545559 0.24558 
v 0.0329963 0.0545053 0.245879 
v 0.0340343 0.0496143 0.245913 
v 0.0335451 0.054618 0.245336 
v 0.0342826 0.049665 0.245614 
v 0.0338864 0.0546892 0.245157 
v 0.0345832 0.0497271 0.24537 
v 0.0342552 0.0547667 0.245049 
v 0.0349244 0.0497983 0.24519 
v 0.0346375 0.0548476 0.245016 
v 0.0352932 0.0498758 0.245082 
v 0.0350185 0.0549288 0.245061 
v 0.0356755 0.0499567 0.24505 
v 0.0353836 0.0550071 0.24518 
v 0.0360565 0.0500379 0.245094 
v 0.0357187 0.0550795 0.245371 
v 0.0364216 0.0501162 0.245214 
v 0.0367567 0.0501886 0.245404 
vn 0.679897 0.149229 0.717963 
vn 0.804042 0.174548 0.568375 
vn 0.804042 0.174548 0.568375 
vn 0.529625 0.118175 0.83996 
vn 0.679897 0.149229 0.717963 
vn 0.358999 0.0825791 0.929678 
vn 0.529625 0.118175 0.83996 
vn 0.174577 0.04381 0.983668 
vn 0.358999 0.0825791 0.929678 
vn -0.0165533 0.00335733 0.999857 
vn 0.174577 0.04381 0.983668 
vn -0.207048 -0.0372244 0.977622 
vn -0.0165533 0.00335733 0.999857 
vn -0.389586 -0.0763756 0.917818 
vn -0.207048 -0.0372244 0.977622 
vn -0.557152 -0.112592 0.822742 
vn -0.389586 -0.0763756 0.917818 
vn -0.557152 -0.112592 0.822742 
f 679//679 680//680 681//681 
f 682//682 679//679 683//683 
f 684//684 682//682 685//685 
f 686//686 684//684 687//687 
f 688//688 686//686 689//689 
f 690//690 688//688 691//691 
f 692//692 690//690 693//693 
f 694//694 692//692 695//695 
f 695//695 696//696 694//694 
f 693//693 695//695 692//692 
f 691//691 693//693 690//690 
f 689//689 691//691 688//688 
f 687//687 689//689 686//686 
f 685//685 687//687 684//684 
f 683//683 685//685 682//682 
f 681//681 683//683 679//679 
o mesh674
v 0.0469133 0.0575232 0.255243 
v 0.046665 0.0574726 0.255542 
v 0.047703 0.0525816 0.255575 
v 0.0472138 0.0575853 0.254999 
v 0.0479513 0.0526323 0.255276 
v 0.0475551 0.0576565 0.254819 
v 0.0482519 0.0526944 0.255032 
v 0.0479239 0.0577341 0.254711 
v 0.0485931 0.0527656 0.254853 
v 0.0483062 0.057815 0.254679 
v 0.048962 0.0528431 0.254745 
v 0.0486872 0.0578961 0.254723 
v 0.0493442 0.052924 0.254712 
v 0.0490523 0.0579744 0.254843 
v 0.0497252 0.0530052 0.254757 
v 0.0493874 0.0580469 0.255033 
v 0.0500903 0.0530835 0.254876 
v 0.0504254 0.0531559 0.255067 
vn 0.679897 0.149229 0.717963 
vn 0.804042 0.174548 0.568375 
vn 0.804042 0.174548 0.568375 
vn 0.529625 0.118175 0.83996 
vn 0.679897 0.149229 0.717963 
vn 0.358999 0.0825791 0.929678 
vn 0.529625 0.118175 0.83996 
vn 0.174577 0.04381 0.983668 
vn 0.358999 0.0825791 0.929678 
vn -0.0165533 0.00335733 0.999857 
vn 0.174577 0.04381 0.983668 
vn -0.207048 -0.0372244 0.977622 
vn -0.0165533 0.00335733 0.999857 
vn -0.389586 -0.0763756 0.917818 
vn -0.207048 -0.0372244 0.977622 
vn -0.557152 -0.112592 0.822742 
vn -0.389586 -0.0763756 0.917818 
vn -0.557152 -0.112592 0.822742 
f 697//697 698//698 699//699 
f 700//700 697//697 701//701 
f 702//702 700//700 703//703 
f 704//704 702//702 705//705 
f 706//706 704//704 707//707 
f 708//708 706//706 709//709 
f 710//710 708//708 711//711 
f 712//712 710//710 713//713 
f 713//713 714//714 712//712 
f 711//711 713//713 710//710 
f 709//709 711//711 708//708 
f 707//707 709//709 706//706 
f 705//705 707//707 704//704 
f 703//703 705//705 702//702 
f 701//701 703//703 700//700 
f 699//699 701//701 697//697 
o mesh675
v 0.0569161 0.0596816 0.260402 
v 0.0566238 0.0596178 0.260148 
v 0.0576618 0.0547269 0.260182 
v 0.0571543 0.0597343 0.260709 
v 0.0579541 0.0547906 0.260435 
v 0.0573294 0.0597738 0.261057 
v 0.0581924 0.0548433 0.260742 
v 0.0574345 0.0597987 0.261434 
v 0.0583674 0.0548828 0.261091 
v 0.0574656 0.059808 0.261825 
v 0.0584725 0.0549077 0.261468 
v 0.0574216 0.0598013 0.262214 
v 0.0585036 0.054917 0.261858 
v 0.057304 0.0597789 0.262588 
v 0.0584596 0.0549104 0.262248 
v 0.0571176 0.0597417 0.262931 
v 0.0583421 0.054888 0.262621 
v 0.0581556 0.0548508 0.262964 
vn -0.703307 -0.144481 0.696049 
vn -0.557152 -0.112592 0.822742 
vn -0.557152 -0.112592 0.822742 
vn -0.822435 -0.170818 0.542607 
vn -0.703307 -0.144481 0.696049 
vn -0.909956 -0.19059 0.368313 
vn -0.822435 -0.170818 0.542607 
vn -0.962509 -0.203039 0.179865 
vn -0.909956 -0.19059 0.368313 
vn -0.978073 -0.207684 -0.0154953 
vn -0.962509 -0.203039 0.179865 
vn -0.95605 -0.204349 -0.21026 
vn -0.978073 -0.207684 -0.0154953 
vn -0.897287 -0.19316 -0.396945 
vn -0.95605 -0.204349 -0.21026 
vn -0.804042 -0.174548 -0.568375 
vn -0.897287 -0.19316 -0.396945 
vn -0.804042 -0.174548 -0.568375 
f 715//715 716//716 717//717 
f 718//718 715//715 719//719 
f 720//720 718//718 721//721 
f 722//722 720//720 723//723 
f 724//724 722//722 725//725 
f 726//726 724//724 727//727 
f 728//728 726//726 729//729 
f 730//730 728//728 731//731 
f 731//731 732//732 730//730 
f 729//729 731//731 728//728 
f 727//727 729//729 726//726 
f 725//725 727//727 724//724 
f 723//723 725//725 722//722 
f 721//721 723//723 720//720 
f 719//719 721//721 718//718 
f 717//717 719//719 715//715 
o mesh676
v 0.0480834 0.0579156 0.276204 
v 0.0483317 0.0579662 0.275905 
v 0.0493697 0.0530753 0.275938 
v 0.0477829 0.0578535 0.276448 
v 0.0491214 0.0530246 0.276237 
v 0.0474416 0.0577823 0.276627 
v 0.0488209 0.0529625 0.276481 
v 0.0470728 0.0577048 0.276735 
v 0.0484796 0.0528913 0.276661 
v 0.0466905 0.0576239 0.276768 
v 0.0481108 0.0528138 0.276769 
v 0.0463095 0.0575427 0.276723 
v 0.0477285 0.0527329 0.276801 
v 0.0459445 0.0574644 0.276603 
v 0.0473476 0.0526517 0.276757 
v 0.0456093 0.057392 0.276413 
v 0.0469825 0.0525734 0.276637 
v 0.0466473 0.052501 0.276447 
vn -0.679897 -0.149229 -0.717963 
vn -0.804042 -0.174548 -0.568375 
vn -0.804042 -0.174548 -0.568375 
vn -0.529625 -0.118175 -0.83996 
vn -0.679897 -0.149229 -0.717963 
vn -0.358999 -0.0825791 -0.929678 
vn -0.529625 -0.118175 -0.83996 
vn -0.174577 -0.04381 -0.983668 
vn -0.358999 -0.0825791 -0.929678 
vn 0.0165533 -0.00335733 -0.999857 
vn -0.174577 -0.04381 -0.983668 
vn 0.207048 0.0372244 -0.977622 
vn 0.0165533 -0.00335733 -0.999857 
vn 0.389586 0.0763756 -0.917818 
vn 0.207048 0.0372244 -0.977622 
vn 0.557152 0.112592 -0.822742 
vn 0.389586 0.0763756 -0.917818 
vn 0.557152 0.112592 -0.822742 
f 733//733 734//734 735//735 
f 736//736 733//733 737//737 
f 738//738 736//736 739//739 
f 740//740 738//738 741//741 
f 742//742 740//740 743//743 
f 744//744 742//742 745//745 
f 746//746 744//744 747//747 
f 748//748 746//746 749//749 
f 749//749 750//750 748//748 
f 747//747 749//749 746//746 
f 745//745 747//747 744//744 
f 743//743 745//745 742//742 
f 741//741 743//743 740//740 
f 739//739 741//741 738//738 
f 737//737 739//739 736//736 
f 735//735 737//737 733//733 
o mesh677
v 0.0244119 0.0527899 0.261382 
v 0.0247043 0.0528537 0.261636 
v 0.0257423 0.0479627 0.261669 
v 0.0241737 0.0527372 0.261075 
v 0.02545 0.047899 0.261416 
v 0.0239986 0.0526977 0.260727 
v 0.0252117 0.0478463 0.261109 
v 0.0238935 0.0526728 0.26035 
v 0.0250367 0.0478067 0.26076 
v 0.0238624 0.0526635 0.259959 
v 0.0249315 0.0477819 0.260383 
v 0.0239065 0.0526702 0.25957 
v 0.0249004 0.0477726 0.259993 
v 0.024024 0.0526926 0.259196 
v 0.0249445 0.0477792 0.259603 
v 0.0242105 0.0527298 0.258853 
v 0.025062 0.0478016 0.25923 
v 0.0252485 0.0478388 0.258887 
vn 0.703307 0.144481 -0.696049 
vn 0.557152 0.112592 -0.822742 
vn 0.557152 0.112592 -0.822742 
vn 0.822435 0.170818 -0.542607 
vn 0.703307 0.144481 -0.696049 
vn 0.909956 0.19059 -0.368313 
vn 0.822435 0.170818 -0.542607 
vn 0.962509 0.203039 -0.179865 
vn 0.909956 0.19059 -0.368313 
vn 0.978073 0.207684 0.0154953 
vn 0.962509 0.203039 -0.179865 
vn 0.95605 0.204349 0.21026 
vn 0.978073 0.207684 0.0154953 
vn 0.897287 0.19316 0.396945 
vn 0.95605 0.204349 0.21026 
vn 0.804042 0.174548 0.568375 
vn 0.897287 0.19316 0.396945 
vn 0.804042 0.174548 0.568375 
f 751//751 752//752 753//753 
f 754//754 751//751 755//755 
f 756//756 754//754 757//757 
f 758//758 756//756 759//759 
f 760//760 758//758 761//761 
f 762//762 760//760 763//763 
f 764//764 762//762 765//765 
f 766//766 764//764 767//767 
f 767//767 768//768 766//766 
f 765//765 767//767 764//764 
f 763//763 765//765 762//762 
f 761//761 763//763 760//760 
f 759//759 761//761 758//758 
f 757//757 759//759 756//756 
f 755//755 757//757 754//754 
f 753//753 755//755 751//751 
o mesh678
v 0.0333138 0.0496061 0.266975 
v 0.0329786 0.0495337 0.266785 
v 0.0319406 0.0544246 0.266751 
v 0.0336788 0.0496844 0.267094 
v 0.0322758 0.0544971 0.266941 
v 0.0340598 0.0497656 0.267139 
v 0.0326408 0.0545754 0.267061 
v 0.0344421 0.0498465 0.267106 
v 0.0330218 0.0546565 0.267105 
v 0.0348109 0.049924 0.266998 
v 0.0334041 0.0547374 0.267073 
v 0.0351522 0.0499952 0.266819 
v 0.0337729 0.054815 0.266965 
v 0.0354527 0.0500573 0.266575 
v 0.0341142 0.0548862 0.266785 
v 0.035701 0.050108 0.266276 
v 0.0344147 0.0549483 0.266541 
v 0.034663 0.0549989 0.266242 
vn 0.389586 0.0763756 -0.917818 
vn 0.557152 0.112592 -0.822742 
vn 0.557152 0.112592 -0.822742 
vn 0.207048 0.0372244 -0.977622 
vn 0.389586 0.0763756 -0.917818 
vn 0.0165533 -0.00335733 -0.999857 
vn 0.207048 0.0372244 -0.977622 
vn -0.174577 -0.04381 -0.983668 
vn 0.0165533 -0.00335733 -0.999857 
vn -0.358999 -0.0825791 -0.929678 
vn -0.174577 -0.04381 -0.983668 
vn -0.529625 -0.118175 -0.83996 
vn -0.358999 -0.0825791 -0.929678 
vn -0.679897 -0.149229 -0.717963 
vn -0.529625 -0.118175 -0.83996 
vn -0.804042 -0.174548 -0.568375 
vn -0.679897 -0.149229 -0.717963 
vn -0.804042 -0.174548 -0.568375 
f 769//769 770//770 771//771 
f 772//772 769//769 773//773 
f 774//774 772//772 775//775 
f 776//776 774//774 777//777 
f 778//778 776//776 779//779 
f 780//780 778//778 781//781 
f 782//782 780//780 783//783 
f 784//784 782//782 785//785 
f 785//785 786//786 784//784 
f 783//783 785//785 782//782 
f 781//781 783//783 780//780 
f 779//779 781//781 778//778 
f 777//777 779//779 776//776 
f 775//775 777//777 774//774 
f 773//773 775//775 772//772 
f 771//771 773//773 769//769 
o mesh679
v 0.0380806 0.0557572 0.271045 
v 0.038373 0.055821 0.271298 
v 0.039411 0.0509301 0.271332 
v 0.0378424 0.0557046 0.270738 
v 0.0391187 0.0508663 0.271078 
v 0.0376673 0.055665 0.270389 
v 0.0388804 0.0508136 0.270771 
v 0.0375622 0.0556401 0.270012 
v 0.0387054 0.0507741 0.270423 
v 0.0375311 0.0556308 0.269621 
v 0.0386003 0.0507492 0.270046 
v 0.0375752 0.0556375 0.269232 
v 0.0385691 0.0507399 0.269655 
v 0.0376927 0.0556599 0.268859 
v 0.0386132 0.0507466 0.269266 
v 0.0378792 0.0556971 0.268516 
v 0.0387307 0.0507689 0.268892 
v 0.0389172 0.0508062 0.268549 
vn 0.703307 0.144481 -0.696049 
vn 0.557152 0.112592 -0.822742 
vn 0.557152 0.112592 -0.822742 
vn 0.822435 0.170818 -0.542607 
vn 0.703307 0.144481 -0.696049 
vn 0.909956 0.19059 -0.368313 
vn 0.822435 0.170818 -0.542607 
vn 0.962509 0.203039 -0.179865 
vn 0.909956 0.19059 -0.368313 
vn 0.978073 0.207684 0.0154953 
vn 0.962509 0.203039 -0.179865 
vn 0.95605 0.204349 0.21026 
vn 0.978073 0.207684 0.0154953 
vn 0.897287 0.19316 0.396945 
vn 0.95605 0.204349 0.21026 
vn 0.804042 0.174548 0.568375 
vn 0.897287 0.19316 0.396945 
vn 0.804042 0.174548 0.568375 
f 787//787 788//788 789//789 
f 790//790 787//787 791//791 
f 792//792 790//790 793//793 
f 794//794 792//792 795//795 
f 796//796 794//794 797//797 
f 798//798 796//796 799//799 
f 800//800 798//798 801//801 
f 802//802 800//800 803//803 
f 803//803 804//804 802//802 
f 801//801 803//803 800//800 
f 799//799 801//801 798//798 
f 797//797 799//799 796//796 
f 795//795 797//797 794//794 
f 793//793 795//795 792//792 
f 791//791 793//793 790//790 
f 789//789 791//791 787//787 
