# OBJ generated by ONSHAPE BY PTC INC, 1.221 Units = meters
mtllib Part_1.mtl
g Part 1
usemtl 0.713725_0.760784_0.800000_0.000000_0.000000
o mesh0
v 0.00273458 0.00207877 0.005 
v 0.0017678 0.00167455 0.005 
v 0.00208645 0.00125537 0.005 
v 0.00222377 0.00261803 0.005 
v 0.00160898 0.00303486 0.005 
v 0.00136649 0.00201542 0.005 
v 0.000185967 0.00342996 0.005 
v -0.000131828 0.00243143 0.005 
v 0.000393939 0.00240292 0.005 
v -0.000555721 0.00338975 0.005 
v -0.000651432 0.00234624 0.005 
v 0.00311752 0.00144232 0.005 
v 0.000901286 0.00226206 0.005 
v 0.00091896 0.00330979 0.005 
v -0.00127142 0.00319104 0.005 
v -0.00114057 0.00215135 0.005 
v -0.00192768 0.00284311 0.005 
v -0.00157639 0.00185586 0.005 
v -0.00249379 0.00236225 0.005 
v -0.00193849 0.0014736 0.005 
v 0.000185967 -0.00342996 0.005 
v 0.000393939 -0.00240292 0.005 
v -0.000131828 -0.00243143 0.005 
v 0.00091896 -0.00330979 0.005 
v 0.000901286 -0.00226206 0.005 
v -0.0029433 0.00177093 0.005 
v -0.00220995 0.00102243 0.005 
v -0.00325519 0.0010968 0.005 
v -0.00237807 0.000523453 0.005 
v -0.00341486 -0.000371389 0.005 
v -0.00325519 -0.0010968 0.005 
v -0.00237807 -0.000523453 0.005 
v -0.0029433 -0.00177093 0.005 
v -0.00220995 -0.00102243 0.005 
v -0.00249379 -0.00236225 0.005 
v -0.00157639 -0.00185586 0.005 
v -0.00193849 -0.0014736 0.005 
v -0.00192768 -0.00284311 0.005 
v -0.00114057 -0.00215135 0.005 
v -0.000555721 -0.00338975 0.005 
v -0.000651432 -0.00234624 0.005 
v 0.00160898 -0.00303486 0.005 
v 0.00136649 -0.00201542 0.005 
v 0.00273458 -0.00207877 0.005 
v 0.00208645 -0.00125537 0.005 
v 0.0017678 -0.00167455 0.005 
v 0.00311752 -0.00144232 0.005 
v 0.00335469 -0.000738423 0.005 
v 0.00230754 -0.000777499 0.005 
v 0.003435 2.10333e-19 0.005 
v 0.002435 4.47302e-19 0.005 
v 0.00242073 -0.00026327 0.005 
v 0.00335469 0.000738423 0.005 
v 0.00242073 0.00026327 0.005 
v -0.00341486 0.000371389 0.005 
v -0.002435 1.49101e-19 0.005 
v -0.00127142 -0.00319104 0.005 
v 0.00222377 -0.00261803 0.005 
v 0.00230754 0.000777499 0.005 
vn 0 0 1 
vn 0 0 1 
vn 0 0 1 
vn 0 0 1 
vn 0 0 1 
vn 0 0 1 
vn 0 0 1 
vn 0 0 1 
vn 0 0 1 
vn 0 0 1 
vn 0 0 1 
vn 0 0 1 
vn 0 0 1 
vn 0 0 1 
vn 0 0 1 
vn 0 0 1 
vn 0 0 1 
vn 0 0 1 
vn 0 0 1 
vn 0 0 1 
vn 0 0 1 
vn 0 0 1 
vn 0 0 1 
vn 0 0 1 
vn 0 0 1 
vn 0 0 1 
vn 0 0 1 
vn 0 0 1 
vn 0 0 1 
vn 0 0 1 
vn 0 0 1 
vn 0 0 1 
vn 0 0 1 
vn 0 0 1 
vn 0 0 1 
vn 0 0 1 
vn 0 0 1 
vn 0 0 1 
vn 0 0 1 
vn 0 0 1 
vn 0 0 1 
vn 0 0 1 
vn 0 0 1 
vn 0 0 1 
vn 0 0 1 
vn 0 0 1 
vn 0 0 1 
vn 0 0 1 
vn 0 0 1 
vn 0 0 1 
vn 0 0 1 
vn 0 0 1 
vn 0 0 1 
vn 0 0 1 
vn 0 0 1 
vn 0 0 1 
vn 0 0 1 
vn 0 0 1 
vn 0 0 1 
f 1//1 2//2 3//3 
f 4//4 5//5 6//6 
f 7//7 8//8 9//9 
f 10//10 11//11 8//8 
f 3//3 12//12 1//1 
f 5//5 13//13 6//6 
f 14//14 9//9 13//13 
f 8//8 7//7 10//10 
f 15//15 16//16 11//11 
f 17//17 18//18 16//16 
f 6//6 2//2 4//4 
f 9//9 14//14 7//7 
f 16//16 15//15 17//17 
f 19//19 20//20 18//18 
f 21//21 22//22 23//23 
f 24//24 25//25 22//22 
f 13//13 5//5 14//14 
f 18//18 17//17 19//19 
f 26//26 27//27 20//20 
f 28//28 29//29 27//27 
f 30//30 31//31 32//32 
f 31//31 33//33 34//34 
f 35//35 36//36 37//37 
f 38//38 39//39 36//36 
f 40//40 23//23 41//41 
f 22//22 21//21 24//24 
f 42//42 43//43 25//25 
f 44//44 45//45 46//46 
f 47//47 48//48 49//49 
f 50//50 51//51 52//52 
f 50//50 53//53 54//54 
f 11//11 10//10 15//15 
f 27//27 26//26 28//28 
f 55//55 56//56 29//29 
f 56//56 55//55 30//30 
f 33//33 37//37 34//34 
f 36//36 35//35 38//38 
f 57//57 41//41 39//39 
f 23//23 40//40 21//21 
f 25//25 24//24 42//42 
f 46//46 58//58 44//44 
f 45//45 44//44 47//47 
f 52//52 48//48 50//50 
f 53//53 59//59 54//54 
f 12//12 3//3 59//59 
f 20//20 19//19 26//26 
f 32//32 56//56 30//30 
f 37//37 33//33 35//35 
f 41//41 57//57 40//40 
f 46//46 43//43 58//58 
f 52//52 49//49 48//48 
f 59//59 53//53 12//12 
f 29//29 28//28 55//55 
f 39//39 38//38 57//57 
f 49//49 45//45 47//47 
f 1//1 4//4 2//2 
f 42//42 58//58 43//43 
f 34//34 32//32 31//31 
f 54//54 51//51 50//50 
o mesh1
v -0.00237807 -0.000523453 0 
v -0.002435 1.49101e-19 0 
v -0.002435 1.49101e-19 0.005 
v -0.00220995 -0.00102243 0 
v -0.00237807 -0.000523453 0.005 
v -0.00193849 -0.0014736 0 
v -0.00220995 -0.00102243 0.005 
v -0.00157639 -0.00185586 0 
v -0.00193849 -0.0014736 0.005 
v -0.00114057 -0.00215135 0 
v -0.00157639 -0.00185586 0.005 
v -0.000651432 -0.00234624 0 
v -0.00114057 -0.00215135 0.005 
v -0.000131828 -0.00243143 0 
v -0.000651432 -0.00234624 0.005 
v 0.000393939 -0.00240292 0 
v -0.000131828 -0.00243143 0.005 
v 0.000901286 -0.00226206 0 
v 0.000393939 -0.00240292 0.005 
v 0.00136649 -0.00201542 0 
v 0.000901286 -0.00226206 0.005 
v 0.0017678 -0.00167455 0 
v 0.00136649 -0.00201542 0.005 
v 0.00208645 -0.00125537 0 
v 0.0017678 -0.00167455 0.005 
v 0.00230754 -0.000777499 0 
v 0.00208645 -0.00125537 0.005 
v 0.00242073 -0.00026327 0 
v 0.00230754 -0.000777499 0.005 
v 0.00242073 0.00026327 0.005 
v 0.00242073 0.00026327 0 
v 0.002435 1.04371e-18 0 
v 0.00242073 -0.00026327 0.005 
v 0.002435 4.47302e-19 0.005 
v 0.00230754 0.000777499 0 
v 0.00208645 0.00125537 0 
v 0.00230754 0.000777499 0.005 
v 0.0017678 0.00167455 0 
v 0.00208645 0.00125537 0.005 
v 0.00136649 0.00201542 0 
v 0.0017678 0.00167455 0.005 
v 0.000901286 0.00226206 0 
v 0.00136649 0.00201542 0.005 
v 0.000393939 0.00240292 0 
v 0.000901286 0.00226206 0.005 
v -0.000131828 0.00243143 0 
v 0.000393939 0.00240292 0.005 
v -0.000651432 0.00234624 0 
v -0.000131828 0.00243143 0.005 
v -0.00114057 0.00215135 0 
v -0.000651432 0.00234624 0.005 
v -0.00157639 0.00185586 0 
v -0.00114057 0.00215135 0.005 
v -0.00193849 0.0014736 0 
v -0.00157639 0.00185586 0.005 
v -0.00220995 0.00102243 0 
v -0.00193849 0.0014736 0.005 
v -0.00237807 0.000523453 0 
v -0.00220995 0.00102243 0.005 
v -0.00237807 0.000523453 0.005 
vn 0.976621 0.21497 0 
vn 1 2.44929e-16 0 
vn 1 2.44929e-16 0 
vn 0.907575 0.419889 0 
vn 0.976621 0.21497 0 
vn 0.796093 0.605174 0 
vn 0.907575 0.419889 0 
vn 0.647386 0.762162 0 
vn 0.796093 0.605174 0 
vn 0.468408 0.883512 0 
vn 0.647386 0.762162 0 
vn 0.267528 0.96355 0 
vn 0.468408 0.883512 0 
vn 0.0541389 0.998533 0 
vn 0.267528 0.96355 0 
vn -0.161782 0.986827 0 
vn 0.0541389 0.998533 0 
vn -0.370138 0.928977 0 
vn -0.161782 0.986827 0 
vn -0.561187 0.827689 0 
vn -0.370138 0.928977 0 
vn -0.725995 0.687699 0 
vn -0.561187 0.827689 0 
vn -0.856857 0.515554 0 
vn -0.725995 0.687699 0 
vn -0.947653 0.319302 0 
vn -0.856857 0.515554 0 
vn -0.994138 0.108119 0 
vn -0.947653 0.319302 0 
vn -0.994138 -0.108119 0 
vn -0.994138 -0.108119 0 
vn -1 -3.67394e-16 0 
vn -0.994138 0.108119 0 
vn -1 -3.67394e-16 0 
vn -0.947653 -0.319302 0 
vn -0.856857 -0.515554 0 
vn -0.947653 -0.319302 0 
vn -0.725995 -0.687699 0 
vn -0.856857 -0.515554 0 
vn -0.561187 -0.827689 0 
vn -0.725995 -0.687699 0 
vn -0.370138 -0.928977 0 
vn -0.561187 -0.827689 0 
vn -0.161782 -0.986827 0 
vn -0.370138 -0.928977 0 
vn 0.0541389 -0.998533 0 
vn -0.161782 -0.986827 0 
vn 0.267528 -0.96355 0 
vn 0.0541389 -0.998533 0 
vn 0.468408 -0.883512 0 
vn 0.267528 -0.96355 0 
vn 0.647386 -0.762162 0 
vn 0.468408 -0.883512 0 
vn 0.796093 -0.605174 0 
vn 0.647386 -0.762162 0 
vn 0.907575 -0.419889 0 
vn 0.796093 -0.605174 0 
vn 0.976621 -0.21497 0 
vn 0.907575 -0.419889 0 
vn 0.976621 -0.21497 0 
f 60//60 61//61 62//62 
f 63//63 60//60 64//64 
f 65//65 63//63 66//66 
f 67//67 65//65 68//68 
f 69//69 67//67 70//70 
f 71//71 69//69 72//72 
f 73//73 71//71 74//74 
f 75//75 73//73 76//76 
f 77//77 75//75 78//78 
f 79//79 77//77 80//80 
f 81//81 79//79 82//82 
f 83//83 81//81 84//84 
f 85//85 83//83 86//86 
f 87//87 85//85 88//88 
f 89//89 90//90 91//91 
f 87//87 92//92 93//93 
f 93//93 91//91 87//87 
f 94//94 90//90 89//89 
f 95//95 94//94 96//96 
f 97//97 95//95 98//98 
f 99//99 97//97 100//100 
f 101//101 99//99 102//102 
f 103//103 101//101 104//104 
f 105//105 103//103 106//106 
f 107//107 105//105 108//108 
f 109//109 107//107 110//110 
f 111//111 109//109 112//112 
f 113//113 111//111 114//114 
f 115//115 113//113 116//116 
f 117//117 115//115 118//118 
f 61//61 117//117 119//119 
f 119//119 62//62 61//61 
f 118//118 119//119 117//117 
f 116//116 118//118 115//115 
f 114//114 116//116 113//113 
f 112//112 114//114 111//111 
f 110//110 112//112 109//109 
f 108//108 110//110 107//107 
f 106//106 108//108 105//105 
f 104//104 106//106 103//103 
f 102//102 104//104 101//101 
f 100//100 102//102 99//99 
f 98//98 100//100 97//97 
f 96//96 98//98 95//95 
f 89//89 96//96 94//94 
f 91//91 93//93 89//89 
f 88//88 92//92 87//87 
f 86//86 88//88 85//85 
f 84//84 86//86 83//83 
f 82//82 84//84 81//81 
f 80//80 82//82 79//79 
f 78//78 80//80 77//77 
f 76//76 78//78 75//75 
f 74//74 76//76 73//73 
f 72//72 74//74 71//71 
f 70//70 72//72 69//69 
f 68//68 70//70 67//67 
f 66//66 68//68 65//65 
f 64//64 66//66 63//63 
f 62//62 64//64 60//60 
o mesh2
v -0.00311752 0.00144232 0 
v -0.00220995 0.00102243 0 
v -0.00237807 0.000523453 0 
v -0.00273458 0.00207877 0 
v -0.00193849 0.0014736 0 
v -0.00222377 0.00261803 0 
v -0.00157639 0.00185586 0 
v -0.00160898 0.00303486 0 
v -0.00114057 0.00215135 0 
v 0.003435 6.30999e-19 0 
v 0.002435 1.04371e-18 0 
v 0.00242073 0.00026327 0 
v 0.00341486 -0.000371389 0 
v 0.00242073 -0.00026327 0 
v -0.003435 2.10333e-19 0 
v -0.00335469 0.000738423 0 
v -0.00091896 0.00330979 0 
v -0.000651432 0.00234624 0 
v -0.000185967 0.00342996 0 
v -0.000131828 0.00243143 0 
v 0.000555721 0.00338975 0 
v 0.000393939 0.00240292 0 
v 0.00325519 0.0010968 0 
v 0.00341486 0.000371389 0 
v 0.00127142 0.00319104 0 
v 0.000901286 0.00226206 0 
v 0.00325519 -0.0010968 0 
v 0.00230754 -0.000777499 0 
v 0.00192768 0.00284311 0 
v 0.00136649 0.00201542 0 
v 0.00249379 0.00236225 0 
v 0.0017678 0.00167455 0 
v 0.00230754 0.000777499 0 
v 0.00208645 0.00125537 0 
v 0.00249379 -0.00236225 0 
v 0.0017678 -0.00167455 0 
v 0.00208645 -0.00125537 0 
v 0.00192768 -0.00284311 0 
v 0.00136649 -0.00201542 0 
v 0.000555721 -0.00338975 0 
v 0.000393939 -0.00240292 0 
v 0.000901286 -0.00226206 0 
v -0.000185967 -0.00342996 0 
v -0.000131828 -0.00243143 0 
v 0.0029433 -0.00177093 0 
v 0.00127142 -0.00319104 0 
v -0.00091896 -0.00330979 0 
v -0.000651432 -0.00234624 0 
v -0.00222377 -0.00261803 0 
v -0.00157639 -0.00185586 0 
v -0.00114057 -0.00215135 0 
v -0.00273458 -0.00207877 0 
v -0.00193849 -0.0014736 0 
v -0.00311752 -0.00144232 0 
v -0.00220995 -0.00102243 0 
v -0.00335469 -0.000738423 0 
v -0.00237807 -0.000523453 0 
v 0.0029433 0.00177093 0 
v -0.00160898 -0.00303486 0 
v -0.002435 1.49101e-19 0 
vn 0 0 -1 
vn 0 0 -1 
vn 0 0 -1 
vn 0 0 -1 
vn 0 0 -1 
vn 0 0 -1 
vn 0 0 -1 
vn 0 0 -1 
vn 0 0 -1 
vn 0 0 -1 
vn 0 0 -1 
vn 0 0 -1 
vn 0 0 -1 
vn 0 0 -1 
vn 0 0 -1 
vn 0 0 -1 
vn 0 0 -1 
vn 0 0 -1 
vn 0 0 -1 
vn 0 0 -1 
vn 0 0 -1 
vn 0 0 -1 
vn 0 0 -1 
vn 0 0 -1 
vn 0 0 -1 
vn 0 0 -1 
vn 0 0 -1 
vn 0 0 -1 
vn 0 0 -1 
vn 0 0 -1 
vn 0 0 -1 
vn 0 0 -1 
vn 0 0 -1 
vn 0 0 -1 
vn 0 0 -1 
vn 0 0 -1 
vn 0 0 -1 
vn 0 0 -1 
vn 0 0 -1 
vn 0 0 -1 
vn 0 0 -1 
vn 0 0 -1 
vn 0 0 -1 
vn 0 0 -1 
vn 0 0 -1 
vn 0 0 -1 
vn 0 0 -1 
vn 0 0 -1 
vn 0 0 -1 
vn 0 0 -1 
vn 0 0 -1 
vn 0 0 -1 
vn 0 0 -1 
vn 0 0 -1 
vn 0 0 -1 
vn 0 0 -1 
vn 0 0 -1 
vn 0 0 -1 
vn 0 0 -1 
vn 0 0 -1 
f 120//120 121//121 122//122 
f 120//120 123//123 124//124 
f 125//125 126//126 124//124 
f 127//127 128//128 126//126 
f 129//129 130//130 131//131 
f 132//132 133//133 130//130 
f 134//134 135//135 122//122 
f 124//124 121//121 120//120 
f 126//126 125//125 127//127 
f 136//136 137//137 128//128 
f 138//138 139//139 137//137 
f 140//140 141//141 139//139 
f 142//142 143//143 131//131 
f 130//130 129//129 132//132 
f 122//122 135//135 120//120 
f 128//128 127//127 136//136 
f 139//139 138//138 140//140 
f 140//140 144//144 145//145 
f 131//131 143//143 129//129 
f 146//146 147//147 133//133 
f 124//124 123//123 125//125 
f 145//145 141//141 140//140 
f 148//148 149//149 145//145 
f 148//148 150//150 151//151 
f 142//142 152//152 153//153 
f 133//133 132//132 146//146 
f 154//154 155//155 156//156 
f 154//154 157//157 158//158 
f 159//159 160//160 161//161 
f 162//162 163//163 160//160 
f 137//137 136//136 138//138 
f 151//151 149//149 148//148 
f 131//131 152//152 142//142 
f 146//146 164//164 156//156 
f 158//158 155//155 154//154 
f 157//157 165//165 161//161 
f 160//160 159//159 162//162 
f 162//162 166//166 167//167 
f 168//168 169//169 170//170 
f 171//171 172//172 169//169 
f 173//173 174//174 172//172 
f 173//173 175//175 176//176 
f 145//145 144//144 148//148 
f 177//177 153//153 151//151 
f 156//156 147//147 146//146 
f 161//161 158//158 157//157 
f 167//167 163//163 162//162 
f 178//178 170//170 167//167 
f 169//169 168//168 171//171 
f 176//176 174//174 173//173 
f 151//151 150//150 177//177 
f 156//156 164//164 154//154 
f 167//167 166//166 178//178 
f 172//172 171//171 173//173 
f 153//153 177//177 142//142 
f 170//170 178//178 168//168 
f 161//161 165//165 159//159 
f 134//134 179//179 176//176 
f 176//176 175//175 134//134 
f 122//122 179//179 134//134 
o mesh3
v -0.003435 2.10333e-19 0 
v -0.003435 2.10333e-19 0.001 
v -0.00335469 0.000738423 0.001 
v -0.00335469 0.000738423 0 
v -0.00311752 0.00144232 0.001 
v -0.00311752 0.00144232 0 
v -0.00273458 0.00207877 0.001 
v -0.00273458 0.00207877 0 
v -0.00222377 0.00261803 0.001 
v -0.00222377 0.00261803 0 
v -0.00160898 0.00303486 0.001 
v -0.00160898 0.00303486 0 
v -0.00091896 0.00330979 0.001 
v -0.00091896 0.00330979 0 
v -0.000185967 0.00342996 0.001 
v -0.000185967 0.00342996 0 
v 0.000555721 0.00338975 0.001 
v 0.000555721 0.00338975 0 
v 0.00127142 0.00319104 0.001 
v 0.00127142 0.00319104 0 
v 0.00192768 0.00284311 0.001 
v 0.00192768 0.00284311 0 
v 0.00249379 0.00236225 0.001 
v 0.00249379 0.00236225 0 
v 0.0029433 0.00177093 0.001 
v 0.0029433 0.00177093 0 
v 0.00325519 0.0010968 0.001 
v 0.00325519 0.0010968 0 
v 0.00341486 0.000371389 0.001 
v 0.00341486 -0.000371389 0.001 
v 0.00341486 -0.000371389 0 
v 0.003435 6.30999e-19 0 
v 0.00341486 0.000371389 0 
v 0.003435 1.47233e-18 0.001 
v 0.00325519 -0.0010968 0.001 
v 0.00325519 -0.0010968 0 
v 0.0029433 -0.00177093 0.001 
v 0.0029433 -0.00177093 0 
v 0.00249379 -0.00236225 0.001 
v 0.00249379 -0.00236225 0 
v 0.00192768 -0.00284311 0.001 
v 0.00192768 -0.00284311 0 
v 0.00127142 -0.00319104 0.001 
v 0.00127142 -0.00319104 0 
v 0.000555721 -0.00338975 0.001 
v 0.000555721 -0.00338975 0 
v -0.000185967 -0.00342996 0.001 
v -0.000185967 -0.00342996 0 
v -0.00091896 -0.00330979 0.001 
v -0.00091896 -0.00330979 0 
v -0.00160898 -0.00303486 0.001 
v -0.00160898 -0.00303486 0 
v -0.00222377 -0.00261803 0.001 
v -0.00222377 -0.00261803 0 
v -0.00273458 -0.00207877 0.001 
v -0.00273458 -0.00207877 0 
v -0.00311752 -0.00144232 0.001 
v -0.00311752 -0.00144232 0 
v -0.00335469 -0.000738423 0.001 
v -0.00335469 -0.000738423 0 
vn -1 0 0 
vn -1 0 0 
vn -0.976621 0.21497 0 
vn -0.976621 0.21497 0 
vn -0.907575 0.419889 0 
vn -0.907575 0.419889 0 
vn -0.796093 0.605174 0 
vn -0.796093 0.605174 0 
vn -0.647386 0.762162 0 
vn -0.647386 0.762162 0 
vn -0.468408 0.883512 0 
vn -0.468408 0.883512 0 
vn -0.267528 0.96355 0 
vn -0.267528 0.96355 0 
vn -0.0541389 0.998533 0 
vn -0.0541389 0.998533 0 
vn 0.161782 0.986827 0 
vn 0.161782 0.986827 0 
vn 0.370138 0.928977 0 
vn 0.370138 0.928977 0 
vn 0.561187 0.827689 0 
vn 0.561187 0.827689 0 
vn 0.725995 0.687699 0 
vn 0.725995 0.687699 0 
vn 0.856857 0.515554 0 
vn 0.856857 0.515554 0 
vn 0.947653 0.319302 0 
vn 0.947653 0.319302 0 
vn 0.994138 0.108119 0 
vn 0.994138 -0.108119 0 
vn 0.994138 -0.108119 0 
vn 1 1.22465e-16 0 
vn 0.994138 0.108119 0 
vn 1 1.22465e-16 0 
vn 0.947653 -0.319302 0 
vn 0.947653 -0.319302 0 
vn 0.856857 -0.515554 0 
vn 0.856857 -0.515554 0 
vn 0.725995 -0.687699 0 
vn 0.725995 -0.687699 0 
vn 0.561187 -0.827689 0 
vn 0.561187 -0.827689 0 
vn 0.370138 -0.928977 0 
vn 0.370138 -0.928977 0 
vn 0.161782 -0.986827 0 
vn 0.161782 -0.986827 0 
vn -0.0541389 -0.998533 0 
vn -0.0541389 -0.998533 0 
vn -0.267528 -0.96355 0 
vn -0.267528 -0.96355 0 
vn -0.468408 -0.883512 0 
vn -0.468408 -0.883512 0 
vn -0.647386 -0.762162 0 
vn -0.647386 -0.762162 0 
vn -0.796093 -0.605174 0 
vn -0.796093 -0.605174 0 
vn -0.907575 -0.419889 0 
vn -0.907575 -0.419889 0 
vn -0.976621 -0.21497 0 
vn -0.976621 -0.21497 0 
f 180//180 181//181 182//182 
f 183//183 182//182 184//184 
f 185//185 184//184 186//186 
f 187//187 186//186 188//188 
f 189//189 188//188 190//190 
f 191//191 190//190 192//192 
f 193//193 192//192 194//194 
f 195//195 194//194 196//196 
f 197//197 196//196 198//198 
f 199//199 198//198 200//200 
f 201//201 200//200 202//202 
f 203//203 202//202 204//204 
f 205//205 204//204 206//206 
f 207//207 206//206 208//208 
f 209//209 210//210 211//211 
f 212//212 208//208 213//213 
f 213//213 211//211 212//212 
f 210//210 209//209 214//214 
f 215//215 214//214 216//216 
f 217//217 216//216 218//218 
f 219//219 218//218 220//220 
f 221//221 220//220 222//222 
f 223//223 222//222 224//224 
f 225//225 224//224 226//226 
f 227//227 226//226 228//228 
f 229//229 228//228 230//230 
f 231//231 230//230 232//232 
f 233//233 232//232 234//234 
f 235//235 234//234 236//236 
f 237//237 236//236 238//238 
f 239//239 238//238 181//181 
f 181//181 180//180 239//239 
f 238//238 239//239 237//237 
f 236//236 237//237 235//235 
f 234//234 235//235 233//233 
f 232//232 233//233 231//231 
f 230//230 231//231 229//229 
f 228//228 229//229 227//227 
f 226//226 227//227 225//225 
f 224//224 225//225 223//223 
f 222//222 223//223 221//221 
f 220//220 221//221 219//219 
f 218//218 219//219 217//217 
f 216//216 217//217 215//215 
f 214//214 215//215 210//210 
f 211//211 213//213 209//209 
f 208//208 212//212 207//207 
f 206//206 207//207 205//205 
f 204//204 205//205 203//203 
f 202//202 203//203 201//201 
f 200//200 201//201 199//199 
f 198//198 199//199 197//197 
f 196//196 197//197 195//195 
f 194//194 195//195 193//193 
f 192//192 193//193 191//191 
f 190//190 191//191 189//189 
f 188//188 189//189 187//187 
f 186//186 187//187 185//185 
f 184//184 185//185 183//183 
f 182//182 183//183 180//180 
usemtl 0.262745_0.282353_0.301961_0.000000_0.000000
o mesh4
v -0.0045 2.75546e-19 0.001 
v -0.00439479 0.000967367 0.001 
v -0.00335469 0.000738423 0.001 
v -0.00408409 0.0018895 0.001 
v -0.00311752 0.00144232 0.001 
v -0.00358242 0.00272328 0.001 
v -0.00273458 0.00207877 0.001 
v -0.00291324 0.00342973 0.001 
v -0.00210784 0.0039758 0.001 
v -0.00160898 0.00303486 0.001 
v -0.00120388 0.00433597 0.001 
v -0.00091896 0.00330979 0.001 
v -0.00222377 0.00261803 0.001 
v -0.000243625 0.0044934 0.001 
v -0.000185967 0.00342996 0.001 
v 0.0045 8.26637e-19 0.001 
v 0.003435 1.47233e-18 0.001 
v 0.00341486 0.000371389 0.001 
v 0.00447362 -0.000486536 0.001 
v 0.00341486 -0.000371389 0.001 
v 0.000728019 0.00444072 0.001 
v 0.000555721 0.00338975 0.001 
v 0.00166562 0.0041804 0.001 
v 0.00127142 0.00319104 0.001 
v 0.00447362 0.000486536 0.001 
v 0.00325519 0.0010968 0.001 
v 0.00252534 0.0037246 0.001 
v 0.00192768 0.00284311 0.001 
v 0.00326698 0.00309465 0.001 
v 0.00249379 0.00236225 0.001 
v 0.00385586 0.00231999 0.001 
v 0.0029433 0.00177093 0.001 
v 0.00426444 0.00143686 0.001 
v 0.00426444 -0.00143686 0.001 
v 0.00325519 -0.0010968 0.001 
v 0.00385586 -0.00231999 0.001 
v 0.0029433 -0.00177093 0.001 
v 0.00326698 -0.00309465 0.001 
v 0.00249379 -0.00236225 0.001 
v 0.00252534 -0.0037246 0.001 
v 0.00192768 -0.00284311 0.001 
v 0.00166562 -0.0041804 0.001 
v 0.00127142 -0.00319104 0.001 
v 0.000728019 -0.00444072 0.001 
v 0.000555721 -0.00338975 0.001 
v -0.000243625 -0.0044934 0.001 
v -0.000185967 -0.00342996 0.001 
v -0.00291324 -0.00342973 0.001 
v -0.00222377 -0.00261803 0.001 
v -0.00160898 -0.00303486 0.001 
v -0.00358242 -0.00272328 0.001 
v -0.00273458 -0.00207877 0.001 
v -0.00408409 -0.0018895 0.001 
v -0.00311752 -0.00144232 0.001 
v -0.00439479 -0.000967367 0.001 
v -0.00335469 -0.000738423 0.001 
v -0.00120388 -0.00433597 0.001 
v -0.00091896 -0.00330979 0.001 
v -0.00210784 -0.0039758 0.001 
v -0.003435 2.10333e-19 0.001 
vn 0 0 -1 
vn 0 0 -1 
vn 0 0 -1 
vn 0 0 -1 
vn 0 0 -1 
vn 0 0 -1 
vn 0 0 -1 
vn 0 0 -1 
vn 0 0 -1 
vn 0 0 -1 
vn 0 0 -1 
vn 0 0 -1 
vn 0 0 -1 
vn 0 0 -1 
vn 0 0 -1 
vn 0 0 -1 
vn 0 0 -1 
vn 0 0 -1 
vn 0 0 -1 
vn 0 0 -1 
vn 0 0 -1 
vn 0 0 -1 
vn 0 0 -1 
vn 0 0 -1 
vn 0 0 -1 
vn 0 0 -1 
vn 0 0 -1 
vn 0 0 -1 
vn 0 0 -1 
vn 0 0 -1 
vn 0 0 -1 
vn 0 0 -1 
vn 0 0 -1 
vn 0 0 -1 
vn 0 0 -1 
vn 0 0 -1 
vn 0 0 -1 
vn 0 0 -1 
vn 0 0 -1 
vn 0 0 -1 
vn 0 0 -1 
vn 0 0 -1 
vn 0 0 -1 
vn 0 0 -1 
vn 0 0 -1 
vn 0 0 -1 
vn 0 0 -1 
vn 0 0 -1 
vn 0 0 -1 
vn 0 0 -1 
vn 0 0 -1 
vn 0 0 -1 
vn 0 0 -1 
vn 0 0 -1 
vn 0 0 -1 
vn 0 0 -1 
vn 0 0 -1 
vn 0 0 -1 
vn 0 0 -1 
vn 0 0 -1 
f 240//240 241//241 242//242 
f 241//241 243//243 244//244 
f 244//244 242//242 241//241 
f 243//243 245//245 246//246 
f 247//247 248//248 249//249 
f 248//248 250//250 251//251 
f 246//246 244//244 243//243 
f 245//245 247//247 252//252 
f 251//251 249//249 248//248 
f 250//250 253//253 254//254 
f 255//255 256//256 257//257 
f 258//258 259//259 256//256 
f 252//252 246//246 245//245 
f 254//254 251//251 250//250 
f 253//253 260//260 261//261 
f 260//260 262//262 263//263 
f 264//264 257//257 265//265 
f 256//256 255//255 258//258 
f 249//249 252//252 247//247 
f 263//263 261//261 260//260 
f 266//266 267//267 263//263 
f 266//266 268//268 269//269 
f 270//270 271//271 269//269 
f 270//270 272//272 265//265 
f 257//257 264//264 255//255 
f 258//258 273//273 274//274 
f 275//275 276//276 274//274 
f 277//277 278//278 276//276 
f 261//261 254//254 253//253 
f 269//269 267//267 266//266 
f 265//265 271//271 270//270 
f 274//274 259//259 258//258 
f 276//276 275//275 277//277 
f 277//277 279//279 280//280 
f 263//263 262//262 266//266 
f 265//265 272//272 264//264 
f 280//280 278//278 277//277 
f 279//279 281//281 282//282 
f 269//269 268//268 270//270 
f 282//282 280//280 279//279 
f 283//283 284//284 282//282 
f 283//283 285//285 286//286 
f 287//287 288//288 289//289 
f 287//287 290//290 291//291 
f 290//290 292//292 293//293 
f 292//292 294//294 295//295 
f 274//274 273//273 275//275 
f 286//286 284//284 283//283 
f 296//296 297//297 286//286 
f 296//296 298//298 289//289 
f 291//291 288//288 287//287 
f 295//295 293//293 292//292 
f 282//282 281//281 283//283 
f 289//289 297//297 296//296 
f 293//293 291//291 290//290 
f 240//240 299//299 295//295 
f 286//286 285//285 296//296 
f 295//295 294//294 240//240 
f 289//289 298//298 287//287 
f 242//242 299//299 240//240 
usemtl 0.713725_0.760784_0.800000_0.000000_0.000000
o mesh5
v -0.00439479 -0.000967367 0 
v -0.0045 2.75546e-19 0 
v -0.0045 2.75546e-19 0.001 
v -0.00408409 -0.0018895 0 
v -0.00439479 -0.000967367 0.001 
v -0.00358242 -0.00272328 0 
v -0.00408409 -0.0018895 0.001 
v -0.00291324 -0.00342973 0 
v -0.00358242 -0.00272328 0.001 
v -0.00210784 -0.0039758 0 
v -0.00291324 -0.00342973 0.001 
v -0.00120388 -0.00433597 0 
v -0.00210784 -0.0039758 0.001 
v -0.000243625 -0.0044934 0 
v -0.00120388 -0.00433597 0.001 
v 0.000728019 -0.00444072 0 
v -0.000243625 -0.0044934 0.001 
v 0.00166562 -0.0041804 0 
v 0.000728019 -0.00444072 0.001 
v 0.00252534 -0.0037246 0 
v 0.00166562 -0.0041804 0.001 
v 0.00326698 -0.00309465 0 
v 0.00252534 -0.0037246 0.001 
v 0.00385586 -0.00231999 0 
v 0.00326698 -0.00309465 0.001 
v 0.00426444 -0.00143686 0 
v 0.00385586 -0.00231999 0.001 
v 0.00447362 -0.000486536 0 
v 0.00426444 -0.00143686 0.001 
v 0.00447362 0.000486536 0.001 
v 0.00447362 0.000486536 0 
v 0.0045 1.92882e-18 0 
v 0.00447362 -0.000486536 0.001 
v 0.0045 8.26637e-19 0.001 
v 0.00426444 0.00143686 0 
v 0.00385586 0.00231999 0 
v 0.00426444 0.00143686 0.001 
v 0.00326698 0.00309465 0 
v 0.00385586 0.00231999 0.001 
v 0.00252534 0.0037246 0 
v 0.00326698 0.00309465 0.001 
v 0.00166562 0.0041804 0 
v 0.00252534 0.0037246 0.001 
v 0.000728019 0.00444072 0 
v 0.00166562 0.0041804 0.001 
v -0.000243625 0.0044934 0 
v 0.000728019 0.00444072 0.001 
v -0.00120388 0.00433597 0 
v -0.000243625 0.0044934 0.001 
v -0.00210784 0.0039758 0 
v -0.00120388 0.00433597 0.001 
v -0.00291324 0.00342973 0 
v -0.00210784 0.0039758 0.001 
v -0.00358242 0.00272328 0 
v -0.00291324 0.00342973 0.001 
v -0.00408409 0.0018895 0 
v -0.00358242 0.00272328 0.001 
v -0.00439479 0.000967367 0 
v -0.00408409 0.0018895 0.001 
v -0.00439479 0.000967367 0.001 
vn 0.976621 0.21497 0 
vn 1 2.44929e-16 0 
vn 1 2.44929e-16 0 
vn 0.907575 0.419889 0 
vn 0.976621 0.21497 0 
vn 0.796093 0.605174 0 
vn 0.907575 0.419889 0 
vn 0.647386 0.762162 0 
vn 0.796093 0.605174 0 
vn 0.468408 0.883512 0 
vn 0.647386 0.762162 0 
vn 0.267528 0.96355 0 
vn 0.468408 0.883512 0 
vn 0.0541389 0.998533 0 
vn 0.267528 0.96355 0 
vn -0.161782 0.986827 0 
vn 0.0541389 0.998533 0 
vn -0.370138 0.928977 0 
vn -0.161782 0.986827 0 
vn -0.561187 0.827689 0 
vn -0.370138 0.928977 0 
vn -0.725995 0.687699 0 
vn -0.561187 0.827689 0 
vn -0.856857 0.515554 0 
vn -0.725995 0.687699 0 
vn -0.947653 0.319302 0 
vn -0.856857 0.515554 0 
vn -0.994138 0.108119 0 
vn -0.947653 0.319302 0 
vn -0.994138 -0.108119 0 
vn -0.994138 -0.108119 0 
vn -1 -3.67394e-16 0 
vn -0.994138 0.108119 0 
vn -1 -3.67394e-16 0 
vn -0.947653 -0.319302 0 
vn -0.856857 -0.515554 0 
vn -0.947653 -0.319302 0 
vn -0.725995 -0.687699 0 
vn -0.856857 -0.515554 0 
vn -0.561187 -0.827689 0 
vn -0.725995 -0.687699 0 
vn -0.370138 -0.928977 0 
vn -0.561187 -0.827689 0 
vn -0.161782 -0.986827 0 
vn -0.370138 -0.928977 0 
vn 0.0541389 -0.998533 0 
vn -0.161782 -0.986827 0 
vn 0.267528 -0.96355 0 
vn 0.0541389 -0.998533 0 
vn 0.468408 -0.883512 0 
vn 0.267528 -0.96355 0 
vn 0.647386 -0.762162 0 
vn 0.468408 -0.883512 0 
vn 0.796093 -0.605174 0 
vn 0.647386 -0.762162 0 
vn 0.907575 -0.419889 0 
vn 0.796093 -0.605174 0 
vn 0.976621 -0.21497 0 
vn 0.907575 -0.419889 0 
vn 0.976621 -0.21497 0 
f 300//300 301//301 302//302 
f 303//303 300//300 304//304 
f 305//305 303//303 306//306 
f 307//307 305//305 308//308 
f 309//309 307//307 310//310 
f 311//311 309//309 312//312 
f 313//313 311//311 314//314 
f 315//315 313//313 316//316 
f 317//317 315//315 318//318 
f 319//319 317//317 320//320 
f 321//321 319//319 322//322 
f 323//323 321//321 324//324 
f 325//325 323//323 326//326 
f 327//327 325//325 328//328 
f 329//329 330//330 331//331 
f 327//327 332//332 333//333 
f 333//333 331//331 327//327 
f 334//334 330//330 329//329 
f 335//335 334//334 336//336 
f 337//337 335//335 338//338 
f 339//339 337//337 340//340 
f 341//341 339//339 342//342 
f 343//343 341//341 344//344 
f 345//345 343//343 346//346 
f 347//347 345//345 348//348 
f 349//349 347//347 350//350 
f 351//351 349//349 352//352 
f 353//353 351//351 354//354 
f 355//355 353//353 356//356 
f 357//357 355//355 358//358 
f 301//301 357//357 359//359 
f 359//359 302//302 301//301 
f 358//358 359//359 357//357 
f 356//356 358//358 355//355 
f 354//354 356//356 353//353 
f 352//352 354//354 351//351 
f 350//350 352//352 349//349 
f 348//348 350//350 347//347 
f 346//346 348//348 345//345 
f 344//344 346//346 343//343 
f 342//342 344//344 341//341 
f 340//340 342//342 339//339 
f 338//338 340//340 337//337 
f 336//336 338//338 335//335 
f 329//329 336//336 334//334 
f 331//331 333//333 329//329 
f 328//328 332//332 327//327 
f 326//326 328//328 325//325 
f 324//324 326//326 323//323 
f 322//322 324//324 321//321 
f 320//320 322//322 319//319 
f 318//318 320//320 317//317 
f 316//316 318//318 315//315 
f 314//314 316//316 313//313 
f 312//312 314//314 311//311 
f 310//310 312//312 309//309 
f 308//308 310//310 307//307 
f 306//306 308//308 305//305 
f 304//304 306//306 303//303 
f 302//302 304//304 300//300 
o mesh6
v 0.0055 1.01033e-18 0 
v 0.0045 1.92882e-18 0 
v 0.00447362 0.000486536 0 
v 0.00546776 -0.000594655 0 
v 0.00447362 -0.000486536 0 
v 0.00546776 0.000594655 0 
v 0.00426444 0.00143686 0 
v 0.00521209 -0.00175616 0 
v 0.00426444 -0.00143686 0 
v 0.00521209 0.00175616 0 
v 0.00385586 0.00231999 0 
v 0.00471271 0.00283555 0 
v 0.00326698 0.00309465 0 
v 0.00471271 -0.00283555 0 
v 0.00385586 -0.00231999 0 
v 0.00399298 -0.00378235 0 
v 0.00326698 -0.00309465 0 
v -0.00437851 -0.00332846 0 
v -0.00358242 -0.00272328 0 
v -0.00291324 -0.00342973 0 
v -0.00499166 -0.00230939 0 
v -0.00408409 -0.0018895 0 
v -0.00537141 0.00118234 0 
v -0.00499166 0.00230939 0 
v -0.00408409 0.0018895 0 
v -0.00437851 0.00332846 0 
v -0.00358242 0.00272328 0 
v -0.00257625 0.00485932 0 
v -0.00210784 0.0039758 0 
v -0.00291324 0.00342973 0 
v -0.00147141 0.00529952 0 
v -0.00120388 0.00433597 0 
v -0.000297764 0.00549193 0 
v -0.000243625 0.0044934 0 
v 0.000889801 0.00542755 0 
v 0.000728019 0.00444072 0 
v 0.00203576 0.00510937 0 
v 0.00308653 0.00455229 0 
v 0.00252534 0.0037246 0 
v 0.00399298 0.00378235 0 
v 0.00308653 -0.00455229 0 
v 0.00252534 -0.0037246 0 
v 0.00203576 -0.00510937 0 
v 0.00166562 -0.0041804 0 
v -0.00147141 -0.00529952 0 
v -0.00120388 -0.00433597 0 
v -0.000243625 -0.0044934 0 
v -0.00257625 -0.00485932 0 
v -0.00210784 -0.0039758 0 
v -0.00356062 -0.00419189 0 
v -0.00439479 0.000967367 0 
v -0.0045 2.75546e-19 0 
v 0.00166562 0.0041804 0 
v 0.000889801 -0.00542755 0 
v 0.000728019 -0.00444072 0 
v -0.000297764 -0.00549193 0 
v -0.00537141 -0.00118234 0 
v -0.00439479 -0.000967367 0 
v -0.0055 3.36778e-19 0 
v -0.00356062 0.00419189 0 
vn 0 0 -1 
vn 0 0 -1 
vn 0 0 -1 
vn 0 0 -1 
vn 0 0 -1 
vn 0 0 -1 
vn 0 0 -1 
vn 0 0 -1 
vn 0 0 -1 
vn 0 0 -1 
vn 0 0 -1 
vn 0 0 -1 
vn 0 0 -1 
vn 0 0 -1 
vn 0 0 -1 
vn 0 0 -1 
vn 0 0 -1 
vn 0 0 -1 
vn 0 0 -1 
vn 0 0 -1 
vn 0 0 -1 
vn 0 0 -1 
vn 0 0 -1 
vn 0 0 -1 
vn 0 0 -1 
vn 0 0 -1 
vn 0 0 -1 
vn 0 0 -1 
vn 0 0 -1 
vn 0 0 -1 
vn 0 0 -1 
vn 0 0 -1 
vn 0 0 -1 
vn 0 0 -1 
vn 0 0 -1 
vn 0 0 -1 
vn 0 0 -1 
vn 0 0 -1 
vn 0 0 -1 
vn 0 0 -1 
vn 0 0 -1 
vn 0 0 -1 
vn 0 0 -1 
vn 0 0 -1 
vn 0 0 -1 
vn 0 0 -1 
vn 0 0 -1 
vn 0 0 -1 
vn 0 0 -1 
vn 0 0 -1 
vn 0 0 -1 
vn 0 0 -1 
vn 0 0 -1 
vn 0 0 -1 
vn 0 0 -1 
vn 0 0 -1 
vn 0 0 -1 
vn 0 0 -1 
vn 0 0 -1 
vn 0 0 -1 
f 360//360 361//361 362//362 
f 363//363 364//364 361//361 
f 365//365 362//362 366//366 
f 361//361 360//360 363//363 
f 362//362 365//365 360//360 
f 363//363 367//367 368//368 
f 369//369 366//366 370//370 
f 368//368 364//364 363//363 
f 371//371 370//370 372//372 
f 366//366 369//369 365//365 
f 373//373 374//374 368//368 
f 373//373 375//375 376//376 
f 377//377 378//378 379//379 
f 377//377 380//380 381//381 
f 382//382 383//383 384//384 
f 383//383 385//385 386//386 
f 387//387 388//388 389//389 
f 390//390 391//391 388//388 
f 390//390 392//392 393//393 
f 394//394 395//395 393//393 
f 396//396 397//397 398//398 
f 397//397 399//399 372//372 
f 370//370 371//371 369//369 
f 376//376 374//374 373//373 
f 375//375 400//400 401//401 
f 400//400 402//402 403//403 
f 404//404 405//405 406//406 
f 404//404 407//407 408//408 
f 409//409 379//379 408//408 
f 381//381 378//378 377//377 
f 382//382 410//410 411//411 
f 386//386 384//384 383//383 
f 388//388 387//387 390//390 
f 393//393 392//392 394//394 
f 396//396 412//412 395//395 
f 372//372 398//398 397//397 
f 368//368 367//367 373//373 
f 403//403 401//401 400//400 
f 413//413 414//414 403//403 
f 413//413 415//415 406//406 
f 408//408 405//405 404//404 
f 379//379 409//409 377//377 
f 416//416 417//417 381//381 
f 416//416 418//418 411//411 
f 384//384 410//410 382//382 
f 385//385 419//419 389//389 
f 393//393 391//391 390//390 
f 398//398 412//412 396//396 
f 401//401 376//376 375//375 
f 406//406 414//414 413//413 
f 408//408 407//407 409//409 
f 411//411 417//417 416//416 
f 389//389 386//386 385//385 
f 395//395 394//394 396//396 
f 403//403 402//402 413//413 
f 381//381 380//380 416//416 
f 389//389 419//419 387//387 
f 406//406 415//415 404//404 
f 372//372 399//399 371//371 
f 411//411 418//418 382//382 
o mesh7
v -0.0055 3.36778e-19 0 
v -0.0055 3.36778e-19 0.005 
v -0.00537141 0.00118234 0.005 
v -0.00537141 0.00118234 0 
v -0.00499166 0.00230939 0.005 
v -0.00499166 0.00230939 0 
v -0.00437851 0.00332846 0.005 
v -0.00437851 0.00332846 0 
v -0.00356062 0.00419189 0.005 
v -0.00356062 0.00419189 0 
v -0.00257625 0.00485932 0.005 
v -0.00257625 0.00485932 0 
v -0.00147141 0.00529952 0.005 
v -0.00147141 0.00529952 0 
v -0.000297764 0.00549193 0.005 
v -0.000297764 0.00549193 0 
v 0.000889801 0.00542755 0.005 
v 0.000889801 0.00542755 0 
v 0.00203576 0.00510937 0.005 
v 0.00203576 0.00510937 0 
v 0.00308653 0.00455229 0.005 
v 0.00308653 0.00455229 0 
v 0.00399298 0.00378235 0.005 
v 0.00399298 0.00378235 0 
v 0.00471271 0.00283555 0.005 
v 0.00471271 0.00283555 0 
v 0.00521209 0.00175616 0.005 
v 0.00521209 0.00175616 0 
v 0.00546776 0.000594655 0.005 
v 0.00546776 -0.000594655 0.005 
v 0.00546776 -0.000594655 0 
v 0.0055 1.01033e-18 0 
v 0.00546776 0.000594655 0 
v 0.0055 2.35745e-18 0.005 
v 0.00521209 -0.00175616 0.005 
v 0.00521209 -0.00175616 0 
v 0.00471271 -0.00283555 0.005 
v 0.00471271 -0.00283555 0 
v 0.00399298 -0.00378235 0.005 
v 0.00399298 -0.00378235 0 
v 0.00308653 -0.00455229 0.005 
v 0.00308653 -0.00455229 0 
v 0.00203576 -0.00510937 0.005 
v 0.00203576 -0.00510937 0 
v 0.000889801 -0.00542755 0.005 
v 0.000889801 -0.00542755 0 
v -0.000297764 -0.00549193 0.005 
v -0.000297764 -0.00549193 0 
v -0.00147141 -0.00529952 0.005 
v -0.00147141 -0.00529952 0 
v -0.00257625 -0.00485932 0.005 
v -0.00257625 -0.00485932 0 
v -0.00356062 -0.00419189 0.005 
v -0.00356062 -0.00419189 0 
v -0.00437851 -0.00332846 0.005 
v -0.00437851 -0.00332846 0 
v -0.00499166 -0.00230939 0.005 
v -0.00499166 -0.00230939 0 
v -0.00537141 -0.00118234 0.005 
v -0.00537141 -0.00118234 0 
vn -1 0 0 
vn -1 0 0 
vn -0.976621 0.21497 0 
vn -0.976621 0.21497 0 
vn -0.907575 0.419889 0 
vn -0.907575 0.419889 0 
vn -0.796093 0.605174 0 
vn -0.796093 0.605174 0 
vn -0.647386 0.762162 0 
vn -0.647386 0.762162 0 
vn -0.468408 0.883512 0 
vn -0.468408 0.883512 0 
vn -0.267528 0.96355 0 
vn -0.267528 0.96355 0 
vn -0.0541389 0.998533 0 
vn -0.0541389 0.998533 0 
vn 0.161782 0.986827 0 
vn 0.161782 0.986827 0 
vn 0.370138 0.928977 0 
vn 0.370138 0.928977 0 
vn 0.561187 0.827689 0 
vn 0.561187 0.827689 0 
vn 0.725995 0.687699 0 
vn 0.725995 0.687699 0 
vn 0.856857 0.515554 0 
vn 0.856857 0.515554 0 
vn 0.947653 0.319302 0 
vn 0.947653 0.319302 0 
vn 0.994138 0.108119 0 
vn 0.994138 -0.108119 0 
vn 0.994138 -0.108119 0 
vn 1 1.22465e-16 0 
vn 0.994138 0.108119 0 
vn 1 1.22465e-16 0 
vn 0.947653 -0.319302 0 
vn 0.947653 -0.319302 0 
vn 0.856857 -0.515554 0 
vn 0.856857 -0.515554 0 
vn 0.725995 -0.687699 0 
vn 0.725995 -0.687699 0 
vn 0.561187 -0.827689 0 
vn 0.561187 -0.827689 0 
vn 0.370138 -0.928977 0 
vn 0.370138 -0.928977 0 
vn 0.161782 -0.986827 0 
vn 0.161782 -0.986827 0 
vn -0.0541389 -0.998533 0 
vn -0.0541389 -0.998533 0 
vn -0.267528 -0.96355 0 
vn -0.267528 -0.96355 0 
vn -0.468408 -0.883512 0 
vn -0.468408 -0.883512 0 
vn -0.647386 -0.762162 0 
vn -0.647386 -0.762162 0 
vn -0.796093 -0.605174 0 
vn -0.796093 -0.605174 0 
vn -0.907575 -0.419889 0 
vn -0.907575 -0.419889 0 
vn -0.976621 -0.21497 0 
vn -0.976621 -0.21497 0 
f 420//420 421//421 422//422 
f 423//423 422//422 424//424 
f 425//425 424//424 426//426 
f 427//427 426//426 428//428 
f 429//429 428//428 430//430 
f 431//431 430//430 432//432 
f 433//433 432//432 434//434 
f 435//435 434//434 436//436 
f 437//437 436//436 438//438 
f 439//439 438//438 440//440 
f 441//441 440//440 442//442 
f 443//443 442//442 444//444 
f 445//445 444//444 446//446 
f 447//447 446//446 448//448 
f 449//449 450//450 451//451 
f 452//452 448//448 453//453 
f 453//453 451//451 452//452 
f 450//450 449//449 454//454 
f 455//455 454//454 456//456 
f 457//457 456//456 458//458 
f 459//459 458//458 460//460 
f 461//461 460//460 462//462 
f 463//463 462//462 464//464 
f 465//465 464//464 466//466 
f 467//467 466//466 468//468 
f 469//469 468//468 470//470 
f 471//471 470//470 472//472 
f 473//473 472//472 474//474 
f 475//475 474//474 476//476 
f 477//477 476//476 478//478 
f 479//479 478//478 421//421 
f 421//421 420//420 479//479 
f 478//478 479//479 477//477 
f 476//476 477//477 475//475 
f 474//474 475//475 473//473 
f 472//472 473//473 471//471 
f 470//470 471//471 469//469 
f 468//468 469//469 467//467 
f 466//466 467//467 465//465 
f 464//464 465//465 463//463 
f 462//462 463//463 461//461 
f 460//460 461//461 459//459 
f 458//458 459//459 457//457 
f 456//456 457//457 455//455 
f 454//454 455//455 450//450 
f 451//451 453//453 449//449 
f 448//448 452//452 447//447 
f 446//446 447//447 445//445 
f 444//444 445//445 443//443 
f 442//442 443//443 441//441 
f 440//440 441//441 439//439 
f 438//438 439//439 437//437 
f 436//436 437//437 435//435 
f 434//434 435//435 433//433 
f 432//432 433//433 431//431 
f 430//430 431//431 429//429 
f 428//428 429//429 427//427 
f 426//426 427//427 425//425 
f 424//424 425//425 423//423 
f 422//422 423//423 420//420 
o mesh8
v -0.00499166 0.00230939 0.005 
v -0.00537141 0.00118234 0.005 
v -0.00426444 0.00143686 0.005 
v -0.0055 3.36778e-19 0.005 
v -0.00447362 0.000486536 0.005 
v -0.00356062 0.00419189 0.005 
v -0.00326698 0.00309465 0.005 
v -0.00252534 0.0037246 0.005 
v 0.00546776 0.000594655 0.005 
v 0.00521209 0.00175616 0.005 
v 0.00439479 0.000967367 0.005 
v 0.00471271 0.00283555 0.005 
v 0.00408409 0.0018895 0.005 
v 0.00399298 0.00378235 0.005 
v 0.00358242 0.00272328 0.005 
v 0.00308653 0.00455229 0.005 
v 0.00203576 0.00510937 0.005 
v 0.00210784 0.0039758 0.005 
v 0.000889801 0.00542755 0.005 
v 0.00120388 0.00433597 0.005 
v -0.000297764 0.00549193 0.005 
v 0.000243625 0.0044934 0.005 
v -0.00147141 0.00529952 0.005 
v -0.000728019 0.00444072 0.005 
v -0.00257625 0.00485932 0.005 
v -0.00447362 -0.000486536 0.005 
v -0.00537141 -0.00118234 0.005 
v -0.00426444 -0.00143686 0.005 
v -0.00499166 -0.00230939 0.005 
v -0.00385586 -0.00231999 0.005 
v 0.0045 -8.26637e-19 0.005 
v 0.0055 2.35745e-18 0.005 
v -0.00166562 0.0041804 0.005 
v -0.00437851 0.00332846 0.005 
v -0.00385586 0.00231999 0.005 
v -0.00257625 -0.00485932 0.005 
v -0.00147141 -0.00529952 0.005 
v -0.00166562 -0.0041804 0.005 
v 0.00291324 0.00342973 0.005 
v -0.00437851 -0.00332846 0.005 
v -0.00326698 -0.00309465 0.005 
v -0.00356062 -0.00419189 0.005 
v -0.00252534 -0.0037246 0.005 
v 0.00399298 -0.00378235 0.005 
v 0.00471271 -0.00283555 0.005 
v 0.00358242 -0.00272328 0.005 
v 0.000889801 -0.00542755 0.005 
v 0.00203576 -0.00510937 0.005 
v 0.00120388 -0.00433597 0.005 
v 0.00308653 -0.00455229 0.005 
v 0.00210784 -0.0039758 0.005 
v 0.00291324 -0.00342973 0.005 
v 0.00408409 -0.0018895 0.005 
v 0.00546776 -0.000594655 0.005 
v 0.00439479 -0.000967367 0.005 
v -0.000297764 -0.00549193 0.005 
v -0.000728019 -0.00444072 0.005 
v 0.000243625 -0.0044934 0.005 
v 0.00521209 -0.00175616 0.005 
vn 0 0 1 
vn 0 0 1 
vn 0 0 1 
vn 0 0 1 
vn 0 0 1 
vn 0 0 1 
vn 0 0 1 
vn 0 0 1 
vn 0 0 1 
vn 0 0 1 
vn 0 0 1 
vn 0 0 1 
vn 0 0 1 
vn 0 0 1 
vn 0 0 1 
vn 0 0 1 
vn 0 0 1 
vn 0 0 1 
vn 0 0 1 
vn 0 0 1 
vn 0 0 1 
vn 0 0 1 
vn 0 0 1 
vn 0 0 1 
vn 0 0 1 
vn 0 0 1 
vn 0 0 1 
vn 0 0 1 
vn 0 0 1 
vn 0 0 1 
vn 0 0 1 
vn 0 0 1 
vn 0 0 1 
vn 0 0 1 
vn 0 0 1 
vn 0 0 1 
vn 0 0 1 
vn 0 0 1 
vn 0 0 1 
vn 0 0 1 
vn 0 0 1 
vn 0 0 1 
vn 0 0 1 
vn 0 0 1 
vn 0 0 1 
vn 0 0 1 
vn 0 0 1 
vn 0 0 1 
vn 0 0 1 
vn 0 0 1 
vn 0 0 1 
vn 0 0 1 
vn 0 0 1 
vn 0 0 1 
vn 0 0 1 
vn 0 0 1 
vn 0 0 1 
vn 0 0 1 
vn 0 0 1 
f 480//480 481//481 482//482 
f 481//481 483//483 484//484 
f 485//485 486//486 487//487 
f 484//484 482//482 481//481 
f 488//488 489//489 490//490 
f 489//489 491//491 492//492 
f 491//491 493//493 494//494 
f 495//495 496//496 497//497 
f 496//496 498//498 499//499 
f 498//498 500//500 501//501 
f 500//500 502//502 503//503 
f 487//487 504//504 485//485 
f 483//483 505//505 484//484 
f 506//506 507//507 505//505 
f 508//508 509//509 507//507 
f 510//510 511//511 488//488 
f 494//494 492//492 491//491 
f 499//499 497//497 496//496 
f 503//503 501//501 500//500 
f 502//502 504//504 512//512 
f 485//485 513//513 486//486 
f 513//513 480//480 514//514 
f 505//505 483//483 506//506 
f 507//507 506//506 508//508 
f 515//515 516//516 517//517 
f 492//492 490//490 489//489 
f 493//493 495//495 518//518 
f 501//501 499//499 498//498 
f 487//487 512//512 504//504 
f 482//482 514//514 480//480 
f 519//519 520//520 509//509 
f 521//521 522//522 520//520 
f 522//522 521//521 515//515 
f 523//523 524//524 525//525 
f 518//518 494//494 493//493 
f 512//512 503//503 502//502 
f 508//508 519//519 509//509 
f 517//517 522//522 515//515 
f 526//526 527//527 528//528 
f 527//527 529//529 530//530 
f 529//529 523//523 531//531 
f 524//524 532//532 525//525 
f 533//533 510//510 534//534 
f 497//497 518//518 495//495 
f 520//520 519//519 521//521 
f 516//516 535//535 536//536 
f 535//535 526//526 537//537 
f 530//530 528//528 527//527 
f 525//525 531//531 523//523 
f 538//538 534//534 532//532 
f 534//534 538//538 533//533 
f 514//514 486//486 513//513 
f 537//537 536//536 535//535 
f 531//531 530//530 529//529 
f 533//533 511//511 510//510 
f 536//536 517//517 516//516 
f 532//532 524//524 538//538 
f 528//528 537//537 526//526 
f 490//490 510//510 488//488 
o mesh9
v 0.003435 2.10333e-19 0.005 
v 0.003435 -6.30999e-19 0.004 
v 0.00335469 0.000738423 0.004 
v 0.00335469 0.000738423 0.005 
v 0.00311752 0.00144232 0.004 
v 0.00311752 0.00144232 0.005 
v 0.00273458 0.00207877 0.004 
v 0.00273458 0.00207877 0.005 
v 0.00222377 0.00261803 0.004 
v 0.00222377 0.00261803 0.005 
v 0.00160898 0.00303486 0.004 
v 0.00160898 0.00303486 0.005 
v 0.00091896 0.00330979 0.004 
v 0.00091896 0.00330979 0.005 
v 0.000185967 0.00342996 0.004 
v 0.000185967 0.00342996 0.005 
v -0.000555721 0.00338975 0.004 
v -0.000555721 0.00338975 0.005 
v -0.00127142 0.00319104 0.004 
v -0.00127142 0.00319104 0.005 
v -0.00192768 0.00284311 0.004 
v -0.00192768 0.00284311 0.005 
v -0.00249379 0.00236225 0.004 
v -0.00249379 0.00236225 0.005 
v -0.0029433 0.00177093 0.004 
v -0.0029433 0.00177093 0.005 
v -0.00325519 0.0010968 0.004 
v -0.00325519 0.0010968 0.005 
v -0.00341486 0.000371389 0.004 
v -0.00341486 0.000371389 0.005 
v -0.00341486 -0.000371389 0.004 
v -0.00341486 -0.000371389 0.005 
v -0.00325519 -0.0010968 0.004 
v -0.00325519 -0.0010968 0.005 
v -0.0029433 -0.00177093 0.004 
v -0.0029433 -0.00177093 0.005 
v -0.00249379 -0.00236225 0.004 
v -0.00249379 -0.00236225 0.005 
v -0.00192768 -0.00284311 0.004 
v -0.00192768 -0.00284311 0.005 
v -0.00127142 -0.00319104 0.004 
v -0.00127142 -0.00319104 0.005 
v -0.000555721 -0.00338975 0.004 
v -0.000555721 -0.00338975 0.005 
v 0.000185967 -0.00342996 0.004 
v 0.000185967 -0.00342996 0.005 
v 0.00091896 -0.00330979 0.004 
v 0.00091896 -0.00330979 0.005 
v 0.00160898 -0.00303486 0.004 
v 0.00160898 -0.00303486 0.005 
v 0.00222377 -0.00261803 0.004 
v 0.00222377 -0.00261803 0.005 
v 0.00273458 -0.00207877 0.004 
v 0.00273458 -0.00207877 0.005 
v 0.00311752 -0.00144232 0.004 
v 0.00311752 -0.00144232 0.005 
v 0.00335469 -0.000738423 0.004 
v 0.00335469 -0.000738423 0.005 
vn 1 0 0 
vn 1 0 0 
vn 0.976621 0.21497 0 
vn 0.976621 0.21497 0 
vn 0.907575 0.419889 0 
vn 0.907575 0.419889 0 
vn 0.796093 0.605174 0 
vn 0.796093 0.605174 0 
vn 0.647386 0.762162 0 
vn 0.647386 0.762162 0 
vn 0.468408 0.883512 0 
vn 0.468408 0.883512 0 
vn 0.267528 0.96355 0 
vn 0.267528 0.96355 0 
vn 0.0541389 0.998533 0 
vn 0.0541389 0.998533 0 
vn -0.161782 0.986827 0 
vn -0.161782 0.986827 0 
vn -0.370138 0.928977 0 
vn -0.370138 0.928977 0 
vn -0.561187 0.827689 0 
vn -0.561187 0.827689 0 
vn -0.725995 0.687699 0 
vn -0.725995 0.687699 0 
vn -0.856857 0.515554 0 
vn -0.856857 0.515554 0 
vn -0.947653 0.319302 0 
vn -0.947653 0.319302 0 
vn -0.994138 0.108119 0 
vn -0.994138 0.108119 0 
vn -0.994138 -0.108119 0 
vn -0.994138 -0.108119 0 
vn -0.947653 -0.319302 0 
vn -0.947653 -0.319302 0 
vn -0.856857 -0.515554 0 
vn -0.856857 -0.515554 0 
vn -0.725995 -0.687699 0 
vn -0.725995 -0.687699 0 
vn -0.561187 -0.827689 0 
vn -0.561187 -0.827689 0 
vn -0.370138 -0.928977 0 
vn -0.370138 -0.928977 0 
vn -0.161782 -0.986827 0 
vn -0.161782 -0.986827 0 
vn 0.0541389 -0.998533 0 
vn 0.0541389 -0.998533 0 
vn 0.267528 -0.96355 0 
vn 0.267528 -0.96355 0 
vn 0.468408 -0.883512 0 
vn 0.468408 -0.883512 0 
vn 0.647386 -0.762162 0 
vn 0.647386 -0.762162 0 
vn 0.796093 -0.605174 0 
vn 0.796093 -0.605174 0 
vn 0.907575 -0.419889 0 
vn 0.907575 -0.419889 0 
vn 0.976621 -0.21497 0 
vn 0.976621 -0.21497 0 
f 539//539 540//540 541//541 
f 542//542 541//541 543//543 
f 544//544 543//543 545//545 
f 546//546 545//545 547//547 
f 548//548 547//547 549//549 
f 550//550 549//549 551//551 
f 552//552 551//551 553//553 
f 554//554 553//553 555//555 
f 556//556 555//555 557//557 
f 558//558 557//557 559//559 
f 560//560 559//559 561//561 
f 562//562 561//561 563//563 
f 564//564 563//563 565//565 
f 566//566 565//565 567//567 
f 568//568 567//567 569//569 
f 570//570 569//569 571//571 
f 572//572 571//571 573//573 
f 574//574 573//573 575//575 
f 576//576 575//575 577//577 
f 578//578 577//577 579//579 
f 580//580 579//579 581//581 
f 582//582 581//581 583//583 
f 584//584 583//583 585//585 
f 586//586 585//585 587//587 
f 588//588 587//587 589//589 
f 590//590 589//589 591//591 
f 592//592 591//591 593//593 
f 594//594 593//593 595//595 
f 596//596 595//595 540//540 
f 540//540 539//539 596//596 
f 595//595 596//596 594//594 
f 593//593 594//594 592//592 
f 591//591 592//592 590//590 
f 589//589 590//590 588//588 
f 587//587 588//588 586//586 
f 585//585 586//586 584//584 
f 583//583 584//584 582//582 
f 581//581 582//582 580//580 
f 579//579 580//580 578//578 
f 577//577 578//578 576//576 
f 575//575 576//576 574//574 
f 573//573 574//574 572//572 
f 571//571 572//572 570//570 
f 569//569 570//570 568//568 
f 567//567 568//568 566//566 
f 565//565 566//566 564//564 
f 563//563 564//564 562//562 
f 561//561 562//562 560//560 
f 559//559 560//560 558//558 
f 557//557 558//558 556//556 
f 555//555 556//556 554//554 
f 553//553 554//554 552//552 
f 551//551 552//552 550//550 
f 549//549 550//550 548//548 
f 547//547 548//548 546//546 
f 545//545 546//546 544//544 
f 543//543 544//544 542//542 
f 541//541 542//542 539//539 
o mesh10
v 0.00439479 -0.000967367 0.005 
v 0.0045 -8.26637e-19 0.005 
v 0.0045 2.75546e-19 0.004 
v 0.00408409 -0.0018895 0.005 
v 0.00439479 -0.000967367 0.004 
v 0.00358242 -0.00272328 0.005 
v 0.00408409 -0.0018895 0.004 
v 0.00291324 -0.00342973 0.005 
v 0.00358242 -0.00272328 0.004 
v 0.00210784 -0.0039758 0.005 
v 0.00291324 -0.00342973 0.004 
v 0.00120388 -0.00433597 0.005 
v 0.00210784 -0.0039758 0.004 
v 0.000243625 -0.0044934 0.005 
v 0.00120388 -0.00433597 0.004 
v -0.000728019 -0.00444072 0.005 
v 0.000243625 -0.0044934 0.004 
v -0.00166562 -0.0041804 0.005 
v -0.000728019 -0.00444072 0.004 
v -0.00252534 -0.0037246 0.005 
v -0.00166562 -0.0041804 0.004 
v -0.00326698 -0.00309465 0.005 
v -0.00252534 -0.0037246 0.004 
v -0.00385586 -0.00231999 0.005 
v -0.00326698 -0.00309465 0.004 
v -0.00426444 -0.00143686 0.005 
v -0.00385586 -0.00231999 0.004 
v -0.00447362 -0.000486536 0.005 
v -0.00426444 -0.00143686 0.004 
v -0.00447362 0.000486536 0.005 
v -0.00447362 -0.000486536 0.004 
v -0.00426444 0.00143686 0.005 
v -0.00447362 0.000486536 0.004 
v -0.00385586 0.00231999 0.005 
v -0.00426444 0.00143686 0.004 
v -0.00326698 0.00309465 0.005 
v -0.00385586 0.00231999 0.004 
v -0.00252534 0.0037246 0.005 
v -0.00326698 0.00309465 0.004 
v -0.00166562 0.0041804 0.005 
v -0.00252534 0.0037246 0.004 
v -0.000728019 0.00444072 0.005 
v -0.00166562 0.0041804 0.004 
v 0.000243625 0.0044934 0.005 
v -0.000728019 0.00444072 0.004 
v 0.00120388 0.00433597 0.005 
v 0.000243625 0.0044934 0.004 
v 0.00210784 0.0039758 0.005 
v 0.00120388 0.00433597 0.004 
v 0.00291324 0.00342973 0.005 
v 0.00210784 0.0039758 0.004 
v 0.00358242 0.00272328 0.005 
v 0.00291324 0.00342973 0.004 
v 0.00408409 0.0018895 0.005 
v 0.00358242 0.00272328 0.004 
v 0.00439479 0.000967367 0.005 
v 0.00408409 0.0018895 0.004 
v 0.00439479 0.000967367 0.004 
vn -0.976621 0.21497 0 
vn -1 2.44929e-16 0 
vn -1 2.44929e-16 0 
vn -0.907575 0.419889 0 
vn -0.976621 0.21497 0 
vn -0.796093 0.605174 0 
vn -0.907575 0.419889 0 
vn -0.647386 0.762162 0 
vn -0.796093 0.605174 0 
vn -0.468408 0.883512 0 
vn -0.647386 0.762162 0 
vn -0.267528 0.96355 0 
vn -0.468408 0.883512 0 
vn -0.0541389 0.998533 0 
vn -0.267528 0.96355 0 
vn 0.161782 0.986827 0 
vn -0.0541389 0.998533 0 
vn 0.370138 0.928977 0 
vn 0.161782 0.986827 0 
vn 0.561187 0.827689 0 
vn 0.370138 0.928977 0 
vn 0.725995 0.687699 0 
vn 0.561187 0.827689 0 
vn 0.856857 0.515554 0 
vn 0.725995 0.687699 0 
vn 0.947653 0.319302 0 
vn 0.856857 0.515554 0 
vn 0.994138 0.108119 0 
vn 0.947653 0.319302 0 
vn 0.994138 -0.108119 0 
vn 0.994138 0.108119 0 
vn 0.947653 -0.319302 0 
vn 0.994138 -0.108119 0 
vn 0.856857 -0.515554 0 
vn 0.947653 -0.319302 0 
vn 0.725995 -0.687699 0 
vn 0.856857 -0.515554 0 
vn 0.561187 -0.827689 0 
vn 0.725995 -0.687699 0 
vn 0.370138 -0.928977 0 
vn 0.561187 -0.827689 0 
vn 0.161782 -0.986827 0 
vn 0.370138 -0.928977 0 
vn -0.0541389 -0.998533 0 
vn 0.161782 -0.986827 0 
vn -0.267528 -0.96355 0 
vn -0.0541389 -0.998533 0 
vn -0.468408 -0.883512 0 
vn -0.267528 -0.96355 0 
vn -0.647386 -0.762162 0 
vn -0.468408 -0.883512 0 
vn -0.796093 -0.605174 0 
vn -0.647386 -0.762162 0 
vn -0.907575 -0.419889 0 
vn -0.796093 -0.605174 0 
vn -0.976621 -0.21497 0 
vn -0.907575 -0.419889 0 
vn -0.976621 -0.21497 0 
f 597//597 598//598 599//599 
f 600//600 597//597 601//601 
f 602//602 600//600 603//603 
f 604//604 602//602 605//605 
f 606//606 604//604 607//607 
f 608//608 606//606 609//609 
f 610//610 608//608 611//611 
f 612//612 610//610 613//613 
f 614//614 612//612 615//615 
f 616//616 614//614 617//617 
f 618//618 616//616 619//619 
f 620//620 618//618 621//621 
f 622//622 620//620 623//623 
f 624//624 622//622 625//625 
f 626//626 624//624 627//627 
f 628//628 626//626 629//629 
f 630//630 628//628 631//631 
f 632//632 630//630 633//633 
f 634//634 632//632 635//635 
f 636//636 634//634 637//637 
f 638//638 636//636 639//639 
f 640//640 638//638 641//641 
f 642//642 640//640 643//643 
f 644//644 642//642 645//645 
f 646//646 644//644 647//647 
f 648//648 646//646 649//649 
f 650//650 648//648 651//651 
f 652//652 650//650 653//653 
f 598//598 652//652 654//654 
f 654//654 599//599 598//598 
f 653//653 654//654 652//652 
f 651//651 653//653 650//650 
f 649//649 651//651 648//648 
f 647//647 649//649 646//646 
f 645//645 647//647 644//644 
f 643//643 645//645 642//642 
f 641//641 643//643 640//640 
f 639//639 641//641 638//638 
f 637//637 639//639 636//636 
f 635//635 637//637 634//634 
f 633//633 635//635 632//632 
f 631//631 633//633 630//630 
f 629//629 631//631 628//628 
f 627//627 629//629 626//626 
f 625//625 627//627 624//624 
f 623//623 625//625 622//622 
f 621//621 623//623 620//620 
f 619//619 621//621 618//618 
f 617//617 619//619 616//616 
f 615//615 617//617 614//614 
f 613//613 615//615 612//612 
f 611//611 613//613 610//610 
f 609//609 611//611 608//608 
f 607//607 609//609 606//606 
f 605//605 607//607 604//604 
f 603//603 605//605 602//602 
f 601//601 603//603 600//600 
f 599//599 601//601 597//597 
usemtl 0.262745_0.282353_0.301961_0.000000_0.000000
o mesh11
v 0.00439479 0.000967367 0.004 
v 0.00335469 0.000738423 0.004 
v 0.003435 -6.30999e-19 0.004 
v 0.00408409 0.0018895 0.004 
v 0.00311752 0.00144232 0.004 
v 0.00358242 0.00272328 0.004 
v 0.00273458 0.00207877 0.004 
v 0.00291324 0.00342973 0.004 
v 0.00210784 0.0039758 0.004 
v 0.00160898 0.00303486 0.004 
v 0.00120388 0.00433597 0.004 
v 0.00091896 0.00330979 0.004 
v 0.00222377 0.00261803 0.004 
v 0.000243625 0.0044934 0.004 
v 0.000185967 0.00342996 0.004 
v -0.000728019 0.00444072 0.004 
v -0.000555721 0.00338975 0.004 
v -0.00166562 0.0041804 0.004 
v -0.00127142 0.00319104 0.004 
v -0.00447362 0.000486536 0.004 
v -0.00341486 0.000371389 0.004 
v -0.00325519 0.0010968 0.004 
v -0.00447362 -0.000486536 0.004 
v -0.00341486 -0.000371389 0.004 
v -0.00252534 0.0037246 0.004 
v -0.00192768 0.00284311 0.004 
v -0.00326698 0.00309465 0.004 
v -0.00249379 0.00236225 0.004 
v -0.00385586 0.00231999 0.004 
v -0.0029433 0.00177093 0.004 
v -0.00426444 0.00143686 0.004 
v -0.00426444 -0.00143686 0.004 
v -0.00325519 -0.0010968 0.004 
v -0.00385586 -0.00231999 0.004 
v -0.0029433 -0.00177093 0.004 
v -0.00326698 -0.00309465 0.004 
v -0.00249379 -0.00236225 0.004 
v -0.00252534 -0.0037246 0.004 
v -0.00192768 -0.00284311 0.004 
v -0.00166562 -0.0041804 0.004 
v -0.00127142 -0.00319104 0.004 
v -0.000728019 -0.00444072 0.004 
v -0.000555721 -0.00338975 0.004 
v 0.000243625 -0.0044934 0.004 
v 0.000185967 -0.00342996 0.004 
v 0.00291324 -0.00342973 0.004 
v 0.00222377 -0.00261803 0.004 
v 0.00160898 -0.00303486 0.004 
v 0.00358242 -0.00272328 0.004 
v 0.00273458 -0.00207877 0.004 
v 0.00408409 -0.0018895 0.004 
v 0.00311752 -0.00144232 0.004 
v 0.00439479 -0.000967367 0.004 
v 0.00335469 -0.000738423 0.004 
v 0.00120388 -0.00433597 0.004 
v 0.00091896 -0.00330979 0.004 
v 0.00210784 -0.0039758 0.004 
v 0.0045 2.75546e-19 0.004 
vn 0 0 1 
vn 0 0 1 
vn 0 0 1 
vn 0 0 1 
vn 0 0 1 
vn 0 0 1 
vn 0 0 1 
vn 0 0 1 
vn 0 0 1 
vn 0 0 1 
vn 0 0 1 
vn 0 0 1 
vn 0 0 1 
vn 0 0 1 
vn 0 0 1 
vn 0 0 1 
vn 0 0 1 
vn 0 0 1 
vn 0 0 1 
vn 0 0 1 
vn 0 0 1 
vn 0 0 1 
vn 0 0 1 
vn 0 0 1 
vn 0 0 1 
vn 0 0 1 
vn 0 0 1 
vn 0 0 1 
vn 0 0 1 
vn 0 0 1 
vn 0 0 1 
vn 0 0 1 
vn 0 0 1 
vn 0 0 1 
vn 0 0 1 
vn 0 0 1 
vn 0 0 1 
vn 0 0 1 
vn 0 0 1 
vn 0 0 1 
vn 0 0 1 
vn 0 0 1 
vn 0 0 1 
vn 0 0 1 
vn 0 0 1 
vn 0 0 1 
vn 0 0 1 
vn 0 0 1 
vn 0 0 1 
vn 0 0 1 
vn 0 0 1 
vn 0 0 1 
vn 0 0 1 
vn 0 0 1 
vn 0 0 1 
vn 0 0 1 
vn 0 0 1 
vn 0 0 1 
f 655//655 656//656 657//657 
f 655//655 658//658 659//659 
f 659//659 656//656 655//655 
f 658//658 660//660 661//661 
f 662//662 663//663 664//664 
f 663//663 665//665 666//666 
f 661//661 659//659 658//658 
f 660//660 662//662 667//667 
f 666//666 664//664 663//663 
f 665//665 668//668 669//669 
f 667//667 661//661 660//660 
f 669//669 666//666 665//665 
f 668//668 670//670 671//671 
f 670//670 672//672 673//673 
f 674//674 675//675 676//676 
f 674//674 677//677 678//678 
f 664//664 667//667 662//662 
f 673//673 671//671 670//670 
f 679//679 680//680 673//673 
f 679//679 681//681 682//682 
f 683//683 684//684 682//682 
f 683//683 685//685 676//676 
f 678//678 675//675 674//674 
f 677//677 686//686 687//687 
f 688//688 689//689 687//687 
f 690//690 691//691 689//689 
f 671//671 669//669 668//668 
f 682//682 680//680 679//679 
f 676//676 684//684 683//683 
f 687//687 678//678 677//677 
f 689//689 688//688 690//690 
f 690//690 692//692 693//693 
f 673//673 672//672 679//679 
f 676//676 685//685 674//674 
f 693//693 691//691 690//690 
f 692//692 694//694 695//695 
f 682//682 681//681 683//683 
f 695//695 693//693 692//692 
f 696//696 697//697 695//695 
f 696//696 698//698 699//699 
f 700//700 701//701 702//702 
f 700//700 703//703 704//704 
f 703//703 705//705 706//706 
f 705//705 707//707 708//708 
f 687//687 686//686 688//688 
f 699//699 697//697 696//696 
f 709//709 710//710 699//699 
f 709//709 711//711 702//702 
f 704//704 701//701 700//700 
f 708//708 706//706 705//705 
f 695//695 694//694 696//696 
f 702//702 710//710 709//709 
f 706//706 704//704 703//703 
f 712//712 657//657 708//708 
f 699//699 698//698 709//709 
f 708//708 707//707 712//712 
f 702//702 711//711 700//700 
f 657//657 712//712 655//655 
