{
    "accessors": [
        {
            "bufferView": 0,
            "componentType": 5126,
            "count": 116,
            "max": [
                0.0024999999441206455,
                0.002496333559975028,
                0.0023499999660998583
            ],
            "min": [
                -0.0024999999441206455,
                -0.002496333559975028,
                0.0016000219620764256
            ],
            "name": "mesh3589_coord_accessor",
            "type": "VEC3"
        },
        {
            "bufferView": 1,
            "componentType": 5126,
            "count": 116,
            "max": [
                0.8660253882408142,
                0.8647553324699402,
                0.5
            ],
            "min": [
                -0.8660253882408142,
                -0.8647553324699402,
                0.5
            ],
            "name": "mesh3589_norm_accessor",
            "type": "VEC3"
        },
        {
            "bufferView": 2,
            "componentType": 5125,
            "count": 348,
            "max": [
                115
            ],
            "min": [
                0
            ],
            "name": "mesh3589_idx_accessor",
            "type": "SCALAR"
        },
        {
            "bufferView": 3,
            "componentType": 5126,
            "count": 116,
            "max": [
                0.0020669999066740274,
                0.002063968451693654,
                0.0016000219620764256
            ],
            "min": [
                -0.0020669999066740274,
                -0.002063968451693654,
                -0.0016000219620764256
            ],
            "name": "mesh3590_coord_accessor",
            "type": "VEC3"
        },
        {
            "bufferView": 4,
            "componentType": 5126,
            "count": 116,
            "max": [
                1.0,
                0.9985334277153015,
                0.0
            ],
            "min": [
                -1.0,
                -0.9985334277153015,
                0.0
            ],
            "name": "mesh3590_norm_accessor",
            "type": "VEC3"
        },
        {
            "bufferView": 5,
            "componentType": 5125,
            "count": 348,
            "max": [
                115
            ],
            "min": [
                0
            ],
            "name": "mesh3590_idx_accessor",
            "type": "SCALAR"
        },
        {
            "bufferView": 6,
            "componentType": 5126,
            "count": 116,
            "max": [
                0.0024999999441206455,
                0.002496333559975028,
                -0.0016000219620764256
            ],
            "min": [
                -0.0024999999441206455,
                -0.002496333559975028,
                -0.0023499999660998583
            ],
            "name": "mesh3591_coord_accessor",
            "type": "VEC3"
        },
        {
            "bufferView": 7,
            "componentType": 5126,
            "count": 116,
            "max": [
                0.8660253882408142,
                0.8647553324699402,
                -0.5
            ],
            "min": [
                -0.8660253882408142,
                -0.8647553324699402,
                -0.5
            ],
            "name": "mesh3591_norm_accessor",
            "type": "VEC3"
        },
        {
            "bufferView": 8,
            "componentType": 5125,
            "count": 348,
            "max": [
                115
            ],
            "min": [
                0
            ],
            "name": "mesh3591_idx_accessor",
            "type": "SCALAR"
        },
        {
            "bufferView": 9,
            "componentType": 5126,
            "count": 118,
            "max": [
                0.004000000189989805,
                0.004000000189989805,
                -0.0023499999660998583
            ],
            "min": [
                -0.004000000189989805,
                -0.004000000189989805,
                -0.0023499999660998583
            ],
            "name": "mesh3592_coord_accessor",
            "type": "VEC3"
        },
        {
            "bufferView": 10,
            "componentType": 5126,
            "count": 118,
            "max": [
                -0.0,
                -0.0,
                -1.0
            ],
            "min": [
                -0.0,
                -0.0,
                -1.0
            ],
            "name": "mesh3592_norm_accessor",
            "type": "VEC3"
        },
        {
            "bufferView": 11,
            "componentType": 5125,
            "count": 354,
            "max": [
                117
            ],
            "min": [
                0
            ],
            "name": "mesh3592_idx_accessor",
            "type": "SCALAR"
        },
        {
            "bufferView": 12,
            "componentType": 5126,
            "count": 20,
            "max": [
                0.0,
                -0.0020000000949949026,
                -0.00199273438192904
            ],
            "min": [
                -0.003464101580902934,
                -0.004000000189989805,
                -0.0023499999660998583
            ],
            "name": "mesh3593_coord_accessor",
            "type": "VEC3"
        },
        {
            "bufferView": 13,
            "componentType": 5126,
            "count": 20,
            "max": [
                -9.184850732644269e-17,
                -0.25,
                -0.8660253882408142
            ],
            "min": [
                -0.4330126941204071,
                -0.5,
                -0.8660253882408142
            ],
            "name": "mesh3593_norm_accessor",
            "type": "VEC3"
        },
        {
            "bufferView": 14,
            "componentType": 5125,
            "count": 54,
            "max": [
                19
            ],
            "min": [
                0
            ],
            "name": "mesh3593_idx_accessor",
            "type": "SCALAR"
        },
        {
            "bufferView": 15,
            "componentType": 5126,
            "count": 20,
            "max": [
                0.003464101580902934,
                -0.0020000000949949026,
                -0.00199273438192904
            ],
            "min": [
                0.0,
                -0.004000000189989805,
                -0.0023499999660998583
            ],
            "name": "mesh3594_coord_accessor",
            "type": "VEC3"
        },
        {
            "bufferView": 16,
            "componentType": 5126,
            "count": 20,
            "max": [
                0.4330126941204071,
                -0.25,
                -0.8660253882408142
            ],
            "min": [
                -9.184850732644269e-17,
                -0.5,
                -0.8660253882408142
            ],
            "name": "mesh3594_norm_accessor",
            "type": "VEC3"
        },
        {
            "bufferView": 17,
            "componentType": 5125,
            "count": 54,
            "max": [
                19
            ],
            "min": [
                0
            ],
            "name": "mesh3594_idx_accessor",
            "type": "SCALAR"
        },
        {
            "bufferView": 18,
            "componentType": 5126,
            "count": 20,
            "max": [
                0.004618802107870579,
                0.0020000000949949026,
                -0.00199273438192904
            ],
            "min": [
                0.003464101580902934,
                -0.0020000000949949026,
                -0.0023499999660998583
            ],
            "name": "mesh3595_coord_accessor",
            "type": "VEC3"
        },
        {
            "bufferView": 19,
            "componentType": 5126,
            "count": 20,
            "max": [
                0.5,
                0.25,
                -0.8660253882408142
            ],
            "min": [
                0.4330126941204071,
                -0.25,
                -0.8660253882408142
            ],
            "name": "mesh3595_norm_accessor",
            "type": "VEC3"
        },
        {
            "bufferView": 20,
            "componentType": 5125,
            "count": 54,
            "max": [
                19
            ],
            "min": [
                0
            ],
            "name": "mesh3595_idx_accessor",
            "type": "SCALAR"
        },
        {
            "bufferView": 21,
            "componentType": 5126,
            "count": 20,
            "max": [
                0.003464101580902934,
                0.004000000189989805,
                -0.00199273438192904
            ],
            "min": [
                0.0,
                0.0020000000949949026,
                -0.0023499999660998583
            ],
            "name": "mesh3596_coord_accessor",
            "type": "VEC3"
        },
        {
            "bufferView": 22,
            "componentType": 5126,
            "count": 20,
            "max": [
                0.4330126941204071,
                0.5,
                -0.8660253882408142
            ],
            "min": [
                3.0616171314629196e-17,
                0.25,
                -0.8660253882408142
            ],
            "name": "mesh3596_norm_accessor",
            "type": "VEC3"
        },
        {
            "bufferView": 23,
            "componentType": 5125,
            "count": 54,
            "max": [
                19
            ],
            "min": [
                0
            ],
            "name": "mesh3596_idx_accessor",
            "type": "SCALAR"
        },
        {
            "bufferView": 24,
            "componentType": 5126,
            "count": 20,
            "max": [
                0.0,
                0.004000000189989805,
                -0.00199273438192904
            ],
            "min": [
                -0.003464101580902934,
                0.0020000000949949026,
                -0.0023499999660998583
            ],
            "name": "mesh3597_coord_accessor",
            "type": "VEC3"
        },
        {
            "bufferView": 25,
            "componentType": 5126,
            "count": 20,
            "max": [
                3.0616171314629196e-17,
                0.5,
                -0.8660253882408142
            ],
            "min": [
                -0.4330126941204071,
                0.25,
                -0.8660253882408142
            ],
            "name": "mesh3597_norm_accessor",
            "type": "VEC3"
        },
        {
            "bufferView": 26,
            "componentType": 5125,
            "count": 54,
            "max": [
                19
            ],
            "min": [
                0
            ],
            "name": "mesh3597_idx_accessor",
            "type": "SCALAR"
        },
        {
            "bufferView": 27,
            "componentType": 5126,
            "count": 20,
            "max": [
                -0.003464101580902934,
                0.0020000000949949026,
                -0.00199273438192904
            ],
            "min": [
                -0.004618802107870579,
                -0.0020000000949949026,
                -0.0023499999660998583
            ],
            "name": "mesh3598_coord_accessor",
            "type": "VEC3"
        },
        {
            "bufferView": 28,
            "componentType": 5126,
            "count": 20,
            "max": [
                -0.4330126941204071,
                0.25,
                -0.8660253882408142
            ],
            "min": [
                -0.5,
                -0.25,
                -0.8660253882408142
            ],
            "name": "mesh3598_norm_accessor",
            "type": "VEC3"
        },
        {
            "bufferView": 29,
            "componentType": 5125,
            "count": 54,
            "max": [
                19
            ],
            "min": [
                0
            ],
            "name": "mesh3598_idx_accessor",
            "type": "SCALAR"
        },
        {
            "bufferView": 30,
            "componentType": 5126,
            "count": 22,
            "max": [
                -0.0023094010539352894,
                -3.0357660829594124e-18,
                0.0023499999660998583
            ],
            "min": [
                -0.004618802107870579,
                -0.004000000189989805,
                -0.0023499999660998583
            ],
            "name": "mesh3599_coord_accessor",
            "type": "VEC3"
        },
        {
            "bufferView": 31,
            "componentType": 5126,
            "count": 22,
            "max": [
                -0.8660253882408142,
                -0.5,
                0.0
            ],
            "min": [
                -0.8660253882408142,
                -0.5,
                0.0
            ],
            "name": "mesh3599_norm_accessor",
            "type": "VEC3"
        },
        {
            "bufferView": 32,
            "componentType": 5125,
            "count": 60,
            "max": [
                21
            ],
            "min": [
                0
            ],
            "name": "mesh3599_idx_accessor",
            "type": "SCALAR"
        },
        {
            "bufferView": 33,
            "componentType": 5126,
            "count": 20,
            "max": [
                -0.003464101580902934,
                0.0020000000949949026,
                0.0023499999660998583
            ],
            "min": [
                -0.004618802107870579,
                -0.0020000000949949026,
                0.00199273438192904
            ],
            "name": "mesh3600_coord_accessor",
            "type": "VEC3"
        },
        {
            "bufferView": 34,
            "componentType": 5126,
            "count": 20,
            "max": [
                -0.4330126941204071,
                0.25,
                0.8660253882408142
            ],
            "min": [
                -0.5,
                -0.25,
                0.8660253882408142
            ],
            "name": "mesh3600_norm_accessor",
            "type": "VEC3"
        },
        {
            "bufferView": 35,
            "componentType": 5125,
            "count": 54,
            "max": [
                19
            ],
            "min": [
                0
            ],
            "name": "mesh3600_idx_accessor",
            "type": "SCALAR"
        },
        {
            "bufferView": 36,
            "componentType": 5126,
            "count": 20,
            "max": [
                0.0,
                -0.0020000000949949026,
                0.0023499999660998583
            ],
            "min": [
                -0.003464101580902934,
                -0.004000000189989805,
                0.00199273438192904
            ],
            "name": "mesh3601_coord_accessor",
            "type": "VEC3"
        },
        {
            "bufferView": 37,
            "componentType": 5126,
            "count": 20,
            "max": [
                9.184850732644269e-17,
                -0.25,
                0.8660253882408142
            ],
            "min": [
                -0.4330126941204071,
                -0.5,
                0.8660253882408142
            ],
            "name": "mesh3601_norm_accessor",
            "type": "VEC3"
        },
        {
            "bufferView": 38,
            "componentType": 5125,
            "count": 54,
            "max": [
                19
            ],
            "min": [
                0
            ],
            "name": "mesh3601_idx_accessor",
            "type": "SCALAR"
        },
        {
            "bufferView": 39,
            "componentType": 5126,
            "count": 22,
            "max": [
                -0.0023094010539352894,
                0.004000000189989805,
                0.0023499999660998583
            ],
            "min": [
                -0.004618802107870579,
                -4.336808689942018e-18,
                -0.0023499999660998583
            ],
            "name": "mesh3602_coord_accessor",
            "type": "VEC3"
        },
        {
            "bufferView": 40,
            "componentType": 5126,
            "count": 22,
            "max": [
                -0.8660253882408142,
                0.5,
                0.0
            ],
            "min": [
                -0.8660253882408142,
                0.5,
                0.0
            ],
            "name": "mesh3602_norm_accessor",
            "type": "VEC3"
        },
        {
            "bufferView": 41,
            "componentType": 5125,
            "count": 60,
            "max": [
                21
            ],
            "min": [
                0
            ],
            "name": "mesh3602_idx_accessor",
            "type": "SCALAR"
        },
        {
            "bufferView": 42,
            "componentType": 5126,
            "count": 20,
            "max": [
                0.0,
                0.004000000189989805,
                0.0023499999660998583
            ],
            "min": [
                -0.003464101580902934,
                0.0020000000949949026,
                0.00199273438192904
            ],
            "name": "mesh3603_coord_accessor",
            "type": "VEC3"
        },
        {
            "bufferView": 43,
            "componentType": 5126,
            "count": 20,
            "max": [
                -3.0616171314629196e-17,
                0.5,
                0.8660253882408142
            ],
            "min": [
                -0.4330126941204071,
                0.25,
                0.8660253882408142
            ],
            "name": "mesh3603_norm_accessor",
            "type": "VEC3"
        },
        {
            "bufferView": 44,
            "componentType": 5125,
            "count": 54,
            "max": [
                19
            ],
            "min": [
                0
            ],
            "name": "mesh3603_idx_accessor",
            "type": "SCALAR"
        },
        {
            "bufferView": 45,
            "componentType": 5126,
            "count": 22,
            "max": [
                0.0023094010539352894,
                0.004000000189989805,
                0.0023499999660998583
            ],
            "min": [
                -0.0023094010539352894,
                0.004000000189989805,
                -0.0023499999660998583
            ],
            "name": "mesh3604_coord_accessor",
            "type": "VEC3"
        },
        {
            "bufferView": 46,
            "componentType": 5126,
            "count": 22,
            "max": [
                0.0,
                1.0,
                0.0
            ],
            "min": [
                0.0,
                1.0,
                0.0
            ],
            "name": "mesh3604_norm_accessor",
            "type": "VEC3"
        },
        {
            "bufferView": 47,
            "componentType": 5125,
            "count": 60,
            "max": [
                21
            ],
            "min": [
                0
            ],
            "name": "mesh3604_idx_accessor",
            "type": "SCALAR"
        },
        {
            "bufferView": 48,
            "componentType": 5126,
            "count": 20,
            "max": [
                0.003464101580902934,
                0.004000000189989805,
                0.0023499999660998583
            ],
            "min": [
                0.0,
                0.0020000000949949026,
                0.00199273438192904
            ],
            "name": "mesh3605_coord_accessor",
            "type": "VEC3"
        },
        {
            "bufferView": 49,
            "componentType": 5126,
            "count": 20,
            "max": [
                0.4330126941204071,
                0.5,
                0.8660253882408142
            ],
            "min": [
                -3.0616171314629196e-17,
                0.25,
                0.8660253882408142
            ],
            "name": "mesh3605_norm_accessor",
            "type": "VEC3"
        },
        {
            "bufferView": 50,
            "componentType": 5125,
            "count": 54,
            "max": [
                19
            ],
            "min": [
                0
            ],
            "name": "mesh3605_idx_accessor",
            "type": "SCALAR"
        },
        {
            "bufferView": 51,
            "componentType": 5126,
            "count": 22,
            "max": [
                0.004618802107870579,
                0.004000000189989805,
                0.0023499999660998583
            ],
            "min": [
                0.0023094010539352894,
                -6.5052130349130266e-18,
                -0.0023499999660998583
            ],
            "name": "mesh3606_coord_accessor",
            "type": "VEC3"
        },
        {
            "bufferView": 52,
            "componentType": 5126,
            "count": 22,
            "max": [
                0.8660253882408142,
                0.5,
                0.0
            ],
            "min": [
                0.8660253882408142,
                0.5,
                0.0
            ],
            "name": "mesh3606_norm_accessor",
            "type": "VEC3"
        },
        {
            "bufferView": 53,
            "componentType": 5125,
            "count": 60,
            "max": [
                21
            ],
            "min": [
                0
            ],
            "name": "mesh3606_idx_accessor",
            "type": "SCALAR"
        },
        {
            "bufferView": 54,
            "componentType": 5126,
            "count": 20,
            "max": [
                0.004618802107870579,
                0.0020000000949949026,
                0.0023499999660998583
            ],
            "min": [
                0.003464101580902934,
                -0.0020000000949949026,
                0.00199273438192904
            ],
            "name": "mesh3607_coord_accessor",
            "type": "VEC3"
        },
        {
            "bufferView": 55,
            "componentType": 5126,
            "count": 20,
            "max": [
                0.5,
                0.25,
                0.8660253882408142
            ],
            "min": [
                0.4330126941204071,
                -0.25,
                0.8660253882408142
            ],
            "name": "mesh3607_norm_accessor",
            "type": "VEC3"
        },
        {
            "bufferView": 56,
            "componentType": 5125,
            "count": 54,
            "max": [
                19
            ],
            "min": [
                0
            ],
            "name": "mesh3607_idx_accessor",
            "type": "SCALAR"
        },
        {
            "bufferView": 57,
            "componentType": 5126,
            "count": 118,
            "max": [
                0.004000000189989805,
                0.004000000189989805,
                0.0023499999660998583
            ],
            "min": [
                -0.004000000189989805,
                -0.004000000189989805,
                0.0023499999660998583
            ],
            "name": "mesh3608_coord_accessor",
            "type": "VEC3"
        },
        {
            "bufferView": 58,
            "componentType": 5126,
            "count": 118,
            "max": [
                0.0,
                0.0,
                1.0
            ],
            "min": [
                0.0,
                0.0,
                1.0
            ],
            "name": "mesh3608_norm_accessor",
            "type": "VEC3"
        },
        {
            "bufferView": 59,
            "componentType": 5125,
            "count": 354,
            "max": [
                117
            ],
            "min": [
                0
            ],
            "name": "mesh3608_idx_accessor",
            "type": "SCALAR"
        },
        {
            "bufferView": 60,
            "componentType": 5126,
            "count": 22,
            "max": [
                0.004618802107870579,
                4.336808689942018e-18,
                0.0023499999660998583
            ],
            "min": [
                0.0023094010539352894,
                -0.004000000189989805,
                -0.0023499999660998583
            ],
            "name": "mesh3609_coord_accessor",
            "type": "VEC3"
        },
        {
            "bufferView": 61,
            "componentType": 5126,
            "count": 22,
            "max": [
                0.8660253882408142,
                -0.5,
                0.0
            ],
            "min": [
                0.8660253882408142,
                -0.5,
                0.0
            ],
            "name": "mesh3609_norm_accessor",
            "type": "VEC3"
        },
        {
            "bufferView": 62,
            "componentType": 5125,
            "count": 60,
            "max": [
                21
            ],
            "min": [
                0
            ],
            "name": "mesh3609_idx_accessor",
            "type": "SCALAR"
        },
        {
            "bufferView": 63,
            "componentType": 5126,
            "count": 22,
            "max": [
                0.0023094010539352894,
                -0.004000000189989805,
                0.0023499999660998583
            ],
            "min": [
                -0.0023094010539352894,
                -0.004000000189989805,
                -0.0023499999660998583
            ],
            "name": "mesh3610_coord_accessor",
            "type": "VEC3"
        },
        {
            "bufferView": 64,
            "componentType": 5126,
            "count": 22,
            "max": [
                0.0,
                -1.0,
                0.0
            ],
            "min": [
                0.0,
                -1.0,
                0.0
            ],
            "name": "mesh3610_norm_accessor",
            "type": "VEC3"
        },
        {
            "bufferView": 65,
            "componentType": 5125,
            "count": 60,
            "max": [
                21
            ],
            "min": [
                0
            ],
            "name": "mesh3610_idx_accessor",
            "type": "SCALAR"
        },
        {
            "bufferView": 66,
            "componentType": 5126,
            "count": 20,
            "max": [
                0.003464101580902934,
                -0.0020000000949949026,
                0.0023499999660998583
            ],
            "min": [
                0.0,
                -0.004000000189989805,
                0.00199273438192904
            ],
            "name": "mesh3611_coord_accessor",
            "type": "VEC3"
        },
        {
            "bufferView": 67,
            "componentType": 5126,
            "count": 20,
            "max": [
                0.4330126941204071,
                -0.25,
                0.8660253882408142
            ],
            "min": [
                9.184850732644269e-17,
                -0.5,
                0.8660253882408142
            ],
            "name": "mesh3611_norm_accessor",
            "type": "VEC3"
        },
        {
            "bufferView": 68,
            "componentType": 5125,
            "count": 54,
            "max": [
                19
            ],
            "min": [
                0
            ],
            "name": "mesh3611_idx_accessor",
            "type": "SCALAR"
        }
    ],
    "asset": {
        "generator": "ONSHAPE BY PTC INC, 1.221",
        "version": "2.0"
    },
    "bufferViews": [
        {
            "buffer": 0,
            "byteLength": 1392,
            "name": "mesh3589_coord_bufferView",
            "target": 34962
        },
        {
            "buffer": 0,
            "byteLength": 1392,
            "byteOffset": 1392,
            "name": "mesh3589_norm_bufferView",
            "target": 34962
        },
        {
            "buffer": 0,
            "byteLength": 1392,
            "byteOffset": 2784,
            "name": "mesh3589_idx_bufferView",
            "target": 34963
        },
        {
            "buffer": 0,
            "byteLength": 1392,
            "byteOffset": 4176,
            "name": "mesh3590_coord_bufferView",
            "target": 34962
        },
        {
            "buffer": 0,
            "byteLength": 1392,
            "byteOffset": 5568,
            "name": "mesh3590_norm_bufferView",
            "target": 34962
        },
        {
            "buffer": 0,
            "byteLength": 1392,
            "byteOffset": 6960,
            "name": "mesh3590_idx_bufferView",
            "target": 34963
        },
        {
            "buffer": 0,
            "byteLength": 1392,
            "byteOffset": 8352,
            "name": "mesh3591_coord_bufferView",
            "target": 34962
        },
        {
            "buffer": 0,
            "byteLength": 1392,
            "byteOffset": 9744,
            "name": "mesh3591_norm_bufferView",
            "target": 34962
        },
        {
            "buffer": 0,
            "byteLength": 1392,
            "byteOffset": 11136,
            "name": "mesh3591_idx_bufferView",
            "target": 34963
        },
        {
            "buffer": 0,
            "byteLength": 1416,
            "byteOffset": 12528,
            "name": "mesh3592_coord_bufferView",
            "target": 34962
        },
        {
            "buffer": 0,
            "byteLength": 1416,
            "byteOffset": 13944,
            "name": "mesh3592_norm_bufferView",
            "target": 34962
        },
        {
            "buffer": 0,
            "byteLength": 1416,
            "byteOffset": 15360,
            "name": "mesh3592_idx_bufferView",
            "target": 34963
        },
        {
            "buffer": 0,
            "byteLength": 240,
            "byteOffset": 16776,
            "name": "mesh3593_coord_bufferView",
            "target": 34962
        },
        {
            "buffer": 0,
            "byteLength": 240,
            "byteOffset": 17016,
            "name": "mesh3593_norm_bufferView",
            "target": 34962
        },
        {
            "buffer": 0,
            "byteLength": 216,
            "byteOffset": 17256,
            "name": "mesh3593_idx_bufferView",
            "target": 34963
        },
        {
            "buffer": 0,
            "byteLength": 240,
            "byteOffset": 17472,
            "name": "mesh3594_coord_bufferView",
            "target": 34962
        },
        {
            "buffer": 0,
            "byteLength": 240,
            "byteOffset": 17712,
            "name": "mesh3594_norm_bufferView",
            "target": 34962
        },
        {
            "buffer": 0,
            "byteLength": 216,
            "byteOffset": 17952,
            "name": "mesh3594_idx_bufferView",
            "target": 34963
        },
        {
            "buffer": 0,
            "byteLength": 240,
            "byteOffset": 18168,
            "name": "mesh3595_coord_bufferView",
            "target": 34962
        },
        {
            "buffer": 0,
            "byteLength": 240,
            "byteOffset": 18408,
            "name": "mesh3595_norm_bufferView",
            "target": 34962
        },
        {
            "buffer": 0,
            "byteLength": 216,
            "byteOffset": 18648,
            "name": "mesh3595_idx_bufferView",
            "target": 34963
        },
        {
            "buffer": 0,
            "byteLength": 240,
            "byteOffset": 18864,
            "name": "mesh3596_coord_bufferView",
            "target": 34962
        },
        {
            "buffer": 0,
            "byteLength": 240,
            "byteOffset": 19104,
            "name": "mesh3596_norm_bufferView",
            "target": 34962
        },
        {
            "buffer": 0,
            "byteLength": 216,
            "byteOffset": 19344,
            "name": "mesh3596_idx_bufferView",
            "target": 34963
        },
        {
            "buffer": 0,
            "byteLength": 240,
            "byteOffset": 19560,
            "name": "mesh3597_coord_bufferView",
            "target": 34962
        },
        {
            "buffer": 0,
            "byteLength": 240,
            "byteOffset": 19800,
            "name": "mesh3597_norm_bufferView",
            "target": 34962
        },
        {
            "buffer": 0,
            "byteLength": 216,
            "byteOffset": 20040,
            "name": "mesh3597_idx_bufferView",
            "target": 34963
        },
        {
            "buffer": 0,
            "byteLength": 240,
            "byteOffset": 20256,
            "name": "mesh3598_coord_bufferView",
            "target": 34962
        },
        {
            "buffer": 0,
            "byteLength": 240,
            "byteOffset": 20496,
            "name": "mesh3598_norm_bufferView",
            "target": 34962
        },
        {
            "buffer": 0,
            "byteLength": 216,
            "byteOffset": 20736,
            "name": "mesh3598_idx_bufferView",
            "target": 34963
        },
        {
            "buffer": 0,
            "byteLength": 264,
            "byteOffset": 20952,
            "name": "mesh3599_coord_bufferView",
            "target": 34962
        },
        {
            "buffer": 0,
            "byteLength": 264,
            "byteOffset": 21216,
            "name": "mesh3599_norm_bufferView",
            "target": 34962
        },
        {
            "buffer": 0,
            "byteLength": 240,
            "byteOffset": 21480,
            "name": "mesh3599_idx_bufferView",
            "target": 34963
        },
        {
            "buffer": 0,
            "byteLength": 240,
            "byteOffset": 21720,
            "name": "mesh3600_coord_bufferView",
            "target": 34962
        },
        {
            "buffer": 0,
            "byteLength": 240,
            "byteOffset": 21960,
            "name": "mesh3600_norm_bufferView",
            "target": 34962
        },
        {
            "buffer": 0,
            "byteLength": 216,
            "byteOffset": 22200,
            "name": "mesh3600_idx_bufferView",
            "target": 34963
        },
        {
            "buffer": 0,
            "byteLength": 240,
            "byteOffset": 22416,
            "name": "mesh3601_coord_bufferView",
            "target": 34962
        },
        {
            "buffer": 0,
            "byteLength": 240,
            "byteOffset": 22656,
            "name": "mesh3601_norm_bufferView",
            "target": 34962
        },
        {
            "buffer": 0,
            "byteLength": 216,
            "byteOffset": 22896,
            "name": "mesh3601_idx_bufferView",
            "target": 34963
        },
        {
            "buffer": 0,
            "byteLength": 264,
            "byteOffset": 23112,
            "name": "mesh3602_coord_bufferView",
            "target": 34962
        },
        {
            "buffer": 0,
            "byteLength": 264,
            "byteOffset": 23376,
            "name": "mesh3602_norm_bufferView",
            "target": 34962
        },
        {
            "buffer": 0,
            "byteLength": 240,
            "byteOffset": 23640,
            "name": "mesh3602_idx_bufferView",
            "target": 34963
        },
        {
            "buffer": 0,
            "byteLength": 240,
            "byteOffset": 23880,
            "name": "mesh3603_coord_bufferView",
            "target": 34962
        },
        {
            "buffer": 0,
            "byteLength": 240,
            "byteOffset": 24120,
            "name": "mesh3603_norm_bufferView",
            "target": 34962
        },
        {
            "buffer": 0,
            "byteLength": 216,
            "byteOffset": 24360,
            "name": "mesh3603_idx_bufferView",
            "target": 34963
        },
        {
            "buffer": 0,
            "byteLength": 264,
            "byteOffset": 24576,
            "name": "mesh3604_coord_bufferView",
            "target": 34962
        },
        {
            "buffer": 0,
            "byteLength": 264,
            "byteOffset": 24840,
            "name": "mesh3604_norm_bufferView",
            "target": 34962
        },
        {
            "buffer": 0,
            "byteLength": 240,
            "byteOffset": 25104,
            "name": "mesh3604_idx_bufferView",
            "target": 34963
        },
        {
            "buffer": 0,
            "byteLength": 240,
            "byteOffset": 25344,
            "name": "mesh3605_coord_bufferView",
            "target": 34962
        },
        {
            "buffer": 0,
            "byteLength": 240,
            "byteOffset": 25584,
            "name": "mesh3605_norm_bufferView",
            "target": 34962
        },
        {
            "buffer": 0,
            "byteLength": 216,
            "byteOffset": 25824,
            "name": "mesh3605_idx_bufferView",
            "target": 34963
        },
        {
            "buffer": 0,
            "byteLength": 264,
            "byteOffset": 26040,
            "name": "mesh3606_coord_bufferView",
            "target": 34962
        },
        {
            "buffer": 0,
            "byteLength": 264,
            "byteOffset": 26304,
            "name": "mesh3606_norm_bufferView",
            "target": 34962
        },
        {
            "buffer": 0,
            "byteLength": 240,
            "byteOffset": 26568,
            "name": "mesh3606_idx_bufferView",
            "target": 34963
        },
        {
            "buffer": 0,
            "byteLength": 240,
            "byteOffset": 26808,
            "name": "mesh3607_coord_bufferView",
            "target": 34962
        },
        {
            "buffer": 0,
            "byteLength": 240,
            "byteOffset": 27048,
            "name": "mesh3607_norm_bufferView",
            "target": 34962
        },
        {
            "buffer": 0,
            "byteLength": 216,
            "byteOffset": 27288,
            "name": "mesh3607_idx_bufferView",
            "target": 34963
        },
        {
            "buffer": 0,
            "byteLength": 1416,
            "byteOffset": 27504,
            "name": "mesh3608_coord_bufferView",
            "target": 34962
        },
        {
            "buffer": 0,
            "byteLength": 1416,
            "byteOffset": 28920,
            "name": "mesh3608_norm_bufferView",
            "target": 34962
        },
        {
            "buffer": 0,
            "byteLength": 1416,
            "byteOffset": 30336,
            "name": "mesh3608_idx_bufferView",
            "target": 34963
        },
        {
            "buffer": 0,
            "byteLength": 264,
            "byteOffset": 31752,
            "name": "mesh3609_coord_bufferView",
            "target": 34962
        },
        {
            "buffer": 0,
            "byteLength": 264,
            "byteOffset": 32016,
            "name": "mesh3609_norm_bufferView",
            "target": 34962
        },
        {
            "buffer": 0,
            "byteLength": 240,
            "byteOffset": 32280,
            "name": "mesh3609_idx_bufferView",
            "target": 34963
        },
        {
            "buffer": 0,
            "byteLength": 264,
            "byteOffset": 32520,
            "name": "mesh3610_coord_bufferView",
            "target": 34962
        },
        {
            "buffer": 0,
            "byteLength": 264,
            "byteOffset": 32784,
            "name": "mesh3610_norm_bufferView",
            "target": 34962
        },
        {
            "buffer": 0,
            "byteLength": 240,
            "byteOffset": 33048,
            "name": "mesh3610_idx_bufferView",
            "target": 34963
        },
        {
            "buffer": 0,
            "byteLength": 240,
            "byteOffset": 33288,
            "name": "mesh3611_coord_bufferView",
            "target": 34962
        },
        {
            "buffer": 0,
            "byteLength": 240,
            "byteOffset": 33528,
            "name": "mesh3611_norm_bufferView",
            "target": 34962
        },
        {
            "buffer": 0,
            "byteLength": 216,
            "byteOffset": 33768,
            "name": "mesh3611_idx_bufferView",
            "target": 34963
        }
    ],
    "buffers": [
        {
            "byteLength": 33984,
            "name": "Total_buffer",
            "uri": "data:application/octet-stream;base64,"
        }
    ],
    "extensionsUsed": [
        "PTC_onshape_metadata"
    ],
    "materials": [
        {
            "doubleSided": true,
            "name": "0.713725_0.760784_0.800000_0.000000_0.000000",
            "pbrMetallicRoughness": {
                "baseColorFactor": [
                    0.7137255072593689,
                    0.7607843279838562,
                    0.800000011920929,
                    1.0
                ],
                "metallicFactor": 0.0
            }
        },
        {
            "doubleSided": true,
            "name": "0.262745_0.282353_0.301961_0.000000_0.000000",
            "pbrMetallicRoughness": {
                "baseColorFactor": [
                    0.26274511218070984,
                    0.2823529541492462,
                    0.3019607961177826,
                    1.0
                ],
                "metallicFactor": 0.0
            }
        },
        {
            "doubleSided": true,
            "name": "0.917647_0.917647_0.917647_0.000000_0.000000",
            "pbrMetallicRoughness": {
                "baseColorFactor": [
                    0.9176470637321472,
                    0.9176470637321472,
                    0.9176470637321472,
                    1.0
                ],
                "metallicFactor": 0.0
            }
        },
        {
            "doubleSided": true,
            "name": "0.603922_0.647059_0.686275_0.000000_0.000000",
            "pbrMetallicRoughness": {
                "baseColorFactor": [
                    0.6039215922355652,
                    0.6470588445663452,
                    0.686274528503418,
                    1.0
                ],
                "metallicFactor": 0.0
            }
        },
        {
            "doubleSided": true,
            "name": "0.615686_0.811765_0.929412_0.000000_0.000000",
            "pbrMetallicRoughness": {
                "baseColorFactor": [
                    0.615686297416687,
                    0.8117647171020508,
                    0.929411768913269,
                    1.0
                ],
                "metallicFactor": 0.0
            }
        },
        {
            "doubleSided": true,
            "name": "0.768627_0.886275_0.952941_0.000000_0.000000",
            "pbrMetallicRoughness": {
                "baseColorFactor": [
                    0.7686274647712708,
                    0.886274516582489,
                    0.9529411792755127,
                    1.0
                ],
                "metallicFactor": 0.0
            }
        },
        {
            "doubleSided": true,
            "name": "0.972549_0.529412_0.003922_0.000000_0.000000",
            "pbrMetallicRoughness": {
                "baseColorFactor": [
                    0.9725490212440491,
                    0.529411792755127,
                    0.003921568859368563,
                    1.0
                ],
                "metallicFactor": 0.0
            }
        },
        {
            "doubleSided": true,
            "name": "0.498039_0.498039_0.498039_0.000000_0.000000",
            "pbrMetallicRoughness": {
                "baseColorFactor": [
                    0.49803921580314636,
                    0.49803921580314636,
                    0.49803921580314636,
                    1.0
                ],
                "metallicFactor": 0.0
            }
        },
        {
            "doubleSided": true,
            "name": "0.662745_0.376471_0.003922_0.000000_0.000000",
            "pbrMetallicRoughness": {
                "baseColorFactor": [
                    0.6627451181411743,
                    0.3764705955982208,
                    0.003921568859368563,
                    1.0
                ],
                "metallicFactor": 0.0
            }
        },
        {
            "doubleSided": true,
            "name": "0.349020_0.376471_0.400000_0.000000_0.000000",
            "pbrMetallicRoughness": {
                "baseColorFactor": [
                    0.3490196168422699,
                    0.3764705955982208,
                    0.4000000059604645,
                    1.0
                ],
                "metallicFactor": 0.0
            }
        },
        {
            "doubleSided": true,
            "name": "0.298039_0.298039_0.298039_0.000000_0.000000",
            "pbrMetallicRoughness": {
                "baseColorFactor": [
                    0.2980392277240753,
                    0.2980392277240753,
                    0.2980392277240753,
                    1.0
                ],
                "metallicFactor": 0.0
            }
        },
        {
            "doubleSided": true,
            "name": "0.231373_0.380392_0.705882_0.000000_0.000000",
            "pbrMetallicRoughness": {
                "baseColorFactor": [
                    0.23137255012989044,
                    0.3803921639919281,
                    0.7058823704719543,
                    1.0
                ],
                "metallicFactor": 0.0
            }
        },
        {
            "doubleSided": true,
            "name": "0.647059_0.647059_0.647059_0.000000_0.000000",
            "pbrMetallicRoughness": {
                "baseColorFactor": [
                    0.6470588445663452,
                    0.6470588445663452,
                    0.6470588445663452,
                    1.0
                ],
                "metallicFactor": 0.0
            }
        },
        {
            "doubleSided": true,
            "name": "0.980392_0.713725_0.003922_0.000000_0.000000",
            "pbrMetallicRoughness": {
                "baseColorFactor": [
                    0.9803921580314636,
                    0.7137255072593689,
                    0.003921568859368563,
                    1.0
                ],
                "metallicFactor": 0.0
            }
        },
        {
            "doubleSided": true,
            "name": "0.811765_0.858824_0.898039_0.000000_0.000000",
            "pbrMetallicRoughness": {
                "baseColorFactor": [
                    0.8117647171020508,
                    0.8588235378265381,
                    0.8980392217636108,
                    1.0
                ],
                "metallicFactor": 0.0
            }
        }
    ],
    "meshes": [
        {
            "name": "mesh3589_mesh",
            "primitives": [
                {
                    "attributes": {
                        "NORMAL": 1,
                        "POSITION": 0
                    },
                    "indices": 2,
                    "material": 3
                }
            ]
        },
        {
            "name": "mesh3590_mesh",
            "primitives": [
                {
                    "attributes": {
                        "NORMAL": 4,
                        "POSITION": 3
                    },
                    "indices": 5,
                    "material": 3
                }
            ]
        },
        {
            "name": "mesh3591_mesh",
            "primitives": [
                {
                    "attributes": {
                        "NORMAL": 7,
                        "POSITION": 6
                    },
                    "indices": 8,
                    "material": 3
                }
            ]
        },
        {
            "name": "mesh3592_mesh",
            "primitives": [
                {
                    "attributes": {
                        "NORMAL": 10,
                        "POSITION": 9
                    },
                    "indices": 11,
                    "material": 3
                }
            ]
        },
        {
            "name": "mesh3593_mesh",
            "primitives": [
                {
                    "attributes": {
                        "NORMAL": 13,
                        "POSITION": 12
                    },
                    "indices": 14,
                    "material": 3
                }
            ]
        },
        {
            "name": "mesh3594_mesh",
            "primitives": [
                {
                    "attributes": {
                        "NORMAL": 16,
                        "POSITION": 15
                    },
                    "indices": 17,
                    "material": 3
                }
            ]
        },
        {
            "name": "mesh3595_mesh",
            "primitives": [
                {
                    "attributes": {
                        "NORMAL": 19,
                        "POSITION": 18
                    },
                    "indices": 20,
                    "material": 3
                }
            ]
        },
        {
            "name": "mesh3596_mesh",
            "primitives": [
                {
                    "attributes": {
                        "NORMAL": 22,
                        "POSITION": 21
                    },
                    "indices": 23,
                    "material": 3
                }
            ]
        },
        {
            "name": "mesh3597_mesh",
            "primitives": [
                {
                    "attributes": {
                        "NORMAL": 25,
                        "POSITION": 24
                    },
                    "indices": 26,
                    "material": 3
                }
            ]
        },
        {
            "name": "mesh3598_mesh",
            "primitives": [
                {
                    "attributes": {
                        "NORMAL": 28,
                        "POSITION": 27
                    },
                    "indices": 29,
                    "material": 3
                }
            ]
        },
        {
            "name": "mesh3599_mesh",
            "primitives": [
                {
                    "attributes": {
                        "NORMAL": 31,
                        "POSITION": 30
                    },
                    "indices": 32,
                    "material": 3
                }
            ]
        },
        {
            "name": "mesh3600_mesh",
            "primitives": [
                {
                    "attributes": {
                        "NORMAL": 34,
                        "POSITION": 33
                    },
                    "indices": 35,
                    "material": 3
                }
            ]
        },
        {
            "name": "mesh3601_mesh",
            "primitives": [
                {
                    "attributes": {
                        "NORMAL": 37,
                        "POSITION": 36
                    },
                    "indices": 38,
                    "material": 3
                }
            ]
        },
        {
            "name": "mesh3602_mesh",
            "primitives": [
                {
                    "attributes": {
                        "NORMAL": 40,
                        "POSITION": 39
                    },
                    "indices": 41,
                    "material": 3
                }
            ]
        },
        {
            "name": "mesh3603_mesh",
            "primitives": [
                {
                    "attributes": {
                        "NORMAL": 43,
                        "POSITION": 42
                    },
                    "indices": 44,
                    "material": 3
                }
            ]
        },
        {
            "name": "mesh3604_mesh",
            "primitives": [
                {
                    "attributes": {
                        "NORMAL": 46,
                        "POSITION": 45
                    },
                    "indices": 47,
                    "material": 3
                }
            ]
        },
        {
            "name": "mesh3605_mesh",
            "primitives": [
                {
                    "attributes": {
                        "NORMAL": 49,
                        "POSITION": 48
                    },
                    "indices": 50,
                    "material": 3
                }
            ]
        },
        {
            "name": "mesh3606_mesh",
            "primitives": [
                {
                    "attributes": {
                        "NORMAL": 52,
                        "POSITION": 51
                    },
                    "indices": 53,
                    "material": 3
                }
            ]
        },
        {
            "name": "mesh3607_mesh",
            "primitives": [
                {
                    "attributes": {
                        "NORMAL": 55,
                        "POSITION": 54
                    },
                    "indices": 56,
                    "material": 3
                }
            ]
        },
        {
            "name": "mesh3608_mesh",
            "primitives": [
                {
                    "attributes": {
                        "NORMAL": 58,
                        "POSITION": 57
                    },
                    "indices": 59,
                    "material": 3
                }
            ]
        },
        {
            "name": "mesh3609_mesh",
            "primitives": [
                {
                    "attributes": {
                        "NORMAL": 61,
                        "POSITION": 60
                    },
                    "indices": 62,
                    "material": 3
                }
            ]
        },
        {
            "name": "mesh3610_mesh",
            "primitives": [
                {
                    "attributes": {
                        "NORMAL": 64,
                        "POSITION": 63
                    },
                    "indices": 65,
                    "material": 3
                }
            ]
        },
        {
            "name": "mesh3611_mesh",
            "primitives": [
                {
                    "attributes": {
                        "NORMAL": 67,
                        "POSITION": 66
                    },
                    "indices": 68,
                    "material": 3
                }
            ]
        }
    ],
    "nodes": [
        {
            "mesh": 0,
            "name": "mesh3589"
        },
        {
            "mesh": 1,
            "name": "mesh3590"
        },
        {
            "mesh": 2,
            "name": "mesh3591"
        },
        {
            "mesh": 3,
            "name": "mesh3592"
        },
        {
            "mesh": 4,
            "name": "mesh3593"
        },
        {
            "mesh": 5,
            "name": "mesh3594"
        },
        {
            "mesh": 6,
            "name": "mesh3595"
        },
        {
            "mesh": 7,
            "name": "mesh3596"
        },
        {
            "mesh": 8,
            "name": "mesh3597"
        },
        {
            "mesh": 9,
            "name": "mesh3598"
        },
        {
            "mesh": 10,
            "name": "mesh3599"
        },
        {
            "mesh": 11,
            "name": "mesh3600"
        },
        {
            "mesh": 12,
            "name": "mesh3601"
        },
        {
            "mesh": 13,
            "name": "mesh3602"
        },
        {
            "mesh": 14,
            "name": "mesh3603"
        },
        {
            "mesh": 15,
            "name": "mesh3604"
        },
        {
            "mesh": 16,
            "name": "mesh3605"
        },
        {
            "mesh": 17,
            "name": "mesh3606"
        },
        {
            "mesh": 18,
            "name": "mesh3607"
        },
        {
            "mesh": 19,
            "name": "mesh3608"
        },
        {
            "mesh": 20,
            "name": "mesh3609"
        },
        {
            "mesh": 21,
            "name": "mesh3610"
        },
        {
            "mesh": 22,
            "name": "mesh3611"
        }
    ],
    "scene": 0,
    "scenes": [
        {
            "name": "Root",
            "nodes": [
                0,
                1,
                2,
                3,
                4,
                5,
                6,
                7,
                8,
                9,
                10,
                11,
                12,
                13,
                14,
                15,
                16,
                17,
                18,
                19,
                20,
                21,
                22
            ]
        }
    ]
}