{
    "accessors": [
        {
            "bufferView": 0,
            "componentType": 5126,
            "count": 178,
            "max": [
                0.2321687638759613,
                0.020920751616358757,
                0.18515968322753906
            ],
            "min": [
                0.2285960167646408,
                0.016078969463706017,
                0.18216189742088318
            ],
            "name": "mesh4423_coord_accessor",
            "type": "VEC3"
        },
        {
            "bufferView": 1,
            "componentType": 5126,
            "count": 178,
            "max": [
                0.9893138408660889,
                0.14580148458480835,
                0.9999919533729553
            ],
            "min": [
                -0.9893138408660889,
                -0.14580148458480835,
                -0.9985334277153015
            ],
            "name": "mesh4423_norm_accessor",
            "type": "VEC3"
        },
        {
            "bufferView": 2,
            "componentType": 5125,
            "count": 534,
            "max": [
                177
            ],
            "min": [
                0
            ],
            "name": "mesh4423_idx_accessor",
            "type": "SCALAR"
        },
        {
            "bufferView": 3,
            "componentType": 5126,
            "count": 35,
            "max": [
                0.24008969962596893,
                0.02172693982720375,
                0.19663512706756592
            ],
            "min": [
                0.22696183621883392,
                0.01979220286011696,
                0.18168117105960846
            ],
            "name": "mesh4424_coord_accessor",
            "type": "VEC3"
        },
        {
            "bufferView": 4,
            "componentType": 5126,
            "count": 35,
            "max": [
                -0.14580148458480835,
                0.9893138408660889,
                5.449444784311197e-10
            ],
            "min": [
                -0.14580148458480835,
                0.9893138408660889,
                5.449444784311197e-10
            ],
            "name": "mesh4424_norm_accessor",
            "type": "VEC3"
        },
        {
            "bufferView": 5,
            "componentType": 5125,
            "count": 99,
            "max": [
                34
            ],
            "min": [
                0
            ],
            "name": "mesh4424_idx_accessor",
            "type": "SCALAR"
        },
        {
            "bufferView": 6,
            "componentType": 5126,
            "count": 147,
            "max": [
                0.23322799801826477,
                0.02225562185049057,
                0.18569768965244293
            ],
            "min": [
                0.22582007944583893,
                0.01978294551372528,
                0.1802539974451065
            ],
            "name": "mesh4425_coord_accessor",
            "type": "VEC3"
        },
        {
            "bufferView": 7,
            "componentType": 5126,
            "count": 147,
            "max": [
                0.529813289642334,
                0.9923598766326904,
                0.8445123434066772
            ],
            "min": [
                -0.14580148458480835,
                0.07808196544647217,
                5.522639012767172e-10
            ],
            "name": "mesh4425_norm_accessor",
            "type": "VEC3"
        },
        {
            "bufferView": 8,
            "componentType": 5125,
            "count": 435,
            "max": [
                146
            ],
            "min": [
                0
            ],
            "name": "mesh4425_idx_accessor",
            "type": "SCALAR"
        },
        {
            "bufferView": 9,
            "componentType": 5126,
            "count": 4,
            "max": [
                0.23208624124526978,
                0.06162546947598457,
                0.18427051603794098
            ],
            "min": [
                0.22001789510250092,
                0.021332139149308205,
                0.1802539974451065
            ],
            "name": "mesh4426_coord_accessor",
            "type": "VEC3"
        },
        {
            "bufferView": 10,
            "componentType": 5126,
            "count": 4,
            "max": [
                0.529813289642334,
                0.07808196544647217,
                0.8445123434066772
            ],
            "min": [
                0.529813289642334,
                0.07808196544647217,
                0.8445123434066772
            ],
            "name": "mesh4426_norm_accessor",
            "type": "VEC3"
        },
        {
            "bufferView": 11,
            "componentType": 5125,
            "count": 6,
            "max": [
                3
            ],
            "min": [
                0
            ],
            "name": "mesh4426_idx_accessor",
            "type": "SCALAR"
        },
        {
            "bufferView": 12,
            "componentType": 5126,
            "count": 57,
            "max": [
                0.24079178273677826,
                0.023530784994363785,
                0.19806231558322906
            ],
            "min": [
                0.23382353782653809,
                0.020803457126021385,
                0.19261860847473145
            ],
            "name": "mesh4427_coord_accessor",
            "type": "VEC3"
        },
        {
            "bufferView": 13,
            "componentType": 5126,
            "count": 57,
            "max": [
                -0.14580148458480835,
                0.9893138408660889,
                5.90291482360783e-10
            ],
            "min": [
                -0.549482524394989,
                -0.07808196544647217,
                -0.8445123434066772
            ],
            "name": "mesh4427_norm_accessor",
            "type": "VEC3"
        },
        {
            "bufferView": 14,
            "componentType": 5125,
            "count": 165,
            "max": [
                56
            ],
            "min": [
                0
            ],
            "name": "mesh4427_idx_accessor",
            "type": "SCALAR"
        },
        {
            "bufferView": 15,
            "componentType": 5126,
            "count": 4,
            "max": [
                0.2407386600971222,
                0.06290063261985779,
                0.19806231558322906
            ],
            "min": [
                0.22867031395435333,
                0.02260730229318142,
                0.1940457969903946
            ],
            "name": "mesh4428_coord_accessor",
            "type": "VEC3"
        },
        {
            "bufferView": 16,
            "componentType": 5126,
            "count": 4,
            "max": [
                -0.529813289642334,
                -0.07808196544647217,
                -0.8445123434066772
            ],
            "min": [
                -0.529813289642334,
                -0.07808196544647217,
                -0.8445123434066772
            ],
            "name": "mesh4428_norm_accessor",
            "type": "VEC3"
        },
        {
            "bufferView": 17,
            "componentType": 5125,
            "count": 6,
            "max": [
                3
            ],
            "min": [
                0
            ],
            "name": "mesh4428_idx_accessor",
            "type": "SCALAR"
        },
        {
            "bufferView": 18,
            "componentType": 5126,
            "count": 57,
            "max": [
                0.23493647575378418,
                0.06444992125034332,
                0.19806231558322906
            ],
            "min": [
                0.22752855718135834,
                0.06197714805603027,
                0.19261860847473145
            ],
            "name": "mesh4429_coord_accessor",
            "type": "VEC3"
        },
        {
            "bufferView": 19,
            "componentType": 5126,
            "count": 57,
            "max": [
                0.14580148458480835,
                -0.07808196544647217,
                -4.961615562848465e-10
            ],
            "min": [
                -0.529813289642334,
                -0.9922773241996765,
                -0.8445123434066772
            ],
            "name": "mesh4429_norm_accessor",
            "type": "VEC3"
        },
        {
            "bufferView": 20,
            "componentType": 5125,
            "count": 165,
            "max": [
                56
            ],
            "min": [
                0
            ],
            "name": "mesh4429_idx_accessor",
            "type": "SCALAR"
        },
        {
            "bufferView": 21,
            "componentType": 5126,
            "count": 35,
            "max": [
                0.23379471898078918,
                0.06444056332111359,
                0.19663512706756592
            ],
            "min": [
                0.22066685557365417,
                0.0625058263540268,
                0.18168117105960846
            ],
            "name": "mesh4430_coord_accessor",
            "type": "VEC3"
        },
        {
            "bufferView": 22,
            "componentType": 5126,
            "count": 35,
            "max": [
                0.14580148458480835,
                -0.9893138408660889,
                -5.449538598156778e-10
            ],
            "min": [
                0.14580148458480835,
                -0.9893138408660889,
                -5.449538598156778e-10
            ],
            "name": "mesh4430_norm_accessor",
            "type": "VEC3"
        },
        {
            "bufferView": 23,
            "componentType": 5125,
            "count": 99,
            "max": [
                34
            ],
            "min": [
                0
            ],
            "name": "mesh4430_idx_accessor",
            "type": "SCALAR"
        },
        {
            "bufferView": 24,
            "componentType": 5126,
            "count": 140,
            "max": [
                0.22693301737308502,
                0.06342931091785431,
                0.18569768965244293
            ],
            "min": [
                0.21996493637561798,
                0.06070198491215706,
                0.1802539974451065
            ],
            "name": "mesh4431_coord_accessor",
            "type": "VEC3"
        },
        {
            "bufferView": 25,
            "componentType": 5126,
            "count": 140,
            "max": [
                0.549482524394989,
                0.07808196544647217,
                0.8445123434066772
            ],
            "min": [
                0.14580148458480835,
                -0.9893138408660889,
                -5.211632791990439e-10
            ],
            "name": "mesh4431_norm_accessor",
            "type": "VEC3"
        },
        {
            "bufferView": 26,
            "componentType": 5125,
            "count": 414,
            "max": [
                139
            ],
            "min": [
                0
            ],
            "name": "mesh4431_idx_accessor",
            "type": "SCALAR"
        },
        {
            "bufferView": 27,
            "componentType": 5126,
            "count": 170,
            "max": [
                0.22514218091964722,
                0.06712263822555542,
                0.1850099116563797
            ],
            "min": [
                0.22188782691955566,
                0.06232185289263725,
                0.18231257796287537
            ],
            "name": "mesh4432_coord_accessor",
            "type": "VEC3"
        },
        {
            "bufferView": 28,
            "componentType": 5126,
            "count": 170,
            "max": [
                0.9893138408660889,
                0.14580148458480835,
                0.9996306896209717
            ],
            "min": [
                -0.9893138408660889,
                -0.14580148458480835,
                -0.9985334277153015
            ],
            "name": "mesh4432_norm_accessor",
            "type": "VEC3"
        },
        {
            "bufferView": 29,
            "componentType": 5125,
            "count": 510,
            "max": [
                169
            ],
            "min": [
                0
            ],
            "name": "mesh4432_idx_accessor",
            "type": "SCALAR"
        },
        {
            "bufferView": 30,
            "componentType": 5126,
            "count": 178,
            "max": [
                0.24805742502212524,
                0.07058575749397278,
                0.22029922902584076
            ],
            "min": [
                0.21706904470920563,
                0.06601880490779877,
                0.17690083384513855
            ],
            "name": "mesh4433_coord_accessor",
            "type": "VEC3"
        },
        {
            "bufferView": 31,
            "componentType": 5126,
            "count": 178,
            "max": [
                -0.14580148458480835,
                0.9893138408660889,
                5.449534712376192e-10
            ],
            "min": [
                -0.14580148458480835,
                0.9893138408660889,
                5.449534712376192e-10
            ],
            "name": "mesh4433_norm_accessor",
            "type": "VEC3"
        },
        {
            "bufferView": 32,
            "componentType": 5125,
            "count": 546,
            "max": [
                177
            ],
            "min": [
                0
            ],
            "name": "mesh4433_idx_accessor",
            "type": "SCALAR"
        },
        {
            "bufferView": 33,
            "componentType": 5126,
            "count": 179,
            "max": [
                0.2555188238620758,
                0.01995762251317501,
                0.22029922902584076
            ],
            "min": [
                0.224530428647995,
                0.015390665270388126,
                0.17690083384513855
            ],
            "name": "mesh4434_coord_accessor",
            "type": "VEC3"
        },
        {
            "bufferView": 34,
            "componentType": 5126,
            "count": 179,
            "max": [
                0.14580148458480835,
                -0.9893138408660889,
                -5.449533602153167e-10
            ],
            "min": [
                0.14580148458480835,
                -0.9893138408660889,
                -5.449533602153167e-10
            ],
            "name": "mesh4434_norm_accessor",
            "type": "VEC3"
        },
        {
            "bufferView": 35,
            "componentType": 5125,
            "count": 549,
            "max": [
                178
            ],
            "min": [
                0
            ],
            "name": "mesh4434_idx_accessor",
            "type": "SCALAR"
        },
        {
            "bufferView": 36,
            "componentType": 5126,
            "count": 4,
            "max": [
                0.230812206864357,
                0.06694458425045013,
                0.1808924674987793
            ],
            "min": [
                0.21706904470920563,
                0.015390665270388126,
                0.17690083384513855
            ],
            "name": "mesh4435_coord_accessor",
            "type": "VEC3"
        },
        {
            "bufferView": 37,
            "componentType": 5126,
            "count": 4,
            "max": [
                -0.5265265107154846,
                -0.07759756594896317,
                -0.8466099500656128
            ],
            "min": [
                -0.5265265107154846,
                -0.07759756594896317,
                -0.8466099500656128
            ],
            "name": "mesh4435_norm_accessor",
            "type": "VEC3"
        },
        {
            "bufferView": 38,
            "componentType": 5125,
            "count": 6,
            "max": [
                3
            ],
            "min": [
                0
            ],
            "name": "mesh4435_idx_accessor",
            "type": "SCALAR"
        },
        {
            "bufferView": 39,
            "componentType": 5126,
            "count": 4,
            "max": [
                0.2555188238620758,
                0.07058575749397278,
                0.22029922902584076
            ],
            "min": [
                0.2417912781238556,
                0.019034137949347496,
                0.2162827104330063
            ],
            "name": "mesh4436_coord_accessor",
            "type": "VEC3"
        },
        {
            "bufferView": 40,
            "componentType": 5126,
            "count": 4,
            "max": [
                0.529813289642334,
                0.07808196544647217,
                0.8445123434066772
            ],
            "min": [
                0.529813289642334,
                0.07808196544647217,
                0.8445123434066772
            ],
            "name": "mesh4436_norm_accessor",
            "type": "VEC3"
        },
        {
            "bufferView": 41,
            "componentType": 5125,
            "count": 6,
            "max": [
                3
            ],
            "min": [
                0
            ],
            "name": "mesh4436_idx_accessor",
            "type": "SCALAR"
        },
        {
            "bufferView": 42,
            "componentType": 5126,
            "count": 150,
            "max": [
                0.25215327739715576,
                0.07008975744247437,
                0.21710138022899628
            ],
            "min": [
                0.24202072620391846,
                0.019067954272031784,
                0.21440532803535461
            ],
            "name": "mesh4437_coord_accessor",
            "type": "VEC3"
        },
        {
            "bufferView": 43,
            "componentType": 5126,
            "count": 150,
            "max": [
                0.9893138408660889,
                0.14580148458480835,
                0.9985334277153015
            ],
            "min": [
                -0.9893138408660889,
                -0.14580148458480835,
                -0.9985334277153015
            ],
            "name": "mesh4437_norm_accessor",
            "type": "VEC3"
        },
        {
            "bufferView": 44,
            "componentType": 5125,
            "count": 456,
            "max": [
                149
            ],
            "min": [
                0
            ],
            "name": "mesh4437_idx_accessor",
            "type": "SCALAR"
        },
        {
            "bufferView": 45,
            "componentType": 5126,
            "count": 35,
            "max": [
                0.25128859281539917,
                0.06599371135234833,
                0.21445177495479584
            ],
            "min": [
                0.24429398775100708,
                0.023274283856153488,
                0.2118828445672989
            ],
            "name": "mesh4438_coord_accessor",
            "type": "VEC3"
        },
        {
            "bufferView": 46,
            "componentType": 5126,
            "count": 35,
            "max": [
                -0.95383220911026,
                -0.14057232439517975,
                -0.26541203260421753
            ],
            "min": [
                -0.95383220911026,
                -0.14057232439517975,
                -0.26541203260421753
            ],
            "name": "mesh4438_norm_accessor",
            "type": "VEC3"
        },
        {
            "bufferView": 47,
            "componentType": 5125,
            "count": 99,
            "max": [
                34
            ],
            "min": [
                0
            ],
            "name": "mesh4438_idx_accessor",
            "type": "SCALAR"
        },
        {
            "bufferView": 48,
            "componentType": 5126,
            "count": 4,
            "max": [
                0.2525699734687805,
                0.06631617248058319,
                0.21430714428424835
            ],
            "min": [
                0.24433337152004242,
                0.024951979517936707,
                0.2129046618938446
            ],
            "name": "mesh4439_coord_accessor",
            "type": "VEC3"
        },
        {
            "bufferView": 49,
            "componentType": 5126,
            "count": 4,
            "max": [
                -0.529813289642334,
                -0.07808196544647217,
                -0.8445123434066772
            ],
            "min": [
                -0.529813289642334,
                -0.07808196544647217,
                -0.8445123434066772
            ],
            "name": "mesh4439_norm_accessor",
            "type": "VEC3"
        },
        {
            "bufferView": 50,
            "componentType": 5125,
            "count": 6,
            "max": [
                3
            ],
            "min": [
                0
            ],
            "name": "mesh4439_idx_accessor",
            "type": "SCALAR"
        },
        {
            "bufferView": 51,
            "componentType": 5126,
            "count": 57,
            "max": [
                0.2526230812072754,
                0.02527444064617157,
                0.21430714428424835
            ],
            "min": [
                0.2503819465637207,
                0.023377392441034317,
                0.21147748827934265
            ],
            "name": "mesh4440_coord_accessor",
            "type": "VEC3"
        },
        {
            "bufferView": 52,
            "componentType": 5126,
            "count": 57,
            "max": [
                -0.14580148458480835,
                0.9893138408660889,
                5.512082457137524e-10
            ],
            "min": [
                -0.5495086908340454,
                -0.07808196544647217,
                -0.8445123434066772
            ],
            "name": "mesh4440_norm_accessor",
            "type": "VEC3"
        },
        {
            "bufferView": 53,
            "componentType": 5125,
            "count": 165,
            "max": [
                56
            ],
            "min": [
                0
            ],
            "name": "mesh4440_idx_accessor",
            "type": "SCALAR"
        },
        {
            "bufferView": 54,
            "componentType": 5126,
            "count": 23,
            "max": [
                0.25192099809646606,
                0.023470595479011536,
                0.21552245318889618
            ],
            "min": [
                0.23879313468933105,
                0.021535856649279594,
                0.20054005086421967
            ],
            "name": "mesh4441_coord_accessor",
            "type": "VEC3"
        },
        {
            "bufferView": 55,
            "componentType": 5126,
            "count": 23,
            "max": [
                -0.14580148458480835,
                0.9893138408660889,
                5.449445339422709e-10
            ],
            "min": [
                -0.14580148458480835,
                0.9893138408660889,
                5.449445339422709e-10
            ],
            "name": "mesh4441_norm_accessor",
            "type": "VEC3"
        },
        {
            "bufferView": 56,
            "componentType": 5125,
            "count": 63,
            "max": [
                22
            ],
            "min": [
                0
            ],
            "name": "mesh4441_idx_accessor",
            "type": "SCALAR"
        },
        {
            "bufferView": 57,
            "componentType": 5126,
            "count": 64,
            "max": [
                0.24854776263237,
                0.02467845194041729,
                0.21692118048667908
            ],
            "min": [
                0.2456548511981964,
                0.02254711091518402,
                0.21506673097610474
            ],
            "name": "mesh4442_coord_accessor",
            "type": "VEC3"
        },
        {
            "bufferView": 58,
            "componentType": 5126,
            "count": 64,
            "max": [
                -0.14580148458480835,
                0.9893138408660889,
                5.14353115654842e-10
            ],
            "min": [
                -0.5494779944419861,
                -0.07808196544647217,
                -0.8445123434066772
            ],
            "name": "mesh4442_norm_accessor",
            "type": "VEC3"
        },
        {
            "bufferView": 59,
            "componentType": 5125,
            "count": 186,
            "max": [
                63
            ],
            "min": [
                0
            ],
            "name": "mesh4442_idx_accessor",
            "type": "SCALAR"
        },
        {
            "bufferView": 60,
            "componentType": 5126,
            "count": 66,
            "max": [
                0.2489185929298401,
                0.06574173271656036,
                0.21552245318889618
            ],
            "min": [
                0.24002644419670105,
                0.02264534868299961,
                0.21506673097610474
            ],
            "name": "mesh4443_coord_accessor",
            "type": "VEC3"
        },
        {
            "bufferView": 61,
            "componentType": 5126,
            "count": 66,
            "max": [
                0.16920742392539978,
                0.024937177076935768,
                -0.9852649569511414
            ],
            "min": [
                0.16920742392539978,
                0.024937177076935768,
                -0.9852649569511414
            ],
            "name": "mesh4443_norm_accessor",
            "type": "VEC3"
        },
        {
            "bufferView": 62,
            "componentType": 5125,
            "count": 192,
            "max": [
                65
            ],
            "min": [
                0
            ],
            "name": "mesh4443_idx_accessor",
            "type": "SCALAR"
        },
        {
            "bufferView": 63,
            "componentType": 5126,
            "count": 4,
            "max": [
                0.24852599203586578,
                0.06404829770326614,
                0.21692118048667908
            ],
            "min": [
                0.24050162732601166,
                0.024350956082344055,
                0.21549680829048157
            ],
            "name": "mesh4444_coord_accessor",
            "type": "VEC3"
        },
        {
            "bufferView": 64,
            "componentType": 5126,
            "count": 4,
            "max": [
                -0.529813289642334,
                -0.07808196544647217,
                -0.8445123434066772
            ],
            "min": [
                -0.529813289642334,
                -0.07808196544647217,
                -0.8445123434066772
            ],
            "name": "mesh4444_norm_accessor",
            "type": "VEC3"
        },
        {
            "bufferView": 65,
            "componentType": 5125,
            "count": 6,
            "max": [
                3
            ],
            "min": [
                0
            ],
            "name": "mesh4444_idx_accessor",
            "type": "SCALAR"
        },
        {
            "bufferView": 66,
            "componentType": 5126,
            "count": 64,
            "max": [
                0.24272380769252777,
                0.06541775912046432,
                0.21692118048667908
            ],
            "min": [
                0.23935987055301666,
                0.06372079998254776,
                0.21506673097610474
            ],
            "name": "mesh4445_coord_accessor",
            "type": "VEC3"
        },
        {
            "bufferView": 67,
            "componentType": 5126,
            "count": 64,
            "max": [
                0.14580148458480835,
                -0.07808196544647217,
                -5.616723752766006e-10
            ],
            "min": [
                -0.529813289642334,
                -0.9922404289245605,
                -0.8445123434066772
            ],
            "name": "mesh4445_norm_accessor",
            "type": "VEC3"
        },
        {
            "bufferView": 68,
            "componentType": 5125,
            "count": 186,
            "max": [
                63
            ],
            "min": [
                0
            ],
            "name": "mesh4445_idx_accessor",
            "type": "SCALAR"
        },
        {
            "bufferView": 69,
            "componentType": 5126,
            "count": 23,
            "max": [
                0.24652138352394104,
                0.06631617248058319,
                0.21552245318889618
            ],
            "min": [
                0.2324981540441513,
                0.06424948573112488,
                0.20054005086421967
            ],
            "name": "mesh4446_coord_accessor",
            "type": "VEC3"
        },
        {
            "bufferView": 70,
            "componentType": 5126,
            "count": 23,
            "max": [
                0.14580148458480835,
                -0.9893138408660889,
                -5.449535822599216e-10
            ],
            "min": [
                0.14580148458480835,
                -0.9893138408660889,
                -5.449535822599216e-10
            ],
            "name": "mesh4446_norm_accessor",
            "type": "VEC3"
        },
        {
            "bufferView": 71,
            "componentType": 5125,
            "count": 63,
            "max": [
                22
            ],
            "min": [
                0
            ],
            "name": "mesh4446_idx_accessor",
            "type": "SCALAR"
        },
        {
            "bufferView": 72,
            "componentType": 5126,
            "count": 57,
            "max": [
                0.23876431584358215,
                0.06517297029495239,
                0.20455656945705414
            ],
            "min": [
                0.2317962348461151,
                0.062445636838674545,
                0.19911286234855652
            ],
            "name": "mesh4447_coord_accessor",
            "type": "VEC3"
        },
        {
            "bufferView": 73,
            "componentType": 5126,
            "count": 57,
            "max": [
                0.549482524394989,
                0.07808196544647217,
                0.8445123434066772
            ],
            "min": [
                0.14580148458480835,
                -0.9893138408660889,
                -5.736825459123907e-10
            ],
            "name": "mesh4447_norm_accessor",
            "type": "VEC3"
        },
        {
            "bufferView": 74,
            "componentType": 5125,
            "count": 165,
            "max": [
                56
            ],
            "min": [
                0
            ],
            "name": "mesh4447_idx_accessor",
            "type": "SCALAR"
        },
        {
            "bufferView": 75,
            "componentType": 5126,
            "count": 4,
            "max": [
                0.2439175397157669,
                0.06336912512779236,
                0.203129380941391
            ],
            "min": [
                0.23184919357299805,
                0.02307579293847084,
                0.19911286234855652
            ],
            "name": "mesh4448_coord_accessor",
            "type": "VEC3"
        },
        {
            "bufferView": 76,
            "componentType": 5126,
            "count": 4,
            "max": [
                0.529813289642334,
                0.07808196544647217,
                0.8445123434066772
            ],
            "min": [
                0.529813289642334,
                0.07808196544647217,
                0.8445123434066772
            ],
            "name": "mesh4448_norm_accessor",
            "type": "VEC3"
        },
        {
            "bufferView": 77,
            "componentType": 5125,
            "count": 6,
            "max": [
                3
            ],
            "min": [
                0
            ],
            "name": "mesh4448_idx_accessor",
            "type": "SCALAR"
        },
        {
            "bufferView": 78,
            "componentType": 5126,
            "count": 57,
            "max": [
                0.2450592964887619,
                0.023999277502298355,
                0.20455656945705414
            ],
            "min": [
                0.23765137791633606,
                0.021526601165533066,
                0.19911286234855652
            ],
            "name": "mesh4449_coord_accessor",
            "type": "VEC3"
        },
        {
            "bufferView": 79,
            "componentType": 5126,
            "count": 57,
            "max": [
                0.529813289642334,
                0.9922773241996765,
                0.8445123434066772
            ],
            "min": [
                -0.14580148458480835,
                0.07808196544647217,
                5.338176567448727e-10
            ],
            "name": "mesh4449_norm_accessor",
            "type": "VEC3"
        },
        {
            "bufferView": 80,
            "componentType": 5125,
            "count": 165,
            "max": [
                56
            ],
            "min": [
                0
            ],
            "name": "mesh4449_idx_accessor",
            "type": "SCALAR"
        },
        {
            "bufferView": 81,
            "componentType": 5126,
            "count": 308,
            "max": [
                0.24925266206264496,
                0.06966227293014526,
                0.22029922902584076
            ],
            "min": [
                0.21706904470920563,
                0.015390665270388126,
                0.1808924674987793
            ],
            "name": "mesh4450_coord_accessor",
            "type": "VEC3"
        },
        {
            "bufferView": 82,
            "componentType": 5126,
            "count": 308,
            "max": [
                -0.8354877829551697,
                -0.1231311559677124,
                0.5355361104011536
            ],
            "min": [
                -0.8354877829551697,
                -0.1231311559677124,
                0.5355361104011536
            ],
            "name": "mesh4450_norm_accessor",
            "type": "VEC3"
        },
        {
            "bufferView": 83,
            "componentType": 5125,
            "count": 936,
            "max": [
                307
            ],
            "min": [
                0
            ],
            "name": "mesh4450_idx_accessor",
            "type": "SCALAR"
        },
        {
            "bufferView": 84,
            "componentType": 5126,
            "count": 4,
            "max": [
                0.2414771020412445,
                0.04098758473992348,
                0.19932907819747925
            ],
            "min": [
                0.2327117621898651,
                0.02310633473098278,
                0.19531255960464478
            ],
            "name": "mesh4451_coord_accessor",
            "type": "VEC3"
        },
        {
            "bufferView": 85,
            "componentType": 5126,
            "count": 4,
            "max": [
                0.529813289642334,
                0.07808196544647217,
                0.8445123434066772
            ],
            "min": [
                0.529813289642334,
                0.07808196544647217,
                0.8445123434066772
            ],
            "name": "mesh4451_norm_accessor",
            "type": "VEC3"
        },
        {
            "bufferView": 86,
            "componentType": 5125,
            "count": 6,
            "max": [
                3
            ],
            "min": [
                0
            ],
            "name": "mesh4451_idx_accessor",
            "type": "SCALAR"
        },
        {
            "bufferView": 87,
            "componentType": 5126,
            "count": 256,
            "max": [
                0.2555188238620758,
                0.07058575749397278,
                0.2162827104330063
            ],
            "min": [
                0.22335080802440643,
                0.016316449269652367,
                0.17690083384513855
            ],
            "name": "mesh4452_coord_accessor",
            "type": "VEC3"
        },
        {
            "bufferView": 88,
            "componentType": 5126,
            "count": 256,
            "max": [
                0.8354877829551697,
                0.1231311559677124,
                -0.5355361104011536
            ],
            "min": [
                0.8354877829551697,
                0.1231311559677124,
                -0.5355361104011536
            ],
            "name": "mesh4452_norm_accessor",
            "type": "VEC3"
        },
        {
            "bufferView": 89,
            "componentType": 5125,
            "count": 780,
            "max": [
                255
            ],
            "min": [
                0
            ],
            "name": "mesh4452_idx_accessor",
            "type": "SCALAR"
        },
        {
            "bufferView": 90,
            "componentType": 5126,
            "count": 227,
            "max": [
                0.24056735634803772,
                0.04259265586733818,
                0.2018626183271408
            ],
            "min": [
                0.2326822429895401,
                0.04006410017609596,
                0.19531255960464478
            ],
            "name": "mesh4453_coord_accessor",
            "type": "VEC3"
        },
        {
            "bufferView": 91,
            "componentType": 5126,
            "count": 227,
            "max": [
                0.5494980216026306,
                0.07808196544647217,
                0.8445123434066772
            ],
            "min": [
                -0.529813289642334,
                -0.9923872947692871,
                -0.8445123434066772
            ],
            "name": "mesh4453_norm_accessor",
            "type": "VEC3"
        },
        {
            "bufferView": 92,
            "componentType": 5125,
            "count": 675,
            "max": [
                226
            ],
            "min": [
                0
            ],
            "name": "mesh4453_idx_accessor",
            "type": "SCALAR"
        },
        {
            "bufferView": 93,
            "componentType": 5126,
            "count": 227,
            "max": [
                0.24309606850147247,
                0.02426406554877758,
                0.2018626183271408
            ],
            "min": [
                0.23521094024181366,
                0.021735507994890213,
                0.19531255960464478
            ],
            "name": "mesh4454_coord_accessor",
            "type": "VEC3"
        },
        {
            "bufferView": 94,
            "componentType": 5126,
            "count": 227,
            "max": [
                0.529813289642334,
                0.9923903346061707,
                0.8445123434066772
            ],
            "min": [
                -0.5494980812072754,
                -0.07808196544647217,
                -0.8445123434066772
            ],
            "name": "mesh4454_norm_accessor",
            "type": "VEC3"
        },
        {
            "bufferView": 95,
            "componentType": 5125,
            "count": 675,
            "max": [
                226
            ],
            "min": [
                0
            ],
            "name": "mesh4454_idx_accessor",
            "type": "SCALAR"
        },
        {
            "bufferView": 96,
            "componentType": 5126,
            "count": 4,
            "max": [
                0.24306653439998627,
                0.04122183099389076,
                0.19904473423957825
            ],
            "min": [
                0.2386973798274994,
                0.023988472297787666,
                0.19784609973430634
            ],
            "name": "mesh4455_coord_accessor",
            "type": "VEC3"
        },
        {
            "bufferView": 97,
            "componentType": 5126,
            "count": 4,
            "max": [
                -0.529813289642334,
                -0.07808196544647217,
                -0.8445123434066772
            ],
            "min": [
                -0.529813289642334,
                -0.07808196544647217,
                -0.8445123434066772
            ],
            "name": "mesh4455_norm_accessor",
            "type": "VEC3"
        },
        {
            "bufferView": 98,
            "componentType": 5125,
            "count": 6,
            "max": [
                3
            ],
            "min": [
                0
            ],
            "name": "mesh4455_idx_accessor",
            "type": "SCALAR"
        },
        {
            "bufferView": 99,
            "componentType": 5126,
            "count": 4,
            "max": [
                0.24119655787944794,
                0.04094623774290085,
                0.19911101460456848
            ],
            "min": [
                0.23856425285339355,
                0.023968854919075966,
                0.19904473423957825
            ],
            "name": "mesh4456_coord_accessor",
            "type": "VEC3"
        },
        {
            "bufferView": 100,
            "componentType": 5126,
            "count": 4,
            "max": [
                -0.43720224499702454,
                -0.0644332766532898,
                -0.8970521688461304
            ],
            "min": [
                -0.43720224499702454,
                -0.0644332766532898,
                -0.8970521688461304
            ],
            "name": "mesh4456_norm_accessor",
            "type": "VEC3"
        },
        {
            "bufferView": 101,
            "componentType": 5125,
            "count": 6,
            "max": [
                3
            ],
            "min": [
                0
            ],
            "name": "mesh4456_idx_accessor",
            "type": "SCALAR"
        },
        {
            "bufferView": 102,
            "componentType": 5126,
            "count": 448,
            "max": [
                0.24208681285381317,
                0.06860619783401489,
                0.201055645942688
            ],
            "min": [
                0.23195427656173706,
                0.01758439652621746,
                0.19835776090621948
            ],
            "name": "mesh4457_coord_accessor",
            "type": "VEC3"
        },
        {
            "bufferView": 103,
            "componentType": 5126,
            "count": 448,
            "max": [
                0.9893138408660889,
                0.14580148458480835,
                0.9998903870582581
            ],
            "min": [
                -0.9893138408660889,
                -0.14580148458480835,
                -0.9985334277153015
            ],
            "name": "mesh4457_norm_accessor",
            "type": "VEC3"
        },
        {
            "bufferView": 104,
            "componentType": 5125,
            "count": 1350,
            "max": [
                447
            ],
            "min": [
                0
            ],
            "name": "mesh4457_idx_accessor",
            "type": "SCALAR"
        },
        {
            "bufferView": 105,
            "componentType": 5126,
            "count": 4,
            "max": [
                0.23870453238487244,
                0.040578972548246384,
                0.2018626183271408
            ],
            "min": [
                0.23430120944976807,
                0.023340580984950066,
                0.20064207911491394
            ],
            "name": "mesh4458_coord_accessor",
            "type": "VEC3"
        },
        {
            "bufferView": 106,
            "componentType": 5126,
            "count": 4,
            "max": [
                -0.529813289642334,
                -0.07808196544647217,
                -0.8445123434066772
            ],
            "min": [
                -0.529813289642334,
                -0.07808196544647217,
                -0.8445123434066772
            ],
            "name": "mesh4458_norm_accessor",
            "type": "VEC3"
        },
        {
            "bufferView": 107,
            "componentType": 5125,
            "count": 6,
            "max": [
                3
            ],
            "min": [
                0
            ],
            "name": "mesh4458_idx_accessor",
            "type": "SCALAR"
        },
        {
            "bufferView": 108,
            "componentType": 5126,
            "count": 331,
            "max": [
                0.24122971296310425,
                0.023988472297787666,
                0.20064207911491394
            ],
            "min": [
                0.2385837733745575,
                0.02211008220911026,
                0.198207825422287
            ],
            "name": "mesh4459_coord_accessor",
            "type": "VEC3"
        },
        {
            "bufferView": 109,
            "componentType": 5126,
            "count": 331,
            "max": [
                -0.11220067739486694,
                0.9920446872711182,
                0.015721622854471207
            ],
            "min": [
                -0.6239447593688965,
                -0.09083086252212524,
                -0.8970521688461304
            ],
            "name": "mesh4459_norm_accessor",
            "type": "VEC3"
        },
        {
            "bufferView": 110,
            "componentType": 5125,
            "count": 987,
            "max": [
                330
            ],
            "min": [
                0
            ],
            "name": "mesh4459_idx_accessor",
            "type": "SCALAR"
        },
        {
            "bufferView": 111,
            "componentType": 5126,
            "count": 4,
            "max": [
                0.2388206124305725,
                0.04059607908129692,
                0.20064207911491394
            ],
            "min": [
                0.2362053543329239,
                0.0236212071031332,
                0.20054863393306732
            ],
            "name": "mesh4460_coord_accessor",
            "type": "VEC3"
        },
        {
            "bufferView": 112,
            "componentType": 5126,
            "count": 4,
            "max": [
                -0.6163190603256226,
                -0.09083086252212524,
                -0.7822407484054565
            ],
            "min": [
                -0.6163190603256226,
                -0.09083086252212524,
                -0.7822407484054565
            ],
            "name": "mesh4460_norm_accessor",
            "type": "VEC3"
        },
        {
            "bufferView": 113,
            "componentType": 5125,
            "count": 6,
            "max": [
                3
            ],
            "min": [
                0
            ],
            "name": "mesh4460_idx_accessor",
            "type": "SCALAR"
        },
        {
            "bufferView": 114,
            "componentType": 5126,
            "count": 331,
            "max": [
                0.2386973798274994,
                0.04225535690784454,
                0.20064207911491394
            ],
            "min": [
                0.2356763482093811,
                0.040578972548246384,
                0.1982077807188034
            ],
            "name": "mesh4461_coord_accessor",
            "type": "VEC3"
        },
        {
            "bufferView": 115,
            "componentType": 5126,
            "count": 331,
            "max": [
                0.17601917684078217,
                -0.0644332766532898,
                0.01583082415163517
            ],
            "min": [
                -0.6163190603256226,
                -0.9995303750038147,
                -0.8970521688461304
            ],
            "name": "mesh4461_norm_accessor",
            "type": "VEC3"
        },
        {
            "bufferView": 116,
            "componentType": 5125,
            "count": 987,
            "max": [
                330
            ],
            "min": [
                0
            ],
            "name": "mesh4461_idx_accessor",
            "type": "SCALAR"
        }
    ],
    "asset": {
        "generator": "ONSHAPE BY PTC INC, 1.221",
        "version": "2.0"
    },
    "bufferViews": [
        {
            "buffer": 0,
            "byteLength": 2136,
            "name": "mesh4423_coord_bufferView",
            "target": 34962
        },
        {
            "buffer": 0,
            "byteLength": 2136,
            "byteOffset": 2136,
            "name": "mesh4423_norm_bufferView",
            "target": 34962
        },
        {
            "buffer": 0,
            "byteLength": 2136,
            "byteOffset": 4272,
            "name": "mesh4423_idx_bufferView",
            "target": 34963
        },
        {
            "buffer": 0,
            "byteLength": 420,
            "byteOffset": 6408,
            "name": "mesh4424_coord_bufferView",
            "target": 34962
        },
        {
            "buffer": 0,
            "byteLength": 420,
            "byteOffset": 6828,
            "name": "mesh4424_norm_bufferView",
            "target": 34962
        },
        {
            "buffer": 0,
            "byteLength": 396,
            "byteOffset": 7248,
            "name": "mesh4424_idx_bufferView",
            "target": 34963
        },
        {
            "buffer": 0,
            "byteLength": 1764,
            "byteOffset": 7644,
            "name": "mesh4425_coord_bufferView",
            "target": 34962
        },
        {
            "buffer": 0,
            "byteLength": 1764,
            "byteOffset": 9408,
            "name": "mesh4425_norm_bufferView",
            "target": 34962
        },
        {
            "buffer": 0,
            "byteLength": 1740,
            "byteOffset": 11172,
            "name": "mesh4425_idx_bufferView",
            "target": 34963
        },
        {
            "buffer": 0,
            "byteLength": 48,
            "byteOffset": 12912,
            "name": "mesh4426_coord_bufferView",
            "target": 34962
        },
        {
            "buffer": 0,
            "byteLength": 48,
            "byteOffset": 12960,
            "name": "mesh4426_norm_bufferView",
            "target": 34962
        },
        {
            "buffer": 0,
            "byteLength": 24,
            "byteOffset": 13008,
            "name": "mesh4426_idx_bufferView",
            "target": 34963
        },
        {
            "buffer": 0,
            "byteLength": 684,
            "byteOffset": 13032,
            "name": "mesh4427_coord_bufferView",
            "target": 34962
        },
        {
            "buffer": 0,
            "byteLength": 684,
            "byteOffset": 13716,
            "name": "mesh4427_norm_bufferView",
            "target": 34962
        },
        {
            "buffer": 0,
            "byteLength": 660,
            "byteOffset": 14400,
            "name": "mesh4427_idx_bufferView",
            "target": 34963
        },
        {
            "buffer": 0,
            "byteLength": 48,
            "byteOffset": 15060,
            "name": "mesh4428_coord_bufferView",
            "target": 34962
        },
        {
            "buffer": 0,
            "byteLength": 48,
            "byteOffset": 15108,
            "name": "mesh4428_norm_bufferView",
            "target": 34962
        },
        {
            "buffer": 0,
            "byteLength": 24,
            "byteOffset": 15156,
            "name": "mesh4428_idx_bufferView",
            "target": 34963
        },
        {
            "buffer": 0,
            "byteLength": 684,
            "byteOffset": 15180,
            "name": "mesh4429_coord_bufferView",
            "target": 34962
        },
        {
            "buffer": 0,
            "byteLength": 684,
            "byteOffset": 15864,
            "name": "mesh4429_norm_bufferView",
            "target": 34962
        },
        {
            "buffer": 0,
            "byteLength": 660,
            "byteOffset": 16548,
            "name": "mesh4429_idx_bufferView",
            "target": 34963
        },
        {
            "buffer": 0,
            "byteLength": 420,
            "byteOffset": 17208,
            "name": "mesh4430_coord_bufferView",
            "target": 34962
        },
        {
            "buffer": 0,
            "byteLength": 420,
            "byteOffset": 17628,
            "name": "mesh4430_norm_bufferView",
            "target": 34962
        },
        {
            "buffer": 0,
            "byteLength": 396,
            "byteOffset": 18048,
            "name": "mesh4430_idx_bufferView",
            "target": 34963
        },
        {
            "buffer": 0,
            "byteLength": 1680,
            "byteOffset": 18444,
            "name": "mesh4431_coord_bufferView",
            "target": 34962
        },
        {
            "buffer": 0,
            "byteLength": 1680,
            "byteOffset": 20124,
            "name": "mesh4431_norm_bufferView",
            "target": 34962
        },
        {
            "buffer": 0,
            "byteLength": 1656,
            "byteOffset": 21804,
            "name": "mesh4431_idx_bufferView",
            "target": 34963
        },
        {
            "buffer": 0,
            "byteLength": 2040,
            "byteOffset": 23460,
            "name": "mesh4432_coord_bufferView",
            "target": 34962
        },
        {
            "buffer": 0,
            "byteLength": 2040,
            "byteOffset": 25500,
            "name": "mesh4432_norm_bufferView",
            "target": 34962
        },
        {
            "buffer": 0,
            "byteLength": 2040,
            "byteOffset": 27540,
            "name": "mesh4432_idx_bufferView",
            "target": 34963
        },
        {
            "buffer": 0,
            "byteLength": 2136,
            "byteOffset": 29580,
            "name": "mesh4433_coord_bufferView",
            "target": 34962
        },
        {
            "buffer": 0,
            "byteLength": 2136,
            "byteOffset": 31716,
            "name": "mesh4433_norm_bufferView",
            "target": 34962
        },
        {
            "buffer": 0,
            "byteLength": 2184,
            "byteOffset": 33852,
            "name": "mesh4433_idx_bufferView",
            "target": 34963
        },
        {
            "buffer": 0,
            "byteLength": 2148,
            "byteOffset": 36036,
            "name": "mesh4434_coord_bufferView",
            "target": 34962
        },
        {
            "buffer": 0,
            "byteLength": 2148,
            "byteOffset": 38184,
            "name": "mesh4434_norm_bufferView",
            "target": 34962
        },
        {
            "buffer": 0,
            "byteLength": 2196,
            "byteOffset": 40332,
            "name": "mesh4434_idx_bufferView",
            "target": 34963
        },
        {
            "buffer": 0,
            "byteLength": 48,
            "byteOffset": 42528,
            "name": "mesh4435_coord_bufferView",
            "target": 34962
        },
        {
            "buffer": 0,
            "byteLength": 48,
            "byteOffset": 42576,
            "name": "mesh4435_norm_bufferView",
            "target": 34962
        },
        {
            "buffer": 0,
            "byteLength": 24,
            "byteOffset": 42624,
            "name": "mesh4435_idx_bufferView",
            "target": 34963
        },
        {
            "buffer": 0,
            "byteLength": 48,
            "byteOffset": 42648,
            "name": "mesh4436_coord_bufferView",
            "target": 34962
        },
        {
            "buffer": 0,
            "byteLength": 48,
            "byteOffset": 42696,
            "name": "mesh4436_norm_bufferView",
            "target": 34962
        },
        {
            "buffer": 0,
            "byteLength": 24,
            "byteOffset": 42744,
            "name": "mesh4436_idx_bufferView",
            "target": 34963
        },
        {
            "buffer": 0,
            "byteLength": 1800,
            "byteOffset": 42768,
            "name": "mesh4437_coord_bufferView",
            "target": 34962
        },
        {
            "buffer": 0,
            "byteLength": 1800,
            "byteOffset": 44568,
            "name": "mesh4437_norm_bufferView",
            "target": 34962
        },
        {
            "buffer": 0,
            "byteLength": 1824,
            "byteOffset": 46368,
            "name": "mesh4437_idx_bufferView",
            "target": 34963
        },
        {
            "buffer": 0,
            "byteLength": 420,
            "byteOffset": 48192,
            "name": "mesh4438_coord_bufferView",
            "target": 34962
        },
        {
            "buffer": 0,
            "byteLength": 420,
            "byteOffset": 48612,
            "name": "mesh4438_norm_bufferView",
            "target": 34962
        },
        {
            "buffer": 0,
            "byteLength": 396,
            "byteOffset": 49032,
            "name": "mesh4438_idx_bufferView",
            "target": 34963
        },
        {
            "buffer": 0,
            "byteLength": 48,
            "byteOffset": 49428,
            "name": "mesh4439_coord_bufferView",
            "target": 34962
        },
        {
            "buffer": 0,
            "byteLength": 48,
            "byteOffset": 49476,
            "name": "mesh4439_norm_bufferView",
            "target": 34962
        },
        {
            "buffer": 0,
            "byteLength": 24,
            "byteOffset": 49524,
            "name": "mesh4439_idx_bufferView",
            "target": 34963
        },
        {
            "buffer": 0,
            "byteLength": 684,
            "byteOffset": 49548,
            "name": "mesh4440_coord_bufferView",
            "target": 34962
        },
        {
            "buffer": 0,
            "byteLength": 684,
            "byteOffset": 50232,
            "name": "mesh4440_norm_bufferView",
            "target": 34962
        },
        {
            "buffer": 0,
            "byteLength": 660,
            "byteOffset": 50916,
            "name": "mesh4440_idx_bufferView",
            "target": 34963
        },
        {
            "buffer": 0,
            "byteLength": 276,
            "byteOffset": 51576,
            "name": "mesh4441_coord_bufferView",
            "target": 34962
        },
        {
            "buffer": 0,
            "byteLength": 276,
            "byteOffset": 51852,
            "name": "mesh4441_norm_bufferView",
            "target": 34962
        },
        {
            "buffer": 0,
            "byteLength": 252,
            "byteOffset": 52128,
            "name": "mesh4441_idx_bufferView",
            "target": 34963
        },
        {
            "buffer": 0,
            "byteLength": 768,
            "byteOffset": 52380,
            "name": "mesh4442_coord_bufferView",
            "target": 34962
        },
        {
            "buffer": 0,
            "byteLength": 768,
            "byteOffset": 53148,
            "name": "mesh4442_norm_bufferView",
            "target": 34962
        },
        {
            "buffer": 0,
            "byteLength": 744,
            "byteOffset": 53916,
            "name": "mesh4442_idx_bufferView",
            "target": 34963
        },
        {
            "buffer": 0,
            "byteLength": 792,
            "byteOffset": 54660,
            "name": "mesh4443_coord_bufferView",
            "target": 34962
        },
        {
            "buffer": 0,
            "byteLength": 792,
            "byteOffset": 55452,
            "name": "mesh4443_norm_bufferView",
            "target": 34962
        },
        {
            "buffer": 0,
            "byteLength": 768,
            "byteOffset": 56244,
            "name": "mesh4443_idx_bufferView",
            "target": 34963
        },
        {
            "buffer": 0,
            "byteLength": 48,
            "byteOffset": 57012,
            "name": "mesh4444_coord_bufferView",
            "target": 34962
        },
        {
            "buffer": 0,
            "byteLength": 48,
            "byteOffset": 57060,
            "name": "mesh4444_norm_bufferView",
            "target": 34962
        },
        {
            "buffer": 0,
            "byteLength": 24,
            "byteOffset": 57108,
            "name": "mesh4444_idx_bufferView",
            "target": 34963
        },
        {
            "buffer": 0,
            "byteLength": 768,
            "byteOffset": 57132,
            "name": "mesh4445_coord_bufferView",
            "target": 34962
        },
        {
            "buffer": 0,
            "byteLength": 768,
            "byteOffset": 57900,
            "name": "mesh4445_norm_bufferView",
            "target": 34962
        },
        {
            "buffer": 0,
            "byteLength": 744,
            "byteOffset": 58668,
            "name": "mesh4445_idx_bufferView",
            "target": 34963
        },
        {
            "buffer": 0,
            "byteLength": 276,
            "byteOffset": 59412,
            "name": "mesh4446_coord_bufferView",
            "target": 34962
        },
        {
            "buffer": 0,
            "byteLength": 276,
            "byteOffset": 59688,
            "name": "mesh4446_norm_bufferView",
            "target": 34962
        },
        {
            "buffer": 0,
            "byteLength": 252,
            "byteOffset": 59964,
            "name": "mesh4446_idx_bufferView",
            "target": 34963
        },
        {
            "buffer": 0,
            "byteLength": 684,
            "byteOffset": 60216,
            "name": "mesh4447_coord_bufferView",
            "target": 34962
        },
        {
            "buffer": 0,
            "byteLength": 684,
            "byteOffset": 60900,
            "name": "mesh4447_norm_bufferView",
            "target": 34962
        },
        {
            "buffer": 0,
            "byteLength": 660,
            "byteOffset": 61584,
            "name": "mesh4447_idx_bufferView",
            "target": 34963
        },
        {
            "buffer": 0,
            "byteLength": 48,
            "byteOffset": 62244,
            "name": "mesh4448_coord_bufferView",
            "target": 34962
        },
        {
            "buffer": 0,
            "byteLength": 48,
            "byteOffset": 62292,
            "name": "mesh4448_norm_bufferView",
            "target": 34962
        },
        {
            "buffer": 0,
            "byteLength": 24,
            "byteOffset": 62340,
            "name": "mesh4448_idx_bufferView",
            "target": 34963
        },
        {
            "buffer": 0,
            "byteLength": 684,
            "byteOffset": 62364,
            "name": "mesh4449_coord_bufferView",
            "target": 34962
        },
        {
            "buffer": 0,
            "byteLength": 684,
            "byteOffset": 63048,
            "name": "mesh4449_norm_bufferView",
            "target": 34962
        },
        {
            "buffer": 0,
            "byteLength": 660,
            "byteOffset": 63732,
            "name": "mesh4449_idx_bufferView",
            "target": 34963
        },
        {
            "buffer": 0,
            "byteLength": 3696,
            "byteOffset": 64392,
            "name": "mesh4450_coord_bufferView",
            "target": 34962
        },
        {
            "buffer": 0,
            "byteLength": 3696,
            "byteOffset": 68088,
            "name": "mesh4450_norm_bufferView",
            "target": 34962
        },
        {
            "buffer": 0,
            "byteLength": 3744,
            "byteOffset": 71784,
            "name": "mesh4450_idx_bufferView",
            "target": 34963
        },
        {
            "buffer": 0,
            "byteLength": 48,
            "byteOffset": 75528,
            "name": "mesh4451_coord_bufferView",
            "target": 34962
        },
        {
            "buffer": 0,
            "byteLength": 48,
            "byteOffset": 75576,
            "name": "mesh4451_norm_bufferView",
            "target": 34962
        },
        {
            "buffer": 0,
            "byteLength": 24,
            "byteOffset": 75624,
            "name": "mesh4451_idx_bufferView",
            "target": 34963
        },
        {
            "buffer": 0,
            "byteLength": 3072,
            "byteOffset": 75648,
            "name": "mesh4452_coord_bufferView",
            "target": 34962
        },
        {
            "buffer": 0,
            "byteLength": 3072,
            "byteOffset": 78720,
            "name": "mesh4452_norm_bufferView",
            "target": 34962
        },
        {
            "buffer": 0,
            "byteLength": 3120,
            "byteOffset": 81792,
            "name": "mesh4452_idx_bufferView",
            "target": 34963
        },
        {
            "buffer": 0,
            "byteLength": 2724,
            "byteOffset": 84912,
            "name": "mesh4453_coord_bufferView",
            "target": 34962
        },
        {
            "buffer": 0,
            "byteLength": 2724,
            "byteOffset": 87636,
            "name": "mesh4453_norm_bufferView",
            "target": 34962
        },
        {
            "buffer": 0,
            "byteLength": 2700,
            "byteOffset": 90360,
            "name": "mesh4453_idx_bufferView",
            "target": 34963
        },
        {
            "buffer": 0,
            "byteLength": 2724,
            "byteOffset": 93060,
            "name": "mesh4454_coord_bufferView",
            "target": 34962
        },
        {
            "buffer": 0,
            "byteLength": 2724,
            "byteOffset": 95784,
            "name": "mesh4454_norm_bufferView",
            "target": 34962
        },
        {
            "buffer": 0,
            "byteLength": 2700,
            "byteOffset": 98508,
            "name": "mesh4454_idx_bufferView",
            "target": 34963
        },
        {
            "buffer": 0,
            "byteLength": 48,
            "byteOffset": 101208,
            "name": "mesh4455_coord_bufferView",
            "target": 34962
        },
        {
            "buffer": 0,
            "byteLength": 48,
            "byteOffset": 101256,
            "name": "mesh4455_norm_bufferView",
            "target": 34962
        },
        {
            "buffer": 0,
            "byteLength": 24,
            "byteOffset": 101304,
            "name": "mesh4455_idx_bufferView",
            "target": 34963
        },
        {
            "buffer": 0,
            "byteLength": 48,
            "byteOffset": 101328,
            "name": "mesh4456_coord_bufferView",
            "target": 34962
        },
        {
            "buffer": 0,
            "byteLength": 48,
            "byteOffset": 101376,
            "name": "mesh4456_norm_bufferView",
            "target": 34962
        },
        {
            "buffer": 0,
            "byteLength": 24,
            "byteOffset": 101424,
            "name": "mesh4456_idx_bufferView",
            "target": 34963
        },
        {
            "buffer": 0,
            "byteLength": 5376,
            "byteOffset": 101448,
            "name": "mesh4457_coord_bufferView",
            "target": 34962
        },
        {
            "buffer": 0,
            "byteLength": 5376,
            "byteOffset": 106824,
            "name": "mesh4457_norm_bufferView",
            "target": 34962
        },
        {
            "buffer": 0,
            "byteLength": 5400,
            "byteOffset": 112200,
            "name": "mesh4457_idx_bufferView",
            "target": 34963
        },
        {
            "buffer": 0,
            "byteLength": 48,
            "byteOffset": 117600,
            "name": "mesh4458_coord_bufferView",
            "target": 34962
        },
        {
            "buffer": 0,
            "byteLength": 48,
            "byteOffset": 117648,
            "name": "mesh4458_norm_bufferView",
            "target": 34962
        },
        {
            "buffer": 0,
            "byteLength": 24,
            "byteOffset": 117696,
            "name": "mesh4458_idx_bufferView",
            "target": 34963
        },
        {
            "buffer": 0,
            "byteLength": 3972,
            "byteOffset": 117720,
            "name": "mesh4459_coord_bufferView",
            "target": 34962
        },
        {
            "buffer": 0,
            "byteLength": 3972,
            "byteOffset": 121692,
            "name": "mesh4459_norm_bufferView",
            "target": 34962
        },
        {
            "buffer": 0,
            "byteLength": 3948,
            "byteOffset": 125664,
            "name": "mesh4459_idx_bufferView",
            "target": 34963
        },
        {
            "buffer": 0,
            "byteLength": 48,
            "byteOffset": 129612,
            "name": "mesh4460_coord_bufferView",
            "target": 34962
        },
        {
            "buffer": 0,
            "byteLength": 48,
            "byteOffset": 129660,
            "name": "mesh4460_norm_bufferView",
            "target": 34962
        },
        {
            "buffer": 0,
            "byteLength": 24,
            "byteOffset": 129708,
            "name": "mesh4460_idx_bufferView",
            "target": 34963
        },
        {
            "buffer": 0,
            "byteLength": 3972,
            "byteOffset": 129732,
            "name": "mesh4461_coord_bufferView",
            "target": 34962
        },
        {
            "buffer": 0,
            "byteLength": 3972,
            "byteOffset": 133704,
            "name": "mesh4461_norm_bufferView",
            "target": 34962
        },
        {
            "buffer": 0,
            "byteLength": 3948,
            "byteOffset": 137676,
            "name": "mesh4461_idx_bufferView",
            "target": 34963
        }
    ],
    "buffers": [
        {
            "byteLength": 141624,
            "name": "Total_buffer",
            "uri": "data:application/octet-stream;base64,"
        }
    ],
    "extensionsUsed": [
        "PTC_onshape_metadata"
    ],
    "materials": [
        {
            "doubleSided": true,
            "name": "0.713725_0.760784_0.800000_0.000000_0.000000",
            "pbrMetallicRoughness": {
                "baseColorFactor": [
                    0.7137255072593689,
                    0.7607843279838562,
                    0.800000011920929,
                    1.0
                ],
                "metallicFactor": 0.0
            }
        },
        {
            "doubleSided": true,
            "name": "0.262745_0.282353_0.301961_0.000000_0.000000",
            "pbrMetallicRoughness": {
                "baseColorFactor": [
                    0.26274511218070984,
                    0.2823529541492462,
                    0.3019607961177826,
                    1.0
                ],
                "metallicFactor": 0.0
            }
        },
        {
            "doubleSided": true,
            "name": "0.917647_0.917647_0.917647_0.000000_0.000000",
            "pbrMetallicRoughness": {
                "baseColorFactor": [
                    0.9176470637321472,
                    0.9176470637321472,
                    0.9176470637321472,
                    1.0
                ],
                "metallicFactor": 0.0
            }
        },
        {
            "doubleSided": true,
            "name": "0.603922_0.647059_0.686275_0.000000_0.000000",
            "pbrMetallicRoughness": {
                "baseColorFactor": [
                    0.6039215922355652,
                    0.6470588445663452,
                    0.686274528503418,
                    1.0
                ],
                "metallicFactor": 0.0
            }
        },
        {
            "doubleSided": true,
            "name": "0.615686_0.811765_0.929412_0.000000_0.000000",
            "pbrMetallicRoughness": {
                "baseColorFactor": [
                    0.615686297416687,
                    0.8117647171020508,
                    0.929411768913269,
                    1.0
                ],
                "metallicFactor": 0.0
            }
        },
        {
            "doubleSided": true,
            "name": "0.768627_0.886275_0.952941_0.000000_0.000000",
            "pbrMetallicRoughness": {
                "baseColorFactor": [
                    0.7686274647712708,
                    0.886274516582489,
                    0.9529411792755127,
                    1.0
                ],
                "metallicFactor": 0.0
            }
        },
        {
            "doubleSided": true,
            "name": "0.972549_0.529412_0.003922_0.000000_0.000000",
            "pbrMetallicRoughness": {
                "baseColorFactor": [
                    0.9725490212440491,
                    0.529411792755127,
                    0.003921568859368563,
                    1.0
                ],
                "metallicFactor": 0.0
            }
        },
        {
            "doubleSided": true,
            "name": "0.498039_0.498039_0.498039_0.000000_0.000000",
            "pbrMetallicRoughness": {
                "baseColorFactor": [
                    0.49803921580314636,
                    0.49803921580314636,
                    0.49803921580314636,
                    1.0
                ],
                "metallicFactor": 0.0
            }
        },
        {
            "doubleSided": true,
            "name": "0.662745_0.376471_0.003922_0.000000_0.000000",
            "pbrMetallicRoughness": {
                "baseColorFactor": [
                    0.6627451181411743,
                    0.3764705955982208,
                    0.003921568859368563,
                    1.0
                ],
                "metallicFactor": 0.0
            }
        },
        {
            "doubleSided": true,
            "name": "0.349020_0.376471_0.400000_0.000000_0.000000",
            "pbrMetallicRoughness": {
                "baseColorFactor": [
                    0.3490196168422699,
                    0.3764705955982208,
                    0.4000000059604645,
                    1.0
                ],
                "metallicFactor": 0.0
            }
        },
        {
            "doubleSided": true,
            "name": "0.298039_0.298039_0.298039_0.000000_0.000000",
            "pbrMetallicRoughness": {
                "baseColorFactor": [
                    0.2980392277240753,
                    0.2980392277240753,
                    0.2980392277240753,
                    1.0
                ],
                "metallicFactor": 0.0
            }
        },
        {
            "doubleSided": true,
            "name": "0.231373_0.380392_0.705882_0.000000_0.000000",
            "pbrMetallicRoughness": {
                "baseColorFactor": [
                    0.23137255012989044,
                    0.3803921639919281,
                    0.7058823704719543,
                    1.0
                ],
                "metallicFactor": 0.0
            }
        },
        {
            "doubleSided": true,
            "name": "0.647059_0.647059_0.647059_0.000000_0.000000",
            "pbrMetallicRoughness": {
                "baseColorFactor": [
                    0.6470588445663452,
                    0.6470588445663452,
                    0.6470588445663452,
                    1.0
                ],
                "metallicFactor": 0.0
            }
        },
        {
            "doubleSided": true,
            "name": "0.980392_0.713725_0.003922_0.000000_0.000000",
            "pbrMetallicRoughness": {
                "baseColorFactor": [
                    0.9803921580314636,
                    0.7137255072593689,
                    0.003921568859368563,
                    1.0
                ],
                "metallicFactor": 0.0
            }
        },
        {
            "doubleSided": true,
            "name": "0.811765_0.858824_0.898039_0.000000_0.000000",
            "pbrMetallicRoughness": {
                "baseColorFactor": [
                    0.8117647171020508,
                    0.8588235378265381,
                    0.8980392217636108,
                    1.0
                ],
                "metallicFactor": 0.0
            }
        }
    ],
    "meshes": [
        {
            "name": "mesh4423_mesh",
            "primitives": [
                {
                    "attributes": {
                        "NORMAL": 1,
                        "POSITION": 0
                    },
                    "indices": 2,
                    "material": 4
                }
            ]
        },
        {
            "name": "mesh4424_mesh",
            "primitives": [
                {
                    "attributes": {
                        "NORMAL": 4,
                        "POSITION": 3
                    },
                    "indices": 5,
                    "material": 4
                }
            ]
        },
        {
            "name": "mesh4425_mesh",
            "primitives": [
                {
                    "attributes": {
                        "NORMAL": 7,
                        "POSITION": 6
                    },
                    "indices": 8,
                    "material": 4
                }
            ]
        },
        {
            "name": "mesh4426_mesh",
            "primitives": [
                {
                    "attributes": {
                        "NORMAL": 10,
                        "POSITION": 9
                    },
                    "indices": 11,
                    "material": 4
                }
            ]
        },
        {
            "name": "mesh4427_mesh",
            "primitives": [
                {
                    "attributes": {
                        "NORMAL": 13,
                        "POSITION": 12
                    },
                    "indices": 14,
                    "material": 4
                }
            ]
        },
        {
            "name": "mesh4428_mesh",
            "primitives": [
                {
                    "attributes": {
                        "NORMAL": 16,
                        "POSITION": 15
                    },
                    "indices": 17,
                    "material": 4
                }
            ]
        },
        {
            "name": "mesh4429_mesh",
            "primitives": [
                {
                    "attributes": {
                        "NORMAL": 19,
                        "POSITION": 18
                    },
                    "indices": 20,
                    "material": 4
                }
            ]
        },
        {
            "name": "mesh4430_mesh",
            "primitives": [
                {
                    "attributes": {
                        "NORMAL": 22,
                        "POSITION": 21
                    },
                    "indices": 23,
                    "material": 4
                }
            ]
        },
        {
            "name": "mesh4431_mesh",
            "primitives": [
                {
                    "attributes": {
                        "NORMAL": 25,
                        "POSITION": 24
                    },
                    "indices": 26,
                    "material": 4
                }
            ]
        },
        {
            "name": "mesh4432_mesh",
            "primitives": [
                {
                    "attributes": {
                        "NORMAL": 28,
                        "POSITION": 27
                    },
                    "indices": 29,
                    "material": 4
                }
            ]
        },
        {
            "name": "mesh4433_mesh",
            "primitives": [
                {
                    "attributes": {
                        "NORMAL": 31,
                        "POSITION": 30
                    },
                    "indices": 32,
                    "material": 4
                }
            ]
        },
        {
            "name": "mesh4434_mesh",
            "primitives": [
                {
                    "attributes": {
                        "NORMAL": 34,
                        "POSITION": 33
                    },
                    "indices": 35,
                    "material": 4
                }
            ]
        },
        {
            "name": "mesh4435_mesh",
            "primitives": [
                {
                    "attributes": {
                        "NORMAL": 37,
                        "POSITION": 36
                    },
                    "indices": 38,
                    "material": 4
                }
            ]
        },
        {
            "name": "mesh4436_mesh",
            "primitives": [
                {
                    "attributes": {
                        "NORMAL": 40,
                        "POSITION": 39
                    },
                    "indices": 41,
                    "material": 4
                }
            ]
        },
        {
            "name": "mesh4437_mesh",
            "primitives": [
                {
                    "attributes": {
                        "NORMAL": 43,
                        "POSITION": 42
                    },
                    "indices": 44,
                    "material": 4
                }
            ]
        },
        {
            "name": "mesh4438_mesh",
            "primitives": [
                {
                    "attributes": {
                        "NORMAL": 46,
                        "POSITION": 45
                    },
                    "indices": 47,
                    "material": 4
                }
            ]
        },
        {
            "name": "mesh4439_mesh",
            "primitives": [
                {
                    "attributes": {
                        "NORMAL": 49,
                        "POSITION": 48
                    },
                    "indices": 50,
                    "material": 4
                }
            ]
        },
        {
            "name": "mesh4440_mesh",
            "primitives": [
                {
                    "attributes": {
                        "NORMAL": 52,
                        "POSITION": 51
                    },
                    "indices": 53,
                    "material": 4
                }
            ]
        },
        {
            "name": "mesh4441_mesh",
            "primitives": [
                {
                    "attributes": {
                        "NORMAL": 55,
                        "POSITION": 54
                    },
                    "indices": 56,
                    "material": 4
                }
            ]
        },
        {
            "name": "mesh4442_mesh",
            "primitives": [
                {
                    "attributes": {
                        "NORMAL": 58,
                        "POSITION": 57
                    },
                    "indices": 59,
                    "material": 4
                }
            ]
        },
        {
            "name": "mesh4443_mesh",
            "primitives": [
                {
                    "attributes": {
                        "NORMAL": 61,
                        "POSITION": 60
                    },
                    "indices": 62,
                    "material": 4
                }
            ]
        },
        {
            "name": "mesh4444_mesh",
            "primitives": [
                {
                    "attributes": {
                        "NORMAL": 64,
                        "POSITION": 63
                    },
                    "indices": 65,
                    "material": 4
                }
            ]
        },
        {
            "name": "mesh4445_mesh",
            "primitives": [
                {
                    "attributes": {
                        "NORMAL": 67,
                        "POSITION": 66
                    },
                    "indices": 68,
                    "material": 4
                }
            ]
        },
        {
            "name": "mesh4446_mesh",
            "primitives": [
                {
                    "attributes": {
                        "NORMAL": 70,
                        "POSITION": 69
                    },
                    "indices": 71,
                    "material": 4
                }
            ]
        },
        {
            "name": "mesh4447_mesh",
            "primitives": [
                {
                    "attributes": {
                        "NORMAL": 73,
                        "POSITION": 72
                    },
                    "indices": 74,
                    "material": 4
                }
            ]
        },
        {
            "name": "mesh4448_mesh",
            "primitives": [
                {
                    "attributes": {
                        "NORMAL": 76,
                        "POSITION": 75
                    },
                    "indices": 77,
                    "material": 4
                }
            ]
        },
        {
            "name": "mesh4449_mesh",
            "primitives": [
                {
                    "attributes": {
                        "NORMAL": 79,
                        "POSITION": 78
                    },
                    "indices": 80,
                    "material": 4
                }
            ]
        },
        {
            "name": "mesh4450_mesh",
            "primitives": [
                {
                    "attributes": {
                        "NORMAL": 82,
                        "POSITION": 81
                    },
                    "indices": 83,
                    "material": 4
                }
            ]
        },
        {
            "name": "mesh4451_mesh",
            "primitives": [
                {
                    "attributes": {
                        "NORMAL": 85,
                        "POSITION": 84
                    },
                    "indices": 86,
                    "material": 4
                }
            ]
        },
        {
            "name": "mesh4452_mesh",
            "primitives": [
                {
                    "attributes": {
                        "NORMAL": 88,
                        "POSITION": 87
                    },
                    "indices": 89,
                    "material": 4
                }
            ]
        },
        {
            "name": "mesh4453_mesh",
            "primitives": [
                {
                    "attributes": {
                        "NORMAL": 91,
                        "POSITION": 90
                    },
                    "indices": 92,
                    "material": 4
                }
            ]
        },
        {
            "name": "mesh4454_mesh",
            "primitives": [
                {
                    "attributes": {
                        "NORMAL": 94,
                        "POSITION": 93
                    },
                    "indices": 95,
                    "material": 4
                }
            ]
        },
        {
            "name": "mesh4455_mesh",
            "primitives": [
                {
                    "attributes": {
                        "NORMAL": 97,
                        "POSITION": 96
                    },
                    "indices": 98,
                    "material": 4
                }
            ]
        },
        {
            "name": "mesh4456_mesh",
            "primitives": [
                {
                    "attributes": {
                        "NORMAL": 100,
                        "POSITION": 99
                    },
                    "indices": 101,
                    "material": 4
                }
            ]
        },
        {
            "name": "mesh4457_mesh",
            "primitives": [
                {
                    "attributes": {
                        "NORMAL": 103,
                        "POSITION": 102
                    },
                    "indices": 104,
                    "material": 4
                }
            ]
        },
        {
            "name": "mesh4458_mesh",
            "primitives": [
                {
                    "attributes": {
                        "NORMAL": 106,
                        "POSITION": 105
                    },
                    "indices": 107,
                    "material": 4
                }
            ]
        },
        {
            "name": "mesh4459_mesh",
            "primitives": [
                {
                    "attributes": {
                        "NORMAL": 109,
                        "POSITION": 108
                    },
                    "indices": 110,
                    "material": 4
                }
            ]
        },
        {
            "name": "mesh4460_mesh",
            "primitives": [
                {
                    "attributes": {
                        "NORMAL": 112,
                        "POSITION": 111
                    },
                    "indices": 113,
                    "material": 4
                }
            ]
        },
        {
            "name": "mesh4461_mesh",
            "primitives": [
                {
                    "attributes": {
                        "NORMAL": 115,
                        "POSITION": 114
                    },
                    "indices": 116,
                    "material": 4
                }
            ]
        }
    ],
    "nodes": [
        {
            "mesh": 0,
            "name": "mesh4423"
        },
        {
            "mesh": 1,
            "name": "mesh4424"
        },
        {
            "mesh": 2,
            "name": "mesh4425"
        },
        {
            "mesh": 3,
            "name": "mesh4426"
        },
        {
            "mesh": 4,
            "name": "mesh4427"
        },
        {
            "mesh": 5,
            "name": "mesh4428"
        },
        {
            "mesh": 6,
            "name": "mesh4429"
        },
        {
            "mesh": 7,
            "name": "mesh4430"
        },
        {
            "mesh": 8,
            "name": "mesh4431"
        },
        {
            "mesh": 9,
            "name": "mesh4432"
        },
        {
            "mesh": 10,
            "name": "mesh4433"
        },
        {
            "mesh": 11,
            "name": "mesh4434"
        },
        {
            "mesh": 12,
            "name": "mesh4435"
        },
        {
            "mesh": 13,
            "name": "mesh4436"
        },
        {
            "mesh": 14,
            "name": "mesh4437"
        },
        {
            "mesh": 15,
            "name": "mesh4438"
        },
        {
            "mesh": 16,
            "name": "mesh4439"
        },
        {
            "mesh": 17,
            "name": "mesh4440"
        },
        {
            "mesh": 18,
            "name": "mesh4441"
        },
        {
            "mesh": 19,
            "name": "mesh4442"
        },
        {
            "mesh": 20,
            "name": "mesh4443"
        },
        {
            "mesh": 21,
            "name": "mesh4444"
        },
        {
            "mesh": 22,
            "name": "mesh4445"
        },
        {
            "mesh": 23,
            "name": "mesh4446"
        },
        {
            "mesh": 24,
            "name": "mesh4447"
        },
        {
            "mesh": 25,
            "name": "mesh4448"
        },
        {
            "mesh": 26,
            "name": "mesh4449"
        },
        {
            "mesh": 27,
            "name": "mesh4450"
        },
        {
            "mesh": 28,
            "name": "mesh4451"
        },
        {
            "mesh": 29,
            "name": "mesh4452"
        },
        {
            "mesh": 30,
            "name": "mesh4453"
        },
        {
            "mesh": 31,
            "name": "mesh4454"
        },
        {
            "mesh": 32,
            "name": "mesh4455"
        },
        {
            "mesh": 33,
            "name": "mesh4456"
        },
        {
            "mesh": 34,
            "name": "mesh4457"
        },
        {
            "mesh": 35,
            "name": "mesh4458"
        },
        {
            "mesh": 36,
            "name": "mesh4459"
        },
        {
            "mesh": 37,
            "name": "mesh4460"
        },
        {
            "mesh": 38,
            "name": "mesh4461"
        }
    ],
    "scene": 0,
    "scenes": [
        {
            "name": "Root",
            "nodes": [
                0,
                1,
                2,
                3,
                4,
                5,
                6,
                7,
                8,
                9,
                10,
                11,
                12,
                13,
                14,
                15,
                16,
                17,
                18,
                19,
                20,
                21,
                22,
                23,
                24,
                25,
                26,
                27,
                28,
                29,
                30,
                31,
                32,
                33,
                34,
                35,
                36,
                37,
                38
            ]
        }
    ]
}