{
    "accessors": [
        {
            "bufferView": 0,
            "componentType": 5126,
            "count": 67,
            "max": [
                0.004999999888241291,
                0.004999999888241291,
                0.07760000228881836
            ],
            "min": [
                -0.004999999888241291,
                -0.004999999888241291,
                0.07760000228881836
            ],
            "name": "mesh4417_coord_accessor",
            "type": "VEC3"
        },
        {
            "bufferView": 1,
            "componentType": 5126,
            "count": 67,
            "max": [
                0.0,
                0.0,
                1.0
            ],
            "min": [
                0.0,
                0.0,
                1.0
            ],
            "name": "mesh4417_norm_accessor",
            "type": "VEC3"
        },
        {
            "bufferView": 2,
            "componentType": 5125,
            "count": 198,
            "max": [
                66
            ],
            "min": [
                0
            ],
            "name": "mesh4417_idx_accessor",
            "type": "SCALAR"
        },
        {
            "bufferView": 3,
            "componentType": 5126,
            "count": 131,
            "max": [
                0.005994289182126522,
                0.005196152254939079,
                0.07760000228881836
            ],
            "min": [
                -0.006000000052154064,
                -0.006000000052154064,
                0.07660000026226044
            ],
            "name": "mesh4418_coord_accessor",
            "type": "VEC3"
        },
        {
            "bufferView": 4,
            "componentType": 5126,
            "count": 131,
            "max": [
                0.7071067690849304,
                0.7071067690849304,
                0.7071067690849304
            ],
            "min": [
                -0.7071067690849304,
                -0.7071067690849304,
                0.7071067690849304
            ],
            "name": "mesh4418_norm_accessor",
            "type": "VEC3"
        },
        {
            "bufferView": 5,
            "componentType": 5125,
            "count": 393,
            "max": [
                130
            ],
            "min": [
                0
            ],
            "name": "mesh4418_idx_accessor",
            "type": "SCALAR"
        },
        {
            "bufferView": 6,
            "componentType": 5126,
            "count": 100,
            "max": [
                0.006000000052154064,
                0.005196152254939079,
                0.07660000026226044
            ],
            "min": [
                -0.006000000052154064,
                -0.006000000052154064,
                -0.008999999612569809
            ],
            "name": "mesh4419_coord_accessor",
            "type": "VEC3"
        },
        {
            "bufferView": 7,
            "componentType": 5126,
            "count": 100,
            "max": [
                1.0,
                0.8660253882408142,
                0.0
            ],
            "min": [
                -1.0,
                -1.0,
                0.0
            ],
            "name": "mesh4419_norm_accessor",
            "type": "VEC3"
        },
        {
            "bufferView": 8,
            "componentType": 5125,
            "count": 294,
            "max": [
                99
            ],
            "min": [
                0
            ],
            "name": "mesh4419_idx_accessor",
            "type": "SCALAR"
        },
        {
            "bufferView": 9,
            "componentType": 5126,
            "count": 34,
            "max": [
                0.003000000026077032,
                0.005196152254939079,
                0.07740385085344315
            ],
            "min": [
                -0.003000000026077032,
                0.005196152254939079,
                -0.009803847409784794
            ],
            "name": "mesh4420_coord_accessor",
            "type": "VEC3"
        },
        {
            "bufferView": 10,
            "componentType": 5126,
            "count": 34,
            "max": [
                -1.4456029407636386e-16,
                1.0,
                -0.0
            ],
            "min": [
                -1.4456029407636386e-16,
                1.0,
                -0.0
            ],
            "name": "mesh4420_norm_accessor",
            "type": "VEC3"
        },
        {
            "bufferView": 11,
            "componentType": 5125,
            "count": 96,
            "max": [
                33
            ],
            "min": [
                0
            ],
            "name": "mesh4420_idx_accessor",
            "type": "SCALAR"
        },
        {
            "bufferView": 12,
            "componentType": 5126,
            "count": 130,
            "max": [
                0.006000000052154064,
                0.005196152254939079,
                -0.008999999612569809
            ],
            "min": [
                -0.005994289182126522,
                -0.006000000052154064,
                -0.009999999776482582
            ],
            "name": "mesh4421_coord_accessor",
            "type": "VEC3"
        },
        {
            "bufferView": 13,
            "componentType": 5126,
            "count": 130,
            "max": [
                0.7071067690849304,
                0.7071067690849304,
                -0.7071067690849304
            ],
            "min": [
                -0.7064337730407715,
                -0.7071067690849304,
                -0.7071067690849304
            ],
            "name": "mesh4421_norm_accessor",
            "type": "VEC3"
        },
        {
            "bufferView": 14,
            "componentType": 5125,
            "count": 390,
            "max": [
                129
            ],
            "min": [
                0
            ],
            "name": "mesh4421_idx_accessor",
            "type": "SCALAR"
        },
        {
            "bufferView": 15,
            "componentType": 5126,
            "count": 66,
            "max": [
                0.004999999888241291,
                0.004999999888241291,
                -0.009999999776482582
            ],
            "min": [
                -0.004995241295546293,
                -0.004999999888241291,
                -0.009999999776482582
            ],
            "name": "mesh4422_coord_accessor",
            "type": "VEC3"
        },
        {
            "bufferView": 16,
            "componentType": 5126,
            "count": 66,
            "max": [
                -0.0,
                -0.0,
                -1.0
            ],
            "min": [
                -0.0,
                -0.0,
                -1.0
            ],
            "name": "mesh4422_norm_accessor",
            "type": "VEC3"
        },
        {
            "bufferView": 17,
            "componentType": 5125,
            "count": 195,
            "max": [
                65
            ],
            "min": [
                0
            ],
            "name": "mesh4422_idx_accessor",
            "type": "SCALAR"
        }
    ],
    "asset": {
        "generator": "ONSHAPE BY PTC INC, 1.221",
        "version": "2.0"
    },
    "bufferViews": [
        {
            "buffer": 0,
            "byteLength": 804,
            "name": "mesh4417_coord_bufferView",
            "target": 34962
        },
        {
            "buffer": 0,
            "byteLength": 804,
            "byteOffset": 804,
            "name": "mesh4417_norm_bufferView",
            "target": 34962
        },
        {
            "buffer": 0,
            "byteLength": 792,
            "byteOffset": 1608,
            "name": "mesh4417_idx_bufferView",
            "target": 34963
        },
        {
            "buffer": 0,
            "byteLength": 1572,
            "byteOffset": 2400,
            "name": "mesh4418_coord_bufferView",
            "target": 34962
        },
        {
            "buffer": 0,
            "byteLength": 1572,
            "byteOffset": 3972,
            "name": "mesh4418_norm_bufferView",
            "target": 34962
        },
        {
            "buffer": 0,
            "byteLength": 1572,
            "byteOffset": 5544,
            "name": "mesh4418_idx_bufferView",
            "target": 34963
        },
        {
            "buffer": 0,
            "byteLength": 1200,
            "byteOffset": 7116,
            "name": "mesh4419_coord_bufferView",
            "target": 34962
        },
        {
            "buffer": 0,
            "byteLength": 1200,
            "byteOffset": 8316,
            "name": "mesh4419_norm_bufferView",
            "target": 34962
        },
        {
            "buffer": 0,
            "byteLength": 1176,
            "byteOffset": 9516,
            "name": "mesh4419_idx_bufferView",
            "target": 34963
        },
        {
            "buffer": 0,
            "byteLength": 408,
            "byteOffset": 10692,
            "name": "mesh4420_coord_bufferView",
            "target": 34962
        },
        {
            "buffer": 0,
            "byteLength": 408,
            "byteOffset": 11100,
            "name": "mesh4420_norm_bufferView",
            "target": 34962
        },
        {
            "buffer": 0,
            "byteLength": 384,
            "byteOffset": 11508,
            "name": "mesh4420_idx_bufferView",
            "target": 34963
        },
        {
            "buffer": 0,
            "byteLength": 1560,
            "byteOffset": 11892,
            "name": "mesh4421_coord_bufferView",
            "target": 34962
        },
        {
            "buffer": 0,
            "byteLength": 1560,
            "byteOffset": 13452,
            "name": "mesh4421_norm_bufferView",
            "target": 34962
        },
        {
            "buffer": 0,
            "byteLength": 1560,
            "byteOffset": 15012,
            "name": "mesh4421_idx_bufferView",
            "target": 34963
        },
        {
            "buffer": 0,
            "byteLength": 792,
            "byteOffset": 16572,
            "name": "mesh4422_coord_bufferView",
            "target": 34962
        },
        {
            "buffer": 0,
            "byteLength": 792,
            "byteOffset": 17364,
            "name": "mesh4422_norm_bufferView",
            "target": 34962
        },
        {
            "buffer": 0,
            "byteLength": 780,
            "byteOffset": 18156,
            "name": "mesh4422_idx_bufferView",
            "target": 34963
        }
    ],
    "buffers": [
        {
            "byteLength": 18936,
            "name": "Total_buffer",
            "uri": "data:application/octet-stream;base64,"
        }
    ],
    "extensionsUsed": [
        "PTC_onshape_metadata"
    ],
    "materials": [
        {
            "doubleSided": true,
            "name": "0.713725_0.760784_0.800000_0.000000_0.000000",
            "pbrMetallicRoughness": {
                "baseColorFactor": [
                    0.7137255072593689,
                    0.7607843279838562,
                    0.800000011920929,
                    1.0
                ],
                "metallicFactor": 0.0
            }
        },
        {
            "doubleSided": true,
            "name": "0.262745_0.282353_0.301961_0.000000_0.000000",
            "pbrMetallicRoughness": {
                "baseColorFactor": [
                    0.26274511218070984,
                    0.2823529541492462,
                    0.3019607961177826,
                    1.0
                ],
                "metallicFactor": 0.0
            }
        },
        {
            "doubleSided": true,
            "name": "0.917647_0.917647_0.917647_0.000000_0.000000",
            "pbrMetallicRoughness": {
                "baseColorFactor": [
                    0.9176470637321472,
                    0.9176470637321472,
                    0.9176470637321472,
                    1.0
                ],
                "metallicFactor": 0.0
            }
        },
        {
            "doubleSided": true,
            "name": "0.603922_0.647059_0.686275_0.000000_0.000000",
            "pbrMetallicRoughness": {
                "baseColorFactor": [
                    0.6039215922355652,
                    0.6470588445663452,
                    0.686274528503418,
                    1.0
                ],
                "metallicFactor": 0.0
            }
        },
        {
            "doubleSided": true,
            "name": "0.615686_0.811765_0.929412_0.000000_0.000000",
            "pbrMetallicRoughness": {
                "baseColorFactor": [
                    0.615686297416687,
                    0.8117647171020508,
                    0.929411768913269,
                    1.0
                ],
                "metallicFactor": 0.0
            }
        },
        {
            "doubleSided": true,
            "name": "0.768627_0.886275_0.952941_0.000000_0.000000",
            "pbrMetallicRoughness": {
                "baseColorFactor": [
                    0.7686274647712708,
                    0.886274516582489,
                    0.9529411792755127,
                    1.0
                ],
                "metallicFactor": 0.0
            }
        },
        {
            "doubleSided": true,
            "name": "0.972549_0.529412_0.003922_0.000000_0.000000",
            "pbrMetallicRoughness": {
                "baseColorFactor": [
                    0.9725490212440491,
                    0.529411792755127,
                    0.003921568859368563,
                    1.0
                ],
                "metallicFactor": 0.0
            }
        },
        {
            "doubleSided": true,
            "name": "0.498039_0.498039_0.498039_0.000000_0.000000",
            "pbrMetallicRoughness": {
                "baseColorFactor": [
                    0.49803921580314636,
                    0.49803921580314636,
                    0.49803921580314636,
                    1.0
                ],
                "metallicFactor": 0.0
            }
        },
        {
            "doubleSided": true,
            "name": "0.662745_0.376471_0.003922_0.000000_0.000000",
            "pbrMetallicRoughness": {
                "baseColorFactor": [
                    0.6627451181411743,
                    0.3764705955982208,
                    0.003921568859368563,
                    1.0
                ],
                "metallicFactor": 0.0
            }
        },
        {
            "doubleSided": true,
            "name": "0.349020_0.376471_0.400000_0.000000_0.000000",
            "pbrMetallicRoughness": {
                "baseColorFactor": [
                    0.3490196168422699,
                    0.3764705955982208,
                    0.4000000059604645,
                    1.0
                ],
                "metallicFactor": 0.0
            }
        },
        {
            "doubleSided": true,
            "name": "0.298039_0.298039_0.298039_0.000000_0.000000",
            "pbrMetallicRoughness": {
                "baseColorFactor": [
                    0.2980392277240753,
                    0.2980392277240753,
                    0.2980392277240753,
                    1.0
                ],
                "metallicFactor": 0.0
            }
        },
        {
            "doubleSided": true,
            "name": "0.231373_0.380392_0.705882_0.000000_0.000000",
            "pbrMetallicRoughness": {
                "baseColorFactor": [
                    0.23137255012989044,
                    0.3803921639919281,
                    0.7058823704719543,
                    1.0
                ],
                "metallicFactor": 0.0
            }
        },
        {
            "doubleSided": true,
            "name": "0.647059_0.647059_0.647059_0.000000_0.000000",
            "pbrMetallicRoughness": {
                "baseColorFactor": [
                    0.6470588445663452,
                    0.6470588445663452,
                    0.6470588445663452,
                    1.0
                ],
                "metallicFactor": 0.0
            }
        },
        {
            "doubleSided": true,
            "name": "0.980392_0.713725_0.003922_0.000000_0.000000",
            "pbrMetallicRoughness": {
                "baseColorFactor": [
                    0.9803921580314636,
                    0.7137255072593689,
                    0.003921568859368563,
                    1.0
                ],
                "metallicFactor": 0.0
            }
        },
        {
            "doubleSided": true,
            "name": "0.811765_0.858824_0.898039_0.000000_0.000000",
            "pbrMetallicRoughness": {
                "baseColorFactor": [
                    0.8117647171020508,
                    0.8588235378265381,
                    0.8980392217636108,
                    1.0
                ],
                "metallicFactor": 0.0
            }
        }
    ],
    "meshes": [
        {
            "name": "mesh4417_mesh",
            "primitives": [
                {
                    "attributes": {
                        "NORMAL": 1,
                        "POSITION": 0
                    },
                    "indices": 2,
                    "material": 4
                }
            ]
        },
        {
            "name": "mesh4418_mesh",
            "primitives": [
                {
                    "attributes": {
                        "NORMAL": 4,
                        "POSITION": 3
                    },
                    "indices": 5,
                    "material": 4
                }
            ]
        },
        {
            "name": "mesh4419_mesh",
            "primitives": [
                {
                    "attributes": {
                        "NORMAL": 7,
                        "POSITION": 6
                    },
                    "indices": 8,
                    "material": 4
                }
            ]
        },
        {
            "name": "mesh4420_mesh",
            "primitives": [
                {
                    "attributes": {
                        "NORMAL": 10,
                        "POSITION": 9
                    },
                    "indices": 11,
                    "material": 4
                }
            ]
        },
        {
            "name": "mesh4421_mesh",
            "primitives": [
                {
                    "attributes": {
                        "NORMAL": 13,
                        "POSITION": 12
                    },
                    "indices": 14,
                    "material": 4
                }
            ]
        },
        {
            "name": "mesh4422_mesh",
            "primitives": [
                {
                    "attributes": {
                        "NORMAL": 16,
                        "POSITION": 15
                    },
                    "indices": 17,
                    "material": 4
                }
            ]
        }
    ],
    "nodes": [
        {
            "mesh": 0,
            "name": "mesh4417"
        },
        {
            "mesh": 1,
            "name": "mesh4418"
        },
        {
            "mesh": 2,
            "name": "mesh4419"
        },
        {
            "mesh": 3,
            "name": "mesh4420"
        },
        {
            "mesh": 4,
            "name": "mesh4421"
        },
        {
            "mesh": 5,
            "name": "mesh4422"
        }
    ],
    "scene": 0,
    "scenes": [
        {
            "name": "Root",
            "nodes": [
                0,
                1,
                2,
                3,
                4,
                5
            ]
        }
    ]
}