{
    "accessors": [
        {
            "bufferView": 0,
            "componentType": 5126,
            "count": 59,
            "max": [
                0.42023393511772156,
                -0.3647516071796417,
                0.05061618238687515
            ],
            "min": [
                0.4153750538825989,
                -0.3696044683456421,
                0.050512440502643585
            ],
            "name": "mesh12_coord_accessor",
            "type": "VEC3"
        },
        {
            "bufferView": 1,
            "componentType": 5126,
            "count": 59,
            "max": [
                -0.021326323971152306,
                0.0013446538941934705,
                -0.9997716546058655
            ],
            "min": [
                -0.021326323971152306,
                0.0013446538941934705,
                -0.9997716546058655
            ],
            "name": "mesh12_norm_accessor",
            "type": "VEC3"
        },
        {
            "bufferView": 2,
            "componentType": 5125,
            "count": 174,
            "max": [
                58
            ],
            "min": [
                0
            ],
            "name": "mesh12_idx_accessor",
            "type": "SCALAR"
        },
        {
            "bufferView": 3,
            "componentType": 5126,
            "count": 116,
            "max": [
                0.4207608103752136,
                -0.3647516071796417,
                0.07531576603651047
            ],
            "min": [
                0.4153750538825989,
                -0.36963769793510437,
                0.050512440502643585
            ],
            "name": "mesh13_coord_accessor",
            "type": "VEC3"
        },
        {
            "bufferView": 4,
            "componentType": 5126,
            "count": 116,
            "max": [
                0.9997725486755371,
                0.9985325336456299,
                0.021346677094697952
            ],
            "min": [
                -0.9997725486755371,
                -0.9985325336456299,
                -0.021346677094697952
            ],
            "name": "mesh13_norm_accessor",
            "type": "VEC3"
        },
        {
            "bufferView": 5,
            "componentType": 5125,
            "count": 348,
            "max": [
                115
            ],
            "min": [
                0
            ],
            "name": "mesh13_idx_accessor",
            "type": "SCALAR"
        },
        {
            "bufferView": 6,
            "componentType": 5126,
            "count": 59,
            "max": [
                0.4207608103752136,
                -0.3647848069667816,
                0.07531576603651047
            ],
            "min": [
                0.41590192914009094,
                -0.36963769793510437,
                0.0752120167016983
            ],
            "name": "mesh14_coord_accessor",
            "type": "VEC3"
        },
        {
            "bufferView": 7,
            "componentType": 5126,
            "count": 59,
            "max": [
                0.021326323971152306,
                -0.0013446538941934705,
                0.9997716546058655
            ],
            "min": [
                0.021326323971152306,
                -0.0013446538941934705,
                0.9997716546058655
            ],
            "name": "mesh14_norm_accessor",
            "type": "VEC3"
        },
        {
            "bufferView": 8,
            "componentType": 5125,
            "count": 174,
            "max": [
                58
            ],
            "min": [
                0
            ],
            "name": "mesh14_idx_accessor",
            "type": "SCALAR"
        }
    ],
    "asset": {
        "generator": "ONSHAPE BY PTC INC, 1.221",
        "version": "2.0"
    },
    "bufferViews": [
        {
            "buffer": 0,
            "byteLength": 708,
            "name": "mesh12_coord_bufferView",
            "target": 34962
        },
        {
            "buffer": 0,
            "byteLength": 708,
            "byteOffset": 708,
            "name": "mesh12_norm_bufferView",
            "target": 34962
        },
        {
            "buffer": 0,
            "byteLength": 696,
            "byteOffset": 1416,
            "name": "mesh12_idx_bufferView",
            "target": 34963
        },
        {
            "buffer": 0,
            "byteLength": 1392,
            "byteOffset": 2112,
            "name": "mesh13_coord_bufferView",
            "target": 34962
        },
        {
            "buffer": 0,
            "byteLength": 1392,
            "byteOffset": 3504,
            "name": "mesh13_norm_bufferView",
            "target": 34962
        },
        {
            "buffer": 0,
            "byteLength": 1392,
            "byteOffset": 4896,
            "name": "mesh13_idx_bufferView",
            "target": 34963
        },
        {
            "buffer": 0,
            "byteLength": 708,
            "byteOffset": 6288,
            "name": "mesh14_coord_bufferView",
            "target": 34962
        },
        {
            "buffer": 0,
            "byteLength": 708,
            "byteOffset": 6996,
            "name": "mesh14_norm_bufferView",
            "target": 34962
        },
        {
            "buffer": 0,
            "byteLength": 696,
            "byteOffset": 7704,
            "name": "mesh14_idx_bufferView",
            "target": 34963
        }
    ],
    "buffers": [
        {
            "byteLength": 8400,
            "name": "Total_buffer",
            "uri": "data:application/octet-stream;base64,"
        }
    ],
    "extensionsUsed": [
        "PTC_onshape_metadata"
    ],
    "materials": [
        {
            "doubleSided": true,
            "name": "0.713725_0.760784_0.800000_0.000000_0.000000",
            "pbrMetallicRoughness": {
                "baseColorFactor": [
                    0.7137255072593689,
                    0.7607843279838562,
                    0.800000011920929,
                    1.0
                ],
                "metallicFactor": 0.0
            }
        },
        {
            "doubleSided": true,
            "name": "0.262745_0.282353_0.301961_0.000000_0.000000",
            "pbrMetallicRoughness": {
                "baseColorFactor": [
                    0.26274511218070984,
                    0.2823529541492462,
                    0.3019607961177826,
                    1.0
                ],
                "metallicFactor": 0.0
            }
        },
        {
            "doubleSided": true,
            "name": "0.917647_0.917647_0.917647_0.000000_0.000000",
            "pbrMetallicRoughness": {
                "baseColorFactor": [
                    0.9176470637321472,
                    0.9176470637321472,
                    0.9176470637321472,
                    1.0
                ],
                "metallicFactor": 0.0
            }
        },
        {
            "doubleSided": true,
            "name": "0.603922_0.647059_0.686275_0.000000_0.000000",
            "pbrMetallicRoughness": {
                "baseColorFactor": [
                    0.6039215922355652,
                    0.6470588445663452,
                    0.686274528503418,
                    1.0
                ],
                "metallicFactor": 0.0
            }
        },
        {
            "doubleSided": true,
            "name": "0.615686_0.811765_0.929412_0.000000_0.000000",
            "pbrMetallicRoughness": {
                "baseColorFactor": [
                    0.615686297416687,
                    0.8117647171020508,
                    0.929411768913269,
                    1.0
                ],
                "metallicFactor": 0.0
            }
        },
        {
            "doubleSided": true,
            "name": "0.768627_0.886275_0.952941_0.000000_0.000000",
            "pbrMetallicRoughness": {
                "baseColorFactor": [
                    0.7686274647712708,
                    0.886274516582489,
                    0.9529411792755127,
                    1.0
                ],
                "metallicFactor": 0.0
            }
        },
        {
            "doubleSided": true,
            "name": "0.972549_0.529412_0.003922_0.000000_0.000000",
            "pbrMetallicRoughness": {
                "baseColorFactor": [
                    0.9725490212440491,
                    0.529411792755127,
                    0.003921568859368563,
                    1.0
                ],
                "metallicFactor": 0.0
            }
        },
        {
            "doubleSided": true,
            "name": "0.498039_0.498039_0.498039_0.000000_0.000000",
            "pbrMetallicRoughness": {
                "baseColorFactor": [
                    0.49803921580314636,
                    0.49803921580314636,
                    0.49803921580314636,
                    1.0
                ],
                "metallicFactor": 0.0
            }
        },
        {
            "doubleSided": true,
            "name": "0.662745_0.376471_0.003922_0.000000_0.000000",
            "pbrMetallicRoughness": {
                "baseColorFactor": [
                    0.6627451181411743,
                    0.3764705955982208,
                    0.003921568859368563,
                    1.0
                ],
                "metallicFactor": 0.0
            }
        },
        {
            "doubleSided": true,
            "name": "0.349020_0.376471_0.400000_0.000000_0.000000",
            "pbrMetallicRoughness": {
                "baseColorFactor": [
                    0.3490196168422699,
                    0.3764705955982208,
                    0.4000000059604645,
                    1.0
                ],
                "metallicFactor": 0.0
            }
        },
        {
            "doubleSided": true,
            "name": "0.298039_0.298039_0.298039_0.000000_0.000000",
            "pbrMetallicRoughness": {
                "baseColorFactor": [
                    0.2980392277240753,
                    0.2980392277240753,
                    0.2980392277240753,
                    1.0
                ],
                "metallicFactor": 0.0
            }
        },
        {
            "doubleSided": true,
            "name": "0.231373_0.380392_0.705882_0.000000_0.000000",
            "pbrMetallicRoughness": {
                "baseColorFactor": [
                    0.23137255012989044,
                    0.3803921639919281,
                    0.7058823704719543,
                    1.0
                ],
                "metallicFactor": 0.0
            }
        },
        {
            "doubleSided": true,
            "name": "0.647059_0.647059_0.647059_0.000000_0.000000",
            "pbrMetallicRoughness": {
                "baseColorFactor": [
                    0.6470588445663452,
                    0.6470588445663452,
                    0.6470588445663452,
                    1.0
                ],
                "metallicFactor": 0.0
            }
        },
        {
            "doubleSided": true,
            "name": "0.980392_0.713725_0.003922_0.000000_0.000000",
            "pbrMetallicRoughness": {
                "baseColorFactor": [
                    0.9803921580314636,
                    0.7137255072593689,
                    0.003921568859368563,
                    1.0
                ],
                "metallicFactor": 0.0
            }
        },
        {
            "doubleSided": true,
            "name": "0.811765_0.858824_0.898039_0.000000_0.000000",
            "pbrMetallicRoughness": {
                "baseColorFactor": [
                    0.8117647171020508,
                    0.8588235378265381,
                    0.8980392217636108,
                    1.0
                ],
                "metallicFactor": 0.0
            }
        }
    ],
    "meshes": [
        {
            "name": "mesh12_mesh",
            "primitives": [
                {
                    "attributes": {
                        "NORMAL": 1,
                        "POSITION": 0
                    },
                    "indices": 2,
                    "material": 2
                }
            ]
        },
        {
            "name": "mesh13_mesh",
            "primitives": [
                {
                    "attributes": {
                        "NORMAL": 4,
                        "POSITION": 3
                    },
                    "indices": 5,
                    "material": 2
                }
            ]
        },
        {
            "name": "mesh14_mesh",
            "primitives": [
                {
                    "attributes": {
                        "NORMAL": 7,
                        "POSITION": 6
                    },
                    "indices": 8,
                    "material": 2
                }
            ]
        }
    ],
    "nodes": [
        {
            "mesh": 0,
            "name": "mesh12"
        },
        {
            "mesh": 1,
            "name": "mesh13"
        },
        {
            "mesh": 2,
            "name": "mesh14"
        }
    ],
    "scene": 0,
    "scenes": [
        {
            "name": "Root",
            "nodes": [
                0,
                1,
                2
            ]
        }
    ]
}