{
    "accessors": [
        {
            "bufferView": 0,
            "componentType": 5126,
            "count": 59,
            "max": [
                -0.07457625865936279,
                0.027495108544826508,
                -0.014999999664723873
            ],
            "min": [
                -0.077076256275177,
                0.024998774752020836,
                -0.014999999664723873
            ],
            "name": "mesh589_coord_accessor",
            "type": "VEC3"
        },
        {
            "bufferView": 1,
            "componentType": 5126,
            "count": 59,
            "max": [
                -0.0,
                -0.0,
                -1.0
            ],
            "min": [
                -0.0,
                -0.0,
                -1.0
            ],
            "name": "mesh589_norm_accessor",
            "type": "VEC3"
        },
        {
            "bufferView": 2,
            "componentType": 5125,
            "count": 174,
            "max": [
                58
            ],
            "min": [
                0
            ],
            "name": "mesh589_idx_accessor",
            "type": "SCALAR"
        },
        {
            "bufferView": 3,
            "componentType": 5126,
            "count": 117,
            "max": [
                -0.07457625865936279,
                0.02749694138765335,
                -0.014999999664723873
            ],
            "min": [
                -0.077076256275177,
                0.024998774752020836,
                -0.01549999974668026
            ],
            "name": "mesh590_coord_accessor",
            "type": "VEC3"
        },
        {
            "bufferView": 4,
            "componentType": 5126,
            "count": 117,
            "max": [
                1.0,
                0.9985334277153015,
                -0.0
            ],
            "min": [
                -1.0,
                -1.0,
                -0.0
            ],
            "name": "mesh590_norm_accessor",
            "type": "VEC3"
        },
        {
            "bufferView": 5,
            "componentType": 5125,
            "count": 351,
            "max": [
                116
            ],
            "min": [
                0
            ],
            "name": "mesh590_idx_accessor",
            "type": "SCALAR"
        },
        {
            "bufferView": 6,
            "componentType": 5126,
            "count": 668,
            "max": [
                -0.05316838249564171,
                0.03986385464668274,
                -0.01549999974668026
            ],
            "min": [
                -0.07856838405132294,
                0.014482480473816395,
                -0.01549999974668026
            ],
            "name": "mesh591_coord_accessor",
            "type": "VEC3"
        },
        {
            "bufferView": 7,
            "componentType": 5126,
            "count": 668,
            "max": [
                7.117822334825309e-17,
                1.3510906074623097e-16,
                -1.0
            ],
            "min": [
                7.117822334825309e-17,
                1.3510906074623097e-16,
                -1.0
            ],
            "name": "mesh591_norm_accessor",
            "type": "VEC3"
        },
        {
            "bufferView": 8,
            "componentType": 5125,
            "count": 2130,
            "max": [
                667
            ],
            "min": [
                0
            ],
            "name": "mesh591_idx_accessor",
            "type": "SCALAR"
        },
        {
            "bufferView": 9,
            "componentType": 5126,
            "count": 121,
            "max": [
                -0.06880325078964233,
                0.01933162473142147,
                -0.014999999664723873
            ],
            "min": [
                -0.07130324840545654,
                0.016833458095788956,
                -0.01549999974668026
            ],
            "name": "mesh592_coord_accessor",
            "type": "VEC3"
        },
        {
            "bufferView": 10,
            "componentType": 5126,
            "count": 121,
            "max": [
                1.0,
                0.9985334277153015,
                -0.0
            ],
            "min": [
                -1.0,
                -1.0,
                -0.0
            ],
            "name": "mesh592_norm_accessor",
            "type": "VEC3"
        },
        {
            "bufferView": 11,
            "componentType": 5125,
            "count": 363,
            "max": [
                120
            ],
            "min": [
                0
            ],
            "name": "mesh592_idx_accessor",
            "type": "SCALAR"
        },
        {
            "bufferView": 12,
            "componentType": 5126,
            "count": 59,
            "max": [
                -0.06880325078964233,
                0.019329791888594627,
                -0.014999999664723873
            ],
            "min": [
                -0.07130324840545654,
                0.016833458095788956,
                -0.014999999664723873
            ],
            "name": "mesh593_coord_accessor",
            "type": "VEC3"
        },
        {
            "bufferView": 13,
            "componentType": 5126,
            "count": 59,
            "max": [
                -0.0,
                -0.0,
                -1.0
            ],
            "min": [
                -0.0,
                -0.0,
                -1.0
            ],
            "name": "mesh593_norm_accessor",
            "type": "VEC3"
        },
        {
            "bufferView": 14,
            "componentType": 5125,
            "count": 174,
            "max": [
                58
            ],
            "min": [
                0
            ],
            "name": "mesh593_idx_accessor",
            "type": "SCALAR"
        },
        {
            "bufferView": 15,
            "componentType": 5126,
            "count": 121,
            "max": [
                -0.05884537473320961,
                0.020248539745807648,
                -0.014999999664723873
            ],
            "min": [
                -0.06134537607431412,
                0.017750373110175133,
                -0.01549999974668026
            ],
            "name": "mesh594_coord_accessor",
            "type": "VEC3"
        },
        {
            "bufferView": 16,
            "componentType": 5126,
            "count": 121,
            "max": [
                1.0,
                0.9985334277153015,
                -0.0
            ],
            "min": [
                -1.0,
                -1.0,
                -0.0
            ],
            "name": "mesh594_norm_accessor",
            "type": "VEC3"
        },
        {
            "bufferView": 17,
            "componentType": 5125,
            "count": 363,
            "max": [
                120
            ],
            "min": [
                0
            ],
            "name": "mesh594_idx_accessor",
            "type": "SCALAR"
        },
        {
            "bufferView": 18,
            "componentType": 5126,
            "count": 59,
            "max": [
                -0.05884537473320961,
                0.020246706902980804,
                -0.014999999664723873
            ],
            "min": [
                -0.06134537607431412,
                0.017750373110175133,
                -0.014999999664723873
            ],
            "name": "mesh595_coord_accessor",
            "type": "VEC3"
        },
        {
            "bufferView": 19,
            "componentType": 5126,
            "count": 59,
            "max": [
                -0.0,
                -0.0,
                -1.0
            ],
            "min": [
                -0.0,
                -0.0,
                -1.0
            ],
            "name": "mesh595_norm_accessor",
            "type": "VEC3"
        },
        {
            "bufferView": 20,
            "componentType": 5125,
            "count": 174,
            "max": [
                58
            ],
            "min": [
                0
            ],
            "name": "mesh595_idx_accessor",
            "type": "SCALAR"
        },
        {
            "bufferView": 21,
            "componentType": 5126,
            "count": 117,
            "max": [
                -0.05466051027178764,
                0.029330769553780556,
                -0.014999999664723873
            ],
            "min": [
                -0.05716050788760185,
                0.02683260291814804,
                -0.01549999974668026
            ],
            "name": "mesh596_coord_accessor",
            "type": "VEC3"
        },
        {
            "bufferView": 22,
            "componentType": 5126,
            "count": 117,
            "max": [
                1.0,
                0.9985334277153015,
                -0.0
            ],
            "min": [
                -1.0,
                -1.0,
                -0.0
            ],
            "name": "mesh596_norm_accessor",
            "type": "VEC3"
        },
        {
            "bufferView": 23,
            "componentType": 5125,
            "count": 351,
            "max": [
                116
            ],
            "min": [
                0
            ],
            "name": "mesh596_idx_accessor",
            "type": "SCALAR"
        },
        {
            "bufferView": 24,
            "componentType": 5126,
            "count": 59,
            "max": [
                -0.05466051027178764,
                0.029328936710953712,
                -0.014999999664723873
            ],
            "min": [
                -0.05716050788760185,
                0.02683260291814804,
                -0.014999999664723873
            ],
            "name": "mesh597_coord_accessor",
            "type": "VEC3"
        },
        {
            "bufferView": 25,
            "componentType": 5126,
            "count": 59,
            "max": [
                -0.0,
                -0.0,
                -1.0
            ],
            "min": [
                -0.0,
                -0.0,
                -1.0
            ],
            "name": "mesh597_norm_accessor",
            "type": "VEC3"
        },
        {
            "bufferView": 26,
            "componentType": 5125,
            "count": 174,
            "max": [
                58
            ],
            "min": [
                0
            ],
            "name": "mesh597_idx_accessor",
            "type": "SCALAR"
        },
        {
            "bufferView": 27,
            "componentType": 5126,
            "count": 119,
            "max": [
                -0.0604335181415081,
                0.037496086210012436,
                -0.014999999664723873
            ],
            "min": [
                -0.06293351948261261,
                0.03499791771173477,
                -0.01549999974668026
            ],
            "name": "mesh598_coord_accessor",
            "type": "VEC3"
        },
        {
            "bufferView": 28,
            "componentType": 5126,
            "count": 119,
            "max": [
                1.0,
                0.9985334277153015,
                -0.0
            ],
            "min": [
                -1.0,
                -1.0,
                -0.0
            ],
            "name": "mesh598_norm_accessor",
            "type": "VEC3"
        },
        {
            "bufferView": 29,
            "componentType": 5125,
            "count": 357,
            "max": [
                118
            ],
            "min": [
                0
            ],
            "name": "mesh598_idx_accessor",
            "type": "SCALAR"
        },
        {
            "bufferView": 30,
            "componentType": 5126,
            "count": 59,
            "max": [
                -0.0604335181415081,
                0.037494249641895294,
                -0.014999999664723873
            ],
            "min": [
                -0.06293351948261261,
                0.03499791771173477,
                -0.014999999664723873
            ],
            "name": "mesh599_coord_accessor",
            "type": "VEC3"
        },
        {
            "bufferView": 31,
            "componentType": 5126,
            "count": 59,
            "max": [
                -0.0,
                -0.0,
                -1.0
            ],
            "min": [
                -0.0,
                -0.0,
                -1.0
            ],
            "name": "mesh599_norm_accessor",
            "type": "VEC3"
        },
        {
            "bufferView": 32,
            "componentType": 5125,
            "count": 174,
            "max": [
                58
            ],
            "min": [
                0
            ],
            "name": "mesh599_idx_accessor",
            "type": "SCALAR"
        },
        {
            "bufferView": 33,
            "componentType": 5126,
            "count": 121,
            "max": [
                -0.06528529524803162,
                0.03862173110246658,
                -0.014999999664723873
            ],
            "min": [
                -0.06828530132770538,
                0.035623930394649506,
                -0.01549999974668026
            ],
            "name": "mesh600_coord_accessor",
            "type": "VEC3"
        },
        {
            "bufferView": 34,
            "componentType": 5126,
            "count": 121,
            "max": [
                1.0,
                0.9985334277153015,
                -0.0
            ],
            "min": [
                -1.0,
                -1.0,
                -0.0
            ],
            "name": "mesh600_norm_accessor",
            "type": "VEC3"
        },
        {
            "bufferView": 35,
            "componentType": 5125,
            "count": 363,
            "max": [
                120
            ],
            "min": [
                0
            ],
            "name": "mesh600_idx_accessor",
            "type": "SCALAR"
        },
        {
            "bufferView": 36,
            "componentType": 5126,
            "count": 59,
            "max": [
                -0.06528529524803162,
                0.03861952945590019,
                -0.014999999664723873
            ],
            "min": [
                -0.06828530132770538,
                0.035623930394649506,
                -0.014999999664723873
            ],
            "name": "mesh601_coord_accessor",
            "type": "VEC3"
        },
        {
            "bufferView": 37,
            "componentType": 5126,
            "count": 59,
            "max": [
                -0.0,
                -0.0,
                -1.0
            ],
            "min": [
                -0.0,
                -0.0,
                -1.0
            ],
            "name": "mesh601_norm_accessor",
            "type": "VEC3"
        },
        {
            "bufferView": 38,
            "componentType": 5125,
            "count": 174,
            "max": [
                58
            ],
            "min": [
                0
            ],
            "name": "mesh601_idx_accessor",
            "type": "SCALAR"
        },
        {
            "bufferView": 39,
            "componentType": 5126,
            "count": 119,
            "max": [
                -0.07039139419794083,
                0.03657916933298111,
                -0.014999999664723873
            ],
            "min": [
                -0.07289139181375504,
                0.034081004559993744,
                -0.01549999974668026
            ],
            "name": "mesh602_coord_accessor",
            "type": "VEC3"
        },
        {
            "bufferView": 40,
            "componentType": 5126,
            "count": 119,
            "max": [
                1.0,
                0.9985334277153015,
                -0.0
            ],
            "min": [
                -1.0,
                -1.0,
                -0.0
            ],
            "name": "mesh602_norm_accessor",
            "type": "VEC3"
        },
        {
            "bufferView": 41,
            "componentType": 5125,
            "count": 357,
            "max": [
                118
            ],
            "min": [
                0
            ],
            "name": "mesh602_idx_accessor",
            "type": "SCALAR"
        },
        {
            "bufferView": 42,
            "componentType": 5126,
            "count": 59,
            "max": [
                -0.07039139419794083,
                0.036577336490154266,
                -0.014999999664723873
            ],
            "min": [
                -0.07289139181375504,
                0.034081004559993744,
                -0.014999999664723873
            ],
            "name": "mesh603_coord_accessor",
            "type": "VEC3"
        },
        {
            "bufferView": 43,
            "componentType": 5126,
            "count": 59,
            "max": [
                -0.0,
                -0.0,
                -1.0
            ],
            "min": [
                -0.0,
                -0.0,
                -1.0
            ],
            "name": "mesh603_norm_accessor",
            "type": "VEC3"
        },
        {
            "bufferView": 44,
            "componentType": 5125,
            "count": 174,
            "max": [
                58
            ],
            "min": [
                0
            ],
            "name": "mesh603_idx_accessor",
            "type": "SCALAR"
        },
        {
            "bufferView": 45,
            "componentType": 5126,
            "count": 119,
            "max": [
                -0.06311731040477753,
                0.018742423504590988,
                -0.014999999664723873
            ],
            "min": [
                -0.0661173090338707,
                0.01574462279677391,
                -0.01549999974668026
            ],
            "name": "mesh604_coord_accessor",
            "type": "VEC3"
        },
        {
            "bufferView": 46,
            "componentType": 5126,
            "count": 119,
            "max": [
                1.0,
                0.9985334277153015,
                -0.0
            ],
            "min": [
                -1.0,
                -1.0,
                -0.0
            ],
            "name": "mesh604_norm_accessor",
            "type": "VEC3"
        },
        {
            "bufferView": 47,
            "componentType": 5125,
            "count": 357,
            "max": [
                118
            ],
            "min": [
                0
            ],
            "name": "mesh604_idx_accessor",
            "type": "SCALAR"
        },
        {
            "bufferView": 48,
            "componentType": 5126,
            "count": 59,
            "max": [
                -0.06311731040477753,
                0.018740223720669746,
                -0.014999999664723873
            ],
            "min": [
                -0.0661173090338707,
                0.01574462279677391,
                -0.014999999664723873
            ],
            "name": "mesh605_coord_accessor",
            "type": "VEC3"
        },
        {
            "bufferView": 49,
            "componentType": 5126,
            "count": 59,
            "max": [
                -0.0,
                -0.0,
                -1.0
            ],
            "min": [
                -0.0,
                -0.0,
                -1.0
            ],
            "name": "mesh605_norm_accessor",
            "type": "VEC3"
        },
        {
            "bufferView": 50,
            "componentType": 5125,
            "count": 174,
            "max": [
                58
            ],
            "min": [
                0
            ],
            "name": "mesh605_idx_accessor",
            "type": "SCALAR"
        },
        {
            "bufferView": 51,
            "componentType": 5126,
            "count": 127,
            "max": [
                -0.06136838346719742,
                0.03166385367512703,
                -0.014999999664723873
            ],
            "min": [
                -0.07036838680505753,
                0.022670455276966095,
                -0.01549999974668026
            ],
            "name": "mesh606_coord_accessor",
            "type": "VEC3"
        },
        {
            "bufferView": 52,
            "componentType": 5126,
            "count": 127,
            "max": [
                1.0,
                0.9985334277153015,
                -0.0
            ],
            "min": [
                -1.0,
                -1.0,
                -0.0
            ],
            "name": "mesh606_norm_accessor",
            "type": "VEC3"
        },
        {
            "bufferView": 53,
            "componentType": 5125,
            "count": 381,
            "max": [
                126
            ],
            "min": [
                0
            ],
            "name": "mesh606_idx_accessor",
            "type": "SCALAR"
        },
        {
            "bufferView": 54,
            "componentType": 5126,
            "count": 59,
            "max": [
                -0.06136838346719742,
                0.03165725618600845,
                -0.014999999664723873
            ],
            "min": [
                -0.07036838680505753,
                0.022670455276966095,
                -0.014999999664723873
            ],
            "name": "mesh607_coord_accessor",
            "type": "VEC3"
        },
        {
            "bufferView": 55,
            "componentType": 5126,
            "count": 59,
            "max": [
                -0.0,
                -0.0,
                -1.0
            ],
            "min": [
                -0.0,
                -0.0,
                -1.0
            ],
            "name": "mesh607_norm_accessor",
            "type": "VEC3"
        },
        {
            "bufferView": 56,
            "componentType": 5125,
            "count": 174,
            "max": [
                58
            ],
            "min": [
                0
            ],
            "name": "mesh607_idx_accessor",
            "type": "SCALAR"
        },
        {
            "bufferView": 57,
            "componentType": 5126,
            "count": 141,
            "max": [
                -0.05316838249564171,
                0.03986385464668274,
                -0.014999999664723873
            ],
            "min": [
                -0.07856838405132294,
                0.014482480473816395,
                -0.01549999974668026
            ],
            "name": "mesh608_coord_accessor",
            "type": "VEC3"
        },
        {
            "bufferView": 58,
            "componentType": 5126,
            "count": 141,
            "max": [
                1.0,
                1.0,
                0.0
            ],
            "min": [
                -1.0,
                -0.999910295009613,
                0.0
            ],
            "name": "mesh608_norm_accessor",
            "type": "VEC3"
        },
        {
            "bufferView": 59,
            "componentType": 5125,
            "count": 423,
            "max": [
                140
            ],
            "min": [
                0
            ],
            "name": "mesh608_idx_accessor",
            "type": "SCALAR"
        },
        {
            "bufferView": 60,
            "componentType": 5126,
            "count": 116,
            "max": [
                -0.041368383914232254,
                0.05162792280316353,
                -0.014999999664723873
            ],
            "min": [
                -0.09036838263273239,
                0.002699786564335227,
                -0.014999999664723873
            ],
            "name": "mesh609_coord_accessor",
            "type": "VEC3"
        },
        {
            "bufferView": 61,
            "componentType": 5126,
            "count": 116,
            "max": [
                -0.0,
                -0.0,
                -1.0
            ],
            "min": [
                -0.0,
                -0.0,
                -1.0
            ],
            "name": "mesh609_norm_accessor",
            "type": "VEC3"
        },
        {
            "bufferView": 62,
            "componentType": 5125,
            "count": 348,
            "max": [
                115
            ],
            "min": [
                0
            ],
            "name": "mesh609_idx_accessor",
            "type": "SCALAR"
        },
        {
            "bufferView": 63,
            "componentType": 5126,
            "count": 124,
            "max": [
                -0.041368383914232254,
                0.05162792280316353,
                -0.014000000432133675
            ],
            "min": [
                -0.09036838263273239,
                0.002699786564335227,
                -0.014999999664723873
            ],
            "name": "mesh610_coord_accessor",
            "type": "VEC3"
        },
        {
            "bufferView": 64,
            "componentType": 5126,
            "count": 124,
            "max": [
                1.0,
                1.0,
                9.430054197729078e-17
            ],
            "min": [
                -1.0,
                -1.0,
                -9.735692801855991e-17
            ],
            "name": "mesh610_norm_accessor",
            "type": "VEC3"
        },
        {
            "bufferView": 65,
            "componentType": 5125,
            "count": 372,
            "max": [
                123
            ],
            "min": [
                0
            ],
            "name": "mesh610_idx_accessor",
            "type": "SCALAR"
        },
        {
            "bufferView": 66,
            "componentType": 5126,
            "count": 519,
            "max": [
                -0.026368383318185806,
                0.06660592555999756,
                -0.014000000432133675
            ],
            "min": [
                -0.10536838322877884,
                -0.012278215028345585,
                -0.014000000432133675
            ],
            "name": "mesh611_coord_accessor",
            "type": "VEC3"
        },
        {
            "bufferView": 67,
            "componentType": 5126,
            "count": 519,
            "max": [
                7.636311715918857e-17,
                -5.536982907796437e-17,
                -1.0
            ],
            "min": [
                7.636311715918857e-17,
                -5.536982907796437e-17,
                -1.0
            ],
            "name": "mesh611_norm_accessor",
            "type": "VEC3"
        },
        {
            "bufferView": 68,
            "componentType": 5125,
            "count": 1644,
            "max": [
                518
            ],
            "min": [
                0
            ],
            "name": "mesh611_idx_accessor",
            "type": "SCALAR"
        },
        {
            "bufferView": 69,
            "componentType": 5126,
            "count": 117,
            "max": [
                -0.049474216997623444,
                -0.002028973773121834,
                0.01549999974668026
            ],
            "min": [
                -0.05197421833872795,
                -0.004527140408754349,
                -0.014000000432133675
            ],
            "name": "mesh612_coord_accessor",
            "type": "VEC3"
        },
        {
            "bufferView": 70,
            "componentType": 5126,
            "count": 117,
            "max": [
                1.0,
                1.0,
                9.430054197729078e-17
            ],
            "min": [
                -1.0,
                -0.9985334277153015,
                -9.430054197729078e-17
            ],
            "name": "mesh612_norm_accessor",
            "type": "VEC3"
        },
        {
            "bufferView": 71,
            "componentType": 5125,
            "count": 351,
            "max": [
                116
            ],
            "min": [
                0
            ],
            "name": "mesh612_idx_accessor",
            "type": "SCALAR"
        },
        {
            "bufferView": 72,
            "componentType": 5126,
            "count": 156,
            "max": [
                -0.026368383318185806,
                0.06660592555999756,
                0.01549999974668026
            ],
            "min": [
                -0.10536838322877884,
                -0.012278215028345585,
                -0.014000000432133675
            ],
            "name": "mesh613_coord_accessor",
            "type": "VEC3"
        },
        {
            "bufferView": 73,
            "componentType": 5126,
            "count": 156,
            "max": [
                1.0,
                1.0,
                9.430054197729078e-17
            ],
            "min": [
                -1.0,
                -1.0,
                -9.430054197729078e-17
            ],
            "name": "mesh613_norm_accessor",
            "type": "VEC3"
        },
        {
            "bufferView": 74,
            "componentType": 5125,
            "count": 468,
            "max": [
                155
            ],
            "min": [
                0
            ],
            "name": "mesh613_idx_accessor",
            "type": "SCALAR"
        },
        {
            "bufferView": 75,
            "componentType": 5126,
            "count": 119,
            "max": [
                -0.08340897411108017,
                7.629104220541194e-05,
                0.01549999974668026
            ],
            "min": [
                -0.08590897917747498,
                -0.0024218757171183825,
                -0.014000000432133675
            ],
            "name": "mesh614_coord_accessor",
            "type": "VEC3"
        },
        {
            "bufferView": 76,
            "componentType": 5126,
            "count": 119,
            "max": [
                1.0,
                1.0,
                9.430054197729078e-17
            ],
            "min": [
                -1.0,
                -0.9985334277153015,
                -9.430054197729078e-17
            ],
            "name": "mesh614_norm_accessor",
            "type": "VEC3"
        },
        {
            "bufferView": 77,
            "componentType": 5125,
            "count": 357,
            "max": [
                118
            ],
            "min": [
                0
            ],
            "name": "mesh614_idx_accessor",
            "type": "SCALAR"
        },
        {
            "bufferView": 78,
            "componentType": 5126,
            "count": 119,
            "max": [
                -0.0797625482082367,
                0.058853019028902054,
                0.01549999974668026
            ],
            "min": [
                -0.0822625532746315,
                0.05635485053062439,
                -0.014000000432133675
            ],
            "name": "mesh615_coord_accessor",
            "type": "VEC3"
        },
        {
            "bufferView": 79,
            "componentType": 5126,
            "count": 119,
            "max": [
                1.0,
                1.0,
                9.430054197729078e-17
            ],
            "min": [
                -1.0,
                -0.9985334277153015,
                -9.430054197729078e-17
            ],
            "name": "mesh615_norm_accessor",
            "type": "VEC3"
        },
        {
            "bufferView": 80,
            "componentType": 5125,
            "count": 357,
            "max": [
                118
            ],
            "min": [
                0
            ],
            "name": "mesh615_idx_accessor",
            "type": "SCALAR"
        },
        {
            "bufferView": 81,
            "componentType": 5126,
            "count": 117,
            "max": [
                -0.030683625489473343,
                0.0263067577034235,
                0.01549999974668026
            ],
            "min": [
                -0.03318362310528755,
                0.023808591067790985,
                -0.014000000432133675
            ],
            "name": "mesh616_coord_accessor",
            "type": "VEC3"
        },
        {
            "bufferView": 82,
            "componentType": 5126,
            "count": 117,
            "max": [
                1.0,
                1.0,
                9.430054197729078e-17
            ],
            "min": [
                -1.0,
                -0.9985334277153015,
                -9.430054197729078e-17
            ],
            "name": "mesh616_norm_accessor",
            "type": "VEC3"
        },
        {
            "bufferView": 83,
            "componentType": 5125,
            "count": 351,
            "max": [
                116
            ],
            "min": [
                0
            ],
            "name": "mesh616_idx_accessor",
            "type": "SCALAR"
        },
        {
            "bufferView": 84,
            "componentType": 5126,
            "count": 117,
            "max": [
                -0.04582779109477997,
                0.05674775317311287,
                0.01549999974668026
            ],
            "min": [
                -0.048327792435884476,
                0.054249584674835205,
                -0.014000000432133675
            ],
            "name": "mesh617_coord_accessor",
            "type": "VEC3"
        },
        {
            "bufferView": 85,
            "componentType": 5126,
            "count": 117,
            "max": [
                1.0,
                1.0,
                9.430054197729078e-17
            ],
            "min": [
                -1.0,
                -0.9985334277153015,
                -9.430054197729078e-17
            ],
            "name": "mesh617_norm_accessor",
            "type": "VEC3"
        },
        {
            "bufferView": 86,
            "componentType": 5125,
            "count": 351,
            "max": [
                116
            ],
            "min": [
                0
            ],
            "name": "mesh617_idx_accessor",
            "type": "SCALAR"
        },
        {
            "bufferView": 87,
            "componentType": 5126,
            "count": 117,
            "max": [
                -0.0985531434416771,
                0.03051728755235672,
                0.01549999974668026
            ],
            "min": [
                -0.1010531410574913,
                0.028019119054079056,
                -0.014000000432133675
            ],
            "name": "mesh618_coord_accessor",
            "type": "VEC3"
        },
        {
            "bufferView": 88,
            "componentType": 5126,
            "count": 117,
            "max": [
                1.0,
                1.0,
                9.430054197729078e-17
            ],
            "min": [
                -1.0,
                -0.9985334277153015,
                -9.430054197729078e-17
            ],
            "name": "mesh618_norm_accessor",
            "type": "VEC3"
        },
        {
            "bufferView": 89,
            "componentType": 5125,
            "count": 351,
            "max": [
                116
            ],
            "min": [
                0
            ],
            "name": "mesh618_idx_accessor",
            "type": "SCALAR"
        },
        {
            "bufferView": 90,
            "componentType": 5126,
            "count": 497,
            "max": [
                -0.026368383318185806,
                0.06660592555999756,
                0.01549999974668026
            ],
            "min": [
                -0.10536838322877884,
                -0.012278215028345585,
                0.01549999974668026
            ],
            "name": "mesh619_coord_accessor",
            "type": "VEC3"
        },
        {
            "bufferView": 91,
            "componentType": 5126,
            "count": 497,
            "max": [
                -3.9286721508801885e-17,
                -1.1267608631555415e-17,
                1.0
            ],
            "min": [
                -3.9286721508801885e-17,
                -1.1267608631555415e-17,
                1.0
            ],
            "name": "mesh619_norm_accessor",
            "type": "VEC3"
        },
        {
            "bufferView": 92,
            "componentType": 5125,
            "count": 1551,
            "max": [
                496
            ],
            "min": [
                0
            ],
            "name": "mesh619_idx_accessor",
            "type": "SCALAR"
        },
        {
            "bufferView": 93,
            "componentType": 5126,
            "count": 6,
            "max": [
                -0.05682620406150818,
                0.0036395182833075523,
                0.027499999850988388
            ],
            "min": [
                -0.0819573700428009,
                0.00013629498425871134,
                0.01549999974668026
            ],
            "name": "mesh620_coord_accessor",
            "type": "VEC3"
        },
        {
            "bufferView": 94,
            "componentType": 5126,
            "count": 6,
            "max": [
                -0.13806261122226715,
                -0.9904235005378723,
                -1.65837321651306e-17
            ],
            "min": [
                -0.13806261122226715,
                -0.9904235005378723,
                -1.65837321651306e-17
            ],
            "name": "mesh620_norm_accessor",
            "type": "VEC3"
        },
        {
            "bufferView": 95,
            "componentType": 5125,
            "count": 12,
            "max": [
                5
            ],
            "min": [
                0
            ],
            "name": "mesh620_idx_accessor",
            "type": "SCALAR"
        },
        {
            "bufferView": 96,
            "componentType": 5126,
            "count": 112,
            "max": [
                -0.03738957643508911,
                0.05564989894628525,
                0.027499999850988388
            ],
            "min": [
                -0.0943678617477417,
                0.00013629498425871134,
                0.01549999974668026
            ],
            "name": "mesh621_coord_accessor",
            "type": "VEC3"
        },
        {
            "bufferView": 97,
            "componentType": 5126,
            "count": 112,
            "max": [
                0.9992563724517822,
                0.9995103478431702,
                6.08674898046735e-17
            ],
            "min": [
                -0.999981701374054,
                -0.9483354687690735,
                -6.08674898046735e-17
            ],
            "name": "mesh621_norm_accessor",
            "type": "VEC3"
        },
        {
            "bufferView": 98,
            "componentType": 5125,
            "count": 330,
            "max": [
                111
            ],
            "min": [
                0
            ],
            "name": "mesh621_idx_accessor",
            "type": "SCALAR"
        },
        {
            "bufferView": 99,
            "componentType": 5126,
            "count": 51,
            "max": [
                -0.03738957643508911,
                0.05564989894628525,
                0.027499999850988388
            ],
            "min": [
                -0.0943678617477417,
                0.00013629498425871134,
                0.027499999850988388
            ],
            "name": "mesh622_coord_accessor",
            "type": "VEC3"
        },
        {
            "bufferView": 100,
            "componentType": 5126,
            "count": 51,
            "max": [
                6.228460115443863e-19,
                -2.4567115300314662e-18,
                1.0
            ],
            "min": [
                6.228460115443863e-19,
                -2.4567115300314662e-18,
                1.0
            ],
            "name": "mesh622_norm_accessor",
            "type": "VEC3"
        },
        {
            "bufferView": 101,
            "componentType": 5125,
            "count": 147,
            "max": [
                50
            ],
            "min": [
                0
            ],
            "name": "mesh622_idx_accessor",
            "type": "SCALAR"
        }
    ],
    "asset": {
        "generator": "ONSHAPE BY PTC INC, 1.221",
        "version": "2.0"
    },
    "bufferViews": [
        {
            "buffer": 0,
            "byteLength": 708,
            "name": "mesh589_coord_bufferView",
            "target": 34962
        },
        {
            "buffer": 0,
            "byteLength": 708,
            "byteOffset": 708,
            "name": "mesh589_norm_bufferView",
            "target": 34962
        },
        {
            "buffer": 0,
            "byteLength": 696,
            "byteOffset": 1416,
            "name": "mesh589_idx_bufferView",
            "target": 34963
        },
        {
            "buffer": 0,
            "byteLength": 1404,
            "byteOffset": 2112,
            "name": "mesh590_coord_bufferView",
            "target": 34962
        },
        {
            "buffer": 0,
            "byteLength": 1404,
            "byteOffset": 3516,
            "name": "mesh590_norm_bufferView",
            "target": 34962
        },
        {
            "buffer": 0,
            "byteLength": 1404,
            "byteOffset": 4920,
            "name": "mesh590_idx_bufferView",
            "target": 34963
        },
        {
            "buffer": 0,
            "byteLength": 8016,
            "byteOffset": 6324,
            "name": "mesh591_coord_bufferView",
            "target": 34962
        },
        {
            "buffer": 0,
            "byteLength": 8016,
            "byteOffset": 14340,
            "name": "mesh591_norm_bufferView",
            "target": 34962
        },
        {
            "buffer": 0,
            "byteLength": 8520,
            "byteOffset": 22356,
            "name": "mesh591_idx_bufferView",
            "target": 34963
        },
        {
            "buffer": 0,
            "byteLength": 1452,
            "byteOffset": 30876,
            "name": "mesh592_coord_bufferView",
            "target": 34962
        },
        {
            "buffer": 0,
            "byteLength": 1452,
            "byteOffset": 32328,
            "name": "mesh592_norm_bufferView",
            "target": 34962
        },
        {
            "buffer": 0,
            "byteLength": 1452,
            "byteOffset": 33780,
            "name": "mesh592_idx_bufferView",
            "target": 34963
        },
        {
            "buffer": 0,
            "byteLength": 708,
            "byteOffset": 35232,
            "name": "mesh593_coord_bufferView",
            "target": 34962
        },
        {
            "buffer": 0,
            "byteLength": 708,
            "byteOffset": 35940,
            "name": "mesh593_norm_bufferView",
            "target": 34962
        },
        {
            "buffer": 0,
            "byteLength": 696,
            "byteOffset": 36648,
            "name": "mesh593_idx_bufferView",
            "target": 34963
        },
        {
            "buffer": 0,
            "byteLength": 1452,
            "byteOffset": 37344,
            "name": "mesh594_coord_bufferView",
            "target": 34962
        },
        {
            "buffer": 0,
            "byteLength": 1452,
            "byteOffset": 38796,
            "name": "mesh594_norm_bufferView",
            "target": 34962
        },
        {
            "buffer": 0,
            "byteLength": 1452,
            "byteOffset": 40248,
            "name": "mesh594_idx_bufferView",
            "target": 34963
        },
        {
            "buffer": 0,
            "byteLength": 708,
            "byteOffset": 41700,
            "name": "mesh595_coord_bufferView",
            "target": 34962
        },
        {
            "buffer": 0,
            "byteLength": 708,
            "byteOffset": 42408,
            "name": "mesh595_norm_bufferView",
            "target": 34962
        },
        {
            "buffer": 0,
            "byteLength": 696,
            "byteOffset": 43116,
            "name": "mesh595_idx_bufferView",
            "target": 34963
        },
        {
            "buffer": 0,
            "byteLength": 1404,
            "byteOffset": 43812,
            "name": "mesh596_coord_bufferView",
            "target": 34962
        },
        {
            "buffer": 0,
            "byteLength": 1404,
            "byteOffset": 45216,
            "name": "mesh596_norm_bufferView",
            "target": 34962
        },
        {
            "buffer": 0,
            "byteLength": 1404,
            "byteOffset": 46620,
            "name": "mesh596_idx_bufferView",
            "target": 34963
        },
        {
            "buffer": 0,
            "byteLength": 708,
            "byteOffset": 48024,
            "name": "mesh597_coord_bufferView",
            "target": 34962
        },
        {
            "buffer": 0,
            "byteLength": 708,
            "byteOffset": 48732,
            "name": "mesh597_norm_bufferView",
            "target": 34962
        },
        {
            "buffer": 0,
            "byteLength": 696,
            "byteOffset": 49440,
            "name": "mesh597_idx_bufferView",
            "target": 34963
        },
        {
            "buffer": 0,
            "byteLength": 1428,
            "byteOffset": 50136,
            "name": "mesh598_coord_bufferView",
            "target": 34962
        },
        {
            "buffer": 0,
            "byteLength": 1428,
            "byteOffset": 51564,
            "name": "mesh598_norm_bufferView",
            "target": 34962
        },
        {
            "buffer": 0,
            "byteLength": 1428,
            "byteOffset": 52992,
            "name": "mesh598_idx_bufferView",
            "target": 34963
        },
        {
            "buffer": 0,
            "byteLength": 708,
            "byteOffset": 54420,
            "name": "mesh599_coord_bufferView",
            "target": 34962
        },
        {
            "buffer": 0,
            "byteLength": 708,
            "byteOffset": 55128,
            "name": "mesh599_norm_bufferView",
            "target": 34962
        },
        {
            "buffer": 0,
            "byteLength": 696,
            "byteOffset": 55836,
            "name": "mesh599_idx_bufferView",
            "target": 34963
        },
        {
            "buffer": 0,
            "byteLength": 1452,
            "byteOffset": 56532,
            "name": "mesh600_coord_bufferView",
            "target": 34962
        },
        {
            "buffer": 0,
            "byteLength": 1452,
            "byteOffset": 57984,
            "name": "mesh600_norm_bufferView",
            "target": 34962
        },
        {
            "buffer": 0,
            "byteLength": 1452,
            "byteOffset": 59436,
            "name": "mesh600_idx_bufferView",
            "target": 34963
        },
        {
            "buffer": 0,
            "byteLength": 708,
            "byteOffset": 60888,
            "name": "mesh601_coord_bufferView",
            "target": 34962
        },
        {
            "buffer": 0,
            "byteLength": 708,
            "byteOffset": 61596,
            "name": "mesh601_norm_bufferView",
            "target": 34962
        },
        {
            "buffer": 0,
            "byteLength": 696,
            "byteOffset": 62304,
            "name": "mesh601_idx_bufferView",
            "target": 34963
        },
        {
            "buffer": 0,
            "byteLength": 1428,
            "byteOffset": 63000,
            "name": "mesh602_coord_bufferView",
            "target": 34962
        },
        {
            "buffer": 0,
            "byteLength": 1428,
            "byteOffset": 64428,
            "name": "mesh602_norm_bufferView",
            "target": 34962
        },
        {
            "buffer": 0,
            "byteLength": 1428,
            "byteOffset": 65856,
            "name": "mesh602_idx_bufferView",
            "target": 34963
        },
        {
            "buffer": 0,
            "byteLength": 708,
            "byteOffset": 67284,
            "name": "mesh603_coord_bufferView",
            "target": 34962
        },
        {
            "buffer": 0,
            "byteLength": 708,
            "byteOffset": 67992,
            "name": "mesh603_norm_bufferView",
            "target": 34962
        },
        {
            "buffer": 0,
            "byteLength": 696,
            "byteOffset": 68700,
            "name": "mesh603_idx_bufferView",
            "target": 34963
        },
        {
            "buffer": 0,
            "byteLength": 1428,
            "byteOffset": 69396,
            "name": "mesh604_coord_bufferView",
            "target": 34962
        },
        {
            "buffer": 0,
            "byteLength": 1428,
            "byteOffset": 70824,
            "name": "mesh604_norm_bufferView",
            "target": 34962
        },
        {
            "buffer": 0,
            "byteLength": 1428,
            "byteOffset": 72252,
            "name": "mesh604_idx_bufferView",
            "target": 34963
        },
        {
            "buffer": 0,
            "byteLength": 708,
            "byteOffset": 73680,
            "name": "mesh605_coord_bufferView",
            "target": 34962
        },
        {
            "buffer": 0,
            "byteLength": 708,
            "byteOffset": 74388,
            "name": "mesh605_norm_bufferView",
            "target": 34962
        },
        {
            "buffer": 0,
            "byteLength": 696,
            "byteOffset": 75096,
            "name": "mesh605_idx_bufferView",
            "target": 34963
        },
        {
            "buffer": 0,
            "byteLength": 1524,
            "byteOffset": 75792,
            "name": "mesh606_coord_bufferView",
            "target": 34962
        },
        {
            "buffer": 0,
            "byteLength": 1524,
            "byteOffset": 77316,
            "name": "mesh606_norm_bufferView",
            "target": 34962
        },
        {
            "buffer": 0,
            "byteLength": 1524,
            "byteOffset": 78840,
            "name": "mesh606_idx_bufferView",
            "target": 34963
        },
        {
            "buffer": 0,
            "byteLength": 708,
            "byteOffset": 80364,
            "name": "mesh607_coord_bufferView",
            "target": 34962
        },
        {
            "buffer": 0,
            "byteLength": 708,
            "byteOffset": 81072,
            "name": "mesh607_norm_bufferView",
            "target": 34962
        },
        {
            "buffer": 0,
            "byteLength": 696,
            "byteOffset": 81780,
            "name": "mesh607_idx_bufferView",
            "target": 34963
        },
        {
            "buffer": 0,
            "byteLength": 1692,
            "byteOffset": 82476,
            "name": "mesh608_coord_bufferView",
            "target": 34962
        },
        {
            "buffer": 0,
            "byteLength": 1692,
            "byteOffset": 84168,
            "name": "mesh608_norm_bufferView",
            "target": 34962
        },
        {
            "buffer": 0,
            "byteLength": 1692,
            "byteOffset": 85860,
            "name": "mesh608_idx_bufferView",
            "target": 34963
        },
        {
            "buffer": 0,
            "byteLength": 1392,
            "byteOffset": 87552,
            "name": "mesh609_coord_bufferView",
            "target": 34962
        },
        {
            "buffer": 0,
            "byteLength": 1392,
            "byteOffset": 88944,
            "name": "mesh609_norm_bufferView",
            "target": 34962
        },
        {
            "buffer": 0,
            "byteLength": 1392,
            "byteOffset": 90336,
            "name": "mesh609_idx_bufferView",
            "target": 34963
        },
        {
            "buffer": 0,
            "byteLength": 1488,
            "byteOffset": 91728,
            "name": "mesh610_coord_bufferView",
            "target": 34962
        },
        {
            "buffer": 0,
            "byteLength": 1488,
            "byteOffset": 93216,
            "name": "mesh610_norm_bufferView",
            "target": 34962
        },
        {
            "buffer": 0,
            "byteLength": 1488,
            "byteOffset": 94704,
            "name": "mesh610_idx_bufferView",
            "target": 34963
        },
        {
            "buffer": 0,
            "byteLength": 6228,
            "byteOffset": 96192,
            "name": "mesh611_coord_bufferView",
            "target": 34962
        },
        {
            "buffer": 0,
            "byteLength": 6228,
            "byteOffset": 102420,
            "name": "mesh611_norm_bufferView",
            "target": 34962
        },
        {
            "buffer": 0,
            "byteLength": 6576,
            "byteOffset": 108648,
            "name": "mesh611_idx_bufferView",
            "target": 34963
        },
        {
            "buffer": 0,
            "byteLength": 1404,
            "byteOffset": 115224,
            "name": "mesh612_coord_bufferView",
            "target": 34962
        },
        {
            "buffer": 0,
            "byteLength": 1404,
            "byteOffset": 116628,
            "name": "mesh612_norm_bufferView",
            "target": 34962
        },
        {
            "buffer": 0,
            "byteLength": 1404,
            "byteOffset": 118032,
            "name": "mesh612_idx_bufferView",
            "target": 34963
        },
        {
            "buffer": 0,
            "byteLength": 1872,
            "byteOffset": 119436,
            "name": "mesh613_coord_bufferView",
            "target": 34962
        },
        {
            "buffer": 0,
            "byteLength": 1872,
            "byteOffset": 121308,
            "name": "mesh613_norm_bufferView",
            "target": 34962
        },
        {
            "buffer": 0,
            "byteLength": 1872,
            "byteOffset": 123180,
            "name": "mesh613_idx_bufferView",
            "target": 34963
        },
        {
            "buffer": 0,
            "byteLength": 1428,
            "byteOffset": 125052,
            "name": "mesh614_coord_bufferView",
            "target": 34962
        },
        {
            "buffer": 0,
            "byteLength": 1428,
            "byteOffset": 126480,
            "name": "mesh614_norm_bufferView",
            "target": 34962
        },
        {
            "buffer": 0,
            "byteLength": 1428,
            "byteOffset": 127908,
            "name": "mesh614_idx_bufferView",
            "target": 34963
        },
        {
            "buffer": 0,
            "byteLength": 1428,
            "byteOffset": 129336,
            "name": "mesh615_coord_bufferView",
            "target": 34962
        },
        {
            "buffer": 0,
            "byteLength": 1428,
            "byteOffset": 130764,
            "name": "mesh615_norm_bufferView",
            "target": 34962
        },
        {
            "buffer": 0,
            "byteLength": 1428,
            "byteOffset": 132192,
            "name": "mesh615_idx_bufferView",
            "target": 34963
        },
        {
            "buffer": 0,
            "byteLength": 1404,
            "byteOffset": 133620,
            "name": "mesh616_coord_bufferView",
            "target": 34962
        },
        {
            "buffer": 0,
            "byteLength": 1404,
            "byteOffset": 135024,
            "name": "mesh616_norm_bufferView",
            "target": 34962
        },
        {
            "buffer": 0,
            "byteLength": 1404,
            "byteOffset": 136428,
            "name": "mesh616_idx_bufferView",
            "target": 34963
        },
        {
            "buffer": 0,
            "byteLength": 1404,
            "byteOffset": 137832,
            "name": "mesh617_coord_bufferView",
            "target": 34962
        },
        {
            "buffer": 0,
            "byteLength": 1404,
            "byteOffset": 139236,
            "name": "mesh617_norm_bufferView",
            "target": 34962
        },
        {
            "buffer": 0,
            "byteLength": 1404,
            "byteOffset": 140640,
            "name": "mesh617_idx_bufferView",
            "target": 34963
        },
        {
            "buffer": 0,
            "byteLength": 1404,
            "byteOffset": 142044,
            "name": "mesh618_coord_bufferView",
            "target": 34962
        },
        {
            "buffer": 0,
            "byteLength": 1404,
            "byteOffset": 143448,
            "name": "mesh618_norm_bufferView",
            "target": 34962
        },
        {
            "buffer": 0,
            "byteLength": 1404,
            "byteOffset": 144852,
            "name": "mesh618_idx_bufferView",
            "target": 34963
        },
        {
            "buffer": 0,
            "byteLength": 5964,
            "byteOffset": 146256,
            "name": "mesh619_coord_bufferView",
            "target": 34962
        },
        {
            "buffer": 0,
            "byteLength": 5964,
            "byteOffset": 152220,
            "name": "mesh619_norm_bufferView",
            "target": 34962
        },
        {
            "buffer": 0,
            "byteLength": 6204,
            "byteOffset": 158184,
            "name": "mesh619_idx_bufferView",
            "target": 34963
        },
        {
            "buffer": 0,
            "byteLength": 72,
            "byteOffset": 164388,
            "name": "mesh620_coord_bufferView",
            "target": 34962
        },
        {
            "buffer": 0,
            "byteLength": 72,
            "byteOffset": 164460,
            "name": "mesh620_norm_bufferView",
            "target": 34962
        },
        {
            "buffer": 0,
            "byteLength": 48,
            "byteOffset": 164532,
            "name": "mesh620_idx_bufferView",
            "target": 34963
        },
        {
            "buffer": 0,
            "byteLength": 1344,
            "byteOffset": 164580,
            "name": "mesh621_coord_bufferView",
            "target": 34962
        },
        {
            "buffer": 0,
            "byteLength": 1344,
            "byteOffset": 165924,
            "name": "mesh621_norm_bufferView",
            "target": 34962
        },
        {
            "buffer": 0,
            "byteLength": 1320,
            "byteOffset": 167268,
            "name": "mesh621_idx_bufferView",
            "target": 34963
        },
        {
            "buffer": 0,
            "byteLength": 612,
            "byteOffset": 168588,
            "name": "mesh622_coord_bufferView",
            "target": 34962
        },
        {
            "buffer": 0,
            "byteLength": 612,
            "byteOffset": 169200,
            "name": "mesh622_norm_bufferView",
            "target": 34962
        },
        {
            "buffer": 0,
            "byteLength": 588,
            "byteOffset": 169812,
            "name": "mesh622_idx_bufferView",
            "target": 34963
        }
    ],
    "buffers": [
        {
            "byteLength": 170400,
            "name": "Total_buffer",
            "uri": "data:application/octet-stream;base64,"
        }
    ],
    "extensionsUsed": [
        "PTC_onshape_metadata"
    ],
    "materials": [
        {
            "doubleSided": true,
            "name": "0.713725_0.760784_0.800000_0.000000_0.000000",
            "pbrMetallicRoughness": {
                "baseColorFactor": [
                    0.7137255072593689,
                    0.7607843279838562,
                    0.800000011920929,
                    1.0
                ],
                "metallicFactor": 0.0
            }
        },
        {
            "doubleSided": true,
            "name": "0.262745_0.282353_0.301961_0.000000_0.000000",
            "pbrMetallicRoughness": {
                "baseColorFactor": [
                    0.26274511218070984,
                    0.2823529541492462,
                    0.3019607961177826,
                    1.0
                ],
                "metallicFactor": 0.0
            }
        },
        {
            "doubleSided": true,
            "name": "0.917647_0.917647_0.917647_0.000000_0.000000",
            "pbrMetallicRoughness": {
                "baseColorFactor": [
                    0.9176470637321472,
                    0.9176470637321472,
                    0.9176470637321472,
                    1.0
                ],
                "metallicFactor": 0.0
            }
        },
        {
            "doubleSided": true,
            "name": "0.603922_0.647059_0.686275_0.000000_0.000000",
            "pbrMetallicRoughness": {
                "baseColorFactor": [
                    0.6039215922355652,
                    0.6470588445663452,
                    0.686274528503418,
                    1.0
                ],
                "metallicFactor": 0.0
            }
        },
        {
            "doubleSided": true,
            "name": "0.615686_0.811765_0.929412_0.000000_0.000000",
            "pbrMetallicRoughness": {
                "baseColorFactor": [
                    0.615686297416687,
                    0.8117647171020508,
                    0.929411768913269,
                    1.0
                ],
                "metallicFactor": 0.0
            }
        },
        {
            "doubleSided": true,
            "name": "0.768627_0.886275_0.952941_0.000000_0.000000",
            "pbrMetallicRoughness": {
                "baseColorFactor": [
                    0.7686274647712708,
                    0.886274516582489,
                    0.9529411792755127,
                    1.0
                ],
                "metallicFactor": 0.0
            }
        },
        {
            "doubleSided": true,
            "name": "0.972549_0.529412_0.003922_0.000000_0.000000",
            "pbrMetallicRoughness": {
                "baseColorFactor": [
                    0.9725490212440491,
                    0.529411792755127,
                    0.003921568859368563,
                    1.0
                ],
                "metallicFactor": 0.0
            }
        },
        {
            "doubleSided": true,
            "name": "0.498039_0.498039_0.498039_0.000000_0.000000",
            "pbrMetallicRoughness": {
                "baseColorFactor": [
                    0.49803921580314636,
                    0.49803921580314636,
                    0.49803921580314636,
                    1.0
                ],
                "metallicFactor": 0.0
            }
        },
        {
            "doubleSided": true,
            "name": "0.662745_0.376471_0.003922_0.000000_0.000000",
            "pbrMetallicRoughness": {
                "baseColorFactor": [
                    0.6627451181411743,
                    0.3764705955982208,
                    0.003921568859368563,
                    1.0
                ],
                "metallicFactor": 0.0
            }
        },
        {
            "doubleSided": true,
            "name": "0.349020_0.376471_0.400000_0.000000_0.000000",
            "pbrMetallicRoughness": {
                "baseColorFactor": [
                    0.3490196168422699,
                    0.3764705955982208,
                    0.4000000059604645,
                    1.0
                ],
                "metallicFactor": 0.0
            }
        },
        {
            "doubleSided": true,
            "name": "0.298039_0.298039_0.298039_0.000000_0.000000",
            "pbrMetallicRoughness": {
                "baseColorFactor": [
                    0.2980392277240753,
                    0.2980392277240753,
                    0.2980392277240753,
                    1.0
                ],
                "metallicFactor": 0.0
            }
        },
        {
            "doubleSided": true,
            "name": "0.231373_0.380392_0.705882_0.000000_0.000000",
            "pbrMetallicRoughness": {
                "baseColorFactor": [
                    0.23137255012989044,
                    0.3803921639919281,
                    0.7058823704719543,
                    1.0
                ],
                "metallicFactor": 0.0
            }
        },
        {
            "doubleSided": true,
            "name": "0.647059_0.647059_0.647059_0.000000_0.000000",
            "pbrMetallicRoughness": {
                "baseColorFactor": [
                    0.6470588445663452,
                    0.6470588445663452,
                    0.6470588445663452,
                    1.0
                ],
                "metallicFactor": 0.0
            }
        },
        {
            "doubleSided": true,
            "name": "0.980392_0.713725_0.003922_0.000000_0.000000",
            "pbrMetallicRoughness": {
                "baseColorFactor": [
                    0.9803921580314636,
                    0.7137255072593689,
                    0.003921568859368563,
                    1.0
                ],
                "metallicFactor": 0.0
            }
        },
        {
            "doubleSided": true,
            "name": "0.811765_0.858824_0.898039_0.000000_0.000000",
            "pbrMetallicRoughness": {
                "baseColorFactor": [
                    0.8117647171020508,
                    0.8588235378265381,
                    0.8980392217636108,
                    1.0
                ],
                "metallicFactor": 0.0
            }
        }
    ],
    "meshes": [
        {
            "name": "mesh589_mesh",
            "primitives": [
                {
                    "attributes": {
                        "NORMAL": 1,
                        "POSITION": 0
                    },
                    "indices": 2,
                    "material": 7
                }
            ]
        },
        {
            "name": "mesh590_mesh",
            "primitives": [
                {
                    "attributes": {
                        "NORMAL": 4,
                        "POSITION": 3
                    },
                    "indices": 5,
                    "material": 7
                }
            ]
        },
        {
            "name": "mesh591_mesh",
            "primitives": [
                {
                    "attributes": {
                        "NORMAL": 7,
                        "POSITION": 6
                    },
                    "indices": 8,
                    "material": 7
                }
            ]
        },
        {
            "name": "mesh592_mesh",
            "primitives": [
                {
                    "attributes": {
                        "NORMAL": 10,
                        "POSITION": 9
                    },
                    "indices": 11,
                    "material": 7
                }
            ]
        },
        {
            "name": "mesh593_mesh",
            "primitives": [
                {
                    "attributes": {
                        "NORMAL": 13,
                        "POSITION": 12
                    },
                    "indices": 14,
                    "material": 7
                }
            ]
        },
        {
            "name": "mesh594_mesh",
            "primitives": [
                {
                    "attributes": {
                        "NORMAL": 16,
                        "POSITION": 15
                    },
                    "indices": 17,
                    "material": 7
                }
            ]
        },
        {
            "name": "mesh595_mesh",
            "primitives": [
                {
                    "attributes": {
                        "NORMAL": 19,
                        "POSITION": 18
                    },
                    "indices": 20,
                    "material": 7
                }
            ]
        },
        {
            "name": "mesh596_mesh",
            "primitives": [
                {
                    "attributes": {
                        "NORMAL": 22,
                        "POSITION": 21
                    },
                    "indices": 23,
                    "material": 7
                }
            ]
        },
        {
            "name": "mesh597_mesh",
            "primitives": [
                {
                    "attributes": {
                        "NORMAL": 25,
                        "POSITION": 24
                    },
                    "indices": 26,
                    "material": 7
                }
            ]
        },
        {
            "name": "mesh598_mesh",
            "primitives": [
                {
                    "attributes": {
                        "NORMAL": 28,
                        "POSITION": 27
                    },
                    "indices": 29,
                    "material": 7
                }
            ]
        },
        {
            "name": "mesh599_mesh",
            "primitives": [
                {
                    "attributes": {
                        "NORMAL": 31,
                        "POSITION": 30
                    },
                    "indices": 32,
                    "material": 7
                }
            ]
        },
        {
            "name": "mesh600_mesh",
            "primitives": [
                {
                    "attributes": {
                        "NORMAL": 34,
                        "POSITION": 33
                    },
                    "indices": 35,
                    "material": 7
                }
            ]
        },
        {
            "name": "mesh601_mesh",
            "primitives": [
                {
                    "attributes": {
                        "NORMAL": 37,
                        "POSITION": 36
                    },
                    "indices": 38,
                    "material": 7
                }
            ]
        },
        {
            "name": "mesh602_mesh",
            "primitives": [
                {
                    "attributes": {
                        "NORMAL": 40,
                        "POSITION": 39
                    },
                    "indices": 41,
                    "material": 7
                }
            ]
        },
        {
            "name": "mesh603_mesh",
            "primitives": [
                {
                    "attributes": {
                        "NORMAL": 43,
                        "POSITION": 42
                    },
                    "indices": 44,
                    "material": 7
                }
            ]
        },
        {
            "name": "mesh604_mesh",
            "primitives": [
                {
                    "attributes": {
                        "NORMAL": 46,
                        "POSITION": 45
                    },
                    "indices": 47,
                    "material": 7
                }
            ]
        },
        {
            "name": "mesh605_mesh",
            "primitives": [
                {
                    "attributes": {
                        "NORMAL": 49,
                        "POSITION": 48
                    },
                    "indices": 50,
                    "material": 7
                }
            ]
        },
        {
            "name": "mesh606_mesh",
            "primitives": [
                {
                    "attributes": {
                        "NORMAL": 52,
                        "POSITION": 51
                    },
                    "indices": 53,
                    "material": 7
                }
            ]
        },
        {
            "name": "mesh607_mesh",
            "primitives": [
                {
                    "attributes": {
                        "NORMAL": 55,
                        "POSITION": 54
                    },
                    "indices": 56,
                    "material": 7
                }
            ]
        },
        {
            "name": "mesh608_mesh",
            "primitives": [
                {
                    "attributes": {
                        "NORMAL": 58,
                        "POSITION": 57
                    },
                    "indices": 59,
                    "material": 7
                }
            ]
        },
        {
            "name": "mesh609_mesh",
            "primitives": [
                {
                    "attributes": {
                        "NORMAL": 61,
                        "POSITION": 60
                    },
                    "indices": 62,
                    "material": 7
                }
            ]
        },
        {
            "name": "mesh610_mesh",
            "primitives": [
                {
                    "attributes": {
                        "NORMAL": 64,
                        "POSITION": 63
                    },
                    "indices": 65,
                    "material": 7
                }
            ]
        },
        {
            "name": "mesh611_mesh",
            "primitives": [
                {
                    "attributes": {
                        "NORMAL": 67,
                        "POSITION": 66
                    },
                    "indices": 68,
                    "material": 7
                }
            ]
        },
        {
            "name": "mesh612_mesh",
            "primitives": [
                {
                    "attributes": {
                        "NORMAL": 70,
                        "POSITION": 69
                    },
                    "indices": 71,
                    "material": 7
                }
            ]
        },
        {
            "name": "mesh613_mesh",
            "primitives": [
                {
                    "attributes": {
                        "NORMAL": 73,
                        "POSITION": 72
                    },
                    "indices": 74,
                    "material": 7
                }
            ]
        },
        {
            "name": "mesh614_mesh",
            "primitives": [
                {
                    "attributes": {
                        "NORMAL": 76,
                        "POSITION": 75
                    },
                    "indices": 77,
                    "material": 7
                }
            ]
        },
        {
            "name": "mesh615_mesh",
            "primitives": [
                {
                    "attributes": {
                        "NORMAL": 79,
                        "POSITION": 78
                    },
                    "indices": 80,
                    "material": 7
                }
            ]
        },
        {
            "name": "mesh616_mesh",
            "primitives": [
                {
                    "attributes": {
                        "NORMAL": 82,
                        "POSITION": 81
                    },
                    "indices": 83,
                    "material": 7
                }
            ]
        },
        {
            "name": "mesh617_mesh",
            "primitives": [
                {
                    "attributes": {
                        "NORMAL": 85,
                        "POSITION": 84
                    },
                    "indices": 86,
                    "material": 7
                }
            ]
        },
        {
            "name": "mesh618_mesh",
            "primitives": [
                {
                    "attributes": {
                        "NORMAL": 88,
                        "POSITION": 87
                    },
                    "indices": 89,
                    "material": 7
                }
            ]
        },
        {
            "name": "mesh619_mesh",
            "primitives": [
                {
                    "attributes": {
                        "NORMAL": 91,
                        "POSITION": 90
                    },
                    "indices": 92,
                    "material": 7
                }
            ]
        },
        {
            "name": "mesh620_mesh",
            "primitives": [
                {
                    "attributes": {
                        "NORMAL": 94,
                        "POSITION": 93
                    },
                    "indices": 95,
                    "material": 7
                }
            ]
        },
        {
            "name": "mesh621_mesh",
            "primitives": [
                {
                    "attributes": {
                        "NORMAL": 97,
                        "POSITION": 96
                    },
                    "indices": 98,
                    "material": 7
                }
            ]
        },
        {
            "name": "mesh622_mesh",
            "primitives": [
                {
                    "attributes": {
                        "NORMAL": 100,
                        "POSITION": 99
                    },
                    "indices": 101,
                    "material": 7
                }
            ]
        }
    ],
    "nodes": [
        {
            "mesh": 0,
            "name": "mesh589"
        },
        {
            "mesh": 1,
            "name": "mesh590"
        },
        {
            "mesh": 2,
            "name": "mesh591"
        },
        {
            "mesh": 3,
            "name": "mesh592"
        },
        {
            "mesh": 4,
            "name": "mesh593"
        },
        {
            "mesh": 5,
            "name": "mesh594"
        },
        {
            "mesh": 6,
            "name": "mesh595"
        },
        {
            "mesh": 7,
            "name": "mesh596"
        },
        {
            "mesh": 8,
            "name": "mesh597"
        },
        {
            "mesh": 9,
            "name": "mesh598"
        },
        {
            "mesh": 10,
            "name": "mesh599"
        },
        {
            "mesh": 11,
            "name": "mesh600"
        },
        {
            "mesh": 12,
            "name": "mesh601"
        },
        {
            "mesh": 13,
            "name": "mesh602"
        },
        {
            "mesh": 14,
            "name": "mesh603"
        },
        {
            "mesh": 15,
            "name": "mesh604"
        },
        {
            "mesh": 16,
            "name": "mesh605"
        },
        {
            "mesh": 17,
            "name": "mesh606"
        },
        {
            "mesh": 18,
            "name": "mesh607"
        },
        {
            "mesh": 19,
            "name": "mesh608"
        },
        {
            "mesh": 20,
            "name": "mesh609"
        },
        {
            "mesh": 21,
            "name": "mesh610"
        },
        {
            "mesh": 22,
            "name": "mesh611"
        },
        {
            "mesh": 23,
            "name": "mesh612"
        },
        {
            "mesh": 24,
            "name": "mesh613"
        },
        {
            "mesh": 25,
            "name": "mesh614"
        },
        {
            "mesh": 26,
            "name": "mesh615"
        },
        {
            "mesh": 27,
            "name": "mesh616"
        },
        {
            "mesh": 28,
            "name": "mesh617"
        },
        {
            "mesh": 29,
            "name": "mesh618"
        },
        {
            "mesh": 30,
            "name": "mesh619"
        },
        {
            "mesh": 31,
            "name": "mesh620"
        },
        {
            "mesh": 32,
            "name": "mesh621"
        },
        {
            "mesh": 33,
            "name": "mesh622"
        }
    ],
    "scene": 0,
    "scenes": [
        {
            "name": "Root",
            "nodes": [
                0,
                1,
                2,
                3,
                4,
                5,
                6,
                7,
                8,
                9,
                10,
                11,
                12,
                13,
                14,
                15,
                16,
                17,
                18,
                19,
                20,
                21,
                22,
                23,
                24,
                25,
                26,
                27,
                28,
                29,
                30,
                31,
                32,
                33
            ]
        }
    ]
}