{
    "accessors": [
        {
            "bufferView": 0,
            "componentType": 5126,
            "count": 59,
            "max": [
                -0.03501201793551445,
                0.02858954295516014,
                0.006728239823132753
            ],
            "min": [
                -0.038706593215465546,
                0.024889543652534485,
                0.006728239823132753
            ],
            "name": "mesh300_coord_accessor",
            "type": "VEC3"
        },
        {
            "bufferView": 1,
            "componentType": 5126,
            "count": 59,
            "max": [
                -9.063410692554134e-17,
                5.508391520692157e-10,
                -1.0
            ],
            "min": [
                -9.063410692554134e-17,
                5.508391520692157e-10,
                -1.0
            ],
            "name": "mesh300_norm_accessor",
            "type": "VEC3"
        },
        {
            "bufferView": 2,
            "componentType": 5125,
            "count": 174,
            "max": [
                58
            ],
            "min": [
                0
            ],
            "name": "mesh300_idx_accessor",
            "type": "SCALAR"
        },
        {
            "bufferView": 3,
            "componentType": 5126,
            "count": 117,
            "max": [
                -0.03501201793551445,
                0.02858954295516014,
                0.006728239823132753
            ],
            "min": [
                -0.038706593215465546,
                0.024889543652534485,
                -0.007927951402962208
            ],
            "name": "mesh301_coord_accessor",
            "type": "VEC3"
        },
        {
            "bufferView": 4,
            "componentType": 5126,
            "count": 117,
            "max": [
                0.9985334277153015,
                1.0,
                5.508388190023084e-10
            ],
            "min": [
                -0.9985334277153015,
                -1.0,
                -5.508388190023084e-10
            ],
            "name": "mesh301_norm_accessor",
            "type": "VEC3"
        },
        {
            "bufferView": 5,
            "componentType": 5125,
            "count": 351,
            "max": [
                116
            ],
            "min": [
                0
            ],
            "name": "mesh301_idx_accessor",
            "type": "SCALAR"
        },
        {
            "bufferView": 6,
            "componentType": 5126,
            "count": 239,
            "max": [
                -0.012019517831504345,
                0.03330298140645027,
                -0.007927951402962208
            ],
            "min": [
                -0.04678031802177429,
                0.01702970266342163,
                -0.007927951402962208
            ],
            "name": "mesh302_coord_accessor",
            "type": "VEC3"
        },
        {
            "bufferView": 7,
            "componentType": 5126,
            "count": 239,
            "max": [
                -1.7524550519363918e-16,
                5.508388190023084e-10,
                -1.0
            ],
            "min": [
                -1.7524550519363918e-16,
                5.508388190023084e-10,
                -1.0
            ],
            "name": "mesh302_norm_accessor",
            "type": "VEC3"
        },
        {
            "bufferView": 8,
            "componentType": 5125,
            "count": 729,
            "max": [
                238
            ],
            "min": [
                0
            ],
            "name": "mesh302_idx_accessor",
            "type": "SCALAR"
        },
        {
            "bufferView": 9,
            "componentType": 5126,
            "count": 4,
            "max": [
                -0.045619577169418335,
                0.030982043594121933,
                -0.00392795167863369
            ],
            "min": [
                -0.04676179587841034,
                0.0237747672945261,
                -0.007927951402962208
            ],
            "name": "mesh303_coord_accessor",
            "type": "VEC3"
        },
        {
            "bufferView": 10,
            "componentType": 5126,
            "count": 4,
            "max": [
                -0.9876735210418701,
                0.1565278172492981,
                8.6221772777062e-11
            ],
            "min": [
                -0.9876735210418701,
                0.1565278172492981,
                8.6221772777062e-11
            ],
            "name": "mesh303_norm_accessor",
            "type": "VEC3"
        },
        {
            "bufferView": 11,
            "componentType": 5125,
            "count": 6,
            "max": [
                3
            ],
            "min": [
                0
            ],
            "name": "mesh303_idx_accessor",
            "type": "SCALAR"
        },
        {
            "bufferView": 12,
            "componentType": 5126,
            "count": 4,
            "max": [
                -0.01203867606818676,
                0.02566009759902954,
                -0.00392795167863369
            ],
            "min": [
                -0.013180894777178764,
                0.018452821299433708,
                -0.007927951402962208
            ],
            "name": "mesh304_coord_accessor",
            "type": "VEC3"
        },
        {
            "bufferView": 13,
            "componentType": 5126,
            "count": 4,
            "max": [
                0.9876735210418701,
                -0.1565278172492981,
                -8.6221772777062e-11
            ],
            "min": [
                0.9876735210418701,
                -0.1565278172492981,
                -8.6221772777062e-11
            ],
            "name": "mesh304_norm_accessor",
            "type": "VEC3"
        },
        {
            "bufferView": 14,
            "componentType": 5125,
            "count": 6,
            "max": [
                3
            ],
            "min": [
                0
            ],
            "name": "mesh304_idx_accessor",
            "type": "SCALAR"
        },
        {
            "bufferView": 15,
            "componentType": 5126,
            "count": 16,
            "max": [
                -0.012871143408119678,
                0.03330298140645027,
                -0.00392795167863369
            ],
            "min": [
                -0.04429211467504501,
                0.027392935007810593,
                -0.007927951402962208
            ],
            "name": "mesh305_coord_accessor",
            "type": "VEC3"
        },
        {
            "bufferView": 16,
            "componentType": 5126,
            "count": 16,
            "max": [
                0.49507489800453186,
                0.9999967217445374,
                5.508369871343177e-10
            ],
            "min": [
                -0.20216956734657288,
                0.8688502907752991,
                4.785963847453445e-10
            ],
            "name": "mesh305_norm_accessor",
            "type": "VEC3"
        },
        {
            "bufferView": 17,
            "componentType": 5125,
            "count": 42,
            "max": [
                15
            ],
            "min": [
                0
            ],
            "name": "mesh305_idx_accessor",
            "type": "SCALAR"
        },
        {
            "bufferView": 18,
            "componentType": 5126,
            "count": 32,
            "max": [
                -0.045357201248407364,
                0.0237747672945261,
                -0.00392795167863369
            ],
            "min": [
                -0.04678031802177429,
                0.021841123700141907,
                -0.007927951402962208
            ],
            "name": "mesh306_coord_accessor",
            "type": "VEC3"
        },
        {
            "bufferView": 19,
            "componentType": 5126,
            "count": 32,
            "max": [
                -0.1565278172492981,
                0.1565278172492981,
                8.6221772777062e-11
            ],
            "min": [
                -0.9986344575881958,
                -0.9876735210418701,
                -5.440492500952132e-10
            ],
            "name": "mesh306_norm_accessor",
            "type": "VEC3"
        },
        {
            "bufferView": 20,
            "componentType": 5125,
            "count": 90,
            "max": [
                31
            ],
            "min": [
                0
            ],
            "name": "mesh306_idx_accessor",
            "type": "SCALAR"
        },
        {
            "bufferView": 21,
            "componentType": 5126,
            "count": 26,
            "max": [
                -0.04429211467504501,
                0.032372571527957916,
                -0.00392795167863369
            ],
            "min": [
                -0.045619577169418335,
                0.030982043594121933,
                -0.007927951402962208
            ],
            "name": "mesh307_coord_accessor",
            "type": "VEC3"
        },
        {
            "bufferView": 22,
            "componentType": 5126,
            "count": 26,
            "max": [
                -0.20216956734657288,
                0.9793505072593689,
                5.394643620704187e-10
            ],
            "min": [
                -0.9876735210418701,
                0.1565278172492981,
                8.6221772777062e-11
            ],
            "name": "mesh307_norm_accessor",
            "type": "VEC3"
        },
        {
            "bufferView": 23,
            "componentType": 5125,
            "count": 72,
            "max": [
                25
            ],
            "min": [
                0
            ],
            "name": "mesh307_idx_accessor",
            "type": "SCALAR"
        },
        {
            "bufferView": 24,
            "componentType": 5126,
            "count": 26,
            "max": [
                -0.012019517831504345,
                0.027392935007810593,
                -0.00392795167863369
            ],
            "min": [
                -0.012871143408119678,
                0.02566009759902954,
                -0.007927951402962208
            ],
            "name": "mesh308_coord_accessor",
            "type": "VEC3"
        },
        {
            "bufferView": 25,
            "componentType": 5126,
            "count": 26,
            "max": [
                0.9990100264549255,
                0.8688502907752991,
                4.785963847453445e-10
            ],
            "min": [
                0.49507489800453186,
                -0.1565278172492981,
                -8.6221772777062e-11
            ],
            "name": "mesh308_norm_accessor",
            "type": "VEC3"
        },
        {
            "bufferView": 26,
            "componentType": 5125,
            "count": 72,
            "max": [
                25
            ],
            "min": [
                0
            ],
            "name": "mesh308_idx_accessor",
            "type": "SCALAR"
        },
        {
            "bufferView": 27,
            "componentType": 5126,
            "count": 32,
            "max": [
                -0.013180894777178764,
                0.018452821299433708,
                -0.00392795167863369
            ],
            "min": [
                -0.015114537440240383,
                0.01702970266342163,
                -0.007927951402962208
            ],
            "name": "mesh309_coord_accessor",
            "type": "VEC3"
        },
        {
            "bufferView": 28,
            "componentType": 5126,
            "count": 32,
            "max": [
                0.9876735210418701,
                -0.1565278172492981,
                -8.6221772777062e-11
            ],
            "min": [
                -0.1565278172492981,
                -0.9986344575881958,
                -5.500869759700322e-10
            ],
            "name": "mesh309_norm_accessor",
            "type": "VEC3"
        },
        {
            "bufferView": 29,
            "componentType": 5125,
            "count": 90,
            "max": [
                31
            ],
            "min": [
                0
            ],
            "name": "mesh309_idx_accessor",
            "type": "SCALAR"
        },
        {
            "bufferView": 30,
            "componentType": 5126,
            "count": 116,
            "max": [
                -0.04086802154779434,
                0.028002331033349037,
                -0.00392795167863369
            ],
            "min": [
                -0.04486215487122536,
                0.024002332240343094,
                -0.007927951402962208
            ],
            "name": "mesh310_coord_accessor",
            "type": "VEC3"
        },
        {
            "bufferView": 31,
            "componentType": 5126,
            "count": 116,
            "max": [
                0.9985334277153015,
                1.0,
                5.508388190023084e-10
            ],
            "min": [
                -0.9985334277153015,
                -1.0,
                -5.508388190023084e-10
            ],
            "name": "mesh310_norm_accessor",
            "type": "VEC3"
        },
        {
            "bufferView": 32,
            "componentType": 5125,
            "count": 348,
            "max": [
                115
            ],
            "min": [
                0
            ],
            "name": "mesh310_idx_accessor",
            "type": "SCALAR"
        },
        {
            "bufferView": 33,
            "componentType": 5126,
            "count": 116,
            "max": [
                -0.014200834557414055,
                0.023776080459356308,
                -0.00392795167863369
            ],
            "min": [
                -0.01819496788084507,
                0.019776079803705215,
                -0.007927951402962208
            ],
            "name": "mesh311_coord_accessor",
            "type": "VEC3"
        },
        {
            "bufferView": 34,
            "componentType": 5126,
            "count": 116,
            "max": [
                0.9985334277153015,
                1.0,
                5.508388190023084e-10
            ],
            "min": [
                -0.9985334277153015,
                -1.0,
                -5.508388190023084e-10
            ],
            "name": "mesh311_norm_accessor",
            "type": "VEC3"
        },
        {
            "bufferView": 35,
            "componentType": 5125,
            "count": 348,
            "max": [
                115
            ],
            "min": [
                0
            ],
            "name": "mesh311_idx_accessor",
            "type": "SCALAR"
        },
        {
            "bufferView": 36,
            "componentType": 5126,
            "count": 184,
            "max": [
                -0.012019517831504345,
                0.03330298140645027,
                -0.00392795167863369
            ],
            "min": [
                -0.04678031802177429,
                0.01702970266342163,
                -0.00392795167863369
            ],
            "name": "mesh312_coord_accessor",
            "type": "VEC3"
        },
        {
            "bufferView": 37,
            "componentType": 5126,
            "count": 184,
            "max": [
                1.7524550519363918e-16,
                -5.508388190023084e-10,
                1.0
            ],
            "min": [
                1.7524550519363918e-16,
                -5.508388190023084e-10,
                1.0
            ],
            "name": "mesh312_norm_accessor",
            "type": "VEC3"
        },
        {
            "bufferView": 38,
            "componentType": 5125,
            "count": 558,
            "max": [
                183
            ],
            "min": [
                0
            ],
            "name": "mesh312_idx_accessor",
            "type": "SCALAR"
        },
        {
            "bufferView": 39,
            "componentType": 5126,
            "count": 8,
            "max": [
                -0.015114537440240383,
                0.021841123700141907,
                0.010038290172815323
            ],
            "min": [
                -0.045357201248407364,
                0.017048226669430733,
                -0.007927951402962208
            ],
            "name": "mesh313_coord_accessor",
            "type": "VEC3"
        },
        {
            "bufferView": 40,
            "componentType": 5126,
            "count": 8,
            "max": [
                -0.1565278172492981,
                -0.9876735210418701,
                -5.440492500952132e-10
            ],
            "min": [
                -0.1565278172492981,
                -0.9876735210418701,
                -5.440492500952132e-10
            ],
            "name": "mesh313_norm_accessor",
            "type": "VEC3"
        },
        {
            "bufferView": 41,
            "componentType": 5125,
            "count": 18,
            "max": [
                7
            ],
            "min": [
                0
            ],
            "name": "mesh313_idx_accessor",
            "type": "SCALAR"
        },
        {
            "bufferView": 42,
            "componentType": 5126,
            "count": 32,
            "max": [
                -0.018544984981417656,
                0.03245703876018524,
                -0.002238001674413681
            ],
            "min": [
                -0.03856297954916954,
                0.027657365426421165,
                -0.00392795167863369
            ],
            "name": "mesh314_coord_accessor",
            "type": "VEC3"
        },
        {
            "bufferView": 43,
            "componentType": 5126,
            "count": 32,
            "max": [
                0.1565278172492981,
                0.9876735210418701,
                1.0
            ],
            "min": [
                9.854713768788327e-16,
                -5.508337119763951e-10,
                5.440504713405403e-10
            ],
            "name": "mesh314_norm_accessor",
            "type": "VEC3"
        },
        {
            "bufferView": 44,
            "componentType": 5125,
            "count": 90,
            "max": [
                31
            ],
            "min": [
                0
            ],
            "name": "mesh314_idx_accessor",
            "type": "SCALAR"
        },
        {
            "bufferView": 45,
            "componentType": 5126,
            "count": 4,
            "max": [
                -0.01880950853228569,
                0.030787920579314232,
                0.0050382898189127445
            ],
            "min": [
                -0.03856297954916954,
                0.027657365426421165,
                -0.002238001674413681
            ],
            "name": "mesh315_coord_accessor",
            "type": "VEC3"
        },
        {
            "bufferView": 46,
            "componentType": 5126,
            "count": 4,
            "max": [
                0.1565278172492981,
                0.9876735210418701,
                5.440504713405403e-10
            ],
            "min": [
                0.1565278172492981,
                0.9876735210418701,
                5.440504713405403e-10
            ],
            "name": "mesh315_norm_accessor",
            "type": "VEC3"
        },
        {
            "bufferView": 47,
            "componentType": 5125,
            "count": 6,
            "max": [
                3
            ],
            "min": [
                0
            ],
            "name": "mesh315_idx_accessor",
            "type": "SCALAR"
        },
        {
            "bufferView": 48,
            "componentType": 5126,
            "count": 32,
            "max": [
                -0.020094608888030052,
                0.022679071873426437,
                0.011728240177035332
            ],
            "min": [
                -0.04011260345578194,
                0.017879396677017212,
                0.010038290172815323
            ],
            "name": "mesh316_coord_accessor",
            "type": "VEC3"
        },
        {
            "bufferView": 49,
            "componentType": 5126,
            "count": 32,
            "max": [
                -6.558688871851151e-16,
                -5.508437039836167e-10,
                1.0
            ],
            "min": [
                -0.1565278172492981,
                -0.9876735210418701,
                -5.440509154297501e-10
            ],
            "name": "mesh316_norm_accessor",
            "type": "VEC3"
        },
        {
            "bufferView": 50,
            "componentType": 5125,
            "count": 90,
            "max": [
                31
            ],
            "min": [
                0
            ],
            "name": "mesh316_idx_accessor",
            "type": "SCALAR"
        },
        {
            "bufferView": 51,
            "componentType": 5126,
            "count": 4,
            "max": [
                -0.019074032083153725,
                0.029118802398443222,
                0.011728240177035332
            ],
            "min": [
                -0.03984808176755905,
                0.01954851672053337,
                0.011728240177035332
            ],
            "name": "mesh317_coord_accessor",
            "type": "VEC3"
        },
        {
            "bufferView": 52,
            "componentType": 5126,
            "count": 4,
            "max": [
                6.399018264384489e-17,
                -5.508391520692157e-10,
                1.0
            ],
            "min": [
                6.399018264384489e-17,
                -5.508391520692157e-10,
                1.0
            ],
            "name": "mesh317_norm_accessor",
            "type": "VEC3"
        },
        {
            "bufferView": 53,
            "componentType": 5125,
            "count": 6,
            "max": [
                3
            ],
            "min": [
                0
            ],
            "name": "mesh317_idx_accessor",
            "type": "SCALAR"
        },
        {
            "bufferView": 54,
            "componentType": 5126,
            "count": 32,
            "max": [
                -0.01880950853228569,
                0.030787920579314232,
                0.01341819018125534
            ],
            "min": [
                -0.038827504962682724,
                0.025988245382905006,
                0.011728240177035332
            ],
            "name": "mesh318_coord_accessor",
            "type": "VEC3"
        },
        {
            "bufferView": 55,
            "componentType": 5126,
            "count": 32,
            "max": [
                9.273273296101533e-16,
                -5.508337119763951e-10,
                1.0
            ],
            "min": [
                -0.1565278172492981,
                -0.9876735210418701,
                -5.440508044074477e-10
            ],
            "name": "mesh318_norm_accessor",
            "type": "VEC3"
        },
        {
            "bufferView": 56,
            "componentType": 5125,
            "count": 90,
            "max": [
                31
            ],
            "min": [
                0
            ],
            "name": "mesh318_idx_accessor",
            "type": "SCALAR"
        },
        {
            "bufferView": 57,
            "componentType": 5126,
            "count": 32,
            "max": [
                -0.018544984981417656,
                0.03245703876018524,
                0.006728239823132753
            ],
            "min": [
                -0.03856297954916954,
                0.027657365426421165,
                0.0050382898189127445
            ],
            "name": "mesh319_coord_accessor",
            "type": "VEC3"
        },
        {
            "bufferView": 58,
            "componentType": 5126,
            "count": 32,
            "max": [
                0.1565278172492981,
                0.9876735210418701,
                -1.867181569956642e-27
            ],
            "min": [
                5.788817979113757e-16,
                5.508433709167093e-10,
                -1.0
            ],
            "name": "mesh319_norm_accessor",
            "type": "VEC3"
        },
        {
            "bufferView": 59,
            "componentType": 5125,
            "count": 90,
            "max": [
                31
            ],
            "min": [
                0
            ],
            "name": "mesh319_idx_accessor",
            "type": "SCALAR"
        },
        {
            "bufferView": 60,
            "componentType": 5126,
            "count": 4,
            "max": [
                -0.018134865909814835,
                0.035044845193624496,
                0.006728239823132753
            ],
            "min": [
                -0.03829845413565636,
                0.029326483607292175,
                0.006728239823132753
            ],
            "name": "mesh320_coord_accessor",
            "type": "VEC3"
        },
        {
            "bufferView": 61,
            "componentType": 5126,
            "count": 4,
            "max": [
                -9.063410692554134e-17,
                5.508391520692157e-10,
                -1.0
            ],
            "min": [
                -9.063410692554134e-17,
                5.508391520692157e-10,
                -1.0
            ],
            "name": "mesh320_norm_accessor",
            "type": "VEC3"
        },
        {
            "bufferView": 62,
            "componentType": 5125,
            "count": 6,
            "max": [
                3
            ],
            "min": [
                0
            ],
            "name": "mesh320_idx_accessor",
            "type": "SCALAR"
        },
        {
            "bufferView": 63,
            "componentType": 5126,
            "count": 32,
            "max": [
                -0.01787034049630165,
                0.03671396151185036,
                0.00841819029301405
            ],
            "min": [
                -0.037888336926698685,
                0.03191428631544113,
                0.006728239823132753
            ],
            "name": "mesh321_coord_accessor",
            "type": "VEC3"
        },
        {
            "bufferView": 64,
            "componentType": 5126,
            "count": 32,
            "max": [
                0.1565278172492981,
                0.9876735210418701,
                5.440508044074477e-10
            ],
            "min": [
                -9.063410692554134e-17,
                5.508391520692157e-10,
                -1.0
            ],
            "name": "mesh321_norm_accessor",
            "type": "VEC3"
        },
        {
            "bufferView": 65,
            "componentType": 5125,
            "count": 90,
            "max": [
                31
            ],
            "min": [
                0
            ],
            "name": "mesh321_idx_accessor",
            "type": "SCALAR"
        },
        {
            "bufferView": 66,
            "componentType": 5126,
            "count": 83,
            "max": [
                -0.01787034049630165,
                0.03358340635895729,
                0.04607204720377922
            ],
            "min": [
                -0.020359134301543236,
                0.017879396677017212,
                -0.00392795167863369
            ],
            "name": "mesh322_coord_accessor",
            "type": "VEC3"
        },
        {
            "bufferView": 67,
            "componentType": 5126,
            "count": 83,
            "max": [
                0.9876735210418701,
                -0.1565278172492981,
                -8.622183522710714e-11
            ],
            "min": [
                0.9876735210418701,
                -0.1565278172492981,
                -8.622183522710714e-11
            ],
            "name": "mesh322_norm_accessor",
            "type": "VEC3"
        },
        {
            "bufferView": 68,
            "componentType": 5125,
            "count": 243,
            "max": [
                82
            ],
            "min": [
                0
            ],
            "name": "mesh322_idx_accessor",
            "type": "SCALAR"
        },
        {
            "bufferView": 69,
            "componentType": 5126,
            "count": 83,
            "max": [
                -0.0376238115131855,
                0.03671396151185036,
                0.04607204720377922
            ],
            "min": [
                -0.04011260345578194,
                0.021009953692555428,
                -0.00392795167863369
            ],
            "name": "mesh323_coord_accessor",
            "type": "VEC3"
        },
        {
            "bufferView": 70,
            "componentType": 5126,
            "count": 83,
            "max": [
                -0.9876735210418701,
                0.1565278172492981,
                8.622166175475954e-11
            ],
            "min": [
                -0.9876735210418701,
                0.1565278172492981,
                8.622166175475954e-11
            ],
            "name": "mesh323_norm_accessor",
            "type": "VEC3"
        },
        {
            "bufferView": 71,
            "componentType": 5125,
            "count": 243,
            "max": [
                82
            ],
            "min": [
                0
            ],
            "name": "mesh323_idx_accessor",
            "type": "SCALAR"
        },
        {
            "bufferView": 72,
            "componentType": 5126,
            "count": 60,
            "max": [
                -0.01787034049630165,
                0.03671396151185036,
                0.05605738237500191
            ],
            "min": [
                -0.03856297954916954,
                0.027657365426421165,
                0.04607204720377922
            ],
            "name": "mesh324_coord_accessor",
            "type": "VEC3"
        },
        {
            "bufferView": 73,
            "componentType": 5126,
            "count": 60,
            "max": [
                0.9876735210418701,
                0.1565278172492981,
                0.9985334277153015
            ],
            "min": [
                -0.9876735210418701,
                -0.1565278172492981,
                0.0
            ],
            "name": "mesh324_norm_accessor",
            "type": "VEC3"
        },
        {
            "bufferView": 74,
            "componentType": 5125,
            "count": 174,
            "max": [
                59
            ],
            "min": [
                0
            ],
            "name": "mesh324_idx_accessor",
            "type": "SCALAR"
        },
        {
            "bufferView": 75,
            "componentType": 5126,
            "count": 90,
            "max": [
                -0.01787034049630165,
                0.03671396151185036,
                0.05605738237500191
            ],
            "min": [
                -0.0376238115131855,
                0.03358340635895729,
                0.00841819029301405
            ],
            "name": "mesh325_coord_accessor",
            "type": "VEC3"
        },
        {
            "bufferView": 76,
            "componentType": 5126,
            "count": 90,
            "max": [
                0.1565278172492981,
                0.9876735210418701,
                5.440492500952132e-10
            ],
            "min": [
                0.1565278172492981,
                0.9876735210418701,
                5.440492500952132e-10
            ],
            "name": "mesh325_norm_accessor",
            "type": "VEC3"
        },
        {
            "bufferView": 77,
            "componentType": 5125,
            "count": 270,
            "max": [
                89
            ],
            "min": [
                0
            ],
            "name": "mesh325_idx_accessor",
            "type": "SCALAR"
        },
        {
            "bufferView": 78,
            "componentType": 5126,
            "count": 90,
            "max": [
                -0.01880950853228569,
                0.030787920579314232,
                0.05605738237500191
            ],
            "min": [
                -0.03856297954916954,
                0.027657365426421165,
                0.01341819018125534
            ],
            "name": "mesh326_coord_accessor",
            "type": "VEC3"
        },
        {
            "bufferView": 79,
            "componentType": 5126,
            "count": 90,
            "max": [
                -0.1565278172492981,
                -0.9876735210418701,
                -5.440492500952132e-10
            ],
            "min": [
                -0.1565278172492981,
                -0.9876735210418701,
                -5.440492500952132e-10
            ],
            "name": "mesh326_norm_accessor",
            "type": "VEC3"
        },
        {
            "bufferView": 80,
            "componentType": 5125,
            "count": 270,
            "max": [
                89
            ],
            "min": [
                0
            ],
            "name": "mesh326_idx_accessor",
            "type": "SCALAR"
        },
        {
            "bufferView": 81,
            "componentType": 5126,
            "count": 116,
            "max": [
                -0.022314872592687607,
                0.03600958734750748,
                0.05156398192048073
            ],
            "min": [
                -0.034118447452783585,
                0.028361739590764046,
                0.04058011621236801
            ],
            "name": "mesh327_coord_accessor",
            "type": "VEC3"
        },
        {
            "bufferView": 82,
            "componentType": 5126,
            "count": 116,
            "max": [
                0.9876735210418701,
                0.1565278172492981,
                0.9985334277153015
            ],
            "min": [
                -0.9876735210418701,
                -0.1565278172492981,
                -0.9985334277153015
            ],
            "name": "mesh327_norm_accessor",
            "type": "VEC3"
        },
        {
            "bufferView": 83,
            "componentType": 5125,
            "count": 348,
            "max": [
                115
            ],
            "min": [
                0
            ],
            "name": "mesh327_idx_accessor",
            "type": "SCALAR"
        }
    ],
    "asset": {
        "generator": "ONSHAPE BY PTC INC, 1.221",
        "version": "2.0"
    },
    "bufferViews": [
        {
            "buffer": 0,
            "byteLength": 708,
            "name": "mesh300_coord_bufferView",
            "target": 34962
        },
        {
            "buffer": 0,
            "byteLength": 708,
            "byteOffset": 708,
            "name": "mesh300_norm_bufferView",
            "target": 34962
        },
        {
            "buffer": 0,
            "byteLength": 696,
            "byteOffset": 1416,
            "name": "mesh300_idx_bufferView",
            "target": 34963
        },
        {
            "buffer": 0,
            "byteLength": 1404,
            "byteOffset": 2112,
            "name": "mesh301_coord_bufferView",
            "target": 34962
        },
        {
            "buffer": 0,
            "byteLength": 1404,
            "byteOffset": 3516,
            "name": "mesh301_norm_bufferView",
            "target": 34962
        },
        {
            "buffer": 0,
            "byteLength": 1404,
            "byteOffset": 4920,
            "name": "mesh301_idx_bufferView",
            "target": 34963
        },
        {
            "buffer": 0,
            "byteLength": 2868,
            "byteOffset": 6324,
            "name": "mesh302_coord_bufferView",
            "target": 34962
        },
        {
            "buffer": 0,
            "byteLength": 2868,
            "byteOffset": 9192,
            "name": "mesh302_norm_bufferView",
            "target": 34962
        },
        {
            "buffer": 0,
            "byteLength": 2916,
            "byteOffset": 12060,
            "name": "mesh302_idx_bufferView",
            "target": 34963
        },
        {
            "buffer": 0,
            "byteLength": 48,
            "byteOffset": 14976,
            "name": "mesh303_coord_bufferView",
            "target": 34962
        },
        {
            "buffer": 0,
            "byteLength": 48,
            "byteOffset": 15024,
            "name": "mesh303_norm_bufferView",
            "target": 34962
        },
        {
            "buffer": 0,
            "byteLength": 24,
            "byteOffset": 15072,
            "name": "mesh303_idx_bufferView",
            "target": 34963
        },
        {
            "buffer": 0,
            "byteLength": 48,
            "byteOffset": 15096,
            "name": "mesh304_coord_bufferView",
            "target": 34962
        },
        {
            "buffer": 0,
            "byteLength": 48,
            "byteOffset": 15144,
            "name": "mesh304_norm_bufferView",
            "target": 34962
        },
        {
            "buffer": 0,
            "byteLength": 24,
            "byteOffset": 15192,
            "name": "mesh304_idx_bufferView",
            "target": 34963
        },
        {
            "buffer": 0,
            "byteLength": 192,
            "byteOffset": 15216,
            "name": "mesh305_coord_bufferView",
            "target": 34962
        },
        {
            "buffer": 0,
            "byteLength": 192,
            "byteOffset": 15408,
            "name": "mesh305_norm_bufferView",
            "target": 34962
        },
        {
            "buffer": 0,
            "byteLength": 168,
            "byteOffset": 15600,
            "name": "mesh305_idx_bufferView",
            "target": 34963
        },
        {
            "buffer": 0,
            "byteLength": 384,
            "byteOffset": 15768,
            "name": "mesh306_coord_bufferView",
            "target": 34962
        },
        {
            "buffer": 0,
            "byteLength": 384,
            "byteOffset": 16152,
            "name": "mesh306_norm_bufferView",
            "target": 34962
        },
        {
            "buffer": 0,
            "byteLength": 360,
            "byteOffset": 16536,
            "name": "mesh306_idx_bufferView",
            "target": 34963
        },
        {
            "buffer": 0,
            "byteLength": 312,
            "byteOffset": 16896,
            "name": "mesh307_coord_bufferView",
            "target": 34962
        },
        {
            "buffer": 0,
            "byteLength": 312,
            "byteOffset": 17208,
            "name": "mesh307_norm_bufferView",
            "target": 34962
        },
        {
            "buffer": 0,
            "byteLength": 288,
            "byteOffset": 17520,
            "name": "mesh307_idx_bufferView",
            "target": 34963
        },
        {
            "buffer": 0,
            "byteLength": 312,
            "byteOffset": 17808,
            "name": "mesh308_coord_bufferView",
            "target": 34962
        },
        {
            "buffer": 0,
            "byteLength": 312,
            "byteOffset": 18120,
            "name": "mesh308_norm_bufferView",
            "target": 34962
        },
        {
            "buffer": 0,
            "byteLength": 288,
            "byteOffset": 18432,
            "name": "mesh308_idx_bufferView",
            "target": 34963
        },
        {
            "buffer": 0,
            "byteLength": 384,
            "byteOffset": 18720,
            "name": "mesh309_coord_bufferView",
            "target": 34962
        },
        {
            "buffer": 0,
            "byteLength": 384,
            "byteOffset": 19104,
            "name": "mesh309_norm_bufferView",
            "target": 34962
        },
        {
            "buffer": 0,
            "byteLength": 360,
            "byteOffset": 19488,
            "name": "mesh309_idx_bufferView",
            "target": 34963
        },
        {
            "buffer": 0,
            "byteLength": 1392,
            "byteOffset": 19848,
            "name": "mesh310_coord_bufferView",
            "target": 34962
        },
        {
            "buffer": 0,
            "byteLength": 1392,
            "byteOffset": 21240,
            "name": "mesh310_norm_bufferView",
            "target": 34962
        },
        {
            "buffer": 0,
            "byteLength": 1392,
            "byteOffset": 22632,
            "name": "mesh310_idx_bufferView",
            "target": 34963
        },
        {
            "buffer": 0,
            "byteLength": 1392,
            "byteOffset": 24024,
            "name": "mesh311_coord_bufferView",
            "target": 34962
        },
        {
            "buffer": 0,
            "byteLength": 1392,
            "byteOffset": 25416,
            "name": "mesh311_norm_bufferView",
            "target": 34962
        },
        {
            "buffer": 0,
            "byteLength": 1392,
            "byteOffset": 26808,
            "name": "mesh311_idx_bufferView",
            "target": 34963
        },
        {
            "buffer": 0,
            "byteLength": 2208,
            "byteOffset": 28200,
            "name": "mesh312_coord_bufferView",
            "target": 34962
        },
        {
            "buffer": 0,
            "byteLength": 2208,
            "byteOffset": 30408,
            "name": "mesh312_norm_bufferView",
            "target": 34962
        },
        {
            "buffer": 0,
            "byteLength": 2232,
            "byteOffset": 32616,
            "name": "mesh312_idx_bufferView",
            "target": 34963
        },
        {
            "buffer": 0,
            "byteLength": 96,
            "byteOffset": 34848,
            "name": "mesh313_coord_bufferView",
            "target": 34962
        },
        {
            "buffer": 0,
            "byteLength": 96,
            "byteOffset": 34944,
            "name": "mesh313_norm_bufferView",
            "target": 34962
        },
        {
            "buffer": 0,
            "byteLength": 72,
            "byteOffset": 35040,
            "name": "mesh313_idx_bufferView",
            "target": 34963
        },
        {
            "buffer": 0,
            "byteLength": 384,
            "byteOffset": 35112,
            "name": "mesh314_coord_bufferView",
            "target": 34962
        },
        {
            "buffer": 0,
            "byteLength": 384,
            "byteOffset": 35496,
            "name": "mesh314_norm_bufferView",
            "target": 34962
        },
        {
            "buffer": 0,
            "byteLength": 360,
            "byteOffset": 35880,
            "name": "mesh314_idx_bufferView",
            "target": 34963
        },
        {
            "buffer": 0,
            "byteLength": 48,
            "byteOffset": 36240,
            "name": "mesh315_coord_bufferView",
            "target": 34962
        },
        {
            "buffer": 0,
            "byteLength": 48,
            "byteOffset": 36288,
            "name": "mesh315_norm_bufferView",
            "target": 34962
        },
        {
            "buffer": 0,
            "byteLength": 24,
            "byteOffset": 36336,
            "name": "mesh315_idx_bufferView",
            "target": 34963
        },
        {
            "buffer": 0,
            "byteLength": 384,
            "byteOffset": 36360,
            "name": "mesh316_coord_bufferView",
            "target": 34962
        },
        {
            "buffer": 0,
            "byteLength": 384,
            "byteOffset": 36744,
            "name": "mesh316_norm_bufferView",
            "target": 34962
        },
        {
            "buffer": 0,
            "byteLength": 360,
            "byteOffset": 37128,
            "name": "mesh316_idx_bufferView",
            "target": 34963
        },
        {
            "buffer": 0,
            "byteLength": 48,
            "byteOffset": 37488,
            "name": "mesh317_coord_bufferView",
            "target": 34962
        },
        {
            "buffer": 0,
            "byteLength": 48,
            "byteOffset": 37536,
            "name": "mesh317_norm_bufferView",
            "target": 34962
        },
        {
            "buffer": 0,
            "byteLength": 24,
            "byteOffset": 37584,
            "name": "mesh317_idx_bufferView",
            "target": 34963
        },
        {
            "buffer": 0,
            "byteLength": 384,
            "byteOffset": 37608,
            "name": "mesh318_coord_bufferView",
            "target": 34962
        },
        {
            "buffer": 0,
            "byteLength": 384,
            "byteOffset": 37992,
            "name": "mesh318_norm_bufferView",
            "target": 34962
        },
        {
            "buffer": 0,
            "byteLength": 360,
            "byteOffset": 38376,
            "name": "mesh318_idx_bufferView",
            "target": 34963
        },
        {
            "buffer": 0,
            "byteLength": 384,
            "byteOffset": 38736,
            "name": "mesh319_coord_bufferView",
            "target": 34962
        },
        {
            "buffer": 0,
            "byteLength": 384,
            "byteOffset": 39120,
            "name": "mesh319_norm_bufferView",
            "target": 34962
        },
        {
            "buffer": 0,
            "byteLength": 360,
            "byteOffset": 39504,
            "name": "mesh319_idx_bufferView",
            "target": 34963
        },
        {
            "buffer": 0,
            "byteLength": 48,
            "byteOffset": 39864,
            "name": "mesh320_coord_bufferView",
            "target": 34962
        },
        {
            "buffer": 0,
            "byteLength": 48,
            "byteOffset": 39912,
            "name": "mesh320_norm_bufferView",
            "target": 34962
        },
        {
            "buffer": 0,
            "byteLength": 24,
            "byteOffset": 39960,
            "name": "mesh320_idx_bufferView",
            "target": 34963
        },
        {
            "buffer": 0,
            "byteLength": 384,
            "byteOffset": 39984,
            "name": "mesh321_coord_bufferView",
            "target": 34962
        },
        {
            "buffer": 0,
            "byteLength": 384,
            "byteOffset": 40368,
            "name": "mesh321_norm_bufferView",
            "target": 34962
        },
        {
            "buffer": 0,
            "byteLength": 360,
            "byteOffset": 40752,
            "name": "mesh321_idx_bufferView",
            "target": 34963
        },
        {
            "buffer": 0,
            "byteLength": 996,
            "byteOffset": 41112,
            "name": "mesh322_coord_bufferView",
            "target": 34962
        },
        {
            "buffer": 0,
            "byteLength": 996,
            "byteOffset": 42108,
            "name": "mesh322_norm_bufferView",
            "target": 34962
        },
        {
            "buffer": 0,
            "byteLength": 972,
            "byteOffset": 43104,
            "name": "mesh322_idx_bufferView",
            "target": 34963
        },
        {
            "buffer": 0,
            "byteLength": 996,
            "byteOffset": 44076,
            "name": "mesh323_coord_bufferView",
            "target": 34962
        },
        {
            "buffer": 0,
            "byteLength": 996,
            "byteOffset": 45072,
            "name": "mesh323_norm_bufferView",
            "target": 34962
        },
        {
            "buffer": 0,
            "byteLength": 972,
            "byteOffset": 46068,
            "name": "mesh323_idx_bufferView",
            "target": 34963
        },
        {
            "buffer": 0,
            "byteLength": 720,
            "byteOffset": 47040,
            "name": "mesh324_coord_bufferView",
            "target": 34962
        },
        {
            "buffer": 0,
            "byteLength": 720,
            "byteOffset": 47760,
            "name": "mesh324_norm_bufferView",
            "target": 34962
        },
        {
            "buffer": 0,
            "byteLength": 696,
            "byteOffset": 48480,
            "name": "mesh324_idx_bufferView",
            "target": 34963
        },
        {
            "buffer": 0,
            "byteLength": 1080,
            "byteOffset": 49176,
            "name": "mesh325_coord_bufferView",
            "target": 34962
        },
        {
            "buffer": 0,
            "byteLength": 1080,
            "byteOffset": 50256,
            "name": "mesh325_norm_bufferView",
            "target": 34962
        },
        {
            "buffer": 0,
            "byteLength": 1080,
            "byteOffset": 51336,
            "name": "mesh325_idx_bufferView",
            "target": 34963
        },
        {
            "buffer": 0,
            "byteLength": 1080,
            "byteOffset": 52416,
            "name": "mesh326_coord_bufferView",
            "target": 34962
        },
        {
            "buffer": 0,
            "byteLength": 1080,
            "byteOffset": 53496,
            "name": "mesh326_norm_bufferView",
            "target": 34962
        },
        {
            "buffer": 0,
            "byteLength": 1080,
            "byteOffset": 54576,
            "name": "mesh326_idx_bufferView",
            "target": 34963
        },
        {
            "buffer": 0,
            "byteLength": 1392,
            "byteOffset": 55656,
            "name": "mesh327_coord_bufferView",
            "target": 34962
        },
        {
            "buffer": 0,
            "byteLength": 1392,
            "byteOffset": 57048,
            "name": "mesh327_norm_bufferView",
            "target": 34962
        },
        {
            "buffer": 0,
            "byteLength": 1392,
            "byteOffset": 58440,
            "name": "mesh327_idx_bufferView",
            "target": 34963
        }
    ],
    "buffers": [
        {
            "byteLength": 59832,
            "name": "Total_buffer",
            "uri": "data:application/octet-stream;base64,"
        }
    ],
    "extensionsUsed": [
        "PTC_onshape_metadata"
    ],
    "materials": [
        {
            "doubleSided": true,
            "name": "0.713725_0.760784_0.800000_0.000000_0.000000",
            "pbrMetallicRoughness": {
                "baseColorFactor": [
                    0.7137255072593689,
                    0.7607843279838562,
                    0.800000011920929,
                    1.0
                ],
                "metallicFactor": 0.0
            }
        },
        {
            "doubleSided": true,
            "name": "0.262745_0.282353_0.301961_0.000000_0.000000",
            "pbrMetallicRoughness": {
                "baseColorFactor": [
                    0.26274511218070984,
                    0.2823529541492462,
                    0.3019607961177826,
                    1.0
                ],
                "metallicFactor": 0.0
            }
        },
        {
            "doubleSided": true,
            "name": "0.917647_0.917647_0.917647_0.000000_0.000000",
            "pbrMetallicRoughness": {
                "baseColorFactor": [
                    0.9176470637321472,
                    0.9176470637321472,
                    0.9176470637321472,
                    1.0
                ],
                "metallicFactor": 0.0
            }
        },
        {
            "doubleSided": true,
            "name": "0.603922_0.647059_0.686275_0.000000_0.000000",
            "pbrMetallicRoughness": {
                "baseColorFactor": [
                    0.6039215922355652,
                    0.6470588445663452,
                    0.686274528503418,
                    1.0
                ],
                "metallicFactor": 0.0
            }
        },
        {
            "doubleSided": true,
            "name": "0.615686_0.811765_0.929412_0.000000_0.000000",
            "pbrMetallicRoughness": {
                "baseColorFactor": [
                    0.615686297416687,
                    0.8117647171020508,
                    0.929411768913269,
                    1.0
                ],
                "metallicFactor": 0.0
            }
        },
        {
            "doubleSided": true,
            "name": "0.768627_0.886275_0.952941_0.000000_0.000000",
            "pbrMetallicRoughness": {
                "baseColorFactor": [
                    0.7686274647712708,
                    0.886274516582489,
                    0.9529411792755127,
                    1.0
                ],
                "metallicFactor": 0.0
            }
        },
        {
            "doubleSided": true,
            "name": "0.972549_0.529412_0.003922_0.000000_0.000000",
            "pbrMetallicRoughness": {
                "baseColorFactor": [
                    0.9725490212440491,
                    0.529411792755127,
                    0.003921568859368563,
                    1.0
                ],
                "metallicFactor": 0.0
            }
        },
        {
            "doubleSided": true,
            "name": "0.498039_0.498039_0.498039_0.000000_0.000000",
            "pbrMetallicRoughness": {
                "baseColorFactor": [
                    0.49803921580314636,
                    0.49803921580314636,
                    0.49803921580314636,
                    1.0
                ],
                "metallicFactor": 0.0
            }
        },
        {
            "doubleSided": true,
            "name": "0.662745_0.376471_0.003922_0.000000_0.000000",
            "pbrMetallicRoughness": {
                "baseColorFactor": [
                    0.6627451181411743,
                    0.3764705955982208,
                    0.003921568859368563,
                    1.0
                ],
                "metallicFactor": 0.0
            }
        },
        {
            "doubleSided": true,
            "name": "0.349020_0.376471_0.400000_0.000000_0.000000",
            "pbrMetallicRoughness": {
                "baseColorFactor": [
                    0.3490196168422699,
                    0.3764705955982208,
                    0.4000000059604645,
                    1.0
                ],
                "metallicFactor": 0.0
            }
        },
        {
            "doubleSided": true,
            "name": "0.298039_0.298039_0.298039_0.000000_0.000000",
            "pbrMetallicRoughness": {
                "baseColorFactor": [
                    0.2980392277240753,
                    0.2980392277240753,
                    0.2980392277240753,
                    1.0
                ],
                "metallicFactor": 0.0
            }
        },
        {
            "doubleSided": true,
            "name": "0.231373_0.380392_0.705882_0.000000_0.000000",
            "pbrMetallicRoughness": {
                "baseColorFactor": [
                    0.23137255012989044,
                    0.3803921639919281,
                    0.7058823704719543,
                    1.0
                ],
                "metallicFactor": 0.0
            }
        },
        {
            "doubleSided": true,
            "name": "0.647059_0.647059_0.647059_0.000000_0.000000",
            "pbrMetallicRoughness": {
                "baseColorFactor": [
                    0.6470588445663452,
                    0.6470588445663452,
                    0.6470588445663452,
                    1.0
                ],
                "metallicFactor": 0.0
            }
        },
        {
            "doubleSided": true,
            "name": "0.980392_0.713725_0.003922_0.000000_0.000000",
            "pbrMetallicRoughness": {
                "baseColorFactor": [
                    0.9803921580314636,
                    0.7137255072593689,
                    0.003921568859368563,
                    1.0
                ],
                "metallicFactor": 0.0
            }
        },
        {
            "doubleSided": true,
            "name": "0.811765_0.858824_0.898039_0.000000_0.000000",
            "pbrMetallicRoughness": {
                "baseColorFactor": [
                    0.8117647171020508,
                    0.8588235378265381,
                    0.8980392217636108,
                    1.0
                ],
                "metallicFactor": 0.0
            }
        }
    ],
    "meshes": [
        {
            "name": "mesh300_mesh",
            "primitives": [
                {
                    "attributes": {
                        "NORMAL": 1,
                        "POSITION": 0
                    },
                    "indices": 2,
                    "material": 4
                }
            ]
        },
        {
            "name": "mesh301_mesh",
            "primitives": [
                {
                    "attributes": {
                        "NORMAL": 4,
                        "POSITION": 3
                    },
                    "indices": 5,
                    "material": 4
                }
            ]
        },
        {
            "name": "mesh302_mesh",
            "primitives": [
                {
                    "attributes": {
                        "NORMAL": 7,
                        "POSITION": 6
                    },
                    "indices": 8,
                    "material": 4
                }
            ]
        },
        {
            "name": "mesh303_mesh",
            "primitives": [
                {
                    "attributes": {
                        "NORMAL": 10,
                        "POSITION": 9
                    },
                    "indices": 11,
                    "material": 4
                }
            ]
        },
        {
            "name": "mesh304_mesh",
            "primitives": [
                {
                    "attributes": {
                        "NORMAL": 13,
                        "POSITION": 12
                    },
                    "indices": 14,
                    "material": 4
                }
            ]
        },
        {
            "name": "mesh305_mesh",
            "primitives": [
                {
                    "attributes": {
                        "NORMAL": 16,
                        "POSITION": 15
                    },
                    "indices": 17,
                    "material": 4
                }
            ]
        },
        {
            "name": "mesh306_mesh",
            "primitives": [
                {
                    "attributes": {
                        "NORMAL": 19,
                        "POSITION": 18
                    },
                    "indices": 20,
                    "material": 4
                }
            ]
        },
        {
            "name": "mesh307_mesh",
            "primitives": [
                {
                    "attributes": {
                        "NORMAL": 22,
                        "POSITION": 21
                    },
                    "indices": 23,
                    "material": 4
                }
            ]
        },
        {
            "name": "mesh308_mesh",
            "primitives": [
                {
                    "attributes": {
                        "NORMAL": 25,
                        "POSITION": 24
                    },
                    "indices": 26,
                    "material": 4
                }
            ]
        },
        {
            "name": "mesh309_mesh",
            "primitives": [
                {
                    "attributes": {
                        "NORMAL": 28,
                        "POSITION": 27
                    },
                    "indices": 29,
                    "material": 4
                }
            ]
        },
        {
            "name": "mesh310_mesh",
            "primitives": [
                {
                    "attributes": {
                        "NORMAL": 31,
                        "POSITION": 30
                    },
                    "indices": 32,
                    "material": 4
                }
            ]
        },
        {
            "name": "mesh311_mesh",
            "primitives": [
                {
                    "attributes": {
                        "NORMAL": 34,
                        "POSITION": 33
                    },
                    "indices": 35,
                    "material": 4
                }
            ]
        },
        {
            "name": "mesh312_mesh",
            "primitives": [
                {
                    "attributes": {
                        "NORMAL": 37,
                        "POSITION": 36
                    },
                    "indices": 38,
                    "material": 4
                }
            ]
        },
        {
            "name": "mesh313_mesh",
            "primitives": [
                {
                    "attributes": {
                        "NORMAL": 40,
                        "POSITION": 39
                    },
                    "indices": 41,
                    "material": 4
                }
            ]
        },
        {
            "name": "mesh314_mesh",
            "primitives": [
                {
                    "attributes": {
                        "NORMAL": 43,
                        "POSITION": 42
                    },
                    "indices": 44,
                    "material": 4
                }
            ]
        },
        {
            "name": "mesh315_mesh",
            "primitives": [
                {
                    "attributes": {
                        "NORMAL": 46,
                        "POSITION": 45
                    },
                    "indices": 47,
                    "material": 4
                }
            ]
        },
        {
            "name": "mesh316_mesh",
            "primitives": [
                {
                    "attributes": {
                        "NORMAL": 49,
                        "POSITION": 48
                    },
                    "indices": 50,
                    "material": 4
                }
            ]
        },
        {
            "name": "mesh317_mesh",
            "primitives": [
                {
                    "attributes": {
                        "NORMAL": 52,
                        "POSITION": 51
                    },
                    "indices": 53,
                    "material": 4
                }
            ]
        },
        {
            "name": "mesh318_mesh",
            "primitives": [
                {
                    "attributes": {
                        "NORMAL": 55,
                        "POSITION": 54
                    },
                    "indices": 56,
                    "material": 4
                }
            ]
        },
        {
            "name": "mesh319_mesh",
            "primitives": [
                {
                    "attributes": {
                        "NORMAL": 58,
                        "POSITION": 57
                    },
                    "indices": 59,
                    "material": 4
                }
            ]
        },
        {
            "name": "mesh320_mesh",
            "primitives": [
                {
                    "attributes": {
                        "NORMAL": 61,
                        "POSITION": 60
                    },
                    "indices": 62,
                    "material": 4
                }
            ]
        },
        {
            "name": "mesh321_mesh",
            "primitives": [
                {
                    "attributes": {
                        "NORMAL": 64,
                        "POSITION": 63
                    },
                    "indices": 65,
                    "material": 4
                }
            ]
        },
        {
            "name": "mesh322_mesh",
            "primitives": [
                {
                    "attributes": {
                        "NORMAL": 67,
                        "POSITION": 66
                    },
                    "indices": 68,
                    "material": 4
                }
            ]
        },
        {
            "name": "mesh323_mesh",
            "primitives": [
                {
                    "attributes": {
                        "NORMAL": 70,
                        "POSITION": 69
                    },
                    "indices": 71,
                    "material": 4
                }
            ]
        },
        {
            "name": "mesh324_mesh",
            "primitives": [
                {
                    "attributes": {
                        "NORMAL": 73,
                        "POSITION": 72
                    },
                    "indices": 74,
                    "material": 4
                }
            ]
        },
        {
            "name": "mesh325_mesh",
            "primitives": [
                {
                    "attributes": {
                        "NORMAL": 76,
                        "POSITION": 75
                    },
                    "indices": 77,
                    "material": 4
                }
            ]
        },
        {
            "name": "mesh326_mesh",
            "primitives": [
                {
                    "attributes": {
                        "NORMAL": 79,
                        "POSITION": 78
                    },
                    "indices": 80,
                    "material": 4
                }
            ]
        },
        {
            "name": "mesh327_mesh",
            "primitives": [
                {
                    "attributes": {
                        "NORMAL": 82,
                        "POSITION": 81
                    },
                    "indices": 83,
                    "material": 4
                }
            ]
        }
    ],
    "nodes": [
        {
            "mesh": 0,
            "name": "mesh300"
        },
        {
            "mesh": 1,
            "name": "mesh301"
        },
        {
            "mesh": 2,
            "name": "mesh302"
        },
        {
            "mesh": 3,
            "name": "mesh303"
        },
        {
            "mesh": 4,
            "name": "mesh304"
        },
        {
            "mesh": 5,
            "name": "mesh305"
        },
        {
            "mesh": 6,
            "name": "mesh306"
        },
        {
            "mesh": 7,
            "name": "mesh307"
        },
        {
            "mesh": 8,
            "name": "mesh308"
        },
        {
            "mesh": 9,
            "name": "mesh309"
        },
        {
            "mesh": 10,
            "name": "mesh310"
        },
        {
            "mesh": 11,
            "name": "mesh311"
        },
        {
            "mesh": 12,
            "name": "mesh312"
        },
        {
            "mesh": 13,
            "name": "mesh313"
        },
        {
            "mesh": 14,
            "name": "mesh314"
        },
        {
            "mesh": 15,
            "name": "mesh315"
        },
        {
            "mesh": 16,
            "name": "mesh316"
        },
        {
            "mesh": 17,
            "name": "mesh317"
        },
        {
            "mesh": 18,
            "name": "mesh318"
        },
        {
            "mesh": 19,
            "name": "mesh319"
        },
        {
            "mesh": 20,
            "name": "mesh320"
        },
        {
            "mesh": 21,
            "name": "mesh321"
        },
        {
            "mesh": 22,
            "name": "mesh322"
        },
        {
            "mesh": 23,
            "name": "mesh323"
        },
        {
            "mesh": 24,
            "name": "mesh324"
        },
        {
            "mesh": 25,
            "name": "mesh325"
        },
        {
            "mesh": 26,
            "name": "mesh326"
        },
        {
            "mesh": 27,
            "name": "mesh327"
        }
    ],
    "scene": 0,
    "scenes": [
        {
            "name": "Root",
            "nodes": [
                0,
                1,
                2,
                3,
                4,
                5,
                6,
                7,
                8,
                9,
                10,
                11,
                12,
                13,
                14,
                15,
                16,
                17,
                18,
                19,
                20,
                21,
                22,
                23,
                24,
                25,
                26,
                27
            ]
        }
    ]
}