{
    "accessors": [
        {
            "bufferView": 0,
            "componentType": 5126,
            "count": 59,
            "max": [
                0.001621113857254386,
                0.0016187364235520363,
                -0.010200000368058681
            ],
            "min": [
                -0.001621113857254386,
                -0.0016187364235520363,
                -0.010200000368058681
            ],
            "name": "mesh491_coord_accessor",
            "type": "VEC3"
        },
        {
            "bufferView": 1,
            "componentType": 5126,
            "count": 59,
            "max": [
                -0.0,
                -0.0,
                -1.0
            ],
            "min": [
                -0.0,
                -0.0,
                -1.0
            ],
            "name": "mesh491_norm_accessor",
            "type": "VEC3"
        },
        {
            "bufferView": 2,
            "componentType": 5125,
            "count": 174,
            "max": [
                58
            ],
            "min": [
                0
            ],
            "name": "mesh491_idx_accessor",
            "type": "SCALAR"
        },
        {
            "bufferView": 3,
            "componentType": 5126,
            "count": 116,
            "max": [
                0.0020000000949949026,
                0.001997066894546151,
                -0.009821114130318165
            ],
            "min": [
                -0.0020000000949949026,
                -0.001997066894546151,
                -0.010200000368058681
            ],
            "name": "mesh492_coord_accessor",
            "type": "VEC3"
        },
        {
            "bufferView": 4,
            "componentType": 5126,
            "count": 116,
            "max": [
                0.7071067690849304,
                0.7060697674751282,
                -0.7071067690849304
            ],
            "min": [
                -0.7071067690849304,
                -0.7060697674751282,
                -0.7071067690849304
            ],
            "name": "mesh492_norm_accessor",
            "type": "VEC3"
        },
        {
            "bufferView": 5,
            "componentType": 5125,
            "count": 348,
            "max": [
                115
            ],
            "min": [
                0
            ],
            "name": "mesh492_idx_accessor",
            "type": "SCALAR"
        },
        {
            "bufferView": 6,
            "componentType": 5126,
            "count": 116,
            "max": [
                0.0020000000949949026,
                0.001997066894546151,
                -0.002400000113993883
            ],
            "min": [
                -0.0020000000949949026,
                -0.001997066894546151,
                -0.009821114130318165
            ],
            "name": "mesh493_coord_accessor",
            "type": "VEC3"
        },
        {
            "bufferView": 7,
            "componentType": 5126,
            "count": 116,
            "max": [
                1.0,
                0.9985334277153015,
                0.0
            ],
            "min": [
                -1.0,
                -0.9985334277153015,
                0.0
            ],
            "name": "mesh493_norm_accessor",
            "type": "VEC3"
        },
        {
            "bufferView": 8,
            "componentType": 5125,
            "count": 348,
            "max": [
                115
            ],
            "min": [
                0
            ],
            "name": "mesh493_idx_accessor",
            "type": "SCALAR"
        },
        {
            "bufferView": 9,
            "componentType": 5126,
            "count": 928,
            "max": [
                0.002199999988079071,
                0.0021967734210193157,
                -0.002199999988079071
            ],
            "min": [
                -0.002199999988079071,
                -0.0021967734210193157,
                -0.002400000113993883
            ],
            "name": "mesh494_coord_accessor",
            "type": "VEC3"
        },
        {
            "bufferView": 10,
            "componentType": 5126,
            "count": 928,
            "max": [
                1.0,
                0.9985334277153015,
                -1.2246468525851679e-16
            ],
            "min": [
                -1.0,
                -0.9985334277153015,
                -1.0
            ],
            "name": "mesh494_norm_accessor",
            "type": "VEC3"
        },
        {
            "bufferView": 11,
            "componentType": 5125,
            "count": 5220,
            "max": [
                927
            ],
            "min": [
                0
            ],
            "name": "mesh494_idx_accessor",
            "type": "SCALAR"
        },
        {
            "bufferView": 12,
            "componentType": 5126,
            "count": 116,
            "max": [
                0.003800000064074993,
                0.003794427029788494,
                -0.002199999988079071
            ],
            "min": [
                -0.003800000064074993,
                -0.003794427029788494,
                -0.002199999988079071
            ],
            "name": "mesh495_coord_accessor",
            "type": "VEC3"
        },
        {
            "bufferView": 13,
            "componentType": 5126,
            "count": 116,
            "max": [
                0.0,
                0.0,
                -1.0
            ],
            "min": [
                0.0,
                0.0,
                -1.0
            ],
            "name": "mesh495_norm_accessor",
            "type": "VEC3"
        },
        {
            "bufferView": 14,
            "componentType": 5125,
            "count": 348,
            "max": [
                115
            ],
            "min": [
                0
            ],
            "name": "mesh495_idx_accessor",
            "type": "SCALAR"
        },
        {
            "bufferView": 15,
            "componentType": 5126,
            "count": 464,
            "max": [
                0.003800000064074993,
                0.003794427029788494,
                4.336808689942018e-19
            ],
            "min": [
                -0.003800000064074993,
                -0.003794427029788494,
                -0.002199999988079071
            ],
            "name": "mesh496_coord_accessor",
            "type": "VEC3"
        },
        {
            "bufferView": 16,
            "componentType": 5126,
            "count": 464,
            "max": [
                0.9414102435112,
                0.9400296211242676,
                0.8822906017303467
            ],
            "min": [
                -0.9414102435112,
                -0.9400296211242676,
                0.3372636139392853
            ],
            "name": "mesh496_norm_accessor",
            "type": "VEC3"
        },
        {
            "bufferView": 17,
            "componentType": 5125,
            "count": 2436,
            "max": [
                463
            ],
            "min": [
                0
            ],
            "name": "mesh496_idx_accessor",
            "type": "SCALAR"
        },
        {
            "bufferView": 18,
            "componentType": 5126,
            "count": 64,
            "max": [
                0.0019000000320374966,
                0.001897213514894247,
                4.336808689942018e-19
            ],
            "min": [
                -0.0019000000320374966,
                -0.001897213514894247,
                0.0
            ],
            "name": "mesh497_coord_accessor",
            "type": "VEC3"
        },
        {
            "bufferView": 19,
            "componentType": 5126,
            "count": 64,
            "max": [
                -0.0,
                -0.0,
                1.0
            ],
            "min": [
                -0.0,
                -0.0,
                1.0
            ],
            "name": "mesh497_norm_accessor",
            "type": "VEC3"
        },
        {
            "bufferView": 20,
            "componentType": 5125,
            "count": 192,
            "max": [
                63
            ],
            "min": [
                0
            ],
            "name": "mesh497_idx_accessor",
            "type": "SCALAR"
        },
        {
            "bufferView": 21,
            "componentType": 5126,
            "count": 5,
            "max": [
                0.0012499999720603228,
                0.0014433757169172168,
                0.0
            ],
            "min": [
                3.2526065174565133e-19,
                0.0007216878584586084,
                -0.0013000000035390258
            ],
            "name": "mesh498_coord_accessor",
            "type": "VEC3"
        },
        {
            "bufferView": 22,
            "componentType": 5126,
            "count": 5,
            "max": [
                -0.5,
                -0.8660253882408142,
                0.0
            ],
            "min": [
                -0.5,
                -0.8660253882408142,
                0.0
            ],
            "name": "mesh498_norm_accessor",
            "type": "VEC3"
        },
        {
            "bufferView": 23,
            "componentType": 5125,
            "count": 9,
            "max": [
                4
            ],
            "min": [
                0
            ],
            "name": "mesh498_idx_accessor",
            "type": "SCALAR"
        },
        {
            "bufferView": 24,
            "componentType": 5126,
            "count": 5,
            "max": [
                3.2526065174565133e-19,
                0.0014433757169172168,
                0.0
            ],
            "min": [
                -0.0012499999720603228,
                0.0007216878584586084,
                -0.0013000000035390258
            ],
            "name": "mesh499_coord_accessor",
            "type": "VEC3"
        },
        {
            "bufferView": 25,
            "componentType": 5126,
            "count": 5,
            "max": [
                0.5,
                -0.8660253882408142,
                0.0
            ],
            "min": [
                0.5,
                -0.8660253882408142,
                0.0
            ],
            "name": "mesh499_norm_accessor",
            "type": "VEC3"
        },
        {
            "bufferView": 26,
            "componentType": 5125,
            "count": 9,
            "max": [
                4
            ],
            "min": [
                0
            ],
            "name": "mesh499_idx_accessor",
            "type": "SCALAR"
        },
        {
            "bufferView": 27,
            "componentType": 5126,
            "count": 5,
            "max": [
                -0.0012499999720603228,
                0.0007216878584586084,
                0.0
            ],
            "min": [
                -0.0012499999720603228,
                -0.0007216878584586084,
                -0.0013000000035390258
            ],
            "name": "mesh500_coord_accessor",
            "type": "VEC3"
        },
        {
            "bufferView": 28,
            "componentType": 5126,
            "count": 5,
            "max": [
                1.0,
                0.0,
                0.0
            ],
            "min": [
                1.0,
                0.0,
                0.0
            ],
            "name": "mesh500_norm_accessor",
            "type": "VEC3"
        },
        {
            "bufferView": 29,
            "componentType": 5125,
            "count": 9,
            "max": [
                4
            ],
            "min": [
                0
            ],
            "name": "mesh500_idx_accessor",
            "type": "SCALAR"
        },
        {
            "bufferView": 30,
            "componentType": 5126,
            "count": 5,
            "max": [
                2.168404344971009e-19,
                -0.0007216878584586084,
                0.0
            ],
            "min": [
                -0.0012499999720603228,
                -0.0014433757169172168,
                -0.0013000000035390258
            ],
            "name": "mesh501_coord_accessor",
            "type": "VEC3"
        },
        {
            "bufferView": 31,
            "componentType": 5126,
            "count": 5,
            "max": [
                0.5,
                0.8660253882408142,
                0.0
            ],
            "min": [
                0.5,
                0.8660253882408142,
                0.0
            ],
            "name": "mesh501_norm_accessor",
            "type": "VEC3"
        },
        {
            "bufferView": 32,
            "componentType": 5125,
            "count": 9,
            "max": [
                4
            ],
            "min": [
                0
            ],
            "name": "mesh501_idx_accessor",
            "type": "SCALAR"
        },
        {
            "bufferView": 33,
            "componentType": 5126,
            "count": 5,
            "max": [
                0.0012499999720603228,
                -0.0007216878584586084,
                0.0
            ],
            "min": [
                2.168404344971009e-19,
                -0.0014433757169172168,
                -0.0013000000035390258
            ],
            "name": "mesh502_coord_accessor",
            "type": "VEC3"
        },
        {
            "bufferView": 34,
            "componentType": 5126,
            "count": 5,
            "max": [
                -0.5,
                0.8660253882408142,
                0.0
            ],
            "min": [
                -0.5,
                0.8660253882408142,
                0.0
            ],
            "name": "mesh502_norm_accessor",
            "type": "VEC3"
        },
        {
            "bufferView": 35,
            "componentType": 5125,
            "count": 9,
            "max": [
                4
            ],
            "min": [
                0
            ],
            "name": "mesh502_idx_accessor",
            "type": "SCALAR"
        },
        {
            "bufferView": 36,
            "componentType": 5126,
            "count": 5,
            "max": [
                0.0012499999720603228,
                0.0007216878584586084,
                0.0
            ],
            "min": [
                0.0012499999720603228,
                -0.0007216878584586084,
                -0.0013000000035390258
            ],
            "name": "mesh503_coord_accessor",
            "type": "VEC3"
        },
        {
            "bufferView": 37,
            "componentType": 5126,
            "count": 5,
            "max": [
                -1.0,
                0.0,
                0.0
            ],
            "min": [
                -1.0,
                0.0,
                0.0
            ],
            "name": "mesh503_norm_accessor",
            "type": "VEC3"
        },
        {
            "bufferView": 38,
            "componentType": 5125,
            "count": 9,
            "max": [
                4
            ],
            "min": [
                0
            ],
            "name": "mesh503_idx_accessor",
            "type": "SCALAR"
        },
        {
            "bufferView": 39,
            "componentType": 5126,
            "count": 12,
            "max": [
                0.0012499999720603228,
                0.0010825317585840821,
                -0.0013000000035390258
            ],
            "min": [
                0.0006249999860301614,
                0.0,
                -0.0013000000035390258
            ],
            "name": "mesh504_coord_accessor",
            "type": "VEC3"
        },
        {
            "bufferView": 40,
            "componentType": 5126,
            "count": 12,
            "max": [
                0.0,
                0.0,
                1.0
            ],
            "min": [
                0.0,
                0.0,
                1.0
            ],
            "name": "mesh504_norm_accessor",
            "type": "VEC3"
        },
        {
            "bufferView": 41,
            "componentType": 5125,
            "count": 30,
            "max": [
                11
            ],
            "min": [
                0
            ],
            "name": "mesh504_idx_accessor",
            "type": "SCALAR"
        },
        {
            "bufferView": 42,
            "componentType": 5126,
            "count": 124,
            "max": [
                0.0012499999720603228,
                0.001248166779987514,
                -0.0013000000035390258
            ],
            "min": [
                -0.0012499999720603228,
                -0.001248166779987514,
                -0.0017549628391861916
            ],
            "name": "mesh505_coord_accessor",
            "type": "VEC3"
        },
        {
            "bufferView": 43,
            "componentType": 5126,
            "count": 124,
            "max": [
                0.3420201539993286,
                0.3420201539993286,
                0.9396926164627075
            ],
            "min": [
                -0.3420201539993286,
                -0.3420201539993286,
                0.9396926164627075
            ],
            "name": "mesh505_norm_accessor",
            "type": "VEC3"
        },
        {
            "bufferView": 44,
            "componentType": 5125,
            "count": 186,
            "max": [
                123
            ],
            "min": [
                0
            ],
            "name": "mesh505_idx_accessor",
            "type": "SCALAR"
        },
        {
            "bufferView": 45,
            "componentType": 5126,
            "count": 13,
            "max": [
                0.0006249999860301614,
                0.0014433757169172168,
                -0.0013000000035390258
            ],
            "min": [
                -0.0006249999860301614,
                0.0010825317585840821,
                -0.0013000000035390258
            ],
            "name": "mesh506_coord_accessor",
            "type": "VEC3"
        },
        {
            "bufferView": 46,
            "componentType": 5126,
            "count": 13,
            "max": [
                0.0,
                0.0,
                1.0
            ],
            "min": [
                0.0,
                0.0,
                1.0
            ],
            "name": "mesh506_norm_accessor",
            "type": "VEC3"
        },
        {
            "bufferView": 47,
            "componentType": 5125,
            "count": 33,
            "max": [
                12
            ],
            "min": [
                0
            ],
            "name": "mesh506_idx_accessor",
            "type": "SCALAR"
        },
        {
            "bufferView": 48,
            "componentType": 5126,
            "count": 12,
            "max": [
                -0.0006249999860301614,
                0.0010825317585840821,
                -0.0013000000035390258
            ],
            "min": [
                -0.0012499999720603228,
                0.0,
                -0.0013000000035390258
            ],
            "name": "mesh507_coord_accessor",
            "type": "VEC3"
        },
        {
            "bufferView": 49,
            "componentType": 5126,
            "count": 12,
            "max": [
                0.0,
                0.0,
                1.0
            ],
            "min": [
                0.0,
                0.0,
                1.0
            ],
            "name": "mesh507_norm_accessor",
            "type": "VEC3"
        },
        {
            "bufferView": 50,
            "componentType": 5125,
            "count": 30,
            "max": [
                11
            ],
            "min": [
                0
            ],
            "name": "mesh507_idx_accessor",
            "type": "SCALAR"
        },
        {
            "bufferView": 51,
            "componentType": 5126,
            "count": 12,
            "max": [
                -0.0006249999860301614,
                0.0,
                -0.0013000000035390258
            ],
            "min": [
                -0.0012499999720603228,
                -0.0010825317585840821,
                -0.0013000000035390258
            ],
            "name": "mesh508_coord_accessor",
            "type": "VEC3"
        },
        {
            "bufferView": 52,
            "componentType": 5126,
            "count": 12,
            "max": [
                0.0,
                0.0,
                1.0
            ],
            "min": [
                0.0,
                0.0,
                1.0
            ],
            "name": "mesh508_norm_accessor",
            "type": "VEC3"
        },
        {
            "bufferView": 53,
            "componentType": 5125,
            "count": 30,
            "max": [
                11
            ],
            "min": [
                0
            ],
            "name": "mesh508_idx_accessor",
            "type": "SCALAR"
        },
        {
            "bufferView": 54,
            "componentType": 5126,
            "count": 13,
            "max": [
                0.0006249999860301614,
                -0.0010825317585840821,
                -0.0013000000035390258
            ],
            "min": [
                -0.0006249999860301614,
                -0.0014433757169172168,
                -0.0013000000035390258
            ],
            "name": "mesh509_coord_accessor",
            "type": "VEC3"
        },
        {
            "bufferView": 55,
            "componentType": 5126,
            "count": 13,
            "max": [
                0.0,
                0.0,
                1.0
            ],
            "min": [
                0.0,
                0.0,
                1.0
            ],
            "name": "mesh509_norm_accessor",
            "type": "VEC3"
        },
        {
            "bufferView": 56,
            "componentType": 5125,
            "count": 33,
            "max": [
                12
            ],
            "min": [
                0
            ],
            "name": "mesh509_idx_accessor",
            "type": "SCALAR"
        },
        {
            "bufferView": 57,
            "componentType": 5126,
            "count": 12,
            "max": [
                0.0012499999720603228,
                0.0,
                -0.0013000000035390258
            ],
            "min": [
                0.0006249999860301614,
                -0.0010825317585840821,
                -0.0013000000035390258
            ],
            "name": "mesh510_coord_accessor",
            "type": "VEC3"
        },
        {
            "bufferView": 58,
            "componentType": 5126,
            "count": 12,
            "max": [
                0.0,
                0.0,
                1.0
            ],
            "min": [
                0.0,
                0.0,
                1.0
            ],
            "name": "mesh510_norm_accessor",
            "type": "VEC3"
        },
        {
            "bufferView": 59,
            "componentType": 5125,
            "count": 30,
            "max": [
                11
            ],
            "min": [
                0
            ],
            "name": "mesh510_idx_accessor",
            "type": "SCALAR"
        }
    ],
    "asset": {
        "generator": "ONSHAPE BY PTC INC, 1.221",
        "version": "2.0"
    },
    "bufferViews": [
        {
            "buffer": 0,
            "byteLength": 708,
            "name": "mesh491_coord_bufferView",
            "target": 34962
        },
        {
            "buffer": 0,
            "byteLength": 708,
            "byteOffset": 708,
            "name": "mesh491_norm_bufferView",
            "target": 34962
        },
        {
            "buffer": 0,
            "byteLength": 696,
            "byteOffset": 1416,
            "name": "mesh491_idx_bufferView",
            "target": 34963
        },
        {
            "buffer": 0,
            "byteLength": 1392,
            "byteOffset": 2112,
            "name": "mesh492_coord_bufferView",
            "target": 34962
        },
        {
            "buffer": 0,
            "byteLength": 1392,
            "byteOffset": 3504,
            "name": "mesh492_norm_bufferView",
            "target": 34962
        },
        {
            "buffer": 0,
            "byteLength": 1392,
            "byteOffset": 4896,
            "name": "mesh492_idx_bufferView",
            "target": 34963
        },
        {
            "buffer": 0,
            "byteLength": 1392,
            "byteOffset": 6288,
            "name": "mesh493_coord_bufferView",
            "target": 34962
        },
        {
            "buffer": 0,
            "byteLength": 1392,
            "byteOffset": 7680,
            "name": "mesh493_norm_bufferView",
            "target": 34962
        },
        {
            "buffer": 0,
            "byteLength": 1392,
            "byteOffset": 9072,
            "name": "mesh493_idx_bufferView",
            "target": 34963
        },
        {
            "buffer": 0,
            "byteLength": 11136,
            "byteOffset": 10464,
            "name": "mesh494_coord_bufferView",
            "target": 34962
        },
        {
            "buffer": 0,
            "byteLength": 11136,
            "byteOffset": 21600,
            "name": "mesh494_norm_bufferView",
            "target": 34962
        },
        {
            "buffer": 0,
            "byteLength": 20880,
            "byteOffset": 32736,
            "name": "mesh494_idx_bufferView",
            "target": 34963
        },
        {
            "buffer": 0,
            "byteLength": 1392,
            "byteOffset": 53616,
            "name": "mesh495_coord_bufferView",
            "target": 34962
        },
        {
            "buffer": 0,
            "byteLength": 1392,
            "byteOffset": 55008,
            "name": "mesh495_norm_bufferView",
            "target": 34962
        },
        {
            "buffer": 0,
            "byteLength": 1392,
            "byteOffset": 56400,
            "name": "mesh495_idx_bufferView",
            "target": 34963
        },
        {
            "buffer": 0,
            "byteLength": 5568,
            "byteOffset": 57792,
            "name": "mesh496_coord_bufferView",
            "target": 34962
        },
        {
            "buffer": 0,
            "byteLength": 5568,
            "byteOffset": 63360,
            "name": "mesh496_norm_bufferView",
            "target": 34962
        },
        {
            "buffer": 0,
            "byteLength": 9744,
            "byteOffset": 68928,
            "name": "mesh496_idx_bufferView",
            "target": 34963
        },
        {
            "buffer": 0,
            "byteLength": 768,
            "byteOffset": 78672,
            "name": "mesh497_coord_bufferView",
            "target": 34962
        },
        {
            "buffer": 0,
            "byteLength": 768,
            "byteOffset": 79440,
            "name": "mesh497_norm_bufferView",
            "target": 34962
        },
        {
            "buffer": 0,
            "byteLength": 768,
            "byteOffset": 80208,
            "name": "mesh497_idx_bufferView",
            "target": 34963
        },
        {
            "buffer": 0,
            "byteLength": 60,
            "byteOffset": 80976,
            "name": "mesh498_coord_bufferView",
            "target": 34962
        },
        {
            "buffer": 0,
            "byteLength": 60,
            "byteOffset": 81036,
            "name": "mesh498_norm_bufferView",
            "target": 34962
        },
        {
            "buffer": 0,
            "byteLength": 36,
            "byteOffset": 81096,
            "name": "mesh498_idx_bufferView",
            "target": 34963
        },
        {
            "buffer": 0,
            "byteLength": 60,
            "byteOffset": 81132,
            "name": "mesh499_coord_bufferView",
            "target": 34962
        },
        {
            "buffer": 0,
            "byteLength": 60,
            "byteOffset": 81192,
            "name": "mesh499_norm_bufferView",
            "target": 34962
        },
        {
            "buffer": 0,
            "byteLength": 36,
            "byteOffset": 81252,
            "name": "mesh499_idx_bufferView",
            "target": 34963
        },
        {
            "buffer": 0,
            "byteLength": 60,
            "byteOffset": 81288,
            "name": "mesh500_coord_bufferView",
            "target": 34962
        },
        {
            "buffer": 0,
            "byteLength": 60,
            "byteOffset": 81348,
            "name": "mesh500_norm_bufferView",
            "target": 34962
        },
        {
            "buffer": 0,
            "byteLength": 36,
            "byteOffset": 81408,
            "name": "mesh500_idx_bufferView",
            "target": 34963
        },
        {
            "buffer": 0,
            "byteLength": 60,
            "byteOffset": 81444,
            "name": "mesh501_coord_bufferView",
            "target": 34962
        },
        {
            "buffer": 0,
            "byteLength": 60,
            "byteOffset": 81504,
            "name": "mesh501_norm_bufferView",
            "target": 34962
        },
        {
            "buffer": 0,
            "byteLength": 36,
            "byteOffset": 81564,
            "name": "mesh501_idx_bufferView",
            "target": 34963
        },
        {
            "buffer": 0,
            "byteLength": 60,
            "byteOffset": 81600,
            "name": "mesh502_coord_bufferView",
            "target": 34962
        },
        {
            "buffer": 0,
            "byteLength": 60,
            "byteOffset": 81660,
            "name": "mesh502_norm_bufferView",
            "target": 34962
        },
        {
            "buffer": 0,
            "byteLength": 36,
            "byteOffset": 81720,
            "name": "mesh502_idx_bufferView",
            "target": 34963
        },
        {
            "buffer": 0,
            "byteLength": 60,
            "byteOffset": 81756,
            "name": "mesh503_coord_bufferView",
            "target": 34962
        },
        {
            "buffer": 0,
            "byteLength": 60,
            "byteOffset": 81816,
            "name": "mesh503_norm_bufferView",
            "target": 34962
        },
        {
            "buffer": 0,
            "byteLength": 36,
            "byteOffset": 81876,
            "name": "mesh503_idx_bufferView",
            "target": 34963
        },
        {
            "buffer": 0,
            "byteLength": 144,
            "byteOffset": 81912,
            "name": "mesh504_coord_bufferView",
            "target": 34962
        },
        {
            "buffer": 0,
            "byteLength": 144,
            "byteOffset": 82056,
            "name": "mesh504_norm_bufferView",
            "target": 34962
        },
        {
            "buffer": 0,
            "byteLength": 120,
            "byteOffset": 82200,
            "name": "mesh504_idx_bufferView",
            "target": 34963
        },
        {
            "buffer": 0,
            "byteLength": 1488,
            "byteOffset": 82320,
            "name": "mesh505_coord_bufferView",
            "target": 34962
        },
        {
            "buffer": 0,
            "byteLength": 1488,
            "byteOffset": 83808,
            "name": "mesh505_norm_bufferView",
            "target": 34962
        },
        {
            "buffer": 0,
            "byteLength": 744,
            "byteOffset": 85296,
            "name": "mesh505_idx_bufferView",
            "target": 34963
        },
        {
            "buffer": 0,
            "byteLength": 156,
            "byteOffset": 86040,
            "name": "mesh506_coord_bufferView",
            "target": 34962
        },
        {
            "buffer": 0,
            "byteLength": 156,
            "byteOffset": 86196,
            "name": "mesh506_norm_bufferView",
            "target": 34962
        },
        {
            "buffer": 0,
            "byteLength": 132,
            "byteOffset": 86352,
            "name": "mesh506_idx_bufferView",
            "target": 34963
        },
        {
            "buffer": 0,
            "byteLength": 144,
            "byteOffset": 86484,
            "name": "mesh507_coord_bufferView",
            "target": 34962
        },
        {
            "buffer": 0,
            "byteLength": 144,
            "byteOffset": 86628,
            "name": "mesh507_norm_bufferView",
            "target": 34962
        },
        {
            "buffer": 0,
            "byteLength": 120,
            "byteOffset": 86772,
            "name": "mesh507_idx_bufferView",
            "target": 34963
        },
        {
            "buffer": 0,
            "byteLength": 144,
            "byteOffset": 86892,
            "name": "mesh508_coord_bufferView",
            "target": 34962
        },
        {
            "buffer": 0,
            "byteLength": 144,
            "byteOffset": 87036,
            "name": "mesh508_norm_bufferView",
            "target": 34962
        },
        {
            "buffer": 0,
            "byteLength": 120,
            "byteOffset": 87180,
            "name": "mesh508_idx_bufferView",
            "target": 34963
        },
        {
            "buffer": 0,
            "byteLength": 156,
            "byteOffset": 87300,
            "name": "mesh509_coord_bufferView",
            "target": 34962
        },
        {
            "buffer": 0,
            "byteLength": 156,
            "byteOffset": 87456,
            "name": "mesh509_norm_bufferView",
            "target": 34962
        },
        {
            "buffer": 0,
            "byteLength": 132,
            "byteOffset": 87612,
            "name": "mesh509_idx_bufferView",
            "target": 34963
        },
        {
            "buffer": 0,
            "byteLength": 144,
            "byteOffset": 87744,
            "name": "mesh510_coord_bufferView",
            "target": 34962
        },
        {
            "buffer": 0,
            "byteLength": 144,
            "byteOffset": 87888,
            "name": "mesh510_norm_bufferView",
            "target": 34962
        },
        {
            "buffer": 0,
            "byteLength": 120,
            "byteOffset": 88032,
            "name": "mesh510_idx_bufferView",
            "target": 34963
        }
    ],
    "buffers": [
        {
            "byteLength": 88152,
            "name": "Total_buffer",
            "uri": "data:application/octet-stream;base64,"
        }
    ],
    "extensionsUsed": [
        "PTC_onshape_metadata"
    ],
    "materials": [
        {
            "doubleSided": true,
            "name": "0.713725_0.760784_0.800000_0.000000_0.000000",
            "pbrMetallicRoughness": {
                "baseColorFactor": [
                    0.7137255072593689,
                    0.7607843279838562,
                    0.800000011920929,
                    1.0
                ],
                "metallicFactor": 0.0
            }
        },
        {
            "doubleSided": true,
            "name": "0.262745_0.282353_0.301961_0.000000_0.000000",
            "pbrMetallicRoughness": {
                "baseColorFactor": [
                    0.26274511218070984,
                    0.2823529541492462,
                    0.3019607961177826,
                    1.0
                ],
                "metallicFactor": 0.0
            }
        },
        {
            "doubleSided": true,
            "name": "0.917647_0.917647_0.917647_0.000000_0.000000",
            "pbrMetallicRoughness": {
                "baseColorFactor": [
                    0.9176470637321472,
                    0.9176470637321472,
                    0.9176470637321472,
                    1.0
                ],
                "metallicFactor": 0.0
            }
        },
        {
            "doubleSided": true,
            "name": "0.603922_0.647059_0.686275_0.000000_0.000000",
            "pbrMetallicRoughness": {
                "baseColorFactor": [
                    0.6039215922355652,
                    0.6470588445663452,
                    0.686274528503418,
                    1.0
                ],
                "metallicFactor": 0.0
            }
        },
        {
            "doubleSided": true,
            "name": "0.615686_0.811765_0.929412_0.000000_0.000000",
            "pbrMetallicRoughness": {
                "baseColorFactor": [
                    0.615686297416687,
                    0.8117647171020508,
                    0.929411768913269,
                    1.0
                ],
                "metallicFactor": 0.0
            }
        },
        {
            "doubleSided": true,
            "name": "0.768627_0.886275_0.952941_0.000000_0.000000",
            "pbrMetallicRoughness": {
                "baseColorFactor": [
                    0.7686274647712708,
                    0.886274516582489,
                    0.9529411792755127,
                    1.0
                ],
                "metallicFactor": 0.0
            }
        },
        {
            "doubleSided": true,
            "name": "0.972549_0.529412_0.003922_0.000000_0.000000",
            "pbrMetallicRoughness": {
                "baseColorFactor": [
                    0.9725490212440491,
                    0.529411792755127,
                    0.003921568859368563,
                    1.0
                ],
                "metallicFactor": 0.0
            }
        },
        {
            "doubleSided": true,
            "name": "0.498039_0.498039_0.498039_0.000000_0.000000",
            "pbrMetallicRoughness": {
                "baseColorFactor": [
                    0.49803921580314636,
                    0.49803921580314636,
                    0.49803921580314636,
                    1.0
                ],
                "metallicFactor": 0.0
            }
        },
        {
            "doubleSided": true,
            "name": "0.662745_0.376471_0.003922_0.000000_0.000000",
            "pbrMetallicRoughness": {
                "baseColorFactor": [
                    0.6627451181411743,
                    0.3764705955982208,
                    0.003921568859368563,
                    1.0
                ],
                "metallicFactor": 0.0
            }
        },
        {
            "doubleSided": true,
            "name": "0.349020_0.376471_0.400000_0.000000_0.000000",
            "pbrMetallicRoughness": {
                "baseColorFactor": [
                    0.3490196168422699,
                    0.3764705955982208,
                    0.4000000059604645,
                    1.0
                ],
                "metallicFactor": 0.0
            }
        },
        {
            "doubleSided": true,
            "name": "0.298039_0.298039_0.298039_0.000000_0.000000",
            "pbrMetallicRoughness": {
                "baseColorFactor": [
                    0.2980392277240753,
                    0.2980392277240753,
                    0.2980392277240753,
                    1.0
                ],
                "metallicFactor": 0.0
            }
        },
        {
            "doubleSided": true,
            "name": "0.231373_0.380392_0.705882_0.000000_0.000000",
            "pbrMetallicRoughness": {
                "baseColorFactor": [
                    0.23137255012989044,
                    0.3803921639919281,
                    0.7058823704719543,
                    1.0
                ],
                "metallicFactor": 0.0
            }
        },
        {
            "doubleSided": true,
            "name": "0.647059_0.647059_0.647059_0.000000_0.000000",
            "pbrMetallicRoughness": {
                "baseColorFactor": [
                    0.6470588445663452,
                    0.6470588445663452,
                    0.6470588445663452,
                    1.0
                ],
                "metallicFactor": 0.0
            }
        },
        {
            "doubleSided": true,
            "name": "0.980392_0.713725_0.003922_0.000000_0.000000",
            "pbrMetallicRoughness": {
                "baseColorFactor": [
                    0.9803921580314636,
                    0.7137255072593689,
                    0.003921568859368563,
                    1.0
                ],
                "metallicFactor": 0.0
            }
        },
        {
            "doubleSided": true,
            "name": "0.811765_0.858824_0.898039_0.000000_0.000000",
            "pbrMetallicRoughness": {
                "baseColorFactor": [
                    0.8117647171020508,
                    0.8588235378265381,
                    0.8980392217636108,
                    1.0
                ],
                "metallicFactor": 0.0
            }
        }
    ],
    "meshes": [
        {
            "name": "mesh491_mesh",
            "primitives": [
                {
                    "attributes": {
                        "NORMAL": 1,
                        "POSITION": 0
                    },
                    "indices": 2,
                    "material": 3
                }
            ]
        },
        {
            "name": "mesh492_mesh",
            "primitives": [
                {
                    "attributes": {
                        "NORMAL": 4,
                        "POSITION": 3
                    },
                    "indices": 5,
                    "material": 3
                }
            ]
        },
        {
            "name": "mesh493_mesh",
            "primitives": [
                {
                    "attributes": {
                        "NORMAL": 7,
                        "POSITION": 6
                    },
                    "indices": 8,
                    "material": 3
                }
            ]
        },
        {
            "name": "mesh494_mesh",
            "primitives": [
                {
                    "attributes": {
                        "NORMAL": 10,
                        "POSITION": 9
                    },
                    "indices": 11,
                    "material": 3
                }
            ]
        },
        {
            "name": "mesh495_mesh",
            "primitives": [
                {
                    "attributes": {
                        "NORMAL": 13,
                        "POSITION": 12
                    },
                    "indices": 14,
                    "material": 3
                }
            ]
        },
        {
            "name": "mesh496_mesh",
            "primitives": [
                {
                    "attributes": {
                        "NORMAL": 16,
                        "POSITION": 15
                    },
                    "indices": 17,
                    "material": 3
                }
            ]
        },
        {
            "name": "mesh497_mesh",
            "primitives": [
                {
                    "attributes": {
                        "NORMAL": 19,
                        "POSITION": 18
                    },
                    "indices": 20,
                    "material": 3
                }
            ]
        },
        {
            "name": "mesh498_mesh",
            "primitives": [
                {
                    "attributes": {
                        "NORMAL": 22,
                        "POSITION": 21
                    },
                    "indices": 23,
                    "material": 3
                }
            ]
        },
        {
            "name": "mesh499_mesh",
            "primitives": [
                {
                    "attributes": {
                        "NORMAL": 25,
                        "POSITION": 24
                    },
                    "indices": 26,
                    "material": 3
                }
            ]
        },
        {
            "name": "mesh500_mesh",
            "primitives": [
                {
                    "attributes": {
                        "NORMAL": 28,
                        "POSITION": 27
                    },
                    "indices": 29,
                    "material": 3
                }
            ]
        },
        {
            "name": "mesh501_mesh",
            "primitives": [
                {
                    "attributes": {
                        "NORMAL": 31,
                        "POSITION": 30
                    },
                    "indices": 32,
                    "material": 3
                }
            ]
        },
        {
            "name": "mesh502_mesh",
            "primitives": [
                {
                    "attributes": {
                        "NORMAL": 34,
                        "POSITION": 33
                    },
                    "indices": 35,
                    "material": 3
                }
            ]
        },
        {
            "name": "mesh503_mesh",
            "primitives": [
                {
                    "attributes": {
                        "NORMAL": 37,
                        "POSITION": 36
                    },
                    "indices": 38,
                    "material": 3
                }
            ]
        },
        {
            "name": "mesh504_mesh",
            "primitives": [
                {
                    "attributes": {
                        "NORMAL": 40,
                        "POSITION": 39
                    },
                    "indices": 41,
                    "material": 3
                }
            ]
        },
        {
            "name": "mesh505_mesh",
            "primitives": [
                {
                    "attributes": {
                        "NORMAL": 43,
                        "POSITION": 42
                    },
                    "indices": 44,
                    "material": 3
                }
            ]
        },
        {
            "name": "mesh506_mesh",
            "primitives": [
                {
                    "attributes": {
                        "NORMAL": 46,
                        "POSITION": 45
                    },
                    "indices": 47,
                    "material": 3
                }
            ]
        },
        {
            "name": "mesh507_mesh",
            "primitives": [
                {
                    "attributes": {
                        "NORMAL": 49,
                        "POSITION": 48
                    },
                    "indices": 50,
                    "material": 3
                }
            ]
        },
        {
            "name": "mesh508_mesh",
            "primitives": [
                {
                    "attributes": {
                        "NORMAL": 52,
                        "POSITION": 51
                    },
                    "indices": 53,
                    "material": 3
                }
            ]
        },
        {
            "name": "mesh509_mesh",
            "primitives": [
                {
                    "attributes": {
                        "NORMAL": 55,
                        "POSITION": 54
                    },
                    "indices": 56,
                    "material": 3
                }
            ]
        },
        {
            "name": "mesh510_mesh",
            "primitives": [
                {
                    "attributes": {
                        "NORMAL": 58,
                        "POSITION": 57
                    },
                    "indices": 59,
                    "material": 3
                }
            ]
        }
    ],
    "nodes": [
        {
            "mesh": 0,
            "name": "mesh491"
        },
        {
            "mesh": 1,
            "name": "mesh492"
        },
        {
            "mesh": 2,
            "name": "mesh493"
        },
        {
            "mesh": 3,
            "name": "mesh494"
        },
        {
            "mesh": 4,
            "name": "mesh495"
        },
        {
            "mesh": 5,
            "name": "mesh496"
        },
        {
            "mesh": 6,
            "name": "mesh497"
        },
        {
            "mesh": 7,
            "name": "mesh498"
        },
        {
            "mesh": 8,
            "name": "mesh499"
        },
        {
            "mesh": 9,
            "name": "mesh500"
        },
        {
            "mesh": 10,
            "name": "mesh501"
        },
        {
            "mesh": 11,
            "name": "mesh502"
        },
        {
            "mesh": 12,
            "name": "mesh503"
        },
        {
            "mesh": 13,
            "name": "mesh504"
        },
        {
            "mesh": 14,
            "name": "mesh505"
        },
        {
            "mesh": 15,
            "name": "mesh506"
        },
        {
            "mesh": 16,
            "name": "mesh507"
        },
        {
            "mesh": 17,
            "name": "mesh508"
        },
        {
            "mesh": 18,
            "name": "mesh509"
        },
        {
            "mesh": 19,
            "name": "mesh510"
        }
    ],
    "scene": 0,
    "scenes": [
        {
            "name": "Root",
            "nodes": [
                0,
                1,
                2,
                3,
                4,
                5,
                6,
                7,
                8,
                9,
                10,
                11,
                12,
                13,
                14,
                15,
                16,
                17,
                18,
                19
            ]
        }
    ]
}